<?xml version="1.0" encoding="utf-8"?>
<!-- Generator: Adobe Illustrator 21.1.0, SVG Export Plug-In . SVG Version: 6.00 Build 0)  -->
<svg version="1.1" id="Layer_1" xmlns="http://www.w3.org/2000/svg" xmlns:xlink="http://www.w3.org/1999/xlink" x="0px" y="0px"
	 viewBox="0 0 22 22" style="enable-background:new 0 0 22 22;" xml:space="preserve">
<style type="text/css">
	.st0{clip-path:url(#SVGID_2_);}
	.st1{clip-path:url(#SVGID_4_);fill:#4C827F;}
	.st2{clip-path:url(#SVGID_6_);}
	.st3{clip-path:url(#SVGID_8_);fill:#4C827F;}
	.st4{clip-path:url(#SVGID_10_);}
	.st5{clip-path:url(#SVGID_12_);fill:#4C827F;}
</style>
<g>
	<defs>
		<path id="SVGID_1_" d="M1.5,2.5h19C21.3,2.5,22,3.2,22,4s-0.7,1.5-1.5,1.5h-19C0.7,5.5,0,4.8,0,4S0.7,2.5,1.5,2.5z"/>
	</defs>
	<clipPath id="SVGID_2_">
		<use xlink:href="#SVGID_1_"  style="overflow:visible;"/>
	</clipPath>
	<g class="st0">
		<defs>
			<rect id="SVGID_3_" x="-802" y="-56.5" width="885" height="529"/>
		</defs>
		<clipPath id="SVGID_4_">
			<use xlink:href="#SVGID_3_"  style="overflow:visible;"/>
		</clipPath>
		<rect x="-5" y="-2.5" class="st1" width="32" height="13"/>
	</g>
</g>
<g>
	<defs>
		<path id="SVGID_5_" d="M1.5,9.5h19c0.8,0,1.5,0.7,1.5,1.5c0,0.8-0.7,1.5-1.5,1.5h-19C0.7,12.5,0,11.8,0,11C0,10.2,0.7,9.5,1.5,9.5
			z"/>
	</defs>
	<clipPath id="SVGID_6_">
		<use xlink:href="#SVGID_5_"  style="overflow:visible;"/>
	</clipPath>
	<g class="st2">
		<defs>
			<rect id="SVGID_7_" x="-802" y="-56.5" width="885" height="529"/>
		</defs>
		<clipPath id="SVGID_8_">
			<use xlink:href="#SVGID_7_"  style="overflow:visible;"/>
		</clipPath>
		<rect x="-5" y="4.5" class="st3" width="32" height="13"/>
	</g>
</g>
<g>
	<defs>
		<path id="SVGID_9_" d="M1.5,16.5h19c0.8,0,1.5,0.7,1.5,1.5s-0.7,1.5-1.5,1.5h-19C0.7,19.5,0,18.8,0,18S0.7,16.5,1.5,16.5z"/>
	</defs>
	<clipPath id="SVGID_10_">
		<use xlink:href="#SVGID_9_"  style="overflow:visible;"/>
	</clipPath>
	<g class="st4">
		<defs>
			<rect id="SVGID_11_" x="-802" y="-56.5" width="885" height="529"/>
		</defs>
		<clipPath id="SVGID_12_">
			<use xlink:href="#SVGID_11_"  style="overflow:visible;"/>
		</clipPath>
		<rect x="-5" y="11.5" class="st5" width="32" height="13"/>
	</g>
</g>
</svg>
