<?xml version="1.0" encoding="utf-8"?>
<!-- Generator: Adobe Illustrator 14.0.0, SVG Export Plug-In . SVG Version: 6.00 Build 43363)  -->
<!DOCTYPE svg PUBLIC "-//W3C//DTD SVG 1.1//EN" "http://www.w3.org/Graphics/SVG/1.1/DTD/svg11.dtd">
<svg version="1.1" xmlns="http://www.w3.org/2000/svg" xmlns:xlink="http://www.w3.org/1999/xlink" x="0px" y="0px"
	 width="381.583px" height="56.441px" viewBox="19.167 17.833 381.583 56.441"
	 enable-background="new 19.167 17.833 381.583 56.441" xml:space="preserve">
<g id="Layer_2">
</g>
<g id="Layer_1">
	<path opacity="0.9" fill="#FFFFFF" d="M282.027,52.848h-8.289l-2.344,8.232h-3.108l8.862-29.862h1.722l8.862,29.862h-3.318
		L282.027,52.848z M274.576,50.118h6.697l-2.553-9.128l-0.774-4.438h-0.086l-0.814,4.522L274.576,50.118z"/>
	<path opacity="0.9" fill="#FFFFFF" d="M297.854,46.422h8.106v12.937c-0.784,0.729-1.792,1.28-3.024,1.658
		c-1.232,0.379-2.478,0.567-3.737,0.567c-1.569,0-2.989-0.294-4.263-0.882c-1.275-0.588-2.359-1.505-3.256-2.751
		s-1.589-2.82-2.078-4.725c-0.49-1.904-0.735-4.187-0.735-6.847c0-2.744,0.294-5.075,0.882-6.993
		c0.588-1.917,1.379-3.486,2.373-4.704c0.994-1.218,2.127-2.106,3.402-2.667c1.273-0.56,2.582-0.84,3.927-0.84
		c1.344,0,2.471,0.091,3.381,0.273c0.909,0.182,1.687,0.427,2.331,0.735l-0.756,2.856c-0.561-0.308-1.226-0.546-1.995-0.714
		c-0.771-0.168-1.659-0.252-2.667-0.252c-0.98,0-1.918,0.21-2.814,0.63s-1.701,1.113-2.414,2.079
		c-0.715,0.966-1.281,2.233-1.701,3.801c-0.42,1.568-0.631,3.5-0.631,5.796c0,4.2,0.665,7.302,1.996,9.303
		c1.329,2.003,3.156,3.004,5.48,3.004c1.455,0,2.66-0.347,3.611-1.041v-8.493l-5.418-0.824V46.422z"/>
	<path opacity="0.9" fill="#FFFFFF" d="M310.412,31.68h13.062v2.898h-9.912v9.954h9.114v2.897h-9.114v10.752h10.122v2.898h-13.271
		V31.68z"/>
	<path opacity="0.9" fill="#FFFFFF" d="M332.923,42.432l-1.806-4.62h-0.127l0.463,4.62V61.08h-3.024V31.218h1.89l10.879,19.068
		l1.722,4.41h0.168l-0.462-4.41V31.68h3.023v29.862h-1.932L332.923,42.432z"/>
	<path opacity="0.9" fill="#FFFFFF" d="M351.025,31.68c0.447-0.084,0.944-0.147,1.49-0.189c0.547-0.042,1.099-0.07,1.659-0.084
		c0.56-0.014,1.113-0.028,1.659-0.042s1.057-0.021,1.533-0.021c2.043,0,3.779,0.35,5.207,1.05c1.429,0.7,2.59,1.701,3.486,3.003
		c0.896,1.302,1.54,2.863,1.932,4.683c0.393,1.82,0.589,3.85,0.589,6.09c0,2.017-0.188,3.948-0.567,5.796
		c-0.378,1.849-1.016,3.473-1.91,4.872c-0.896,1.4-2.08,2.521-3.55,3.36s-3.312,1.26-5.522,1.26c-0.365,0-0.826-0.007-1.387-0.021
		c-0.561-0.015-1.141-0.042-1.742-0.084c-0.604-0.042-1.162-0.078-1.681-0.105c-0.519-0.028-0.917-0.07-1.196-0.126V31.68z
		 M357.535,34.242c-0.28,0-0.582,0-0.903,0c-0.322,0-0.638,0.014-0.944,0.042c-0.309,0.028-0.596,0.056-0.861,0.084
		c-0.267,0.028-0.483,0.056-0.651,0.084v23.939c0.112,0.028,0.315,0.05,0.608,0.063c0.295,0.015,0.603,0.028,0.925,0.042
		c0.321,0.015,0.63,0.028,0.924,0.042c0.294,0.015,0.511,0.021,0.651,0.021c1.539,0,2.828-0.337,3.863-1.009
		c1.036-0.672,1.855-1.574,2.457-2.709c0.602-1.134,1.029-2.449,1.281-3.947s0.378-3.088,0.378-4.768
		c0-1.483-0.112-2.94-0.336-4.368c-0.224-1.428-0.623-2.695-1.196-3.801c-0.574-1.105-1.359-2.001-2.353-2.688
		C360.384,34.585,359.103,34.242,357.535,34.242z"/>
	<path opacity="0.9" fill="#FFFFFF" d="M383.624,52.848h-8.29l-2.344,8.232h-3.107l8.861-29.862h1.723l8.861,29.862h-3.318
		L383.624,52.848z M376.172,50.118h6.698l-2.554-9.128l-0.773-4.438h-0.086l-0.814,4.522L376.172,50.118z"/>
	<rect x="22.25" y="21.38" fill="none" stroke="#FFFFFF" stroke-width="4" width="377" height="50.99"/>
</g>
</svg>
