<?xml version="1.0" encoding="utf-8"?>
<!-- Generator: Adobe Illustrator 14.0.0, SVG Export Plug-In . SVG Version: 6.00 Build 43363)  -->
<!DOCTYPE svg PUBLIC "-//W3C//DTD SVG 1.1//EN" "http://www.w3.org/Graphics/SVG/1.1/DTD/svg11.dtd">
<svg version="1.1" id="Layer_2" xmlns="http://www.w3.org/2000/svg" xmlns:xlink="http://www.w3.org/1999/xlink" x="0px" y="0px"
	 width="216px" height="144px" viewBox="138.209 13.417 216 144" enable-background="new 138.209 13.417 216 144"
	 xml:space="preserve">
<path fill="#FFFFFF" stroke="#000000" stroke-width="0.75" d="M282.801,143.32c0.22,0.546-0.045,1.168-0.592,1.39l-4.369,1.765
	c-0.547,0.22-1.17-0.044-1.391-0.592L229.726,30.138c-0.221-0.548,0.043-1.17,0.591-1.391l4.369-1.764
	c0.546-0.221,1.17,0.043,1.392,0.591L282.801,143.32z"/>
<rect x="221.975" y="60.028" width="19.545" height="86.524"/>
<rect x="201.26" y="60.028" width="19.545" height="86.524"/>
<rect x="303.593" y="60.028" width="19.546" height="86.524"/>
<rect x="282.879" y="60.028" width="19.545" height="86.524"/>
<rect x="180.546" y="60.028" width="19.545" height="86.524"/>
<rect x="159.832" y="60.028" width="19.545" height="86.524"/>
<path fill="none" stroke="#000000" stroke-width="0.25" d="M280.85,145.258l-2.812,1.136c-0.656,0.264-1.404-0.054-1.668-0.711
	L229.807,30.337c-0.265-0.657,0.051-1.405,0.709-1.67l2.811-1.135l17.107,42.379l-0.015,0.006c-0.657,0.265-0.974,1.013-0.709,1.669
	l12.349,30.588c0.267,0.66,1.013,0.978,1.671,0.712l0.013-0.006L280.85,145.258z"/>
<path fill="none" stroke="#000000" stroke-width="0.25" d="M280.85,145.26l1.161-0.469c0.656-0.267,0.976-1.013,0.708-1.67
	L236.156,27.773c-0.266-0.657-1.012-0.974-1.669-0.71l-1.161,0.468L280.85,145.26z"/>
<text transform="matrix(1 0 0 1 164.043 126)" fill="#FFFFFF" font-family="'ArialMT'" font-size="10">20</text>
<text transform="matrix(1 0 0 1 164.043 140.5)" fill="#FFFFFF" font-family="'ArialMT'" font-size="10">08</text>
<text transform="matrix(1 0 0 1 184.7568 126)" fill="#FFFFFF" font-family="'ArialMT'" font-size="10">20</text>
<text transform="matrix(1 0 0 1 184.7568 140.5)" fill="#FFFFFF" font-family="'ArialMT'" font-size="10">09</text>
<text transform="matrix(1 0 0 1 205.4717 126)" fill="#FFFFFF" font-family="'ArialMT'" font-size="10">20</text>
<text transform="matrix(1 0 0 1 205.4717 140.5)" fill="#FFFFFF" font-family="'ArialMT'" font-size="10">10</text>
<text transform="matrix(1 0 0 1 226.1855 126)" fill="#FFFFFF" font-family="'ArialMT'" font-size="10">20</text>
<text transform="matrix(1 0 0 1 226.1855 140.5)" fill="#FFFFFF" font-family="'ArialMT'" font-size="10">11</text>
<text transform="matrix(1 0 0 1 287.0898 126)" fill="#FFFFFF" font-family="'ArialMT'" font-size="10">20</text>
<text transform="matrix(1 0 0 1 287.0898 140.5)" fill="#FFFFFF" font-family="'ArialMT'" font-size="10">12</text>
<text transform="matrix(1 0 0 1 307.8037 126)" fill="#FFFFFF" font-family="'ArialMT'" font-size="10">20</text>
<text transform="matrix(1 0 0 1 307.8037 140.5)" fill="#FFFFFF" font-family="'ArialMT'" font-size="10">13</text>
<line fill="none" stroke="#FFFFFF" x1="205.472" y1="129.247" x2="216.595" y2="129.247"/>
<line fill="none" stroke="#FFFFFF" x1="164.043" y1="129.247" x2="175.166" y2="129.247"/>
<line fill="none" stroke="#FFFFFF" x1="287.09" y1="129.247" x2="298.213" y2="129.247"/>
<line fill="none" stroke="#FFFFFF" x1="307.804" y1="129.247" x2="318.927" y2="129.247"/>
<line fill="none" stroke="#FFFFFF" x1="226.186" y1="129.247" x2="237.309" y2="129.247"/>
<line fill="none" stroke="#FFFFFF" x1="184.757" y1="129.247" x2="195.88" y2="129.247"/>
</svg>
