<?xml version="1.0" encoding="utf-8"?>
<!-- Generator: Adobe Illustrator 14.0.0, SVG Export Plug-In . SVG Version: 6.00 Build 43363)  -->
<!DOCTYPE svg PUBLIC "-//W3C//DTD SVG 1.1//EN" "http://www.w3.org/Graphics/SVG/1.1/DTD/svg11.dtd">
<svg version="1.1" id="Layer_1" xmlns="http://www.w3.org/2000/svg" xmlns:xlink="http://www.w3.org/1999/xlink" x="0px" y="0px"
	 width="468px" height="468px" viewBox="0 0 468 468" enable-background="new 0 0 468 468" xml:space="preserve">
<path opacity="0.6" fill-rule="evenodd" clip-rule="evenodd" enable-background="new    " d="M234,142.434
	c50.57,0,91.566,40.996,91.566,91.566c0,50.57-40.996,91.566-91.566,91.566c-50.57,0-91.566-40.996-91.566-91.566
	C142.434,183.43,183.43,142.434,234,142.434z M189.768,199.267c0.512-0.096,1.08-0.168,1.704-0.216s1.256-0.08,1.896-0.096
	c0.64-0.016,1.272-0.031,1.896-0.048c0.624-0.016,1.208-0.024,1.752-0.024c2.335,0,4.32,0.4,5.952,1.2
	c1.632,0.8,2.959,1.944,3.984,3.432c1.024,1.488,1.76,3.272,2.208,5.352c0.448,2.081,0.672,4.4,0.672,6.96
	c0,2.304-0.216,4.512-0.648,6.624c-0.432,2.112-1.16,3.968-2.184,5.568c-1.025,1.601-2.376,2.88-4.056,3.84s-3.785,1.44-6.312,1.44
	c-0.417,0-0.944-0.008-1.584-0.024c-0.641-0.017-1.304-0.048-1.992-0.096c-0.688-0.048-1.328-0.088-1.92-0.12
	c-0.592-0.032-1.048-0.08-1.368-0.144V199.267z M197.208,202.195c-0.32,0-0.665,0-1.032,0c-0.368,0-0.728,0.017-1.08,0.048
	c-0.353,0.032-0.68,0.064-0.984,0.096c-0.305,0.032-0.552,0.064-0.744,0.096v27.36c0.127,0.032,0.36,0.056,0.696,0.072
	c0.336,0.017,0.688,0.032,1.056,0.048c0.368,0.017,0.72,0.032,1.056,0.048s0.583,0.024,0.744,0.024c1.759,0,3.231-0.384,4.416-1.152
	c1.184-0.768,2.119-1.8,2.808-3.096c0.688-1.296,1.176-2.8,1.464-4.512c0.288-1.711,0.432-3.528,0.432-5.448
	c0-1.696-0.128-3.36-0.384-4.992c-0.256-1.632-0.712-3.08-1.368-4.344c-0.656-1.264-1.552-2.288-2.688-3.072
	C200.464,202.587,199,202.195,197.208,202.195z M213.96,216.067c0-5.696,0.912-10.016,2.736-12.96
	c1.824-2.944,4.608-4.416,8.352-4.416c2.016,0,3.728,0.408,5.136,1.224c1.408,0.816,2.551,1.977,3.432,3.48
	c0.879,1.505,1.527,3.329,1.944,5.472c0.415,2.144,0.623,4.544,0.623,7.2c0,5.696-0.92,10.016-2.76,12.96
	c-1.84,2.944-4.632,4.416-8.376,4.416c-1.984,0-3.68-0.408-5.088-1.224c-1.409-0.816-2.561-1.976-3.456-3.48
	c-0.896-1.504-1.544-3.328-1.944-5.472C214.16,221.124,213.96,218.724,213.96,216.067z M217.752,216.067
	c0,1.888,0.136,3.68,0.408,5.376c0.271,1.696,0.696,3.185,1.272,4.464c0.576,1.28,1.327,2.304,2.256,3.072
	c0.928,0.768,2.047,1.152,3.36,1.152c2.4,0,4.224-1.152,5.472-3.456c1.248-2.304,1.872-5.84,1.872-10.608
	c0-1.855-0.137-3.632-0.408-5.328c-0.272-1.696-0.696-3.192-1.272-4.488c-0.576-1.296-1.328-2.328-2.256-3.096
	c-0.929-0.768-2.064-1.152-3.408-1.152c-2.368,0-4.176,1.152-5.424,3.456C218.376,207.763,217.752,211.299,217.752,216.067z
	 M241.32,199.603c1.056-0.255,2.215-0.439,3.479-0.552c1.265-0.112,2.425-0.168,3.48-0.168c1.247,0,2.431,0.152,3.552,0.456
	c1.119,0.304,2.096,0.816,2.928,1.536c0.832,0.72,1.496,1.665,1.992,2.832c0.496,1.168,0.744,2.633,0.744,4.392
	c0,2.657-0.553,4.784-1.656,6.384s-2.568,2.672-4.392,3.216l1.823,1.776l6.625,13.392h-4.176l-7.201-14.64l-3.6-0.72v15.36h-3.6
	V199.603z M244.92,215.107h2.88c1.824,0,3.265-0.56,4.32-1.68c1.056-1.12,1.584-2.832,1.584-5.136c0-1.759-0.44-3.216-1.319-4.368
	c-0.881-1.152-2.185-1.728-3.912-1.728c-0.641,0-1.305,0.024-1.992,0.072c-0.689,0.048-1.209,0.12-1.561,0.216V215.107z
	 M276.129,223.459h-9.475l-2.679,9.408h-3.552l10.128-34.128h1.968l10.128,34.128h-3.792L276.129,223.459z M267.611,220.339h7.655
	l-2.918-10.433l-0.886-5.072h-0.098l-0.931,5.168L267.611,220.339z M206.521,272.371c-0.8,0.672-1.809,1.152-3.024,1.439
	c-1.217,0.289-2.496,0.433-3.84,0.433c-1.696,0-3.264-0.32-4.704-0.96c-1.44-0.641-2.68-1.656-3.72-3.049
	c-1.041-1.392-1.848-3.191-2.424-5.399c-0.576-2.208-0.864-4.864-0.864-7.968c0-3.199,0.328-5.904,0.984-8.112
	c0.656-2.208,1.528-3.999,2.616-5.376c1.087-1.375,2.344-2.367,3.768-2.977c1.423-0.607,2.887-0.911,4.392-0.911
	c1.536,0,2.808,0.112,3.816,0.336c1.008,0.224,1.879,0.497,2.616,0.815l-0.864,3.265c-0.641-0.353-1.392-0.624-2.256-0.816
	c-0.864-0.192-1.856-0.288-2.976-0.288c-1.121,0-2.177,0.248-3.168,0.744c-0.993,0.496-1.872,1.296-2.64,2.4
	c-0.768,1.104-1.376,2.552-1.824,4.344c-0.448,1.793-0.672,3.984-0.672,6.576c0,4.672,0.799,8.184,2.4,10.535
	c1.6,2.353,3.728,3.529,6.384,3.529c1.087,0,2.064-0.152,2.928-0.457c0.864-0.303,1.6-0.664,2.208-1.08L206.521,272.371z
	 M226.92,258.163h-12.384v15.504h-3.6v-33.601h3.6v14.785h12.384v-14.785h3.6v33.601h-3.6V258.163z M249.537,264.259h-9.474
	l-2.679,9.408h-3.552l10.128-34.128h1.967l10.129,34.128h-3.793L249.537,264.259z M241.021,261.139h7.655l-2.918-10.432
	l-0.886-5.072h-0.099l-0.93,5.168L241.021,261.139z M264.504,252.355l-2.064-5.28h-0.144l0.528,5.28v21.312h-3.457v-34.128h2.16
	l12.433,21.792l1.968,5.04h0.192l-0.528-5.04v-21.265h3.456v34.129h-2.208L264.504,252.355z"/>
<path opacity="0.6" fill="#FFFFFF" d="M189.741,199.267c0.512-0.096,1.08-0.168,1.704-0.216s1.256-0.08,1.896-0.096
	c0.64-0.016,1.272-0.031,1.896-0.048c0.624-0.016,1.208-0.024,1.752-0.024c2.335,0,4.32,0.4,5.952,1.2
	c1.632,0.8,2.959,1.944,3.984,3.432c1.024,1.488,1.76,3.272,2.208,5.352c0.448,2.081,0.672,4.4,0.672,6.96
	c0,2.304-0.216,4.512-0.648,6.624c-0.432,2.112-1.16,3.968-2.184,5.568c-1.025,1.601-2.376,2.88-4.056,3.84s-3.785,1.44-6.312,1.44
	c-0.417,0-0.944-0.008-1.584-0.024c-0.641-0.017-1.304-0.048-1.992-0.096c-0.688-0.048-1.328-0.088-1.92-0.12
	c-0.592-0.032-1.048-0.08-1.368-0.144V199.267z M197.181,202.195c-0.32,0-0.665,0-1.032,0c-0.368,0-0.728,0.017-1.08,0.048
	c-0.353,0.032-0.68,0.064-0.984,0.096c-0.305,0.032-0.552,0.064-0.744,0.096v27.36c0.127,0.032,0.36,0.056,0.696,0.072
	c0.336,0.017,0.688,0.032,1.056,0.048c0.368,0.017,0.72,0.032,1.056,0.048s0.583,0.024,0.744,0.024c1.759,0,3.231-0.384,4.416-1.152
	c1.184-0.768,2.119-1.8,2.808-3.096c0.688-1.296,1.176-2.8,1.464-4.512c0.288-1.711,0.432-3.528,0.432-5.448
	c0-1.696-0.128-3.36-0.384-4.992c-0.256-1.632-0.712-3.08-1.368-4.344c-0.656-1.264-1.552-2.288-2.688-3.072
	C200.437,202.587,198.973,202.195,197.181,202.195z M213.933,216.067c0-5.696,0.912-10.016,2.736-12.96
	c1.824-2.944,4.608-4.416,8.352-4.416c2.016,0,3.728,0.408,5.136,1.224c1.408,0.816,2.551,1.977,3.432,3.48
	c0.88,1.505,1.527,3.329,1.945,5.472c0.414,2.144,0.623,4.544,0.623,7.2c0,5.696-0.92,10.016-2.759,12.96
	c-1.841,2.944-4.632,4.416-8.376,4.416c-1.984,0-3.68-0.408-5.088-1.224c-1.409-0.816-2.561-1.976-3.456-3.48
	c-0.896-1.504-1.544-3.328-1.944-5.472C214.132,221.124,213.933,218.724,213.933,216.067z M217.725,216.067
	c0,1.888,0.136,3.68,0.408,5.376c0.271,1.696,0.696,3.185,1.272,4.464c0.576,1.28,1.327,2.304,2.256,3.072
	c0.928,0.768,2.047,1.152,3.36,1.152c2.4,0,4.224-1.152,5.472-3.456c1.248-2.304,1.872-5.84,1.872-10.608
	c0-1.855-0.137-3.632-0.408-5.328c-0.272-1.696-0.696-3.192-1.272-4.488c-0.576-1.296-1.328-2.328-2.256-3.096
	c-0.929-0.768-2.064-1.152-3.408-1.152c-2.368,0-4.176,1.152-5.424,3.456C218.349,207.763,217.725,211.299,217.725,216.067z
	 M241.293,199.603c1.055-0.255,2.215-0.439,3.479-0.552c1.266-0.112,2.426-0.168,3.48-0.168c1.248,0,2.432,0.152,3.553,0.456
	c1.119,0.304,2.096,0.816,2.928,1.536c0.832,0.72,1.496,1.665,1.992,2.832c0.496,1.168,0.744,2.633,0.744,4.392
	c0,2.657-0.553,4.784-1.656,6.384s-2.568,2.672-4.393,3.216l1.824,1.776l6.625,13.392h-4.176l-7.201-14.64l-3.6-0.72v15.36h-3.6
	V199.603z M244.893,215.107h2.879c1.824,0,3.266-0.56,4.32-1.68c1.057-1.12,1.584-2.832,1.584-5.136
	c0-1.759-0.439-3.216-1.318-4.368c-0.881-1.152-2.186-1.728-3.912-1.728c-0.641,0-1.305,0.024-1.992,0.072
	c-0.689,0.048-1.209,0.12-1.561,0.216V215.107z M276.102,223.459h-9.475l-2.68,9.408h-3.551l10.127-34.128h1.969l10.127,34.128
	h-3.791L276.102,223.459z M267.584,220.339h7.654l-2.918-10.433l-0.885-5.072h-0.098l-0.932,5.168L267.584,220.339z
	 M206.494,272.371c-0.8,0.672-1.809,1.152-3.024,1.439c-1.217,0.289-2.496,0.433-3.84,0.433c-1.696,0-3.264-0.32-4.704-0.96
	c-1.44-0.641-2.68-1.656-3.72-3.049c-1.041-1.392-1.848-3.191-2.424-5.399c-0.576-2.208-0.864-4.864-0.864-7.968
	c0-3.199,0.328-5.904,0.984-8.112c0.656-2.208,1.528-3.999,2.616-5.376c1.087-1.375,2.344-2.367,3.768-2.977
	c1.423-0.607,2.887-0.911,4.392-0.911c1.536,0,2.808,0.112,3.816,0.336c1.008,0.224,1.879,0.497,2.616,0.815l-0.864,3.265
	c-0.641-0.353-1.392-0.624-2.256-0.816c-0.864-0.192-1.856-0.288-2.976-0.288c-1.121,0-2.177,0.248-3.168,0.744
	c-0.993,0.496-1.872,1.296-2.64,2.4c-0.768,1.104-1.376,2.552-1.824,4.344c-0.448,1.793-0.672,3.984-0.672,6.576
	c0,4.672,0.799,8.184,2.4,10.535c1.6,2.353,3.728,3.529,6.384,3.529c1.087,0,2.064-0.152,2.928-0.457
	c0.864-0.303,1.6-0.664,2.208-1.08L206.494,272.371z M226.893,258.163h-12.384v15.504h-3.6v-33.601h3.6v14.785h12.384v-14.785h3.6
	v33.601h-3.6V258.163z M249.51,264.259h-9.475l-2.678,9.408h-3.552l10.128-34.128h1.967l10.129,34.128h-3.793L249.51,264.259z
	 M240.992,261.139h7.656l-2.918-10.432l-0.887-5.072h-0.098l-0.93,5.168L240.992,261.139z M264.477,252.355l-2.064-5.28h-0.145
	l0.529,5.28v21.312h-3.457v-34.128h2.16l12.432,21.792l1.969,5.04h0.191l-0.527-5.04v-21.265h3.455v34.129h-2.207L264.477,252.355z"
	/>
</svg>
