<?xml version="1.0" encoding="utf-8"?>
<!-- Generator: Adobe Illustrator 14.0.0, SVG Export Plug-In . SVG Version: 6.00 Build 43363)  -->
<!DOCTYPE svg PUBLIC "-//W3C//DTD SVG 1.1//EN" "http://www.w3.org/Graphics/SVG/1.1/DTD/svg11.dtd">
<svg version="1.1" id="Layer_1" xmlns="http://www.w3.org/2000/svg" xmlns:xlink="http://www.w3.org/1999/xlink" x="0px" y="0px"
	 width="468px" height="468px" viewBox="0 0 468 468" enable-background="new 0 0 468 468" xml:space="preserve">
<path opacity="0.6" fill-rule="evenodd" clip-rule="evenodd" enable-background="new    " d="M234,142.434
	c50.57,0,91.566,40.996,91.566,91.566c0,50.57-40.996,91.566-91.566,91.566c-50.57,0-91.566-40.996-91.566-91.566
	C142.434,183.43,183.43,142.434,234,142.434z M179.819,217.922h3.455v32.247h-3.455V217.922z M189.861,217.922
	c0.491-0.092,1.037-0.16,1.636-0.207c0.599-0.045,1.205-0.076,1.82-0.092c0.613-0.016,1.221-0.03,1.819-0.047
	c0.599-0.015,1.16-0.021,1.682-0.021c2.24,0,4.146,0.384,5.712,1.15c1.566,0.769,2.84,1.866,3.824,3.294
	c0.982,1.429,1.688,3.142,2.118,5.137c0.43,1.997,0.645,4.223,0.645,6.68c0,2.212-0.206,4.33-0.621,6.358
	c-0.415,2.026-1.113,3.808-2.097,5.343c-0.982,1.536-2.28,2.765-3.893,3.686c-1.612,0.921-3.631,1.382-6.057,1.382
	c-0.4,0-0.906-0.009-1.521-0.023c-0.615-0.016-1.251-0.047-1.912-0.092c-0.66-0.046-1.274-0.085-1.842-0.116
	c-0.568-0.029-1.006-0.076-1.313-0.137V217.922z M197.002,220.732c-0.308,0-0.637,0-0.99,0c-0.354,0-0.7,0.016-1.037,0.047
	c-0.339,0.03-0.652,0.062-0.945,0.092c-0.291,0.031-0.529,0.062-0.713,0.092v26.259c0.122,0.029,0.346,0.054,0.668,0.068
	c0.322,0.017,0.66,0.031,1.013,0.046c0.353,0.017,0.691,0.031,1.014,0.047c0.322,0.015,0.56,0.022,0.713,0.022
	c1.688,0,3.102-0.369,4.239-1.106c1.135-0.735,2.033-1.727,2.694-2.97c0.66-1.245,1.128-2.688,1.405-4.332
	c0.277-1.642,0.415-3.385,0.415-5.229c0-1.627-0.122-3.224-0.369-4.79c-0.246-1.566-0.684-2.955-1.312-4.169
	c-0.63-1.213-1.491-2.195-2.581-2.948C200.127,221.109,198.721,220.732,197.002,220.732z M214.046,217.922h14.327v3.18h-10.872
	v10.917h9.997v3.179h-9.997v11.793h11.102v3.179h-14.557V217.922z M246.163,241.141h-9.093l-2.572,9.028h-3.409l9.721-32.753h1.889
	l9.72,32.753h-3.64L246.163,241.141z M237.988,238.146h7.348l-2.801-10.012l-0.85-4.868h-0.094l-0.894,4.961L237.988,238.146z
	 M270.062,221.102h-7.923v29.067h-3.455v-29.067h-7.925v-3.18h19.303V221.102z M273.655,217.922h14.327v3.18H277.11v10.917h9.997
	v3.179h-9.997v11.793h11.102v3.179h-14.557V217.922z"/>
<path opacity="0.6" fill-rule="evenodd" clip-rule="evenodd" fill="#FFFFFF" enable-background="new    " d="M179.804,217.922h3.455
	v32.247h-3.455V217.922z M189.846,217.922c0.491-0.092,1.037-0.16,1.636-0.207c0.599-0.045,1.205-0.076,1.82-0.092
	c0.613-0.016,1.221-0.03,1.819-0.047c0.599-0.015,1.16-0.021,1.682-0.021c2.24,0,4.146,0.384,5.712,1.15
	c1.566,0.769,2.84,1.866,3.824,3.294c0.982,1.429,1.688,3.142,2.118,5.137c0.43,1.997,0.645,4.223,0.645,6.68
	c0,2.212-0.206,4.33-0.621,6.358c-0.415,2.026-1.113,3.808-2.097,5.343c-0.982,1.536-2.28,2.765-3.893,3.686
	c-1.612,0.921-3.631,1.382-6.057,1.382c-0.4,0-0.906-0.009-1.521-0.023c-0.615-0.016-1.251-0.047-1.912-0.092
	c-0.66-0.046-1.274-0.085-1.842-0.116c-0.568-0.029-1.006-0.076-1.313-0.137V217.922z M196.986,220.732c-0.308,0-0.637,0-0.99,0
	c-0.354,0-0.7,0.016-1.037,0.047c-0.339,0.03-0.652,0.062-0.945,0.092c-0.291,0.031-0.529,0.062-0.713,0.092v26.259
	c0.122,0.029,0.346,0.054,0.668,0.068c0.322,0.017,0.66,0.031,1.013,0.046c0.353,0.017,0.691,0.031,1.014,0.047
	c0.322,0.015,0.56,0.022,0.713,0.022c1.688,0,3.102-0.369,4.239-1.106c1.135-0.735,2.033-1.727,2.694-2.97
	c0.66-1.245,1.128-2.688,1.405-4.332c0.277-1.642,0.415-3.385,0.415-5.229c0-1.627-0.122-3.224-0.369-4.79
	c-0.246-1.566-0.684-2.955-1.312-4.169c-0.63-1.213-1.491-2.195-2.581-2.948C200.112,221.109,198.706,220.732,196.986,220.732z
	 M214.03,217.922h14.327v3.18h-10.872v10.917h9.997v3.179h-9.997v11.793h11.102v3.179H214.03V217.922z M246.147,241.141h-9.093
	l-2.572,9.028h-3.409l9.721-32.753h1.889l9.72,32.753h-3.64L246.147,241.141z M237.973,238.146h7.348l-2.801-10.012l-0.85-4.868
	h-0.094l-0.894,4.961L237.973,238.146z M270.047,221.102h-7.923v29.067h-3.455v-29.067h-7.925v-3.18h19.303V221.102z
	 M273.64,217.922h14.327v3.18h-10.872v10.917h9.997v3.179h-9.997v11.793h11.102v3.179H273.64V217.922z"/>
</svg>
