<?xml version="1.0" encoding="utf-8"?>
<!-- Generator: Adobe Illustrator 14.0.0, SVG Export Plug-In . SVG Version: 6.00 Build 43363)  -->
<!DOCTYPE svg PUBLIC "-//W3C//DTD SVG 1.1//EN" "http://www.w3.org/Graphics/SVG/1.1/DTD/svg11.dtd">
<svg version="1.1" id="Layer_4" xmlns="http://www.w3.org/2000/svg" xmlns:xlink="http://www.w3.org/1999/xlink" x="0px" y="0px"
	 width="108px" height="108px" viewBox="0 0 108 108" enable-background="new 0 0 108 108" xml:space="preserve">
<path opacity="0.85" fill-rule="evenodd" clip-rule="evenodd" fill="#231F20" d="M93.389,54.001
	c0,21.754-17.633,39.387-39.387,39.387c-21.756,0-39.391-17.633-39.391-39.387c0-21.756,17.635-39.391,39.391-39.391
	C75.756,14.611,93.389,32.246,93.389,54.001z M52.946,24.972C36.539,33.845,39.94,53.413,39.94,53.413s-6.563,1.824-7.536,6.685
	c0,0-2.188,8.752,3.161,19.57c0,0,4.01,5.953,4.253-1.34c0.243-7.291,4.254-8.628,5.834-8.994l2.537,4.133h9.513l2.536-4.133
	c1.581,0.366,5.591,1.703,5.835,8.994c0.244,7.293,4.254,1.34,4.254,1.34c5.347-10.818,3.16-19.57,3.16-19.57
	c-0.973-4.86-7.536-6.685-7.536-6.685S69.355,33.845,52.946,24.972L52.946,24.972z"/>
<path fill="#FFFFFF" d="M52.946,24.972c16.409,8.873,13.006,28.441,13.006,28.441s6.563,1.824,7.536,6.685
	c0,0,2.187,8.752-3.16,19.57c0,0-4.01,5.953-4.254-1.34c-0.244-7.291-4.254-8.628-5.835-8.994l-2.536,4.133H48.19l-2.537-4.133
	c-1.58,0.366-5.591,1.703-5.834,8.994c-0.243,7.293-4.253,1.34-4.253,1.34c-5.348-10.818-3.161-19.57-3.161-19.57
	c0.973-4.86,7.536-6.685,7.536-6.685S36.539,33.845,52.946,24.972L52.946,24.972z"/>
<circle fill="none" stroke="#FFFFFF" stroke-width="0.5" cx="54" cy="54.001" r="41.859"/>
<path opacity="0.6" fill="none" stroke="#FFFFFF" stroke-width="3" d="M101.469,54.001c0,26.213-21.254,47.467-47.467,47.467
	c-26.219,0-47.472-21.254-47.472-47.467C6.53,27.783,27.783,6.53,54.001,6.53C80.215,6.53,101.469,27.783,101.469,54.001z"/>
</svg>
