<?xml version="1.0" encoding="utf-8"?>
<!-- Generator: Adobe Illustrator 14.0.0, SVG Export Plug-In . SVG Version: 6.00 Build 43363)  -->
<!DOCTYPE svg PUBLIC "-//W3C//DTD SVG 1.1//EN" "http://www.w3.org/Graphics/SVG/1.1/DTD/svg11.dtd">
<svg version="1.1" id="Layer_2" xmlns="http://www.w3.org/2000/svg" xmlns:xlink="http://www.w3.org/1999/xlink" x="0px" y="0px"
	 width="108px" height="108px" viewBox="0 0 108 108" enable-background="new 0 0 108 108" xml:space="preserve">
<circle fill="none" stroke="#FFFFFF" stroke-width="0.5" cx="54" cy="54.001" r="41.859"/>
<path opacity="0.6" fill="none" stroke="#FFFFFF" stroke-width="3" d="M101.469,54.001c0,26.213-21.254,47.467-47.467,47.467
	c-26.219,0-47.472-21.254-47.472-47.467C6.53,27.783,27.783,6.53,54.001,6.53C80.215,6.53,101.469,27.783,101.469,54.001z"/>
<path opacity="0.85" fill-rule="evenodd" clip-rule="evenodd" fill="#231F20" d="M93.389,54.001
	c0,21.754-17.633,39.387-39.387,39.387c-21.756,0-39.391-17.633-39.391-39.387c0-21.756,17.635-39.391,39.391-39.391
	C75.756,14.611,93.389,32.246,93.389,54.001z M78.928,76.574c0.717-0.688,0.137-1.959,0.137-1.959l-21.43-22.412l-2.656-0.249
	c0,0-12.641-11.72-10.963-12.393c1.68-0.672,0.912-5.028,0.912-5.028l2.701-1.903l2.191,0.824c0,0,2.344-0.287,3.094-1.276
	c0.75-0.988,0.816-3.482,0.816-3.482l-5.238-5.924l-3.648,0.284l-1.822,1.611l0.035,2.426l-1.609,0.936l-3.023,1.539
	c0,0-9.141,7.111-11.977,9.781c-2.834,2.67-3.332,7.983-3.68,9.427c-0.348,1.444,1.111,8.601,1.111,8.601l1.223-0.271l0.912-0.805
	l0.01-4.396c0,0,2.479-5.278,4.35-6.283c1.871-1.007,3.578-0.729,3.578-0.729l2.029,0.642l1.877,0.287l0.807,0.912l9.754,11.024
	l0.287,2.345L69.18,83.246c0,0,1.25,0.682,2.049,0.299c0.799-0.382,3.555-3.145,3.555-3.145S78.418,77.061,78.928,76.574z"/>
<path fill="#FFFFFF" d="M74.783,80.4c0,0-2.756,2.763-3.555,3.145c-0.799,0.383-2.049-0.299-2.049-0.299L48.705,60.103l-0.287-2.345
	l-9.754-11.024l-0.807-0.912l-1.877-0.287l-2.029-0.642c0,0-1.707-0.277-3.578,0.729c-1.871,1.005-4.35,6.283-4.35,6.283
	l-0.01,4.396l-0.912,0.805l-1.223,0.271c0,0-1.459-7.156-1.111-8.601c0.348-1.443,0.846-6.757,3.68-9.427
	c2.836-2.67,11.977-9.781,11.977-9.781l3.023-1.539l1.609-0.936l-0.035-2.426l1.822-1.611l3.648-0.284l5.238,5.924
	c0,0-0.066,2.494-0.816,3.482c-0.75,0.989-3.094,1.276-3.094,1.276l-2.191-0.824l-2.701,1.903c0,0,0.768,4.356-0.912,5.028
	c-1.678,0.673,10.963,12.393,10.963,12.393l2.656,0.249l21.43,22.412c0,0,0.58,1.271-0.137,1.959
	C78.418,77.061,74.783,80.4,74.783,80.4z"/>
</svg>
