<?xml version="1.0" encoding="utf-8"?>
<!-- Generator: Adobe Illustrator 14.0.0, SVG Export Plug-In . SVG Version: 6.00 Build 43363)  -->
<!DOCTYPE svg PUBLIC "-//W3C//DTD SVG 1.1//EN" "http://www.w3.org/Graphics/SVG/1.1/DTD/svg11.dtd">
<svg version="1.1" id="Layer_2" xmlns="http://www.w3.org/2000/svg" xmlns:xlink="http://www.w3.org/1999/xlink" x="0px" y="0px"
	 width="108px" height="108px" viewBox="0 0 108 108" enable-background="new 0 0 108 108" xml:space="preserve">
<path opacity="0.85" fill-rule="evenodd" clip-rule="evenodd" fill="#231F20" d="M93.389,54.001
	c0,21.754-17.633,39.387-39.387,39.387c-21.756,0-39.391-17.633-39.391-39.387c0-21.756,17.635-39.391,39.391-39.391
	C75.756,14.611,93.389,32.246,93.389,54.001z M60.504,35.569L34.859,61.213l-3.545,16.554l16.555-3.545l25.645-25.644L60.504,35.569
	z M75.902,46.188l3.781-3.78c1.336-1.336,1.336-3.5,0-4.835l-8.176-8.175c-1.334-1.335-3.498-1.335-4.834,0l-3.781,3.78
	L75.902,46.188z"/>
<polygon fill="#FFFFFF" points="60.505,35.569 34.86,61.212 31.314,77.767 47.87,74.222 73.515,48.577 "/>
<path fill="#FFFFFF" d="M75.903,46.187l3.781-3.779c1.336-1.336,1.336-3.501,0-4.836l-8.176-8.175
	c-1.334-1.335-3.498-1.335-4.834,0.001l-3.781,3.779L75.903,46.187z"/>
<circle fill="none" stroke="#FFFFFF" stroke-width="0.5" cx="54" cy="54.001" r="41.859"/>
<path opacity="0.6" fill="none" stroke="#FFFFFF" stroke-width="3" d="M101.469,54.001c0,26.213-21.254,47.467-47.467,47.467
	c-26.219,0-47.472-21.254-47.472-47.467C6.53,27.783,27.783,6.53,54.001,6.53C80.215,6.53,101.469,27.783,101.469,54.001z"/>
</svg>
