<?xml version="1.0" encoding="utf-8"?>
<!-- Generator: Adobe Illustrator 14.0.0, SVG Export Plug-In . SVG Version: 6.00 Build 43363)  -->
<!DOCTYPE svg PUBLIC "-//W3C//DTD SVG 1.1//EN" "http://www.w3.org/Graphics/SVG/1.1/DTD/svg11.dtd">
<svg version="1.1" id="Layer_3" xmlns="http://www.w3.org/2000/svg" xmlns:xlink="http://www.w3.org/1999/xlink" x="0px" y="0px"
	 width="129.6px" height="244.8px" viewBox="0 0 129.6 244.8" enable-background="new 0 0 129.6 244.8" xml:space="preserve">
<path fill="#FFFFFF" stroke="#000000" stroke-width="0.75" stroke-dasharray="2,2" d="M112.591,80.146
	c0,0.643-0.523,1.162-1.164,1.162H18.173c-0.645,0-1.164-0.52-1.164-1.162V16.074c0-0.643,0.52-1.163,1.164-1.163h93.254
	c0.641,0,1.164,0.521,1.164,1.163V80.146z"/>
<path fill="#BCBCBC" d="M110.052,77.892c0,0.645-0.52,1.164-1.164,1.164H91.282c-0.645,0-1.164-0.52-1.164-1.164V41.599
	c0-0.643,0.52-1.163,1.164-1.163h17.605c0.645,0,1.164,0.521,1.164,1.163V77.892z"/>
<path fill="#FFFFFF" stroke="#000000" stroke-width="0.75" stroke-dasharray="2,2" d="M112.591,154.439
	c0,0.641-0.523,1.16-1.164,1.16H18.173c-0.645,0-1.164-0.52-1.164-1.16V90.363c0-0.643,0.52-1.162,1.164-1.162h93.254
	c0.641,0,1.164,0.52,1.164,1.162V154.439z"/>
<path fill="#FFFFFF" stroke="#000000" stroke-width="0.75" stroke-dasharray="2,2" d="M112.591,228.728
	c0,0.641-0.523,1.16-1.164,1.16H18.173c-0.645,0-1.164-0.52-1.164-1.16v-64.074c0-0.645,0.52-1.164,1.164-1.164h93.254
	c0.641,0,1.164,0.52,1.164,1.164V228.728z"/>
<path fill="#BCBCBC" d="M87.907,131.332c0,0.643-0.52,1.164-1.164,1.164H20.499c-0.643,0-1.162-0.521-1.162-1.164v-15.443
	c0-0.645,0.52-1.164,1.162-1.164h66.244c0.645,0,1.164,0.52,1.164,1.164V131.332z"/>
<path fill="#BCBCBC" d="M87.903,226.474c0,0.641-0.52,1.162-1.16,1.162H67.021c-0.641,0-1.162-0.521-1.162-1.162V209.49
	c0-0.645,0.521-1.164,1.162-1.164h19.723c0.641,0,1.16,0.52,1.16,1.164V226.474z"/>
<path fill="#BCBCBC" d="M64.644,205.568c0,0.648-0.521,1.168-1.162,1.168H43.763c-0.645,0-1.164-0.52-1.164-1.168v-15.387
	c0-0.646,0.52-1.166,1.164-1.166h19.719c0.641,0,1.162,0.52,1.162,1.166V205.568z"/>
<path fill="#BCBCBC" d="M110.052,37.22c0,0.642-0.52,1.162-1.164,1.162H20.499c-0.643,0-1.162-0.521-1.162-1.162V18.399
	c0-0.642,0.52-1.162,1.162-1.162h88.389c0.645,0,1.164,0.521,1.164,1.162V37.22z"/>
<path fill="#BCBCBC" d="M87.907,77.892c0,0.645-0.52,1.164-1.164,1.164H20.499c-0.643,0-1.162-0.52-1.162-1.164V41.599
	c0-0.643,0.52-1.163,1.162-1.163h66.244c0.645,0,1.164,0.521,1.164,1.163V77.892z"/>
<path fill="#BCBCBC" d="M110.052,111.513c0,0.637-0.52,1.158-1.164,1.158H20.499c-0.643,0-1.162-0.521-1.162-1.158V92.689
	c0-0.643,0.52-1.164,1.162-1.164h88.389c0.645,0,1.164,0.521,1.164,1.164V111.513z"/>
<path fill="#BCBCBC" d="M41.38,152.185c0,0.641-0.52,1.16-1.16,1.16H20.499c-0.643,0-1.162-0.52-1.162-1.16v-16.986
	c0-0.643,0.52-1.162,1.162-1.162H40.22c0.641,0,1.16,0.52,1.16,1.162V152.185z"/>
<path fill="#BCBCBC" d="M87.903,152.185c0,0.641-0.52,1.16-1.16,1.16H67.021c-0.641,0-1.162-0.52-1.162-1.16v-16.986
	c0-0.643,0.521-1.162,1.162-1.162h19.723c0.641,0,1.16,0.52,1.16,1.162V152.185z"/>
<path fill="#BCBCBC" d="M64.644,152.185c0,0.641-0.521,1.16-1.162,1.16H43.763c-0.645,0-1.164-0.52-1.164-1.16v-16.986
	c0-0.643,0.52-1.162,1.164-1.162h19.719c0.641,0,1.162,0.52,1.162,1.162V152.185z"/>
<path fill="#BCBCBC" d="M110.052,152.185c0,0.641-0.52,1.16-1.164,1.16H91.282c-0.645,0-1.164-0.52-1.164-1.16v-36.297
	c0-0.645,0.52-1.164,1.164-1.164h17.605c0.645,0,1.164,0.52,1.164,1.164V152.185z"/>
<path fill="#BCBCBC" d="M110.052,185.802c0,0.639-0.52,1.16-1.164,1.16H20.499c-0.643,0-1.162-0.521-1.162-1.16v-18.824
	c0-0.643,0.52-1.164,1.162-1.164h88.389c0.645,0,1.164,0.521,1.164,1.164V185.802z"/>
<path fill="#BCBCBC" d="M41.38,226.474c0,0.641-0.52,1.162-1.16,1.162H20.499c-0.643,0-1.162-0.521-1.162-1.162V209.49
	c0-0.645,0.52-1.164,1.162-1.164H40.22c0.641,0,1.16,0.52,1.16,1.164V226.474z"/>
<path fill="#BCBCBC" d="M64.644,226.474c0,0.641-0.521,1.162-1.162,1.162H43.763c-0.645,0-1.164-0.521-1.164-1.162V209.49
	c0-0.645,0.52-1.164,1.164-1.164h19.719c0.641,0,1.162,0.52,1.162,1.164V226.474z"/>
<path fill="#BCBCBC" d="M41.38,205.568c0,0.648-0.52,1.168-1.16,1.168H20.499c-0.643,0-1.162-0.52-1.162-1.168v-15.387
	c0-0.646,0.52-1.166,1.162-1.166H40.22c0.641,0,1.16,0.52,1.16,1.166V205.568z"/>
<path fill="#BCBCBC" d="M87.903,205.568c0,0.648-0.52,1.168-1.16,1.168H67.021c-0.641,0-1.162-0.52-1.162-1.168v-15.387
	c0-0.646,0.521-1.166,1.162-1.166h19.723c0.641,0,1.16,0.52,1.16,1.166V205.568z"/>
<path fill="#BCBCBC" d="M110.052,226.474c0,0.641-0.52,1.162-1.164,1.162H91.282c-0.645,0-1.164-0.521-1.164-1.162v-36.293
	c0-0.646,0.52-1.166,1.164-1.166h17.605c0.645,0,1.164,0.52,1.164,1.166V226.474z"/>
<text transform="matrix(1 0 0 1 59.4077 57.7476)" font-family="'PTSans-Narrow'" font-size="22.8">A</text>
<text transform="matrix(1 0 0 1 59.4307 132.0366)" font-family="'PTSans-Narrow'" font-size="22.8">B</text>
<text transform="matrix(1 0 0 1 59.5786 206.3247)" font-family="'PTSans-Narrow'" font-size="22.8">C</text>
</svg>
