<?xml version="1.0" encoding="utf-8"?>
<!-- Generator: Adobe Illustrator 14.0.0, SVG Export Plug-In . SVG Version: 6.00 Build 43363)  -->
<!DOCTYPE svg PUBLIC "-//W3C//DTD SVG 1.1//EN" "http://www.w3.org/Graphics/SVG/1.1/DTD/svg11.dtd">
<svg version="1.1" id="Layer_3" xmlns="http://www.w3.org/2000/svg" xmlns:xlink="http://www.w3.org/1999/xlink" x="0px" y="0px"
	 width="273.6px" height="144px" viewBox="100.45 0 273.6 144" enable-background="new 100.45 0 273.6 144" xml:space="preserve">
<path d="M366.739,83.372c0,1.704-1.377,3.085-3.084,3.085H349.86c-1.703,0-3.086-1.377-3.086-3.085V46.701
	c0-1.703,1.381-3.083,3.086-3.083h13.795c1.703,0,3.084,1.38,3.084,3.083V83.372z M365.518,49.884h-17.52v30.689h17.52V49.884z
	 M356.759,81.853c-0.987,0-1.791,0.802-1.791,1.791c0,0.988,0.804,1.79,1.791,1.79c0.986,0,1.789-0.802,1.789-1.79
	C358.548,82.654,357.745,81.853,356.759,81.853z"/>
<rect x="347.999" y="49.884" fill="#FFFFFF" width="17.519" height="30.689"/>
<path d="M154.945,93.125c0,1.459-1.184,2.643-2.645,2.643h-40.738c-1.461,0-2.646-1.184-2.646-2.643V37.904
	c0-1.46,1.185-2.645,2.646-2.645h40.738c1.461,0,2.645,1.185,2.645,2.645V93.125z M150.636,40.556h-37.409v49.466h37.409V40.556z
	 M131.932,91.372c-0.902,0-1.635,0.732-1.635,1.635c0,0.903,0.731,1.635,1.635,1.635c0.901,0,1.633-0.729,1.633-1.635
	C133.564,92.104,132.833,91.372,131.932,91.372z M131.933,37.626c-0.374,0-0.678,0.303-0.678,0.677c0,0.372,0.304,0.676,0.678,0.676
	c0.372,0,0.675-0.304,0.675-0.676C132.607,37.928,132.305,37.626,131.933,37.626z"/>
<rect x="113.227" y="40.556" fill="#FFFFFF" width="37.409" height="49.466"/>
<circle fill="#FFFFFF" cx="131.932" cy="93.007" r="1.635"/>
<circle fill="#FFFFFF" cx="131.933" cy="38.301" r="0.676"/>
<path fill="#FFFFFF" d="M356.759,81.853c-0.987,0-1.791,0.802-1.791,1.79s0.804,1.79,1.791,1.79c0.986,0,1.789-0.802,1.789-1.79
	S357.745,81.853,356.759,81.853z"/>
<path fill="#FFFFFF" stroke="#000000" stroke-width="0.75" d="M261.404,114.945l4.896,13.551c0,0,0.327,0.644,1.514,0.687
	c1.189,0.041,1.908,0.211,1.908,0.211s0.848,0,1.016,1.483h-38.524c0.17-1.483,1.019-1.483,1.019-1.483s0.72-0.17,1.906-0.211
	c1.187-0.043,1.515-0.687,1.515-0.687l4.896-13.551"/>
<path fill="#FFFFFF" stroke="#000000" stroke-width="0.75" d="M321.66,111.037c0,2.166-1.754,3.917-3.917,3.917H187.674
	c-2.164,0-3.917-1.753-3.917-3.917V19.038c0-2.164,1.754-3.918,3.917-3.918h130.069c2.163,0,3.914,1.754,3.914,3.918L321.66,111.037
	L321.66,111.037z"/>
<path d="M183.757,97.155V19.037c0-2.164,1.754-3.917,3.917-3.917h130.069c2.163,0,3.914,1.754,3.914,3.917v78.117L183.757,97.155
	L183.757,97.155z M317.534,19.246H188.15v72.946h129.385L317.534,19.246L317.534,19.246z"/>
</svg>
