<?xml version="1.0" encoding="utf-8"?>
<!-- Generator: Adobe Illustrator 14.0.0, SVG Export Plug-In . SVG Version: 6.00 Build 43363)  -->
<!DOCTYPE svg PUBLIC "-//W3C//DTD SVG 1.1//EN" "http://www.w3.org/Graphics/SVG/1.1/DTD/svg11.dtd">
<svg version="1.1" xmlns="http://www.w3.org/2000/svg" xmlns:xlink="http://www.w3.org/1999/xlink" x="0px" y="0px" width="1000px"
	 height="470px" viewBox="0 0 1000 470" enable-background="new 0 0 1000 470" xml:space="preserve">
<g id="Layer_2">
	<rect fill="#CBCACE" width="1000" height="470"/>
</g>
<g id="Layer_3">
	<circle fill="none" stroke="#FFFFFF" stroke-width="0.5" cx="795.166" cy="20.483" r="8.318"/>
	<circle fill="none" stroke="#FFFFFF" stroke-width="0.5" cx="636.484" cy="243.409" r="8.318"/>
	<line fill="none" stroke="#FFFFFF" stroke-width="0.5" x1="471.168" y1="267.72" x2="422.323" y2="267.72"/>
	<line fill="none" stroke="#FFFFFF" stroke-width="0.5" x1="687.174" y1="272.74" x2="643.682" y2="247.575"/>
	<circle fill="none" stroke="#FFFFFF" stroke-width="0.5" cx="513.116" cy="209.832" r="8.317"/>
	<circle fill="none" stroke="#FFFFFF" stroke-width="0.5" cx="513.116" cy="144.35" r="8.317"/>
	<line fill="none" stroke="#FFFFFF" stroke-width="0.5" x1="513.116" y1="201.515" x2="513.116" y2="152.667"/>
	<line fill="none" stroke="#FFFFFF" stroke-width="0.5" x1="483.786" y1="260.521" x2="508.95" y2="217.03"/>
	<circle fill="none" stroke="#FFFFFF" stroke-width="0.5" cx="669.979" cy="120.037" r="8.318"/>
	<circle fill="none" stroke="#FFFFFF" stroke-width="0.5" cx="636.482" cy="177.927" r="8.318"/>
	<line fill="none" stroke="#FFFFFF" stroke-width="0.5" x1="693.646" y1="177.926" x2="644.801" y2="177.926"/>
	<line fill="none" stroke="#FFFFFF" stroke-width="0.5" x1="665.812" y1="127.237" x2="640.648" y2="170.727"/>
	<circle fill="none" stroke="#FFFFFF" stroke-width="0.5" cx="380.668" cy="391.091" r="8.318"/>
	<circle fill="none" stroke="#FFFFFF" stroke-width="0.5" cx="438.557" cy="424.585" r="8.318"/>
	<line fill="none" stroke="#FFFFFF" stroke-width="0.5" x1="387.868" y1="395.257" x2="431.358" y2="420.421"/>
	<circle fill="none" stroke="#FFFFFF" stroke-width="0.5" cx="414.163" cy="202.237" r="8.317"/>
	<circle fill="none" stroke="#FFFFFF" stroke-width="0.5" cx="380.668" cy="325.609" r="8.316"/>
	<line fill="none" stroke="#FFFFFF" stroke-width="0.5" x1="414.163" y1="210.555" x2="414.163" y2="259.402"/>
	<line fill="none" stroke="#FFFFFF" stroke-width="0.5" x1="380.668" y1="333.925" x2="380.668" y2="382.773"/>
	<line fill="none" stroke="#FFFFFF" stroke-width="0.5" x1="409.999" y1="274.918" x2="384.833" y2="318.41"/>
	<circle fill="none" stroke="#FFFFFF" stroke-width="0.5" cx="759.853" cy="144.284" r="8.317"/>
	<line fill="none" stroke="#FFFFFF" stroke-width="0.5" x1="752.654" y1="148.45" x2="709.164" y2="173.615"/>
	<circle fill="none" stroke="#FFFFFF" stroke-width="0.5" cx="578.596" cy="209.913" r="8.318"/>
	<line fill="none" stroke="#FFFFFF" stroke-width="0.5" x1="521.432" y1="209.913" x2="570.277" y2="209.913"/>
	<circle fill="none" stroke="#FFFFFF" stroke-width="0.5" cx="752.42" cy="243.184" r="8.318"/>
	<line fill="none" stroke="#FFFFFF" stroke-width="0.5" x1="701.73" y1="272.513" x2="745.221" y2="247.348"/>
	<circle fill="none" stroke="#FFFFFF" stroke-width="0.5" cx="785.916" cy="366.553" r="8.317"/>
	<line fill="none" stroke="#FFFFFF" stroke-width="0.5" x1="781.75" y1="359.355" x2="756.586" y2="315.865"/>
	<line fill="none" stroke="#FFFFFF" stroke-width="0.5" x1="701.811" y1="280.7" x2="745.139" y2="304.642"/>
	<line fill="none" stroke="#FFFFFF" stroke-width="0.5" x1="585.795" y1="214.08" x2="629.285" y2="239.245"/>
	<line fill="none" stroke="#FFFFFF" stroke-width="0.5" x1="585.877" y1="205.892" x2="629.205" y2="181.95"/>
	<circle fill="none" stroke="#FFFFFF" stroke-width="0.5" cx="380.75" cy="456.57" r="8.318"/>
	<line fill="none" stroke="#FFFFFF" stroke-width="0.5" x1="380.75" y1="399.408" x2="380.75" y2="448.253"/>
	<circle fill="none" stroke="#FFFFFF" stroke-width="0.5" cx="355.887" cy="168.742" r="8.318"/>
	<line fill="none" stroke="#FFFFFF" stroke-width="0.5" x1="406.577" y1="198.07" x2="363.086" y2="172.906"/>
	<circle fill="none" stroke="#FFFFFF" stroke-width="0.5" cx="413.694" cy="136.758" r="8.318"/>
	<line fill="none" stroke="#FFFFFF" stroke-width="0.5" x1="413.694" y1="193.92" x2="413.694" y2="145.074"/>
	<circle fill="none" stroke="#FFFFFF" stroke-width="0.5" cx="860.648" cy="85.963" r="8.318"/>
	<line fill="none" stroke="#FFFFFF" stroke-width="0.5" x1="884.959" y1="251.28" x2="884.959" y2="300.125"/>
	<line fill="none" stroke="#FFFFFF" stroke-width="0.5" x1="889.979" y1="35.274" x2="864.814" y2="78.766"/>
	<circle fill="none" stroke="#FFFFFF" stroke-width="0.5" cx="827.071" cy="209.333" r="8.317"/>
	<circle fill="none" stroke="#FFFFFF" stroke-width="0.5" cx="761.589" cy="209.333" r="8.317"/>
	<line fill="none" stroke="#FFFFFF" stroke-width="0.5" x1="818.754" y1="209.333" x2="769.906" y2="209.333"/>
	<line fill="none" stroke="#FFFFFF" stroke-width="0.5" x1="877.76" y1="238.663" x2="834.27" y2="213.499"/>
	<circle fill="none" stroke="#FFFFFF" stroke-width="0.5" cx="737.275" cy="52.469" r="8.318"/>
	<circle fill="none" stroke="#FFFFFF" stroke-width="0.5" cx="795.166" cy="85.965" r="8.318"/>
	<line fill="none" stroke="#FFFFFF" stroke-width="0.5" x1="795.164" y1="28.801" x2="795.164" y2="77.647"/>
	<line fill="none" stroke="#FFFFFF" stroke-width="0.5" x1="744.477" y1="56.635" x2="787.965" y2="81.799"/>
	<circle fill="none" stroke="#FFFFFF" stroke-width="0.5" cx="819.476" cy="308.286" r="8.317"/>
	<circle fill="none" stroke="#FFFFFF" stroke-width="0.5" cx="942.848" cy="341.78" r="8.316"/>
	<line fill="none" stroke="#FFFFFF" stroke-width="0.5" x1="827.793" y1="308.286" x2="876.641" y2="308.286"/>
	<line fill="none" stroke="#FFFFFF" stroke-width="0.5" x1="951.164" y1="341.78" x2="1000.012" y2="341.78"/>
	<line fill="none" stroke="#FFFFFF" stroke-width="0.5" x1="892.156" y1="312.45" x2="935.648" y2="337.616"/>
	<circle fill="none" stroke="#FFFFFF" stroke-width="0.5" cx="827.152" cy="143.852" r="8.318"/>
	<line fill="none" stroke="#FFFFFF" stroke-width="0.5" x1="827.152" y1="201.016" x2="827.152" y2="152.17"/>
	<line fill="none" stroke="#FFFFFF" stroke-width="0.5" x1="831.318" y1="136.653" x2="856.484" y2="93.163"/>
	<line fill="none" stroke="#FFFFFF" stroke-width="0.5" x1="823.131" y1="136.571" x2="799.189" y2="93.243"/>
	<line fill="none" stroke="#FFFFFF" stroke-width="0.5" x1="815.309" y1="315.872" x2="790.145" y2="359.362"/>
	<circle fill="none" stroke="#FFFFFF" stroke-width="0.5" cx="191.494" cy="292.143" r="8.318"/>
	<line fill="none" stroke="#FFFFFF" stroke-width="0.5" x1="167.184" y1="126.827" x2="167.184" y2="77.981"/>
	<line fill="none" stroke="#FFFFFF" stroke-width="0.5" x1="162.163" y1="342.833" x2="187.328" y2="299.342"/>
	<circle fill="none" stroke="#FFFFFF" stroke-width="0.5" cx="225.072" cy="168.774" r="8.318"/>
	<circle fill="none" stroke="#FFFFFF" stroke-width="0.5" cx="290.554" cy="168.774" r="8.317"/>
	<line fill="none" stroke="#FFFFFF" stroke-width="0.5" x1="233.389" y1="168.774" x2="282.237" y2="168.774"/>
	<line fill="none" stroke="#FFFFFF" stroke-width="0.5" x1="298.872" y1="168.774" x2="347.719" y2="168.774"/>
	<line fill="none" stroke="#FFFFFF" stroke-width="0.5" x1="174.382" y1="139.444" x2="217.873" y2="164.61"/>
	<circle fill="none" stroke="#FFFFFF" stroke-width="0.5" cx="314.866" cy="325.637" r="8.318"/>
	<circle fill="none" stroke="#FFFFFF" stroke-width="0.5" cx="256.977" cy="292.143" r="8.318"/>
	<line fill="none" stroke="#FFFFFF" stroke-width="0.5" x1="256.977" y1="349.305" x2="256.977" y2="300.459"/>
	<line fill="none" stroke="#FFFFFF" stroke-width="0.5" x1="307.667" y1="321.471" x2="264.176" y2="296.307"/>
	<circle fill="none" stroke="#FFFFFF" stroke-width="0.5" cx="536.566" cy="302.77" r="8.318"/>
	<line fill="none" stroke="#FFFFFF" stroke-width="0.5" x1="529.367" y1="298.604" x2="485.877" y2="273.44"/>
	<circle fill="none" stroke="#FFFFFF" stroke-width="0.5" cx="43.812" cy="36.327" r="8.318"/>
	<circle fill="none" stroke="#FFFFFF" stroke-width="0.5" cx="10.317" cy="94.215" r="8.318"/>
	<line fill="none" stroke="#FFFFFF" stroke-width="0.5" x1="39.646" y1="43.526" x2="14.482" y2="87.016"/>
	<circle fill="none" stroke="#FFFFFF" stroke-width="0.5" cx="232.666" cy="69.821" r="8.317"/>
	<circle fill="none" stroke="#FFFFFF" stroke-width="0.5" cx="109.294" cy="36.327" r="8.317"/>
	<line fill="none" stroke="#FFFFFF" stroke-width="0.5" x1="224.348" y1="69.821" x2="175.501" y2="69.821"/>
	<line fill="none" stroke="#FFFFFF" stroke-width="0.5" x1="100.978" y1="36.327" x2="52.13" y2="36.327"/>
	<line fill="none" stroke="#FFFFFF" stroke-width="0.5" x1="159.985" y1="65.657" x2="116.493" y2="40.491"/>
	<circle fill="none" stroke="#FFFFFF" stroke-width="0.5" cx="290.62" cy="415.513" r="8.317"/>
	<line fill="none" stroke="#FFFFFF" stroke-width="0.5" x1="286.454" y1="408.315" x2="261.288" y2="364.823"/>
	<circle fill="none" stroke="#FFFFFF" stroke-width="0.5" cx="224.991" cy="234.255" r="8.318"/>
	<line fill="none" stroke="#FFFFFF" stroke-width="0.5" x1="224.991" y1="177.092" x2="224.991" y2="225.937"/>
	<circle fill="none" stroke="#FFFFFF" stroke-width="0.5" cx="191.72" cy="408.079" r="8.318"/>
	<line fill="none" stroke="#FFFFFF" stroke-width="0.5" x1="162.391" y1="357.39" x2="187.556" y2="400.879"/>
	<circle fill="none" stroke="#FFFFFF" stroke-width="0.5" cx="68.35" cy="441.575" r="8.318"/>
	<line fill="none" stroke="#FFFFFF" stroke-width="0.5" x1="75.549" y1="437.409" x2="119.039" y2="412.245"/>
	<line fill="none" stroke="#FFFFFF" stroke-width="0.5" x1="154.203" y1="357.47" x2="130.262" y2="400.799"/>
	<line fill="none" stroke="#FFFFFF" stroke-width="0.5" x1="220.823" y1="241.454" x2="195.658" y2="284.944"/>
	<line fill="none" stroke="#FFFFFF" stroke-width="0.5" x1="229.012" y1="241.536" x2="252.954" y2="284.864"/>
	<line fill="none" stroke="#FFFFFF" stroke-width="0.5" x1="35.495" y1="36.409" x2="0" y2="36.409"/>
	<circle fill="none" stroke="#FFFFFF" stroke-width="0.5" cx="266.161" cy="11.545" r="8.318"/>
	<line fill="none" stroke="#FFFFFF" stroke-width="0.5" x1="236.833" y1="62.235" x2="261.997" y2="18.745"/>
	<circle fill="none" stroke="#FFFFFF" stroke-width="0.5" cx="298.145" cy="69.352" r="8.318"/>
	<line fill="none" stroke="#FFFFFF" stroke-width="0.5" x1="240.983" y1="69.352" x2="289.829" y2="69.352"/>
	<circle fill="none" stroke="#FFFFFF" stroke-width="0.5" cx="57.201" cy="234.062" r="8.317"/>
	<line fill="none" stroke="#FFFFFF" stroke-width="0.5" x1="48.884" y1="234.062" x2="0.037" y2="234.062"/>
	<circle fill="none" stroke="#FFFFFF" stroke-width="0.5" cx="90.696" cy="292.337" r="8.318"/>
	<line fill="none" stroke="#FFFFFF" stroke-width="0.5" x1="61.368" y1="241.647" x2="86.532" y2="285.138"/>
	<circle fill="none" stroke="#FFFFFF" stroke-width="0.5" cx="122.681" cy="234.53" r="8.318"/>
	<line fill="none" stroke="#FFFFFF" stroke-width="0.5" x1="65.519" y1="234.53" x2="114.364" y2="234.53"/>
	<circle fill="none" stroke="#FFFFFF" stroke-width="0.5" cx="694.527" cy="276.641" r="8.318"/>
	<circle fill="none" stroke="#FFFFFF" stroke-width="0.5" cx="479.622" cy="267.72" r="8.318"/>
	<circle fill="none" stroke="#FFFFFF" stroke-width="0.5" cx="701.965" cy="177.927" r="8.318"/>
	<circle fill="none" stroke="#FFFFFF" stroke-width="0.5" cx="414.163" cy="267.72" r="8.318"/>
	<circle fill="none" stroke="#FFFFFF" stroke-width="0.5" cx="752.42" cy="308.666" r="8.318"/>
	<circle fill="none" stroke="#FFFFFF" stroke-width="0.5" cx="893.88" cy="27.92" r="8.317"/>
	<circle fill="none" stroke="#FFFFFF" stroke-width="0.5" cx="625.347" cy="48.317" r="8.318"/>
	<line fill="none" stroke="#FFFFFF" stroke-width="0.5" x1="530.534" y1="33.526" x2="548.435" y2="0"/>
	<circle fill="none" stroke="#FFFFFF" stroke-width="0.5" cx="683.237" cy="16.331" r="8.318"/>
	<line fill="none" stroke="#FFFFFF" stroke-width="0.5" x1="625.349" y1="39.999" x2="625.349" y2="0"/>
	<line fill="none" stroke="#FFFFFF" stroke-width="0.5" x1="676.036" y1="12.165" x2="654.292" y2="0"/>
	<circle fill="none" stroke="#FFFFFF" stroke-width="0.5" cx="526.633" cy="40.879" r="8.317"/>
	<circle fill="none" stroke="#FFFFFF" stroke-width="0.5" cx="942.977" cy="276.598" r="8.318"/>
	<circle fill="none" stroke="#FFFFFF" stroke-width="0.5" cx="976.471" cy="153.225" r="8.318"/>
	<circle fill="none" stroke="#FFFFFF" stroke-width="0.5" cx="942.975" cy="211.115" r="8.318"/>
	<line fill="none" stroke="#FFFFFF" stroke-width="0.5" x1="1000.139" y1="211.113" x2="951.293" y2="211.113"/>
	<line fill="none" stroke="#FFFFFF" stroke-width="0.5" x1="972.305" y1="160.426" x2="947.141" y2="203.914"/>
	<line fill="none" stroke="#FFFFFF" stroke-width="0.5" x1="892.287" y1="247.268" x2="935.777" y2="272.434"/>
	<line fill="none" stroke="#FFFFFF" stroke-width="0.5" x1="892.369" y1="239.08" x2="935.697" y2="215.139"/>
	<circle fill="none" stroke="#FFFFFF" stroke-width="0.5" cx="447.19" cy="78.867" r="8.318"/>
	<line fill="none" stroke="#FFFFFF" stroke-width="0.5" x1="476.52" y1="28.178" x2="451.356" y2="71.67"/>
	<line fill="none" stroke="#FFFFFF" stroke-width="0.5" x1="417.86" y1="129.557" x2="443.026" y2="86.066"/>
	<circle fill="none" stroke="#FFFFFF" stroke-width="0.5" cx="480.421" cy="20.824" r="8.317"/>
	<circle fill="none" stroke="#FFFFFF" stroke-width="0.5" cx="884.959" cy="242.827" r="8.318"/>
	<circle fill="none" stroke="#FFFFFF" stroke-width="0.5" cx="884.959" cy="308.286" r="8.318"/>
	<circle fill="none" stroke="#FFFFFF" stroke-width="0.5" cx="158.262" cy="350.187" r="8.318"/>
	<circle fill="none" stroke="#FFFFFF" stroke-width="0.5" cx="167.184" cy="135.28" r="8.318"/>
	<path fill="none" stroke="#FFFFFF" stroke-width="0.5" d="M248.659,357.625c0-4.596,3.725-8.32,8.318-8.32s8.318,3.725,8.318,8.32
		c0,4.592-3.725,8.316-8.318,8.316S248.659,362.217,248.659,357.625z"/>
	<circle fill="none" stroke="#FFFFFF" stroke-width="0.5" cx="694.812" cy="457.001" r="8.318"/>
	<circle fill="none" stroke="#FFFFFF" stroke-width="0.5" cx="728.307" cy="399.113" r="8.318"/>
	<line fill="none" stroke="#FFFFFF" stroke-width="0.5" x1="671.145" y1="399.113" x2="719.99" y2="399.113"/>
	<line fill="none" stroke="#FFFFFF" stroke-width="0.5" x1="698.979" y1="449.802" x2="724.143" y2="406.312"/>
	<circle fill="none" stroke="#FFFFFF" stroke-width="0.5" cx="604.937" cy="432.755" r="8.317"/>
	<line fill="none" stroke="#FFFFFF" stroke-width="0.5" x1="612.135" y1="428.589" x2="655.627" y2="403.423"/>
	<line fill="none" stroke="#FFFFFF" stroke-width="0.5" x1="778.914" y1="371.148" x2="735.586" y2="395.089"/>
	<path fill="none" stroke="#FFFFFF" stroke-width="0.5" d="M662.824,390.794c4.596,0,8.32,3.725,8.32,8.318s-3.725,8.318-8.32,8.318
		c-4.592,0-8.316-3.725-8.316-8.318S658.232,390.794,662.824,390.794z"/>
	<circle fill="none" stroke="#FFFFFF" stroke-width="0.5" cx="875.512" cy="384.189" r="8.318"/>
	<circle fill="none" stroke="#FFFFFF" stroke-width="0.5" cx="909.006" cy="442.078" r="8.318"/>
	<line fill="none" stroke="#FFFFFF" stroke-width="0.5" x1="851.844" y1="442.078" x2="900.689" y2="442.078"/>
	<line fill="none" stroke="#FFFFFF" stroke-width="0.5" x1="879.678" y1="391.388" x2="904.842" y2="434.878"/>
	<line fill="none" stroke="#FFFFFF" stroke-width="0.5" x1="959.613" y1="470.042" x2="916.285" y2="446.101"/>
	<path fill="none" stroke="#FFFFFF" stroke-width="0.5" d="M843.523,450.396c4.596,0,8.32-3.725,8.32-8.318s-3.725-8.318-8.32-8.318
		c-4.592,0-8.316,3.725-8.316,8.318S838.932,450.396,843.523,450.396z"/>
	<circle fill="none" stroke="#FFFFFF" stroke-width="0.5" cx="167.184" cy="69.821" r="8.318"/>
	<circle fill="none" stroke="#FFFFFF" stroke-width="0.5" cx="126.238" cy="408.079" r="8.318"/>
</g>
</svg>
