<?xml version="1.0" encoding="utf-8"?>
<!-- Generator: Adobe Illustrator 14.0.0, SVG Export Plug-In . SVG Version: 6.00 Build 43363)  -->
<!DOCTYPE svg PUBLIC "-//W3C//DTD SVG 1.1//EN" "http://www.w3.org/Graphics/SVG/1.1/DTD/svg11.dtd">
<svg version="1.1" id="Layer_3" xmlns="http://www.w3.org/2000/svg" xmlns:xlink="http://www.w3.org/1999/xlink" x="0px" y="0px"
	 width="1000px" height="470px" viewBox="0 0 1000 470" enable-background="new 0 0 1000 470" xml:space="preserve">
<circle opacity="0.85" fill="none" stroke="#FFFFFF" stroke-width="0.5" cx="765.656" cy="66.937" r="7.486"/>
<circle opacity="0.85" fill="none" stroke="#FFFFFF" stroke-width="0.5" cx="622.843" cy="267.57" r="7.487"/>
<line opacity="0.85" fill="none" stroke="#FFFFFF" stroke-width="0.5" x1="474.059" y1="289.45" x2="430.098" y2="289.45"/>
<line opacity="0.85" fill="none" stroke="#FFFFFF" stroke-width="0.5" x1="668.463" y1="293.968" x2="629.32" y2="271.32"/>
<circle opacity="0.85" fill="none" stroke="#FFFFFF" stroke-width="0.5" cx="511.811" cy="237.351" r="7.486"/>
<circle opacity="0.85" fill="none" stroke="#FFFFFF" stroke-width="0.5" cx="511.811" cy="178.417" r="7.486"/>
<line opacity="0.85" fill="none" stroke="#FFFFFF" stroke-width="0.5" x1="511.811" y1="229.865" x2="511.811" y2="185.902"/>
<line opacity="0.85" fill="none" stroke="#FFFFFF" stroke-width="0.5" x1="485.414" y1="282.971" x2="508.062" y2="243.829"/>
<path opacity="0.85" fill="none" stroke="#FFFFFF" stroke-width="0.5" d="M652.988,164.022c-4.135,0-7.487-3.352-7.487-7.485
	c0-4.136,3.353-7.488,7.487-7.488c4.132,0,7.484,3.352,7.484,7.488C660.473,160.67,657.12,164.022,652.988,164.022z"/>
<circle opacity="0.85" fill="none" stroke="#FFFFFF" stroke-width="0.5" cx="622.842" cy="208.636" r="7.487"/>
<line opacity="0.85" fill="none" stroke="#FFFFFF" stroke-width="0.5" x1="674.289" y1="208.635" x2="630.328" y2="208.635"/>
<line opacity="0.85" fill="none" stroke="#FFFFFF" stroke-width="0.5" x1="649.238" y1="163.016" x2="626.59" y2="202.156"/>
<circle opacity="0.85" fill="none" stroke="#FFFFFF" stroke-width="0.5" cx="392.609" cy="400.484" r="7.487"/>
<circle opacity="0.85" fill="none" stroke="#FFFFFF" stroke-width="0.5" cx="444.708" cy="430.629" r="7.487"/>
<line opacity="0.85" fill="none" stroke="#FFFFFF" stroke-width="0.5" x1="399.088" y1="404.233" x2="438.229" y2="426.881"/>
<circle opacity="0.85" fill="none" stroke="#FFFFFF" stroke-width="0.5" cx="422.753" cy="230.515" r="7.486"/>
<circle opacity="0.85" fill="none" stroke="#FFFFFF" stroke-width="0.5" cx="392.608" cy="341.55" r="7.485"/>
<line opacity="0.85" fill="none" stroke="#FFFFFF" stroke-width="0.5" x1="422.753" y1="238.001" x2="422.753" y2="281.964"/>
<line opacity="0.85" fill="none" stroke="#FFFFFF" stroke-width="0.5" x1="392.608" y1="349.035" x2="392.608" y2="392.998"/>
<line opacity="0.85" fill="none" stroke="#FFFFFF" stroke-width="0.5" x1="419.006" y1="295.928" x2="396.356" y2="335.071"/>
<circle opacity="0.85" fill="none" stroke="#FFFFFF" stroke-width="0.5" cx="733.874" cy="178.358" r="7.485"/>
<line opacity="0.85" fill="none" stroke="#FFFFFF" stroke-width="0.5" x1="727.396" y1="182.107" x2="688.254" y2="204.756"/>
<circle opacity="0.85" fill="none" stroke="#FFFFFF" stroke-width="0.5" cx="570.743" cy="237.424" r="7.487"/>
<line opacity="0.85" fill="none" stroke="#FFFFFF" stroke-width="0.5" x1="519.295" y1="237.424" x2="563.256" y2="237.424"/>
<circle opacity="0.85" fill="none" stroke="#FFFFFF" stroke-width="0.5" cx="727.185" cy="267.367" r="7.487"/>
<line opacity="0.85" fill="none" stroke="#FFFFFF" stroke-width="0.5" x1="681.564" y1="293.763" x2="720.705" y2="271.115"/>
<circle opacity="0.85" fill="none" stroke="#FFFFFF" stroke-width="0.5" cx="757.332" cy="378.4" r="7.485"/>
<line opacity="0.85" fill="none" stroke="#FFFFFF" stroke-width="0.5" x1="753.582" y1="371.921" x2="730.934" y2="332.78"/>
<line opacity="0.85" fill="none" stroke="#FFFFFF" stroke-width="0.5" x1="681.637" y1="301.132" x2="720.632" y2="322.68"/>
<line opacity="0.85" fill="none" stroke="#FFFFFF" stroke-width="0.5" x1="577.223" y1="241.174" x2="616.363" y2="263.823"/>
<line opacity="0.85" fill="none" stroke="#FFFFFF" stroke-width="0.5" x1="577.297" y1="233.804" x2="616.291" y2="212.257"/>
<circle opacity="0.85" fill="none" stroke="#FFFFFF" stroke-width="0.5" cx="392.682" cy="459.415" r="7.487"/>
<line opacity="0.85" fill="none" stroke="#FFFFFF" stroke-width="0.5" x1="392.683" y1="407.969" x2="392.683" y2="451.93"/>
<circle opacity="0.85" fill="none" stroke="#FFFFFF" stroke-width="0.5" cx="370.305" cy="200.37" r="7.487"/>
<line opacity="0.85" fill="none" stroke="#FFFFFF" stroke-width="0.5" x1="415.926" y1="226.765" x2="376.785" y2="204.118"/>
<circle opacity="0.85" fill="none" stroke="#FFFFFF" stroke-width="0.5" cx="422.331" cy="171.584" r="7.487"/>
<line opacity="0.85" fill="none" stroke="#FFFFFF" stroke-width="0.5" x1="422.332" y1="223.03" x2="422.332" y2="179.069"/>
<circle opacity="0.85" fill="none" stroke="#FFFFFF" stroke-width="0.5" cx="824.59" cy="125.869" r="7.487"/>
<line opacity="0.85" fill="none" stroke="#FFFFFF" stroke-width="0.5" x1="846.471" y1="274.654" x2="846.471" y2="318.615"/>
<line opacity="0.85" fill="none" stroke="#FFFFFF" stroke-width="0.5" x1="850.988" y1="80.249" x2="828.34" y2="119.392"/>
<circle opacity="0.85" fill="none" stroke="#FFFFFF" stroke-width="0.5" cx="794.371" cy="236.901" r="7.486"/>
<circle opacity="0.85" fill="none" stroke="#FFFFFF" stroke-width="0.5" cx="735.437" cy="236.901" r="7.485"/>
<line opacity="0.85" fill="none" stroke="#FFFFFF" stroke-width="0.5" x1="786.885" y1="236.901" x2="742.922" y2="236.901"/>
<line opacity="0.85" fill="none" stroke="#FFFFFF" stroke-width="0.5" x1="839.99" y1="263.298" x2="800.85" y2="240.65"/>
<circle opacity="0.85" fill="none" stroke="#FFFFFF" stroke-width="0.5" cx="713.555" cy="95.724" r="7.486"/>
<circle opacity="0.85" fill="none" stroke="#FFFFFF" stroke-width="0.5" cx="765.656" cy="125.871" r="7.486"/>
<line opacity="0.85" fill="none" stroke="#FFFFFF" stroke-width="0.5" x1="765.654" y1="74.423" x2="765.654" y2="118.384"/>
<line opacity="0.85" fill="none" stroke="#FFFFFF" stroke-width="0.5" x1="720.035" y1="99.474" x2="759.176" y2="122.121"/>
<circle opacity="0.85" fill="none" stroke="#FFFFFF" stroke-width="0.5" cx="787.535" cy="325.959" r="7.486"/>
<circle opacity="0.85" fill="none" stroke="#FFFFFF" stroke-width="0.5" cx="898.57" cy="356.104" r="7.485"/>
<line opacity="0.85" fill="none" stroke="#FFFFFF" stroke-width="0.5" x1="795.021" y1="325.959" x2="838.983" y2="325.959"/>
<line opacity="0.85" fill="none" stroke="#FFFFFF" stroke-width="0.5" x1="852.947" y1="329.707" x2="892.09" y2="352.356"/>
<circle opacity="0.85" fill="none" stroke="#FFFFFF" stroke-width="0.5" cx="794.443" cy="177.969" r="7.486"/>
<line opacity="0.85" fill="none" stroke="#FFFFFF" stroke-width="0.5" x1="794.443" y1="229.417" x2="794.443" y2="185.455"/>
<line opacity="0.85" fill="none" stroke="#FFFFFF" stroke-width="0.5" x1="798.193" y1="171.489" x2="820.843" y2="132.348"/>
<line opacity="0.85" fill="none" stroke="#FFFFFF" stroke-width="0.5" x1="790.824" y1="171.416" x2="769.277" y2="132.42"/>
<line opacity="0.85" fill="none" stroke="#FFFFFF" stroke-width="0.5" x1="783.785" y1="332.786" x2="761.137" y2="371.928"/>
<circle opacity="0.85" fill="none" stroke="#FFFFFF" stroke-width="0.5" cx="222.352" cy="311.43" r="7.486"/>
<line opacity="0.85" fill="none" stroke="#FFFFFF" stroke-width="0.5" x1="200.472" y1="162.646" x2="200.472" y2="118.685"/>
<line opacity="0.85" fill="none" stroke="#FFFFFF" stroke-width="0.5" x1="195.954" y1="357.052" x2="218.602" y2="317.911"/>
<circle opacity="0.85" fill="none" stroke="#FFFFFF" stroke-width="0.5" cx="252.571" cy="200.398" r="7.486"/>
<circle opacity="0.85" fill="none" stroke="#FFFFFF" stroke-width="0.5" cx="311.506" cy="200.398" r="7.486"/>
<line opacity="0.85" fill="none" stroke="#FFFFFF" stroke-width="0.5" x1="260.057" y1="200.398" x2="304.02" y2="200.398"/>
<line opacity="0.85" fill="none" stroke="#FFFFFF" stroke-width="0.5" x1="318.991" y1="200.398" x2="362.954" y2="200.398"/>
<line opacity="0.85" fill="none" stroke="#FFFFFF" stroke-width="0.5" x1="206.951" y1="174.001" x2="246.093" y2="196.651"/>
<circle opacity="0.85" fill="none" stroke="#FFFFFF" stroke-width="0.5" cx="333.386" cy="341.575" r="7.487"/>
<circle opacity="0.85" fill="none" stroke="#FFFFFF" stroke-width="0.5" cx="281.286" cy="311.43" r="7.487"/>
<line opacity="0.85" fill="none" stroke="#FFFFFF" stroke-width="0.5" x1="281.286" y1="362.876" x2="281.286" y2="318.916"/>
<line opacity="0.85" fill="none" stroke="#FFFFFF" stroke-width="0.5" x1="326.907" y1="337.827" x2="287.766" y2="315.178"/>
<circle opacity="0.85" fill="none" stroke="#FFFFFF" stroke-width="0.5" cx="89.438" cy="81.195" r="7.487"/>
<circle opacity="0.85" fill="none" stroke="#FFFFFF" stroke-width="0.5" cx="37.338" cy="51.051" r="7.487"/>
<line opacity="0.85" fill="none" stroke="#FFFFFF" stroke-width="0.5" x1="82.958" y1="77.447" x2="43.817" y2="54.799"/>
<line opacity="0.85" fill="none" stroke="#FFFFFF" stroke-width="0.5" x1="30.58" y1="47.788" x2="0" y2="30.093"/>
<circle opacity="0.85" fill="none" stroke="#FFFFFF" stroke-width="0.5" cx="532.917" cy="320.995" r="7.487"/>
<line opacity="0.85" fill="none" stroke="#FFFFFF" stroke-width="0.5" x1="526.438" y1="317.246" x2="487.296" y2="294.598"/>
<circle opacity="0.85" fill="none" stroke="#FFFFFF" stroke-width="0.5" cx="59.292" cy="133.296" r="7.487"/>
<line opacity="0.85" fill="none" stroke="#FFFFFF" stroke-width="0.5" x1="85.688" y1="87.675" x2="63.041" y2="126.816"/>
<circle opacity="0.85" fill="none" stroke="#FFFFFF" stroke-width="0.5" cx="259.406" cy="111.341" r="7.486"/>
<circle opacity="0.85" fill="none" stroke="#FFFFFF" stroke-width="0.5" cx="148.372" cy="81.196" r="7.485"/>
<line opacity="0.85" fill="none" stroke="#FFFFFF" stroke-width="0.5" x1="251.92" y1="111.341" x2="207.958" y2="111.341"/>
<line opacity="0.85" fill="none" stroke="#FFFFFF" stroke-width="0.5" x1="140.887" y1="81.196" x2="96.924" y2="81.196"/>
<line opacity="0.85" fill="none" stroke="#FFFFFF" stroke-width="0.5" x1="193.994" y1="107.593" x2="154.851" y2="84.943"/>
<circle opacity="0.85" fill="none" stroke="#FFFFFF" stroke-width="0.5" cx="311.564" cy="422.464" r="7.486"/>
<line opacity="0.85" fill="none" stroke="#FFFFFF" stroke-width="0.5" x1="307.815" y1="415.985" x2="285.166" y2="376.842"/>
<circle opacity="0.85" fill="none" stroke="#FFFFFF" stroke-width="0.5" cx="252.499" cy="259.331" r="7.486"/>
<line opacity="0.85" fill="none" stroke="#FFFFFF" stroke-width="0.5" x1="252.499" y1="207.885" x2="252.499" y2="251.845"/>
<circle opacity="0.85" fill="none" stroke="#FFFFFF" stroke-width="0.5" cx="222.555" cy="415.772" r="7.487"/>
<line opacity="0.85" fill="none" stroke="#FFFFFF" stroke-width="0.5" x1="196.159" y1="370.153" x2="218.807" y2="409.293"/>
<circle opacity="0.85" fill="none" stroke="#FFFFFF" stroke-width="0.5" cx="111.522" cy="445.918" r="7.486"/>
<line opacity="0.85" fill="none" stroke="#FFFFFF" stroke-width="0.5" x1="118.001" y1="442.17" x2="157.142" y2="419.522"/>
<line opacity="0.85" fill="none" stroke="#FFFFFF" stroke-width="0.5" x1="188.79" y1="370.225" x2="167.243" y2="409.221"/>
<line opacity="0.85" fill="none" stroke="#FFFFFF" stroke-width="0.5" x1="248.748" y1="265.81" x2="226.099" y2="304.952"/>
<line opacity="0.85" fill="none" stroke="#FFFFFF" stroke-width="0.5" x1="256.118" y1="265.884" x2="277.665" y2="304.879"/>
<circle opacity="0.85" fill="none" stroke="#FFFFFF" stroke-width="0.5" cx="289.552" cy="58.893" r="7.487"/>
<line opacity="0.85" fill="none" stroke="#FFFFFF" stroke-width="0.5" x1="263.156" y1="104.513" x2="285.804" y2="65.372"/>
<circle opacity="0.85" fill="none" stroke="#FFFFFF" stroke-width="0.5" cx="318.337" cy="110.919" r="7.487"/>
<line opacity="0.85" fill="none" stroke="#FFFFFF" stroke-width="0.5" x1="266.892" y1="110.919" x2="310.853" y2="110.919"/>
<circle opacity="0.85" fill="none" stroke="#FFFFFF" stroke-width="0.5" cx="22.789" cy="278.829" r="7.486"/>
<line opacity="0.85" fill="none" stroke="#FFFFFF" stroke-width="0.5" x1="19.039" y1="272.002" x2="0" y2="239.098"/>
<line opacity="0.85" fill="none" stroke="#FFFFFF" stroke-width="0.5" x1="15.303" y1="278.407" x2="0" y2="278.407"/>
<circle opacity="0.85" fill="none" stroke="#FFFFFF" stroke-width="0.5" cx="675.082" cy="297.479" r="7.486"/>
<circle opacity="0.85" fill="none" stroke="#FFFFFF" stroke-width="0.5" cx="481.666" cy="289.45" r="7.487"/>
<line opacity="0.85" fill="none" stroke="#FFFFFF" stroke-width="0.5" x1="966.625" y1="75.372" x2="1000" y2="75.372"/>
<circle opacity="0.85" fill="none" stroke="#FFFFFF" stroke-width="0.5" cx="928.872" cy="127.471" r="7.485"/>
<circle opacity="0.85" fill="none" stroke="#FFFFFF" stroke-width="0.5" cx="928.872" cy="186.405" r="7.485"/>
<line opacity="0.85" fill="none" stroke="#FFFFFF" stroke-width="0.5" x1="928.872" y1="134.956" x2="928.872" y2="178.92"/>
<line opacity="0.85" fill="none" stroke="#FFFFFF" stroke-width="0.5" x1="955.27" y1="81.851" x2="932.622" y2="120.993"/>
<circle opacity="0.85" fill="none" stroke="#FFFFFF" stroke-width="0.5" cx="869.941" cy="127.397" r="7.487"/>
<line opacity="0.85" fill="none" stroke="#FFFFFF" stroke-width="0.5" x1="921.389" y1="127.397" x2="877.428" y2="127.397"/>
<circle opacity="0.85" fill="none" stroke="#FFFFFF" stroke-width="0.5" cx="907.767" cy="43.827" r="7.487"/>
<line opacity="0.85" fill="none" stroke="#FFFFFF" stroke-width="0.5" x1="914.246" y1="47.576" x2="953.388" y2="70.224"/>
<circle opacity="0.85" fill="none" stroke="#FFFFFF" stroke-width="0.5" cx="959.017" cy="75.372" r="7.487"/>
<line opacity="0.85" fill="none" stroke="#FFFFFF" stroke-width="0.5" x1="987.733" y1="290.719" x2="1000" y2="290.719"/>
<circle opacity="0.85" fill="none" stroke="#FFFFFF" stroke-width="0.5" cx="949.98" cy="342.818" r="7.485"/>
<line opacity="0.85" fill="none" stroke="#FFFFFF" stroke-width="0.5" x1="976.378" y1="297.198" x2="953.73" y2="336.34"/>
<circle opacity="0.85" fill="none" stroke="#FFFFFF" stroke-width="0.5" cx="928.875" cy="259.174" r="7.487"/>
<line opacity="0.85" fill="none" stroke="#FFFFFF" stroke-width="0.5" x1="935.354" y1="262.923" x2="974.496" y2="285.571"/>
<circle opacity="0.85" fill="none" stroke="#FFFFFF" stroke-width="0.5" cx="980.125" cy="290.719" r="7.487"/>
<line opacity="0.85" fill="none" stroke="#FFFFFF" stroke-width="0.5" x1="12.267" y1="384.228" x2="0" y2="384.228"/>
<circle opacity="0.85" fill="none" stroke="#FFFFFF" stroke-width="0.5" cx="50.02" cy="332.129" r="7.485"/>
<line opacity="0.85" fill="none" stroke="#FFFFFF" stroke-width="0.5" x1="23.622" y1="377.75" x2="46.27" y2="338.607"/>
<circle opacity="0.85" fill="none" stroke="#FFFFFF" stroke-width="0.5" cx="71.125" cy="415.773" r="7.487"/>
<line opacity="0.85" fill="none" stroke="#FFFFFF" stroke-width="0.5" x1="64.646" y1="412.025" x2="25.504" y2="389.376"/>
<circle opacity="0.85" fill="none" stroke="#FFFFFF" stroke-width="0.5" cx="19.875" cy="384.228" r="7.487"/>
<circle opacity="0.85" fill="none" stroke="#FFFFFF" stroke-width="0.5" cx="681.775" cy="208.636" r="7.487"/>
<circle opacity="0.85" fill="none" stroke="#FFFFFF" stroke-width="0.5" cx="422.753" cy="289.45" r="7.487"/>
<circle opacity="0.85" fill="none" stroke="#FFFFFF" stroke-width="0.5" cx="727.185" cy="326.301" r="7.487"/>
<circle opacity="0.85" fill="none" stroke="#FFFFFF" stroke-width="0.5" cx="854.499" cy="73.63" r="7.485"/>
<circle opacity="0.85" fill="none" stroke="#FFFFFF" stroke-width="0.5" cx="898.686" cy="297.44" r="7.486"/>
<circle opacity="0.85" fill="none" stroke="#FFFFFF" stroke-width="0.5" cx="898.684" cy="238.506" r="7.487"/>
<line opacity="0.85" fill="none" stroke="#FFFFFF" stroke-width="0.5" x1="925.081" y1="192.885" x2="902.434" y2="232.024"/>
<line opacity="0.85" fill="none" stroke="#FFFFFF" stroke-width="0.5" x1="853.065" y1="271.043" x2="892.207" y2="293.692"/>
<line opacity="0.85" fill="none" stroke="#FFFFFF" stroke-width="0.5" x1="853.139" y1="263.674" x2="892.135" y2="242.127"/>
<circle opacity="0.85" fill="none" stroke="#FFFFFF" stroke-width="0.5" cx="452.478" cy="119.482" r="7.486"/>
<line opacity="0.85" fill="none" stroke="#FFFFFF" stroke-width="0.5" x1="478.875" y1="73.862" x2="456.228" y2="113.005"/>
<line opacity="0.85" fill="none" stroke="#FFFFFF" stroke-width="0.5" x1="426.081" y1="165.103" x2="448.73" y2="125.962"/>
<circle opacity="0.85" fill="none" stroke="#FFFFFF" stroke-width="0.5" cx="482.386" cy="67.244" r="7.486"/>
<circle opacity="0.85" fill="none" stroke="#FFFFFF" stroke-width="0.5" cx="950.811" cy="386.011" r="7.486"/>
<line opacity="0.85" fill="none" stroke="#FFFFFF" stroke-width="0.5" x1="905.19" y1="359.615" x2="944.333" y2="382.262"/>
<line opacity="0.85" fill="none" stroke="#FFFFFF" stroke-width="0.5" x1="957.43" y1="389.523" x2="1000" y2="414.182"/>
<circle opacity="0.85" fill="none" stroke="#FFFFFF" stroke-width="0.5" cx="846.471" cy="267.046" r="7.486"/>
<line opacity="0.85" fill="none" stroke="#FFFFFF" stroke-width="0.5" x1="662.123" y1="95.741" x2="706.084" y2="95.741"/>
<circle opacity="0.85" fill="none" stroke="#FFFFFF" stroke-width="0.5" cx="684.909" cy="43.526" r="7.486"/>
<circle opacity="0.85" fill="none" stroke="#FFFFFF" stroke-width="0.5" cx="573.874" cy="13.382" r="7.487"/>
<circle opacity="0.85" fill="none" stroke="#FFFFFF" stroke-width="0.5" cx="625.975" cy="43.528" r="7.487"/>
<line opacity="0.85" fill="none" stroke="#FFFFFF" stroke-width="0.5" x1="580.354" y1="17.131" x2="619.493" y2="39.778"/>
<line opacity="0.85" fill="none" stroke="#FFFFFF" stroke-width="0.5" x1="658.513" y1="89.146" x2="681.161" y2="50.005"/>
<line opacity="0.85" fill="none" stroke="#FFFFFF" stroke-width="0.5" x1="651.144" y1="89.073" x2="629.597" y2="50.077"/>
<circle opacity="0.85" fill="none" stroke="#FFFFFF" stroke-width="0.5" cx="654.515" cy="95.741" r="7.486"/>
<circle opacity="0.85" fill="none" stroke="#FFFFFF" stroke-width="0.5" cx="846.471" cy="325.959" r="7.486"/>
<line opacity="0.85" fill="none" stroke="#FFFFFF" stroke-width="0.5" x1="950.812" y1="393.499" x2="950.812" y2="437.459"/>
<circle opacity="0.85" fill="none" stroke="#FFFFFF" stroke-width="0.5" cx="950.812" cy="444.804" r="7.486"/>
<circle opacity="0.85" fill="none" stroke="#FFFFFF" stroke-width="0.5" cx="192.443" cy="363.67" r="7.486"/>
<circle opacity="0.85" fill="none" stroke="#FFFFFF" stroke-width="0.5" cx="200.472" cy="170.254" r="7.487"/>
<path opacity="0.85" fill="none" stroke="#FFFFFF" stroke-width="0.5" d="M273.8,370.365c0-4.136,3.352-7.488,7.486-7.488
	c4.135,0,7.487,3.353,7.487,7.488c0,4.133-3.352,7.485-7.487,7.485C277.152,377.85,273.8,374.498,273.8,370.365z"/>
<circle opacity="0.85" fill="none" stroke="#FFFFFF" stroke-width="0.5" cx="356.477" cy="77.439" r="7.486"/>
<circle opacity="0.85" fill="none" stroke="#FFFFFF" stroke-width="0.5" cx="326.332" cy="25.339" r="7.486"/>
<line opacity="0.85" fill="none" stroke="#FFFFFF" stroke-width="0.5" x1="377.778" y1="25.339" x2="333.817" y2="25.339"/>
<line opacity="0.85" fill="none" stroke="#FFFFFF" stroke-width="0.5" x1="352.729" y1="70.96" x2="330.08" y2="31.819"/>
<circle opacity="0.85" fill="none" stroke="#FFFFFF" stroke-width="0.5" cx="437.366" cy="55.618" r="7.486"/>
<line opacity="0.85" fill="none" stroke="#FFFFFF" stroke-width="0.5" x1="430.887" y1="51.869" x2="391.744" y2="29.219"/>
<line opacity="0.85" fill="none" stroke="#FFFFFF" stroke-width="0.5" x1="280.786" y1="0.171" x2="319.781" y2="21.718"/>
<path opacity="0.85" fill="none" stroke="#FFFFFF" stroke-width="0.5" d="M385.267,17.853c-4.136,0-7.488,3.352-7.488,7.486
	s3.353,7.486,7.488,7.486c4.133,0,7.485-3.352,7.485-7.486S389.399,17.853,385.267,17.853z"/>
<circle opacity="0.85" fill="none" stroke="#FFFFFF" stroke-width="0.5" cx="675.338" cy="459.803" r="7.486"/>
<circle opacity="0.85" fill="none" stroke="#FFFFFF" stroke-width="0.5" cx="705.482" cy="407.704" r="7.486"/>
<line opacity="0.85" fill="none" stroke="#FFFFFF" stroke-width="0.5" x1="654.037" y1="407.704" x2="697.998" y2="407.704"/>
<line opacity="0.85" fill="none" stroke="#FFFFFF" stroke-width="0.5" x1="679.088" y1="453.324" x2="701.735" y2="414.182"/>
<circle opacity="0.85" fill="none" stroke="#FFFFFF" stroke-width="0.5" cx="594.45" cy="437.982" r="7.485"/>
<line opacity="0.85" fill="none" stroke="#FFFFFF" stroke-width="0.5" x1="600.928" y1="434.233" x2="640.071" y2="411.583"/>
<line opacity="0.85" fill="none" stroke="#FFFFFF" stroke-width="0.5" x1="751.029" y1="382.536" x2="712.034" y2="404.083"/>
<path opacity="0.85" fill="none" stroke="#FFFFFF" stroke-width="0.5" d="M646.549,400.217c4.137,0,7.488,3.352,7.488,7.486
	s-3.352,7.486-7.488,7.486c-4.133,0-7.484-3.352-7.484-7.486S642.416,400.217,646.549,400.217z"/>
<circle opacity="0.85" fill="none" stroke="#FFFFFF" stroke-width="0.5" cx="104.37" cy="197.173" r="7.486"/>
<circle opacity="0.85" fill="none" stroke="#FFFFFF" stroke-width="0.5" cx="74.225" cy="249.273" r="7.487"/>
<line opacity="0.85" fill="none" stroke="#FFFFFF" stroke-width="0.5" x1="125.671" y1="249.273" x2="81.709" y2="249.273"/>
<line opacity="0.85" fill="none" stroke="#FFFFFF" stroke-width="0.5" x1="100.62" y1="203.654" x2="77.972" y2="242.794"/>
<circle opacity="0.85" fill="none" stroke="#FFFFFF" stroke-width="0.5" cx="185.258" cy="218.996" r="7.485"/>
<line opacity="0.85" fill="none" stroke="#FFFFFF" stroke-width="0.5" x1="178.78" y1="222.744" x2="139.636" y2="245.395"/>
<line opacity="0.85" fill="none" stroke="#FFFFFF" stroke-width="0.5" x1="28.678" y1="274.441" x2="67.673" y2="252.895"/>
<path opacity="0.85" fill="none" stroke="#FFFFFF" stroke-width="0.5" d="M133.159,256.76c-4.137,0-7.488-3.352-7.488-7.486
	s3.352-7.487,7.488-7.487c4.133,0,7.484,3.352,7.484,7.487S137.292,256.76,133.159,256.76z"/>
<circle opacity="0.85" fill="none" stroke="#FFFFFF" stroke-width="0.5" cx="837.967" cy="394.272" r="7.486"/>
<circle opacity="0.85" fill="none" stroke="#FFFFFF" stroke-width="0.5" cx="868.112" cy="446.372" r="7.486"/>
<line opacity="0.85" fill="none" stroke="#FFFFFF" stroke-width="0.5" x1="816.666" y1="446.372" x2="860.627" y2="446.372"/>
<line opacity="0.85" fill="none" stroke="#FFFFFF" stroke-width="0.5" x1="841.717" y1="400.751" x2="864.365" y2="439.893"/>
<line opacity="0.85" fill="none" stroke="#FFFFFF" stroke-width="0.5" x1="871.863" y1="452.851" x2="881.786" y2="470"/>
<path opacity="0.85" fill="none" stroke="#FFFFFF" stroke-width="0.5" d="M809.178,453.858c4.137,0,7.488-3.352,7.488-7.486
	s-3.352-7.486-7.488-7.486c-4.133,0-7.484,3.352-7.484,7.486S805.045,453.858,809.178,453.858z"/>
<circle opacity="0.85" fill="none" stroke="#FFFFFF" stroke-width="0.5" cx="200.472" cy="111.341" r="7.487"/>
<circle opacity="0.85" fill="none" stroke="#FFFFFF" stroke-width="0.5" cx="163.622" cy="415.772" r="7.487"/>
<line opacity="0.85" fill="none" stroke="#FFFFFF" stroke-width="0.5" x1="573.875" y1="5.896" x2="573.873" y2="0"/>
</svg>
