<?xml version="1.0" encoding="utf-8"?>
<!-- Generator: Adobe Illustrator 14.0.0, SVG Export Plug-In . SVG Version: 6.00 Build 43363)  -->
<!DOCTYPE svg PUBLIC "-//W3C//DTD SVG 1.1//EN" "http://www.w3.org/Graphics/SVG/1.1/DTD/svg11.dtd">
<svg version="1.1" id="Layer_3" xmlns="http://www.w3.org/2000/svg" xmlns:xlink="http://www.w3.org/1999/xlink" x="0px" y="0px"
	 width="1100px" height="470px" viewBox="0 0 1100 470" enable-background="new 0 0 1100 470" xml:space="preserve">
<g>
	<circle opacity="0.4" fill="#FFFFFF" cx="740.446" cy="275.641" r="8.318"/>
	<circle opacity="0.4" fill="#FFFFFF" cx="682.403" cy="176.928" r="8.318"/>
	<circle fill="none" stroke="#FFFFFF" cx="740.446" cy="275.641" r="8.318"/>
	<circle fill="none" stroke="#FFFFFF" stroke-width="0.75" cx="682.403" cy="242.409" r="8.318"/>
	<circle fill="none" stroke="#FFFFFF" cx="525.54" cy="266.72" r="8.318"/>
	<line fill="none" stroke="#FFFFFF" stroke-width="0.75" x1="517.087" y1="266.72" x2="468.241" y2="266.72"/>
	<line fill="none" stroke="#FFFFFF" stroke-width="0.75" x1="733.093" y1="271.74" x2="689.601" y2="246.575"/>
	<circle fill="none" stroke="#FFFFFF" stroke-width="0.75" cx="559.034" cy="208.832" r="8.317"/>
	<circle fill="none" stroke="#FFFFFF" stroke-width="0.75" cx="559.034" cy="143.35" r="8.317"/>
	<line fill="none" stroke="#FFFFFF" stroke-width="0.75" x1="559.034" y1="200.515" x2="559.034" y2="151.667"/>
	<line fill="none" stroke="#FFFFFF" stroke-width="0.75" x1="529.704" y1="259.521" x2="554.868" y2="216.03"/>
	<circle fill="none" stroke="#FFFFFF" stroke-width="0.75" cx="715.897" cy="119.037" r="8.318"/>
	<circle fill="none" stroke="#FFFFFF" stroke-width="0.75" cx="682.401" cy="176.927" r="8.318"/>
	<circle fill="none" stroke="#FFFFFF" cx="747.884" cy="176.927" r="8.318"/>
	<circle fill="none" stroke="#FFFFFF" cx="460.081" cy="266.72" r="8.318"/>
	<line fill="none" stroke="#FFFFFF" stroke-width="0.75" x1="739.565" y1="176.926" x2="690.72" y2="176.926"/>
	<line fill="none" stroke="#FFFFFF" stroke-width="0.75" x1="711.731" y1="126.237" x2="686.567" y2="169.727"/>
	<circle fill="none" stroke="#FFFFFF" stroke-width="0.75" cx="426.587" cy="390.091" r="8.318"/>
	<circle fill="none" stroke="#FFFFFF" stroke-width="0.75" cx="484.476" cy="423.585" r="8.318"/>
	<line fill="none" stroke="#FFFFFF" stroke-width="0.75" x1="433.786" y1="394.257" x2="477.276" y2="419.421"/>
	<circle fill="none" stroke="#FFFFFF" stroke-width="0.75" cx="460.081" cy="201.237" r="8.317"/>
	<circle fill="none" stroke="#FFFFFF" stroke-width="0.75" cx="426.587" cy="324.609" r="8.316"/>
	<line fill="none" stroke="#FFFFFF" stroke-width="0.75" x1="460.081" y1="209.555" x2="460.081" y2="258.402"/>
	<line fill="none" stroke="#FFFFFF" stroke-width="0.75" x1="426.587" y1="332.925" x2="426.587" y2="381.773"/>
	<line fill="none" stroke="#FFFFFF" stroke-width="0.75" x1="455.917" y1="273.918" x2="430.751" y2="317.41"/>
	<circle fill="none" stroke="#FFFFFF" stroke-width="0.75" cx="805.771" cy="143.284" r="8.317"/>
	<line fill="none" stroke="#FFFFFF" stroke-width="0.75" x1="798.573" y1="147.45" x2="755.083" y2="172.615"/>
	<circle fill="none" stroke="#FFFFFF" stroke-width="0.75" cx="624.515" cy="208.913" r="8.318"/>
	<line fill="none" stroke="#FFFFFF" stroke-width="0.75" x1="567.351" y1="208.913" x2="616.196" y2="208.913"/>
	<circle opacity="0.4" fill="#FFFFFF" cx="525.54" cy="266.72" r="8.318"/>
	<circle opacity="0.4" fill="#FFFFFF" cx="747.884" cy="176.927" r="8.318"/>
	<circle fill="none" stroke="#FFFFFF" stroke-width="0.75" cx="798.339" cy="242.184" r="8.318"/>
	<circle fill="none" stroke="#FFFFFF" cx="798.339" cy="307.666" r="8.318"/>
	<line fill="none" stroke="#FFFFFF" stroke-width="0.75" x1="747.649" y1="271.513" x2="791.14" y2="246.348"/>
	<circle fill="none" stroke="#FFFFFF" stroke-width="0.75" cx="831.835" cy="365.553" r="8.317"/>
	<line fill="none" stroke="#FFFFFF" stroke-width="0.75" x1="827.669" y1="358.355" x2="802.505" y2="314.865"/>
	<line fill="none" stroke="#FFFFFF" stroke-width="0.75" x1="747.729" y1="279.7" x2="791.058" y2="303.642"/>
	<circle opacity="0.4" fill="#FFFFFF" cx="798.339" cy="307.666" r="8.318"/>
	<circle opacity="0.4" fill="#FFFFFF" cx="460.081" cy="266.72" r="8.318"/>
	<line fill="none" stroke="#FFFFFF" stroke-width="0.75" x1="631.714" y1="213.08" x2="675.204" y2="238.245"/>
	<line fill="none" stroke="#FFFFFF" stroke-width="0.75" x1="631.796" y1="204.892" x2="675.124" y2="180.95"/>
	<circle fill="none" stroke="#FFFFFF" stroke-width="0.75" cx="426.669" cy="455.57" r="8.318"/>
	<line fill="none" stroke="#FFFFFF" stroke-width="0.75" x1="426.669" y1="398.408" x2="426.669" y2="447.253"/>
	<circle fill="none" stroke="#FFFFFF" stroke-width="0.75" cx="401.806" cy="167.742" r="8.318"/>
	<line fill="none" stroke="#FFFFFF" stroke-width="0.75" x1="452.495" y1="197.07" x2="409.005" y2="171.906"/>
	<circle fill="none" stroke="#FFFFFF" stroke-width="0.75" cx="459.612" cy="135.758" r="8.318"/>
	<line fill="none" stroke="#FFFFFF" stroke-width="0.75" x1="459.612" y1="192.92" x2="459.612" y2="144.074"/>
</g>
<circle opacity="0.4" fill="#FFFFFF" cx="939.799" cy="26.92" r="8.317"/>
<circle opacity="0.4" fill="#FFFFFF" cx="841.085" cy="84.963" r="8.318"/>
<circle fill="none" stroke="#FFFFFF" cx="939.799" cy="26.92" r="8.317"/>
<circle fill="none" stroke="#FFFFFF" stroke-width="0.75" cx="906.567" cy="84.963" r="8.318"/>
<circle fill="none" stroke="#FFFFFF" cx="930.878" cy="241.827" r="8.318"/>
<line fill="none" stroke="#FFFFFF" stroke-width="0.75" x1="930.878" y1="250.28" x2="930.878" y2="299.125"/>
<line fill="none" stroke="#FFFFFF" stroke-width="0.75" x1="935.897" y1="34.274" x2="910.733" y2="77.766"/>
<circle fill="none" stroke="#FFFFFF" stroke-width="0.75" cx="872.99" cy="208.333" r="8.317"/>
<circle fill="none" stroke="#FFFFFF" stroke-width="0.75" cx="807.508" cy="208.333" r="8.317"/>
<line fill="none" stroke="#FFFFFF" stroke-width="0.75" x1="864.673" y1="208.333" x2="815.825" y2="208.333"/>
<line fill="none" stroke="#FFFFFF" stroke-width="0.75" x1="923.679" y1="237.663" x2="880.188" y2="212.499"/>
<circle fill="none" stroke="#FFFFFF" stroke-width="0.75" cx="783.194" cy="51.469" r="8.318"/>
<circle fill="none" stroke="#FFFFFF" stroke-width="0.75" cx="841.085" cy="84.965" r="8.318"/>
<circle fill="none" stroke="#FFFFFF" cx="841.085" cy="19.483" r="8.318"/>
<circle fill="none" stroke="#FFFFFF" cx="930.878" cy="307.286" r="8.318"/>
<line fill="none" stroke="#FFFFFF" stroke-width="0.75" x1="841.083" y1="27.801" x2="841.083" y2="76.647"/>
<line fill="none" stroke="#FFFFFF" stroke-width="0.75" x1="790.396" y1="55.635" x2="833.884" y2="80.799"/>
<circle fill="none" stroke="#FFFFFF" stroke-width="0.75" cx="1054.249" cy="340.78" r="8.318"/>
<circle fill="none" stroke="#FFFFFF" stroke-width="0.75" cx="1087.743" cy="282.891" r="8.318"/>
<line fill="none" stroke="#FFFFFF" stroke-width="0.75" x1="1058.415" y1="333.581" x2="1083.579" y2="290.09"/>
<circle fill="none" stroke="#FFFFFF" stroke-width="0.75" cx="865.395" cy="307.286" r="8.317"/>
<circle fill="none" stroke="#FFFFFF" stroke-width="0.75" cx="988.767" cy="340.78" r="8.316"/>
<line fill="none" stroke="#FFFFFF" stroke-width="0.75" x1="873.712" y1="307.286" x2="922.56" y2="307.286"/>
<line fill="none" stroke="#FFFFFF" stroke-width="0.75" x1="997.083" y1="340.78" x2="1045.931" y2="340.78"/>
<line fill="none" stroke="#FFFFFF" stroke-width="0.75" x1="938.075" y1="311.45" x2="981.567" y2="336.616"/>
<circle fill="none" stroke="#FFFFFF" stroke-width="0.75" cx="873.071" cy="142.852" r="8.318"/>
<line fill="none" stroke="#FFFFFF" stroke-width="0.75" x1="873.071" y1="200.016" x2="873.071" y2="151.17"/>
<circle opacity="0.4" fill="#FFFFFF" cx="930.878" cy="241.827" r="8.318"/>
<circle opacity="0.4" fill="#FFFFFF" cx="841.085" cy="19.483" r="8.318"/>
<circle opacity="0.4" fill="#FFFFFF" cx="930.878" cy="307.286" r="8.318"/>
<line fill="none" stroke="#FFFFFF" stroke-width="0.75" x1="877.237" y1="135.653" x2="902.403" y2="92.163"/>
<line fill="none" stroke="#FFFFFF" stroke-width="0.75" x1="869.05" y1="135.571" x2="845.108" y2="92.243"/>
<line fill="none" stroke="#FFFFFF" stroke-width="0.75" x1="861.228" y1="314.872" x2="836.063" y2="358.362"/>
<circle opacity="0.4" fill="#FFFFFF" cx="204.181" cy="349.187" r="8.318"/>
<circle opacity="0.4" fill="#FFFFFF" cx="302.894" cy="291.144" r="8.319"/>
<circle fill="none" stroke="#FFFFFF" cx="204.181" cy="349.187" r="8.318"/>
<circle fill="none" stroke="#FFFFFF" stroke-width="0.75" cx="237.413" cy="291.143" r="8.318"/>
<circle fill="none" stroke="#FFFFFF" cx="213.102" cy="134.28" r="8.318"/>
<line fill="none" stroke="#FFFFFF" stroke-width="0.75" x1="213.102" y1="125.827" x2="213.102" y2="76.981"/>
<line fill="none" stroke="#FFFFFF" stroke-width="0.75" x1="208.082" y1="341.833" x2="233.247" y2="298.342"/>
<circle fill="none" stroke="#FFFFFF" stroke-width="0.75" cx="270.99" cy="167.774" r="8.318"/>
<circle fill="none" stroke="#FFFFFF" stroke-width="0.75" cx="336.473" cy="167.774" r="8.317"/>
<line fill="none" stroke="#FFFFFF" stroke-width="0.75" x1="279.308" y1="167.774" x2="328.155" y2="167.774"/>
<line fill="none" stroke="#FFFFFF" stroke-width="0.75" x1="344.79" y1="167.774" x2="393.638" y2="167.774"/>
<line fill="none" stroke="#FFFFFF" stroke-width="0.75" x1="220.3" y1="138.444" x2="263.792" y2="163.61"/>
<circle fill="none" stroke="#FFFFFF" stroke-width="0.75" cx="360.784" cy="324.637" r="8.318"/>
<circle fill="none" stroke="#FFFFFF" stroke-width="0.75" cx="302.896" cy="291.143" r="8.318"/>
<path fill="none" stroke="#FFFFFF" d="M294.577,356.625c0-4.596,3.725-8.32,8.318-8.32s8.318,3.725,8.318,8.32
	c0,4.592-3.725,8.316-8.318,8.316S294.577,361.217,294.577,356.625z"/>
<circle fill="none" stroke="#FFFFFF" cx="213.102" cy="68.821" r="8.318"/>
<line fill="none" stroke="#FFFFFF" stroke-width="0.75" x1="302.896" y1="348.305" x2="302.896" y2="299.459"/>
<line fill="none" stroke="#FFFFFF" stroke-width="0.75" x1="353.585" y1="320.471" x2="310.095" y2="295.307"/>
<circle fill="none" stroke="#FFFFFF" stroke-width="0.75" cx="89.731" cy="35.327" r="8.318"/>
<circle fill="none" stroke="#FFFFFF" stroke-width="0.75" cx="56.235" cy="93.215" r="8.318"/>
<line fill="none" stroke="#FFFFFF" stroke-width="0.75" x1="85.564" y1="42.526" x2="60.4" y2="86.016"/>
<circle fill="none" stroke="#FFFFFF" stroke-width="0.75" cx="278.584" cy="68.821" r="8.317"/>
<circle fill="none" stroke="#FFFFFF" stroke-width="0.75" cx="155.213" cy="35.327" r="8.317"/>
<line fill="none" stroke="#FFFFFF" stroke-width="0.75" x1="270.267" y1="68.821" x2="221.419" y2="68.821"/>
<line fill="none" stroke="#FFFFFF" stroke-width="0.75" x1="146.896" y1="35.327" x2="98.049" y2="35.327"/>
<line fill="none" stroke="#FFFFFF" stroke-width="0.75" x1="205.904" y1="64.657" x2="162.412" y2="39.491"/>
<circle fill="none" stroke="#FFFFFF" stroke-width="0.75" cx="336.538" cy="414.513" r="8.317"/>
<line fill="none" stroke="#FFFFFF" stroke-width="0.75" x1="332.372" y1="407.315" x2="307.206" y2="363.823"/>
<circle fill="none" stroke="#FFFFFF" stroke-width="0.75" cx="270.909" cy="233.255" r="8.318"/>
<line fill="none" stroke="#FFFFFF" stroke-width="0.75" x1="270.909" y1="176.092" x2="270.909" y2="224.937"/>
<circle opacity="0.4" fill="#FFFFFF" cx="213.102" cy="134.28" r="8.318"/>
<path opacity="0.4" fill="#FFFFFF" d="M294.577,356.625c0-4.596,3.725-8.32,8.318-8.32s8.318,3.725,8.318,8.32
	c0,4.592-3.725,8.316-8.318,8.316S294.577,361.217,294.577,356.625z"/>
<circle fill="none" stroke="#FFFFFF" stroke-width="0.75" cx="237.638" cy="407.079" r="8.318"/>
<circle fill="none" stroke="#FFFFFF" cx="172.157" cy="407.079" r="8.318"/>
<line fill="none" stroke="#FFFFFF" stroke-width="0.75" x1="208.309" y1="356.39" x2="233.474" y2="399.879"/>
<circle fill="none" stroke="#FFFFFF" stroke-width="0.75" cx="114.269" cy="440.575" r="8.318"/>
<line fill="none" stroke="#FFFFFF" stroke-width="0.75" x1="121.467" y1="436.409" x2="164.958" y2="411.245"/>
<line fill="none" stroke="#FFFFFF" stroke-width="0.75" x1="200.122" y1="356.47" x2="176.18" y2="399.799"/>
<circle opacity="0.4" fill="#FFFFFF" cx="172.157" cy="407.079" r="8.318"/>
<circle opacity="0.4" fill="#FFFFFF" cx="213.102" cy="68.821" r="8.318"/>
<line fill="none" stroke="#FFFFFF" stroke-width="0.75" x1="266.741" y1="240.454" x2="241.577" y2="283.944"/>
<line fill="none" stroke="#FFFFFF" stroke-width="0.75" x1="274.931" y1="240.536" x2="298.872" y2="283.864"/>
<circle fill="none" stroke="#FFFFFF" stroke-width="0.75" cx="24.251" cy="35.409" r="8.318"/>
<line fill="none" stroke="#FFFFFF" stroke-width="0.75" x1="81.414" y1="35.409" x2="32.568" y2="35.409"/>
<circle fill="none" stroke="#FFFFFF" stroke-width="0.75" cx="312.079" cy="10.545" r="8.318"/>
<line fill="none" stroke="#FFFFFF" stroke-width="0.75" x1="282.751" y1="61.235" x2="307.915" y2="17.745"/>
<circle fill="none" stroke="#FFFFFF" stroke-width="0.75" cx="344.063" cy="68.352" r="8.318"/>
<line fill="none" stroke="#FFFFFF" stroke-width="0.75" x1="286.901" y1="68.352" x2="335.747" y2="68.352"/>
</svg>
