<?xml version="1.0" encoding="utf-8"?>
<!-- Generator: Adobe Illustrator 14.0.0, SVG Export Plug-In . SVG Version: 6.00 Build 43363)  -->
<!DOCTYPE svg PUBLIC "-//W3C//DTD SVG 1.1//EN" "http://www.w3.org/Graphics/SVG/1.1/DTD/svg11.dtd">
<svg version="1.1" xmlns="http://www.w3.org/2000/svg" xmlns:xlink="http://www.w3.org/1999/xlink" x="0px" y="0px" width="216px"
	 height="216px" viewBox="126 126 216 216" enable-background="new 126 126 216 216" xml:space="preserve">
<g id="Layer_2">
</g>
<g id="Layer_3">
	<path fill-rule="evenodd" clip-rule="evenodd" fill="none" stroke="#FFFFFF" stroke-width="24" stroke-dasharray="0.2,2" d="
		M233.939,311.48c-42.927,0-77.729-34.803-77.729-77.732c0-42.928,34.803-77.729,77.729-77.729
		c42.932,0,77.731,34.801,77.731,77.729C311.67,276.678,276.871,311.48,233.939,311.48z"/>
</g>
<g id="Layer_1">
</g>
<g id="Layer_4">
	<path opacity="0.75" fill-rule="evenodd" clip-rule="evenodd" fill="#AAD5C4" d="M279.51,176.913
		c16.633,13.35,27.279,33.85,27.279,56.835c0,40.232-32.613,72.846-72.844,72.846c-35.275,0-64.695-25.075-71.406-58.375
		l2.833-0.572c6.445,31.978,34.697,56.061,68.574,56.061c38.637,0,69.956-31.322,69.956-69.958
		c0-22.075-10.225-41.762-26.197-54.583L279.51,176.913z M255.898,167.307c-6.904-2.28-14.285-3.513-21.954-3.513
		c-13.633,0-26.355,3.9-37.112,10.645l-1.532-2.448c11.201-7.023,24.448-11.085,38.644-11.084c7.983,0,15.667,1.285,22.854,3.658
		L255.898,167.307z"/>
	<path opacity="0.9" fill-rule="evenodd" clip-rule="evenodd" fill="#AAD5C4" d="M311.464,214.932
		c1.46,6.033,2.233,12.334,2.233,18.816c0,27.447-13.865,51.656-34.973,66.006l-1.559-2.296
		c20.373-13.851,33.755-37.218,33.755-63.71c0-6.252-0.745-12.331-2.152-18.151L311.464,214.932z M258.09,160.631
		c-7.596-2.508-15.715-3.865-24.152-3.865c-42.514,0-76.98,34.468-76.98,76.982c0,42.514,34.466,76.982,76.98,76.982
		c4.838,0,9.57-0.445,14.161-1.299l0.511,2.729c-4.756,0.885-9.66,1.347-14.672,1.347c-44.047,0-79.756-35.71-79.756-79.759
		c0-44.046,35.708-79.756,79.756-79.756c8.742,0,17.156,1.407,25.027,4.005L258.09,160.631z"/>
	<path opacity="0.5" fill-rule="evenodd" clip-rule="evenodd" fill="#AAD5C4" d="M148.291,251.104
		c-1.13-5.609-1.723-11.414-1.723-17.356c0-48.254,39.118-87.373,87.371-87.373c48.259,0,87.373,39.119,87.373,87.373
		c0,42.767-30.72,78.356-71.301,85.901l-0.55-2.938c39.191-7.288,68.862-41.662,68.862-82.963c0-46.603-37.777-84.383-84.385-84.383
		c-46.602,0-84.38,37.78-84.38,84.383c0,5.738,0.573,11.344,1.664,16.762L148.291,251.104z"/>
</g>
<g id="Layer_6">
	<text transform="matrix(1 0 0 1 325.3525 233.7573)" fill="#FFFFFF" font-family="'PTSans-Narrow'" font-size="7.6">0:00</text>
	
		<text transform="matrix(0.9397 -0.342 0.342 0.9397 319.8398 202.4922)" fill="#FFFFFF" font-family="'PTSans-Narrow'" font-size="7.6">2:00</text>
	
		<text transform="matrix(0.766 -0.6428 0.6428 0.766 303.9658 174.9966)" fill="#FFFFFF" font-family="'PTSans-Narrow'" font-size="7.6">4:00</text>
	<text transform="matrix(0.5 -0.866 0.866 0.5 279.6445 154.5884)" fill="#FFFFFF" font-family="'PTSans-Narrow'" font-size="7.6">6:00</text>
	
		<text transform="matrix(0.1736 -0.9848 0.9848 0.1736 249.8105 143.7285)" fill="#FFFFFF" font-family="'PTSans-Narrow'" font-size="7.6">8:00</text>
	
		<text transform="matrix(-0.1736 -0.9848 0.9848 -0.1736 218.0615 143.7275)" fill="#FFFFFF" font-family="'PTSans-Narrow'" font-size="7.6">10:00</text>
	
		<text transform="matrix(-0.5 -0.866 0.866 -0.5 188.2261 154.5869)" fill="#FFFFFF" font-family="'PTSans-Narrow'" font-size="7.6">12:00</text>
	
		<text transform="matrix(-0.766 -0.6428 0.6428 -0.766 163.8262 175.0288)" fill="#FFFFFF" font-family="'PTSans-Narrow'" font-size="7.6">14:00</text>
	
		<text transform="matrix(-0.9397 -0.342 0.342 -0.9397 147.8926 202.583)" fill="#FFFFFF" font-family="'PTSans-Narrow'" font-size="7.6">16:00</text>
	<text transform="matrix(-1 0 0 -1 142.4209 233.8916)" fill="#FFFFFF" font-family="'PTSans-Narrow'" font-size="7.6">18:00</text>
	
		<text transform="matrix(-0.9397 0.342 -0.342 -0.9397 147.9834 265.1826)" fill="#FFFFFF" font-family="'PTSans-Narrow'" font-size="7.6">20:00</text>
	
		<text transform="matrix(-0.766 0.6428 -0.6428 -0.766 163.8413 292.7188)" fill="#FFFFFF" font-family="'PTSans-Narrow'" font-size="7.6">22:00</text>
	
		<text transform="matrix(-0.5 0.866 -0.866 -0.5 188.1582 313.1719)" fill="#FFFFFF" font-family="'PTSans-Narrow'" font-size="7.6">24:00</text>
	
		<text transform="matrix(-0.1736 0.9848 -0.9848 -0.1736 217.998 324.0742)" fill="#FFFFFF" font-family="'PTSans-Narrow'" font-size="7.6">26:00</text>
	
		<text transform="matrix(0.1736 0.9848 -0.9848 0.1736 249.8506 324.0781)" fill="#FFFFFF" font-family="'PTSans-Narrow'" font-size="7.6">28:00</text>
	<text transform="matrix(0.5 0.866 -0.866 0.5 279.7031 313.2227)" fill="#FFFFFF" font-family="'PTSans-Narrow'" font-size="7.6">30:00</text>
	
		<text transform="matrix(0.766 0.6428 -0.6428 0.766 304.0459 292.8115)" fill="#FFFFFF" font-family="'PTSans-Narrow'" font-size="7.6">32:00</text>
	
		<text transform="matrix(0.9397 0.342 -0.342 0.9397 319.9375 265.3047)" fill="#FFFFFF" font-family="'PTSans-Narrow'" font-size="7.6">34:00</text>
</g>
</svg>
