<?xml version="1.0" encoding="utf-8"?>
<!-- Generator: Adobe Illustrator 14.0.0, SVG Export Plug-In . SVG Version: 6.00 Build 43363)  -->
<!DOCTYPE svg PUBLIC "-//W3C//DTD SVG 1.1//EN" "http://www.w3.org/Graphics/SVG/1.1/DTD/svg11.dtd">
<svg version="1.1" id="Layer_1" xmlns="http://www.w3.org/2000/svg" xmlns:xlink="http://www.w3.org/1999/xlink" x="0px" y="0px"
	 width="129.6px" height="244.8px" viewBox="0 0 129.6 244.8" enable-background="new 0 0 129.6 244.8" xml:space="preserve">
<path fill="#BCBCBC" d="M120.927,189.664c0.047-0.492,0.195-0.516,0.355-0.848c-0.422-0.047-0.777-0.105-1.066-0.426
	c0.119-1.141,0.236-2.273,0.357-3.41c-0.086-0.426-0.328-0.984-0.213-1.629c0.184-1.035,0.762-1.961,0.992-2.912
	c0.279-1.148-1.879-5.73-2.27-6.812c-0.051,0.023-0.096,0.047-0.141,0.07c-0.107,0.961-0.812,4.629-0.57,5.535
	c0.402,0.969,0.807,1.938,1.207,2.908c0.205,0.59,0.922,2.551,0.424,3.125c-0.178,0.199-0.342,0.312-0.566,0.285
	c-0.143-0.309-0.283-0.617-0.426-0.926c-0.023,0-0.047,0-0.068,0c0.211,1.871,0.424,3.738,0.637,5.605
	c-0.07,0.688-0.143,1.375-0.213,2.059c0.162,0.574,0.334,1.137,0.498,1.703c0.406,2.555-0.971,6.27-1.492,8.305
	c-0.471,0.023-0.943,0.047-1.42,0.07c-0.471,3.586-2.529,5.977-4.115,8.512c-0.49,0.789-1.158,1.469-1.348,2.559
	c1.609,1.285,0.787,1.949,1.205,3.973c0.324,1.559,3.91,7.453,0.355,8.375c-6.078,1.574-3.186-5.961-5.82-7.734
	c-0.031,2.785,0.795,3.449,1.211,5.035c0.045,0.875,0.09,1.754,0.141,2.629c0.223,0.648,1.406,3.285,1.275,3.688
	c-0.98,1.535-6,0.871-7.166,0c-0.111-0.781-0.391-1.074-0.496-1.773c0.117-0.609,0.234-1.23,0.355-1.844
	c-0.096-0.758-0.189-1.516-0.285-2.27c0.098-0.398,0.521-0.734,0.852-0.922c-0.246-0.281-0.342-0.273-0.285-0.711
	c0.379-0.406,0.605-0.465,1.137-0.566c0.043-2.141-0.486-3.371-0.992-5.043c-1.242-4.066-2.379-9.52-0.857-13.977
	c-2.104,0.039-5.584,0.629-6.596-0.637c0.441-2.832,0.602-5.461,0.07-8.449c-0.025-0.805-0.045-1.605-0.07-2.41
	c-1.059,0.027-4.082-3.234-3.762-5.18c0.217-0.852,0.426-1.703,0.643-2.555c0.268-1.273,0.023-2.561,0.209-3.689
	c0.049-2.297,0.096-4.59,0.141-6.883c0.27-1.645,0.902-3.793,0.641-5.395c-1.395-0.781-2.789-1.562-4.188-2.344
	c0.061-1.309,1.176-2.572,1.633-3.691c1.213-2.957,3.131-10.777,5.18-12.418c1.914-1.527,4.467-2.199,6.531-3.617
	c0.871-0.6,1.432-1.703,2.057-2.555c-0.098-1.912-1.574-1.674-2.129-2.98c-0.426-1,0.141-1.467,0-2.414
	c-0.096-0.779-0.191-1.561-0.283-2.34c0.471-2.559,2.832-5.09,6.387-4.188c3.143,0.799,4.186,4.68,3.9,7.807
	c0.025,0.732,0.049,1.467,0.07,2.201c-0.141,0.812-0.941,1.629-0.637,2.41c1.789,3.426,6.281,3.098,8.16,5.605
	c1.955,2.617,1.732,7.527,2.484,11.355c0.25,1.273,1.582,4.719,1.137,5.746c-0.547,0.332-1.09,0.664-1.633,0.994
	c0.285,1.988,0.566,3.975,0.852,5.961c0.459,2.389,0.441,5.424,0.992,7.807c0.236,0.07,0.473,0.141,0.711,0.215
	c0.221,0.924-0.014,1.463-0.641,1.912C124.521,185.73,124.007,189.457,120.927,189.664z M95.665,179.447
	c-0.109,0.906-0.639,2.4-0.143,3.119c0,0.051,0,0.098,0,0.145c0.096-0.07,0.191-0.145,0.281-0.215
	C96.013,181.605,96.185,180.326,95.665,179.447z M121.708,185.265c-0.045,0.473-0.096,0.945-0.143,1.418
	c0.025,0.047,0.047,0.098,0.072,0.141c0.283-0.02,0.568-0.043,0.852-0.066c0-0.141,0-0.289,0-0.426
	c-0.07-0.285-0.141-0.57-0.215-0.855C122.085,185.406,121.897,185.335,121.708,185.265z M94.812,186.617
	c-0.045,0.328-0.096,0.66-0.141,0.988c0.045-0.023,0.096-0.047,0.141-0.07c0.072-0.305,0.145-0.613,0.215-0.918
	C94.956,186.617,94.884,186.617,94.812,186.617z M121.565,187.32c-0.105,0.246-0.17,0.184,0,0.426
	c0.273-0.105,0.367-0.086,0.498-0.352C121.897,187.371,121.733,187.347,121.565,187.32z M96.019,187.675
	c-0.074,0.684-0.24,1.516-0.922,1.633c0.211,0.332,0.426,0.664,0.639,0.992c0-0.043,0-0.09,0-0.141
	C95.999,189.617,96.243,188.25,96.019,187.675z M108.511,201.16c-1.166,2.797-0.562,4.617-0.355,7.523
	c0.074,1.043-0.582,2.422-0.213,3.332c0-0.047,0-0.09,0-0.141c0.773-0.676,1.141-2.574,1.346-3.762
	c-0.021-0.988-0.047-1.988-0.068-2.977c0.242-1.395,0.793-2.562,1.35-3.621C109.882,201.398,109.194,201.277,108.511,201.16z
	 M103.542,221.597c-0.166,0.094-0.332,0.188-0.496,0.285c0.047,0.047,0.096,0.094,0.141,0.141c0.215-0.07,0.426-0.141,0.641-0.211
	c-0.051-0.074-0.098-0.145-0.145-0.215C103.636,221.597,103.589,221.597,103.542,221.597z M103.116,222.234
	c0.07,0.023,0.141,0.051,0.213,0.074C103.257,222.285,103.187,222.257,103.116,222.234z"/>
<path fill="#BCBCBC" d="M103.681,48.139h9.941c2.922,0,5.291-2.367,5.291-5.291V20.725c0-2.924-2.369-5.291-5.291-5.291H85.249
	c-2.924,0-5.293,2.367-5.293,5.291v22.123c0,2.924,2.369,5.291,5.293,5.291h9.082l5.104,8.481L103.681,48.139z"/>
<path fill="#BCBCBC" d="M68.937,196.843c-0.111,0.109-1.521,0.621-1.631,0.691c-0.113,0.078-0.258,0.035-0.258,0.035
	s0.727,1.16,0.762,1.383c0.037,0.219,0.072,0.324,0.018,0.375c-0.053,0.039-0.77,0.309-1.145,0.414
	c-0.377,0.117-0.705,0.105-0.943,0.121c-0.238,0.02-0.211-0.094-0.469,0.07c-0.256,0.18-0.402,0.121-0.604,0.172
	c-0.2,0.039-0.255,0.078-0.255,0.078s0.037,1.371,0.037,1.406s0,0.121-0.24,0.105c-0.24-0.012-0.32-0.035-0.521-0.066
	c-0.2-0.023-0.421-0.18-0.597-0.18c-0.175,0-0.431,0.043-0.613,0.066c-0.183,0.02-0.303-0.023-0.503-0.027
	c-0.2-0.016-0.2-0.039-0.296-0.023c-0.09,0.023-0.576,0.215-0.576,0.215s-0.175,0.125-0.02,0.875
	c0.157,0.758,0.157,0.758,0.157,0.758s0.193,0.836,0.193,1.57c0,0.742,0.095,3.543-0.221,4.93c-0.311,1.395-0.696,4.043-0.999,5.113
	c-0.298,1.074-0.566,2.398-0.944,3.418c-0.376,1.016-1.062,2.672-1.18,3.203c-0.117,0.531-0.138,0.543-0.058,0.609
	c0.085,0.059,0.166-0.012,0.12,0.195c-0.045,0.195,0.011,0.293-0.109,0.305c-0.118,0.008-0.236-0.012-0.236-0.012
	s0.19,0.617,0.201,0.727c0.007,0.109,0.024,0.645,0.024,0.816c0,0.16,0.12,0.73,0.195,1.016s0.11,0.688,0.208,0.832
	c0.103,0.152,0.188,0.445,0.195,0.508c0.008,0.055-0.173,0.578-0.213,0.664c-0.035,0.086-0.658,1.375-0.861,1.707
	c-0.2,0.328-0.266,0.688-0.336,0.77c-0.075,0.082-0.415,0.219-0.615,0.254c-0.201,0.039-1.125,0.332-1.593,0.359
	c-0.469,0.031-1.679,0.031-1.926,0.012c-0.248-0.02-1.045-0.105-1.162-0.105c-0.118,0-0.318-0.121-0.311-0.172
	c0.007-0.055,0.082-0.223,0.045-0.312c-0.038-0.082-0.118-0.512-0.183-0.668c-0.065-0.156-0.155-0.156-0.073-0.219
	c0.083-0.066,0.229-0.16,0.229-0.16s-0.128-0.117-0.184-0.188c-0.058-0.074-0.138-0.176-0.138-0.305c0-0.125,0-0.246,0.11-0.32
	s0.2-0.102,0.2-0.102s0.021-0.188,0.101-0.23c0.085-0.035,0.158-0.043,0.213-0.043s-0.107-0.301,0.062-0.457
	c0.176-0.16,0.32-0.324,0.32-0.324s-0.11,0.027-0.275-0.168c-0.162-0.188-0.245-0.273-0.15-0.355
	c0.098-0.082,0.221-0.223,0.466-0.234c0.251-0.016,0.566-0.156,0.677-0.203c0.11-0.059,0.26-0.246,0.285-0.418
	c0.03-0.16,0.812-1.539,1.007-2.043c0.19-0.516,0.175-0.688,0.205-0.906c0.027-0.219-0.085-0.449,0.096-0.613
	c0.18-0.145,0.205-0.16,0.205-0.227s-0.138-0.184-0.125-0.254c0.015-0.062,0.195-0.16,0.195-0.16s0.962-1.746,1.017-3.219
	c0.055-1.461,0.275-3.117,0.261-4.652c-0.011-1.539,0.315-4.164,0.468-5.336c0.15-1.168-0.165-2.98-0.165-3.512
	c0-0.539-0.098-0.91-0.168-1.102c-0.065-0.195-0.341-0.992-0.341-0.992s-1.993-0.398-3.601-0.574
	c-1.608-0.18-3.614-0.402-4.383-0.348c-0.769,0.059-1.442-0.023-1.442-0.023s-0.426,0.477-0.346,1.059
	c0.083,0.578,0.48,2.031,0.744,3.145c0.263,1.109,0.769,3.094,0.701,4.18c-0.07,1.082-0.166,2.234-0.221,2.992
	c-0.053,0.758,0.067,1.594,0.083,3.082c0.012,1.48,0.125,2.457,0.149,3.578c0.025,1.133,0.043,1.52,0.181,2
	c0.136,0.477,0.013,0.273,0.301,0.797c0.288,0.52,0.315,0.859,0.315,1.012c0,0.156-0.055,0.293,0.015,0.406
	c0.07,0.105,0.195,0.117,0.358,0.402c0.168,0.297,0.493,0.68,0.493,0.992c0,0.316,0.07,0.441-0.024,0.598
	c-0.101,0.148-0.101,0.148,0.01,0.238c0.11,0.102,0.25,0.059,0.235,0.168c-0.013,0.113,0.138,0-0.08,0.48
	c-0.221,0.484-0.483,1.211-0.704,1.832c-0.218,0.617-0.232,0.906-0.37,0.992c-0.138,0.082-0.318,0.191-0.453,0.199
	c-0.141,0.016-0.469-0.008-0.827-0.008c-0.355,0-0.588,0.039-0.781-0.031c-0.192-0.07-0.508-0.18-0.508-0.18
	s-0.193-0.109-0.261-0.137c-0.072-0.027-0.358-0.176-0.358-0.176s-0.205,0.312-0.591,0.355s-0.386,0.129-0.591,0.176
	c-0.205,0.055-0.797,0.168-1.127,0.176c-0.331,0.016-1.428,0.074-2.019,0.086c-0.591,0.016-1.114,0.047-1.445,0.055
	c-0.328,0.016-0.604,0.016-0.836-0.039c-0.233-0.062-0.413-0.355-0.469-0.535c-0.055-0.18-0.19-0.223-0.15-0.402
	c0.04-0.176,0.056-0.25,0.261-0.273c0.205-0.027,0.4-0.082,0.4-0.082l0.028-0.191c0,0,0.122-0.312,0.162-0.383
	s0.016-0.301,0.15-0.355c0.141-0.059,0.331-0.195,0.496-0.262c0.165-0.07,0.346-0.188,0.456-0.25
	c0.109-0.066-0.141-0.191-0.141-0.191s0.25-0.055,0.386-0.086c0.135-0.023,0.381-0.051,0.245-0.133
	c-0.135-0.082-0.175-0.223-0.175-0.223s0.26-0.07,0.33-0.094c0.065-0.027,0.176-0.32,0.176-0.32s0.013-0.121,0.11-0.121
	s0.098,0.039,0.152,0.137c0.053,0.098,0.408,0.113,0.549,0.012c0.138-0.094,0.866-0.961,1.044-1.301
	c0.178-0.344,0.248-0.566,0.618-0.922c0.371-0.359,0.371-0.371,0.552-0.582c0.178-0.203,0.26-0.402,0.26-0.629
	c0-0.223,0.025-0.812,0.025-0.812s0.045-1.695-0.04-2.191c-0.08-0.496-0.619-3.879-0.797-4.566c-0.18-0.684-0.551-2.871-0.673-3.504
	c-0.123-0.633-0.494-2.957-0.483-3.777c0.018-0.824,0.018-2.312-0.11-2.949c-0.12-0.652-0.354-1.52-0.381-1.602
	c-0.03-0.082-0.386-1.195-0.511-1.484c-0.12-0.289-0.398-1.523-0.398-2.566c0-1.047,0.113-1.648,0.113-1.648
	s-0.702-0.234-1.157-0.457c-0.451-0.215-0.824-0.438-0.867-0.492c-0.04-0.059,0.842-1.691,1.213-2.336
	c0.37-0.645,0.961-1.797,1.234-2.324c0.275-0.52,1.73-3.723,2.076-4.578c0.343-0.848,1.292-3.555,1.482-4.449
	c0.192-0.891,0.471-1.908,0.842-2.584c0.37-0.676,0.546-1.141,0.546-1.281c0-0.133,0.069-0.406,0.069-0.406s0.344-0.539,0.344-0.84
	s-0.013-0.645-0.04-0.727c-0.028-0.082-0.248,0.07-0.218-0.277c0.024-0.344-0.251-2.582-0.238-2.637
	c0.015-0.055,0.36-0.289,0.428-0.357c0.068-0.068,0.056-0.121,0.056-0.266c0-0.135,0-0.463,0-0.463s0.19-1.031,0.19-1.227
	c0-0.189-0.08-0.438,0-0.545c0.082-0.115,0.208-0.303,0.263-0.373c0.055-0.066,0.096-0.605,0.096-0.605v-0.277
	c0,0-2.172-1.766-3.243-3.254c-1.072-1.482-1.428-2.293-1.839-2.816c-0.413-0.523-0.485-0.58-0.565-0.629
	c-0.08-0.055-0.165-0.082-0.206-0.152c-0.042-0.07-0.042-0.168-0.042-0.168l-0.245-0.191c0,0-0.113-0.066-0.166-0.176
	c-0.055-0.109-0.082-0.17-0.152-0.277c-0.065-0.109-0.23-0.285-0.23-0.285s-0.112-0.346-0.306-0.457
	c-0.19-0.109-0.521-0.205-0.741-0.219c-0.221-0.016-0.466-0.066-0.796-0.121c-0.331-0.059-0.481-0.191-0.717-0.191
	c-0.23,0-0.561-0.031-0.769,0.051s-0.591,0.207-0.781,0.221c-0.195,0.014-0.563,0.025-0.619-0.037
	c-0.055-0.074-0.165-0.115-0.195-0.195c-0.024-0.088-0.093-0.426-0.093-0.426l-0.069-0.125l0.015-0.66c0,0-0.413-0.301-0.483-0.387
	c-0.07-0.082-0.175-0.328-0.205-0.451c-0.025-0.123-0.096-0.182-0.025-0.221c0.065-0.043,0.188-0.109,0.188-0.191
	s0.058-0.18,0.072-0.234c0.013-0.055,0.067-0.08,0.123-0.109c0.058-0.027,0.082-0.012,0.027-0.068
	c-0.056-0.057-0.223-0.139-0.301-0.248c-0.085-0.109-0.278-0.387-0.29-0.512c-0.016-0.119,0.069-0.301,0.122-0.355
	c0.058-0.057,0.178-0.133,0.288-0.148s0.398-0.027,0.398-0.027l-0.04-0.41c0,0-0.233-0.129-0.315-0.207
	c-0.085-0.086-0.178-0.1-0.178-0.25s0.015-0.328,0.08-0.426c0.07-0.096,0.195-0.275,0.275-0.275c0.082,0,0.11-0.014,0.11-0.014
	s-0.013-0.398-0.013-0.457c0-0.051-0.107-0.094-0.107-0.094l0.024-0.148c0,0,0.741-0.014,1.633,0.055
	c0.896,0.066,1.237,0.109,1.801,0.121c0.563,0.016,0.979,0.066,1.044,0.066c0.07,0,0.126-0.012,0.141,0.1
	c0.013,0.111-0.11,0.139-0.11,0.139s-0.125-0.066-0.141,0.027c-0.012,0.098-0.149,1.537-0.149,1.537s0.511,0.084,0.591,0.111
	c0.085,0.023,0.248,0.111,0.37,0.125c0.126,0.012,0.195-0.086,0.261,0.012c0.07,0.094,0.376,0.562,0.511,0.797
	c0.136,0.234,0.631,0.895,0.892,1.348c0.263,0.449,0.701,0.977,0.769,1.141c0.07,0.166,0.438,0.988,0.757,1.32
	c0.318,0.328,0.974,1.18,1.457,1.578c0.481,0.398,1.017,1.07,1.223,1.137c0.208,0.074,0.315,0.115,0.315,0.115l-0.096-2.199
	c0,0-0.453-0.797-0.468-1.197c-0.01-0.395-0.056-0.836,0.085-1.176c0.136-0.35,0.313-1.051,0.355-1.133
	c0.04-0.08-0.013-1.045,0-1.273c0.016-0.238,0-0.398,0-0.398s-0.741-1.613-0.894-1.938c-0.148-0.33-0.275-0.553-0.301-0.719
	c-0.027-0.162-0.208-0.645-0.208-0.645s-0.221,0.344-0.37,0.469c-0.15,0.125-0.481,0.59-0.592,0.697
	c-0.109,0.111-0.355,0.168-0.355,0.168s0.123-0.646,0.275-0.797c0.15-0.152,0.592-0.576,0.767-0.717
	c0.181-0.137,0.346-0.273,0.581-0.59c0.23-0.316,0.19-0.166,0.328-0.494c0.138-0.334,0.318-0.826,0.303-1.17
	c-0.015-0.34-0.055-0.918,0.016-1.014c0.064-0.1,0.202-0.412,0.215-0.646c0.016-0.234,0.03-0.676,0.07-0.867
	c0.04-0.189,0.141-1.664,0.165-1.883c0.027-0.219,0.027-0.617,0.04-0.836c0.016-0.219,0.016-0.566,0.098-0.965
	c0.083-0.398,0.193-0.973,0.193-1.123c0-0.154-0.043-0.303,0.024-0.51c0.07-0.207,0.11-0.58,0.11-0.58s-0.11,0.166-0.315,0.33
	c-0.205,0.166-0.33,0.426-0.438,0.633c-0.11,0.207-0.438,1.113-0.618,1.416s-0.221,0.592-0.358,0.893
	c-0.138,0.303-0.29,0.66-0.413,0.922s-0.221,0.508-0.301,0.605c-0.082,0.092,0.291-0.98,0.315-1.113
	c0.028-0.141,0.07-0.391,0.07-0.688c0-0.305,0.233-1.43,0.536-1.979c0.301-0.551,0.631-1.004,0.687-1.209
	c0.055-0.209,0.892-1.318,0.836-1.25c-0.055,0.066,0.195-0.535,0.304-0.758c0.112-0.223,0.551-0.836,0.866-1.414
	c0.317-0.576,0.053-0.576,0.604-1.484c0.551-0.91,0.741-1.109,0.964-1.275c0.218-0.166,0.188-0.152,0.245-0.195
	c0.053-0.041,0.386-0.271,0.634-0.285c0.246-0.018,0.221-0.115,0.396-0.115c0.181,0,0.331-0.123,0.331-0.123l0.141-0.062
	c0,0,0.295-0.266,0.724-0.373c0.428-0.109,1.012-0.221,1.803,0.088c0.791,0.307,1.726,0.703,2.196,1.197
	c0.476,0.498,0.641,0.668,0.927,1.461c0.285,0.797,0.428,1.236,0.681,1.719c0.251,0.48,0.616,1.043,0.714,1.658
	c0.098,0.619,0.133,0.977,0.363,1.67c0.23,0.691,0.21,0.879,0.275,1.178c0.065,0.293,0.24,0.537,0.318,0.768
	c0.075,0.236,0.22,0.711,0.272,1.023c0.056,0.32,0.155,0.758,0.101,1.057c-0.056,0.295-0.195,0.678-0.306,0.979
	c-0.11,0.293-0.165,0.539-0.165,0.682c0,0.139,0.275,0.375,0.626,0.514c0.351,0.148,0.977,0.518,1.217,0.551
	c0.243,0.031,0.311-0.133,1.012-0.012c0.706,0.121,1.508,0.168,1.934,0.598c0.431,0.426,0.881,1.133,1.072,1.836
	c0.184,0.699,0.295,0.832,0.359,1.285c0.066,0.447,0.012,3.176,0.02,4.195c0.014,1.025,0.137,4.914,0.156,6.105
	c0.023,1.186-0.121,3.668-0.164,4.625c-0.043,0.955-0.473,3.391-0.627,3.871c-0.155,0.484-1.017,3.746-1.237,4.301
	c-0.218,0.543-0.749,1.793-0.749,1.793s0.221,0.809,0.349,1.723c0.13,0.914,0.311,1.541,0.476,2.291s0.11,1.02,0.186,1.391
	c0.07,0.367,0.932,2.527,0.986,3.02c0.055,0.496,1.082,2.957,1.414,3.738c0.326,0.789,1.902,4.18,2.178,4.898
	C68.661,196.23,69.048,196.726,68.937,196.843z"/>
<path fill="#BCBCBC" d="M19.874,131.662c2.632-0.027,4.348,1.238,4.938,3.242c0.069,0.688,0.139,1.371,0.206,2.059
	c0.053,0.807,0.103,1.615,0.155,2.414c-0.139,0.793-0.275,1.582-0.414,2.371c-0.2,0.715-0.683,1.223-0.769,2.008
	c0.993,0.338,1.987,0.684,2.979,1.029c1.766,0.6,4.117,0.58,5.098,1.951c0.912,1.283,1.76,4.152,2.107,5.918
	c0.09,0.738,0.172,1.473,0.26,2.211c0.564,1.695,1.127,3.395,1.693,5.092c0.48,1.885,0.963,3.775,1.443,5.656
	c0.498,1.471,0.975,3.359,1.285,4.893c-0.086,0.732-0.172,1.477-0.254,2.209c0.488,1.277,1.221,2.721,0.305,3.854
	c0.074,1.494,0.92,2.16,1.133,3.555c-0.549,0.754-0.607,2.119-1.133,2.881c0.604,1.215,1.203,2.438,1.803,3.652
	c0.377,0.051,3.18,0.156,3.238,0.207c0.256,1.508,0.514,3.016,0.771,4.523c0.465,2.473,0.928,4.941,1.389,7.406
	c0.086,0.863,0.176,1.719,0.258,2.578c0.154,0.781,0.539,4.785,0.514,4.832c-2.107,0.43-4.217,0.859-6.326,1.293
	c-0.375-0.336-0.756-0.656-1.133-0.984c-1.299-0.82-2.602-1.645-3.908-2.469c-0.57-0.672-0.164-2.207-0.77-2.828
	c-0.309,0.105-0.621,0.207-0.924,0.305c-0.328,0.711-0.27,1.668-0.518,2.523c-0.27,0.926-0.83,1.746-1.338,2.469
	c-0.805,0.961-1.613,1.922-2.42,2.883c-0.498,0.379-0.992,0.754-1.488,1.125c-0.061,0.105-0.525,2.539-0.569,2.734
	c-0.02,0-0.036,0-0.053,0c-0.084,0.664,0.571,1.488,0.776,2.004c0.184,0.484,0.715,3.66,0.615,4.219
	c-0.201,1.141-1.533,2.484-3.035,1.75c-1.122-0.551-2.11-2.625-2.362-4.016c-0.3-1.598,0.43-3.234-0.569-4.164
	c-0.017,0-0.033,0-0.053,0c0,0.035,0,0.066,0,0.105c-0.6,1.531,0.313,3.75,0.464,5.246c0.149,1.449-0.855,1.945-0.619,3.238
	c0.249,1.328,1.163,1.984,0.413,3.449c0.486,0.266,0.131,0.531,0.364,1.078c0.436,1.047,1.782,1.703,1.487,3.395
	c-3.287,1.613-5.782,0.484-7.612-1.648c0.028-0.793,0.309-1.531,0.101-2.258c-0.672-0.246-0.494-1.844-0.664-2.578
	c-0.658-2.773-0.452-6.012-0.927-9.098c-0.242-2.352-0.48-4.703-0.725-7.055c0.053-1.648,0.105-3.293,0.158-4.934
	c-0.22-1.184-1.011-2.328-1.288-3.656c0-3.324,0-6.648,0-9.977c-0.003-1.402-0.402-2.461-0.614-3.707
	c-0.069-1.352-0.139-2.711-0.205-4.064c-0.108-0.672-0.322-1.289-0.108-1.795c-1.404-1.965-0.485-5.412-0.716-7.717
	c-0.083-0.812,0.181-2.188-0.361-2.521c-0.25,1.916-0.785,4.115-1.543,5.709c-0.395,0.672-0.789,1.336-1.186,2.004
	c-0.316,0.771,0.458,2.17-0.05,3.035c-0.209,0.102-0.414,0.207-0.614,0.307c-0.222,0.494,1.88,5.551,0.978,6.535
	c-0.395-0.168-0.658-0.344-0.928-0.199c-0.033,0.133-0.069,0.266-0.105,0.406c0.206,0.172,0.411,0.344,0.619,0.516
	c-0.017,0.09-0.033,0.172-0.05,0.254c-2.448,0.59-3.304-1.238-3.809-3.34c-0.217-0.902,0.441-1.68,0.308-2.422
	c-0.1-0.561-0.732-2.555-0.669-2.672c0.108-0.271,0.278-0.244,0.461-0.41c-0.056-3.455-0.741-7.334-0.149-10.807
	c0.244-1.449,0.619-2.797,0.924-4.113c0.12-0.855,0.236-1.717,0.361-2.572c0.425-1.182,0.855-2.369,1.282-3.551
	c0.714-2.592,0.364-5.295,1.755-7.1c0.441-0.576,1.28-0.824,1.901-1.234c1.389-1.098,2.776-2.191,4.165-3.293
	c0.443-0.328,1.493-0.473,1.749-0.98c0.511-0.977,0.241-2.949-0.051-3.906c-0.735-0.242-1.821-1.188-1.54-2.367
	c0.071-0.309,0.369-0.5,0.463-0.715c0-0.551,0-1.102,0-1.65c0.02-1.24,0.414-2.209,0.975-2.932
	C17.9,132.154,18.68,132.13,19.874,131.662z M31.292,163.091c-0.26,0.922,0.512,4.715,0.723,5.766
	c0.436,2.164,0.621,4.074,0.979,6.223c0.156,0.973,0.035,1.961-0.102,2.676c-0.086,0.449,0.303,0.668,0.361,0.977
	c-0.072,0.273-0.143,0.551-0.209,0.824c0.152,0.598,0.311,1.203,0.463,1.799c0.346,1.254,0.441,3.973,1.184,4.734
	c0.67-0.133,1.336-0.277,2.008-0.414c0.072-0.875,0.688-2.406,0.305-3.082c-0.018,0-0.033,0-0.051,0
	c-0.254,0.117-0.514,0.238-0.771,0.359c-0.088-0.051-0.172-0.105-0.256-0.156c-0.004-0.914,0.51-1.904,0.256-2.881
	c-0.154-0.311-0.305-0.617-0.463-0.926c-0.166-0.789,0.285-1.938-0.051-2.211c-1.469-0.738-0.596-1.971-1.082-3.449
	c-0.236-0.721-0.895-1.287-1.18-2.059c-0.244-1.25-0.48-2.5-0.723-3.754c-0.447-1.25-1.074-2.787-1.232-4.426
	C31.397,163.091,31.345,163.091,31.292,163.091z M37.675,180.228c-0.053,0.238-0.104,0.48-0.158,0.715
	c0.039,0.016,0.072,0.031,0.105,0.055c0.068-0.203,0.137-0.414,0.209-0.621C37.774,180.326,37.726,180.275,37.675,180.228z
	 M37.366,182.902c-0.154,0.906-0.312,1.812-0.463,2.723c0.016,0,0.033,0,0.049,0c0.207-0.051,0.414-0.102,0.619-0.152
	c0.066-0.844,0.137-1.68,0.203-2.52C37.638,182.937,37.499,182.921,37.366,182.902z M38.085,182.953
	c-0.049,0.051-0.105,0.102-0.154,0.156c-0.051,0.754-0.1,1.504-0.156,2.258c0.5-0.105,0.996-0.203,1.494-0.305
	c-0.344-0.703-0.686-1.41-1.029-2.109C38.188,182.953,38.138,182.953,38.085,182.953z M38.497,183.003
	c0.307,0.664,0.619,1.336,0.924,2.008c0.072-0.016,0.139-0.031,0.209-0.055c0-0.016,0-0.031,0-0.051
	c-0.328-0.637-0.65-1.27-0.979-1.902C38.603,183.003,38.55,183.003,38.497,183.003z M7.994,183.718
	c-0.178,0.211-0.344,0.418-0.516,0.621c0,0.07,0,0.141,0,0.207c0.38,0.332,0.583,0.688,1.232,0.773c0-0.059,0-0.105,0-0.156
	c-0.134-0.504-0.188-1.043-0.414-1.445C8.197,183.718,8.098,183.718,7.994,183.718z M39.884,185.73
	c0.076,0.227,0.025,0.27,0.26,0.359C40.087,185.863,40.065,185.828,39.884,185.73z M24.296,195.761
	c-0.541,1.246,0.098,3.277-0.205,4.832c-0.256,0.656-0.514,1.305-0.769,1.961c-0.181,0.645-0.281,3.984-0.104,4.367
	c0.292-0.125,0.514-0.254,0.723-0.461c-0.054-0.258-0.108-0.516-0.156-0.77c0.272-0.469,0.547-0.93,0.825-1.395
	c0.516-1.355,1.008-2.625,1.696-3.852c-0.866-0.828-1.108-0.949-1.392-2.422C24.769,197.261,24.877,196.074,24.296,195.761z"/>
<path fill="#FFFFFF" stroke="#000000" stroke-width="0.75" d="M67.503,117.66H63.46c-5.107,0-9.25-4.141-9.25-9.25V69.734
	c0-5.109,4.143-9.248,9.25-9.248h49.602c5.109,0,9.254,4.139,9.254,9.248v38.676c0,5.109-4.145,9.25-9.254,9.25
	c0.002,0-31.021,0-31.021,0l-4.715,15.414L67.503,117.66z"/>
<path fill="#BCBCBC" d="M24.704,55.191c0,0,23.387,0,23.386,0c3.38,0,6.12-2.738,6.12-6.121V28.514c0-3.381-2.74-6.12-6.12-6.12
	H16.175c-3.38,0-6.119,2.739-6.119,6.12V49.07c0,3.383,2.739,6.121,6.119,6.121c-0.001,0,1.444,0,1.444,0l5.951,23.656
	L24.704,55.191z"/>
<path fill="#BCBCBC" d="M40.23,123.042h4.363c3.38,0,6.119-2.738,6.119-6.117V107.5c0-3.379-2.739-6.119-6.119-6.119H29.412
	c-3.381,0-6.12,2.74-6.12,6.119v9.426c0,3.379,2.739,6.117,6.12,6.117h1.469l6.121,7.805L40.23,123.042z"/>
<path fill-rule="evenodd" clip-rule="evenodd" fill="#FFFFFF" stroke="#000000" stroke-width="0.75" d="M86.009,137.376
	c1.852,1.857,1.455,5.734,0.059,7.777c-0.254,0.379-0.744,0.324-1.1,0.611c-0.645,0.521-1.625,2.76-1.287,4.287
	c0.273,1.23,2.541,1.756,3.676,2.207c1.547,0.609,2.57,1.441,3,3.184c0.203,0.811,0.059,2.018-0.061,2.756
	c-0.039,0.877-0.08,1.756-0.121,2.635c-0.369,2.102-1.008,3.975-1.777,5.695c-0.428,0.816-0.857,1.633-1.287,2.449
	c0.184,0.898,0.369,1.799,0.551,2.695c0.193,1.223-0.268,2.496-0.121,3.43c0.172,1.102,0.697,2.258,0.92,3.492
	c0.816,4.58,0.076,10.842-0.613,15.068c-0.213,1.312,0.158,4.582-0.43,5.512c-0.457,0.723-1.953,1.047-3.123,1.039
	c-0.26,0.949-0.033,2.508,0.123,3.309c0.381,1.945,0.877,4.801,0.49,7.105c-0.764,4.543-1.729,8.441-2.449,12.863
	c-0.309,1.879,0.613,2.738,0.916,3.977c0.236,0.953-0.125,1.48-0.121,2.516c-0.682,0.418-2.801,0.562-3.244-0.246
	c-0.186-0.336,0.023-0.523-0.246-0.738c-0.387-0.164-0.777-0.324-1.164-0.488c0,0-3.789,0.707-4.898,0.613
	c-0.547-0.941,0.416-1.684,0.668-2.328c0.062-0.449,0.125-0.898,0.188-1.348c0.781-1.449,2.617-2.848,1.898-5.633
	c-0.322-1.254-1.061-2.332-1.531-3.434c-1.27-2.977-2.566-5.922-3.551-9.125c-0.574-1.863-0.682-3.957-1.045-6.125
	c-0.018-0.855-0.041-1.715-0.057-2.57c-0.285-0.473-0.572-0.941-0.859-1.41c-0.043-0.773-0.082-1.551-0.123-2.328
	c-0.713-3.945-0.096-8.516-0.062-12.492c-1.16-0.203-1.92,0.465-2.877,0.547c-0.043-0.016-0.082-0.035-0.123-0.059
	c-0.539-2.213,0.389-4.822,0.736-6.615c0.266-1.75,0.531-3.51,0.797-5.266c0.305-0.367,0.609-0.738,0.916-1.102
	c0.145-0.49,0.287-0.98,0.432-1.473c-0.006-0.002-1.982,0.5-2.941,0.184c-2.111-3.359,1.072-10.379,2.021-13.289
	c0.508-1.559,0.814-3.348,2.084-4.102c2.354-1.406,5.959-0.016,7.898-2.023c0.254-1.562-0.742-2.391-0.98-3.797
	c-0.258-1.52,0.123-2.957,0.367-4.041c0.023-0.633,0.043-1.268,0.064-1.9c0.641-2.084,2.699-3.043,5.084-3.246
	C84.052,136.677,85.12,136.482,86.009,137.376z M76.517,198.992c-0.084,0.773-0.164,1.551-0.244,2.328
	c-0.158,0.516-0.746,1.004-0.613,1.715c0.303,1.613,1.283,3.129,1.65,4.898c0.383,1.828,0.027,3.965,0.371,5.941
	c0.285,1.664,0.791,3.059,1.406,4.352c0.389,0.809,0.559,1.312,1.285,1.773c-0.242-3.227-0.492-6.449-0.73-9.68
	c0.02-1.406,0.037-2.816,0.059-4.23c-0.324-1.258-0.652-2.523-0.979-3.789c0.061-1.371,0.123-2.738,0.182-4.109
	C78.108,198.46,77.31,198.726,76.517,198.992z"/>
</svg>
