<?xml version="1.0" encoding="utf-8"?>
<!-- Generator: Adobe Illustrator 14.0.0, SVG Export Plug-In . SVG Version: 6.00 Build 43363)  -->
<!DOCTYPE svg PUBLIC "-//W3C//DTD SVG 1.1//EN" "http://www.w3.org/Graphics/SVG/1.1/DTD/svg11.dtd">
<svg version="1.1" id="Layer_1" xmlns="http://www.w3.org/2000/svg" xmlns:xlink="http://www.w3.org/1999/xlink" x="0px" y="0px"
	 width="288px" height="144px" viewBox="0 0 288 144" enable-background="new 0 0 288 144" xml:space="preserve">
<g>
	<g>
		<path fill="#AAD5C4" d="M21.779,5.237c-1.974,27.292-2.012,54.666-3,82c-0.073,2.021,3.851,1.451,3.914-0.295
			c0.989-27.334,1.027-54.708,3-82C25.839,2.935,21.906,3.488,21.779,5.237L21.779,5.237z"/>
	</g>
</g>
<g>
	<g>
		<path fill="#AAD5C4" d="M22.494,54.247c4.639-0.876,9.363-1.124,14.002-2.002c0.758-0.144,1.989-0.46,2.178-1.375
			c0.179-0.864-1.128-1.046-1.698-0.938c-4.639,0.878-9.362,1.125-14.002,2.002c-0.758,0.143-1.989,0.46-2.178,1.375
			C20.617,54.172,21.924,54.354,22.494,54.247L22.494,54.247z"/>
	</g>
</g>
<g>
	<g>
		<path fill="#AAD5C4" d="M39.817,7.378c-3.099,25.472-3.353,52.433,3.988,77.229c0.337,1.142,4.19,0.069,3.863-1.035
			c-7.295-24.646-7.092-51.458-4.012-76.771C43.813,5.51,39.952,6.266,39.817,7.378L39.817,7.378z"/>
	</g>
</g>
<g>
	<g>
		<path fill="#AAD5C4" d="M46.138,65.798c4.982,1.091,10.581,0.276,15.141-1.98c4.979-2.464,4.413-6.278,0.284-9.364
			c-0.747-0.558-3.249,0.298-3.726,0.999c-4.777,7.016-4.753,16.997,5.3,18.346c0.872,0.117,4.123-1.292,3.196-1.416
			c-9.688-1.3-9.123-11.154-4.696-17.654c-1.242,0.333-2.484,0.666-3.726,0.999c2.319,1.733,4.799,4.395,2.147,6.997
			c-2.584,2.536-7.468,2.372-10.723,1.659C48.478,64.194,45.16,65.583,46.138,65.798L46.138,65.798z"/>
	</g>
</g>
<g>
	<g>
		<path fill="#AAD5C4" d="M75.815,31.371c-1.958,16.309-2.084,32.803-5,48.998c-0.23,1.279,3.634,0.594,3.843-0.562
			c2.916-16.195,3.042-32.689,5-48.998C79.817,29.477,75.952,30.232,75.815,31.371L75.815,31.371z"/>
	</g>
</g>
<g>
	<g>
		<path fill="#AAD5C4" d="M87.782,33.245c-0.001,17.713-0.024,35.486-3,53c-0.323,1.903,3.622,1.375,3.909-0.314
			c2.976-17.515,2.999-35.287,3-53C91.691,30.94,87.782,31.559,87.782,33.245L87.782,33.245z"/>
	</g>
</g>
<g>
	<g>
		<path fill="#AAD5C4" d="M110.9,55.644c-4.916,0.111-9.977,2.221-13.389,5.77c-3.131,3.256-3.029,9.167,0.942,11.77
			c3.531,2.314,7.625-1.037,9.62-3.785c2.255-3.106,4.28-8.049,2.595-11.826c-0.777-1.743-4.607-0.632-3.863,1.035
			c1.131,2.536,0.215,5.396-0.911,7.769c-0.578,1.216-2.726,5.161-4.531,4.51c-1.181-0.425-1.785-2.433-2.079-3.463
			c-0.513-1.797,0.331-3.495,1.473-4.825c2.286-2.664,6.412-3.989,9.816-4.066C112.795,58.482,113.526,55.584,110.9,55.644
			L110.9,55.644z"/>
	</g>
</g>
<g>
	<g>
		<path fill="#AAD5C4" d="M120.805,72.605c0.878,2.836,0.979,5.706,0.98,8.653c0.001,1.944,3.903,1.29,3.902-0.338
			c-0.001-3.168-0.074-6.301-1.02-9.351C124.146,69.885,120.291,70.946,120.805,72.605L120.805,72.605z"/>
	</g>
</g>
<g>
	<g>
		<path fill="#AAD5C4" d="M140.779,60.243c-0.051,8.296-0.789,17.1,5.185,23.689c0.932,1.027,3.017,0.554,3.614-0.637
			c2.201-4.395,4.349-8.854,7.002-12.999c-1.259,0.104-2.518,0.208-3.775,0.311c1.201,6.087,4.054,11.09,9.811,13.763
			c0.969,0.449,2.49-0.16,2.965-1.075c4.059-7.836,3.177-16.843,4.111-25.36c0.215-1.957-3.723-1.401-3.91,0.31
			c-0.903,8.229,0.033,17.067-3.889,24.636c0.988-0.358,1.977-0.717,2.965-1.075c-5.017-2.328-7.17-7.066-8.189-12.233
			c-0.349-1.768-3.188-0.608-3.775,0.311c-2.652,4.145-4.8,8.604-7.002,12.998c1.205-0.212,2.41-0.424,3.614-0.637
			c-5.646-6.227-4.864-14.476-4.815-22.311C144.702,57.934,140.79,58.542,140.779,60.243L140.779,60.243z"/>
	</g>
</g>
<g>
	<g>
		<path fill="#AAD5C4" d="M180.173,63.721c-2.07,1.968-4.131,4.239-5.068,6.992c-0.542,1.594-0.431,3.326,0.589,4.7
			c0.938,1.265,2.545,1.976,4.038,2.318c1.845,0.423,3.817,0.361,5.646-0.114c1.672-0.435,3.54-1.337,4.426-2.902
			c0.875-1.548,0.414-3.191-0.442-4.627c-0.705-1.181-1.699-2.183-2.722-3.088c-1.655-1.465-3.5-2.723-5.379-3.881
			c-0.771-0.476-2.05-0.107-2.743,0.335c-0.598,0.381-1.088,1.13-0.312,1.608c0.858,0.53,1.703,1.08,2.528,1.661
			c0.179,0.125,0.355,0.253,0.532,0.382c0.085,0.062,0.17,0.125,0.255,0.188c-0.242-0.18,0.033,0.026,0.069,0.053
			c0.335,0.256,0.665,0.521,0.989,0.791c0.989,0.825,1.93,1.728,2.704,2.761c0.145,0.193,0.281,0.392,0.41,0.596
			c0.061,0.095,0.117,0.191,0.173,0.288c0.107,0.187-0.14-0.256-0.039-0.069c0.033,0.061,0.064,0.123,0.095,0.185
			c0.173,0.348,0.31,0.713,0.398,1.091c0.037,0.159,0.062,0.32,0.079,0.482c0.008,0.077,0.012,0.154,0.014,0.231
			c-0.014-0.458-0.005-0.11-0.013,0.002c-0.019,0.292-0.088,0.579-0.196,0.85c0.202-0.507,0.009-0.038-0.07,0.095
			c-0.076,0.127-0.164,0.247-0.258,0.361c0.412-0.504,0.062-0.082-0.066,0.037c-0.052,0.049-0.105,0.096-0.16,0.141
			c-0.278,0.232,0.413-0.304,0.117-0.091c-0.12,0.087-0.246,0.166-0.375,0.24c-0.358,0.209,0.345-0.176,0.199-0.101
			c-0.081,0.041-0.163,0.079-0.245,0.117c-0.145,0.065-0.293,0.124-0.442,0.178c0.686-0.248,0.28-0.092-0.043-0.004
			c-0.162,0.045-0.326,0.082-0.49,0.115c-0.169,0.034,0.682-0.122,0.229-0.047c-0.1,0.017-0.199,0.03-0.299,0.043
			c-0.173,0.022-0.347,0.038-0.521,0.051c-0.181,0.013-0.6,0.025,0.183-0.003c-0.104,0.004-0.206,0.005-0.31,0.005
			c-0.369,0.002-0.739-0.021-1.106-0.063c-0.324-0.038,0.522,0.075,0.128,0.016c-0.088-0.013-0.175-0.028-0.262-0.044
			c-0.187-0.033-0.372-0.075-0.557-0.121c-0.168-0.043-0.335-0.092-0.5-0.145c-0.132-0.043-0.484-0.175,0.075,0.031
			c-0.093-0.034-0.185-0.071-0.276-0.109c-0.319-0.133-0.627-0.293-0.92-0.478c-0.068-0.043-0.136-0.089-0.202-0.135
			c-0.271-0.188,0.244,0.191,0.036,0.028c-0.136-0.105-0.264-0.22-0.387-0.34c-0.233-0.227-0.437-0.483-0.609-0.759
			c-0.164-0.263,0.124,0.238,0.008,0.021c-0.036-0.07-0.069-0.142-0.102-0.213c-0.071-0.158-0.128-0.322-0.177-0.489
			c-0.046-0.159-0.079-0.322-0.104-0.485c-0.013-0.084-0.021-0.17-0.029-0.255c-0.01-0.107-0.015-0.503-0.011-0.058
			c-0.004-0.403,0.053-0.806,0.142-1.198c0.049-0.212,0.11-0.421,0.179-0.627c0.037-0.11,0.077-0.218,0.118-0.326
			c0.021-0.056,0.044-0.111,0.066-0.166c0.081-0.199-0.141,0.319-0.007,0.019c0.406-0.907,0.959-1.745,1.559-2.534
			c0.175-0.23,0.357-0.456,0.543-0.679c-0.303,0.365,0.045-0.05,0.112-0.127c0.126-0.145,0.254-0.287,0.383-0.428
			c0.495-0.542,1.015-1.061,1.547-1.566c0.602-0.572,0.418-1.278-0.395-1.471C182.002,62.775,180.848,63.08,180.173,63.721
			L180.173,63.721z"/>
	</g>
</g>
<g>
	<g>
		<path fill="#AAD5C4" d="M193.778,62.24c0.07,5.951,0.902,11.784,3.024,17.367c0.649,1.709,4.27,0.779,3.863-1.035
			c-1.475-6.589,0.199-14.089,7.42-16.17c2.364-0.681,1.675-3.31-0.703-2.624c-9.038,2.604-12.551,11.027-10.58,19.83
			c1.288-0.345,2.575-0.69,3.863-1.035c-2.033-5.351-2.907-10.919-2.976-16.633C197.667,59.919,193.758,60.522,193.778,62.24
			L193.778,62.24z"/>
	</g>
</g>
<g>
	<g>
		<path fill="#AAD5C4" d="M213.363,15.125c0,23.759,0,47.518,0,71.277c0,1.781,3.883,1.023,3.883-0.414c0-23.759,0-47.518,0-71.277
			C217.246,12.93,213.363,13.688,213.363,15.125L213.363,15.125z"/>
	</g>
</g>
<g>
	<g>
		<path fill="#AAD5C4" d="M238.887,61.841c-5.216-0.955-13.564-0.288-14.777,6.239c-0.82,4.417,1.296,11.956,6.636,12.525
			c7.945,0.848,10.296-8.845,11.188-14.754c2.346-15.533-1.95-31.684-3.38-47.119c-0.057-0.612-3.862,0.089-3.863,1.035
			c-0.016,10.668-0.218,21.327,0.584,31.976c0.769,10.22,2.373,21.225,8.076,29.976c0.579,0.889,4.104-0.666,3.863-1.035
			c-5.734-8.8-7.21-19.723-8.076-29.976c-0.898-10.631-0.6-21.319-0.584-31.975c-1.288,0.345-2.575,0.69-3.863,1.035
			c0.913,9.858,2.607,19.624,3.457,29.49c0.776,9.021,1.354,19.627-3.227,27.805c-1.398,2.496-1.457,2.592-3.471,0.992
			c-1.633-1.297-2.565-3.443-3.168-5.378c-0.6-1.927-0.701-4.044-0.207-6.001c0.955-3.778,4.224-4.037,7.617-3.416
			C236.558,63.419,239.85,62.018,238.887,61.841L238.887,61.841z"/>
	</g>
</g>
<g>
	<g>
		<path fill="#AAD5C4" d="M260.67,12.439c-0.054,21.332-1.986,43.177,4.002,63.953c0.303,1.052,4.158-0.012,3.863-1.035
			c-5.988-20.776-4.055-42.621-4.002-63.953C264.535,10.571,260.673,11.188,260.67,12.439L260.67,12.439z"/>
	</g>
</g>
<g>
	<g>
		<path fill="#AAD5C4" d="M264.746,85.605c-0.348,0.94-1.039,1.68-1.41,2.605c-0.555,1.385,0.027,2.717,0.837,3.857
			c0.435,0.612,1.467,0.776,2.138,0.528c1.081-0.399,2.014-0.824,2.588-1.876c0.391-0.715-0.051-1.285,0.225-1.93
			c0.895-2.097-3.002-2.19-3.715-0.52c-0.191,0.449-0.316,0.915-0.308,1.405c0.001,0.074,0.059,0.817,0.037,0.488
			c0.023,0.348,0.627-0.443,0.423-0.367c0.713,0.176,1.426,0.352,2.138,0.528c-0.46-0.649-0.847-1.215-0.481-1.972
			c0.373-0.772,0.941-1.413,1.244-2.229C269.257,83.977,265.379,83.898,264.746,85.605L264.746,85.605z"/>
	</g>
</g>
<g>
	<g>
		<path d="M72.266,102.243c-0.18,7.014-2.576,13.704-3.332,20.652c-0.114,1.05,1.862,0.821,1.965-0.119
			c0.756-6.948,3.152-13.639,3.332-20.652C74.258,101.058,72.29,101.301,72.266,102.243L72.266,102.243z"/>
	</g>
</g>
<g>
	<g>
		<path d="M70.282,103.106c0.222,4.642,1.918,8.326,5.384,11.393c0.324,0.286,1.358-0.119,1.647-0.312
			c4.695-3.138,6.078-8.263,6.893-13.595c-0.644,0.173-1.288,0.345-1.932,0.518c1.156,8.013,0.321,16.143,2.664,23.98
			c0.123,0.412,2.047-0.132,1.932-0.518c-2.343-7.838-1.508-15.968-2.664-23.98c-0.055-0.384-1.864,0.076-1.932,0.518
			c-0.762,4.986-1.971,10.073-6.432,13.054c0.549-0.104,1.098-0.207,1.647-0.312c-3.485-3.083-5.057-6.68-5.276-11.264
			C72.199,102.285,70.258,102.597,70.282,103.106L70.282,103.106z"/>
	</g>
</g>
<g>
	<g>
		<path d="M87.603,114.435c1.834,3.61,4.045,6.744,7.535,8.906c0.612,0.38,2.369-0.482,1.518-1.01
			c-3.29-2.039-5.393-5.012-7.121-8.414C89.161,113.181,87.271,113.782,87.603,114.435L87.603,114.435z"/>
	</g>
</g>
<g>
	<g>
		<path d="M98.263,112.435c-0.829,9.199-3.736,17.854-6.65,26.56c-0.122,0.362,1.741,0.144,1.904-0.344
			c2.933-8.757,5.844-17.485,6.678-26.733C100.217,111.664,98.314,111.86,98.263,112.435L98.263,112.435z"/>
	</g>
</g>
<g>
	<g>
		<path d="M109.917,113.769c0.62,2.434,1.275,4.799,1.332,7.326c0.644-0.173,1.288-0.345,1.932-0.518
			c-1.001-3.788-0.402-7.945,3.819-9.284c-0.362-0.063-0.725-0.127-1.086-0.19c1.771,3.091,2.617,6.309,2,9.863
			c-0.122,0.702,1.819,0.36,1.927-0.26c0.628-3.623-0.179-6.951-1.996-10.121c-0.2-0.35-0.755-0.296-1.086-0.19
			c-5.026,1.595-6.831,5.7-5.509,10.7c0.173,0.654,1.946,0.127,1.932-0.518c-0.057-2.527-0.711-4.893-1.332-7.326
			C111.688,112.619,109.754,113.129,109.917,113.769L109.917,113.769z"/>
	</g>
</g>
<g>
	<g>
		<path d="M127.904,111.595c-2.524-0.199-5.089,0.491-6.463,2.767c-1.455,2.408-0.385,5.505,1.204,7.528
			c0.352,0.448,1.36,0.127,1.676-0.202c2.805-2.915,4.088-6.401,3.516-10.438c-0.644,0.173-1.288,0.345-1.932,0.518
			c1.267,3.28,2.062,6.714,3.33,9.994c0.278,0.721,2.19,0.152,1.932-0.518c-1.267-3.28-2.063-6.714-3.33-9.994
			c-0.273-0.708-2.038-0.23-1.932,0.518c0.52,3.67-0.586,6.888-3.148,9.55c0.559-0.067,1.117-0.135,1.676-0.202
			c-2.443-3.112-2.491-8.771,2.737-8.357C127.952,112.818,129.212,111.698,127.904,111.595L127.904,111.595z"/>
	</g>
</g>
<g>
	<g>
		<path d="M130.569,111.103c0.643,3.528,0.685,7.13,1.33,10.658c0.073,0.402,1.998-0.03,1.932-0.518
			c-0.52-3.822,0.384-8.103,3.772-10.371c-0.569,0.077-1.137,0.153-1.706,0.23c0.78,2.895,1.804,5.515,1.345,8.571
			c0.64-0.143,1.279-0.286,1.918-0.429c-0.519-3.494-0.042-6.345,3.104-8.373c-0.569,0.077-1.137,0.153-1.706,0.23
			c0.716,3.377,1.802,6.652,2.664,9.992c0.111,0.433,2.045-0.077,1.932-0.518c-0.862-3.34-1.948-6.615-2.664-9.992
			c-0.096-0.452-1.511,0.105-1.706,0.23c-3.358,2.165-4.127,5.103-3.556,8.947c0.059,0.396,1.859-0.035,1.918-0.429
			c0.468-3.117-0.519-5.782-1.319-8.749c-0.121-0.45-1.499,0.092-1.706,0.23c-3.632,2.432-4.792,6.768-4.224,10.945
			c0.644-0.173,1.288-0.345,1.932-0.518c-0.645-3.528-0.688-7.13-1.33-10.658C132.427,110.18,130.482,110.624,130.569,111.103
			L130.569,111.103z"/>
	</g>
</g>
<g>
	<g>
		<path d="M145.635,116.582c3.022-0.686,5.444-0.698,6.846-3.881c0.026-0.085,0.007-0.157-0.059-0.218
			c-1.564-1.233-3.54-1.812-5.323-0.626c-1.458,0.971-1.769,2.87-1.661,4.496c0.127,1.907,1.091,3.751,2.824,4.631
			c2.272,1.154,5.198-0.064,7.17-1.257c1.113-0.673-0.614-0.779-1.164-0.447c-1.763,1.065-3.69,1.738-5.367,0.188
			c-1.146-1.061-1.547-2.78-1.554-4.284c-0.003-0.633,0.386-3.074,1.191-3.028c0.368,0.021,0.711,0.182,1.037,0.337
			c0.939,0.449,0.929,0.81,0.333,1.723c-0.896,1.371-3.052,1.221-4.492,1.547C144.252,116.025,144.488,116.842,145.635,116.582
			L145.635,116.582z"/>
	</g>
</g>
<g>
	<g>
		<path d="M163.878,112.771c0,2.887,0,5.773,0,8.66c0,0.298,1.932,0.024,1.932-0.518c0-2.887,0-5.773,0-8.66
			C165.81,111.955,163.878,112.229,163.878,112.771L163.878,112.771z"/>
	</g>
</g>
<g>
	<g>
		<path fill="#231F20" d="M164.75,108.185c1.081,0,1.501-1.354,0.188-1.354C163.856,106.831,163.437,108.185,164.75,108.185
			L164.75,108.185z"/>
	</g>
</g>
<g>
	<g>
		<path d="M174.298,113.472c-1.222-0.142-1.36-1.438-2.797-1.044c-1.502,0.412-2.276,1.459-2.297,3.007
			c0.019,0.023,0.037,0.046,0.056,0.069c1.887,0.723,4.025,1.906,4.546,4.025c0.162,0.662-0.014,1.446-0.599,1.844
			c-0.704,0.478-2.872-0.858-3.457-1.195c-0.481-0.277-2.063,0.516-1.82,0.656c1.584,0.914,3.225,1.504,5.065,1.21
			c1.203-0.193,2.533-0.849,2.765-2.149c0.275-1.55-1.056-2.92-2.177-3.762c-1.172-0.881-3.387-1.176-1.871-3.027
			c-0.706-0.111-0.882-0.058-0.529,0.16c0.176,0.137,0.325,0.336,0.48,0.494c0.289,0.292,0.649,0.41,1.047,0.456
			c0.458,0.054,0.934-0.053,1.35-0.248C174.178,113.912,174.754,113.524,174.298,113.472L174.298,113.472z"/>
	</g>
</g>
<g>
	<g>
		<path d="M186.185,104.11c0.13,6.942,1.856,13.714,1.998,20.65c0.006,0.286,1.942,0.001,1.932-0.518
			c-0.142-6.937-1.868-13.708-1.998-20.65C188.111,103.308,186.175,103.592,186.185,104.11L186.185,104.11z"/>
	</g>
</g>
<g>
	<g>
		<path d="M185.04,105.128c5.972-0.594,12.351-2.313,14.469,4.979c2.158,7.432-7.477,12.562-13.173,13.836
			c-1.193,0.267-0.876,1.383,0.301,1.119c6.954-1.554,15.017-6.266,14.928-14.287c-0.104-9.3-10.263-7.465-16.3-6.863
			C184.261,104.011,183.71,105.261,185.04,105.128L185.04,105.128z"/>
	</g>
</g>
<g>
	<g>
		<path d="M205.417,112.754c-1.304,0.656-2.619,1.392-3.669,2.423c-0.583,0.573-1.158,1.326-1.223,2.173
			c-0.114,1.483,1.284,2.454,2.506,2.945c1.536,0.618,3.321,0.856,4.941,0.448c0.716-0.18,1.521-0.552,1.913-1.212
			c0.341-0.572,0.229-1.238-0.059-1.806c-0.946-1.865-2.931-3.205-4.592-4.364c-0.545-0.38-2.323,0.41-1.529,0.965
			c1.237,0.863,2.464,1.795,3.469,2.929c0.159,0.181,0.31,0.369,0.451,0.564c0.146,0.203,0.23,0.346,0.29,0.464
			c0.073,0.144,0.133,0.294,0.179,0.449c0.02,0.067,0.035,0.136,0.047,0.205c0.01,0.052,0.021,0.303,0.021,0.109
			c0.001,0.115-0.018,0.229-0.05,0.34c-0.054,0.182,0.058-0.103-0.007,0.027c-0.028,0.057-0.063,0.109-0.101,0.16
			c-0.096,0.13,0.144-0.147-0.005-0.001c-0.057,0.057-0.243,0.192,0.021-0.004c-0.048,0.035-0.099,0.066-0.149,0.097
			c-0.152,0.09,0.256-0.117-0.008-0.001c-0.089,0.039-0.352,0.124,0.034-0.005c-0.065,0.022-0.133,0.041-0.2,0.059
			c-0.092,0.023-0.383,0.079,0.013,0.004c-0.088,0.017-0.176,0.029-0.264,0.041c-0.079,0.01-0.157,0.017-0.236,0.023
			c-0.04,0.003-0.08,0.005-0.121,0.008c-0.168,0.01,0.25-0.009,0.08-0.004c-0.184,0.006-0.368,0.001-0.553-0.01
			c-0.087-0.004-0.175-0.012-0.262-0.02c-0.068-0.006-0.388-0.046-0.093-0.007c-0.194-0.025-0.388-0.06-0.58-0.1
			c-0.179-0.036-0.355-0.08-0.531-0.129c-0.088-0.024-0.175-0.051-0.262-0.077c-0.043-0.014-0.086-0.028-0.129-0.043
			c-0.196-0.064,0.089,0.033-0.033-0.011c-0.341-0.125-0.672-0.278-0.985-0.461c-0.072-0.041-0.143-0.086-0.212-0.131
			c-0.04-0.025-0.26-0.184-0.102-0.065c-0.135-0.101-0.262-0.211-0.381-0.329c-0.104-0.103-0.198-0.214-0.284-0.332
			c-0.042-0.057-0.08-0.116-0.116-0.177c0.092,0.152-0.032-0.072-0.053-0.119c-0.054-0.124-0.09-0.256-0.114-0.39
			c-0.013-0.067-0.019-0.136-0.023-0.204c-0.008-0.125-0.002,0.132,0,0.006c0.001-0.048,0.005-0.095,0.01-0.143
			c0.015-0.15,0.052-0.298,0.1-0.441c0.013-0.038,0.027-0.076,0.042-0.114c0.054-0.136-0.06,0.13,0.003-0.005
			c0.045-0.095,0.097-0.186,0.15-0.275c0.051-0.083,0.106-0.163,0.163-0.241c0.031-0.043,0.235-0.293,0.107-0.144
			c0.169-0.197,0.357-0.379,0.551-0.553c0.655-0.585,1.762-1.245,2.613-1.672c0.239-0.121,0.817-0.47,0.505-0.812
			C206.414,112.479,205.748,112.588,205.417,112.754L205.417,112.754z"/>
	</g>
</g>
<g>
	<g>
		<path d="M212.824,113.27c0.043,2.586,0.711,5.004,1.339,7.495c0.644-0.173,1.288-0.345,1.932-0.518
			c-0.509-1.426-1.136-3.253,0.239-4.376c1.007-0.822,2.102-1.412,2.926-2.449c0.75-0.944-1.097-1.109-1.594-0.484
			c-0.948,1.194-2.386,1.766-3.38,2.899c-1.228,1.399-0.68,3.367-0.123,4.928c0.285,0.801,2.141,0.311,1.932-0.518
			c-0.598-2.369-1.281-4.695-1.321-7.157C214.757,112.139,212.812,112.486,212.824,113.27L212.824,113.27z"/>
	</g>
</g>
<g>
	<g>
		<path d="M224.916,112.786c-1.808,0.754-3.984,1.91-4.677,3.894c-0.431,1.234-0.095,2.5,0.986,3.256
			c1.04,0.729,2.626,0.381,3.528-0.396c1.631-1.404,1.615-3.939,1.524-5.896c-0.644,0.173-1.288,0.345-1.932,0.518
			c1.2,2.397,2.449,4.794,3.334,7.33c0.26,0.746,2.18,0.194,1.932-0.518c-0.885-2.536-2.134-4.934-3.334-7.33
			c-0.357-0.713-1.969-0.271-1.932,0.518c0.071,1.525,0.062,3.271-0.798,4.601c-0.354,0.546-0.627,0.416-1.096-0.087
			c-1.964-2.114,1.749-4.355,3.256-4.984C226.947,113.174,225.826,112.406,224.916,112.786L224.916,112.786z"/>
	</g>
</g>
<g>
	<g>
		<path d="M233.53,119.001c-0.079,0.211-0.158,0.421-0.238,0.632c0.644-0.13,1.287-0.259,1.93-0.389
			c0.079-0.168,0.157-0.335,0.236-0.503C235.7,118.179,233.791,118.397,233.53,119.001c-0.192,0.447-0.24,0.424-0.24,0.761
			c0,0.646,1.764,0.052,1.93-0.389c0.079-0.211,0.158-0.421,0.238-0.632C235.682,118.146,233.762,118.389,233.53,119.001
			L233.53,119.001z"/>
	</g>
</g>
</svg>
