<?xml version="1.0" encoding="utf-8"?>
<!-- Generator: Adobe Illustrator 14.0.0, SVG Export Plug-In . SVG Version: 6.00 Build 43363)  -->
<!DOCTYPE svg PUBLIC "-//W3C//DTD SVG 1.1//EN" "http://www.w3.org/Graphics/SVG/1.1/DTD/svg11.dtd">
<svg version="1.1" id="Layer_4" xmlns="http://www.w3.org/2000/svg" xmlns:xlink="http://www.w3.org/1999/xlink" x="0px" y="0px"
	 width="1000px" height="470px" viewBox="0 0 1000 470" enable-background="new 0 0 1000 470" xml:space="preserve">
<circle fill="#282828" cx="636.484" cy="243.409" r="8.318"/>
<circle fill="#282828" cx="513.116" cy="209.832" r="8.317"/>
<circle fill="#282828" cx="414.163" cy="202.237" r="8.317"/>
<circle fill="#282828" cx="578.596" cy="209.913" r="8.318"/>
<circle fill="#282828" cx="785.916" cy="366.553" r="8.317"/>
<circle fill="#282828" cx="355.887" cy="168.742" r="8.318"/>
<circle fill="#282828" cx="819.476" cy="308.286" r="8.317"/>
<circle fill="#282828" cx="942.848" cy="341.78" r="8.316"/>
<circle fill="#282828" cx="225.072" cy="168.774" r="8.318"/>
<circle fill="#282828" cx="290.554" cy="168.774" r="8.317"/>
<circle fill="#282828" cx="43.812" cy="36.327" r="8.318"/>
<circle fill="#282828" cx="109.294" cy="36.327" r="8.317"/>
<circle fill="#282828" cx="694.527" cy="276.641" r="8.318"/>
<circle fill="#282828" cx="479.622" cy="267.72" r="8.318"/>
<circle fill="#282828" cx="414.163" cy="267.72" r="8.318"/>
<circle fill="#282828" cx="752.42" cy="308.666" r="8.318"/>
<circle fill="#282828" cx="884.959" cy="308.286" r="8.318"/>
<circle fill="#282828" cx="167.184" cy="135.28" r="8.318"/>
<circle fill="#282828" cx="167.184" cy="69.821" r="8.318"/>
</svg>
