<?xml version="1.0" encoding="utf-8"?>
<!-- Generator: Adobe Illustrator 14.0.0, SVG Export Plug-In . SVG Version: 6.00 Build 43363)  -->
<!DOCTYPE svg PUBLIC "-//W3C//DTD SVG 1.1//EN" "http://www.w3.org/Graphics/SVG/1.1/DTD/svg11.dtd">
<svg version="1.1" id="Layer_1" xmlns="http://www.w3.org/2000/svg" xmlns:xlink="http://www.w3.org/1999/xlink" x="0px" y="0px"
	 width="1000px" height="470px" viewBox="0 0 1000 470" enable-background="new 0 0 1000 470" xml:space="preserve">
<g id="Layer_5">
	<circle fill="none" stroke="#FFFFFF" cx="636.484" cy="243.409" r="11.646"/>
	<circle fill="none" stroke="#FFFFFF" cx="513.116" cy="209.832" r="11.645"/>
	<path fill="none" stroke="#FFFFFF" d="M414.163,213.882c-6.431,0-11.646-5.21-11.646-11.645c0-6.43,5.218-11.645,11.646-11.645
		c6.432,0,11.646,5.215,11.646,11.645C425.808,208.672,420.594,213.882,414.163,213.882z"/>
	<path fill="none" stroke="#FFFFFF" d="M590.242,209.913c0,6.435-5.215,11.645-11.646,11.645c-6.431,0-11.646-5.21-11.646-11.645
		c0-6.43,5.215-11.645,11.646-11.645C585.027,198.269,590.242,203.483,590.242,209.913z"/>
	<path fill="none" stroke="#FFFFFF" d="M785.917,354.91c-6.432,0-11.646,5.211-11.646,11.646c0,6.432,5.214,11.646,11.646,11.646
		c6.431,0,11.643-5.214,11.643-11.646C797.56,360.121,792.348,354.91,785.917,354.91z"/>
	<path fill="none" stroke="#FFFFFF" d="M344.241,168.743c0-6.435,5.215-11.645,11.646-11.645c6.431,0,11.646,5.21,11.646,11.645
		c0,6.43-5.215,11.643-11.646,11.643C349.456,180.385,344.241,175.172,344.241,168.743z"/>
	<path fill="none" stroke="#FFFFFF" d="M831.12,308.286c0,6.432-5.209,11.646-11.646,11.646c-6.431,0-11.646-5.214-11.646-11.646
		c0-6.433,5.215-11.646,11.646-11.646C825.911,296.641,831.12,301.854,831.12,308.286z"/>
	<path fill="none" stroke="#FFFFFF" d="M954.49,341.78c0,6.435-5.211,11.646-11.646,11.646c-6.432,0-11.643-5.211-11.643-11.646
		c0-6.432,5.211-11.646,11.643-11.646C949.279,330.134,954.49,335.351,954.49,341.78z"/>
	<path fill="none" stroke="#FFFFFF" d="M236.716,168.774c0,6.434-5.211,11.646-11.646,11.646c-6.429,0-11.644-5.212-11.644-11.646
		c0-6.432,5.215-11.646,11.644-11.646C231.505,157.128,236.716,162.342,236.716,168.774z"/>
	<circle fill="none" stroke="#FFFFFF" cx="290.554" cy="168.774" r="11.645"/>
	<circle fill="none" stroke="#FFFFFF" cx="43.812" cy="36.326" r="11.646"/>
	<path fill="none" stroke="#FFFFFF" d="M97.651,36.327c0-6.435,5.213-11.646,11.645-11.646c6.431,0,11.643,5.212,11.643,11.646
		c0,6.428-5.212,11.646-11.643,11.646C102.864,47.972,97.651,42.754,97.651,36.327z"/>
	<circle fill="none" stroke="#FFFFFF" cx="694.527" cy="276.642" r="11.645"/>
	<path fill="none" stroke="#FFFFFF" d="M467.976,267.721c0-6.431,5.218-11.646,11.646-11.646c6.435,0,11.646,5.215,11.646,11.646
		c0,6.432-5.211,11.646-11.646,11.646C473.191,279.366,467.976,274.152,467.976,267.721z"/>
	<circle fill="none" stroke="#FFFFFF" cx="414.163" cy="267.72" r="11.646"/>
	<path fill="none" stroke="#FFFFFF" d="M764.065,308.666c0-6.436-5.218-11.646-11.646-11.646c-6.432,0-11.646,5.213-11.646,11.646
		c0,6.428,5.214,11.646,11.646,11.646C758.851,320.311,764.065,315.093,764.065,308.666z"/>
	<circle fill="none" stroke="#FFFFFF" cx="884.96" cy="308.286" r="11.646"/>
	<circle fill="none" stroke="#FFFFFF" cx="167.184" cy="135.28" r="11.646"/>
	<circle fill="none" stroke="#FFFFFF" cx="167.184" cy="69.821" r="11.646"/>
</g>
<g id="Layer_6">
	<circle fill="none" stroke="#FFFFFF" cx="636.483" cy="243.408" r="16.305"/>
	<circle fill="none" stroke="#FFFFFF" cx="513.117" cy="209.832" r="16.303"/>
	<path fill="none" stroke="#FFFFFF" d="M414.163,218.54c-9.003,0-16.304-7.294-16.304-16.303c0-9.001,7.301-16.302,16.304-16.302
		c9.005,0,16.304,7.301,16.304,16.302C430.466,211.246,423.167,218.54,414.163,218.54z"/>
	<path fill="none" stroke="#FFFFFF" d="M594.901,209.913c0,9.009-7.304,16.303-16.309,16.303c-9.003,0-16.304-7.294-16.304-16.303
		c0-9.001,7.301-16.302,16.304-16.302C587.601,193.611,594.901,200.912,594.901,209.913z"/>
	<path fill="none" stroke="#FFFFFF" d="M785.917,350.252c-9.004,0-16.304,7.296-16.304,16.304c0,9,7.3,16.303,16.304,16.303
		c9.003,0,16.3-7.303,16.3-16.303C802.217,357.548,794.92,350.252,785.917,350.252z"/>
	<path fill="none" stroke="#FFFFFF" d="M339.582,168.743c0-9.008,7.301-16.302,16.306-16.302c9.003,0,16.304,7.294,16.304,16.302
		c0,9.002-7.301,16.3-16.304,16.3C346.883,185.042,339.582,177.745,339.582,168.743z"/>
	<path fill="none" stroke="#FFFFFF" d="M835.777,308.286c0,9.004-7.292,16.304-16.304,16.304c-9.003,0-16.304-7.3-16.304-16.304
		s7.301-16.304,16.304-16.304C828.485,291.982,835.777,299.282,835.777,308.286z"/>
	<path fill="none" stroke="#FFFFFF" d="M959.146,341.78c0,9.009-7.298,16.304-16.302,16.304s-16.3-7.295-16.3-16.304
		c0-9,7.296-16.307,16.3-16.307S959.146,332.78,959.146,341.78z"/>
	<path fill="none" stroke="#FFFFFF" d="M241.373,168.774c0,9.007-7.295,16.304-16.304,16.304c-9,0-16.301-7.297-16.301-16.304
		c0-9.004,7.301-16.304,16.301-16.304C234.078,152.47,241.373,159.77,241.373,168.774z"/>
	<circle fill="none" stroke="#FFFFFF" cx="290.555" cy="168.774" r="16.302"/>
	<circle fill="none" stroke="#FFFFFF" cx="43.812" cy="36.326" r="16.305"/>
	<path fill="none" stroke="#FFFFFF" d="M92.994,36.327c0-9.009,7.298-16.306,16.303-16.306c9.003,0,16.299,7.297,16.299,16.306
		c0,8.998-7.296,16.304-16.299,16.304C100.292,52.631,92.994,45.325,92.994,36.327z"/>
	<circle fill="none" stroke="#FFFFFF" cx="694.526" cy="276.642" r="16.303"/>
	<path fill="none" stroke="#FFFFFF" d="M463.318,267.721c0-9.002,7.301-16.303,16.304-16.303c9.009,0,16.304,7.301,16.304,16.303
		c0,9.006-7.295,16.303-16.304,16.303C470.619,284.023,463.318,276.727,463.318,267.721z"/>
	<circle fill="none" stroke="#FFFFFF" cx="414.163" cy="267.72" r="16.304"/>
	<path fill="none" stroke="#FFFFFF" d="M768.724,308.667c0-9.009-7.301-16.306-16.304-16.306c-9.005,0-16.304,7.297-16.304,16.306
		c0,8.998,7.299,16.304,16.304,16.304C761.423,324.97,768.724,317.665,768.724,308.667z"/>
	<circle fill="none" stroke="#FFFFFF" cx="884.96" cy="308.286" r="16.304"/>
	<circle fill="none" stroke="#FFFFFF" cx="167.185" cy="135.28" r="16.304"/>
	<circle fill="none" stroke="#FFFFFF" cx="167.184" cy="69.821" r="16.304"/>
</g>
</svg>
