<?xml version="1.0" encoding="utf-8"?>
<!-- Generator: Adobe Illustrator 14.0.0, SVG Export Plug-In . SVG Version: 6.00 Build 43363)  -->
<!DOCTYPE svg PUBLIC "-//W3C//DTD SVG 1.1//EN" "http://www.w3.org/Graphics/SVG/1.1/DTD/svg11.dtd">
<svg version="1.1" xmlns="http://www.w3.org/2000/svg" xmlns:xlink="http://www.w3.org/1999/xlink" x="0px" y="0px" width="612px"
	 height="792px" viewBox="0 0 612 792" enable-background="new 0 0 612 792" xml:space="preserve">
<g id="Layer_8">
</g>
<g id="Layer_6">
</g>
<g id="Text">
</g>
<g id="Titles">
</g>
<g id="Underlay">
</g>
<g id="Overlay">
</g>
<g id="Layer_9">
	<g>
		<polyline fill="#FFFFFF" points="612,792 0,792 0,0 612,0 612,792 		"/>
		<polyline fill="#231F20" points="612,792 612,791.875 0.125,791.875 0.125,0.125 611.875,0.125 611.875,792 612,792 612,791.875 
			612,792 612.125,792 612.125,-0.125 -0.125,-0.125 -0.125,792.125 612.125,792.125 612.125,792 612,792 		"/>
		<path fill="#F9D562" d="M576.116,603c0,6.627-5.372,12-12,12H212c-6.627,0-12-5.373-12-12v-63c0-6.627,5.373-12,12-12h352.116
			c6.628,0,12,5.373,12,12V603z"/>
		<text transform="matrix(1 0 0 1 291.8613 200.9409)"><tspan x="0" y="0" font-family="'GillSans'" font-size="9.5">Uni</tspan><tspan x="13.559" y="0" font-family="'GillSans'" font-size="9.5">v</tspan><tspan x="17.539" y="0" font-family="'GillSans'" font-size="9.5">ersity of Michigan</tspan><tspan x="85.162" y="0" font-family="'GillSans'" font-size="9.5">. </tspan><tspan x="87.984" y="0" font-family="'GillSans'" font-size="9.5">Ann</tspan><tspan x="103.82" y="0" font-family="'GillSans'" font-size="9.5"> </tspan><tspan x="105.51" y="0" font-family="'GillSans'" font-size="9.5">Arbo</tspan><tspan x="125.6" y="0" font-family="'GillSans'" font-size="9.5">r,</tspan><tspan x="129.545" y="0" font-family="'GillSans'" font-size="9.5"> MI</tspan></text>
		<text transform="matrix(1 0 0 1 291.8613 212.3408)"><tspan x="0" y="0" font-family="'GillSans-LightItalic'" font-size="9.5">T</tspan><tspan x="3.401" y="0" font-family="'GillSans-LightItalic'" font-size="9.5">aubman Coll</tspan><tspan x="48.192" y="0" font-family="'GillSans-LightItalic'" font-size="9.5">e</tspan><tspan x="52.365" y="0" font-family="'GillSans-LightItalic'" font-size="9.5">ge of</tspan><tspan x="69.95" y="0" font-family="'GillSans-LightItalic'" font-size="9.5"> </tspan><tspan x="71.829" y="0" font-family="'GillSans-LightItalic'" font-size="9.5">Architecture &amp; Urban Planning</tspan></text>
		<text transform="matrix(1 0 0 1 291.8613 223.7407)" font-family="'GillSans-Light'" font-size="9.5">M.Arch Degree | 2009 - 2012</text>
		<text transform="matrix(1 0 0 1 291.8613 240.5464)"><tspan x="0" y="0" font-family="'GillSans'" font-size="9.5">Uni</tspan><tspan x="13.559" y="0" font-family="'GillSans'" font-size="9.5">v</tspan><tspan x="17.539" y="0" font-family="'GillSans'" font-size="9.5">ersity of Cali</tspan><tspan x="66.756" y="0" font-family="'GillSans'" font-size="9.5">f</tspan><tspan x="69.045" y="0" font-family="'GillSans'" font-size="9.5">ornia</tspan><tspan x="88.936" y="0" font-family="'GillSans'" font-size="9.5">.</tspan><tspan x="90.068" y="0" font-family="'GillSans'" font-size="9.5"> Ber</tspan><tspan x="106.369" y="0" font-family="'GillSans'" font-size="9.5">k</tspan><tspan x="110.644" y="0" font-family="'GillSans'" font-size="9.5">el</tspan><tspan x="117.277" y="0" font-family="'GillSans'" font-size="9.5">e</tspan><tspan x="121.686" y="0" font-family="'GillSans'" font-size="9.5">y</tspan><tspan x="125.086" y="0" font-family="'GillSans'" font-size="9.5">,</tspan><tspan x="126.219" y="0" font-family="'GillSans'" font-size="9.5"> </tspan><tspan x="128.858" y="0" font-family="'GillSans'" font-size="9.5">C</tspan><tspan x="135.812" y="0" font-family="'GillSans'" font-size="9.5">A</tspan></text>
		<text transform="matrix(1 0 0 1 291.8613 251.9463)"><tspan x="0" y="0" font-family="'GillSans-LightItalic'" font-size="9.5">Coll</tspan><tspan x="12.858" y="0" font-family="'GillSans-LightItalic'" font-size="9.5">e</tspan><tspan x="17.031" y="0" font-family="'GillSans-LightItalic'" font-size="9.5">ge of E</tspan><tspan x="42.298" y="0" font-family="'GillSans-LightItalic'" font-size="9.5">n</tspan><tspan x="46.563" y="0" font-family="'GillSans-LightItalic'" font-size="9.5">vironmental Design</tspan></text>
		<text transform="matrix(1 0 0 1 291.8613 263.3462)"><tspan x="0" y="0" font-family="'GillSans-Light'" font-size="9.5">B</tspan><tspan x="5.271" y="0" font-family="'GillSans-Light'" font-size="9.5">.A</tspan><tspan x="13.286" y="0" font-family="'GillSans-Light'" font-size="9.5">.</tspan><tspan x="14.215" y="0" font-family="'GillSans-Light'" font-size="9.5"> Degree | 2002 - 2006</tspan></text>
		<text transform="matrix(1 0 0 1 291.8613 297.6968)"><tspan x="0" y="0" font-family="'GillSans'" font-size="9.5">F</tspan><tspan x="4.315" y="0" font-family="'GillSans'" font-size="9.5">eldman</tspan><tspan x="31.92" y="0" font-family="'GillSans'" font-size="9.5"> </tspan><tspan x="33.609" y="0" font-family="'GillSans'" font-size="9.5">A</tspan><tspan x="39.946" y="0" font-family="'GillSans'" font-size="9.5">r</tspan><tspan x="43.479" y="0" font-family="'GillSans'" font-size="9.5">chitectu</tspan><tspan x="74.262" y="0" font-family="'GillSans'" font-size="9.5">r</tspan><tspan x="77.844" y="0" font-family="'GillSans'" font-size="9.5">e</tspan></text>
		<text transform="matrix(1 0 0 1 291.8613 309.0967)"><tspan x="0" y="0" font-family="'GillSans-LightItalic'" font-size="9.5">Designer/R</tspan><tspan x="38.385" y="0" font-family="'GillSans-LightItalic'" font-size="9.5">e</tspan><tspan x="42.501" y="0" font-family="'GillSans-LightItalic'" font-size="9.5">vit Specialist | </tspan></text>
		<text transform="matrix(1 0 0 1 384.4492 309.0967)"><tspan x="0" y="0" font-family="'GillSans-Light'" font-size="9.5">M</tspan><tspan x="7.417" y="0" font-family="'GillSans-Light'" font-size="9.5">a</tspan><tspan x="11.329" y="0" font-family="'GillSans-Light'" font-size="9.5">y 2012 -</tspan><tspan x="42.543" y="0" font-family="'GillSans-Light'" font-size="9.5"> </tspan><tspan x="44.612" y="0" font-family="'GillSans-Light'" font-size="9.5">August 2013</tspan></text>
		<text transform="matrix(1 0 0 1 291.8613 320.4966)" font-family="'GillSans-Light'" font-size="9.5"> </text>
		<text transform="matrix(1 0 0 1 327.8613 320.4966)"><tspan x="0" y="0" fill="#636363" font-family="'GillSans-Light'" font-size="8">De</tspan><tspan x="9.754" y="0" fill="#636363" font-family="'GillSans-Light'" font-size="8">v</tspan><tspan x="13.048" y="0" fill="#636363" font-family="'GillSans-Light'" font-size="8">eloped schematic designs</tspan><tspan x="92.325" y="0" fill="#636363" font-family="'GillSans-Light'" font-size="8">,</tspan><tspan x="93.1" y="0" fill="#636363" font-family="'GillSans-Light'" font-size="8"> gene</tspan><tspan x="110.322" y="0" fill="#636363" font-family="'GillSans-Light'" font-size="8">r</tspan><tspan x="113.178" y="0" fill="#636363" font-family="'GillSans-Light'" font-size="8">ated flexi</tspan><tspan x="141.732" y="0" fill="#636363" font-family="'GillSans-Light'" font-size="8">b</tspan><tspan x="145.69" y="0" fill="#636363" font-family="'GillSans-Light'" font-size="8">le component lib</tspan><tspan x="198.901" y="0" fill="#636363" font-family="'GillSans-Light'" font-size="8">r</tspan><tspan x="201.758" y="0" fill="#636363" font-family="'GillSans-Light'" font-size="8">a</tspan><tspan x="205.172" y="0" fill="#636363" font-family="'GillSans-Light'" font-size="8">r</tspan><tspan x="208.388" y="0" fill="#636363" font-family="'GillSans-Light'" font-size="8">y </tspan><tspan x="213.946" y="0" fill="#636363" font-family="'GillSans-Light'" font-size="8">f</tspan><tspan x="215.797" y="0" fill="#636363" font-family="'GillSans-Light'" font-size="8">or </tspan></text>
		<text transform="matrix(1 0 0 1 291.8613 330.0967)"><tspan x="0" y="0" fill="#636363" font-family="'GillSans-Light'" font-size="8" letter-spacing="33"> </tspan><tspan x="35.999" y="0" fill="#636363" font-family="'GillSans-Light'" font-size="8">project us</tspan><tspan x="67.14" y="0" fill="#636363" font-family="'GillSans-Light'" font-size="8">e</tspan><tspan x="71.203" y="0" fill="#636363" font-family="'GillSans-Light'" font-size="8">,</tspan><tspan x="71.978" y="0" fill="#636363" font-family="'GillSans-Light'" font-size="8"> coordinated with consultants</tspan><tspan x="164.911" y="0" fill="#636363" font-family="'GillSans-Light'" font-size="8">,</tspan><tspan x="165.685" y="0" fill="#636363" font-family="'GillSans-Light'" font-size="8"> prepared const</tspan><tspan x="215.61" y="0" fill="#636363" font-family="'GillSans-Light'" font-size="8">r</tspan><tspan x="218.595" y="0" fill="#636363" font-family="'GillSans-Light'" font-size="8">uction documents</tspan><tspan x="275.091" y="0" fill="#636363" font-family="'GillSans-Light'" font-size="8">,</tspan><tspan x="275.865" y="0" fill="#636363" font-family="'GillSans-Light'" font-size="8"> </tspan></text>
		<text transform="matrix(1 0 0 1 291.8613 339.6968)"><tspan x="0" y="0" fill="#636363" font-family="'GillSans-Light'" font-size="8" letter-spacing="33"> </tspan><tspan x="35.999" y="0" fill="#636363" font-family="'GillSans-Light'" font-size="8">and designed l</tspan><tspan x="80.854" y="0" fill="#636363" font-family="'GillSans-Light'" font-size="8">a</tspan><tspan x="84.148" y="0" fill="#636363" font-family="'GillSans-Light'" font-size="8">y</tspan><tspan x="87.324" y="0" fill="#636363" font-family="'GillSans-Light'" font-size="8">outs </tspan><tspan x="103.051" y="0" fill="#636363" font-family="'GillSans-Light'" font-size="8">f</tspan><tspan x="104.9" y="0" fill="#636363" font-family="'GillSans-Light'" font-size="8">or client presentations</tspan></text>
		<text transform="matrix(1 0 0 1 291.8613 355.438)"><tspan x="0" y="0" font-family="'GillSans'" font-size="9.5">The Ecolo</tspan><tspan x="39.155" y="0" font-family="'GillSans'" font-size="9.5">g</tspan><tspan x="43.39" y="0" font-family="'GillSans'" font-size="9.5">y Center</tspan></text>
		<text transform="matrix(1 0 0 1 291.8613 366.8379)" font-family="'GillSans-LightItalic'" font-size="9.5">LEED Consultant | </text>
		<text transform="matrix(1 0 0 1 359.6455 366.8379)"><tspan x="0" y="0" font-family="'GillSans-Light'" font-size="9.5">Ja</tspan><tspan x="6.03" y="0" font-family="'GillSans-Light'" font-size="9.5">n</tspan><tspan x="10.602" y="0" font-family="'GillSans-Light'" font-size="9.5">ua</tspan><tspan x="19.313" y="0" font-family="'GillSans-Light'" font-size="9.5">r</tspan><tspan x="23.133" y="0" font-family="'GillSans-Light'" font-size="9.5">y 2011 - September 2011</tspan></text>
		<text transform="matrix(1 0 0 1 291.8613 378.2378)" font-family="'GillSans-Light'" font-size="9.5"> </text>
		<text transform="matrix(1 0 0 1 327.8613 378.2378)"><tspan x="0" y="0" fill="#636363" font-family="'GillSans-Light'" font-size="8">Coordinated LEED(ID+C) documentation </tspan><tspan x="135.387" y="0" fill="#636363" font-family="'GillSans-Light'" font-size="8">f</tspan><tspan x="137.236" y="0" fill="#636363" font-family="'GillSans-Light'" font-size="8">or Gold Ce</tspan><tspan x="173.6" y="0" fill="#636363" font-family="'GillSans-Light'" font-size="8">r</tspan><tspan x="176.904" y="0" fill="#636363" font-family="'GillSans-Light'" font-size="8">ti</tspan><tspan x="180.822" y="0" fill="#636363" font-family="'GillSans-Light'" font-size="8">f</tspan><tspan x="182.584" y="0" fill="#636363" font-family="'GillSans-Light'" font-size="8">ication</tspan></text>
		<text transform="matrix(1 0 0 1 291.8613 431.8711)"><tspan x="0" y="0" font-family="'GillSans'" font-size="9.5">Stoec</tspan><tspan x="21.468" y="0" font-family="'GillSans'" font-size="9.5">k</tspan><tspan x="25.743" y="0" font-family="'GillSans'" font-size="9.5">er &amp; No</tspan><tspan x="57.931" y="0" font-family="'GillSans'" font-size="9.5">r</tspan><tspan x="61.873" y="0" font-family="'GillSans'" font-size="9.5">thw</tspan><tspan x="76.619" y="0" font-family="'GillSans'" font-size="9.5">a</tspan><tspan x="80.294" y="0" font-family="'GillSans'" font-size="9.5">y</tspan></text>
		<text transform="matrix(1 0 0 1 291.8613 443.2715)"><tspan x="0" y="0" font-family="'GillSans-LightItalic'" font-size="9.5">Architectu</tspan><tspan x="35.008" y="0" font-family="'GillSans-LightItalic'" font-size="9.5">r</tspan><tspan x="37.402" y="0" font-family="'GillSans-LightItalic'" font-size="9.5">al Inte</tspan><tspan x="59.431" y="0" font-family="'GillSans-LightItalic'" font-size="9.5">r</tspan><tspan x="62.281" y="0" font-family="'GillSans-LightItalic'" font-size="9.5">n/Designer | </tspan></text>
		<text transform="matrix(1 0 0 1 399.3154 443.2715)"><tspan x="0" y="0" font-family="'GillSans-Light'" font-size="9.5">June 2006 - Ju</tspan><tspan x="52.366" y="0" font-family="'GillSans-Light'" font-size="9.5">l</tspan><tspan x="54.066" y="0" font-family="'GillSans-Light'" font-size="9.5">y 2009</tspan></text>
		<text transform="matrix(1 0 0 1 291.8613 454.6719)" font-family="'GillSans-Light'" font-size="9.5"> </text>
		<text transform="matrix(1 0 0 1 327.8613 454.6719)"><tspan x="0" y="0" fill="#636363" font-family="'GillSans-Light'" font-size="8">Prepared const</tspan><tspan x="47.703" y="0" fill="#636363" font-family="'GillSans-Light'" font-size="8">r</tspan><tspan x="50.688" y="0" fill="#636363" font-family="'GillSans-Light'" font-size="8">uction documents </tspan><tspan x="109.406" y="0" fill="#636363" font-family="'GillSans-Light'" font-size="8">f</tspan><tspan x="111.256" y="0" fill="#636363" font-family="'GillSans-Light'" font-size="8">or pe</tspan><tspan x="128.389" y="0" fill="#636363" font-family="'GillSans-Light'" font-size="8">r</tspan><tspan x="131.245" y="0" fill="#636363" font-family="'GillSans-Light'" font-size="8">mit submittals</tspan><tspan x="174.636" y="0" fill="#636363" font-family="'GillSans-Light'" font-size="8">,</tspan><tspan x="175.409" y="0" fill="#636363" font-family="'GillSans-Light'" font-size="8"> schematic designs,</tspan></text>
		<text transform="matrix(1 0 0 1 291.8613 464.2715)"><tspan x="0" y="0" fill="#636363" font-family="'GillSans-Light'" font-size="8" letter-spacing="33"> </tspan><tspan x="35.999" y="0" fill="#636363" font-family="'GillSans-Light'" font-size="8">design de</tspan><tspan x="65.714" y="0" fill="#636363" font-family="'GillSans-Light'" font-size="8">v</tspan><tspan x="69.008" y="0" fill="#636363" font-family="'GillSans-Light'" font-size="8">elopment</tspan><tspan x="99.094" y="0" fill="#636363" font-family="'GillSans-Light'" font-size="8">,</tspan><tspan x="99.867" y="0" fill="#636363" font-family="'GillSans-Light'" font-size="8"> presentation l</tspan><tspan x="144.98" y="0" fill="#636363" font-family="'GillSans-Light'" font-size="8">a</tspan><tspan x="148.275" y="0" fill="#636363" font-family="'GillSans-Light'" font-size="8">y</tspan><tspan x="151.451" y="0" fill="#636363" font-family="'GillSans-Light'" font-size="8">outs </tspan><tspan x="167.178" y="0" fill="#636363" font-family="'GillSans-Light'" font-size="8">f</tspan><tspan x="169.027" y="0" fill="#636363" font-family="'GillSans-Light'" font-size="8">or prelimina</tspan><tspan x="206.84" y="0" fill="#636363" font-family="'GillSans-Light'" font-size="8">r</tspan><tspan x="210.056" y="0" fill="#636363" font-family="'GillSans-Light'" font-size="8">y &amp; </tspan><tspan x="222.759" y="0" fill="#636363" font-family="'GillSans-Light'" font-size="8">f</tspan><tspan x="224.521" y="0" fill="#636363" font-family="'GillSans-Light'" font-size="8">inal board revie</tspan><tspan x="273.126" y="0" fill="#636363" font-family="'GillSans-Light'" font-size="8">w</tspan><tspan x="278.351" y="0" fill="#636363" font-family="'GillSans-Light'" font-size="8">,</tspan><tspan x="279.124" y="0" fill="#636363" font-family="'GillSans-Light'" font-size="8"> </tspan></text>
		<text transform="matrix(1 0 0 1 291.8613 475.6719)"><tspan x="0" y="0" fill="#636363" font-family="'GillSans-Light'" font-size="8" letter-spacing="33"> </tspan><tspan x="35.999" y="0" fill="#636363" font-family="'GillSans-Light'" font-size="8">const</tspan><tspan x="52.839" y="0" fill="#636363" font-family="'GillSans-Light'" font-size="8">r</tspan><tspan x="55.822" y="0" fill="#636363" font-family="'GillSans-Light'" font-size="8">uction administ</tspan><tspan x="103.314" y="0" fill="#636363" font-family="'GillSans-Light'" font-size="8">r</tspan><tspan x="106.171" y="0" fill="#636363" font-family="'GillSans-Light'" font-size="8">ation and project management</tspan></text>
		<text transform="matrix(1 0 0 1 494.377 475.6719)" font-family="'GillSans-Light'" font-size="9.5"> </text>
		<text transform="matrix(1 0 0 1 291.8613 492.2656)"><tspan x="0" y="0" font-family="'GillSans'" font-size="9.5">MBH</tspan><tspan x="19.691" y="0" font-family="'GillSans'" font-size="9.5"> </tspan><tspan x="21.381" y="0" font-family="'GillSans'" font-size="9.5">A</tspan><tspan x="27.717" y="0" font-family="'GillSans'" font-size="9.5">r</tspan><tspan x="31.251" y="0" font-family="'GillSans'" font-size="9.5">chitects</tspan></text>
		<text transform="matrix(1 0 0 1 291.8613 503.666)"><tspan x="0" y="0" font-family="'GillSans-LightItalic'" font-size="9.5">Lib</tspan><tspan x="10.099" y="0" font-family="'GillSans-LightItalic'" font-size="9.5">r</tspan><tspan x="12.482" y="0" font-family="'GillSans-LightItalic'" font-size="9.5">a</tspan><tspan x="17.033" y="0" font-family="'GillSans-LightItalic'" font-size="9.5">r</tspan><tspan x="19.836" y="0" font-family="'GillSans-LightItalic'" font-size="9.5">ian | </tspan></text>
		<text transform="matrix(1 0 0 1 329.6758 503.666)" font-family="'GillSans-Light'" font-size="9.5">June 2003 - December 2003</text>
		<text transform="matrix(1 0 0 1 291.8613 515.0664)" font-family="'GillSans-Light'" font-size="9.5"> </text>
		<text transform="matrix(1 0 0 1 327.8613 515.0664)"><tspan x="0" y="0" fill="#636363" font-family="'GillSans-Light'" font-size="8">O</tspan><tspan x="6.586" y="0" fill="#636363" font-family="'GillSans-Light'" font-size="8">r</tspan><tspan x="9.442" y="0" fill="#636363" font-family="'GillSans-Light'" font-size="8">gani</tspan><tspan x="21.696" y="0" fill="#636363" font-family="'GillSans-Light'" font-size="8">z</tspan><tspan x="24.744" y="0" fill="#636363" font-family="'GillSans-Light'" font-size="8">ed and maintained mate</tspan><tspan x="100.736" y="0" fill="#636363" font-family="'GillSans-Light'" font-size="8">r</tspan><tspan x="103.592" y="0" fill="#636363" font-family="'GillSans-Light'" font-size="8">ial database</tspan></text>
		<text transform="matrix(1 0 0 1 291.8613 641.4189)"><tspan x="0" y="0" font-family="'GillSans-LightItalic'" font-size="9.5">Threshold Studio Honoree</tspan><tspan x="90.891" y="0" font-family="'GillSans-LightItalic'" font-size="9.5"> </tspan><tspan x="92.77" y="0" font-family="'GillSans-LightItalic'" font-size="9.5">Aw</tspan><tspan x="103.479" y="0" font-family="'GillSans-LightItalic'" font-size="9.5">ard |</tspan><tspan x="119.811" y="0" font-family="'GillSans-LightItalic'" font-size="9.5"> </tspan><tspan x="121.69" y="0" font-family="'GillSans-LightItalic'" font-size="9.5">Annual Student Sh</tspan><tspan x="186.428" y="0" font-family="'GillSans-LightItalic'" font-size="9.5">o</tspan><tspan x="190.601" y="0" font-family="'GillSans-LightItalic'" font-size="9.5">w | 2011</tspan></text>
		<text transform="matrix(1 0 0 1 291.8613 652.8184)"><tspan x="0" y="0" font-family="'GillSans-LightItalic'" font-size="9.5">Lorch Scholar |</tspan><tspan x="51.221" y="0" font-family="'GillSans-LightItalic'" font-size="9.5" letter-spacing="-1"> </tspan><tspan x="52.672" y="0" font-family="'GillSans-LightItalic'" font-size="9.5">T</tspan><tspan x="56.073" y="0" font-family="'GillSans-LightItalic'" font-size="9.5">aubman Schola</tspan><tspan x="110.462" y="0" font-family="'GillSans-LightItalic'" font-size="9.5">r</tspan><tspan x="113.264" y="0" font-family="'GillSans-LightItalic'" font-size="9.5">ship | 2009 - 2012</tspan></text>
		<text transform="matrix(1 0 0 1 291.8613 664.2188)"><tspan x="0" y="0" font-family="'GillSans-LightItalic'" font-size="9.5">Architecture</tspan><tspan x="41.841" y="0" font-family="'GillSans-LightItalic'" font-size="9.5"> </tspan><tspan x="43.721" y="0" font-family="'GillSans-LightItalic'" font-size="9.5">Alumni Schola</tspan><tspan x="93.058" y="0" font-family="'GillSans-LightItalic'" font-size="9.5">r</tspan><tspan x="95.859" y="0" font-family="'GillSans-LightItalic'" font-size="9.5">ship | 2010 - 2011</tspan></text>
		<text transform="matrix(1 0 0 1 291.8613 675.6191)"><tspan x="0" y="0" font-family="'GillSans-LightItalic'" font-size="9.5">G</tspan><tspan x="5.845" y="0" font-family="'GillSans-LightItalic'" font-size="9.5">r</tspan><tspan x="8.229" y="0" font-family="'GillSans-LightItalic'" font-size="9.5">aduate Honoree |</tspan><tspan x="71.046" y="0" font-family="'GillSans-LightItalic'" font-size="9.5"> </tspan><tspan x="72.926" y="0" font-family="'GillSans-LightItalic'" font-size="9.5">Annual Student Sh</tspan><tspan x="137.663" y="0" font-family="'GillSans-LightItalic'" font-size="9.5">o</tspan><tspan x="141.836" y="0" font-family="'GillSans-LightItalic'" font-size="9.5">w | 2010 | 2011</tspan></text>
		<text transform="matrix(1 0 0 1 291.8613 687.0195)"><tspan x="0" y="0" font-family="'GillSans-LightItalic'" font-size="9.5">Best Project | Raymond</tspan><tspan x="82.072" y="0" font-family="'GillSans-LightItalic'" font-size="9.5"> </tspan><tspan x="83.762" y="0" font-family="'GillSans-LightItalic'" font-size="9.5">W</tspan><tspan x="91.903" y="0" font-family="'GillSans-LightItalic'" font-size="9.5">atson</tspan><tspan x="111.093" y="0" font-family="'GillSans-LightItalic'" font-size="9.5"> </tspan><tspan x="112.973" y="0" font-family="'GillSans-LightItalic'" font-size="9.5">Aw</tspan><tspan x="123.681" y="0" font-family="'GillSans-LightItalic'" font-size="9.5">ard | 2003</tspan></text>
		<text transform="matrix(1 0 0 1 291.8613 392.8716)" font-family="'GillSans'" font-size="9.5">UM Ross School of Business</text>
		<text transform="matrix(1 0 0 1 400.7451 392.8716)" font-family="'GillSans-Light'" font-size="9.5"> </text>
		<text transform="matrix(1 0 0 1 291.8613 404.2715)" font-family="'GillSans-LightItalic'" font-size="9.5">Consultant | </text>
		<text transform="matrix(1 0 0 1 336.7305 404.2715)"><tspan x="0" y="0" font-family="'GillSans-Light'" font-size="9.5">M</tspan><tspan x="7.417" y="0" font-family="'GillSans-Light'" font-size="9.5">a</tspan><tspan x="11.329" y="0" font-family="'GillSans-Light'" font-size="9.5">y 2010 - Ju</tspan><tspan x="51.815" y="0" font-family="'GillSans-Light'" font-size="9.5">l</tspan><tspan x="53.516" y="0" font-family="'GillSans-Light'" font-size="9.5">y 2010</tspan></text>
		<text transform="matrix(1 0 0 1 291.8613 415.6719)" fill="#636363" font-family="'GillSans-Light'" font-size="9.5"> </text>
		<text transform="matrix(1 0 0 1 327.8613 415.6719)"><tspan x="0" y="0" fill="#636363" font-family="'GillSans-Light'" font-size="8">Facilitated a Business Impr</tspan><tspan x="81.496" y="0" fill="#636363" font-family="'GillSans-Light'" font-size="8">o</tspan><tspan x="85.672" y="0" fill="#636363" font-family="'GillSans-Light'" font-size="8">v</tspan><tspan x="88.966" y="0" fill="#636363" font-family="'GillSans-Light'" font-size="8">ement Dist</tspan><tspan x="124.028" y="0" fill="#636363" font-family="'GillSans-Light'" font-size="8">r</tspan><tspan x="126.885" y="0" fill="#636363" font-family="'GillSans-Light'" font-size="8">ict Plan </tspan><tspan x="151.502" y="0" fill="#636363" font-family="'GillSans-Light'" font-size="8">f</tspan><tspan x="153.352" y="0" fill="#636363" font-family="'GillSans-Light'" font-size="8">or Dupont Circle</tspan></text>
		<text transform="matrix(1 0 0 1 402.6348 545.9668)" font-family="'GillSans-Light'" font-size="9.5">Rhino</text>
		<text transform="matrix(1 0 0 1 402.6348 557.3672)" font-family="'GillSans-Light'" font-size="9.5">Revit </text>
		<text transform="matrix(1 0 0 1 402.6348 568.7676)"><tspan x="0" y="0" font-family="'GillSans-Light'" font-size="9.5">Auto</tspan><tspan x="19.01" y="0" font-family="'GillSans-Light'" font-size="9.5">C</tspan><tspan x="25.856" y="0" font-family="'GillSans-Light'" font-size="9.5">AD</tspan></text>
		<text transform="matrix(1 0 0 1 402.6348 580.168)"><tspan x="0" y="0" font-family="'GillSans-Light'" font-size="9.5">S</tspan><tspan x="4.458" y="0" font-family="'GillSans-Light'" font-size="9.5">k</tspan><tspan x="8.427" y="0" font-family="'GillSans-Light'" font-size="9.5">etchup Pro</tspan></text>
		<text transform="matrix(1 0 0 1 402.6348 591.5674)"><tspan x="0" y="0" font-family="'GillSans-Light'" font-size="9.5">V</tspan><tspan x="5.646" y="0" font-family="'GillSans-Light'" font-size="9.5">r</tspan><tspan x="9.037" y="0" font-family="'GillSans-Light'" font-size="9.5">a</tspan><tspan x="12.948" y="0" font-family="'GillSans-Light'" font-size="9.5">y</tspan></text>
		<text transform="matrix(1 0 0 1 402.6348 602.9668)" font-family="'GillSans-Light'" font-size="9.5">GIS</text>
		<text transform="matrix(1 0 0 1 290.5234 545.9668)"><tspan x="0" y="0" font-family="'GillSans-Light'" font-size="9.5">Adobe Illust</tspan><tspan x="44.796" y="0" font-family="'GillSans-Light'" font-size="9.5">r</tspan><tspan x="48.188" y="0" font-family="'GillSans-Light'" font-size="9.5">ator </tspan></text>
		<text transform="matrix(1 0 0 1 290.5234 557.3672)" font-family="'GillSans-Light'" font-size="9.5">Adobe Photoshop</text>
		<text transform="matrix(1 0 0 1 290.5234 568.7676)" font-family="'GillSans-Light'" font-size="9.5">Adobe Indesign</text>
		<text transform="matrix(1 0 0 1 290.5234 580.168)" font-family="'GillSans-Light'" font-size="9.5">Adobe Premiere Pro</text>
		<text transform="matrix(1 0 0 1 290.5234 591.5674)"><tspan x="0" y="0" font-family="'GillSans-Light'" font-size="9.5">Adobe</tspan><tspan x="25.722" y="0" font-family="'GillSans-Light'" font-size="9.5"> </tspan><tspan x="27.791" y="0" font-family="'GillSans-Light'" font-size="9.5">Acrobat Pro</tspan></text>
		<text transform="matrix(1 0 0 1 290.5234 602.9668)" font-family="'GillSans-Light'" font-size="9.5">Social Media</text>
		<text transform="matrix(1 0 0 1 489.3613 545.9668)" font-family="'GillSans-Light'" font-size="9.5">HTML5 </text>
		<text transform="matrix(1 0 0 1 489.3613 557.3672)" font-family="'GillSans-Light'" font-size="9.5">CSS</text>
		<text transform="matrix(1 0 0 1 489.3613 568.7676)"><tspan x="0" y="0" font-family="'GillSans-Light'" font-size="9.5">JQue</tspan><tspan x="19.005" y="0" font-family="'GillSans-Light'" font-size="9.5">r</tspan><tspan x="22.823" y="0" font-family="'GillSans-Light'" font-size="9.5">y</tspan></text>
		<text transform="matrix(1 0 0 1 489.3613 580.168)"><tspan x="0" y="0" font-family="'GillSans-Light'" font-size="9.5">G</tspan><tspan x="6.833" y="0" font-family="'GillSans-Light'" font-size="9.5">r</tspan><tspan x="10.225" y="0" font-family="'GillSans-Light'" font-size="9.5">asshopper</tspan></text>
		<text transform="matrix(1 0 0 1 489.3613 591.5674)" font-family="'GillSans-Light'" font-size="9.5">Ecotect</text>
		<text transform="matrix(1 0 0 1 489.3613 602.9668)" font-family="'GillSans-Light'" font-size="9.5">USGBC LEED</text>
		<circle fill="#231F20" cx="230.365" cy="208.094" r="15.167"/>
		<circle fill="#231F20" cx="228.263" cy="304.85" r="15.167"/>
		<circle fill="#231F20" cx="230.365" cy="550.243" r="15.167"/>
		<text transform="matrix(1 0 0 1 205.5645 236.5347)"><tspan x="0" y="0" fill="#636363" font-family="'AvenirNextCondensed-Regular'" font-size="11">EDU</tspan><tspan x="16.599" y="0" fill="#636363" font-family="'AvenirNextCondensed-Regular'" font-size="11">C</tspan><tspan x="21.746" y="0" fill="#636363" font-family="'AvenirNextCondensed-Regular'" font-size="11">A</tspan><tspan x="26.663" y="0" fill="#636363" font-family="'AvenirNextCondensed-Regular'" font-size="11">TION</tspan></text>
		<text transform="matrix(1 0 0 1 204.4473 333.2905)" fill="#636363" font-family="'AvenirNextCondensed-Regular'" font-size="11">EXPERIENCE</text>
		<text transform="matrix(1 0 0 1 212.8184 578.6816)"><tspan x="0" y="0" fill="#636363" font-family="'AvenirNextCondensed-Regular'" font-size="11">SKIL</tspan><tspan x="16.555" y="0" fill="#636363" font-family="'AvenirNextCondensed-Regular'" font-size="11">L</tspan><tspan x="20.229" y="0" fill="#636363" font-family="'AvenirNextCondensed-Regular'" font-size="11"> SET</tspan></text>
		<path fill="#FFFFFF" d="M225.156,208.769l-0.566,2.835c0.087,1.613,5.256,2.127,5.256,2.127c5.007,0.421,5.647-1.299,5.647-1.299
			l0.131-0.479l-0.262-1.396h1.003l4.449-4.929l-13.434-1.482l-9.551,2.966l0.217,0.349L225.156,208.769z"/>
		<path fill="#FFFFFF" d="M220.404,309.161c-0.783-1.206-0.699-2.009-0.699-2.009l2.143-1.735c0,0-0.019-0.662,0.083-1.241
			l-2.272-1.835c0.297-1.407,0.926-1.915,0.926-1.915l2.742,0.289c0,0,0.454-0.482,0.936-0.819l-0.31-2.905
			c1.206-0.784,2.009-0.7,2.009-0.7l1.734,2.143c0,0,0.662-0.019,1.241,0.083l1.836-2.272c1.407,0.297,1.915,0.925,1.915,0.925
			l-0.289,2.742c0,0,0.482,0.455,0.82,0.936l2.904-0.309c0.783,1.206,0.699,2.009,0.699,2.009l-2.143,1.734
			c0,0,0.02,0.662-0.082,1.241l2.272,1.835c-0.298,1.406-0.927,1.915-0.927,1.915l-2.741-0.288c0,0-0.454,0.481-0.937,0.819
			l0.31,2.905c-1.206,0.784-2.009,0.7-2.009,0.7l-1.734-2.143c0,0-0.662,0.019-1.241-0.083l-1.835,2.272
			c-1.407-0.298-1.916-0.926-1.916-0.926l0.289-2.742c0,0-0.481-0.455-0.819-0.936L220.404,309.161z M228.264,301.827
			c-1.671,0-3.024,1.353-3.024,3.024c0,1.669,1.354,3.022,3.024,3.022c1.669,0,3.022-1.354,3.022-3.022
			C231.287,303.18,229.933,301.827,228.264,301.827z"/>
		<path fill="#FFFFFF" d="M236.262,546.953l1.196-0.057l2.921-2.869c0.271,0,1.405,2.869-0.644,5.26
			c-2.018,2.355-5.305,1.566-5.523,1.508l-8.654,8.684c0,0-1.252,0.969-2.903-0.283l-0.255-0.264
			c-1.253-1.652-0.285-2.904-0.285-2.904l8.684-8.654c-0.059-0.219-0.846-3.506,1.508-5.523c2.392-2.049,5.262-0.914,5.262-0.645
			l-2.87,2.922l-0.057,1.195L236.262,546.953z M224.456,555.984c-0.666,0-1.206,0.541-1.206,1.207s0.54,1.207,1.206,1.207
			c0.667,0,1.208-0.541,1.208-1.207S225.123,555.984,224.456,555.984z"/>
		<circle fill="#231F20" cx="230.364" cy="648.61" r="15.167"/>
		<text transform="matrix(1 0 0 1 203.0625 677.7998)"><tspan x="0" y="0" fill="#636363" font-family="'AvenirNextCondensed-Regular'" font-size="11">RE</tspan><tspan x="9.834" y="0" fill="#636363" font-family="'AvenirNextCondensed-Regular'" font-size="11">C</tspan><tspan x="14.971" y="0" fill="#636363" font-family="'AvenirNextCondensed-Regular'" font-size="11">OGNITION</tspan></text>
		<path fill="#FFFFFF" d="M225.906,657.937l0.226-0.96l0.452-0.846l1.411-0.622l1.016-0.45l0.057-0.961l-0.226-1.241l-1.242-0.678
			l-1.072-1.411l-0.226-0.847l-0.847-1.072c-3.047-2.991-2.822-5.136-2.822-5.136l0.113-0.678l0.338-0.564l2.992-0.17l0.113-1.016
			h8.351l0.112,1.016l2.992,0.17l0.338,0.564l0.114,0.678c0,0,0.226,2.145-2.822,5.136l-0.847,1.072l-0.226,0.847l-1.072,1.411
			l-1.242,0.678l-0.226,1.241l0.057,0.961l1.016,0.45l1.411,0.622l0.452,0.846l0.226,0.96H225.906z M225.737,643.26l-2.033,0.113
			l-0.226,0.509c0,0,0.452,2.37,2.032,3.499l0.339-0.508L225.737,643.26z M234.877,646.873l0.339,0.508
			c1.58-1.129,2.031-3.499,2.031-3.499l-0.225-0.509l-2.032-0.113L234.877,646.873z"/>
		<polygon fill="#231F20" points="124.955,255.653 125.09,255.059 125.279,254.599 125.63,254.085 125.198,253.923 124.711,253.653 
			124.17,252.679 124.062,252.355 124.035,251.787 123.981,251.436 123.657,249.895 123.684,249.138 123.549,247.57 123.44,245.867 
			123.684,244.839 124.117,244.488 124.9,244.245 125.117,244.082 125.225,243.704 125.36,243.46 125.685,243.379 125.792,243.217 
			125.522,242.812 125.604,242 125.576,241.216 125.63,240.081 125.928,239.405 126.36,238.567 127.226,237.432 127.875,236.999 
			128.415,236.864 128.929,236.864 129.578,236.999 130.145,237.513 130.686,238.324 131.2,239.892 131.362,242.298 131.2,243.001 
			130.983,244.894 131.253,245.434 131.335,245.975 131.01,246.488 130.632,247.056 130.956,247.516 131.308,247.651 
			131.93,248.191 132.389,248.327 132.768,248.732 133.2,248.732 134.282,248.029 134.741,247.624 135.066,247.002 136.093,245.948 
			136.12,245.623 136.336,245.353 136.553,245.164 136.715,245.299 136.796,245.569 137.202,245.569 137.769,245.353 
			138.418,245.191 138.634,245.434 138.607,245.731 138.581,245.975 138.04,246.272 137.58,246.569 136.85,246.759 136.661,247.164 
			136.688,247.542 137.093,247.948 136.85,248.138 136.85,248.489 136.093,249.084 135.066,249.976 133.768,251.084 133.2,251.138 
			132.66,251.138 132.092,250.949 131.281,250.679 131.308,251.841 131.578,251.922 131.605,252.328 131.875,252.95 
			131.849,253.869 131.713,255.032 131.687,255.978 124.874,255.978 		"/>
		<path fill="#FCA212" d="M36.089,113.731c0,48.496,47.02,90.721,87.152,90.721c40.13,0,87.152-42.225,87.152-90.721
			c0-48.495-39.02-83.439-87.152-83.439S36.089,65.236,36.089,113.731"/>
		<polygon fill="#636363" points="133.745,278.086 112.74,278.086 110.673,255.918 135.811,255.918 		"/>
		<polygon fill="#231F20" points="133.745,278.086 133.745,277.961 112.854,277.961 110.811,256.043 135.674,256.043 
			133.62,278.075 133.745,278.086 133.745,277.961 133.745,278.086 133.869,278.098 135.948,255.793 110.536,255.793 
			112.626,278.211 133.858,278.211 133.869,278.098 		"/>
		<text transform="matrix(1 0 0 1 86.5127 86.0005)"><tspan x="0" y="0" fill="#231F20" font-family="'AvenirNextCondensed-Bold'" font-size="14">U</tspan><tspan x="8.134" y="0" fill="#231F20" font-family="'AvenirNextCondensed-Bold'" font-size="14">X</tspan><tspan x="15.54" y="0" fill="#231F20" font-family="'AvenirNextCondensed-Bold'" font-size="14"> DESIGNER</tspan></text>
		<path fill="#231F20" d="M118.787,263.868h-0.125c0,1.729,0.25,2.941,0.667,3.736c0.414,0.794,1.022,1.172,1.687,1.169
			c0.664,0.003,1.271-0.375,1.686-1.169c0.417-0.795,0.667-2.007,0.667-3.736c0-1.729-0.25-3.723-0.657-5.294
			c-0.204-0.786-0.445-1.465-0.72-1.957c-0.275-0.487-0.584-0.816-0.976-0.823c-0.393,0.007-0.702,0.336-0.977,0.823
			c-0.819,1.472-1.374,4.655-1.376,7.251H118.787h0.125c0-1.705,0.249-3.686,0.648-5.231c0.2-0.772,0.438-1.437,0.696-1.898
			c0.258-0.467,0.536-0.703,0.759-0.695c0.223-0.007,0.5,0.228,0.758,0.695c0.78,1.389,1.347,4.573,1.345,7.129
			c0,1.705-0.25,2.883-0.638,3.62c-0.392,0.737-0.898,1.033-1.464,1.036c-0.567-0.003-1.073-0.299-1.465-1.036
			c-0.389-0.737-0.639-1.915-0.638-3.62H118.787z"/>
		<path fill="#231F20" d="M114.331,263.867h-0.125c0,1.729,0.25,2.941,0.667,3.737c0.414,0.794,1.022,1.172,1.687,1.169
			c0.664,0.003,1.271-0.375,1.686-1.169c0.417-0.795,0.667-2.008,0.667-3.737c0-1.729-0.25-3.723-0.657-5.293
			c-0.204-0.786-0.445-1.465-0.72-1.957c-0.275-0.487-0.584-0.816-0.976-0.823c-0.393,0.007-0.702,0.336-0.977,0.823
			c-0.819,1.472-1.374,4.655-1.376,7.25H114.331h0.125c0-1.705,0.249-3.686,0.648-5.231c0.2-0.772,0.438-1.437,0.696-1.898
			c0.258-0.467,0.536-0.702,0.759-0.695c0.223-0.007,0.5,0.228,0.758,0.695c0.78,1.389,1.347,4.573,1.345,7.129
			c0,1.705-0.25,2.883-0.638,3.62c-0.392,0.737-0.898,1.033-1.464,1.036c-0.567-0.003-1.073-0.299-1.465-1.036
			c-0.389-0.737-0.639-1.915-0.638-3.62H114.331z"/>
		<path fill="#231F20" d="M123.243,263.868h-0.125c0,1.729,0.25,2.941,0.667,3.736c0.414,0.794,1.022,1.172,1.687,1.169
			c0.664,0.003,1.271-0.375,1.686-1.169c0.417-0.795,0.667-2.007,0.667-3.736c0-1.729-0.25-3.723-0.657-5.294
			c-0.204-0.786-0.445-1.465-0.72-1.957c-0.275-0.487-0.584-0.816-0.976-0.823c-0.393,0.007-0.702,0.336-0.977,0.823
			c-0.819,1.472-1.374,4.655-1.376,7.251H123.243h0.125c0-1.705,0.249-3.686,0.648-5.231c0.2-0.772,0.438-1.437,0.696-1.898
			c0.258-0.467,0.536-0.703,0.759-0.695c0.223-0.007,0.5,0.228,0.758,0.695c0.78,1.389,1.347,4.573,1.345,7.129
			c0,1.705-0.25,2.883-0.638,3.62c-0.392,0.737-0.898,1.033-1.464,1.036c-0.567-0.003-1.073-0.299-1.465-1.036
			c-0.389-0.737-0.639-1.915-0.638-3.62H123.243z"/>
		<path fill="#231F20" d="M127.699,263.868h-0.125c0,1.729,0.25,2.941,0.667,3.736c0.414,0.794,1.022,1.172,1.687,1.169
			c0.664,0.003,1.271-0.375,1.686-1.169c0.417-0.795,0.667-2.007,0.667-3.736c0-1.729-0.25-3.723-0.657-5.294
			c-0.204-0.786-0.445-1.465-0.72-1.957c-0.275-0.487-0.584-0.816-0.976-0.823c-0.393,0.007-0.702,0.336-0.977,0.823
			c-0.819,1.472-1.374,4.655-1.376,7.251H127.699h0.125c0-1.705,0.249-3.686,0.648-5.231c0.2-0.772,0.438-1.437,0.696-1.898
			c0.258-0.467,0.536-0.703,0.759-0.695c0.223-0.007,0.5,0.228,0.758,0.695c0.78,1.389,1.347,4.573,1.345,7.129
			c0,1.705-0.25,2.883-0.638,3.62c-0.392,0.737-0.898,1.033-1.464,1.036c-0.567-0.003-1.073-0.299-1.465-1.036
			c-0.389-0.737-0.639-1.915-0.638-3.62H127.699z"/>
		<path fill="#231F20" d="M132.155,263.868h-0.125c0,1.729,0.25,2.941,0.667,3.736c0.414,0.794,1.022,1.172,1.687,1.169
			c0.664,0.003,1.271-0.375,1.686-1.169c0.417-0.795,0.667-2.007,0.667-3.736c0-1.729-0.25-3.723-0.657-5.294
			c-0.204-0.786-0.445-1.465-0.72-1.957c-0.275-0.487-0.584-0.816-0.976-0.823c-0.393,0.007-0.702,0.336-0.977,0.823
			c-0.819,1.472-1.374,4.655-1.376,7.251H132.155h0.125c0-1.705,0.249-3.686,0.648-5.231c0.2-0.772,0.438-1.437,0.696-1.898
			c0.258-0.467,0.536-0.703,0.759-0.695c0.223-0.007,0.5,0.228,0.758,0.695c0.78,1.389,1.347,4.573,1.345,7.129
			c0,1.705-0.25,2.883-0.638,3.62c-0.392,0.737-0.898,1.033-1.464,1.036c-0.567-0.003-1.073-0.299-1.465-1.036
			c-0.389-0.737-0.639-1.915-0.638-3.62H132.155z"/>
		<path fill="#231F20" d="M109.875,263.868h-0.125c0,1.729,0.25,2.941,0.667,3.736c0.414,0.794,1.022,1.172,1.687,1.169
			c0.664,0.003,1.271-0.375,1.686-1.169c0.417-0.795,0.667-2.007,0.667-3.736c0-1.729-0.25-3.723-0.657-5.294
			c-0.204-0.786-0.445-1.465-0.72-1.957c-0.275-0.487-0.584-0.816-0.976-0.823c-0.393,0.007-0.702,0.336-0.977,0.823
			c-0.819,1.472-1.374,4.655-1.376,7.251H109.875H110c0-1.705,0.249-3.686,0.648-5.231c0.2-0.772,0.438-1.437,0.696-1.898
			c0.258-0.467,0.536-0.703,0.759-0.695c0.223-0.007,0.5,0.228,0.758,0.695c0.78,1.389,1.347,4.573,1.345,7.129
			c0,1.705-0.25,2.883-0.638,3.62c-0.392,0.737-0.898,1.033-1.464,1.036c-0.567-0.003-1.073-0.299-1.465-1.036
			c-0.389-0.737-0.639-1.915-0.638-3.62H109.875z"/>
		<path fill="#231F20" d="M44.596,150.524c0.007,0.064,0.021,0.135,0.163,0.463c0.986,2.251,8.441,16.579,66.109,104.943
			c0.076,0.116,0.23,0.148,0.346,0.073c0.116-0.076,0.148-0.23,0.073-0.346c-32.95-50.487-49.507-76.809-57.825-90.504
			c-4.159-6.848-6.258-10.54-7.315-12.515c-0.528-0.987-0.796-1.545-0.93-1.851c-0.067-0.153-0.1-0.242-0.115-0.288l-0.011-0.036
			l-0.144,0.034l0.147-0.011l-0.003-0.022l-0.144,0.034l0.147-0.011c-0.01-0.138-0.13-0.241-0.268-0.23
			C44.688,150.267,44.585,150.387,44.596,150.524"/>
		<text transform="matrix(1 0 0 1 78.6953 179.6948)"><tspan x="0" y="0" fill="#231F20" font-family="'GillSans-Light'" font-size="10">do</tspan><tspan x="10.518" y="0" fill="#231F20" font-family="'GillSans-Light'" font-size="10">r</tspan><tspan x="14.088" y="0" fill="#231F20" font-family="'GillSans-Light'" font-size="10">a.l.chan@gmail.com</tspan></text>
		<text transform="matrix(1 0 0 1 96.4746 191.6948)" fill="#231F20" font-family="'GillSans-Light'" font-size="10">510.381.8656</text>
		<path fill="#231F20" d="M45.068,150.396c-5.497-11.497-8.729-23.971-8.729-36.665c0.002-48.352,38.89-83.183,86.902-83.189
			c48.013,0.006,86.899,34.838,86.902,83.189c0,12.694-3.233,25.169-8.73,36.666l-0.02,0.042l-0.004,0.047l0.147,0.011l-0.144-0.034
			l-0.003,0.022l0.147,0.011l-0.144-0.034c-0.004,0.028-0.16,0.544-1.381,2.776c-3.667,6.715-16.935,29.053-64.814,102.417
			c-0.075,0.116-0.043,0.271,0.073,0.346c0.116,0.075,0.271,0.043,0.346-0.073c32.951-50.49,49.51-76.814,57.833-90.518
			c4.162-6.852,6.264-10.549,7.329-12.538c0.532-0.995,0.805-1.562,0.947-1.887c0.142-0.328,0.156-0.399,0.163-0.463l-0.249-0.019
			l0.226,0.108c5.524-11.555,8.779-24.103,8.779-36.882c0.001-24.315-9.785-45.246-25.605-60.088
			c-15.819-14.843-37.67-23.602-61.797-23.602s-45.978,8.759-61.797,23.602c-15.82,14.842-25.606,35.772-25.605,60.088
			c0,12.779,3.253,25.327,8.777,36.881c0.06,0.125,0.209,0.177,0.333,0.118S45.127,150.521,45.068,150.396L45.068,150.396"/>
		<path fill="#FDEEC0" d="M45.124,150.561c0.019,0.051,0.048,0.125,0.093,0.227c0.133,0.306,0.401,0.864,0.93,1.851
			c1.057,1.975,3.156,5.667,7.315,12.515c0.449,0.739,0.922,1.515,1.42,2.33h1C51.751,162.223,48.115,156.548,45.124,150.561
			 M201.366,150.547c-2.993,5.994-6.63,11.671-10.766,16.936h1.002c4.682-7.654,7.13-11.899,8.41-14.243
			C200.991,151.45,201.286,150.764,201.366,150.547 M38.564,92.113H0.125v75.37h54.171c-7.292-11.931-9.087-15.468-9.537-16.495
			c-0.096-0.222-0.133-0.327-0.15-0.391c-5.52-11.55-8.77-24.092-8.77-36.866C35.839,106.171,36.785,98.937,38.564,92.113
			 M227.866,92.113h-19.947c1.779,6.824,2.725,14.059,2.725,21.619c0,12.77-3.25,25.308-8.767,36.855
			c-0.015,0.063-0.051,0.167-0.152,0.401c-0.142,0.325-0.415,0.892-0.947,1.887c-1.065,1.989-3.167,5.686-7.329,12.538
			c-0.401,0.66-0.822,1.351-1.261,2.07h35.678l25.105-37.685L227.866,92.113"/>
		<polyline fill="#79683A" points="0.125,92.113 0,92.113 0,167.483 0.125,167.483 0.125,92.113 		"/>
		<path fill="#FBB632" d="M207.402,92.113H39.082c-1.79,6.821-2.742,14.055-2.742,21.619c0,12.684,3.226,25.148,8.715,36.638
			c0.019,0.028,0.032,0.061,0.037,0.096l0.011,0.035c0.005,0.015,0.012,0.035,0.021,0.061c2.991,5.988,6.627,11.662,10.759,16.922
			H190.6c4.135-5.265,7.772-10.942,10.766-16.936c0.015-0.04,0.022-0.063,0.025-0.075l0.002-0.033l0.02-0.042
			c5.497-11.497,8.73-23.972,8.73-36.666C210.144,106.168,209.191,98.934,207.402,92.113"/>
		<path fill="#79683A" d="M45.055,150.369c0.004,0.009,0.009,0.018,0.013,0.027l0,0c0.06,0.125,0.007,0.274-0.118,0.333
			c-0.035,0.017-0.071,0.024-0.107,0.024c-0.094,0-0.183-0.052-0.226-0.142c-0.002-0.005-0.005-0.01-0.007-0.015
			c0.017,0.064,0.054,0.168,0.15,0.391c0.45,1.027,2.244,4.564,9.537,16.495h0.586c-0.498-0.814-0.971-1.591-1.42-2.33
			c-4.159-6.848-6.258-10.54-7.315-12.515c-0.528-0.987-0.796-1.545-0.93-1.851c-0.045-0.102-0.074-0.176-0.093-0.227
			c-0.01-0.025-0.017-0.045-0.021-0.061l-0.011-0.035C45.086,150.43,45.073,150.397,45.055,150.369"/>
		<path fill="#79683A" d="M39.082,92.113h-0.517c-1.779,6.824-2.726,14.059-2.725,21.619c0,12.774,3.25,25.315,8.77,36.866
			c0.002,0.005,0.005,0.01,0.007,0.015c0.043,0.09,0.132,0.142,0.226,0.142c0.036,0,0.073-0.008,0.107-0.024
			c0.125-0.06,0.177-0.209,0.118-0.333l0,0c-0.004-0.009-0.009-0.019-0.013-0.027c-5.489-11.489-8.715-23.954-8.715-36.638
			C36.34,106.168,37.292,98.934,39.082,92.113 M207.919,92.113h-0.517c1.79,6.821,2.742,14.055,2.742,21.619
			c0,12.694-3.233,25.169-8.73,36.666l-0.02,0.042l-0.002,0.033c-0.003,0.012-0.011,0.036-0.025,0.075
			c-0.08,0.216-0.375,0.903-1.354,2.693c-1.28,2.344-3.728,6.588-8.41,14.243h0.586c0.439-0.72,0.86-1.41,1.261-2.07
			c4.162-6.852,6.264-10.549,7.329-12.538c0.532-0.995,0.805-1.562,0.947-1.887c0.102-0.235,0.137-0.338,0.152-0.401
			c5.517-11.547,8.767-24.085,8.767-36.855C210.644,106.171,209.698,98.937,207.919,92.113"/>
		<text transform="matrix(1 0 0 1 75.834 162.2119)" fill="#FFFFFF" font-family="'AvenirNextCondensed-Bold'" font-size="42">CHAN</text>
		<text transform="matrix(1 0 0 1 75.415 126.3438)" fill="#FFFFFF" font-family="'AvenirNextCondensed-Bold'" font-size="42">DORA</text>
		<polyline fill="#B1B1B1" points="611.875,92.113 227.866,92.113 252.971,129.798 227.866,167.483 611.875,167.483 611.875,92.113 
					"/>
		<polyline fill="#434142" points="612,92.113 611.875,92.113 611.875,167.483 612,167.483 612,92.113 		"/>
		<text transform="matrix(1 0 0 1 291.8604 136.8438)"><tspan x="0" y="0" fill="#FFFFFF" font-family="'AvenirNextCondensed-UltraLightItalic'" font-size="24">ww</tspan><tspan x="24.672" y="0" fill="#FFFFFF" font-family="'AvenirNextCondensed-UltraLightItalic'" font-size="24">w</tspan><tspan x="36.144" y="0" fill="#FFFFFF" font-family="'AvenirNextCondensed-UltraLightItalic'" font-size="24">.do</tspan><tspan x="60.695" y="0" fill="#FFFFFF" font-family="'AvenirNextCondensed-UltraLightItalic'" font-size="24">r</tspan><tspan x="66.19" y="0" fill="#FFFFFF" font-family="'AvenirNextCondensed-UltraLightItalic'" font-size="24">alchan.com</tspan></text>
	</g>
</g>
<g id="Guidelines" display="none">
</g>
</svg>
