<?xml version="1.0" encoding="utf-8"?>
<!-- Generator: Adobe Illustrator 14.0.0, SVG Export Plug-In . SVG Version: 6.00 Build 43363)  -->
<!DOCTYPE svg PUBLIC "-//W3C//DTD SVG 1.1//EN" "http://www.w3.org/Graphics/SVG/1.1/DTD/svg11.dtd">
<svg version="1.1" xmlns="http://www.w3.org/2000/svg" xmlns:xlink="http://www.w3.org/1999/xlink" x="0px" y="0px" width="612px"
	 height="792px" viewBox="0 0 612 792" enable-background="new 0 0 612 792" xml:space="preserve">
<g id="Layer_8">
</g>
<g id="Layer_6">
</g>
<g id="Text">
</g>
<g id="Titles">
</g>
<g id="Underlay">
</g>
<g id="Overlay">
</g>
<g id="Layer_9">
	<g>
		<path fill="#F9D562" d="M576.116,631c0,6.627-5.372,12-12,12H206c-6.627,0-12-5.373-12-12v-63c0-6.627,5.373-12,12-12h358.116
			c6.628,0,12,5.373,12,12V631z"/>
		<text transform="matrix(1 0 0 1 278.8613 200.4263)"><tspan x="0" y="0" font-family="'GillSans'" font-size="11">Uni</tspan><tspan x="15.699" y="0" font-family="'GillSans'" font-size="11">v</tspan><tspan x="20.298" y="0" font-family="'GillSans'" font-size="11">ersity of Michigan</tspan><tspan x="98.598" y="0" font-family="'GillSans'" font-size="11" letter-spacing="-1">. </tspan><tspan x="101.865" y="0" font-family="'GillSans'" font-size="11">Ann</tspan><tspan x="120.202" y="0" font-family="'GillSans'" font-size="11" letter-spacing="-1"> </tspan><tspan x="122.158" y="0" font-family="'GillSans'" font-size="11">Arbo</tspan><tspan x="145.421" y="0" font-family="'GillSans'" font-size="11" letter-spacing="-1">r,</tspan><tspan x="149.988" y="0" font-family="'GillSans'" font-size="11"> MI</tspan></text>
		<text transform="matrix(1 0 0 1 278.8613 212.4263)"><tspan x="0" y="0" font-family="'GillSans-LightItalic'" font-size="10" letter-spacing="-1">T</tspan><tspan x="3.58" y="0" font-family="'GillSans-LightItalic'" font-size="10">aubman Coll</tspan><tspan x="50.729" y="0" font-family="'GillSans-LightItalic'" font-size="10">e</tspan><tspan x="55.121" y="0" font-family="'GillSans-LightItalic'" font-size="10">ge of</tspan><tspan x="73.632" y="0" font-family="'GillSans-LightItalic'" font-size="10"> </tspan><tspan x="75.61" y="0" font-family="'GillSans-LightItalic'" font-size="10">Architecture &amp; Urban Planning</tspan></text>
		<text transform="matrix(1 0 0 1 278.8613 224.4263)"><tspan x="0" y="0" font-family="'GillSans-Light'" font-size="10">M</tspan><tspan x="7.808" y="0" font-family="'GillSans-Light'" font-size="10">.</tspan><tspan x="8.775" y="0" font-family="'GillSans-Light'" font-size="10"> </tspan><tspan x="10.953" y="0" font-family="'GillSans-Light'" font-size="10">Arch &amp; M</tspan><tspan x="49.542" y="0" font-family="'GillSans-Light'" font-size="10">.</tspan><tspan x="50.51" y="0" font-family="'GillSans-Light'" font-size="10"> Urban Planning | 2009 - 2012</tspan></text>
		<text transform="matrix(1 0 0 1 278.8613 246.1968)"><tspan x="0" y="0" font-family="'GillSans'" font-size="11">Uni</tspan><tspan x="15.699" y="0" font-family="'GillSans'" font-size="11">v</tspan><tspan x="20.298" y="0" font-family="'GillSans'" font-size="11">ersity of Cali</tspan><tspan x="77.285" y="0" font-family="'GillSans'" font-size="11">f</tspan><tspan x="79.936" y="0" font-family="'GillSans'" font-size="11">ornia</tspan><tspan x="102.967" y="0" font-family="'GillSans'" font-size="11" letter-spacing="-1">.</tspan><tspan x="104.278" y="0" font-family="'GillSans'" font-size="11"> Ber</tspan><tspan x="123.152" y="0" font-family="'GillSans'" font-size="11">k</tspan><tspan x="128.103" y="0" font-family="'GillSans'" font-size="11">el</tspan><tspan x="135.783" y="0" font-family="'GillSans'" font-size="11">e</tspan><tspan x="140.888" y="0" font-family="'GillSans'" font-size="11">y</tspan><tspan x="144.836" y="0" font-family="'GillSans'" font-size="11" letter-spacing="-1">,</tspan><tspan x="146.148" y="0" font-family="'GillSans'" font-size="11"> </tspan><tspan x="149.204" y="0" font-family="'GillSans'" font-size="11">C</tspan><tspan x="157.256" y="0" font-family="'GillSans'" font-size="11">A</tspan></text>
		<text transform="matrix(1 0 0 1 278.8613 258.1968)"><tspan x="0" y="0" font-family="'GillSans-LightItalic'" font-size="10">Coll</tspan><tspan x="13.535" y="0" font-family="'GillSans-LightItalic'" font-size="10">e</tspan><tspan x="17.928" y="0" font-family="'GillSans-LightItalic'" font-size="10">ge of E</tspan><tspan x="44.524" y="0" font-family="'GillSans-LightItalic'" font-size="10">n</tspan><tspan x="49.015" y="0" font-family="'GillSans-LightItalic'" font-size="10">vironmental Design</tspan></text>
		<text transform="matrix(1 0 0 1 278.8613 270.1968)"><tspan x="0" y="0" font-family="'GillSans-Light'" font-size="10">B</tspan><tspan x="5.548" y="0" font-family="'GillSans-Light'" font-size="10">.A</tspan><tspan x="13.985" y="0" font-family="'GillSans-Light'" font-size="10">.</tspan><tspan x="14.953" y="0" font-family="'GillSans-Light'" font-size="10"> Degree &amp; Minor in City Planning | 2002 - 2006</tspan></text>
		<text transform="matrix(1 0 0 1 279 292.6616)"><tspan x="0" y="0" font-family="'GillSans'" font-size="11">F</tspan><tspan x="4.997" y="0" font-family="'GillSans'" font-size="11">eldman</tspan><tspan x="36.96" y="0" font-family="'GillSans'" font-size="11" letter-spacing="-1"> </tspan><tspan x="38.916" y="0" font-family="'GillSans'" font-size="11">A</tspan><tspan x="46.253" y="0" font-family="'GillSans'" font-size="11">r</tspan><tspan x="50.345" y="0" font-family="'GillSans'" font-size="11">chitectu</tspan><tspan x="85.987" y="0" font-family="'GillSans'" font-size="11">r</tspan><tspan x="90.124" y="0" font-family="'GillSans'" font-size="11">e</tspan></text>
		<text transform="matrix(1 0 0 1 279 304.6616)"><tspan x="0" y="0" font-family="'GillSans-LightItalic'" font-size="10">Designer/R</tspan><tspan x="40.405" y="0" font-family="'GillSans-LightItalic'" font-size="10">e</tspan><tspan x="44.737" y="0" font-family="'GillSans-LightItalic'" font-size="10">vit Specialist | </tspan></text>
		<text transform="matrix(1 0 0 1 376.4609 304.6616)"><tspan x="0" y="0" font-family="'GillSans-Light'" font-size="10">M</tspan><tspan x="7.808" y="0" font-family="'GillSans-Light'" font-size="10">a</tspan><tspan x="11.925" y="0" font-family="'GillSans-Light'" font-size="10">y 2012 -</tspan><tspan x="44.781" y="0" font-family="'GillSans-Light'" font-size="10"> </tspan><tspan x="46.97" y="0" font-family="'GillSans-Light'" font-size="10">August 2013</tspan></text>
		<text transform="matrix(1 0 0 1 315 316.0615)"><tspan x="0" y="0" fill="#636363" font-family="'GillSans-Light'" font-size="9.5">De</tspan><tspan x="11.583" y="0" fill="#636363" font-family="'GillSans-Light'" font-size="9.5">v</tspan><tspan x="15.494" y="0" fill="#636363" font-family="'GillSans-Light'" font-size="9.5">eloped schematic designs</tspan><tspan x="109.637" y="0" fill="#636363" font-family="'GillSans-Light'" font-size="9.5">,</tspan><tspan x="110.556" y="0" fill="#636363" font-family="'GillSans-Light'" font-size="9.5"> gene</tspan><tspan x="131.008" y="0" fill="#636363" font-family="'GillSans-Light'" font-size="9.5">r</tspan><tspan x="134.399" y="0" fill="#636363" font-family="'GillSans-Light'" font-size="9.5">ated flexi</tspan><tspan x="168.308" y="0" fill="#636363" font-family="'GillSans-Light'" font-size="9.5">b</tspan><tspan x="173.008" y="0" fill="#636363" font-family="'GillSans-Light'" font-size="9.5">le component lib</tspan><tspan x="236.196" y="0" fill="#636363" font-family="'GillSans-Light'" font-size="9.5">r</tspan><tspan x="239.588" y="0" fill="#636363" font-family="'GillSans-Light'" font-size="9.5">a</tspan><tspan x="243.642" y="0" fill="#636363" font-family="'GillSans-Light'" font-size="9.5">r</tspan><tspan x="247.471" y="0" fill="#636363" font-family="'GillSans-Light'" font-size="9.5">y </tspan></text>
		<text transform="matrix(1 0 0 1 279 327.4614)"><tspan x="0" y="0" fill="#636363" font-family="'GillSans-Light'" font-size="9.5" letter-spacing="33"> </tspan><tspan x="35.994" y="0" fill="#636363" font-family="'GillSans-Light'" font-size="9.5">f</tspan><tspan x="38.19" y="0" fill="#636363" font-family="'GillSans-Light'" font-size="9.5">or project us</tspan><tspan x="86.122" y="0" fill="#636363" font-family="'GillSans-Light'" font-size="9.5">e</tspan><tspan x="90.948" y="0" fill="#636363" font-family="'GillSans-Light'" font-size="9.5">,</tspan><tspan x="91.867" y="0" fill="#636363" font-family="'GillSans-Light'" font-size="9.5"> coordinated with consultants</tspan><tspan x="202.226" y="0" fill="#636363" font-family="'GillSans-Light'" font-size="9.5">,</tspan><tspan x="203.146" y="0" fill="#636363" font-family="'GillSans-Light'" font-size="9.5"> prepared const</tspan><tspan x="262.432" y="0" fill="#636363" font-family="'GillSans-Light'" font-size="9.5">r</tspan><tspan x="265.976" y="0" fill="#636363" font-family="'GillSans-Light'" font-size="9.5">uction </tspan></text>
		<text transform="matrix(1 0 0 1 279 338.8618)"><tspan x="0" y="0" fill="#636363" font-family="'GillSans-Light'" font-size="9.5" letter-spacing="33"> </tspan><tspan x="35.994" y="0" fill="#636363" font-family="'GillSans-Light'" font-size="9.5">documents</tspan><tspan x="77.366" y="0" fill="#636363" font-family="'GillSans-Light'" font-size="9.5">,</tspan><tspan x="78.285" y="0" fill="#636363" font-family="'GillSans-Light'" font-size="9.5"> and designed l</tspan><tspan x="134.19" y="0" fill="#636363" font-family="'GillSans-Light'" font-size="9.5">a</tspan><tspan x="138.103" y="0" fill="#636363" font-family="'GillSans-Light'" font-size="9.5">y</tspan><tspan x="141.884" y="0" fill="#636363" font-family="'GillSans-Light'" font-size="9.5">outs </tspan><tspan x="160.559" y="0" fill="#636363" font-family="'GillSans-Light'" font-size="9.5">f</tspan><tspan x="162.755" y="0" fill="#636363" font-family="'GillSans-Light'" font-size="9.5">or client presentations</tspan></text>
		<text transform="matrix(1 0 0 1 279 360.4028)"><tspan x="0" y="0" font-family="'GillSans'" font-size="11">The Ecolo</tspan><tspan x="45.338" y="0" font-family="'GillSans'" font-size="11">g</tspan><tspan x="50.252" y="0" font-family="'GillSans'" font-size="11">y Center</tspan></text>
		<text transform="matrix(1 0 0 1 279 372.4028)" font-family="'GillSans-LightItalic'" font-size="10">LEED Consultant | </text>
		<text transform="matrix(1 0 0 1 350.3516 372.4028)"><tspan x="0" y="0" font-family="'GillSans-Light'" font-size="10">Ja</tspan><tspan x="6.348" y="0" font-family="'GillSans-Light'" font-size="10">n</tspan><tspan x="11.16" y="0" font-family="'GillSans-Light'" font-size="10">ua</tspan><tspan x="20.33" y="0" font-family="'GillSans-Light'" font-size="10">r</tspan><tspan x="24.35" y="0" font-family="'GillSans-Light'" font-size="10">y 2011 - September 2011</tspan></text>
		<text transform="matrix(1 0 0 1 315 383.8027)"><tspan x="0" y="0" fill="#636363" font-family="'GillSans-Light'" font-size="9.5">Coordinated LEED(ID+C) documentation </tspan><tspan x="160.771" y="0" fill="#636363" font-family="'GillSans-Light'" font-size="9.5">f</tspan><tspan x="162.969" y="0" fill="#636363" font-family="'GillSans-Light'" font-size="9.5">or Gold Ce</tspan><tspan x="206.149" y="0" fill="#636363" font-family="'GillSans-Light'" font-size="9.5">r</tspan><tspan x="210.073" y="0" fill="#636363" font-family="'GillSans-Light'" font-size="9.5">ti</tspan><tspan x="214.726" y="0" fill="#636363" font-family="'GillSans-Light'" font-size="9.5">f</tspan><tspan x="216.818" y="0" fill="#636363" font-family="'GillSans-Light'" font-size="9.5">ication</tspan></text>
		<text transform="matrix(1 0 0 1 279 453.1699)"><tspan x="0" y="0" font-family="'GillSans'" font-size="11">Stoec</tspan><tspan x="24.857" y="0" font-family="'GillSans'" font-size="11">k</tspan><tspan x="29.808" y="0" font-family="'GillSans'" font-size="11">er &amp; No</tspan><tspan x="67.077" y="0" font-family="'GillSans'" font-size="11">r</tspan><tspan x="71.653" y="0" font-family="'GillSans'" font-size="11">thw</tspan><tspan x="88.729" y="0" font-family="'GillSans'" font-size="11">a</tspan><tspan x="92.982" y="0" font-family="'GillSans'" font-size="11">y</tspan></text>
		<text transform="matrix(1 0 0 1 279 465.1699)"><tspan x="0" y="0" font-family="'GillSans-LightItalic'" font-size="10">Architectu</tspan><tspan x="36.851" y="0" font-family="'GillSans-LightItalic'" font-size="10">r</tspan><tspan x="39.36" y="0" font-family="'GillSans-LightItalic'" font-size="10">al Inte</tspan><tspan x="62.549" y="0" font-family="'GillSans-LightItalic'" font-size="10">r</tspan><tspan x="65.549" y="0" font-family="'GillSans-LightItalic'" font-size="10">n/Designer | </tspan></text>
		<text transform="matrix(1 0 0 1 392.1094 465.1699)"><tspan x="0" y="0" font-family="'GillSans-Light'" font-size="10">June 2006 - Ju</tspan><tspan x="55.122" y="0" font-family="'GillSans-Light'" font-size="10">l</tspan><tspan x="56.912" y="0" font-family="'GillSans-Light'" font-size="10">y 2009</tspan></text>
		<text transform="matrix(1 0 0 1 315 476.5703)"><tspan x="0" y="0" fill="#636363" font-family="'GillSans-Light'" font-size="9.5">Prepared const</tspan><tspan x="56.647" y="0" fill="#636363" font-family="'GillSans-Light'" font-size="9.5">r</tspan><tspan x="60.191" y="0" fill="#636363" font-family="'GillSans-Light'" font-size="9.5">uction documents </tspan><tspan x="129.92" y="0" fill="#636363" font-family="'GillSans-Light'" font-size="9.5">f</tspan><tspan x="132.116" y="0" fill="#636363" font-family="'GillSans-Light'" font-size="9.5">or pe</tspan><tspan x="152.462" y="0" fill="#636363" font-family="'GillSans-Light'" font-size="9.5">r</tspan><tspan x="155.854" y="0" fill="#636363" font-family="'GillSans-Light'" font-size="9.5">mit submittals</tspan><tspan x="207.38" y="0" fill="#636363" font-family="'GillSans-Light'" font-size="9.5">,</tspan><tspan x="208.299" y="0" fill="#636363" font-family="'GillSans-Light'" font-size="9.5"> schematic </tspan></text>
		<text transform="matrix(1 0 0 1 279 487.9707)"><tspan x="0" y="0" fill="#636363" font-family="'GillSans-Light'" font-size="9.5" letter-spacing="33"> </tspan><tspan x="35.994" y="0" fill="#636363" font-family="'GillSans-Light'" font-size="9.5">designs</tspan><tspan x="62.61" y="0" fill="#636363" font-family="'GillSans-Light'" font-size="9.5">,</tspan><tspan x="63.53" y="0" fill="#636363" font-family="'GillSans-Light'" font-size="9.5"> design de</tspan><tspan x="101.456" y="0" fill="#636363" font-family="'GillSans-Light'" font-size="9.5">v</tspan><tspan x="105.367" y="0" fill="#636363" font-family="'GillSans-Light'" font-size="9.5">elopment</tspan><tspan x="141.095" y="0" fill="#636363" font-family="'GillSans-Light'" font-size="9.5">,</tspan><tspan x="142.014" y="0" fill="#636363" font-family="'GillSans-Light'" font-size="9.5"> presentation l</tspan><tspan x="195.586" y="0" fill="#636363" font-family="'GillSans-Light'" font-size="9.5">a</tspan><tspan x="199.497" y="0" fill="#636363" font-family="'GillSans-Light'" font-size="9.5">y</tspan><tspan x="203.269" y="0" fill="#636363" font-family="'GillSans-Light'" font-size="9.5">outs </tspan><tspan x="221.944" y="0" fill="#636363" font-family="'GillSans-Light'" font-size="9.5">f</tspan><tspan x="224.141" y="0" fill="#636363" font-family="'GillSans-Light'" font-size="9.5">or prelimina</tspan><tspan x="269.043" y="0" fill="#636363" font-family="'GillSans-Light'" font-size="9.5">r</tspan><tspan x="272.862" y="0" fill="#636363" font-family="'GillSans-Light'" font-size="9.5">y &amp; </tspan></text>
		<text transform="matrix(1 0 0 1 279 499.3711)"><tspan x="0" y="0" fill="#636363" font-family="'GillSans-Light'" font-size="9.5" letter-spacing="33"> </tspan><tspan x="35.994" y="0" fill="#636363" font-family="'GillSans-Light'" font-size="9.5">f</tspan><tspan x="38.086" y="0" fill="#636363" font-family="'GillSans-Light'" font-size="9.5">inal board revie</tspan><tspan x="95.805" y="0" fill="#636363" font-family="'GillSans-Light'" font-size="9.5">w</tspan><tspan x="102.009" y="0" fill="#636363" font-family="'GillSans-Light'" font-size="9.5">,</tspan><tspan x="102.928" y="0" fill="#636363" font-family="'GillSans-Light'" font-size="9.5"> const</tspan><tspan x="125.564" y="0" fill="#636363" font-family="'GillSans-Light'" font-size="9.5">r</tspan><tspan x="129.108" y="0" fill="#636363" font-family="'GillSans-Light'" font-size="9.5">uction administ</tspan><tspan x="185.505" y="0" fill="#636363" font-family="'GillSans-Light'" font-size="9.5">r</tspan><tspan x="188.896" y="0" fill="#636363" font-family="'GillSans-Light'" font-size="9.5">ation and project management</tspan></text>
		<text transform="matrix(1 0 0 1 582.3105 499.3711)" font-family="'GillSans-Light'" font-size="9.5"> </text>
		<text transform="matrix(1 0 0 1 278.7207 520.5645)"><tspan x="0" y="0" font-family="'GillSans'" font-size="11">MBH</tspan><tspan x="22.801" y="0" font-family="'GillSans'" font-size="11" letter-spacing="-1"> </tspan><tspan x="24.757" y="0" font-family="'GillSans'" font-size="11">A</tspan><tspan x="32.094" y="0" font-family="'GillSans'" font-size="11">r</tspan><tspan x="36.186" y="0" font-family="'GillSans'" font-size="11">chitects</tspan></text>
		<text transform="matrix(1 0 0 1 278.7207 532.5645)"><tspan x="0" y="0" font-family="'GillSans-LightItalic'" font-size="10">Lib</tspan><tspan x="10.63" y="0" font-family="'GillSans-LightItalic'" font-size="10">r</tspan><tspan x="13.14" y="0" font-family="'GillSans-LightItalic'" font-size="10">a</tspan><tspan x="17.93" y="0" font-family="'GillSans-LightItalic'" font-size="10">r</tspan><tspan x="20.88" y="0" font-family="'GillSans-LightItalic'" font-size="10">ian | </tspan></text>
		<text transform="matrix(1 0 0 1 318.5254 532.5645)" font-family="'GillSans-Light'" font-size="10">June 2003 - December 2003</text>
		<text transform="matrix(1 0 0 1 278.7207 543.9639)" font-family="'GillSans-Light'" font-size="9.5"> </text>
		<text transform="matrix(1 0 0 1 314.7207 543.9639)"><tspan x="0" y="0" fill="#636363" font-family="'GillSans-Light'" font-size="9.5">O</tspan><tspan x="7.82" y="0" fill="#636363" font-family="'GillSans-Light'" font-size="9.5">r</tspan><tspan x="11.212" y="0" fill="#636363" font-family="'GillSans-Light'" font-size="9.5">gani</tspan><tspan x="25.764" y="0" fill="#636363" font-family="'GillSans-Light'" font-size="9.5">z</tspan><tspan x="29.384" y="0" fill="#636363" font-family="'GillSans-Light'" font-size="9.5">ed and maintained mate</tspan><tspan x="119.624" y="0" fill="#636363" font-family="'GillSans-Light'" font-size="9.5">r</tspan><tspan x="123.016" y="0" fill="#636363" font-family="'GillSans-Light'" font-size="9.5">ial database</tspan></text>
		<text transform="matrix(1 0 0 1 278.8613 663.7832)"><tspan x="0" y="0" font-family="'GillSans-LightItalic'" font-size="10">Threshold Studio Honoree</tspan><tspan x="95.674" y="0" font-family="'GillSans-LightItalic'" font-size="10"> </tspan><tspan x="97.652" y="0" font-family="'GillSans-LightItalic'" font-size="10">Aw</tspan><tspan x="108.925" y="0" font-family="'GillSans-LightItalic'" font-size="10">ard |</tspan><tspan x="126.117" y="0" font-family="'GillSans-LightItalic'" font-size="10"> </tspan><tspan x="128.095" y="0" font-family="'GillSans-LightItalic'" font-size="10">Annual Student Sh</tspan><tspan x="196.239" y="0" font-family="'GillSans-LightItalic'" font-size="10">o</tspan><tspan x="200.632" y="0" font-family="'GillSans-LightItalic'" font-size="10">w | 2011</tspan></text>
		<text transform="matrix(1 0 0 1 278.8613 675.7832)"><tspan x="0" y="0" font-family="'GillSans-LightItalic'" font-size="10">Lorch Scholar |</tspan><tspan x="53.916" y="0" font-family="'GillSans-LightItalic'" font-size="10" letter-spacing="-1"> </tspan><tspan x="55.444" y="0" font-family="'GillSans-LightItalic'" font-size="10" letter-spacing="-1">T</tspan><tspan x="59.024" y="0" font-family="'GillSans-LightItalic'" font-size="10">aubman Schola</tspan><tspan x="116.275" y="0" font-family="'GillSans-LightItalic'" font-size="10">r</tspan><tspan x="119.226" y="0" font-family="'GillSans-LightItalic'" font-size="10">ship | 2009 - 2012</tspan></text>
		<text transform="matrix(1 0 0 1 278.8613 687.7832)"><tspan x="0" y="0" font-family="'GillSans-LightItalic'" font-size="10">Architecture</tspan><tspan x="44.043" y="0" font-family="'GillSans-LightItalic'" font-size="10"> </tspan><tspan x="46.021" y="0" font-family="'GillSans-LightItalic'" font-size="10">Alumni Schola</tspan><tspan x="97.955" y="0" font-family="'GillSans-LightItalic'" font-size="10">r</tspan><tspan x="100.905" y="0" font-family="'GillSans-LightItalic'" font-size="10">ship | 2010 - 2011</tspan></text>
		<text transform="matrix(1 0 0 1 278.8613 699.7832)"><tspan x="0" y="0" font-family="'GillSans-LightItalic'" font-size="10">G</tspan><tspan x="6.152" y="0" font-family="'GillSans-LightItalic'" font-size="10">r</tspan><tspan x="8.662" y="0" font-family="'GillSans-LightItalic'" font-size="10">aduate Honoree |</tspan><tspan x="74.785" y="0" font-family="'GillSans-LightItalic'" font-size="10"> </tspan><tspan x="76.764" y="0" font-family="'GillSans-LightItalic'" font-size="10">Annual Student Sh</tspan><tspan x="144.908" y="0" font-family="'GillSans-LightItalic'" font-size="10">o</tspan><tspan x="149.301" y="0" font-family="'GillSans-LightItalic'" font-size="10">w | 2010 | 2011</tspan></text>
		<text transform="matrix(1 0 0 1 278.8613 711.7832)"><tspan x="0" y="0" font-family="'GillSans-LightItalic'" font-size="10">Best Project | Raymond</tspan><tspan x="86.392" y="0" font-family="'GillSans-LightItalic'" font-size="10" letter-spacing="-1"> </tspan><tspan x="88.17" y="0" font-family="'GillSans-LightItalic'" font-size="10">W</tspan><tspan x="96.729" y="0" font-family="'GillSans-LightItalic'" font-size="10">atson</tspan><tspan x="116.93" y="0" font-family="'GillSans-LightItalic'" font-size="10"> </tspan><tspan x="118.908" y="0" font-family="'GillSans-LightItalic'" font-size="10">Aw</tspan><tspan x="130.181" y="0" font-family="'GillSans-LightItalic'" font-size="10">ard | 2003</tspan></text>
		<text transform="matrix(1 0 0 1 279 407.1699)" font-family="'GillSans'" font-size="11">UM Ross School of Business</text>
		<text transform="matrix(1 0 0 1 405.0752 407.1699)" font-family="'GillSans-Light'" font-size="9.5"> </text>
		<text transform="matrix(1 0 0 1 279 419.1699)" font-family="'GillSans-LightItalic'" font-size="10">Consultant | </text>
		<text transform="matrix(1 0 0 1 326.2305 419.1699)"><tspan x="0" y="0" font-family="'GillSans-Light'" font-size="10">M</tspan><tspan x="7.808" y="0" font-family="'GillSans-Light'" font-size="10">a</tspan><tspan x="11.925" y="0" font-family="'GillSans-Light'" font-size="10">y 2010 - Ju</tspan><tspan x="54.542" y="0" font-family="'GillSans-Light'" font-size="10">l</tspan><tspan x="56.332" y="0" font-family="'GillSans-Light'" font-size="10">y 2010</tspan></text>
		<text transform="matrix(1 0 0 1 279 430.5693)"><tspan x="0" y="0" fill="#636363" font-family="'GillSans-Light'" font-size="9.5" letter-spacing="33"> </tspan><tspan x="35.994" y="0" fill="#636363" font-family="'GillSans-Light'" font-size="9.5">Facilitated a Business Impr</tspan><tspan x="132.771" y="0" fill="#636363" font-family="'GillSans-Light'" font-size="9.5">o</tspan><tspan x="137.729" y="0" fill="#636363" font-family="'GillSans-Light'" font-size="9.5">v</tspan><tspan x="141.642" y="0" fill="#636363" font-family="'GillSans-Light'" font-size="9.5">ement Dist</tspan><tspan x="183.278" y="0" fill="#636363" font-family="'GillSans-Light'" font-size="9.5">r</tspan><tspan x="186.67" y="0" fill="#636363" font-family="'GillSans-Light'" font-size="9.5">ict Plan </tspan><tspan x="215.902" y="0" fill="#636363" font-family="'GillSans-Light'" font-size="9.5">f</tspan><tspan x="218.099" y="0" fill="#636363" font-family="'GillSans-Light'" font-size="9.5">or Dupont Circle</tspan></text>
		<text transform="matrix(1 0 0 1 390.9727 572.8223)" font-family="'GillSans-Light'" font-size="10">Rhino</text>
		<text transform="matrix(1 0 0 1 390.9727 584.8223)" font-family="'GillSans-Light'" font-size="10">Revit </text>
		<text transform="matrix(1 0 0 1 390.9727 596.8223)"><tspan x="0" y="0" font-family="'GillSans-Light'" font-size="10">Auto</tspan><tspan x="20.01" y="0" font-family="'GillSans-Light'" font-size="10">C</tspan><tspan x="27.218" y="0" font-family="'GillSans-Light'" font-size="10">AD</tspan></text>
		<text transform="matrix(1 0 0 1 390.9727 608.8223)"><tspan x="0" y="0" font-family="'GillSans-Light'" font-size="10">S</tspan><tspan x="4.692" y="0" font-family="'GillSans-Light'" font-size="10">k</tspan><tspan x="8.87" y="0" font-family="'GillSans-Light'" font-size="10">etchup Pro</tspan></text>
		<text transform="matrix(1 0 0 1 390.9727 620.8223)"><tspan x="0" y="0" font-family="'GillSans-Light'" font-size="10">V</tspan><tspan x="5.942" y="0" font-family="'GillSans-Light'" font-size="10">r</tspan><tspan x="9.513" y="0" font-family="'GillSans-Light'" font-size="10">a</tspan><tspan x="13.63" y="0" font-family="'GillSans-Light'" font-size="10">y</tspan></text>
		<text transform="matrix(1 0 0 1 390.9727 632.8223)" font-family="'GillSans-Light'" font-size="10">GIS</text>
		<text transform="matrix(1 0 0 1 278.8613 572.8223)"><tspan x="0" y="0" font-family="'GillSans-Light'" font-size="10">Adobe Illust</tspan><tspan x="47.153" y="0" font-family="'GillSans-Light'" font-size="10">r</tspan><tspan x="50.724" y="0" font-family="'GillSans-Light'" font-size="10">ator </tspan></text>
		<text transform="matrix(1 0 0 1 278.8613 584.8223)" font-family="'GillSans-Light'" font-size="10">Adobe Photoshop</text>
		<text transform="matrix(1 0 0 1 278.8613 596.8223)" font-family="'GillSans-Light'" font-size="10">Adobe Indesign</text>
		<text transform="matrix(1 0 0 1 278.8613 608.8223)" font-family="'GillSans-Light'" font-size="10">Adobe Premiere Pro</text>
		<text transform="matrix(1 0 0 1 278.8613 620.8223)"><tspan x="0" y="0" font-family="'GillSans-Light'" font-size="10">Adobe</tspan><tspan x="27.075" y="0" font-family="'GillSans-Light'" font-size="10"> </tspan><tspan x="29.254" y="0" font-family="'GillSans-Light'" font-size="10">Acrobat Pro</tspan></text>
		<text transform="matrix(1 0 0 1 278.8613 632.8223)" font-family="'GillSans-Light'" font-size="10">Social Media</text>
		<text transform="matrix(1 0 0 1 477.6992 572.8223)" font-family="'GillSans-Light'" font-size="10">HTML5 </text>
		<text transform="matrix(1 0 0 1 477.6992 584.8223)" font-family="'GillSans-Light'" font-size="10">CSS</text>
		<text transform="matrix(1 0 0 1 477.6992 596.8223)"><tspan x="0" y="0" font-family="'GillSans-Light'" font-size="10">JQue</tspan><tspan x="20.005" y="0" font-family="'GillSans-Light'" font-size="10">r</tspan><tspan x="24.025" y="0" font-family="'GillSans-Light'" font-size="10">y</tspan></text>
		<text transform="matrix(1 0 0 1 477.6992 608.8223)" font-family="'GillSans-Light'" font-size="10">3D Studio Max</text>
		<text transform="matrix(1 0 0 1 477.6992 620.8223)" font-family="'GillSans-Light'" font-size="10">Ecotect</text>
		<text transform="matrix(1 0 0 1 477.6992 632.8223)" font-family="'GillSans-Light'" font-size="10">USGBC LEED</text>
		<circle fill="#231F20" cx="231.569" cy="204.571" r="15.167"/>
		<text transform="matrix(1 0 0 1 206.7686 233.0112)"><tspan x="0" y="0" fill="#636363" font-family="'AvenirNextCondensed-Regular'" font-size="11">EDU</tspan><tspan x="16.599" y="0" fill="#636363" font-family="'AvenirNextCondensed-Regular'" font-size="11">C</tspan><tspan x="21.746" y="0" fill="#636363" font-family="'AvenirNextCondensed-Regular'" font-size="11">A</tspan><tspan x="26.663" y="0" fill="#636363" font-family="'AvenirNextCondensed-Regular'" font-size="11">TION</tspan></text>
		<path fill="#FFFFFF" d="M226.36,205.246l-0.566,2.835c0.087,1.613,5.256,2.127,5.256,2.127c5.007,0.421,5.647-1.299,5.647-1.299
			l0.131-0.479l-0.262-1.396h1.003l4.449-4.929l-13.434-1.482l-9.551,2.966l0.217,0.349L226.36,205.246z"/>
		<circle fill="#231F20" cx="231.569" cy="294.38" r="15.167"/>
		<text transform="matrix(1 0 0 1 207.7529 322.8208)" fill="#636363" font-family="'AvenirNextCondensed-Regular'" font-size="11">EXPERIENCE</text>
		<path fill="#FFFFFF" d="M223.709,298.691c-0.783-1.206-0.699-2.009-0.699-2.009l2.143-1.734c0,0-0.019-0.662,0.083-1.241
			l-2.272-1.835c0.297-1.407,0.926-1.916,0.926-1.916l2.742,0.289c0,0,0.454-0.482,0.936-0.819l-0.31-2.905
			c1.206-0.783,2.009-0.699,2.009-0.699l1.734,2.143c0,0,0.662-0.019,1.241,0.083l1.836-2.272c1.407,0.297,1.915,0.926,1.915,0.926
			l-0.289,2.741c0,0,0.482,0.455,0.82,0.937l2.904-0.31c0.783,1.206,0.699,2.009,0.699,2.009l-2.143,1.734
			c0,0,0.02,0.662-0.082,1.242l2.272,1.835c-0.298,1.406-0.927,1.915-0.927,1.915l-2.741-0.289c0,0-0.454,0.482-0.937,0.819
			l0.31,2.905c-1.206,0.783-2.009,0.699-2.009,0.699l-1.734-2.143c0,0-0.662,0.019-1.241-0.082l-1.835,2.271
			c-1.407-0.297-1.916-0.926-1.916-0.926l0.289-2.741c0,0-0.481-0.455-0.819-0.936L223.709,298.691z M231.57,291.356
			c-1.671,0-3.024,1.354-3.024,3.024c0,1.669,1.354,3.022,3.024,3.022c1.669,0,3.022-1.354,3.022-3.022
			C234.592,292.709,233.239,291.356,231.57,291.356z"/>
		<circle fill="#231F20" cx="231.57" cy="579.702" r="15.167"/>
		<text transform="matrix(1 0 0 1 214.0234 608.1406)"><tspan x="0" y="0" fill="#636363" font-family="'AvenirNextCondensed-Regular'" font-size="11">SKIL</tspan><tspan x="16.555" y="0" fill="#636363" font-family="'AvenirNextCondensed-Regular'" font-size="11">L</tspan><tspan x="20.229" y="0" fill="#636363" font-family="'AvenirNextCondensed-Regular'" font-size="11"> SET</tspan></text>
		<path fill="#FFFFFF" d="M237.467,576.412l1.196-0.057l2.921-2.869c0.271,0,1.405,2.869-0.644,5.26
			c-2.018,2.355-5.305,1.566-5.523,1.508l-8.654,8.684c0,0-1.252,0.969-2.903-0.283l-0.255-0.264
			c-1.253-1.652-0.285-2.904-0.285-2.904l8.684-8.654c-0.059-0.219-0.846-3.506,1.508-5.523c2.392-2.049,5.262-0.914,5.262-0.645
			l-2.87,2.922l-0.057,1.195L237.467,576.412z M225.661,585.443c-0.666,0-1.206,0.541-1.206,1.207s0.54,1.207,1.206,1.207
			c0.667,0,1.208-0.541,1.208-1.207S226.328,585.443,225.661,585.443z"/>
		<circle fill="#231F20" cx="231.57" cy="668.035" r="15.167"/>
		<text transform="matrix(1 0 0 1 204.2676 697.2246)"><tspan x="0" y="0" fill="#636363" font-family="'AvenirNextCondensed-Regular'" font-size="11">RE</tspan><tspan x="9.834" y="0" fill="#636363" font-family="'AvenirNextCondensed-Regular'" font-size="11">C</tspan><tspan x="14.971" y="0" fill="#636363" font-family="'AvenirNextCondensed-Regular'" font-size="11">OGNITION</tspan></text>
		<path fill="#FFFFFF" d="M227.112,677.361l0.226-0.96l0.452-0.846l1.411-0.622l1.016-0.45l0.057-0.961l-0.226-1.241l-1.242-0.678
			l-1.072-1.411l-0.226-0.847l-0.847-1.072c-3.047-2.991-2.822-5.136-2.822-5.136l0.113-0.678l0.338-0.564l2.992-0.17l0.113-1.016
			h8.351l0.112,1.016l2.992,0.17l0.338,0.564l0.114,0.678c0,0,0.226,2.145-2.822,5.136l-0.847,1.072l-0.226,0.847l-1.072,1.411
			l-1.242,0.678l-0.226,1.241l0.057,0.961l1.016,0.45l1.411,0.622l0.452,0.846l0.226,0.96H227.112z M226.943,662.685l-2.033,0.113
			l-0.226,0.509c0,0,0.452,2.37,2.032,3.499l0.339-0.508L226.943,662.685z M236.083,666.298l0.339,0.508
			c1.58-1.129,2.031-3.499,2.031-3.499l-0.225-0.509l-2.032-0.113L236.083,666.298z"/>
		<polygon fill="#231F20" points="129.102,248.507 129.223,247.972 129.394,247.558 129.71,247.096 129.32,246.949 128.883,246.707 
			128.396,245.83 128.299,245.538 128.274,245.027 128.225,244.711 127.934,243.324 127.958,242.643 127.836,241.231 
			127.739,239.699 127.958,238.774 128.348,238.458 129.053,238.239 129.248,238.093 129.345,237.752 129.466,237.533 
			129.758,237.46 129.855,237.314 129.612,236.949 129.686,236.219 129.661,235.514 129.71,234.492 129.978,233.883 
			130.367,233.129 131.146,232.107 131.729,231.718 132.216,231.596 132.678,231.596 133.262,231.718 133.773,232.18 134.26,232.91 
			134.722,234.321 134.868,236.487 134.722,237.12 134.527,238.823 134.771,239.31 134.844,239.796 134.552,240.258 134.211,240.77 
			134.503,241.183 134.819,241.305 135.379,241.791 135.792,241.913 136.133,242.277 136.522,242.277 137.496,241.645 
			137.91,241.28 138.202,240.721 139.126,239.772 139.15,239.479 139.345,239.236 139.54,239.066 139.686,239.188 139.759,239.431 
			140.124,239.431 140.635,239.236 141.219,239.091 141.413,239.31 141.389,239.577 141.365,239.796 140.878,240.063 
			140.464,240.331 139.808,240.501 139.637,240.866 139.662,241.207 140.026,241.572 139.808,241.743 139.808,242.059 
			139.126,242.594 138.202,243.397 137.034,244.395 136.522,244.443 136.036,244.443 135.525,244.273 134.795,244.03 
			134.819,245.076 135.062,245.149 135.087,245.514 135.331,246.074 135.306,246.901 135.185,247.947 135.16,248.799 
			129.029,248.799 		"/>
		<path fill="#FCA212" d="M49.123,120.777c0,43.646,42.317,81.649,78.437,81.649c36.117,0,78.437-38.002,78.437-81.649
			c0-43.646-35.118-75.095-78.437-75.095C84.24,45.682,49.123,77.131,49.123,120.777"/>
		<polygon fill="#636363" points="137.013,268.697 118.108,268.697 116.249,248.746 138.873,248.746 		"/>
		<polygon fill="#231F20" points="137.013,268.697 137.013,268.572 118.222,268.572 116.386,248.871 138.735,248.871 
			136.888,268.685 137.013,268.697 137.013,268.572 137.013,268.697 137.137,268.708 139.01,248.621 116.111,248.621 
			117.995,268.822 137.126,268.822 137.137,268.708 		"/>
		<text transform="matrix(1 0 0 1 94.5039 95.8193)"><tspan x="0" y="0" fill="#231F20" font-family="'AvenirNextCondensed-Bold'" font-size="12.6">U</tspan><tspan x="7.32" y="0" fill="#231F20" font-family="'AvenirNextCondensed-Bold'" font-size="12.6">X</tspan><tspan x="13.974" y="0" fill="#231F20" font-family="'AvenirNextCondensed-Bold'" font-size="12.6"> DESIGNER</tspan></text>
		<path fill="#231F20" d="M123.55,255.9h-0.125c0,1.557,0.224,2.65,0.602,3.368c0.374,0.718,0.926,1.062,1.529,1.059
			c0.602,0.003,1.154-0.341,1.528-1.059c0.377-0.718,0.602-1.811,0.602-3.368c0-1.558-0.226-3.353-0.591-4.768
			c-0.184-0.708-0.401-1.32-0.649-1.765c-0.248-0.439-0.528-0.74-0.889-0.747c-0.362,0.007-0.642,0.308-0.89,0.747
			c-0.739,1.33-1.238,4.194-1.241,6.532H123.55h0.125c0-1.533,0.224-3.315,0.583-4.705c0.179-0.694,0.394-1.292,0.625-1.705
			c0.231-0.419,0.479-0.626,0.672-0.619c0.192-0.007,0.439,0.2,0.671,0.619c0.7,1.246,1.211,4.112,1.209,6.41
			c0,1.533-0.225,2.591-0.573,3.251c-0.352,0.661-0.802,0.923-1.307,0.926c-0.505-0.003-0.956-0.265-1.308-0.926
			c-0.349-0.66-0.573-1.719-0.573-3.251H123.55z"/>
		<path fill="#231F20" d="M119.54,255.899h-0.125c0,1.557,0.225,2.65,0.602,3.369c0.374,0.718,0.926,1.062,1.529,1.059
			c0.602,0.003,1.154-0.341,1.528-1.059c0.377-0.719,0.601-1.812,0.602-3.369c0-1.558-0.226-3.353-0.591-4.767
			c-0.184-0.708-0.401-1.32-0.649-1.765c-0.248-0.439-0.528-0.74-0.889-0.747c-0.361,0.007-0.642,0.308-0.89,0.747
			c-0.739,1.329-1.238,4.193-1.241,6.532H119.54h0.125c0-1.533,0.224-3.315,0.583-4.705c0.18-0.694,0.394-1.292,0.626-1.705
			c0.231-0.419,0.479-0.626,0.671-0.619c0.192-0.007,0.439,0.2,0.671,0.619c0.701,1.246,1.211,4.112,1.209,6.41
			c0,1.533-0.225,2.592-0.573,3.252c-0.352,0.661-0.802,0.923-1.307,0.926c-0.505-0.003-0.956-0.265-1.308-0.926
			c-0.349-0.66-0.573-1.719-0.573-3.252H119.54z"/>
		<path fill="#231F20" d="M127.561,255.9h-0.125c0,1.557,0.224,2.65,0.602,3.368c0.374,0.718,0.926,1.062,1.529,1.059
			c0.602,0.003,1.154-0.341,1.528-1.059c0.377-0.718,0.602-1.811,0.602-3.368c0-1.558-0.226-3.353-0.591-4.768
			c-0.184-0.708-0.401-1.32-0.649-1.765c-0.248-0.439-0.528-0.74-0.889-0.747c-0.362,0.007-0.642,0.308-0.89,0.747
			c-0.739,1.33-1.238,4.194-1.24,6.532H127.561h0.125c0-1.533,0.223-3.315,0.583-4.705c0.18-0.694,0.394-1.292,0.625-1.705
			c0.231-0.419,0.479-0.626,0.672-0.619c0.192-0.007,0.439,0.2,0.671,0.619c0.7,1.246,1.211,4.112,1.209,6.41
			c0,1.533-0.225,2.591-0.573,3.251c-0.352,0.661-0.802,0.923-1.307,0.926c-0.505-0.003-0.956-0.265-1.308-0.926
			c-0.349-0.66-0.573-1.719-0.573-3.251H127.561z"/>
		<path fill="#231F20" d="M131.571,255.9h-0.125c0,1.557,0.225,2.65,0.602,3.368c0.374,0.718,0.926,1.062,1.529,1.059
			c0.602,0.003,1.154-0.341,1.528-1.059c0.377-0.718,0.601-1.811,0.602-3.368c0-1.558-0.226-3.353-0.591-4.768
			c-0.183-0.708-0.401-1.32-0.649-1.765c-0.248-0.439-0.528-0.74-0.889-0.747c-0.362,0.007-0.642,0.308-0.89,0.747
			c-0.739,1.33-1.238,4.194-1.241,6.532H131.571h0.125c0-1.533,0.224-3.315,0.583-4.705c0.179-0.694,0.394-1.292,0.625-1.705
			c0.231-0.419,0.479-0.626,0.672-0.619c0.192-0.007,0.439,0.2,0.671,0.619c0.7,1.246,1.211,4.112,1.208,6.41
			c0,1.533-0.225,2.591-0.573,3.251c-0.352,0.661-0.802,0.923-1.307,0.926c-0.505-0.003-0.956-0.265-1.308-0.926
			c-0.349-0.66-0.573-1.719-0.573-3.251H131.571z"/>
		<path fill="#231F20" d="M135.582,255.9h-0.125c0,1.557,0.224,2.65,0.602,3.368c0.374,0.718,0.926,1.062,1.529,1.059
			c0.602,0.003,1.154-0.341,1.528-1.059c0.377-0.718,0.602-1.811,0.602-3.368c0-1.558-0.226-3.353-0.591-4.768
			c-0.184-0.708-0.401-1.32-0.649-1.765c-0.248-0.439-0.528-0.74-0.889-0.747c-0.362,0.007-0.642,0.308-0.89,0.747
			c-0.739,1.33-1.238,4.194-1.241,6.532H135.582h0.125c0-1.533,0.224-3.315,0.583-4.705c0.179-0.694,0.394-1.292,0.625-1.705
			c0.231-0.419,0.479-0.626,0.672-0.619c0.192-0.007,0.439,0.2,0.671,0.619c0.7,1.246,1.211,4.112,1.209,6.41
			c0,1.533-0.225,2.591-0.573,3.251c-0.352,0.661-0.802,0.923-1.307,0.926c-0.505-0.003-0.956-0.265-1.308-0.926
			c-0.349-0.66-0.573-1.719-0.573-3.251H135.582z"/>
		<path fill="#231F20" d="M115.529,255.9h-0.125c0,1.557,0.225,2.65,0.602,3.368c0.374,0.718,0.926,1.062,1.529,1.059
			c0.602,0.003,1.154-0.341,1.528-1.059c0.377-0.718,0.602-1.811,0.602-3.368c0-1.558-0.226-3.353-0.591-4.768
			c-0.184-0.708-0.401-1.32-0.649-1.765c-0.248-0.439-0.528-0.74-0.889-0.747c-0.362,0.007-0.642,0.308-0.89,0.747
			c-0.739,1.33-1.238,4.194-1.241,6.532H115.529h0.125c0-1.533,0.224-3.315,0.583-4.705c0.179-0.694,0.394-1.292,0.625-1.705
			c0.231-0.419,0.479-0.626,0.672-0.619c0.192-0.007,0.439,0.2,0.671,0.619c0.7,1.246,1.211,4.112,1.209,6.41
			c0,1.533-0.225,2.591-0.573,3.251c-0.352,0.661-0.802,0.923-1.307,0.926c-0.505-0.003-0.956-0.265-1.308-0.926
			c-0.349-0.66-0.573-1.719-0.573-3.251H115.529z"/>
		<path fill="#231F20" d="M56.754,153.893c0.007,0.064,0.021,0.129,0.148,0.425c0.89,2.03,7.6,14.924,59.5,94.452
			c0.076,0.116,0.23,0.148,0.346,0.073c0.116-0.076,0.148-0.23,0.073-0.346c-29.655-45.439-44.556-69.127-52.042-81.453
			c-3.743-6.163-5.632-9.485-6.583-11.262c-0.476-0.888-0.716-1.39-0.836-1.664c-0.06-0.137-0.09-0.217-0.103-0.257l-0.009-0.031
			l-0.154,0.036l0.158-0.012l-0.003-0.024l-0.154,0.036l0.158-0.012c-0.011-0.138-0.131-0.241-0.269-0.23
			C56.846,153.635,56.743,153.755,56.754,153.893"/>
		<text transform="matrix(1 0 0 1 87.4688 180.144)"><tspan x="0" y="0" fill="#231F20" font-family="'GillSans-Light'" font-size="9">do</tspan><tspan x="9.466" y="0" fill="#231F20" font-family="'GillSans-Light'" font-size="9">r</tspan><tspan x="12.679" y="0" fill="#231F20" font-family="'GillSans-Light'" font-size="9">a.l.chan@gmail.com</tspan></text>
		<text transform="matrix(1 0 0 1 103.4697 190.9438)" fill="#231F20" font-family="'GillSans-Light'" font-size="9">510.381.8656</text>
		<path fill="#231F20" d="M57.226,153.765c-4.946-10.344-7.853-21.567-7.853-32.988c0.002-43.501,34.987-74.839,78.187-74.845
			c43.199,0.006,78.184,31.343,78.187,74.845c0,11.42-2.909,22.645-7.855,32.989l-0.02,0.042l-0.004,0.047l0.158,0.012l-0.154-0.036
			l-0.003,0.024l0.158,0.012l-0.154-0.036c-0.001,0.02-0.142,0.485-1.241,2.493c-3.299,6.042-15.24,26.146-58.332,92.173
			c-0.075,0.116-0.043,0.271,0.073,0.346c0.116,0.075,0.271,0.043,0.346-0.073c29.656-45.441,44.56-69.133,52.051-81.467
			c3.746-6.167,5.638-9.495,6.596-11.285c0.479-0.896,0.725-1.406,0.854-1.7c0.127-0.296,0.141-0.361,0.149-0.425l-0.25-0.019
			l0.226,0.108c4.973-10.401,7.904-21.699,7.904-33.205c0.001-21.891-8.81-40.735-23.053-54.097
			c-14.242-13.363-33.914-21.248-55.634-21.248S86.168,53.316,71.925,66.68c-14.243,13.362-23.053,32.207-23.052,54.097
			c0,11.506,2.929,22.802,7.902,33.204c0.06,0.125,0.209,0.177,0.333,0.118S57.286,153.889,57.226,153.765L57.226,153.765"/>
		<path fill="#FDEEC0" d="M57.437,154.287c0.137,0.296,0.369,0.765,0.76,1.495c0.951,1.777,2.84,5.099,6.583,11.262
			c0.407,0.669,0.834,1.372,1.286,2.11h0.871C63.303,164.526,60.094,159.542,57.437,154.287 M197.689,154.274
			c-2.658,5.26-5.869,10.248-9.507,14.879h0.873c4.217-6.896,6.424-10.721,7.576-12.83
			C197.209,155.266,197.522,154.636,197.689,154.274 M51.325,101.32H0v67.833h65.479c-6.557-10.728-8.171-13.91-8.577-14.835
			c-0.086-0.2-0.12-0.294-0.136-0.354c-4.968-10.397-7.894-21.687-7.894-33.187C48.873,113.972,49.724,107.463,51.325,101.32
			 M221.722,101.32h-17.927c1.601,6.143,2.452,12.652,2.452,19.457c0,11.496-2.926,22.784-7.891,33.178
			c-0.015,0.06-0.048,0.153-0.138,0.363c-0.128,0.293-0.375,0.804-0.854,1.7c-0.958,1.791-2.851,5.118-6.596,11.285
			c-0.358,0.59-0.734,1.207-1.127,1.851h32.081l22.594-33.917L221.722,101.32"/>
		<path fill="#FBB632" d="M203.278,101.32H51.842c-1.611,6.139-2.468,12.649-2.469,19.457c0,11.412,2.903,22.626,7.841,32.963
			c0.017,0.028,0.03,0.059,0.035,0.093l0.009,0.028c0.013,0.04,0.042,0.12,0.103,0.257c0.021,0.049,0.046,0.105,0.076,0.169
			c2.657,5.255,5.866,10.239,9.5,14.866h121.245c3.638-4.631,6.849-9.619,9.507-14.879c0.131-0.284,0.172-0.403,0.181-0.436
			l0.002-0.031l0.02-0.042c4.946-10.344,7.855-21.568,7.855-32.989C205.747,113.969,204.889,107.459,203.278,101.32"/>
		<path fill="#79683A" d="M57.214,153.74c0.004,0.008,0.008,0.017,0.012,0.025l0,0c0.06,0.125,0.007,0.274-0.118,0.333
			c-0.035,0.017-0.072,0.024-0.108,0.024c-0.093,0-0.183-0.052-0.226-0.142c-0.003-0.006-0.005-0.012-0.008-0.017
			c0.016,0.06,0.05,0.154,0.136,0.354c0.406,0.926,2.021,4.107,8.577,14.835h0.586c-0.452-0.738-0.879-1.44-1.286-2.11
			c-3.743-6.163-5.632-9.485-6.583-11.262c-0.391-0.729-0.623-1.199-0.76-1.495c-0.03-0.064-0.055-0.121-0.076-0.169
			c-0.06-0.137-0.09-0.217-0.103-0.257l-0.009-0.028C57.244,153.799,57.231,153.768,57.214,153.74"/>
		<path fill="#79683A" d="M51.842,101.32h-0.517c-1.601,6.143-2.452,12.652-2.452,19.457c0,11.5,2.925,22.79,7.894,33.187
			c0.003,0.005,0.005,0.011,0.008,0.017c0.043,0.09,0.132,0.142,0.226,0.142c0.036,0,0.073-0.008,0.108-0.024
			c0.125-0.06,0.177-0.209,0.118-0.333l0,0c-0.004-0.008-0.008-0.017-0.012-0.025c-4.938-10.336-7.841-21.551-7.841-32.963
			C49.374,113.969,50.23,107.459,51.842,101.32 M203.795,101.32h-0.517c1.611,6.139,2.468,12.648,2.469,19.457
			c0,11.42-2.909,22.645-7.855,32.989l-0.02,0.042l-0.002,0.031c-0.009,0.032-0.05,0.151-0.181,0.436
			c-0.167,0.362-0.479,0.992-1.058,2.049c-1.152,2.109-3.358,5.935-7.576,12.83h0.586c0.393-0.644,0.769-1.26,1.127-1.851
			c3.746-6.167,5.638-9.495,6.596-11.285c0.479-0.896,0.725-1.406,0.854-1.7c0.09-0.209,0.123-0.303,0.138-0.363
			c4.965-10.394,7.891-21.682,7.891-33.178C206.247,113.972,205.396,107.463,203.795,101.32"/>
		<text transform="matrix(1 0 0 1 84.8926 164.4097)" fill="#FFFFFF" font-family="'AvenirNextCondensed-Bold'" font-size="37.8">CHAN</text>
		<text transform="matrix(1 0 0 1 84.5166 132.1279)" fill="#FFFFFF" font-family="'AvenirNextCondensed-Bold'" font-size="37.8">DORA</text>
		<polyline fill="#8A8A8A" points="612,101.32 221.722,101.32 244.316,135.237 221.722,169.153 612,169.153 612,101.32 		"/>
		<text transform="matrix(1 0 0 1 284.8613 140.502)"><tspan x="0" y="0" fill="#FFFFFF" font-family="'AvenirNextCondensed-UltraLightItalic'" font-size="16.2">ww</tspan><tspan x="16.653" y="0" fill="#FFFFFF" font-family="'AvenirNextCondensed-UltraLightItalic'" font-size="16.2">w</tspan><tspan x="24.413" y="0" fill="#FFFFFF" font-family="'AvenirNextCondensed-UltraLightItalic'" font-size="16.2">.do</tspan><tspan x="40.985" y="0" fill="#FFFFFF" font-family="'AvenirNextCondensed-UltraLightItalic'" font-size="16.2">r</tspan><tspan x="44.679" y="0" fill="#FFFFFF" font-family="'AvenirNextCondensed-UltraLightItalic'" font-size="16.2">alchan.com</tspan></text>
	</g>
</g>
<g id="Guidelines" display="none">
</g>
</svg>
