<?xml version="1.0" encoding="utf-8"?>
<!-- Generator: Adobe Illustrator 17.1.0, SVG Export Plug-In . SVG Version: 6.00 Build 0)  -->
<!DOCTYPE svg PUBLIC "-//W3C//DTD SVG 1.1//EN" "http://www.w3.org/Graphics/SVG/1.1/DTD/svg11.dtd">
<svg version="1.1" id="Layer_2" xmlns="http://www.w3.org/2000/svg" xmlns:xlink="http://www.w3.org/1999/xlink" x="0px" y="0px"
	 viewBox="0 0 400 400" enable-background="new 0 0 400 400" xml:space="preserve">
<g>
	<path fill="#C12128" d="M170.9,210.3c-18.6,13.3-28.9,5.5-28.9,5.5s-3.8,1.7-7.8,31.7C132,263.8,112.1,273,99.1,278
		c0,0-23.9,9-24.9,31.5c0,0,0,5.8,4.3,3c4.2-2.8,1.4-5.2,7-16.2c3.1-6.1,13.2-12.2,25-15c0,0,20.4-4.8,28.7-21.9
		c10.2-21,25.1-37.1,31.6-38L170.9,210.3z"/>
	<path fill="#C12128" d="M192.9,246c3.3-11.2,8.3-16.5,8.3-16.5c14.5,12.6,22.3,17.3,22.3,17.3s45.8,36.8,9.5,96
		c-37.9,61.8-29.3,33-29.3,33s7.9-12,14.3-20.7c8.6-11.6,17.7-31.3,18.3-42.1c0.6,0.1,4.6-42.6-35-63.2L192.9,246"/>
	<polygon points="194,366.5 214.9,385.6 218.1,382.1 197.2,363 192.9,362.2 	"/>
	<path fill="#C12128" d="M253.8,28.2c0,0,11-7.2,31.5-14.5l-17.7-2.5L253.8,28.2z"/>
	<path fill="#E81E25" d="M197.2,202.4c-24.5-15.2-29.5-23.8-29.5-23.8s-7-124,128.1-167.3c0,0,43.9-15,35.9,33
		c0.1-0.3-15.5,108.2-112.5,169.2C219.2,213.5,211.4,211.2,197.2,202.4z"/>
	<circle cx="218.7" cy="192.5" r="4.8"/>
	<path fill="#C12128" d="M333.2,44.3c-3.9,27.1-16.5,54.9-16.5,54.9l28.4-21.6L333.2,44.3z"/>
	<polygon points="303.5,267.1 329.3,255.7 327.4,251.3 301.6,262.8 299.1,266.5 	"/>
	<polygon points="129.3,307.5 153.3,292.6 150.8,288.5 126.8,303.5 124.8,307.5 	"/>
	<polygon points="80,252.2 99.1,231.3 95.6,228.1 76.5,249 75.7,253.3 	"/>
	<polygon points="88.4,311.1 66.2,293.6 63.2,297.4 85.5,314.8 89.9,315.3 	"/>
	<path fill="#E81E25" d="M201.2,229.5c0,0-14.7,15.8-14.8,62.8c-0.1,43.2-26.5,38.5-37,25c-8.7-11.1-14-21.5-14-21.5
		s-2.8-7.8,3.9-4.2c7.4,3.9,15.5,24.2,23.3,24.5c0,0,15.6,5,15.3-11.5s-1.3-33.4-4.3-49.4c-3-16-2.9-37.8-2.9-37.8l0.2-7
		c-11.8,9-26,13.2-35.2-1.2c-9.2-14.4-26.5-28.1-39.5-27.8c-11,0.2-26,7.2-27.8,30.2s21.2,30.2,22.5,34c1.3,3.8-3.5,3.5-3.5,3.5
		c-47-24.2-18.8-67.8-18.8-67.8c18.8-30.5,71.5,6.4,71.5,6.4c22.5,12.4,26.7-7.6,26.7-7.6s5,8.6,29.5,23.8c14.2,8.8,22,11.1,22,11.1
		s2.6,13.2,16.6,5.2s43.7-68.9,86.3-47.3c38.7,19.6,4,46.3-3,64.3c-3,7.6-5,17-0.3,23.7c0,0,2,7.3-2,6c-4-1.3-12.7-21.3-0.7-42
		c12-20.7,17.7-28.6,7.3-37.2c0,0-18-12.2-32.3,0c-14.3,12.2-24.6,30.8-45.3,51.6c-11.2,11.3-18.3,11.1-28.5,3.4
		C216.5,242.6,209.3,237.3,201.2,229.5z"/>
	<path d="M58.3,253.3h-0.4c0,3.5,2.9,6.4,6.4,6.4c3.5,0,6.4-2.9,6.4-6.4c0-3.5-2.9-6.4-6.4-6.4c-3.5,0-6.4,2.9-6.4,6.4H58.3h0.4
		c0-1.6,0.6-3,1.6-4c1-1,2.4-1.6,4-1.6c1.6,0,3,0.6,4,1.6c1,1,1.6,2.4,1.6,4c0,1.6-0.6,3-1.6,4c-1,1-2.4,1.6-4,1.6
		c-1.6,0-3-0.6-4-1.6c-1-1-1.6-2.4-1.6-4H58.3z"/>
	<path d="M87.4,321.6H87c0,4.8,3.9,8.7,8.7,8.7c4.8,0,8.7-3.9,8.7-8.7c0-4.8-3.9-8.7-8.7-8.7c-4.8,0-8.7,3.9-8.7,8.7H87.4h0.4
		c0-2.2,0.9-4.2,2.3-5.7c1.4-1.4,3.4-2.3,5.7-2.3c2.2,0,4.2,0.9,5.7,2.3c1.4,1.4,2.3,3.4,2.3,5.7c0,2.2-0.9,4.2-2.3,5.7
		c-1.4,1.4-3.4,2.3-5.7,2.3c-2.2,0-4.2-0.9-5.7-2.3c-1.4-1.4-2.3-3.4-2.3-5.7H87.4z"/>
	<path d="M282.3,267.6H282c0,4.8,3.9,8.7,8.7,8.7c4.8,0,8.7-3.9,8.7-8.7c0-4.8-3.9-8.7-8.7-8.7c-4.8,0-8.7,3.9-8.7,8.7H282.3h0.4
		c0-2.2,0.9-4.2,2.3-5.7c1.4-1.4,3.4-2.3,5.7-2.3c2.2,0,4.2,0.9,5.7,2.3c1.4,1.4,2.3,3.4,2.3,5.7c0,2.2-0.9,4.2-2.3,5.7
		c-1.4,1.4-3.4,2.3-5.7,2.3c-2.2,0-4.2-0.9-5.7-2.3c-1.4-1.4-2.3-3.4-2.3-5.7H282.3z"/>
	<path d="M75.7,263.5h-0.4c0,2.5,2,4.5,4.5,4.5c2.5,0,4.5-2,4.5-4.5c0-2.5-2-4.5-4.5-4.5c-2.5,0-4.5,2-4.5,4.5H75.7h0.4
		c0-1,0.4-2,1.1-2.6c0.7-0.7,1.6-1.1,2.6-1.1c1,0,2,0.4,2.6,1.1c0.7,0.7,1.1,1.6,1.1,2.6c0,1-0.4,2-1.1,2.6
		c-0.7,0.7-1.6,1.1-2.6,1.1c-1,0-2-0.4-2.6-1.1c-0.7-0.7-1.1-1.6-1.1-2.6H75.7z"/>
	<path d="M183,358.9h-0.4c0,2.9,2.3,5.2,5.2,5.2c2.9,0,5.2-2.3,5.2-5.2c0-2.9-2.3-5.2-5.2-5.2c-2.9,0-5.2,2.3-5.2,5.2H183h0.4
		c0-1.2,0.5-2.4,1.3-3.2c0.8-0.8,1.9-1.3,3.2-1.3c1.2,0,2.4,0.5,3.2,1.3c0.8,0.8,1.3,1.9,1.3,3.2c0,1.2-0.5,2.4-1.3,3.2
		c-0.8,0.8-1.9,1.3-3.2,1.3c-1.2,0-2.4-0.5-3.2-1.3c-0.8-0.8-1.3-1.9-1.3-3.2H183z"/>
	<path d="M172.6,363.8h-0.4c0,2,1.7,3.7,3.7,3.7c2,0,3.7-1.7,3.7-3.7c0-2-1.7-3.7-3.7-3.7c-2,0-3.7,1.7-3.7,3.7H172.6h0.4
		c0-1.6,1.3-3,3-3c1.6,0,3,1.3,3,3c0,1.6-1.3,3-3,3c-1.6,0-3-1.3-3-3H172.6z"/>
	<path d="M175.9,353h-0.4c0,1.4,1.2,2.6,2.6,2.6c1.4,0,2.6-1.2,2.6-2.6c0-1.4-1.2-2.6-2.6-2.6c-1.4,0-2.6,1.2-2.6,2.6H175.9h0.4
		c0-1,0.8-1.8,1.8-1.8c1,0,1.8,0.8,1.8,1.8c0,1-0.8,1.8-1.8,1.8c-1,0-1.8-0.8-1.8-1.8H175.9z"/>
	<path d="M285.2,287.2h-0.4c0,1.9,1.5,3.3,3.3,3.3c1.9,0,3.3-1.5,3.3-3.3c0-1.9-1.5-3.3-3.3-3.3c-1.9,0-3.3,1.5-3.3,3.3H285.2h0.4
		c0-1.4,1.2-2.6,2.6-2.6c1.4,0,2.6,1.2,2.6,2.6c0,1.4-1.2,2.6-2.6,2.6c-1.4,0-2.6-1.2-2.6-2.6H285.2z"/>
	<path d="M122.5,289.5h-0.4c0,2.5,2,4.5,4.5,4.5c2.5,0,4.5-2,4.5-4.5c0-2.5-2-4.5-4.5-4.5c-2.5,0-4.5,2-4.5,4.5H122.5h0.4
		c0-1,0.4-2,1.1-2.6c0.7-0.7,1.6-1.1,2.6-1.1c1,0,2,0.4,2.6,1.1c0.7,0.7,1.1,1.6,1.1,2.6c0,1-0.4,2-1.1,2.6
		c-0.7,0.7-1.6,1.1-2.6,1.1c-1,0-2-0.4-2.6-1.1c-0.7-0.7-1.1-1.6-1.1-2.6H122.5z"/>
	<path d="M299.1,280.1h-0.4c0,2.5,2,4.5,4.5,4.5c2.5,0,4.5-2,4.5-4.5c0-2.5-2-4.5-4.5-4.5c-2.5,0-4.5,2-4.5,4.5H299.1h0.4
		c0-1,0.4-2,1.1-2.6c0.7-0.7,1.6-1.1,2.6-1.1c1,0,2,0.4,2.6,1.1c0.7,0.7,1.1,1.6,1.1,2.6c0,1-0.4,2-1.1,2.6
		c-0.7,0.7-1.6,1.1-2.6,1.1c-1,0-2-0.4-2.6-1.1c-0.7-0.7-1.1-1.6-1.1-2.6H299.1z"/>
	<path d="M336.8,267.1h-0.4c0,4.8,3.9,8.7,8.7,8.7c4.8,0,8.7-3.9,8.7-8.7c0-4.8-3.9-8.7-8.7-8.7c-4.8,0-8.7,3.9-8.7,8.7H336.8h0.4
		c0-2.2,0.9-4.2,2.3-5.7c1.4-1.4,3.4-2.3,5.7-2.3c2.2,0,4.2,0.9,5.7,2.3c1.4,1.4,2.3,3.4,2.3,5.7c0,2.2-0.9,4.2-2.3,5.7
		c-1.4,1.4-3.4,2.3-5.7,2.3c-2.2,0-4.2-0.9-5.7-2.3c-1.4-1.4-2.3-3.4-2.3-5.7H336.8z"/>
	<path d="M150.3,367.1h-0.4c0,1.9,1.5,3.3,3.3,3.3c1.9,0,3.3-1.5,3.3-3.3c0-1.9-1.5-3.3-3.3-3.3c-1.9,0-3.3,1.5-3.3,3.3H150.3h0.4
		c0-1.4,1.2-2.6,2.6-2.6c1.4,0,2.6,1.2,2.6,2.6c0,1.4-1.2,2.6-2.6,2.6c-1.4,0-2.6-1.2-2.6-2.6H150.3z"/>
	<path d="M54.2,232.2h-0.4c0,2.5,2,4.5,4.5,4.5c2.5,0,4.5-2,4.5-4.5c0-2.5-2-4.5-4.5-4.5c-2.5,0-4.5,2-4.5,4.5H54.2h0.4
		c0-1,0.4-2,1.1-2.6c0.7-0.7,1.6-1.1,2.6-1.1c1,0,2,0.4,2.6,1.1c0.7,0.7,1.1,1.6,1.1,2.6c0,1-0.4,2-1.1,2.6
		c-0.7,0.7-1.6,1.1-2.6,1.1c-1,0-2-0.4-2.6-1.1c-0.7-0.7-1.1-1.6-1.1-2.6H54.2z"/>
	<path d="M119.2,307.5h-0.4c0,1.8,1.4,3.2,3.2,3.2c1.8,0,3.2-1.4,3.2-3.2c0-1.8-1.4-3.2-3.2-3.2c-1.8,0-3.2,1.4-3.2,3.2H119.2h0.4
		c0-1.3,1.1-2.4,2.4-2.4c1.3,0,2.4,1.1,2.4,2.4c0,1.3-1.1,2.4-2.4,2.4c-1.3,0-2.4-1.1-2.4-2.4H119.2z"/>
</g>
</svg>
