<?xml version="1.0" encoding="utf-8"?>
<!-- Generator: Adobe Illustrator 17.1.0, SVG Export Plug-In . SVG Version: 6.00 Build 0)  -->
<!DOCTYPE svg PUBLIC "-//W3C//DTD SVG 1.1//EN" "http://www.w3.org/Graphics/SVG/1.1/DTD/svg11.dtd">
<svg version="1.1" id="Layer_2" xmlns="http://www.w3.org/2000/svg" xmlns:xlink="http://www.w3.org/1999/xlink" x="0px" y="0px"
	 viewBox="0 0 400 400" enable-background="new 0 0 400 400" xml:space="preserve">
<g>
	<path fill="#C63827" d="M170.9,210.3c-18.6,13.3-28.9,5.5-28.9,5.5s-3.8,1.7-7.8,31.7C132,263.8,112.1,273,99.1,278
		c0,0-23.9,9-24.9,31.5c0,0,0,5.8,4.3,3c4.2-2.8,1.4-5.2,7-16.2c3.1-6.1,13.2-12.2,25-15c0,0,20.4-4.8,28.7-21.9
		c10.2-21,25.1-37.1,31.6-38L170.9,210.3z"/>
	<path fill="#C63827" d="M192.9,246c3.3-11.2,8.3-16.5,8.3-16.5c14.5,12.6,22.3,17.3,22.3,17.3s45.8,36.8,9.5,96
		c-37.9,61.8-29.3,33-29.3,33s7.9-12,14.3-20.7c8.6-11.6,17.7-31.3,18.3-42.1c0.6,0.1,4.6-42.6-35-63.2L192.9,246"/>
	<polyline points="194,366.5 214.9,385.6 218.1,382.1 197.2,363 192.9,362.2 194,366.5 	"/>
	<path fill="#C63827" d="M245.5,40.4c0,0,11-7.2,31.5-14.5l-17.7-2.5L245.5,40.4z"/>
	<path fill="#E44125" d="M197.2,202.4c-24.5-15.2-29.5-23.8-29.5-23.8S152.3,66.7,287.4,23.4c0,0,43.9-15,35.9,33
		c0.1-0.3-7.2,96.1-104.2,157C219.2,213.5,211.4,211.2,197.2,202.4z"/>
	<circle cx="218.7" cy="192.5" r="4.8"/>
	<path fill="#C63827" d="M324.7,56c-2.4,27.3-14.7,53.8-14.7,53.8l27.2-19.6L324.7,56z"/>
	<polyline points="303.5,267.1 329.3,255.7 327.4,251.3 301.6,262.8 299.1,266.5 303.5,267.1 	"/>
	<polyline points="129.3,307.5 153.3,292.6 150.8,288.5 126.8,303.5 124.8,307.5 129.3,307.5 	"/>
	<polygon points="80,252.2 99.1,231.3 95.6,228.1 76.5,249 75.7,253.3 	"/>
	<polyline points="88.4,311.1 66.2,293.6 63.2,297.4 85.5,314.8 89.9,315.3 88.4,311.1 	"/>
	<path fill="#E44125" d="M201.2,229.5c0,0-14.7,15.8-14.8,62.8c-0.1,43.3-26.5,38.5-37,25c-8.7-11.1-14-21.5-14-21.5
		s-2.7-7.7,3.9-4.2c7.4,3.9,15.5,24.2,23.3,24.5c0,0,15.6,5,15.3-11.5c-0.2-16.5-1.3-33.4-4.3-49.4c-3-16-2.9-37.8-2.9-37.8l0.2-7
		c-11.8,9-26,13.2-35.2-1.2c-9.3-14.4-26.5-28.1-39.5-27.8c-11,0.2-26,7.2-27.7,30.2c-1.8,23,21.2,30.2,22.5,34
		c1.3,3.8-3.5,3.5-3.5,3.5c-47-24.3-18.8-67.7-18.8-67.7c18.8-30.5,71.5,6.4,71.5,6.4c22.5,12.4,26.7-7.6,26.7-7.6s5,8.6,29.5,23.8
		c14.2,8.8,22,11.1,22,11.1s2.6,13.2,16.6,5.2c14-8,43.7-68.9,86.3-47.3c38.7,19.6,4,46.3-3,64.3c-3,7.6-5,17-0.3,23.7
		c0,0,2,7.3-2,6c-4-1.3-12.7-21.3-0.7-42c12-20.7,17.7-28.6,7.3-37.2c0,0-18-12.2-32.3,0c-14.3,12.2-24.6,30.8-45.3,51.6
		c-11.2,11.3-18.3,11.1-28.5,3.4C216.5,242.6,209.3,237.3,201.2,229.5"/>
	<path fill="#53504F" d="M35.4,213c0-1.4,0.6-2.7,1.5-3.7c0.9-0.9,2.2-1.5,3.7-1.5c1.4,0,2.7,0.6,3.7,1.5c0.9,0.9,1.5,2.2,1.5,3.7
		c0,1.4-0.6,2.7-1.5,3.7c-0.9,0.9-2.2,1.5-3.7,1.5c-1.4,0-2.7-0.6-3.7-1.5C36,215.8,35.4,214.5,35.4,213 M40.6,207.1
		c-3.3,0-5.9,2.7-5.9,5.9H35h0.4H35h-0.4c0,3.3,2.7,5.9,5.9,5.9c3.3,0,5.9-2.7,5.9-5.9C46.5,209.8,43.8,207.1,40.6,207.1"/>
	<path fill="#53504F" d="M60.6,267.1c0-1.6,0.6-3,1.6-4c1-1,2.4-1.6,4-1.6c1.6,0,3,0.6,4,1.6c1,1,1.6,2.4,1.6,4c0,1.6-0.6,3-1.6,4
		c-1,1-2.4,1.6-4,1.6c-1.6,0-3-0.6-4-1.6C61.2,270.1,60.6,268.7,60.6,267.1 M66.2,260.8c-3.5,0-6.4,2.9-6.4,6.4h0.4h0.4h-0.4h-0.4
		c0,3.5,2.9,6.4,6.4,6.4c3.5,0,6.4-2.9,6.4-6.4C72.6,263.6,69.8,260.8,66.2,260.8"/>
	<path fill="#53504F" d="M87.8,321.6c0-2.2,0.9-4.2,2.3-5.7c1.4-1.4,3.4-2.3,5.7-2.3c2.2,0,4.2,0.9,5.7,2.3c1.4,1.4,2.3,3.4,2.3,5.7
		c0,2.2-0.9,4.2-2.3,5.7c-1.4,1.4-3.4,2.3-5.7,2.3c-2.2,0-4.2-0.9-5.7-2.3C88.7,325.9,87.8,323.9,87.8,321.6 M95.8,312.9
		c-2.3,0-4.3,0.9-5.9,2.3l0,0.1l-0.1,0c-1.7,1.6-2.8,3.9-2.8,6.4h0.4h0.4h-0.4H87c0,4.8,3.9,8.7,8.7,8.7c4.8,0,8.7-3.9,8.7-8.7
		C104.5,316.8,100.6,312.9,95.8,312.9"/>
	<path d="M89.9,315.2C89.9,315.2,89.8,315.2,89.9,315.2L89.9,315.2L89.9,315.2"/>
	<path fill="#53504F" d="M282.7,267.6c0-2.2,0.9-4.2,2.3-5.7c1.4-1.4,3.4-2.3,5.7-2.3c2.2,0,4.2,0.9,5.7,2.3
		c1.4,1.4,2.3,3.4,2.3,5.7c0,2.2-0.9,4.2-2.3,5.7c-1.4,1.4-3.4,2.3-5.7,2.3c-2.2,0-4.2-0.9-5.7-2.3
		C283.6,271.8,282.7,269.8,282.7,267.6 M290.7,258.8c-4.8,0-8.7,3.9-8.7,8.7h0.4h0.4h-0.4H282c0,4.8,3.9,8.7,8.7,8.7
		c4.8,0,8.7-3.9,8.7-8.7c0-0.3,0-0.7-0.1-1l-0.3,0l0.3-0.4C298.6,262,295,258.8,290.7,258.8"/>
	<path d="M299.3,266.1l-0.3,0.4l0.3,0C299.4,266.4,299.4,266.3,299.3,266.1"/>
	<path fill="#53504F" d="M76.1,263.5c0-1,0.4-2,1.1-2.6c0.7-0.7,1.6-1.1,2.6-1.1c1,0,2,0.4,2.6,1.1c0.7,0.7,1.1,1.6,1.1,2.6
		c0,1-0.4,2-1.1,2.6c-0.7,0.7-1.6,1.1-2.6,1.1c-1,0-2-0.4-2.6-1.1C76.5,265.4,76.1,264.5,76.1,263.5 M79.8,259c-2.5,0-4.5,2-4.5,4.5
		h0.4h0.4h-0.4h-0.4c0,2.5,2,4.5,4.5,4.5c2.5,0,4.5-2,4.5-4.5C84.3,261,82.3,259,79.8,259"/>
	<path fill="#53504F" d="M183.3,358.9c0-1.2,0.5-2.4,1.3-3.2c0.8-0.8,1.9-1.3,3.2-1.3c1.2,0,2.4,0.5,3.2,1.3
		c0.8,0.8,1.3,1.9,1.3,3.2c0,1.2-0.5,2.4-1.3,3.2c-0.8,0.8-1.9,1.3-3.2,1.3c-1.2,0-2.4-0.5-3.2-1.3
		C183.8,361.3,183.3,360.2,183.3,358.9 M187.8,353.7c-2.9,0-5.2,2.3-5.2,5.2h0.4h0.4H183h-0.4c0,2.9,2.3,5.2,5.2,5.2
		c2.9,0,5.2-2.3,5.2-5.2C193,356.1,190.7,353.7,187.8,353.7"/>
	<path fill="#53504F" d="M173,363.8c0-1.6,1.3-3,3-3c1.6,0,3,1.3,3,3c0,1.6-1.3,3-3,3C174.3,366.7,173,365.4,173,363.8 M175.9,360.1
		c-2,0-3.7,1.7-3.7,3.7h0.4h0.4h-0.4h-0.4c0,2,1.7,3.7,3.7,3.7c2,0,3.7-1.7,3.7-3.7C179.7,361.7,178,360.1,175.9,360.1"/>
	<path fill="#53504F" d="M176.3,353c0-1,0.8-1.8,1.8-1.8c1,0,1.8,0.8,1.8,1.8c0,1-0.8,1.8-1.8,1.8C177.1,354.8,176.3,354,176.3,353
		 M178.2,350.4c-1.4,0-2.6,1.2-2.6,2.6h0.4h0.4h-0.4h-0.4c0,1.4,1.2,2.6,2.6,2.6c1.4,0,2.6-1.2,2.6-2.6
		C180.7,351.5,179.6,350.4,178.2,350.4"/>
	<path fill="#53504F" d="M285.6,287.2c0-1.4,1.2-2.6,2.6-2.6c1.4,0,2.6,1.2,2.6,2.6c0,1.4-1.2,2.6-2.6,2.6
		C286.8,289.8,285.6,288.6,285.6,287.2 M288.2,283.8c-1.9,0-3.3,1.5-3.3,3.3h0.4h0.4h-0.4h-0.4c0,1.9,1.5,3.3,3.3,3.3
		c1.9,0,3.3-1.5,3.3-3.3C291.6,285.3,290.1,283.8,288.2,283.8"/>
	<path fill="#53504F" d="M122.9,289.5c0-1,0.4-2,1.1-2.6c0.7-0.7,1.6-1.1,2.6-1.1c1,0,2,0.4,2.6,1.1c0.7,0.7,1.1,1.6,1.1,2.6
		c0,1-0.4,2-1.1,2.6c-0.7,0.7-1.6,1.1-2.6,1.1c-1,0-2-0.4-2.6-1.1C123.3,291.5,122.9,290.6,122.9,289.5 M126.7,285
		c-2.5,0-4.5,2-4.5,4.5h0.4h0.4h-0.4h-0.4c0,2.5,2,4.5,4.5,4.5c2.5,0,4.5-2,4.5-4.5C131.1,287,129.1,285,126.7,285"/>
	<path fill="#53504F" d="M310.5,283c0-1,0.4-2,1.1-2.6c0.7-0.7,1.6-1.1,2.6-1.1c1,0,2,0.4,2.6,1.1c0.7,0.7,1.1,1.6,1.1,2.6
		c0,1-0.4,2-1.1,2.6c-0.7,0.7-1.6,1.1-2.6,1.1c-1,0-2-0.4-2.6-1.1C310.9,285,310.5,284.1,310.5,283 M314.2,278.5
		c-2.5,0-4.5,2-4.5,4.5h0.4h0.4h-0.4h-0.4c0,2.5,2,4.5,4.5,4.5c2.5,0,4.5-2,4.5-4.5C318.7,280.6,316.7,278.5,314.2,278.5"/>
	<path fill="#53504F" d="M319.6,293.1c0-2.7,1.1-5.1,2.8-6.9c1.8-1.8,4.2-2.8,6.9-2.8c2.7,0,5.1,1.1,6.9,2.8
		c1.8,1.8,2.8,4.2,2.8,6.9c0,2.7-1.1,5.1-2.8,6.9c-1.8,1.8-4.2,2.8-6.9,2.8c-2.7,0-5.1-1.1-6.9-2.8
		C320.7,298.2,319.6,295.8,319.6,293.1 M329.3,282.7c-5.8,0-10.5,4.7-10.5,10.5h0.4h0.4h-0.4h-0.4c0,5.8,4.7,10.5,10.5,10.5
		c5.8,0,10.5-4.7,10.5-10.5C339.8,287.3,335.1,282.7,329.3,282.7"/>
	<path fill="#53504F" d="M339,263.7c0-1.4,1.2-2.6,2.6-2.6c1.4,0,2.6,1.2,2.6,2.6c0,1.4-1.2,2.6-2.6,2.6
		C340.2,266.3,339,265.1,339,263.7 M341.6,260.3c-1.9,0-3.3,1.5-3.3,3.3h0.4h0.4h-0.4h-0.4c0,1.9,1.5,3.3,3.3,3.3
		c1.9,0,3.3-1.5,3.3-3.3C344.9,261.8,343.4,260.3,341.6,260.3"/>
	<path fill="#53504F" d="M363.9,259.6c0-1,0.4-2,1.1-2.6c0.7-0.7,1.6-1.1,2.6-1.1c1,0,2,0.4,2.6,1.1c0.7,0.7,1.1,1.6,1.1,2.6
		c0,1-0.4,2-1.1,2.6c-0.7,0.7-1.6,1.1-2.6,1.1c-1,0-2-0.4-2.6-1.1C364.3,261.5,363.9,260.6,363.9,259.6 M367.6,255.1
		c-2.5,0-4.5,2-4.5,4.5h0.4h0.4h-0.4h-0.4c0,2.5,2,4.5,4.5,4.5c2.5,0,4.5-2,4.5-4.5C372.1,257.1,370.1,255.1,367.6,255.1"/>
	<path fill="#53504F" d="M324.7,358.9c0-2.7,1.1-5.1,2.8-6.9c1.8-1.8,4.2-2.8,6.9-2.8c2.7,0,5.1,1.1,6.9,2.8
		c1.8,1.8,2.8,4.2,2.8,6.9c0,2.7-1.1,5.1-2.8,6.9c-1.8,1.8-4.2,2.8-6.9,2.8c-2.7,0-5.1-1.1-6.9-2.8
		C325.8,364,324.7,361.6,324.7,358.9 M334.4,348.5c-5.8,0-10.5,4.7-10.5,10.5h0.4h0.4h-0.4H324c0,5.8,4.7,10.5,10.5,10.5
		c5.8,0,10.5-4.7,10.5-10.5C344.9,353.2,340.2,348.5,334.4,348.5"/>
	<path fill="#53504F" d="M357.7,218.6c0-2.2,0.9-4.2,2.3-5.7c1.4-1.4,3.4-2.3,5.7-2.3c2.2,0,4.2,0.9,5.7,2.3
		c1.4,1.4,2.3,3.4,2.3,5.7c0,2.2-0.9,4.2-2.3,5.7c-1.4,1.4-3.4,2.3-5.7,2.3c-2.2,0-4.2-0.9-5.7-2.3
		C358.6,222.8,357.7,220.8,357.7,218.6 M365.7,209.9c-4.8,0-8.7,3.9-8.7,8.7h0.4h0.4h-0.4H357c0,4.8,3.9,8.7,8.7,8.7
		c4.8,0,8.7-3.9,8.7-8.7C374.5,213.8,370.5,209.9,365.7,209.9"/>
	<path fill="#53504F" d="M374.5,233.6c0-1.4,0.6-2.7,1.5-3.7c0.9-0.9,2.2-1.5,3.7-1.5c1.4,0,2.7,0.6,3.7,1.5
		c0.9,0.9,1.5,2.2,1.5,3.7c0,1.4-0.6,2.7-1.5,3.7c-0.9,0.9-2.2,1.5-3.7,1.5c-1.4,0-2.7-0.6-3.7-1.5
		C375,236.4,374.5,235.1,374.5,233.6 M379.6,227.7c-3.3,0-5.9,2.7-5.9,5.9h0.4h0.4h-0.4h-0.4c0,3.3,2.7,5.9,5.9,5.9
		c3.3,0,5.9-2.7,5.9-5.9C385.6,230.4,382.9,227.7,379.6,227.7"/>
	<path fill="#53504F" d="M150.7,367.1c0-1.4,1.2-2.6,2.6-2.6c1.4,0,2.6,1.2,2.6,2.6c0,1.4-1.2,2.6-2.6,2.6
		C151.9,369.7,150.7,368.6,150.7,367.1 M153.3,363.8c-1.9,0-3.3,1.5-3.3,3.3h0.4h0.4h-0.4h-0.4c0,1.9,1.5,3.3,3.3,3.3
		c1.9,0,3.3-1.5,3.3-3.3C156.6,365.3,155.1,363.8,153.3,363.8"/>
	<path fill="#53504F" d="M12,210.3c0-2.6,1.1-5,2.8-6.7c1.7-1.7,4.1-2.8,6.7-2.8c2.6,0,5,1.1,6.7,2.8c1.7,1.7,2.8,4.1,2.8,6.7
		c0,2.6-1.1,5-2.8,6.7c-1.7,1.7-4.1,2.8-6.7,2.8c-2.6,0-5-1.1-6.7-2.8C13.1,215.3,12,212.9,12,210.3 M21.5,200.1
		c-5.6,0-10.2,4.6-10.2,10.2h0.4H12h-0.4h-0.4c0,5.6,4.6,10.2,10.2,10.2c5.6,0,10.2-4.6,10.2-10.2C31.6,204.7,27.1,200.1,21.5,200.1
		"/>
	<path fill="#53504F" d="M119.6,307.5c0-1.3,1.1-2.4,2.4-2.4c1.3,0,2.4,1.1,2.4,2.4c0,1.3-1.1,2.4-2.4,2.4
		C120.7,309.9,119.6,308.9,119.6,307.5 M122,304.3c-1.8,0-3.2,1.4-3.2,3.2h0.4h0.4h-0.4h-0.4c0,1.8,1.4,3.2,3.2,3.2
		c1.8,0,3.2-1.4,3.2-3.2l-0.4,0l0.3-0.6C124.9,305.4,123.6,304.3,122,304.3"/>
	<path d="M125.2,306.9l-0.3,0.6l0.4,0c0,0,0,0,0,0C125.2,307.3,125.2,307.1,125.2,306.9"/>
</g>
</svg>
