<?xml version="1.0" encoding="utf-8"?>
<!-- Generator: Adobe Illustrator 17.1.0, SVG Export Plug-In . SVG Version: 6.00 Build 0)  -->
<!DOCTYPE svg PUBLIC "-//W3C//DTD SVG 1.1//EN" "http://www.w3.org/Graphics/SVG/1.1/DTD/svg11.dtd">
<svg version="1.1" id="Layer_1" xmlns="http://www.w3.org/2000/svg" xmlns:xlink="http://www.w3.org/1999/xlink" x="0px" y="0px"
	 viewBox="0 0 50 50" enable-background="new 0 0 50 50" xml:space="preserve">
<g id="Layer_1_1_">
</g>
<g>
	<path fill="#848484" d="M25.4,42.2c-0.1,0-0.3,0-0.4,0.1c-0.1-0.1-0.2-0.1-0.4-0.1c-0.3,0-0.5,0.3-0.5,0.6l0.3,4.9
		c0,0.3,0.2,0.5,0.5,0.5s0.5-0.2,0.5-0.5l0.3-4.9C25.9,42.5,25.6,42.2,25.4,42.2z"/>
	<path fill="#848484" d="M25.5,39.6C25.5,39.6,25.6,39.6,25.5,39.6c0.3,0,0.5-0.2,0.6-0.5l0.1-2.2c0-0.3-0.2-0.5-0.5-0.6
		c-0.3,0-0.5,0.2-0.6,0.5L25,39C25,39.3,25.2,39.6,25.5,39.6z"/>
	<path fill="#848484" d="M25.9,33.5C25.9,33.5,26,33.5,25.9,33.5c0.3,0,0.5-0.2,0.6-0.5l0.2-3c0-0.3-0.2-0.5-0.5-0.6
		c-0.3,0-0.5,0.2-0.6,0.5l-0.2,3C25.4,33.2,25.6,33.5,25.9,33.5z"/>
	<path fill="#848484" d="M26.4,26.1c0.3,0,0.5-0.2,0.6-0.5l0.7-11.2c0-0.1,0-0.3-0.1-0.4c-0.1-0.1-0.2-0.2-0.4-0.2h-4.4
		c-0.1,0-0.3,0.1-0.4,0.2c-0.1,0.1-0.1,0.2-0.1,0.4L23,25.6c0,0.3,0.2,0.5,0.5,0.5c0,0,0,0,0,0c0.3,0,0.5-0.3,0.5-0.6l-0.7-10.6h3.3
		l-0.7,10.6C25.9,25.8,26.1,26.1,26.4,26.1z"/>
	<path fill="#848484" d="M23.8,29.5c-0.3,0-0.5,0.3-0.5,0.6l0.2,3c0,0.3,0.2,0.5,0.5,0.5c0,0,0,0,0,0c0.3,0,0.5-0.3,0.5-0.6l-0.2-3
		C24.3,29.7,24.1,29.5,23.8,29.5z"/>
	<path fill="#848484" d="M24.2,36.3c-0.3,0-0.5,0.3-0.5,0.6l0.1,2.2c0,0.3,0.2,0.5,0.5,0.5c0,0,0,0,0,0c0.3,0,0.5-0.3,0.5-0.6
		l-0.1-2.2C24.8,36.5,24.5,36.3,24.2,36.3z"/>
	<path fill="#848484" d="M22.8,13.3h4.4c0,0,0,0,0,0c0.3,0,0.5-0.2,0.5-0.5c0-0.1,0-0.1,0-0.1c-0.1-1.4-1.3-2.6-2.7-2.6
		c-1.5,0-2.7,1.2-2.7,2.7C22.3,13.1,22.5,13.3,22.8,13.3z M25,11.1c0.8,0,1.4,0.5,1.6,1.2h-3.2C23.6,11.6,24.2,11.1,25,11.1z"/>
	<path fill="#848484" d="M44.1,13.2L34,7.3c0,0-0.1,0-0.1,0c-0.6-0.4-1.4-0.6-2.1-0.6c-2.2,0-3.9,1.8-3.9,3.9c0,0.9,0.7,2.3,1.3,3.4
		c0.3,0.5,0.6,1.1,0.6,1.2c0,0.3-0.2,0.5-0.5,0.5c0,0-0.1,0-0.2,0c-0.2-0.1-0.3,0-0.5,0.1c-0.1,0.1-0.2,0.2-0.2,0.4l-0.1,3.4
		c0,0.3,0.2,0.5,0.5,0.5l0.1,0c0.1,0,0.3,0,0.4,0c2,0,3.7-1.2,4.5-2.9c1.2,0.3,2.2,0,2.9-0.9c0.4,0.1,0.8,0.2,1.1,0.2
		c1.2,0,1.9-0.7,2.3-1.2c0.6,0.3,1.1,0.4,1.6,0.4h0c2,0,2.6-1.9,2.7-2C44.4,13.6,44.3,13.3,44.1,13.2z M41.7,14.7L41.7,14.7
		c-0.3,0-0.7-0.1-1.1-0.3c0-0.1-0.1-0.1-0.2-0.1l-2.8-1.6c-0.3-0.1-0.6-0.1-0.7,0.2c-0.1,0.2-0.1,0.6,0.2,0.7l2.2,1.2
		c-0.3,0.4-0.7,0.7-1.4,0.7c-0.3,0-0.7-0.1-1.1-0.3L34,13.8c-0.2-0.1-0.6-0.1-0.7,0.2c-0.1,0.2-0.1,0.6,0.2,0.7l2.3,1.3
		c-0.5,0.5-1.2,0.5-2.1,0.2c-0.1-0.1-0.3,0-0.4,0c-0.1,0.1-0.2,0.2-0.3,0.3c-0.5,1.6-2,2.7-3.7,2.7l0.1-2.4c0.8-0.1,1.4-0.7,1.4-1.6
		c0-0.3-0.2-0.8-0.7-1.7c-0.5-1-1.2-2.3-1.2-2.9c0-1.6,1.3-2.9,2.9-2.9c0.6,0,1.2,0.2,1.6,0.5c0,0,0.1,0.1,0.2,0.1l9.6,5.5
		C43,14.2,42.5,14.7,41.7,14.7z"/>
	<path fill="#848484" d="M20.7,20.2c0.1,0,0.3,0,0.4,0l0.1,0c0.3,0,0.5-0.3,0.5-0.5l-0.1-3.4c0-0.2-0.1-0.3-0.2-0.4
		c-0.1-0.1-0.3-0.1-0.5-0.1c-0.1,0-0.1,0-0.2,0c-0.3,0-0.5-0.2-0.5-0.5c0-0.2,0.3-0.8,0.6-1.3c0.6-1.2,1.3-2.5,1.3-3.4
		c0-2.2-1.8-3.9-3.9-3.9c-0.8,0-1.5,0.2-2.1,0.6c0,0-0.1,0-0.1,0L5.9,13.2c-0.2,0.1-0.3,0.4-0.2,0.6c0,0.1,0.7,2,2.7,2
		c0.5,0,1-0.1,1.6-0.4c0.4,0.6,1.1,1.2,2.3,1.2c0.4,0,0.7-0.1,1.1-0.2c0.7,0.9,1.8,1.2,2.9,0.9C17,19.1,18.8,20.2,20.7,20.2z
		 M16.7,16.2c-0.1,0-0.1,0-0.2,0c-0.1,0-0.1,0-0.2,0c-0.8,0.3-1.5,0.3-2.1-0.2l2.3-1.3c0.2-0.1,0.3-0.5,0.2-0.7
		c-0.1-0.2-0.5-0.3-0.7-0.2l-2.8,1.6c-0.4,0.2-0.8,0.3-1.1,0.3c-0.7,0-1.1-0.4-1.4-0.7l2.2-1.2c0.2-0.1,0.3-0.5,0.2-0.7
		c-0.1-0.2-0.5-0.3-0.7-0.2l-2.8,1.6c-0.1,0-0.1,0.1-0.2,0.1c-0.4,0.2-0.8,0.3-1.1,0.3c-0.8,0-1.3-0.5-1.5-0.9l9.6-5.5
		c0.1,0,0.1,0,0.2-0.1c0.5-0.3,1.1-0.5,1.6-0.5c1.6,0,2.9,1.3,2.9,2.9c0,0.7-0.7,2-1.2,2.9c-0.5,0.9-0.7,1.4-0.7,1.7
		c0,0.8,0.6,1.5,1.4,1.6l0.1,2.4c-1.7,0-3.1-1.1-3.7-2.7C17,16.3,16.9,16.2,16.7,16.2z"/>
	<path fill="#848484" d="M28.5,21.7c-0.2,0-0.4,0.2-0.5,0.5c0,0-0.1,1.2,0.8,2c0.6,0.6,1.5,0.8,2.7,0.6c0,0,0,0.1,0,0.1
		c0,1.3-2.6,1.8-5.2,2.2c-0.5,0.1-0.9,0.2-1.4,0.3c-0.5-0.1-0.9-0.2-1.4-0.3c-2.6-0.4-5.2-0.9-5.2-2.2c0,0,0-0.1,0-0.1
		c1.2,0.2,2.1,0,2.7-0.6c0.8-0.8,0.8-1.9,0.8-2c0-0.2-0.2-0.4-0.5-0.5c-0.1,0-1.9-0.2-3.1,0.9c-0.6,0.6-0.9,1.3-0.9,2.3
		c0,2,2.4,2.6,5.1,3.1c-1.8,0.6-3.2,1.5-3.2,3.3c0,2.3,1.8,3.2,3.8,3.9c-1.5,0.5-2.7,1.2-2.7,2.7c0,1.7,1.3,2.5,2.8,3.1
		c-1,0.4-1.8,0.8-1.8,1.7c0,0.6,0.3,1.2,1,1.7c0.1,0.1,0.2,0.1,0.3,0.1c0.2,0,0.3-0.1,0.4-0.2c0.2-0.2,0.1-0.5-0.1-0.7
		c-0.4-0.3-0.6-0.6-0.6-0.9c0-0.5,1.3-0.9,2.4-1.2c0,0,0.1,0,0.1,0c0,0,0.1,0,0.1,0c1.1,0.3,2.4,0.7,2.4,1.2c0,0.3-0.2,0.6-0.6,0.9
		c-0.2,0.2-0.3,0.5-0.1,0.7c0.1,0.1,0.3,0.2,0.4,0.2c0.1,0,0.2,0,0.3-0.1c0.6-0.5,1-1.1,1-1.7c0-0.9-0.8-1.4-1.8-1.7
		c1.5-0.6,2.8-1.4,2.8-3.1c0-1.4-1.2-2.2-2.7-2.7c2-0.6,3.8-1.6,3.8-3.9c0-1.7-1.4-2.7-3.2-3.3c2.8-0.5,5.1-1.1,5.1-3.1
		c0-1-0.3-1.7-0.9-2.3C30.5,21.5,28.6,21.7,28.5,21.7z M29.5,23.4c-0.2-0.2-0.3-0.4-0.4-0.7c0.5,0,1.3,0.1,1.8,0.6
		c0.1,0.1,0.2,0.3,0.3,0.4C30.5,23.9,29.9,23.8,29.5,23.4z M18.9,23.4c0.5-0.5,1.3-0.6,1.8-0.6c-0.1,0.2-0.2,0.5-0.4,0.7
		c-0.4,0.3-0.9,0.4-1.7,0.3C18.7,23.6,18.8,23.5,18.9,23.4z M28.4,37.8c0,1.4-1.4,2-3.5,2.6c-2.1-0.6-3.5-1.2-3.5-2.6
		c0-1.1,1.3-1.6,3.5-2.1C27.1,36.2,28.4,36.7,28.4,37.8z M29.6,31.2c0,1.9-1.8,2.6-4.6,3.3c-2.8-0.7-4.6-1.4-4.6-3.3
		c0-1.7,2.2-2.3,4.6-2.8C27.4,28.9,29.6,29.6,29.6,31.2z"/>
</g>
</svg>
