<?xml version="1.0" encoding="utf-8"?>
<!-- Generator: Adobe Illustrator 19.1.0, SVG Export Plug-In . SVG Version: 6.00 Build 0)  -->
<svg version="1.1" id="Layer_1" xmlns="http://www.w3.org/2000/svg" xmlns:xlink="http://www.w3.org/1999/xlink" x="0px" y="0px"
	 viewBox="550 -119.8 1200 338.8" style="enable-background:new 550 -119.8 1200 338.8;" xml:space="preserve">
<style type="text/css">
	.st0{display:none;}
	.st1{display:inline;fill:#869E54;}
	.st2{display:inline;fill:#E6EFF3;}
	.st3{display:inline;fill:#E8E619;stroke:#ECC91A;stroke-width:1.5;stroke-miterlimit:10;}
	.st4{opacity:0.5;fill:url(#SVGID_1_);}
	.st5{opacity:0.8;fill:url(#SVGID_2_);}
	.st6{opacity:0.8;fill:url(#SVGID_3_);}
	.st7{fill:#596628;}
	.st8{fill:#485622;}
	.st9{opacity:0.7;fill:url(#SVGID_4_);}
	.st10{display:inline;}
	.st11{fill:#BAD532;stroke:#4F4436;stroke-linecap:round;stroke-linejoin:round;stroke-miterlimit:10;}
	.st12{fill:none;stroke:#4F4436;stroke-linecap:round;stroke-linejoin:round;stroke-miterlimit:10;}
	.st13{fill:#5E5547;stroke:#4F4436;stroke-linecap:round;stroke-linejoin:round;stroke-miterlimit:10;}
	.st14{fill:#3F3931;stroke:#4F4436;stroke-linecap:round;stroke-linejoin:round;stroke-miterlimit:10;}
	.st15{fill:#768948;stroke:#4F4436;stroke-linecap:round;stroke-linejoin:round;stroke-miterlimit:10;}
	.st16{fill:#A6C36E;stroke:#4F4436;stroke-linecap:round;stroke-linejoin:round;stroke-miterlimit:10;}
	.st17{fill:#607744;stroke:#4F4436;stroke-linecap:round;stroke-linejoin:round;stroke-miterlimit:10;}
	.st18{fill:#7A9648;stroke:#4F4436;stroke-linecap:round;stroke-linejoin:round;stroke-miterlimit:10;}
	.st19{display:inline;fill:#3F3931;}
	.st20{fill:#707F2F;}
	.st21{fill:#1F5E6D;stroke:#1A5D6D;stroke-linecap:round;stroke-linejoin:round;stroke-miterlimit:10;}
	.st22{fill:#2A87A8;stroke:#1A5D6D;stroke-linecap:round;stroke-linejoin:round;stroke-miterlimit:10;}
	.st23{fill:#247287;stroke:#1A5D6D;stroke-linejoin:round;stroke-miterlimit:10;}
	.st24{fill:#1A5D6D;}
	
		.st25{display:inline;fill:#5E5547;stroke:#4F4436;stroke-width:1.5;stroke-linecap:round;stroke-linejoin:round;stroke-miterlimit:10;}
	.st26{display:inline;fill:#E8E619;stroke:#ECC91A;stroke-width:0.5;stroke-miterlimit:10;}
	.st27{display:inline;fill:#E4A424;}
	.st28{display:inline;opacity:0.6;fill:#FFFFFF;enable-background:new    ;}
	.st29{display:inline;fill:#4C4C4D;}
	.st30{display:inline;fill:#838484;}
</style>
<g id="Layer_4" class="st0">
	<path class="st1" d="M1691.6,219"/>
	<rect x="550" y="-506.4" class="st2" width="1200" height="725.3"/>
</g>
<g id="Layer_13" class="st0">
	<circle class="st3" cx="883.7" cy="58" r="74.1"/>
</g>
<linearGradient id="SVGID_1_" gradientUnits="userSpaceOnUse" x1="1438.9501" y1="168.2" x2="1438.9501" y2="-60.8958">
	<stop  offset="0" style="stop-color:#000000"/>
	<stop  offset="0.1313" style="stop-color:#1B1B1B"/>
	<stop  offset="0.4139" style="stop-color:#606060"/>
	<stop  offset="0.8225" style="stop-color:#CDCDCD"/>
	<stop  offset="1" style="stop-color:#FFFFFF"/>
</linearGradient>
<path class="st4" d="M1127.7,168.1l101.8-218.7c2.5-5.5,10.2-5.7,13-0.3L1304,68.4l43.8-122.7c2.1-5.8,10.1-6.5,13.1-1.1L1381-19
	l6.2-11.5c2.7-5.1,10-5.1,12.7,0l37.4,70.4l58.4-96c4.1-6.7,14-6.3,17.5,0.7l53.9,108.2L1616-31c4-6.8,13.9-6.6,17.5,0.4L1653.1,7
	L1664-4.5c4.6-4.8,12.5-3.9,15.9,1.8l70.3,118.6v52.3L1127.7,168.1z"/>
<linearGradient id="SVGID_2_" gradientUnits="userSpaceOnUse" x1="716.85" y1="164.7" x2="716.85" y2="-63.6123">
	<stop  offset="0" style="stop-color:#000000"/>
	<stop  offset="0.1313" style="stop-color:#1B1B1B"/>
	<stop  offset="0.4139" style="stop-color:#606060"/>
	<stop  offset="0.8225" style="stop-color:#CDCDCD"/>
	<stop  offset="1" style="stop-color:#FFFFFF"/>
</linearGradient>
<path class="st5" d="M550,164.7h333.7L784.1-55.4c-2.4-5.3-9.8-5.5-12.5-0.3L712.3,59.5L670-59c-2-5.6-9.7-6.3-12.6-1L638-24.8
	l-5.9-11.1c-2.6-4.9-9.6-4.9-12.3,0l-36.1,68L550-33V164.7z"/>
<linearGradient id="SVGID_3_" gradientUnits="userSpaceOnUse" x1="1388.15" y1="218.9" x2="1388.15" y2="-2.6145">
	<stop  offset="0" style="stop-color:#000000"/>
	<stop  offset="0.1313" style="stop-color:#1B1B1B"/>
	<stop  offset="0.4139" style="stop-color:#606060"/>
	<stop  offset="0.8225" style="stop-color:#CDCDCD"/>
	<stop  offset="1" style="stop-color:#FFFFFF"/>
</linearGradient>
<path class="st6" d="M1026.3,115.9l25.9-60c2.9-6.9,12.7-7,15.7-0.1l9.6,22.3l20.1-43.8c2.8-6.1,11.3-6.7,14.9-1l28.5,44.8
	l25.5-42.5c3.7-6.2,12.9-5.2,15.3,1.6l12.4,35.5l40.1-71c3.3-5.9,11.8-5.7,15,0.3l59.5,115.2L1353,34c3.2-6,11.8-6,15,0l7.3,13.5
	l23.7-43c3.5-6.4,13-5.7,15.5,1.2l51.7,144.9l72.6-140.9c3.3-6.3,12.4-6.1,15.3,0.4l37.7,86.7l28.3-53.6c3.4-6.4,12.7-6.1,15.7,0.5
	l7.6,16.9l10.5-31.3c2.5-7.6,13-8.1,16.3-0.8l19.7,44l23.4-61.6c2.8-7.5,13.4-7.5,16.3-0.1l20.4,52.4v155.7h-723.7V115.9z"/>
<path class="st7" d="M922.9,219h695.2c0,0-170.7-59.3-251.3-130.5c-80.6-71.2-261.1,42-261.1,42L922.9,219z"/>
<path class="st8" d="M550,219V45.8c0,0,231.1-27.2,573.5,68.8c277.7,77.9,333.8,92.9,524.7,104.4"/>
<linearGradient id="SVGID_4_" gradientUnits="userSpaceOnUse" x1="1408.1" y1="219" x2="1408.1" y2="219">
	<stop  offset="0" style="stop-color:#000000"/>
	<stop  offset="0.1313" style="stop-color:#1B1B1B"/>
	<stop  offset="0.4139" style="stop-color:#606060"/>
	<stop  offset="0.8225" style="stop-color:#CDCDCD"/>
	<stop  offset="1" style="stop-color:#FFFFFF"/>
</linearGradient>
<path class="st9" d="M1408.1,219"/>
<g id="Layer_3" class="st0">
	<g class="st10">
		<path class="st11" d="M1282.4,169.5c0,6.6-6.1,10.1-13.7,10.1c-7.6,0-13.7-3.5-13.7-10.1s6.1-22.1,13.7-22.1
			C1276.3,147.5,1282.4,162.9,1282.4,169.5z"/>
		<path class="st12" d="M1257.7,158.8c3.1-2.2,7.3,20.5,7.3,20.5"/>
		<path class="st12" d="M1274.3,178.9c0,0,1.4-12.2,6.7-16.6"/>
		<polygon class="st13" points="1267,182.5 1268.7,167.5 1270.4,182.5 		"/>
	</g>
	<g class="st10">
		<path class="st14" d="M601.5,81.1"/>
		<polygon class="st15" points="600.5,88.6 584.1,91.7 575,120.9 598.8,116 		"/>
		<polygon class="st16" points="598.8,116 575,120.9 572.1,130.1 574.2,131.9 571.3,132.7 568.3,142.2 597.2,142.2 		"/>
		<path class="st14" d="M602.9,102.7"/>
		<polygon class="st17" points="601.3,76.2 615.1,81.1 621.3,100.9 617.3,102.3 622.2,103.8 632.3,136.1 604.4,128.6 		"/>
		<polygon class="st15" points="634.2,142.2 632.3,136.1 604.4,128.6 605.3,142.2 		"/>
		<polygon class="st13" points="596.4,155.8 601.3,76.2 606.1,155.8 		"/>
		<polygon class="st18" points="615.1,81.1 601.3,37.1 590.9,70.1 593.7,71.2 590.2,72.4 584.1,91.7 600.5,88.6 601.3,76.2 		"/>
	</g>
	<g class="st10">
		<path class="st14" d="M838.1,51.6"/>
		<polygon class="st15" points="837.3,57.6 824.1,60.1 816.8,83.6 836,79.6 		"/>
		<polygon class="st16" points="836,79.6 816.8,83.6 814.4,91 816.2,92.4 813.8,93.1 811.4,100.8 834.7,100.8 		"/>
		<path class="st14" d="M839.2,68.9"/>
		<polygon class="st17" points="837.9,47.6 849,51.6 854,67.5 850.8,68.6 854.7,69.8 862.9,95.8 840.5,89.8 		"/>
		<polygon class="st15" points="864.5,100.8 862.9,95.8 840.5,89.8 841.1,100.8 		"/>
		<polygon class="st13" points="834,111.7 837.9,47.6 841.8,111.7 		"/>
		<polygon class="st18" points="849,51.6 837.9,16.2 829.6,42.7 831.8,43.6 829,44.6 824.1,60.1 837.3,57.6 837.9,47.6 		"/>
	</g>
	<path class="st19" d="M820,73.4"/>
	<g class="st10">
		<path class="st14" d="M708.3,57.9"/>
		<polygon class="st17" points="707.3,65.5 691.7,68.7 680.5,106.2 684.4,108.7 679.3,110.3 676.4,120 704.2,120 		"/>
		<path class="st14" d="M709.6,79.8"/>
		<polygon class="st13" points="703.4,131.3 708.1,52.9 712.7,131.3 		"/>
		<polygon class="st15" points="736.4,108.9 739.7,120 711.9,120 708.1,52.9 721.3,57.9 724.3,67.9 721.3,70.4 725.3,71.3 
			735.6,106.2 732.3,107.6 		"/>
		<polygon class="st16" points="721.3,57.9 708.1,13.3 694.2,60.1 693.5,62.4 691.7,68.7 707.3,65.5 708.1,52.9 		"/>
	</g>
	<g class="st10">
		<polygon class="st13" points="1086.7,209.6 1083,141.5 1079.3,209.6 		"/>
		<polygon class="st15" points="1083.6,152.6 1096,155.3 1102.9,181.5 1084.8,177.1 		"/>
		<polygon class="st16" points="1084.8,177.1 1102.9,181.5 1105.1,189.8 1103.5,191.3 1105.7,192.1 1108,200.6 1086.2,200.6 		"/>
		<polygon class="st17" points="1083,141.5 1072.6,145.9 1067.9,163.6 1070.9,164.8 1067.2,166.2 1059.5,195.1 1080.9,181.5 		"/>
		<polygon class="st15" points="1058,200.6 1059.5,195.1 1080.9,181.5 1079.8,200.6 		"/>
		<polygon class="st18" points="1083,141.5 1083.6,152.6 1096,155.3 1091.4,138.1 1088.7,137 1090.8,136 1083,106.5 1072.6,145.9 		
			"/>
		<path class="st14" d="M1082.9,145.9"/>
		<path class="st14" d="M1081.8,165.2"/>
		<path class="st14" d="M1070.9,164.8"/>
	</g>
	<g class="st10">
		<polygon class="st13" points="1347.6,121.3 1345.6,84.4 1343.6,121.3 		"/>
		<polygon class="st15" points="1345.9,90.4 1352.6,91.9 1356.4,106.1 1346.6,103.7 		"/>
		<polygon class="st16" points="1346.6,103.7 1356.4,106.1 1357.6,110.6 1356.7,111.4 1357.9,111.9 1359.1,116.5 1347.3,116.5 		"/>
		<polygon class="st17" points="1345.6,84.4 1339.9,86.8 1337.4,96.4 1339,97.1 1337,97.8 1332.8,113.5 1344.4,106.1 		"/>
		<polygon class="st15" points="1332.1,116.5 1332.8,113.5 1344.4,106.1 1343.9,116.5 		"/>
		<polygon class="st18" points="1345.6,84.4 1345.9,90.4 1352.6,91.9 1350.1,82.6 1348.7,82 1349.8,81.5 1345.6,65.5 1339.9,86.8 		
			"/>
		<path class="st14" d="M1345.5,86.8"/>
		<path class="st14" d="M1344.9,97.3"/>
		<path class="st14" d="M1339,97.1"/>
	</g>
	<g class="st10">
		<polygon class="st13" points="1295.8,203.2 1292.3,138.9 1288.9,203.2 		"/>
		<polygon class="st15" points="1292.9,149.3 1304.6,152 1311.1,176.7 1294.1,172.5 		"/>
		<polygon class="st16" points="1294.1,172.5 1311.1,176.7 1313.2,184.5 1311.7,186 1313.8,186.7 1316,194.8 1295.3,194.8 		"/>
		<polygon class="st17" points="1292.3,138.9 1282.4,143 1278,159.8 1280.8,160.9 1277.4,162.2 1270.1,189.6 1290.3,176.7 		"/>
		<polygon class="st15" points="1268.7,194.8 1270.1,189.6 1290.3,176.7 1289.3,194.8 		"/>
		<polygon class="st18" points="1292.3,138.9 1292.9,149.3 1304.6,152 1300.3,135.7 1297.7,134.6 1299.7,133.7 1292.3,105.8 
			1282.4,143 		"/>
		<path class="st14" d="M1292.2,143"/>
		<path class="st14" d="M1291.2,161.3"/>
		<path class="st14" d="M1280.8,160.9"/>
	</g>
	<g class="st10">
		<polygon class="st13" points="652.1,195.2 657.8,90.5 663.4,195.2 		"/>
		<polygon class="st15" points="656.9,107.6 637.8,111.8 627.2,152 655,145.3 		"/>
		<polygon class="st16" points="655,145.3 627.2,152 623.8,164.8 626.3,167.1 622.8,168.3 619.3,181.4 652.9,181.4 		"/>
		<polygon class="st17" points="657.8,90.5 673.8,97.3 681.1,124.5 676.4,126.4 682.1,128.4 693.9,172.9 661.1,152.1 		"/>
		<polygon class="st15" points="696.2,181.4 693.9,172.9 661.1,152.1 662.7,181.4 		"/>
		<polygon class="st18" points="657.8,90.5 656.9,107.6 637.8,111.8 644.9,85.3 649,83.6 645.7,82.1 657.8,36.7 673.8,97.3 		"/>
		<path class="st14" d="M658,97.3"/>
		<path class="st14" d="M659.6,126.9"/>
		<path class="st14" d="M676.4,126.4"/>
	</g>
	<g class="st10">
		<polygon class="st13" points="1386.6,154.5 1388.8,113.2 1391,154.5 		"/>
		<polygon class="st15" points="1388.5,119.9 1380.9,121.6 1376.7,137.5 1387.7,134.8 		"/>
		<polygon class="st16" points="1387.7,134.8 1376.7,137.5 1375.4,142.5 1376.4,143.4 1375,143.9 1373.6,149.1 1386.9,149.1 		"/>
		<polygon class="st17" points="1388.8,113.2 1395.2,115.9 1398,126.6 1396.2,127.4 1398.4,128.2 1403.1,145.7 1390.1,137.5 		"/>
		<polygon class="st15" points="1404,149.1 1403.1,145.7 1390.1,137.5 1390.7,149.1 		"/>
		<polygon class="st18" points="1388.8,113.2 1388.5,119.9 1380.9,121.6 1383.7,111.2 1385.3,110.5 1384.1,109.9 1388.8,92 
			1395.2,115.9 		"/>
		<path class="st14" d="M1388.9,115.9"/>
		<path class="st14" d="M1389.6,127.6"/>
		<path class="st14" d="M1396.2,127.4"/>
	</g>
	<g class="st10">
		<path class="st14" d="M981.1,106.3"/>
		<polygon class="st15" points="979.9,115.8 959,119.8 947.3,157.1 977.8,150.8 		"/>
		<polygon class="st16" points="977.8,150.8 947.3,157.1 943.6,168.9 946.4,171.1 942.6,172.2 938.8,184.3 975.8,184.3 		"/>
		<path class="st14" d="M982.9,133.8"/>
		<polygon class="st17" points="980.9,100 998.5,106.3 1006.4,131.6 1001.4,133.3 1007.6,135.2 1020.6,176.5 985,167 		"/>
		<polygon class="st15" points="1023,184.3 1020.6,176.5 985,167 986,184.3 		"/>
		<polygon class="st13" points="974.7,201.6 980.9,100 987.1,201.6 		"/>
		<polygon class="st18" points="998.5,106.3 980.9,50.1 967.7,92.2 971.2,93.6 966.7,95.2 959,119.8 979.9,115.8 980.9,100 		"/>
	</g>
	<g class="st10">
		<polygon class="st13" points="875.8,191.9 870.5,94 865.3,191.9 		"/>
		<polygon class="st15" points="871.3,109.9 889.2,113.9 899.1,151.5 873.2,145.2 		"/>
		<polygon class="st16" points="873.2,145.2 899.1,151.5 902.3,163.4 899.9,165.6 903.2,166.7 906.4,179 875.1,179 		"/>
		<polygon class="st17" points="870.5,94 855.5,100.3 848.7,125.8 853.1,127.5 847.8,129.5 836.7,171.1 867.4,151.6 		"/>
		<polygon class="st15" points="834.6,179 836.7,171.1 867.4,151.6 865.9,179 		"/>
		<polygon class="st18" points="870.5,94 871.3,109.9 889.2,113.9 882.6,89.2 878.7,87.6 881.8,86.2 870.5,43.8 855.5,100.3 		"/>
		<path class="st14" d="M870.3,100.3"/>
		<path class="st14" d="M868.8,128"/>
		<path class="st14" d="M853.1,127.5"/>
	</g>
	<g class="st10">
		<path class="st11" d="M752.8,130.8c0,6.4-5.9,9.7-13.1,9.7c-7.3,0-13.1-3.4-13.1-9.7c0-6.4,5.9-21.2,13.1-21.2
			C747,109.5,752.8,124.4,752.8,130.8z"/>
		<path class="st12" d="M729.1,120.5c3-2.1,7,19.7,7,19.7"/>
		<path class="st12" d="M745.1,139.8c0,0,1.3-11.7,6.4-15.9"/>
		<polygon class="st13" points="738.1,143.2 739.7,128.8 741.3,143.2 		"/>
	</g>
	<g class="st10">
		<path class="st11" d="M633,187.8c0,7.5-7,11.5-15.6,11.5c-8.6,0-15.6-4-15.6-11.5s7-25.1,15.6-25.1C626,162.7,633,180.3,633,187.8
			z"/>
		<path class="st12" d="M604.9,175.7c3.5-2.5,8.3,23.3,8.3,23.3"/>
		<path class="st12" d="M623.9,198.5c0,0,1.5-13.9,7.6-18.9"/>
		<polygon class="st13" points="615.5,202.6 617.5,185.5 619.4,202.6 		"/>
	</g>
	<g class="st10">
		<path class="st11" d="M1037,115.8c0,4-3.7,6.1-8.2,6.1s-8.2-2.1-8.2-6.1s3.7-13.3,8.2-13.3C1033.3,102.6,1037,111.9,1037,115.8z"
			/>
		<path class="st12" d="M1022.2,109.4c1.9-1.3,4.4,12.3,4.4,12.3"/>
		<path class="st12" d="M1032.2,121.5c0,0,0.8-7.3,4-10"/>
		<polygon class="st13" points="1027.8,123.6 1028.8,114.6 1029.8,123.6 		"/>
	</g>
</g>
<path class="st20" d="M1081.5,219c0,0,138.8-5.8,307-76.7c275.3-116.1,361.5-38.7,361.5-38.7V219H1081.5z"/>
<g id="Layer_9" class="st0">
	<g class="st10">
		<polygon class="st21" points="1623.7,107.1 1610.9,60.2 1575.3,118 		"/>
		<polyline class="st22" points="1605.1,86.7 1603.8,128.5 1632.4,139 1610.9,60.2 1575.3,118 1591.2,123.9 1605.1,86.7 		"/>
		<polygon class="st22" points="1681.8,50.9 1706.2,118 1632.4,139 1610.9,60.2 		"/>
		<path class="st23" d="M1605.1,86.7c0.1-1.7-19.7,29.1-19.7,29.1l5.8,8.1l0,0C1591.2,123.9,1602.9,123.9,1605.1,86.7z"/>
		
			<ellipse transform="matrix(0.9778 -0.2095 0.2095 0.9778 8.0184 345.4435)" class="st24" cx="1634.6" cy="134.9" rx="0.9" ry="1.1"/>
		
			<ellipse transform="matrix(0.9778 -0.2095 0.2095 0.9778 22.6328 339.6817)" class="st24" cx="1614.7" cy="63" rx="0.9" ry="1.1"/>
		
			<ellipse transform="matrix(0.9778 -0.2095 0.2095 0.9778 26.0298 353.2165)" class="st24" cx="1680.3" cy="53.7" rx="0.8" ry="1"/>
		
			<ellipse transform="matrix(0.9778 -0.2095 0.2095 0.9778 13.4908 359.222)" class="st24" cx="1702.4" cy="115.9" rx="0.9" ry="1.1"/>
	</g>
</g>
<g id="Layer_11" class="st0">
	<path class="st25" d="M1550.5,122.6l4.3,0.4c0,0,5.3,0.5,2,1.9c-1.6,0.7-5.1,0.6-5.1,0.6l-6.6-0.6c0,0,2,4.8-0.7,5.7
		s-4.4-1.1-4.9-1.6s1.2-3.9,1.2-3.9l-10.3,1.7c0,0-1.7-0.2-2.2-1.5s2.2-2.4,2.2-2.4h10l-5-2.9c0,0,0.7-3.4,3.8-2.3
		c3.1,1.1,7.4,4.7,7.4,4.7l2.9-4.5c0,0-0.3-1.4,2.3,0.1S1550.5,122.6,1550.5,122.6z"/>
</g>
<g id="Layer_10" class="st0">
	<path class="st26" d="M1542.4,103.9c0,0,4.8,5.5,1.7,12c-2.2,4.7,0.8-0.1,0.8-0.1c2.1-4.1,0.4-6.6,0.4-6.6
		c-0.5-4.2,3.4-11.5,4.4-10.7c0,0-4.3,1.5,1.2,11.6c3,5.5,0.6,10.4-5.2,12.8c-5.3,2.2-11.7-5.2-7.7-0.2c0,0-8-0.9-5.7-9.4
		c1.6-5.9,2.4-9.6-0.2-10.4c0,0,1-0.9,2.8,0s3.2,15.3,4.8,12.3c0.6-1.1-2-1.4-2-6.8c0,0,0.9-10.8,5.5-13.3
		C1543.3,95.1,1538.9,99.1,1542.4,103.9z"/>
	<path class="st27" d="M1534.5,111.4c0,0-1.3,4.8-0.4,6.4c1.3,2.5,3.2,1,3.2,1S1534.3,115.9,1534.5,111.4z"/>
	<path class="st27" d="M1547.1,108.5c0,0,0.4,3,0,6.5s-3.8,5-3.8,5s1.5,0.4,3.6,0c2.8-0.5,2.7-4.5,2.7-4.5
		S1549.7,110.8,1547.1,108.5z"/>
	<path class="st27" d="M1542.4,115c0,0-1.6-0.1-2.4-2.4c-0.8-2.3,0-6.9,0-6.9s1.7,3.9,2.4,5.4C1543.1,112.6,1543.9,115.8,1542.4,115
		z"/>
</g>
<g id="Layer_8">
</g>
<g id="Layer_14">
</g>
<g id="Layer_12" class="st0">
	<path class="st28" d="M906.1-188.9c0.4,0,0.7-0.1,1.1-0.1c4.8,0,8.8,3.9,8.8,8.8c0,1.1-0.2,2.1-0.6,3.1h-92c-1-0.9-1.7-2.2-1.7-3.7
		c0-2.7,2.2-5,5-5c1.3,0,2.4,0.5,3.3,1.2c0.9-6.5,6.5-11.6,13.2-11.6c2.5,0,4.9,0.7,6.9,1.9c2.3-10.2,11.4-17.9,22.3-17.9
		c8.2,0,15.5,4.4,19.5,10.9c1.3-0.5,2.5-0.8,4-0.8c5.9,0,10.6,4.7,10.6,10.6C906.4-190.6,906.3-189.7,906.1-188.9z"/>
	<path class="st28" d="M761.2-179.8c-0.4-0.1-0.9-0.1-1.3-0.1c-5.9,0-10.7,4.8-10.7,10.7c0,1.3,0.2,2.6,0.7,3.8H862
		c1.2-1.1,2-2.7,2-4.5c0-3.3-2.7-6-6-6c-1.5,0-2.9,0.6-4,1.5c-1.1-8-7.9-14.1-16.1-14.1c-3.1,0-5.9,0.9-8.4,2.3
		c-2.8-12.5-13.9-21.8-27.2-21.8c-10,0-18.8,5.3-23.7,13.3c-1.5-0.7-3.1-0.9-4.8-0.9c-7.1,0-12.9,5.8-12.9,12.9
		C760.9-181.8,761-180.7,761.2-179.8z"/>
	<path class="st28" d="M1520-174.5c0.6-0.1,1.1-0.1,1.7-0.1c7.6,0,13.8,6.2,13.8,13.8c0,1.7-0.3,3.4-0.9,4.9h-145.4
		c-1.6-1.4-2.6-3.5-2.6-5.8c0-4.3,3.5-7.8,7.8-7.8c2,0,3.8,0.7,5.2,2c1.4-10.4,10.2-18.3,20.9-18.3c4,0,7.7,1.1,10.9,3
		c3.6-16.2,18-28.3,35.3-28.3c13,0,24.4,6.9,30.8,17.2c2-0.8,4-1.2,6.3-1.2c9.2,0,16.7,7.5,16.7,16.7
		C1520.4-177,1520.3-175.7,1520-174.5z"/>
</g>
<g id="Layer_16" class="st0">
	<path class="st29" d="M985.7-1.2"/>
	<path class="st30" d="M787-69.4c0,0-1.3,1.6-2,0.3c-0.7-1.3,0-4.8,0-4.8c-3.7,3.4-2.3,17.7-2.3,17.7l0,0h-1.2
		c0,0,0.3-10.6-4.8-10.2c-3.5,0.3-3,10.2-3,10.2h-1.1c0.1-5-2.1-10.1-2.1-10.1s2-0.5,1.9-2.2c-0.1-1.7-2.6-3.4-0.1-6
		c0,0-2.7-0.9-1-4.8c0,0,1.1,4.3,6.3,4.4c3.2,0,4.8-1.7,5.5-3.2c0,0-1.1-0.5-0.6-2.5l1.2,1.3c0,0,1.6-2.2,0-3.4
		c-1.6-1.2-7.1,1.2-6.5,3.8c0.3,1.5,2,1.6,2,1.6c-3.4,0-6.1-3.4-2.3-5.7c0,0,11-6.1,12.2,2.1c0,0,2.6,10.5-0.8,9.9
		C785.3-71.5,787-69.4,787-69.4"/>
</g>
</svg>
