<?xml version="1.0" encoding="utf-8"?>
<!-- Generator: Adobe Illustrator 19.1.0, SVG Export Plug-In . SVG Version: 6.00 Build 0)  -->
<svg version="1.1" xmlns="http://www.w3.org/2000/svg" xmlns:xlink="http://www.w3.org/1999/xlink" x="0px" y="0px"
	 viewBox="0 0 1200 363.3" enable-background="new 0 0 1200 363.3" xml:space="preserve">
<g id="Layer_4">
</g>
<g id="Layer_13">
</g>
<g id="Layer_15">
	<path fill="#D3DEE2" d="M577.7,237.8L679.5,19.1c2.5-5.5,10.2-5.7,13-0.3l61.5,119.3l43.8-122.7c2.1-5.8,10.1-6.5,13.1-1.1
		l20.1,36.4l6.2-11.5c2.7-5.1,10-5.1,12.7,0l37.4,70.4l58.4-96c4.1-6.7,14-6.3,17.5,0.7l53.9,108.2l48.9-83.8
		c4-6.8,13.9-6.6,17.5,0.4l19.6,37.6l10.9-11.5c4.6-4.8,12.5-3.9,15.9,1.8l70.3,118.6v52.2L577.7,237.8z"/>
	<path fill="#D3DEE2" d="M0,234.4h333.7L234.1,14.3c-2.4-5.3-9.8-5.5-12.5-0.3l-59.3,115.2L120,10.7c-2-5.6-9.7-6.3-12.6-1L88,44.9
		l-5.9-11.1c-2.6-4.9-9.6-4.9-12.3,0l-36.1,68L0,36.6L0,234.4z"/>
</g>
<g id="Layer_1">
	<path fill="#BCC9CB" d="M476.3,185.5l25.9-60c2.9-6.9,12.7-7,15.7-0.1l9.6,22.3l20.1-43.8c2.8-6.1,11.3-6.7,14.9-1l28.5,44.8
		l25.5-42.5c3.7-6.2,12.9-5.2,15.3,1.6l12.4,35.5l40.1-71c3.3-5.9,11.8-5.7,15,0.3l59.6,115.3l44.2-83.2c3.2-6,11.8-6,15,0l7.3,13.5
		l23.7-43c3.5-6.4,13-5.7,15.5,1.2l51.7,144.9l72.6-140.9c3.3-6.3,12.4-6.1,15.3,0.4l37.7,86.7l28.3-53.6c3.4-6.4,12.7-6.1,15.7,0.5
		l7.6,16.9l10.5-31.3c2.5-7.6,13-8.1,16.3-0.8l19.7,44l23.4-61.6c2.8-7.5,13.4-7.5,16.3-0.1l20.6,52.4v155.7H476.3V185.5z"/>
</g>
<g id="Layer_2">
	<path fill="#869E54" d="M372.9,288.7h695.2c0,0-170.7-59.3-251.3-130.5s-261.1,42-261.1,42L372.9,288.7z"/>
</g>
<g id="Layer_5">
	<path fill="#748E3A" d="M0,288.7V115.4c0,0,231.1-27.2,573.5,68.8c277.7,77.9,333.8,92.9,524.7,104.4"/>
	<path fill="#76933C" d="M858.1,288.7"/>
</g>
<g id="Layer_3">
	<g>
		<path fill="#BAD532" stroke="#4F4436" stroke-linecap="round" stroke-linejoin="round" stroke-miterlimit="10" d="M732.4,239.2
			c0,6.6-6.1,10.1-13.7,10.1c-7.6,0-13.7-3.5-13.7-10.1s6.1-22.1,13.7-22.1C726.3,217.1,732.4,232.6,732.4,239.2z"/>
		<path fill="none" stroke="#4F4436" stroke-linecap="round" stroke-linejoin="round" stroke-miterlimit="10" d="M707.7,228.5
			c3.1-2.2,7.3,20.5,7.3,20.5"/>
		<path fill="none" stroke="#4F4436" stroke-linecap="round" stroke-linejoin="round" stroke-miterlimit="10" d="M724.3,248.6
			c0,0,1.4-12.2,6.7-16.6"/>
		<polygon fill="#5E5547" stroke="#4F4436" stroke-linecap="round" stroke-linejoin="round" stroke-miterlimit="10" points="
			717,252.1 718.7,237.2 720.4,252.1 		"/>
	</g>
	<g>
		<path fill="#3F3931" stroke="#4F4436" stroke-linecap="round" stroke-linejoin="round" stroke-miterlimit="10" d="M51.5,150.8"/>
		<polygon fill="#768948" stroke="#4F4436" stroke-linecap="round" stroke-linejoin="round" stroke-miterlimit="10" points="
			50.5,158.3 34.1,161.4 25,190.5 48.8,185.6 		"/>
		<polygon fill="#A6C36E" stroke="#4F4436" stroke-linecap="round" stroke-linejoin="round" stroke-miterlimit="10" points="
			48.8,185.6 25,190.5 22.1,199.8 24.2,201.5 21.3,202.4 18.3,211.9 47.2,211.9 		"/>
		<path fill="#3F3931" stroke="#4F4436" stroke-linecap="round" stroke-linejoin="round" stroke-miterlimit="10" d="M52.9,172.3"/>
		<polygon fill="#607744" stroke="#4F4436" stroke-linecap="round" stroke-linejoin="round" stroke-miterlimit="10" points="
			51.3,145.9 65.1,150.8 71.3,170.6 67.3,171.9 72.2,173.4 82.3,205.8 54.4,198.3 		"/>
		<polygon fill="#768948" stroke="#4F4436" stroke-linecap="round" stroke-linejoin="round" stroke-miterlimit="10" points="
			84.2,211.9 82.3,205.8 54.4,198.3 55.3,211.9 		"/>
		<polygon fill="#5E5547" stroke="#4F4436" stroke-linecap="round" stroke-linejoin="round" stroke-miterlimit="10" points="
			46.4,225.4 51.3,145.9 56.1,225.4 		"/>
		<polygon fill="#7A9648" stroke="#4F4436" stroke-linecap="round" stroke-linejoin="round" stroke-miterlimit="10" points="
			65.1,150.8 51.3,106.8 40.9,139.8 43.7,140.9 40.2,142.1 34.1,161.4 50.5,158.3 51.3,145.9 		"/>
	</g>
	<g>
		<path fill="#3F3931" stroke="#4F4436" stroke-linecap="round" stroke-linejoin="round" stroke-miterlimit="10" d="M288.1,121.3"/>
		<polygon fill="#768948" stroke="#4F4436" stroke-linecap="round" stroke-linejoin="round" stroke-miterlimit="10" points="
			287.3,127.3 274.1,129.8 266.8,153.3 286,149.3 		"/>
		<polygon fill="#A6C36E" stroke="#4F4436" stroke-linecap="round" stroke-linejoin="round" stroke-miterlimit="10" points="
			286,149.3 266.8,153.3 264.4,160.7 266.2,162.1 263.8,162.8 261.4,170.4 284.7,170.4 		"/>
		<path fill="#3F3931" stroke="#4F4436" stroke-linecap="round" stroke-linejoin="round" stroke-miterlimit="10" d="M289.2,138.6"/>
		<polygon fill="#607744" stroke="#4F4436" stroke-linecap="round" stroke-linejoin="round" stroke-miterlimit="10" points="
			287.9,117.3 299,121.3 304,137.2 300.8,138.3 304.7,139.5 312.9,165.5 290.5,159.5 		"/>
		<polygon fill="#768948" stroke="#4F4436" stroke-linecap="round" stroke-linejoin="round" stroke-miterlimit="10" points="
			314.5,170.4 312.9,165.5 290.5,159.5 291.1,170.4 		"/>
		<polygon fill="#5E5547" stroke="#4F4436" stroke-linecap="round" stroke-linejoin="round" stroke-miterlimit="10" points="
			284,181.3 287.9,117.3 291.8,181.3 		"/>
		<polygon fill="#7A9648" stroke="#4F4436" stroke-linecap="round" stroke-linejoin="round" stroke-miterlimit="10" points="
			299,121.3 287.9,85.9 279.6,112.4 281.8,113.3 279,114.3 274.1,129.8 287.3,127.3 287.9,117.3 		"/>
	</g>
	<path fill="#3F3931" d="M270,143.1"/>
	<g>
		<path fill="#3F3931" stroke="#4F4436" stroke-linecap="round" stroke-linejoin="round" stroke-miterlimit="10" d="M158.3,127.6"/>
		<polygon fill="#607744" stroke="#4F4436" stroke-linecap="round" stroke-linejoin="round" stroke-miterlimit="10" points="
			157.3,135.2 141.7,138.3 130.5,175.9 134.4,178.4 129.3,180 126.4,189.7 154.2,189.7 		"/>
		<path fill="#3F3931" stroke="#4F4436" stroke-linecap="round" stroke-linejoin="round" stroke-miterlimit="10" d="M159.6,149.5"/>
		<polygon fill="#5E5547" stroke="#4F4436" stroke-linecap="round" stroke-linejoin="round" stroke-miterlimit="10" points="
			153.4,201 158.1,122.6 162.7,201 		"/>
		<polygon fill="#768948" stroke="#4F4436" stroke-linecap="round" stroke-linejoin="round" stroke-miterlimit="10" points="
			186.4,178.5 189.7,189.7 161.9,189.7 158.1,122.6 171.3,127.6 174.3,137.6 171.3,140.1 175.3,141 185.6,175.9 182.3,177.3 		"/>
		<polygon fill="#A6C36E" stroke="#4F4436" stroke-linecap="round" stroke-linejoin="round" stroke-miterlimit="10" points="
			171.3,127.6 158.1,82.9 144.2,129.7 143.5,132.1 141.7,138.3 157.3,135.2 158.1,122.6 		"/>
	</g>
	<g>
		<polygon fill="#5E5547" stroke="#4F4436" stroke-linecap="round" stroke-linejoin="round" stroke-miterlimit="10" points="
			536.7,279.3 533,211.1 529.3,279.3 		"/>
		<polygon fill="#768948" stroke="#4F4436" stroke-linecap="round" stroke-linejoin="round" stroke-miterlimit="10" points="
			533.6,222.2 546,225 552.9,251.2 534.8,246.8 		"/>
		<polygon fill="#A6C36E" stroke="#4F4436" stroke-linecap="round" stroke-linejoin="round" stroke-miterlimit="10" points="
			534.8,246.8 552.9,251.2 555.1,259.5 553.5,261 555.7,261.8 558,270.3 536.2,270.3 		"/>
		<polygon fill="#607744" stroke="#4F4436" stroke-linecap="round" stroke-linejoin="round" stroke-miterlimit="10" points="
			533,211.1 522.6,215.6 517.9,233.3 520.9,234.5 517.2,235.8 509.5,264.8 530.9,251.2 		"/>
		<polygon fill="#768948" stroke="#4F4436" stroke-linecap="round" stroke-linejoin="round" stroke-miterlimit="10" points="
			508,270.3 509.5,264.8 530.9,251.2 529.8,270.3 		"/>
		<polygon fill="#7A9648" stroke="#4F4436" stroke-linecap="round" stroke-linejoin="round" stroke-miterlimit="10" points="
			533,211.1 533.6,222.2 546,225 541.4,207.8 538.7,206.7 540.8,205.7 533,176.2 522.6,215.6 		"/>
		<path fill="#3F3931" stroke="#4F4436" stroke-linecap="round" stroke-linejoin="round" stroke-miterlimit="10" d="M532.9,215.6"/>
		<path fill="#3F3931" stroke="#4F4436" stroke-linecap="round" stroke-linejoin="round" stroke-miterlimit="10" d="M531.8,234.8"/>
		<path fill="#3F3931" stroke="#4F4436" stroke-linecap="round" stroke-linejoin="round" stroke-miterlimit="10" d="M520.9,234.5"/>
	</g>
	<g>
		<polygon fill="#5E5547" stroke="#4F4436" stroke-linecap="round" stroke-linejoin="round" stroke-miterlimit="10" points="
			797.6,191 795.6,154.1 793.6,191 		"/>
		<polygon fill="#768948" stroke="#4F4436" stroke-linecap="round" stroke-linejoin="round" stroke-miterlimit="10" points="
			795.9,160.1 802.6,161.6 806.4,175.8 796.6,173.4 		"/>
		<polygon fill="#A6C36E" stroke="#4F4436" stroke-linecap="round" stroke-linejoin="round" stroke-miterlimit="10" points="
			796.6,173.4 806.4,175.8 807.6,180.3 806.7,181.1 807.9,181.5 809.1,186.1 797.3,186.1 		"/>
		<polygon fill="#607744" stroke="#4F4436" stroke-linecap="round" stroke-linejoin="round" stroke-miterlimit="10" points="
			795.6,154.1 789.9,156.5 787.4,166.1 789,166.8 787,167.5 782.8,183.2 794.4,175.8 		"/>
		<polygon fill="#768948" stroke="#4F4436" stroke-linecap="round" stroke-linejoin="round" stroke-miterlimit="10" points="
			782.1,186.1 782.8,183.2 794.4,175.8 793.9,186.1 		"/>
		<polygon fill="#7A9648" stroke="#4F4436" stroke-linecap="round" stroke-linejoin="round" stroke-miterlimit="10" points="
			795.6,154.1 795.9,160.1 802.6,161.6 800.1,152.3 798.7,151.7 799.8,151.1 795.6,135.2 789.9,156.5 		"/>
		<path fill="#3F3931" stroke="#4F4436" stroke-linecap="round" stroke-linejoin="round" stroke-miterlimit="10" d="M795.5,156.5"/>
		<path fill="#3F3931" stroke="#4F4436" stroke-linecap="round" stroke-linejoin="round" stroke-miterlimit="10" d="M794.9,166.9"/>
		<path fill="#3F3931" stroke="#4F4436" stroke-linecap="round" stroke-linejoin="round" stroke-miterlimit="10" d="M789,166.8"/>
	</g>
	<g>
		<polygon fill="#5E5547" stroke="#4F4436" stroke-linecap="round" stroke-linejoin="round" stroke-miterlimit="10" points="
			745.8,272.9 742.3,208.5 738.9,272.9 		"/>
		<polygon fill="#768948" stroke="#4F4436" stroke-linecap="round" stroke-linejoin="round" stroke-miterlimit="10" points="
			742.9,219 754.6,221.6 761.1,246.3 744.1,242.2 		"/>
		<polygon fill="#A6C36E" stroke="#4F4436" stroke-linecap="round" stroke-linejoin="round" stroke-miterlimit="10" points="
			744.1,242.2 761.1,246.3 763.2,254.2 761.7,255.7 763.8,256.4 766,264.4 745.3,264.4 		"/>
		<polygon fill="#607744" stroke="#4F4436" stroke-linecap="round" stroke-linejoin="round" stroke-miterlimit="10" points="
			742.3,208.5 732.4,212.7 728,229.4 730.8,230.6 727.4,231.9 720.1,259.2 740.3,246.4 		"/>
		<polygon fill="#768948" stroke="#4F4436" stroke-linecap="round" stroke-linejoin="round" stroke-miterlimit="10" points="
			718.7,264.4 720.1,259.2 740.3,246.4 739.3,264.4 		"/>
		<polygon fill="#7A9648" stroke="#4F4436" stroke-linecap="round" stroke-linejoin="round" stroke-miterlimit="10" points="
			742.3,208.5 742.9,219 754.6,221.6 750.3,205.4 747.7,204.3 749.7,203.4 742.3,175.5 732.4,212.7 		"/>
		<path fill="#3F3931" stroke="#4F4436" stroke-linecap="round" stroke-linejoin="round" stroke-miterlimit="10" d="M742.2,212.7"/>
		<path fill="#3F3931" stroke="#4F4436" stroke-linecap="round" stroke-linejoin="round" stroke-miterlimit="10" d="M741.2,230.9"/>
		<path fill="#3F3931" stroke="#4F4436" stroke-linecap="round" stroke-linejoin="round" stroke-miterlimit="10" d="M730.8,230.6"/>
	</g>
	<g>
		<polygon fill="#5E5547" stroke="#4F4436" stroke-linecap="round" stroke-linejoin="round" stroke-miterlimit="10" points="
			102.1,264.9 107.8,160.2 113.4,264.9 		"/>
		<polygon fill="#768948" stroke="#4F4436" stroke-linecap="round" stroke-linejoin="round" stroke-miterlimit="10" points="
			106.9,177.2 87.8,181.5 77.2,221.7 105,214.9 		"/>
		<polygon fill="#A6C36E" stroke="#4F4436" stroke-linecap="round" stroke-linejoin="round" stroke-miterlimit="10" points="
			105,214.9 77.2,221.7 73.8,234.4 76.3,236.8 72.8,238 69.3,251.1 102.9,251.1 		"/>
		<polygon fill="#607744" stroke="#4F4436" stroke-linecap="round" stroke-linejoin="round" stroke-miterlimit="10" points="
			107.8,160.2 123.8,166.9 131.1,194.2 126.4,196.1 132.1,198.1 143.9,242.6 111.1,221.8 		"/>
		<polygon fill="#768948" stroke="#4F4436" stroke-linecap="round" stroke-linejoin="round" stroke-miterlimit="10" points="
			146.2,251.1 143.9,242.6 111.1,221.8 112.7,251.1 		"/>
		<polygon fill="#7A9648" stroke="#4F4436" stroke-linecap="round" stroke-linejoin="round" stroke-miterlimit="10" points="
			107.8,160.2 106.9,177.2 87.8,181.5 94.9,155 99,153.3 95.7,151.8 107.8,106.4 123.8,166.9 		"/>
		<path fill="#3F3931" stroke="#4F4436" stroke-linecap="round" stroke-linejoin="round" stroke-miterlimit="10" d="M108,166.9"/>
		<path fill="#3F3931" stroke="#4F4436" stroke-linecap="round" stroke-linejoin="round" stroke-miterlimit="10" d="M109.6,196.6"/>
		<path fill="#3F3931" stroke="#4F4436" stroke-linecap="round" stroke-linejoin="round" stroke-miterlimit="10" d="M126.4,196.1"/>
	</g>
	<g>
		<polygon fill="#5E5547" stroke="#4F4436" stroke-linecap="round" stroke-linejoin="round" stroke-miterlimit="10" points="
			836.6,224.2 838.8,182.9 841,224.2 		"/>
		<polygon fill="#768948" stroke="#4F4436" stroke-linecap="round" stroke-linejoin="round" stroke-miterlimit="10" points="
			838.5,189.6 830.9,191.3 826.7,207.2 837.7,204.5 		"/>
		<polygon fill="#A6C36E" stroke="#4F4436" stroke-linecap="round" stroke-linejoin="round" stroke-miterlimit="10" points="
			837.7,204.5 826.7,207.2 825.4,212.2 826.4,213.1 825,213.6 823.6,218.8 836.9,218.8 		"/>
		<polygon fill="#607744" stroke="#4F4436" stroke-linecap="round" stroke-linejoin="round" stroke-miterlimit="10" points="
			838.8,182.9 845.2,185.6 848,196.3 846.2,197 848.4,197.9 853.1,215.4 840.1,207.2 		"/>
		<polygon fill="#768948" stroke="#4F4436" stroke-linecap="round" stroke-linejoin="round" stroke-miterlimit="10" points="
			854,218.8 853.1,215.4 840.1,207.2 840.7,218.8 		"/>
		<polygon fill="#7A9648" stroke="#4F4436" stroke-linecap="round" stroke-linejoin="round" stroke-miterlimit="10" points="
			838.8,182.9 838.5,189.6 830.9,191.3 833.7,180.8 835.3,180.2 834.1,179.6 838.8,161.7 845.2,185.6 		"/>
		<path fill="#3F3931" stroke="#4F4436" stroke-linecap="round" stroke-linejoin="round" stroke-miterlimit="10" d="M838.9,185.6"/>
		<path fill="#3F3931" stroke="#4F4436" stroke-linecap="round" stroke-linejoin="round" stroke-miterlimit="10" d="M839.6,197.3"/>
		<path fill="#3F3931" stroke="#4F4436" stroke-linecap="round" stroke-linejoin="round" stroke-miterlimit="10" d="M846.2,197"/>
	</g>
	<g>
		<path fill="#3F3931" stroke="#4F4436" stroke-linecap="round" stroke-linejoin="round" stroke-miterlimit="10" d="M431.1,176"/>
		<polygon fill="#768948" stroke="#4F4436" stroke-linecap="round" stroke-linejoin="round" stroke-miterlimit="10" points="
			429.9,185.5 409,189.5 397.3,226.7 427.8,220.5 		"/>
		<polygon fill="#A6C36E" stroke="#4F4436" stroke-linecap="round" stroke-linejoin="round" stroke-miterlimit="10" points="
			427.8,220.5 397.3,226.7 393.6,238.6 396.4,240.8 392.6,241.9 388.8,254 425.8,254 		"/>
		<path fill="#3F3931" stroke="#4F4436" stroke-linecap="round" stroke-linejoin="round" stroke-miterlimit="10" d="M432.9,203.5"/>
		<polygon fill="#607744" stroke="#4F4436" stroke-linecap="round" stroke-linejoin="round" stroke-miterlimit="10" points="
			430.9,169.7 448.5,176 456.4,201.2 451.4,203 457.6,204.9 470.6,246.2 435,236.7 		"/>
		<polygon fill="#768948" stroke="#4F4436" stroke-linecap="round" stroke-linejoin="round" stroke-miterlimit="10" points="
			473,254 470.6,246.2 435,236.7 436,254 		"/>
		<polygon fill="#5E5547" stroke="#4F4436" stroke-linecap="round" stroke-linejoin="round" stroke-miterlimit="10" points="
			424.7,271.3 430.9,169.7 437.1,271.3 		"/>
		<polygon fill="#7A9648" stroke="#4F4436" stroke-linecap="round" stroke-linejoin="round" stroke-miterlimit="10" points="
			448.5,176 430.9,119.8 417.7,161.9 421.2,163.3 416.7,164.9 409,189.5 429.9,185.5 430.9,169.7 		"/>
	</g>
	<g>
		<polygon fill="#5E5547" stroke="#4F4436" stroke-linecap="round" stroke-linejoin="round" stroke-miterlimit="10" points="
			325.8,261.6 320.5,163.7 315.3,261.6 		"/>
		<polygon fill="#768948" stroke="#4F4436" stroke-linecap="round" stroke-linejoin="round" stroke-miterlimit="10" points="
			321.3,179.6 339.2,183.6 349.1,221.2 323.2,214.9 		"/>
		<polygon fill="#A6C36E" stroke="#4F4436" stroke-linecap="round" stroke-linejoin="round" stroke-miterlimit="10" points="
			323.2,214.9 349.1,221.2 352.3,233.1 349.9,235.3 353.2,236.4 356.4,248.6 325.1,248.6 		"/>
		<polygon fill="#607744" stroke="#4F4436" stroke-linecap="round" stroke-linejoin="round" stroke-miterlimit="10" points="
			320.5,163.7 305.5,170 298.7,195.5 303.1,197.2 297.8,199.1 286.7,240.8 317.4,221.2 		"/>
		<polygon fill="#768948" stroke="#4F4436" stroke-linecap="round" stroke-linejoin="round" stroke-miterlimit="10" points="
			284.6,248.6 286.7,240.8 317.4,221.2 315.9,248.6 		"/>
		<polygon fill="#7A9648" stroke="#4F4436" stroke-linecap="round" stroke-linejoin="round" stroke-miterlimit="10" points="
			320.5,163.7 321.3,179.6 339.2,183.6 332.6,158.9 328.7,157.2 331.8,155.8 320.5,113.4 305.5,170 		"/>
		<path fill="#3F3931" stroke="#4F4436" stroke-linecap="round" stroke-linejoin="round" stroke-miterlimit="10" d="M320.3,170"/>
		<path fill="#3F3931" stroke="#4F4436" stroke-linecap="round" stroke-linejoin="round" stroke-miterlimit="10" d="M318.8,197.7"/>
		<path fill="#3F3931" stroke="#4F4436" stroke-linecap="round" stroke-linejoin="round" stroke-miterlimit="10" d="M303.1,197.2"/>
	</g>
	<g>
		<path fill="#BAD532" stroke="#4F4436" stroke-linecap="round" stroke-linejoin="round" stroke-miterlimit="10" d="M202.8,200.4
			c0,6.4-5.9,9.7-13.1,9.7c-7.3,0-13.1-3.4-13.1-9.7s5.9-21.2,13.1-21.2C197,179.2,202.8,194.1,202.8,200.4z"/>
		<path fill="none" stroke="#4F4436" stroke-linecap="round" stroke-linejoin="round" stroke-miterlimit="10" d="M179.1,190.2
			c3-2.1,7,19.7,7,19.7"/>
		<path fill="none" stroke="#4F4436" stroke-linecap="round" stroke-linejoin="round" stroke-miterlimit="10" d="M195.1,209.5
			c0,0,1.3-11.7,6.4-15.9"/>
		<polygon fill="#5E5547" stroke="#4F4436" stroke-linecap="round" stroke-linejoin="round" stroke-miterlimit="10" points="
			188.1,212.9 189.7,198.5 191.3,212.9 		"/>
	</g>
	<g>
		<path fill="#BAD532" stroke="#4F4436" stroke-linecap="round" stroke-linejoin="round" stroke-miterlimit="10" d="M83,257.5
			c0,7.5-7,11.5-15.6,11.5s-15.6-4-15.6-11.5c0-7.5,7-25.1,15.6-25.1S83,250,83,257.5z"/>
		<path fill="none" stroke="#4F4436" stroke-linecap="round" stroke-linejoin="round" stroke-miterlimit="10" d="M54.9,245.3
			c3.5-2.5,8.3,23.3,8.3,23.3"/>
		<path fill="none" stroke="#4F4436" stroke-linecap="round" stroke-linejoin="round" stroke-miterlimit="10" d="M73.9,268.2
			c0,0,1.5-13.9,7.6-18.9"/>
		<polygon fill="#5E5547" stroke="#4F4436" stroke-linecap="round" stroke-linejoin="round" stroke-miterlimit="10" points="
			65.5,272.2 67.5,255.2 69.4,272.2 		"/>
	</g>
	<g>
		<path fill="#BAD532" stroke="#4F4436" stroke-linecap="round" stroke-linejoin="round" stroke-miterlimit="10" d="M487,185.5
			c0,4-3.7,6.1-8.2,6.1c-4.5,0-8.2-2.1-8.2-6.1c0-4,3.7-13.3,8.2-13.3C483.3,172.2,487,181.5,487,185.5z"/>
		<path fill="none" stroke="#4F4436" stroke-linecap="round" stroke-linejoin="round" stroke-miterlimit="10" d="M472.2,179.1
			c1.9-1.3,4.4,12.3,4.4,12.3"/>
		<path fill="none" stroke="#4F4436" stroke-linecap="round" stroke-linejoin="round" stroke-miterlimit="10" d="M482.2,191.2
			c0,0,0.8-7.3,4-10"/>
		<polygon fill="#5E5547" stroke="#4F4436" stroke-linecap="round" stroke-linejoin="round" stroke-miterlimit="10" points="
			477.8,193.3 478.8,184.3 479.8,193.3 		"/>
	</g>
</g>
<g id="Layer_6">
	<path fill="#9BB755" d="M531.5,288.7c0,0,138.8-5.8,307-76.7c275.3-116.1,361.5-38.7,361.5-38.7v115.4H531.5z"/>
</g>
<g id="Layer_9">
</g>
<g id="Layer_11">
</g>
<g id="Layer_10">
</g>
<g id="Layer_8">
</g>
<g id="Layer_14">
	
		<rect y="288.7" fill="#2A87A8" stroke="#1A5D6D" stroke-width="1.5" stroke-linecap="round" stroke-linejoin="round" stroke-miterlimit="10" width="1200" height="74.7"/>
</g>
<g id="Layer_12">
</g>
<g id="Layer_16">
</g>
</svg>
