<?xml version="1.0" encoding="utf-8"?>
<!-- Generator: Adobe Illustrator 19.1.0, SVG Export Plug-In . SVG Version: 6.00 Build 0)  -->
<svg version="1.1" xmlns="http://www.w3.org/2000/svg" xmlns:xlink="http://www.w3.org/1999/xlink" x="0px" y="0px"
	 viewBox="0 0 1200 245.3" style="enable-background:new 0 0 1200 245.3;" xml:space="preserve">
<style type="text/css">
	.st0{display:none;}
	.st1{display:inline;fill:#869E54;}
	.st2{display:inline;fill:#E6EFF3;}
	.st3{display:inline;fill:#E8E619;stroke:#ECC91A;stroke-width:1.5;stroke-miterlimit:10;}
	.st4{opacity:0.65;fill:url(#SVGID_1_);}
	.st5{opacity:0.65;fill:url(#SVGID_2_);}
	.st6{fill:url(#SVGID_3_);}
	.st7{fill:url(#SVGID_4_);}
	.st8{fill:url(#SVGID_5_);}
	.st9{fill:url(#SVGID_6_);}
	.st10{fill:#DEDDDD;}
	.st11{fill:#F2F2F2;}
	.st12{fill:#FFFFFF;}
	.st13{fill:#3F3931;stroke:#4F4436;stroke-linecap:round;stroke-linejoin:round;stroke-miterlimit:10;}
	.st14{fill:#768948;stroke:#4F4436;stroke-linecap:round;stroke-linejoin:round;stroke-miterlimit:10;}
	.st15{fill:#A6C36E;stroke:#4F4436;stroke-linecap:round;stroke-linejoin:round;stroke-miterlimit:10;}
	.st16{fill:#607744;stroke:#4F4436;stroke-linecap:round;stroke-linejoin:round;stroke-miterlimit:10;}
	.st17{fill:#5E5547;stroke:#4F4436;stroke-linecap:round;stroke-linejoin:round;stroke-miterlimit:10;}
	.st18{fill:#7A9648;stroke:#4F4436;stroke-linecap:round;stroke-linejoin:round;stroke-miterlimit:10;}
	.st19{fill:#3F3931;}
	.st20{display:inline;}
	.st21{fill:#1F5E6D;stroke:#1A5D6D;stroke-linecap:round;stroke-linejoin:round;stroke-miterlimit:10;}
	.st22{fill:#2A87A8;stroke:#1A5D6D;stroke-linecap:round;stroke-linejoin:round;stroke-miterlimit:10;}
	.st23{fill:#247287;stroke:#1A5D6D;stroke-linejoin:round;stroke-miterlimit:10;}
	.st24{fill:#1A5D6D;}
	
		.st25{display:inline;fill:#5E5547;stroke:#4F4436;stroke-width:1.5;stroke-linecap:round;stroke-linejoin:round;stroke-miterlimit:10;}
	.st26{display:inline;fill:#E8E619;stroke:#ECC91A;stroke-width:0.5;stroke-miterlimit:10;}
	.st27{display:inline;fill:#E4A424;}
	.st28{display:inline;opacity:0.6;fill:#FFFFFF;}
	.st29{display:inline;fill:#4C4C4D;}
	.st30{display:inline;fill:#838484;}
</style>
<g id="Layer_4" class="st0">
	<path class="st1" d="M1141.6,245.3"/>
	<rect y="-480" class="st2" width="1200" height="725.3"/>
</g>
<g id="Layer_13" class="st0">
	<circle class="st3" cx="333.7" cy="84.3" r="74.1"/>
</g>
<g id="Layer_15">
	<linearGradient id="SVGID_1_" gradientUnits="userSpaceOnUse" x1="207" y1="196.9605" x2="207" y2="63.5294">
		<stop  offset="0" style="stop-color:#4A4A4A"/>
		<stop  offset="2.624989e-02" style="stop-color:#5E5E5E"/>
		<stop  offset="8.314270e-02" style="stop-color:#848484"/>
		<stop  offset="0.1465" style="stop-color:#A5A5A5"/>
		<stop  offset="0.2159" style="stop-color:#C1C1C1"/>
		<stop  offset="0.2935" style="stop-color:#D8D8D8"/>
		<stop  offset="0.3829" style="stop-color:#EAEAEA"/>
		<stop  offset="0.4913" style="stop-color:#F6F6F6"/>
		<stop  offset="0.6388" style="stop-color:#FDFDFD"/>
		<stop  offset="1" style="stop-color:#FFFFFF"/>
	</linearGradient>
	<path class="st4" d="M362.6,197L0,196.9L59.3,69.4c1.4-3.2,5.9-3.3,7.6-0.2l35.8,69.5l25.5-71.5c1.2-3.4,5.9-3.8,7.6-0.6l11.7,21.2
		l3.6-6.7c1.6-3,5.8-2.9,7.4,0l21.8,41.1l34-56c2.4-3.9,8.2-3.7,10.2,0.4l31.4,63L284.4,81c2.3-4,8.1-3.8,10.2,0.2l11.4,21.9
		l6.3-6.7c2.7-2.8,7.3-2.3,9.2,1l41,69.1l14.8-25.3c2.7-4.6,9.5-4.3,11.7,0.6L414,197H362.6z"/>
	<linearGradient id="SVGID_2_" gradientUnits="userSpaceOnUse" x1="757.6193" y1="203.1749" x2="757.6193" y2="75.5903">
		<stop  offset="0" style="stop-color:#585858"/>
		<stop  offset="1.443702e-02" style="stop-color:#646464"/>
		<stop  offset="6.581616e-02" style="stop-color:#888888"/>
		<stop  offset="0.1236" style="stop-color:#A8A8A8"/>
		<stop  offset="0.1875" style="stop-color:#C4C4C4"/>
		<stop  offset="0.2597" style="stop-color:#DADADA"/>
		<stop  offset="0.344" style="stop-color:#EBEBEB"/>
		<stop  offset="0.4482" style="stop-color:#F6F6F6"/>
		<stop  offset="0.5943" style="stop-color:#FDFDFD"/>
		<stop  offset="1" style="stop-color:#FFFFFF"/>
	</linearGradient>
	<path class="st5" d="M931,203.1L874.3,81.2c-1.4-3.1-5.7-3.2-7.2-0.2l-34.2,66.5l-24.4-68.4c-1.2-3.3-5.6-3.6-7.3-0.6L790,98.9
		l-3.4-6.4c-1.5-2.8-5.6-2.8-7.1,0l-20.9,39.3l-32.5-53.5c-2.3-3.7-7.8-3.5-9.7,0.4l-30,60.3L659,92.3c-2.2-3.8-7.7-3.7-9.8,0.2
		l-10.9,20.9l-6.1-6.4c-2.5-2.7-7-2.2-8.8,1l-39.2,66.1v29.1L931,203.1z"/>
	<linearGradient id="SVGID_3_" gradientUnits="userSpaceOnUse" x1="439.2086" y1="217.5509" x2="439.2086" y2="92.3067">
		<stop  offset="7.246377e-03" style="stop-color:#7C7C7C"/>
		<stop  offset="2.326804e-02" style="stop-color:#808080"/>
		<stop  offset="0.2499" style="stop-color:#ADADAD"/>
		<stop  offset="0.4674" style="stop-color:#D1D1D1"/>
		<stop  offset="0.6705" style="stop-color:#EAEAEA"/>
		<stop  offset="0.8538" style="stop-color:#FAFAFA"/>
		<stop  offset="1" style="stop-color:#FFFFFF"/>
	</linearGradient>
	<path class="st6" d="M269,217.5l55.6-119.6c1.4-3,5.6-3.1,7.1-0.2l33.6,65.3l23.9-67.1c1.1-3.2,5.5-3.5,7.2-0.6l11,19.9l3.4-6.3
		c1.5-2.8,5.5-2.8,6.9,0l20.5,38.5l31.9-52.5c2.2-3.7,7.7-3.5,9.6,0.4l29.5,59.2l26.8-45.8c2.2-3.7,7.6-3.6,9.6,0.2l10.7,20.5l6-6.3
		c2.5-2.6,6.8-2.2,8.7,1l38.5,64.9v28.6L269,217.5z"/>
	<linearGradient id="SVGID_4_" gradientUnits="userSpaceOnUse" x1="91.2635" y1="215.6184" x2="91.2635" y2="90.7581">
		<stop  offset="7.246377e-03" style="stop-color:#4A4A4A"/>
		<stop  offset="0.1946" style="stop-color:#7F7F7F"/>
		<stop  offset="0.382" style="stop-color:#ADADAD"/>
		<stop  offset="0.5613" style="stop-color:#D1D1D1"/>
		<stop  offset="0.7287" style="stop-color:#EAEAEA"/>
		<stop  offset="0.8796" style="stop-color:#FAFAFA"/>
		<stop  offset="1" style="stop-color:#FFFFFF"/>
	</linearGradient>
	<path class="st7" d="M0,215.6h182.5L128.1,95.2c-1.3-2.9-5.4-3-6.8-0.2l-32.4,63L65.7,93.3c-1.1-3.1-5.3-3.4-6.9-0.6L48.2,112
		l-3.3-6.1c-1.4-2.7-5.3-2.7-6.7,0l-19.8,37.2L0,107.5L0,215.6z"/>
</g>
<g id="Layer_1">
	<linearGradient id="SVGID_5_" gradientUnits="userSpaceOnUse" x1="816.54" y1="245.3097" x2="816.54" y2="29.2791">
		<stop  offset="0" style="stop-color:#D5D5D5"/>
		<stop  offset="0.3439" style="stop-color:#EAEAEA"/>
		<stop  offset="0.7085" style="stop-color:#FAFAFA"/>
		<stop  offset="1" style="stop-color:#FFFFFF"/>
	</linearGradient>
	<path class="st8" d="M828.9,245.3H433.1v-56.4l14.2-32.8c1.6-3.8,6.9-3.8,8.6-0.1l5.2,12.2l11-24c1.5-3.4,6.2-3.7,8.2-0.6
		l15.6,24.5l13.9-23.2c2-3.4,7.1-2.9,8.4,0.9l6.8,19.4l21.9-38.8c1.8-3.2,6.5-3.1,8.2,0.2l32.6,63.1l24.2-45.5
		c1.7-3.3,6.4-3.3,8.2,0l4,7.4l13-23.5c1.9-3.5,7.1-3.1,8.5,0.7l28.3,79.2l39.7-77.1c1.8-3.5,6.8-3.3,8.4,0.2l20.6,47.4l15.5-29.3
		c1.9-3.5,7-3.4,8.6,0.3l4.2,9.3l5.7-17.1c1.4-4.1,7.1-4.4,8.9-0.4l10.8,24l12.8-33.7c1.6-4.1,7.3-4.1,8.9-0.1l11.3,28.7
		c-0.7-1.9,15.3-29.5,22.8-42.3c1.8-3.1,6.1-3.3,8.3-0.5l17,22l38.5-75.6c1.9-3.6,7.1-3.6,8.9,0l42,82.7l39-113.8
		c1.6-4.6,8.1-4.5,9.5,0.2c12,39.4,44.1,143.6,46.5,139.4c2.1-3.7,12.4-30.3,18.1-45.4c1.5-4,7.1-4.4,9.1-0.6l11.8,22.3l17.5-44.9
		c1.6-4.2,7.5-4.3,9.3-0.1l26.2,61.4l31.2-73.6c1.8-4.3,8-4,9.4,0.4l5.9,18.6v134.8L828.9,245.3z"/>
</g>
<g id="Layer_2">
</g>
<g id="Layer_5">
	<linearGradient id="SVGID_6_" gradientUnits="userSpaceOnUse" x1="469.3633" y1="245.3096" x2="469.3633" y2="245.3096">
		<stop  offset="0" style="stop-color:#000000"/>
		<stop  offset="1.243299e-02" style="stop-color:#050505"/>
		<stop  offset="0.1764" style="stop-color:#464646"/>
		<stop  offset="0.338" style="stop-color:#7F7F7F"/>
		<stop  offset="0.4929" style="stop-color:#ADADAD"/>
		<stop  offset="0.64" style="stop-color:#D0D0D0"/>
		<stop  offset="0.7774" style="stop-color:#EAEAEA"/>
		<stop  offset="0.9013" style="stop-color:#FAFAFA"/>
		<stop  offset="1" style="stop-color:#FFFFFF"/>
	</linearGradient>
	<path class="st9" d="M469.4,245.3"/>
</g>
<g id="Layer_6">
	<path class="st10" d="M204,245.3h380.3c0,0-93.4-32.5-137.5-71.4s-142.8,23-142.8,23L204,245.3z"/>
	<path class="st11" d="M0,245.3v-94.8c0,0,126.4-14.9,313.7,37.6c151.9,42.6,182.6,50.8,287,57.1"/>
	<path class="st11" d="M1200,245.3H631c0,0,159-33.9,231-73.1s96-73.2,140-61.7s118,42.7,198,105.1V245.3z"/>
	<path class="st12" d="M920,245.3c-191-27.7-263.6-63.1-263.6-63.1s-71.1-33-197.8,21.2c-91.8,39.3-167.9,42-167.9,42L920,245.3z"/>
</g>
<g id="Layer_3">
	<g>
		<path class="st13" d="M625.8,173.1"/>
		<polygon class="st14" points="625.3,177 616.7,178.7 611.8,194.1 624.4,191.5 		"/>
		<polygon class="st15" points="624.4,191.5 611.8,194.1 610.3,198.9 611.5,199.8 609.9,200.3 608.3,205.3 623.6,205.3 		"/>
		<path class="st13" d="M626.5,184.5"/>
		<polygon class="st16" points="625.7,170.5 633,173.1 636.2,183.5 634.1,184.2 636.7,185 642.1,202.1 627.4,198.2 		"/>
		<polygon class="st14" points="643.1,205.3 642.1,202.1 627.4,198.2 627.8,205.3 		"/>
		<polygon class="st17" points="623.1,212.4 625.7,170.5 628.2,212.4 		"/>
		<polygon class="st18" points="633,173.1 625.7,149.9 620.2,167.3 621.7,167.9 619.9,168.5 616.7,178.7 625.3,177 625.7,170.5 		
			"/>
	</g>
	<path class="st19" d="M183.1,146.2"/>
	<g>
		<path class="st13" d="M110,136.1"/>
		<polygon class="st16" points="109.4,141 99.1,143.1 91.8,167.7 94.3,169.3 91,170.4 89.1,176.7 107.3,176.7 		"/>
		<path class="st13" d="M110.8,150.4"/>
		<polygon class="st17" points="106.8,184.1 109.8,132.8 112.9,184.1 		"/>
		<polygon class="st14" points="128.4,169.4 130.6,176.7 112.4,176.7 109.8,132.8 118.5,136.1 120.4,142.6 118.5,144.3 121.1,144.9 
			127.9,167.7 125.7,168.6 		"/>
		<polygon class="st15" points="118.5,136.1 109.8,106.8 100.8,137.5 100.3,139 99.1,143.1 109.4,141 109.8,132.8 		"/>
	</g>
	<g>
		<polygon class="st17" points="332.6,224.6 330.2,179.9 327.8,224.6 		"/>
		<polygon class="st14" points="330.5,187.2 338.7,189 343.2,206.1 331.4,203.3 		"/>
		<polygon class="st15" points="331.4,203.3 343.2,206.1 344.7,211.6 343.6,212.6 345.1,213.1 346.5,218.7 332.2,218.7 		"/>
		<polygon class="st16" points="330.2,179.9 323.3,182.8 320.2,194.4 322.2,195.2 319.8,196.1 314.8,215.1 328.8,206.2 		"/>
		<polygon class="st14" points="313.8,218.7 314.8,215.1 328.8,206.2 328.1,218.7 		"/>
		<polygon class="st18" points="330.2,179.9 330.5,187.2 338.7,189 335.7,177.7 333.9,177 335.3,176.4 330.2,157 323.3,182.8 		"/>
		<path class="st13" d="M330.1,182.8"/>
		<path class="st13" d="M329.4,195.5"/>
		<path class="st13" d="M322.2,195.2"/>
	</g>
	<g>
		<polygon class="st17" points="543.5,213.8 542.2,189.7 540.9,213.8 		"/>
		<polygon class="st14" points="542.4,193.6 546.8,194.6 549.3,203.9 542.9,202.3 		"/>
		<polygon class="st15" points="542.9,202.3 549.3,203.9 550.1,206.8 549.5,207.4 550.3,207.6 551.1,210.7 543.3,210.7 		"/>
		<polygon class="st16" points="542.2,189.7 538.5,191.2 536.8,197.5 537.9,198 536.6,198.4 533.9,208.7 541.5,203.9 		"/>
		<polygon class="st14" points="533.4,210.7 533.9,208.7 541.5,203.9 541.1,210.7 		"/>
		<polygon class="st18" points="542.2,189.7 542.4,193.6 546.8,194.6 545.2,188.5 544.2,188.1 545,187.7 542.2,177.3 538.5,191.2 		
			"/>
		<path class="st13" d="M542.2,191.2"/>
		<path class="st13" d="M541.8,198.1"/>
		<path class="st13" d="M537.9,198"/>
	</g>
	<g>
		<polygon class="st17" points="494.8,231.3 492.5,189.1 490.3,231.3 		"/>
		<polygon class="st14" points="492.9,196 500.6,197.7 504.9,213.9 493.7,211.1 		"/>
		<polygon class="st15" points="493.7,211.1 504.9,213.9 506.2,219 505.2,220 506.6,220.4 508,225.7 494.5,225.7 		"/>
		<polygon class="st16" points="492.5,189.1 486.1,191.8 483.1,202.8 485,203.5 482.7,204.4 478,222.3 491.2,213.9 		"/>
		<polygon class="st14" points="477.1,225.7 478,222.3 491.2,213.9 490.6,225.7 		"/>
		<polygon class="st18" points="492.5,189.1 492.9,196 500.6,197.7 497.7,187 496.1,186.3 497.4,185.7 492.5,167.4 486.1,191.8 		
			"/>
		<path class="st13" d="M492.4,191.8"/>
		<path class="st13" d="M491.8,203.8"/>
		<path class="st13" d="M485,203.5"/>
	</g>
	<g>
		<polygon class="st17" points="52.1,226.7 55.8,158.1 59.5,226.7 		"/>
		<polygon class="st14" points="55.2,169.3 42.7,172.1 35.8,198.4 54,194 		"/>
		<polygon class="st15" points="54,194 35.8,198.4 33.5,206.7 35.2,208.3 32.9,209.1 30.6,217.6 52.6,217.6 		"/>
		<polygon class="st16" points="55.8,158.1 66.3,162.5 71.1,180.4 68,181.6 71.8,182.9 79.5,212.1 58,198.4 		"/>
		<polygon class="st14" points="81,217.6 79.5,212.1 58,198.4 59,217.6 		"/>
		<polygon class="st18" points="55.8,158.1 55.2,169.3 42.7,172.1 47.4,154.7 50,153.6 47.9,152.6 55.8,122.9 66.3,162.5 		"/>
		<path class="st13" d="M56,162.5"/>
		<path class="st13" d="M57,182"/>
		<path class="st13" d="M68,181.6"/>
	</g>
	<g>
		<polygon class="st17" points="1067.5,152.4 1069,125.4 1070.4,152.4 		"/>
		<polygon class="st14" points="1068.7,129.8 1063.8,130.9 1061.1,141.3 1068.2,139.5 		"/>
		<polygon class="st15" points="1068.2,139.5 1061.1,141.3 1060.2,144.6 1060.8,145.2 1059.9,145.5 1059,148.9 1067.7,148.9 		"/>
		<polygon class="st16" points="1069,125.4 1073.1,127.1 1075,134.2 1073.8,134.6 1075.3,135.2 1078.3,146.7 1069.8,141.3 		"/>
		<polygon class="st14" points="1078.9,148.9 1078.3,146.7 1069.8,141.3 1070.2,148.9 		"/>
		<polygon class="st18" points="1069,125.4 1068.7,129.8 1063.8,130.9 1065.6,124 1066.7,123.6 1065.9,123.2 1069,111.5 
			1073.1,127.1 		"/>
		<path class="st13" d="M1069,127.1"/>
		<path class="st13" d="M1069.5,134.8"/>
		<path class="st13" d="M1073.8,134.6"/>
	</g>
	<g>
		<path class="st13" d="M239.1,168.7"/>
		<polygon class="st14" points="238.3,175 224.6,177.6 217,202 236.9,197.9 		"/>
		<polygon class="st15" points="236.9,197.9 217,202 214.6,209.7 216.4,211.2 213.9,211.9 211.4,219.9 235.6,219.9 		"/>
		<path class="st13" d="M240.3,186.7"/>
		<polygon class="st16" points="239,164.6 250.5,168.7 255.7,185.3 252.4,186.4 256.5,187.7 264.9,214.7 241.6,208.5 		"/>
		<polygon class="st14" points="266.6,219.9 264.9,214.7 241.6,208.5 242.3,219.9 		"/>
		<polygon class="st17" points="234.9,231.2 239,164.6 243,231.2 		"/>
		<polygon class="st18" points="250.5,168.7 239,132 230.3,159.5 232.6,160.4 229.7,161.5 224.6,177.6 238.3,175 239,164.6 		"/>
	</g>
	<g>
		<polygon class="st17" points="1141.2,228.5 1137.8,164.3 1134.3,228.5 		"/>
		<polygon class="st14" points="1138.3,174.8 1150,177.4 1156.5,202 1139.5,197.9 		"/>
		<polygon class="st15" points="1139.5,197.9 1156.5,202 1158.6,209.8 1157,211.3 1159.2,212 1161.3,220 1140.8,220 		"/>
		<polygon class="st16" points="1137.8,164.3 1127.9,168.5 1123.5,185.2 1126.3,186.3 1122.9,187.6 1115.6,214.8 1135.8,202 		"/>
		<polygon class="st14" points="1114.3,220 1115.6,214.8 1135.8,202 1134.8,220 		"/>
		<polygon class="st18" points="1137.8,164.3 1138.3,174.8 1150,177.4 1145.7,161.2 1143.2,160.1 1145.2,159.2 1137.8,131.4 
			1127.9,168.5 		"/>
		<path class="st13" d="M1137.6,168.5"/>
		<path class="st13" d="M1136.6,186.6"/>
		<path class="st13" d="M1126.3,186.3"/>
	</g>
	<g>
		<path class="st13" d="M130.7,159.2"/>
		<polygon class="st14" points="130.1,164.1 119.3,166.1 113.3,185.3 129,182.1 		"/>
		<polygon class="st15" points="129,182.1 113.3,185.3 111.4,191.3 112.9,192.5 110.9,193 108.9,199.3 127.9,199.3 		"/>
		<path class="st13" d="M131.6,173.3"/>
		<polygon class="st16" points="130.6,156 139.6,159.2 143.7,172.2 141.1,173.1 144.2,174.1 150.9,195.2 132.6,190.4 		"/>
		<polygon class="st14" points="152.2,199.3 150.9,195.2 132.6,190.4 133.2,199.3 		"/>
		<polygon class="st17" points="127.4,208.1 130.6,156 133.7,208.1 		"/>
		<polygon class="st18" points="139.6,159.2 130.6,130.4 123.8,152 125.6,152.7 123.3,153.5 119.3,166.1 130.1,164.1 130.6,156 		
			"/>
	</g>
</g>
<g id="Layer_9" class="st0">
	<g class="st20">
		<polygon class="st21" points="1073.7,133.5 1060.9,86.5 1025.3,144.3 		"/>
		<polyline class="st22" points="1055.1,113 1053.8,154.8 1082.4,165.3 1060.9,86.5 1025.3,144.3 1041.2,150.2 1055.1,113 		"/>
		<polygon class="st22" points="1131.8,77.2 1156.2,144.3 1082.4,165.3 1060.9,86.5 		"/>
		<path class="st23" d="M1055.1,113c0.1-1.7-19.7,29.1-19.7,29.1l5.8,8.1l0,0C1041.2,150.2,1052.9,150.2,1055.1,113z"/>
		
			<ellipse transform="matrix(0.2095 0.9778 -0.9778 0.2095 1015.0018 -933.1896)" class="st24" cx="1084.7" cy="161.2" rx="1.1" ry="0.9"/>
		
			<ellipse transform="matrix(0.2095 0.9778 -0.9778 0.2095 928.9981 -970.4355)" class="st24" cx="1064.7" cy="89.4" rx="1.1" ry="0.9"/>
		
			<ellipse transform="matrix(0.2095 0.9778 -0.9778 0.2095 971.7476 -1041.8984)" class="st24" cx="1130.3" cy="80.1" rx="1" ry="0.8"/>
		
			<ellipse transform="matrix(0.2095 0.9778 -0.9778 0.2095 1050.1125 -1014.3691)" class="st24" cx="1152.4" cy="142.3" rx="1.1" ry="0.9"/>
	</g>
</g>
<g id="Layer_11" class="st0">
	<path class="st25" d="M1000.5,149l4.3,0.4c0,0,5.3,0.5,2,1.9c-1.6,0.7-5.1,0.6-5.1,0.6l-6.6-0.6c0,0,2,4.8-0.7,5.7
		s-4.4-1.1-4.9-1.6c-0.5-0.5,1.2-3.9,1.2-3.9l-10.3,1.7c0,0-1.7-0.2-2.2-1.5c-0.5-1.3,2.2-2.4,2.2-2.4h10l-5-2.9
		c0,0,0.7-3.4,3.8-2.3c3.1,1.1,7.4,4.7,7.4,4.7l2.9-4.5c0,0-0.3-1.4,2.3,0.1C1004.2,145.9,1000.5,149,1000.5,149z"/>
</g>
<g id="Layer_10" class="st0">
	<path class="st26" d="M992.4,130.2c0,0,4.8,5.5,1.7,12c-2.2,4.7,0.8-0.1,0.8-0.1c2.1-4.1,0.4-6.6,0.4-6.6
		c-0.5-4.2,3.4-11.5,4.4-10.7c0,0-4.3,1.5,1.2,11.6c3,5.5,0.6,10.4-5.2,12.8c-5.3,2.2-11.7-5.2-7.7-0.2c0,0-8-0.9-5.7-9.4
		c1.6-5.9,2.4-9.6-0.2-10.4c0,0,1-0.9,2.8,0s3.2,15.3,4.8,12.3c0.6-1.1-2-1.4-2-6.8c0,0,0.9-10.8,5.5-13.3
		C993.3,121.4,988.9,125.5,992.4,130.2z"/>
	<path class="st27" d="M984.5,137.7c0,0-1.3,4.8-0.4,6.4c1.3,2.5,3.2,1,3.2,1S984.3,142.2,984.5,137.7z"/>
	<path class="st27" d="M997.1,134.8c0,0,0.4,3,0,6.5c-0.4,3.5-3.8,5-3.8,5s1.5,0.4,3.6,0c2.8-0.5,2.7-4.5,2.7-4.5
		S999.7,137.1,997.1,134.8z"/>
	<path class="st27" d="M992.4,141.3c0,0-1.6-0.1-2.4-2.4c-0.8-2.3,0-6.9,0-6.9s1.7,3.9,2.4,5.4C993.1,138.9,993.9,142.2,992.4,141.3
		z"/>
</g>
<g id="Layer_8">
</g>
<g id="Layer_14">
</g>
<g id="Layer_12" class="st0">
	<path class="st28" d="M356.1-162.6c0.4,0,0.7-0.1,1.1-0.1c4.8,0,8.8,3.9,8.8,8.8c0,1.1-0.2,2.1-0.6,3.1l-92,0
		c-1-0.9-1.7-2.2-1.7-3.7c0-2.7,2.2-5,5-5c1.3,0,2.4,0.5,3.3,1.2c0.9-6.5,6.5-11.6,13.2-11.6c2.5,0,4.9,0.7,6.9,1.9
		c2.3-10.2,11.4-17.9,22.3-17.9c8.2,0,15.5,4.4,19.5,10.9c1.3-0.5,2.5-0.8,4-0.8c5.9,0,10.6,4.7,10.6,10.6
		C356.4-164.2,356.3-163.4,356.1-162.6z"/>
	<path class="st28" d="M211.2-153.4c-0.4-0.1-0.9-0.1-1.3-0.1c-5.9,0-10.7,4.8-10.7,10.7c0,1.3,0.2,2.6,0.7,3.8l112.1,0
		c1.2-1.1,2-2.7,2-4.5c0-3.3-2.7-6-6-6c-1.5,0-2.9,0.6-4,1.5c-1.1-8-7.9-14.1-16.1-14.1c-3.1,0-5.9,0.9-8.4,2.3
		c-2.8-12.5-13.9-21.8-27.2-21.8c-10,0-18.8,5.3-23.7,13.3c-1.5-0.7-3.1-0.9-4.8-0.9c-7.1,0-12.9,5.8-12.9,12.9
		C210.9-155.4,211-154.4,211.2-153.4z"/>
	<path class="st28" d="M970-148.1c0.6-0.1,1.1-0.1,1.7-0.1c7.6,0,13.8,6.2,13.8,13.8c0,1.7-0.3,3.4-0.9,4.9l-145.4,0
		c-1.6-1.4-2.6-3.5-2.6-5.8c0-4.3,3.5-7.8,7.8-7.8c2,0,3.8,0.7,5.2,2c1.4-10.3,10.2-18.3,20.9-18.3c4,0,7.7,1.1,10.9,3
		c3.6-16.2,18-28.3,35.3-28.3c13,0,24.4,6.9,30.8,17.2c2-0.8,4-1.2,6.3-1.2c9.2,0,16.7,7.5,16.7,16.7
		C970.4-150.7,970.3-149.4,970-148.1z"/>
</g>
<g id="Layer_16" class="st0">
	<path class="st29" d="M435.7,25.1"/>
	<path class="st30" d="M237-43.1c0,0-1.3,1.6-2,0.3c-0.7-1.3,0-4.8,0-4.8c-3.7,3.4-2.3,17.7-2.3,17.7l0,0h-1.2
		c0,0,0.3-10.6-4.8-10.2c-3.5,0.3-3,10.2-3,10.2h-1.1c0.1-5-2.1-10.1-2.1-10.1s2-0.5,1.9-2.2s-2.6-3.4-0.1-6c0,0-2.7-0.9-1-4.8
		c0,0,1.1,4.3,6.3,4.4c3.2,0,4.8-1.7,5.5-3.2c0,0-1.1-0.5-0.6-2.5l1.2,1.3c0,0,1.6-2.2,0-3.4c-1.6-1.2-7.1,1.2-6.5,3.8
		c0.3,1.5,2,1.6,2,1.6c-3.4,0-6.1-3.4-2.3-5.7c0,0,11-6.1,12.2,2.1c0,0,2.6,10.5-0.8,9.9C235.3-45.1,237-43.1,237-43.1"/>
</g>
</svg>
