<?xml version="1.0" encoding="utf-8"?>
<!-- Generator: Adobe Illustrator 19.1.0, SVG Export Plug-In . SVG Version: 6.00 Build 0)  -->
<svg version="1.1" xmlns="http://www.w3.org/2000/svg" xmlns:xlink="http://www.w3.org/1999/xlink" x="0px" y="0px"
	 viewBox="0 0 1200 338.8" style="enable-background:new 0 0 1200 338.8;" xml:space="preserve">
<style type="text/css">
	.st0{display:none;}
	.st1{display:inline;fill:#869E54;}
	.st2{display:inline;fill:#E6EFF3;}
	.st3{display:inline;fill:#E8E619;stroke:#ECC91A;stroke-width:1.5;stroke-miterlimit:10;}
	.st4{opacity:0.3;fill:#D3DEE2;}
	.st5{fill:#D3DEE2;}
	.st6{fill:#BCC9CB;}
	.st7{fill:#869E54;}
	.st8{fill:#748E3A;}
	.st9{fill:#76933C;}
	.st10{display:inline;}
	.st11{fill:#BAD532;stroke:#4F4436;stroke-linecap:round;stroke-linejoin:round;stroke-miterlimit:10;}
	.st12{fill:none;stroke:#4F4436;stroke-linecap:round;stroke-linejoin:round;stroke-miterlimit:10;}
	.st13{fill:#5E5547;stroke:#4F4436;stroke-linecap:round;stroke-linejoin:round;stroke-miterlimit:10;}
	.st14{fill:#3F3931;stroke:#4F4436;stroke-linecap:round;stroke-linejoin:round;stroke-miterlimit:10;}
	.st15{fill:#768948;stroke:#4F4436;stroke-linecap:round;stroke-linejoin:round;stroke-miterlimit:10;}
	.st16{fill:#A6C36E;stroke:#4F4436;stroke-linecap:round;stroke-linejoin:round;stroke-miterlimit:10;}
	.st17{fill:#607744;stroke:#4F4436;stroke-linecap:round;stroke-linejoin:round;stroke-miterlimit:10;}
	.st18{fill:#7A9648;stroke:#4F4436;stroke-linecap:round;stroke-linejoin:round;stroke-miterlimit:10;}
	.st19{display:inline;fill:#3F3931;}
	.st20{fill:#9BB755;}
	.st21{fill:#1F5E6D;stroke:#1A5D6D;stroke-linecap:round;stroke-linejoin:round;stroke-miterlimit:10;}
	.st22{fill:#2A87A8;stroke:#1A5D6D;stroke-linecap:round;stroke-linejoin:round;stroke-miterlimit:10;}
	.st23{fill:#247287;stroke:#1A5D6D;stroke-linejoin:round;stroke-miterlimit:10;}
	.st24{fill:#1A5D6D;}
	
		.st25{display:inline;fill:#5E5547;stroke:#4F4436;stroke-width:1.5;stroke-linecap:round;stroke-linejoin:round;stroke-miterlimit:10;}
	.st26{display:inline;fill:#E8E619;stroke:#ECC91A;stroke-width:0.5;stroke-miterlimit:10;}
	.st27{display:inline;fill:#E4A424;}
	.st28{display:inline;opacity:0.6;fill:#FFFFFF;}
	.st29{display:inline;fill:#4C4C4D;}
	.st30{display:inline;fill:#838484;}
</style>
<g id="Layer_4" class="st0">
	<path class="st1" d="M1141.6,338.8"/>
	<rect y="-386.6" class="st2" width="1200" height="725.3"/>
</g>
<g id="Layer_13" class="st0">
	<circle class="st3" cx="333.7" cy="177.8" r="74.1"/>
</g>
<g id="Layer_15">
	<path class="st4" d="M0,221.9L82.1,45.5c2-4.4,8.2-4.6,10.5-0.3l49.6,96.3l35.3-99c1.7-4.7,8.1-5.2,10.6-0.8L204.1,71l5-9.2
		c2.2-4.1,8.1-4.1,10.2,0l30.2,56.8l47.1-77.5c3.3-5.4,11.3-5.1,14.1,0.6l43.4,87.3l39.5-67.6c3.2-5.5,11.2-5.3,14.1,0.3l15.8,30.3
		l8.8-9.3c3.7-3.9,10.1-3.2,12.8,1.4l56.7,95.7V222L0,221.9z"/>
	<path class="st5" d="M577.7,287.9L679.5,69.2c2.5-5.5,10.2-5.7,13-0.3l61.5,119.3l43.8-122.7c2.1-5.8,10.1-6.5,13.1-1.1l20.1,36.4
		l6.2-11.5c2.7-5.1,10-5.1,12.7,0l37.4,70.4l58.4-96c4.1-6.7,14-6.3,17.5,0.7l53.9,108.2l48.9-83.8c4-6.8,13.9-6.6,17.5,0.4
		l19.6,37.6l10.9-11.5c4.6-4.8,12.5-3.9,15.9,1.8l70.3,118.6V288L577.7,287.9z"/>
	<path class="st5" d="M0,284.5h333.7L234.1,64.4c-2.4-5.3-9.8-5.5-12.5-0.3l-59.3,115.2L120,60.8c-2-5.6-9.7-6.3-12.6-1L88,95
		l-5.9-11.1c-2.6-4.9-9.6-4.9-12.3,0l-36.1,68L0,86.8L0,284.5z"/>
</g>
<g id="Layer_1">
	<path class="st6" d="M476.3,235.7l25.9-60c2.9-6.9,12.7-7,15.7-0.1l9.6,22.3l20.1-43.8c2.8-6.1,11.3-6.7,14.9-1l28.5,44.8
		l25.5-42.5c3.7-6.2,12.9-5.2,15.3,1.6l12.4,35.5l40.1-71c3.3-5.9,11.8-5.7,15,0.3L758.8,237l44.2-83.2c3.2-6,11.8-6,15,0l7.3,13.5
		l23.7-43c3.5-6.4,13-5.7,15.5,1.2l51.7,144.9l72.6-140.9c3.3-6.3,12.4-6.1,15.3,0.4l37.7,86.7l28.3-53.6c3.4-6.4,12.7-6.1,15.7,0.5
		l7.6,16.9l10.5-31.3c2.5-7.6,13-8.1,16.3-0.8l19.7,44l23.4-61.6c2.8-7.5,13.4-7.5,16.3-0.1L1200,183v155.7H476.3V235.7z"/>
</g>
<g id="Layer_2">
	<path class="st7" d="M372.9,338.8h695.2c0,0-170.7-59.3-251.3-130.5s-261.1,42-261.1,42L372.9,338.8z"/>
</g>
<g id="Layer_5">
	<path class="st8" d="M0,338.8V165.6c0,0,231.1-27.2,573.5,68.8c277.7,77.9,333.8,92.9,524.7,104.4"/>
	<path class="st9" d="M858.1,338.8"/>
</g>
<g id="Layer_3" class="st0">
	<g class="st10">
		<path class="st11" d="M732.4,289.3c0,6.6-6.1,10.1-13.7,10.1c-7.6,0-13.7-3.5-13.7-10.1s6.1-22.1,13.7-22.1
			C726.3,267.3,732.4,282.7,732.4,289.3z"/>
		<path class="st12" d="M707.7,278.6c3.1-2.2,7.3,20.5,7.3,20.5"/>
		<path class="st12" d="M724.3,298.7c0,0,1.4-12.2,6.7-16.6"/>
		<polygon class="st13" points="717,302.3 718.7,287.3 720.4,302.3 		"/>
	</g>
	<g class="st10">
		<path class="st14" d="M51.5,200.9"/>
		<polygon class="st15" points="50.5,208.4 34.1,211.5 25,240.7 48.8,235.8 		"/>
		<polygon class="st16" points="48.8,235.8 25,240.7 22.1,249.9 24.2,251.7 21.3,252.5 18.3,262 47.2,262 		"/>
		<path class="st14" d="M52.9,222.5"/>
		<polygon class="st17" points="51.3,196 65.1,200.9 71.3,220.7 67.3,222.1 72.2,223.6 82.3,255.9 54.4,248.4 		"/>
		<polygon class="st15" points="84.2,262 82.3,255.9 54.4,248.4 55.3,262 		"/>
		<polygon class="st13" points="46.4,275.6 51.3,196 56.1,275.6 		"/>
		<polygon class="st18" points="65.1,200.9 51.3,156.9 40.9,189.9 43.7,191 40.2,192.2 34.1,211.5 50.5,208.4 51.3,196 		"/>
	</g>
	<g class="st10">
		<path class="st14" d="M288.1,171.4"/>
		<polygon class="st15" points="287.3,177.4 274.1,179.9 266.8,203.4 286,199.4 		"/>
		<polygon class="st16" points="286,199.4 266.8,203.4 264.4,210.8 266.2,212.2 263.8,212.9 261.4,220.6 284.7,220.6 		"/>
		<path class="st14" d="M289.2,188.7"/>
		<polygon class="st17" points="287.9,167.4 299,171.4 304,187.3 300.8,188.4 304.7,189.6 312.9,215.6 290.5,209.6 		"/>
		<polygon class="st15" points="314.5,220.6 312.9,215.6 290.5,209.6 291.1,220.6 		"/>
		<polygon class="st13" points="284,231.5 287.9,167.4 291.8,231.5 		"/>
		<polygon class="st18" points="299,171.4 287.9,136 279.6,162.5 281.8,163.4 279,164.4 274.1,179.9 287.3,177.4 287.9,167.4 		"/>
	</g>
	<path class="st19" d="M270,193.2"/>
	<g class="st10">
		<path class="st14" d="M158.3,177.7"/>
		<polygon class="st17" points="157.3,185.3 141.7,188.5 130.5,226 134.4,228.5 129.3,230.1 126.4,239.8 154.2,239.8 		"/>
		<path class="st14" d="M159.6,199.6"/>
		<polygon class="st13" points="153.4,251.1 158.1,172.7 162.7,251.1 		"/>
		<polygon class="st15" points="186.4,228.7 189.7,239.8 161.9,239.8 158.1,172.7 171.3,177.7 174.3,187.7 171.3,190.2 175.3,191.1 
			185.6,226 182.3,227.4 		"/>
		<polygon class="st16" points="171.3,177.7 158.1,133.1 144.2,179.9 143.5,182.2 141.7,188.5 157.3,185.3 158.1,172.7 		"/>
	</g>
	<g class="st10">
		<polygon class="st13" points="536.7,329.4 533,261.3 529.3,329.4 		"/>
		<polygon class="st15" points="533.6,272.4 546,275.1 552.9,301.3 534.8,296.9 		"/>
		<polygon class="st16" points="534.8,296.9 552.9,301.3 555.1,309.6 553.5,311.1 555.7,311.9 558,320.4 536.2,320.4 		"/>
		<polygon class="st17" points="533,261.3 522.6,265.7 517.9,283.4 520.9,284.6 517.2,286 509.5,314.9 530.9,301.3 		"/>
		<polygon class="st15" points="508,320.4 509.5,314.9 530.9,301.3 529.8,320.4 		"/>
		<polygon class="st18" points="533,261.3 533.6,272.4 546,275.1 541.4,257.9 538.7,256.8 540.8,255.8 533,226.3 522.6,265.7 		"/>
		<path class="st14" d="M532.9,265.7"/>
		<path class="st14" d="M531.8,285"/>
		<path class="st14" d="M520.9,284.6"/>
	</g>
	<g class="st10">
		<polygon class="st13" points="797.6,241.1 795.6,204.2 793.6,241.1 		"/>
		<polygon class="st15" points="795.9,210.2 802.6,211.7 806.4,225.9 796.6,223.5 		"/>
		<polygon class="st16" points="796.6,223.5 806.4,225.9 807.6,230.4 806.7,231.2 807.9,231.7 809.1,236.3 797.3,236.3 		"/>
		<polygon class="st17" points="795.6,204.2 789.9,206.6 787.4,216.2 789,216.9 787,217.6 782.8,233.3 794.4,225.9 		"/>
		<polygon class="st15" points="782.1,236.3 782.8,233.3 794.4,225.9 793.9,236.3 		"/>
		<polygon class="st18" points="795.6,204.2 795.9,210.2 802.6,211.7 800.1,202.4 798.7,201.8 799.8,201.3 795.6,185.3 789.9,206.6 
					"/>
		<path class="st14" d="M795.5,206.6"/>
		<path class="st14" d="M794.9,217.1"/>
		<path class="st14" d="M789,216.9"/>
	</g>
	<g class="st10">
		<polygon class="st13" points="745.8,323 742.3,258.7 738.9,323 		"/>
		<polygon class="st15" points="742.9,269.1 754.6,271.8 761.1,296.5 744.1,292.3 		"/>
		<polygon class="st16" points="744.1,292.3 761.1,296.5 763.2,304.3 761.7,305.8 763.8,306.5 766,314.6 745.3,314.6 		"/>
		<polygon class="st17" points="742.3,258.7 732.4,262.8 728,279.6 730.8,280.7 727.4,282 720.1,309.4 740.3,296.5 		"/>
		<polygon class="st15" points="718.7,314.6 720.1,309.4 740.3,296.5 739.3,314.6 		"/>
		<polygon class="st18" points="742.3,258.7 742.9,269.1 754.6,271.8 750.3,255.5 747.7,254.4 749.7,253.5 742.3,225.6 732.4,262.8 
					"/>
		<path class="st14" d="M742.2,262.8"/>
		<path class="st14" d="M741.2,281.1"/>
		<path class="st14" d="M730.8,280.7"/>
	</g>
	<g class="st10">
		<polygon class="st13" points="102.1,315 107.8,210.3 113.4,315 		"/>
		<polygon class="st15" points="106.9,227.4 87.8,231.6 77.2,271.8 105,265.1 		"/>
		<polygon class="st16" points="105,265.1 77.2,271.8 73.8,284.6 76.3,286.9 72.8,288.1 69.3,301.2 102.9,301.2 		"/>
		<polygon class="st17" points="107.8,210.3 123.8,217.1 131.1,244.3 126.4,246.2 132.1,248.2 143.9,292.7 111.1,271.9 		"/>
		<polygon class="st15" points="146.2,301.2 143.9,292.7 111.1,271.9 112.7,301.2 		"/>
		<polygon class="st18" points="107.8,210.3 106.9,227.4 87.8,231.6 94.9,205.1 99,203.4 95.7,201.9 107.8,156.5 123.8,217.1 		"/>
		<path class="st14" d="M108,217.1"/>
		<path class="st14" d="M109.6,246.7"/>
		<path class="st14" d="M126.4,246.2"/>
	</g>
	<g class="st10">
		<polygon class="st13" points="836.6,274.3 838.8,233 841,274.3 		"/>
		<polygon class="st15" points="838.5,239.7 830.9,241.4 826.7,257.3 837.7,254.6 		"/>
		<polygon class="st16" points="837.7,254.6 826.7,257.3 825.4,262.3 826.4,263.2 825,263.7 823.6,268.9 836.9,268.9 		"/>
		<polygon class="st17" points="838.8,233 845.2,235.7 848,246.4 846.2,247.2 848.4,248 853.1,265.5 840.1,257.3 		"/>
		<polygon class="st15" points="854,268.9 853.1,265.5 840.1,257.3 840.7,268.9 		"/>
		<polygon class="st18" points="838.8,233 838.5,239.7 830.9,241.4 833.7,231 835.3,230.3 834.1,229.7 838.8,211.8 845.2,235.7 		
			"/>
		<path class="st14" d="M838.9,235.7"/>
		<path class="st14" d="M839.6,247.4"/>
		<path class="st14" d="M846.2,247.2"/>
	</g>
	<g class="st10">
		<path class="st14" d="M431.1,226.1"/>
		<polygon class="st15" points="429.9,235.6 409,239.6 397.3,276.9 427.8,270.6 		"/>
		<polygon class="st16" points="427.8,270.6 397.3,276.9 393.6,288.7 396.4,290.9 392.6,292 388.8,304.1 425.8,304.1 		"/>
		<path class="st14" d="M432.9,253.6"/>
		<polygon class="st17" points="430.9,219.8 448.5,226.1 456.4,251.4 451.4,253.1 457.6,255 470.6,296.3 435,286.8 		"/>
		<polygon class="st15" points="473,304.1 470.6,296.3 435,286.8 436,304.1 		"/>
		<polygon class="st13" points="424.7,321.4 430.9,219.8 437.1,321.4 		"/>
		<polygon class="st18" points="448.5,226.1 430.9,169.9 417.7,212 421.2,213.4 416.7,215 409,239.6 429.9,235.6 430.9,219.8 		"/>
	</g>
	<g class="st10">
		<polygon class="st13" points="325.8,311.7 320.5,213.8 315.3,311.7 		"/>
		<polygon class="st15" points="321.3,229.7 339.2,233.7 349.1,271.3 323.2,265 		"/>
		<polygon class="st16" points="323.2,265 349.1,271.3 352.3,283.2 349.9,285.4 353.2,286.5 356.4,298.8 325.1,298.8 		"/>
		<polygon class="st17" points="320.5,213.8 305.5,220.1 298.7,245.6 303.1,247.3 297.8,249.3 286.7,290.9 317.4,271.4 		"/>
		<polygon class="st15" points="284.6,298.8 286.7,290.9 317.4,271.4 315.9,298.8 		"/>
		<polygon class="st18" points="320.5,213.8 321.3,229.7 339.2,233.7 332.6,209 328.7,207.4 331.8,206 320.5,163.6 305.5,220.1 		
			"/>
		<path class="st14" d="M320.3,220.1"/>
		<path class="st14" d="M318.8,247.8"/>
		<path class="st14" d="M303.1,247.3"/>
	</g>
	<g class="st10">
		<path class="st11" d="M202.8,250.6c0,6.4-5.9,9.7-13.1,9.7c-7.3,0-13.1-3.4-13.1-9.7c0-6.4,5.9-21.2,13.1-21.2
			C197,229.3,202.8,244.2,202.8,250.6z"/>
		<path class="st12" d="M179.1,240.3c3-2.1,7,19.7,7,19.7"/>
		<path class="st12" d="M195.1,259.6c0,0,1.3-11.7,6.4-15.9"/>
		<polygon class="st13" points="188.1,263 189.7,248.6 191.3,263 		"/>
	</g>
	<g class="st10">
		<path class="st11" d="M83,307.6c0,7.5-7,11.5-15.6,11.5s-15.6-4-15.6-11.5s7-25.1,15.6-25.1S83,300.1,83,307.6z"/>
		<path class="st12" d="M54.9,295.5c3.5-2.5,8.3,23.3,8.3,23.3"/>
		<path class="st12" d="M73.9,318.3c0,0,1.5-13.9,7.6-18.9"/>
		<polygon class="st13" points="65.5,322.4 67.5,305.3 69.4,322.4 		"/>
	</g>
	<g class="st10">
		<path class="st11" d="M487,235.6c0,4-3.7,6.1-8.2,6.1c-4.5,0-8.2-2.1-8.2-6.1s3.7-13.3,8.2-13.3C483.3,222.4,487,231.7,487,235.6z
			"/>
		<path class="st12" d="M472.2,229.2c1.9-1.3,4.4,12.3,4.4,12.3"/>
		<path class="st12" d="M482.2,241.3c0,0,0.8-7.3,4-10"/>
		<polygon class="st13" points="477.8,243.4 478.8,234.4 479.8,243.4 		"/>
	</g>
</g>
<g id="Layer_6">
	<path class="st20" d="M531.5,338.8c0,0,138.8-5.8,307-76.7c275.3-116.1,361.5-38.7,361.5-38.7v115.4H531.5z"/>
</g>
<g id="Layer_9" class="st0">
	<g class="st10">
		<polygon class="st21" points="1073.7,226.9 1060.9,180 1025.3,237.8 		"/>
		<polyline class="st22" points="1055.1,206.5 1053.8,248.3 1082.4,258.8 1060.9,180 1025.3,237.8 1041.2,243.7 1055.1,206.5 		"/>
		<polygon class="st22" points="1131.8,170.7 1156.2,237.8 1082.4,258.8 1060.9,180 		"/>
		<path class="st23" d="M1055.1,206.5c0.1-1.7-19.7,29.1-19.7,29.1l5.8,8.1l0,0C1041.2,243.7,1052.9,243.7,1055.1,206.5z"/>
		
			<ellipse transform="matrix(0.2095 0.9778 -0.9778 0.2095 1106.3954 -859.3065)" class="st24" cx="1084.7" cy="254.7" rx="1.1" ry="0.9"/>
		
			<ellipse transform="matrix(0.2095 0.9778 -0.9778 0.2095 1020.3918 -896.5523)" class="st24" cx="1064.7" cy="182.8" rx="1.1" ry="0.9"/>
		
			<ellipse transform="matrix(0.2095 0.9778 -0.9778 0.2095 1063.1412 -968.0152)" class="st24" cx="1130.3" cy="173.5" rx="1" ry="0.8"/>
		
			<ellipse transform="matrix(0.2095 0.9778 -0.9778 0.2095 1141.5061 -940.4859)" class="st24" cx="1152.4" cy="235.8" rx="1.1" ry="0.9"/>
	</g>
</g>
<g id="Layer_11" class="st0">
	<path class="st25" d="M1000.5,242.4l4.3,0.4c0,0,5.3,0.5,2,1.9c-1.6,0.7-5.1,0.6-5.1,0.6l-6.6-0.6c0,0,2,4.8-0.7,5.7
		s-4.4-1.1-4.9-1.6c-0.5-0.5,1.2-3.9,1.2-3.9l-10.3,1.7c0,0-1.7-0.2-2.2-1.5c-0.5-1.3,2.2-2.4,2.2-2.4h10l-5-2.9
		c0,0,0.7-3.4,3.8-2.3c3.1,1.1,7.4,4.7,7.4,4.7l2.9-4.5c0,0-0.3-1.4,2.3,0.1S1000.5,242.4,1000.5,242.4z"/>
</g>
<g id="Layer_10" class="st0">
	<path class="st26" d="M992.4,223.7c0,0,4.8,5.5,1.7,12c-2.2,4.7,0.8-0.1,0.8-0.1c2.1-4.1,0.4-6.6,0.4-6.6
		c-0.5-4.2,3.4-11.5,4.4-10.7c0,0-4.3,1.5,1.2,11.6c3,5.5,0.6,10.4-5.2,12.8c-5.3,2.2-11.7-5.2-7.7-0.2c0,0-8-0.9-5.7-9.4
		c1.6-5.9,2.4-9.6-0.2-10.4c0,0,1-0.9,2.8,0s3.2,15.3,4.8,12.3c0.6-1.1-2-1.4-2-6.8c0,0,0.9-10.8,5.5-13.3
		C993.3,214.9,988.9,218.9,992.4,223.7z"/>
	<path class="st27" d="M984.5,231.2c0,0-1.3,4.8-0.4,6.4c1.3,2.5,3.2,1,3.2,1S984.3,235.7,984.5,231.2z"/>
	<path class="st27" d="M997.1,228.3c0,0,0.4,3,0,6.5c-0.4,3.5-3.8,5-3.8,5s1.5,0.4,3.6,0c2.8-0.5,2.7-4.5,2.7-4.5
		S999.7,230.6,997.1,228.3z"/>
	<path class="st27" d="M992.4,234.8c0,0-1.6-0.1-2.4-2.4c-0.8-2.3,0-6.9,0-6.9s1.7,3.9,2.4,5.4C993.1,232.4,993.9,235.6,992.4,234.8
		z"/>
</g>
<g id="Layer_8">
</g>
<g id="Layer_14">
</g>
<g id="Layer_12" class="st0">
	<path class="st28" d="M356.1-69.1c0.4,0,0.7-0.1,1.1-0.1c4.8,0,8.8,3.9,8.8,8.8c0,1.1-0.2,2.1-0.6,3.1l-92,0
		c-1-0.9-1.7-2.2-1.7-3.7c0-2.7,2.2-5,5-5c1.3,0,2.4,0.5,3.3,1.2c0.9-6.5,6.5-11.6,13.2-11.6c2.5,0,4.9,0.7,6.9,1.9
		c2.3-10.2,11.4-17.9,22.3-17.9c8.2,0,15.5,4.4,19.5,10.9c1.3-0.5,2.5-0.8,4-0.8c5.9,0,10.6,4.7,10.6,10.6
		C356.4-70.8,356.3-69.9,356.1-69.1z"/>
	<path class="st28" d="M211.2-60c-0.4-0.1-0.9-0.1-1.3-0.1c-5.9,0-10.7,4.8-10.7,10.7c0,1.3,0.2,2.6,0.7,3.8l112.1,0
		c1.2-1.1,2-2.7,2-4.5c0-3.3-2.7-6-6-6c-1.5,0-2.9,0.6-4,1.5c-1.1-8-7.9-14.1-16.1-14.1c-3.1,0-5.9,0.9-8.4,2.3
		c-2.8-12.5-13.9-21.8-27.2-21.8c-10,0-18.8,5.3-23.7,13.3c-1.5-0.7-3.1-0.9-4.8-0.9c-7.1,0-12.9,5.8-12.9,12.9
		C210.9-62,211-60.9,211.2-60z"/>
	<path class="st28" d="M970-54.7c0.6-0.1,1.1-0.1,1.7-0.1c7.6,0,13.8,6.2,13.8,13.8c0,1.7-0.3,3.4-0.9,4.9l-145.4,0
		c-1.6-1.4-2.6-3.5-2.6-5.8c0-4.3,3.5-7.8,7.8-7.8c2,0,3.8,0.7,5.2,2C851-58.1,859.8-66,870.5-66c4,0,7.7,1.1,10.9,3
		c3.6-16.2,18-28.3,35.3-28.3c13,0,24.4,6.9,30.8,17.2c2-0.8,4-1.2,6.3-1.2c9.2,0,16.7,7.5,16.7,16.7
		C970.4-57.2,970.3-55.9,970-54.7z"/>
</g>
<g id="Layer_16" class="st0">
	<path class="st29" d="M435.7,118.6"/>
	<path class="st30" d="M237,50.4c0,0-1.3,1.6-2,0.3c-0.7-1.3,0-4.8,0-4.8c-3.7,3.4-2.3,17.7-2.3,17.7l0,0h-1.2
		c0,0,0.3-10.6-4.8-10.2c-3.5,0.3-3,10.2-3,10.2h-1.1c0.1-5-2.1-10.1-2.1-10.1s2-0.5,1.9-2.2s-2.6-3.4-0.1-6c0,0-2.7-0.9-1-4.8
		c0,0,1.1,4.3,6.3,4.4c3.2,0,4.8-1.7,5.5-3.2c0,0-1.1-0.5-0.6-2.5l1.2,1.3c0,0,1.6-2.2,0-3.4c-1.6-1.2-7.1,1.2-6.5,3.8
		c0.3,1.5,2,1.6,2,1.6c-3.4,0-6.1-3.4-2.3-5.7c0,0,11-6.1,12.2,2.1c0,0,2.6,10.5-0.8,9.9C235.3,48.3,237,50.4,237,50.4"/>
</g>
</svg>
