<?xml version="1.0" encoding="utf-8"?>
<!-- Generator: Adobe Illustrator 18.1.1, SVG Export Plug-In . SVG Version: 6.00 Build 0)  -->
<svg version="1.1" id="Layer_1" xmlns="http://www.w3.org/2000/svg" xmlns:xlink="http://www.w3.org/1999/xlink" x="0px" y="0px"
	 viewBox="0 0 30 30" enable-background="new 0 0 30 30" xml:space="preserve">
<path fill="#E2574C" d="M26,6.4C22,2.5,18.1,4.2,15,7C11.9,4.2,8,2.5,4,6.4c-3.1,3.1-3.1,8.1,0,11.1C15,27.4,15,27.4,15,27.4
	s0,0,11-9.8C29.1,14.5,29.1,9.5,26,6.4z"/>
<path fill="#CB4E44" d="M15,7L15,7l0,20.3c0.2-0.1,1.5-1.3,11-9.8c3.1-3.1,3.1-8,0-11.1C22,2.5,18.1,4.2,15,7z"/>
</svg>
