<?xml version="1.0" encoding="utf-8"?>
<!-- Generator: Adobe Illustrator 18.1.1, SVG Export Plug-In . SVG Version: 6.00 Build 0)  -->
<svg version="1.1" id="Layer_1" xmlns="http://www.w3.org/2000/svg" xmlns:xlink="http://www.w3.org/1999/xlink" x="0px" y="0px"
	 viewBox="0 0 800 800" enable-background="new 0 0 800 800" xml:space="preserve">
<g id="Layer_1_1_">
</g>
<g>
	<g>
		<path fill="#848484" d="M378.7,717.9L378.7,717.9c-3,0-5.7-1.4-7.3-3.8c-2-2.1-11.3-10.9-22-20.9C279,627,92.1,451.3,54.6,365.1
			c-20.9-47.9-22.4-99.3-4.4-144.6c17.7-44.3,53.3-80.8,100.3-102.9c41-19.3,87.4-22.9,130.6-10.2c35.4,10.4,70.4,36.8,97.6,73.3
			c27.2-36.5,62.3-63,97.6-73.3c43.3-12.7,89.6-9.1,130.6,10.2c47.1,22.1,82.7,58.7,100.3,102.9c18.1,45.3,16.5,96.7-4.4,144.6
			c-8.3,19.1-24.6,43.9-48.5,73.9c-3.1,3.9-8.8,4.5-12.7,1.4c-3.9-3.1-4.6-8.8-1.4-12.7c22.9-28.7,38.4-52.2,46-69.8
			c19.2-44.1,20.7-89.3,4.1-130.7c-15.9-40-48.3-73.1-91.2-93.2c-37-17.4-78.8-20.7-117.8-9.2c-34.7,10.2-69.4,38.1-95.2,76.7
			c-3.4,5-11.7,5-15.1,0c-25.8-38.5-60.5-66.5-95.2-76.7c-39-11.5-80.8-8.2-117.8,9.2C115.4,154.1,83,187.2,67,227.2
			c-16.5,41.4-15.1,86.6,4.2,130.7c36,82.8,227.6,262.9,290.6,322.1c7.9,7.4,13.3,12.5,16.9,16c3.7-3.5,9-8.5,16.9-16
			c20.3-19.1,50.9-47.9,85.4-81.7c3.6-3.5,9.3-3.5,12.8,0.1c3.5,3.6,3.4,9.3-0.1,12.8c-34.7,34-65.4,62.8-85.7,81.9
			c-10.7,10.1-20.1,18.9-22,20.9C384.4,716.5,381.7,717.9,378.7,717.9z"/>
		<path fill="#848484" d="M432.1,207.1c-1.3,0-2.6-0.3-3.9-0.9c-4.5-2.1-6.5-7.5-4.3-12.1c7.7-16.3,24-31.8,43.5-41.4
			c37.1-18.3,72.7-11.3,102.7-2.1c4.8,1.5,7.5,6.6,6,11.3c-1.5,4.8-6.5,7.4-11.3,6c-27.9-8.6-58-14.5-89.3,1
			c-18.8,9.2-30.5,23.1-35.2,32.9C438.7,205.2,435.5,207.1,432.1,207.1z"/>
		<path fill="#848484" d="M107.5,367.3c-3.5,0-6.9-2.1-8.4-5.6c-21.1-50.7-25.2-89.4-12.8-122c14.3-37.4,43.1-68.3,81.1-87
			c37.1-18.3,72.7-11.3,102.7-2.1c4.8,1.5,7.5,6.6,6,11.3c-1.5,4.8-6.5,7.4-11.3,6c-27.9-8.6-58-14.4-89.3,1
			c-33.9,16.7-59.5,44.1-72.2,77.2c-10.6,27.9-6.6,62.4,12.6,108.5c1.9,4.6-0.3,9.9-4.9,11.8C109.9,367.1,108.7,367.3,107.5,367.3z"
			/>
	</g>
	<path fill="#848484" d="M619.5,717.9h-104c-5,0-9.1-4.1-9.1-9.1V584.2H381.7c-5,0-9.1-4.1-9.1-9.1v-104c0-5,4.1-9.1,9.1-9.1h124.7
		V337.3c0-5,4.1-9.1,9.1-9.1h104c5,0,9.1,4.1,9.1,9.1V462h124.7c5,0,9.1,4.1,9.1,9.1v104c0,5-4.1,9.1-9.1,9.1H628.5v124.7
		C628.5,713.9,624.5,717.9,619.5,717.9z M524.5,699.8h85.9V575.1c0-5,4.1-9.1,9.1-9.1h124.7v-85.9H619.5c-5,0-9.1-4.1-9.1-9.1V346.3
		h-85.9v124.7c0,5-4.1,9.1-9.1,9.1H390.7V566h124.7c5,0,9.1,4.1,9.1,9.1V699.8z"/>
</g>
</svg>
