<?xml version="1.0" encoding="utf-8"?>
<!-- Generator: Adobe Illustrator 19.1.0, SVG Export Plug-In . SVG Version: 6.00 Build 0)  -->
<svg version="1.1" id="Layer_1" xmlns="http://www.w3.org/2000/svg" xmlns:xlink="http://www.w3.org/1999/xlink" x="0px" y="0px"
	 viewBox="0 0 21.9 32.2" enable-background="new 0 0 21.9 32.2" xml:space="preserve">
<path fill="#838484" d="M18.4,17.5c0,0-1.4,1.8-2.2,0.4c-0.8-1.4,0-5.4,0-5.4c-4.2,3.7-2.6,19.7-2.6,19.7l0,0h-1.3
	c0,0,0.3-11.9-5.3-11.3C3,21.3,3.6,32.2,3.6,32.2H2.4C2.5,26.7,0,20.9,0,20.9s2.2-0.6,2.2-2.5c-0.1-1.9-2.9-3.7-0.1-6.7
	c0,0-3-1-1.1-5.3c0,0,1.2,4.8,7.1,4.9c3.6,0.1,5.3-1.9,6.2-3.5c0,0-1.3-0.6-0.7-2.8l1.3,1.4c0,0,1.7-2.4,0-3.7S7,3.9,7.6,6.8
	C8,8.6,9.8,8.6,9.8,8.6C6,8.6,3,4.8,7.3,2.3c0,0,12.2-6.8,13.6,2.4c0,0,2.9,11.7-0.9,11.1C16.5,15.3,18.4,17.5,18.4,17.5"/>
</svg>
