<?xml version="1.0" encoding="utf-8"?>
<!-- Generator: Adobe Illustrator 19.1.0, SVG Export Plug-In . SVG Version: 6.00 Build 0)  -->
<svg version="1.1" id="Layer_1" xmlns="http://www.w3.org/2000/svg" xmlns:xlink="http://www.w3.org/1999/xlink" x="0px" y="0px"
	 viewBox="0 0 35 32" enable-background="new 0 0 35 32" xml:space="preserve">
<path fill="#E8E619" stroke="#ECC91A" stroke-width="0.5" stroke-miterlimit="10" d="M17.9,10.9c0,0,4.8,5.5,1.7,12
	c-2.2,4.7,0.8-0.1,0.8-0.1c2.1-4.1,0.4-6.6,0.4-6.6C20.3,12,24.2,4.7,25.2,5.5c0,0-4.3,1.5,1.2,11.6c3,5.5,0.6,10.4-5.2,12.8
	c-5.3,2.2-11.7-5.2-7.7-0.2c0,0-8-0.9-5.7-9.4c1.6-5.9,2.4-9.6-0.2-10.4c0,0,1-0.9,2.8,0s3.2,15.3,4.8,12.3c0.6-1.1-2-1.4-2-6.8
	c0,0,0.9-10.8,5.5-13.3C18.7,2.1,14.3,6.2,17.9,10.9z"/>
<path fill="#E4A424" d="M9.9,18.4c0,0-1.3,4.8-0.4,6.4c1.3,2.5,3.2,1,3.2,1S9.8,22.9,9.9,18.4z"/>
<path fill="#E4A424" d="M22.5,15.5c0,0,0.4,3,0,6.5c-0.4,3.5-3.8,5-3.8,5s1.5,0.4,3.6,0c2.8-0.5,2.7-4.5,2.7-4.5
	S25.1,17.8,22.5,15.5z"/>
<path fill="#E4A424" d="M17.8,22c0,0-1.6-0.1-2.4-2.4s0-6.9,0-6.9s1.7,3.9,2.4,5.4C18.5,19.6,19.3,22.9,17.8,22z"/>
</svg>
