<?xml version="1.0" encoding="utf-8"?>
<!-- Generator: Adobe Illustrator 19.1.0, SVG Export Plug-In . SVG Version: 6.00 Build 0)  -->
<svg version="1.1" id="Layer_1" xmlns="http://www.w3.org/2000/svg" xmlns:xlink="http://www.w3.org/1999/xlink" x="0px" y="0px"
	 viewBox="0 0 148.9 55.3" enable-background="new 0 0 148.9 55.3" xml:space="preserve">
<path opacity="0.6" fill="#FFFFFF" d="M133.4,36.7c0.6-0.1,1.1-0.1,1.7-0.1c7.6,0,13.8,6.2,13.8,13.8c0,1.7-0.3,3.4-0.9,4.9
	l-145.4,0C1,53.9,0,51.8,0,49.5c0-4.3,3.5-7.8,7.8-7.8c2,0,3.8,0.7,5.2,2c1.4-10.3,10.2-18.3,20.9-18.3c4,0,7.7,1.1,10.9,3
	C48.4,12.1,62.8,0,80.1,0c13,0,24.4,6.9,30.8,17.2c2-0.8,4-1.2,6.3-1.2c9.2,0,16.7,7.5,16.7,16.7C133.9,34.1,133.7,35.4,133.4,36.7z
	"/>
</svg>
