<?xml version="1.0" encoding="utf-8"?>
<!-- Generator: Adobe Illustrator 19.1.0, SVG Export Plug-In . SVG Version: 6.00 Build 0)  -->
<svg version="1.1" id="Layer_1" xmlns="http://www.w3.org/2000/svg" xmlns:xlink="http://www.w3.org/1999/xlink" x="0px" y="0px"
	 viewBox="0 0 35 16.2" enable-background="new 0 0 35 16.2" xml:space="preserve">
<path fill="#5E5547" stroke="#4F4436" stroke-width="1.5" stroke-linecap="round" stroke-linejoin="round" stroke-miterlimit="10" d="
	M25,6.7l4.3,0.4c0,0,5.3,0.5,2,1.9c-1.6,0.7-5.1,0.6-5.1,0.6L19.6,9c0,0,2,4.8-0.7,5.7c-2.8,0.9-4.4-1.1-4.9-1.6s1.2-3.9,1.2-3.9
	L4.9,10.9c0,0-1.7-0.2-2.2-1.5S4.9,7,4.9,7h10L9.9,4c0,0,0.7-3.4,3.8-2.3s7.4,4.7,7.4,4.7L23.9,2c0,0-0.3-1.4,2.3,0.1S25,6.7,25,6.7
	z"/>
</svg>
