<?xml version="1.0" encoding="utf-8"?>
<!-- Generator: Adobe Illustrator 19.1.0, SVG Export Plug-In . SVG Version: 6.00 Build 0)  -->
<svg version="1.1" xmlns="http://www.w3.org/2000/svg" xmlns:xlink="http://www.w3.org/1999/xlink" x="0px" y="0px"
	 viewBox="0 0 131.9 92.7" enable-background="new 0 0 131.9 92.7" xml:space="preserve">
<g id="Layer_4">
</g>
<g id="Layer_13">
</g>
<g id="Layer_15">
</g>
<g id="Layer_1">
</g>
<g id="Layer_2">
</g>
<g id="Layer_5">
</g>
<g id="Layer_3">
</g>
<g id="Layer_6">
</g>
<g id="Layer_9">
	<g>
		<polygon fill="#1F5E6D" stroke="#1A5D6D" stroke-linecap="round" stroke-linejoin="round" stroke-miterlimit="10" points="
			48.4,58.9 35.6,11.9 0,69.7 		"/>
		<polyline fill="#2A87A8" stroke="#1A5D6D" stroke-linecap="round" stroke-linejoin="round" stroke-miterlimit="10" points="
			29.8,38.4 28.5,80.2 57.1,90.7 35.6,11.9 0,69.7 16,75.6 29.8,38.4 		"/>
		<polygon fill="#2A87A8" stroke="#1A5D6D" stroke-linecap="round" stroke-linejoin="round" stroke-miterlimit="10" points="
			106.5,2.6 130.9,69.7 57.1,90.7 35.6,11.9 		"/>
		<path fill="#247287" stroke="#1A5D6D" stroke-linejoin="round" stroke-miterlimit="10" d="M29.8,38.4c0.1-1.7-19.7,29.1-19.7,29.1
			l5.8,8.1l0,0C16,75.6,27.6,75.6,29.8,38.4z"/>
		
			<ellipse transform="matrix(0.2095 0.9778 -0.9778 0.2095 131.6184 10.3651)" fill="#1A5D6D" cx="59.4" cy="86.6" rx="1.1" ry="0.9"/>
		
			<ellipse transform="matrix(0.2095 0.9778 -0.9778 0.2095 45.6148 -26.8807)" fill="#1A5D6D" cx="39.4" cy="14.8" rx="1.1" ry="0.9"/>
		<ellipse transform="matrix(0.2095 0.9778 -0.9778 0.2095 88.3643 -98.3437)" fill="#1A5D6D" cx="105" cy="5.5" rx="1" ry="0.8"/>
		
			<ellipse transform="matrix(0.2095 0.9778 -0.9778 0.2095 166.7291 -70.8143)" fill="#1A5D6D" cx="127.2" cy="67.7" rx="1.1" ry="0.9"/>
	</g>
</g>
<g id="Layer_11">
</g>
<g id="Layer_10">
</g>
<g id="Layer_8">
</g>
<g id="Layer_14">
</g>
<g id="Layer_12">
</g>
<g id="Layer_16">
</g>
</svg>
