<?xml version="1.0" encoding="utf-8"?>
<!-- Generator: Adobe Illustrator 19.1.0, SVG Export Plug-In . SVG Version: 6.00 Build 0)  -->
<svg version="1.1" id="Layer_1" xmlns="http://www.w3.org/2000/svg" xmlns:xlink="http://www.w3.org/1999/xlink" x="0px" y="0px"
	 viewBox="-38 34.8 21.9 32.2" style="enable-background:new -38 34.8 21.9 32.2;" xml:space="preserve">
<style type="text/css">
	.st0{opacity:0.5;}
</style>
<path class="st0" d="M-19.6,52.3c0,0-1.4,1.8-2.2,0.4c-0.8-1.4,0-5.4,0-5.4C-26,51-24.4,67-24.4,67l0,0h-1.3c0,0,0.3-11.9-5.3-11.3
	c-4,0.4-3.4,11.3-3.4,11.3h-1.2c0.1-5.5-2.4-11.3-2.4-11.3s2.2-0.6,2.2-2.5c-0.1-1.9-2.9-3.7-0.1-6.7c0,0-3-1-1.1-5.3
	c0,0,1.2,4.8,7.1,4.9c3.6,0.1,5.3-1.9,6.2-3.5c0,0-1.3-0.6-0.7-2.8l1.3,1.4c0,0,1.7-2.4,0-3.7c-1.7-1.3-7.9,1.2-7.3,4.1
	c0.4,1.8,2.2,1.8,2.2,1.8c-3.8,0-6.8-3.8-2.5-6.3c0,0,12.2-6.8,13.6,2.4c0,0,2.9,11.7-0.9,11.1C-21.5,50.1-19.6,52.3-19.6,52.3"/>
</svg>
