<?xml version="1.0" encoding="utf-8"?>
<!-- Generator: Adobe Illustrator 19.1.0, SVG Export Plug-In . SVG Version: 6.00 Build 0)  -->
<svg version="1.1" id="Layer_1" xmlns="http://www.w3.org/2000/svg" xmlns:xlink="http://www.w3.org/1999/xlink" x="0px" y="0px"
	 viewBox="-38 34.8 21.9 32.2" style="enable-background:new -38 34.8 21.9 32.2;" xml:space="preserve">
<style type="text/css">
	.st0{fill:#838484;}
</style>
<path class="st0" d="M-34.4,52.3c0,0,1.9-2.2-1.6-1.7c-3.8,0.6-0.9-11.1-0.9-11.1c1.4-9.2,13.6-2.4,13.6-2.4
	c4.3,2.5,1.3,6.3-2.5,6.3c0,0,1.8,0,2.2-1.8c0.6-2.9-5.6-5.4-7.3-4.1c-1.7,1.3,0,3.7,0,3.7l1.3-1.4c0.6,2.2-0.7,2.8-0.7,2.8
	c0.9,1.6,2.6,3.6,6.2,3.5c5.9-0.1,7.1-4.9,7.1-4.9c1.9,4.3-1.1,5.3-1.1,5.3c2.8,3,0,4.8-0.1,6.7c0,1.9,2.2,2.5,2.2,2.5
	s-2.5,5.8-2.4,11.3h-1.2c0,0,0.6-10.9-3.4-11.3c-5.6-0.6-5.3,11.3-5.3,11.3h-1.3l0,0c0,0,1.6-16-2.6-19.7c0,0,0.8,4,0,5.4
	C-33,54.1-34.4,52.3-34.4,52.3"/>
</svg>
