<?xml version="1.0" encoding="utf-8"?>
<!-- Generator: Adobe Illustrator 19.1.0, SVG Export Plug-In . SVG Version: 6.00 Build 0)  -->
<svg version="1.1" id="Layer_1" xmlns="http://www.w3.org/2000/svg" xmlns:xlink="http://www.w3.org/1999/xlink" x="0px" y="0px"
	 viewBox="0 0 184 62.5" style="enable-background:new 0 0 184 62.5;" xml:space="preserve">
<style type="text/css">
	.st0{opacity:0.8;fill:#72A040;}
</style>
<path class="st0" d="M9.5,36C15,43.6,34.4,57.6,42,52.1s0.5-28.3-5-35.9s-16.1-9.3-23.7-3.9S4,28.4,9.5,36z"/>
<g>
	<path d="M100.9,31.6c0,2.8-0.4,5.4-1.3,7.7c-0.9,2.3-2.1,4.3-3.8,5.9c-1.6,1.6-3.6,2.9-5.8,3.8s-4.8,1.3-7.5,1.3h-14V12.8h14
		c2.8,0,5.3,0.4,7.5,1.3s4.2,2.2,5.8,3.8c1.6,1.7,2.9,3.6,3.8,5.9C100.4,26.2,100.9,28.7,100.9,31.6z M95.7,31.6
		c0-2.3-0.3-4.4-0.9-6.2c-0.6-1.8-1.5-3.4-2.7-4.6s-2.5-2.2-4.2-2.9s-3.5-1-5.5-1h-8.9v29.3h8.9c2,0,3.8-0.3,5.5-1
		c1.6-0.7,3-1.6,4.2-2.9c1.2-1.2,2-2.8,2.7-4.6C95.4,35.9,95.7,33.9,95.7,31.6z"/>
	<path d="M121.3,46h16.2v4.3h-21.3V12.8h5.1V46z"/>
	<path d="M175.9,42.6c0.3,0,0.5,0.1,0.8,0.3l2,2.2c-1.5,1.8-3.4,3.2-5.6,4.2c-2.2,1-4.8,1.5-7.9,1.5c-2.7,0-5.2-0.5-7.4-1.4
		c-2.2-0.9-4.1-2.2-5.6-3.9c-1.6-1.7-2.8-3.7-3.6-6.1c-0.9-2.4-1.3-5-1.3-7.8s0.5-5.4,1.4-7.8c0.9-2.4,2.2-4.4,3.9-6.1
		c1.7-1.7,3.6-3,6-3.9c2.3-0.9,4.9-1.4,7.7-1.4c2.8,0,5.1,0.4,7.1,1.3c2,0.9,3.8,2,5.3,3.5l-1.7,2.3c-0.1,0.2-0.3,0.3-0.4,0.4
		c-0.2,0.1-0.4,0.2-0.7,0.2c-0.2,0-0.5-0.1-0.7-0.2c-0.3-0.2-0.6-0.4-0.9-0.6c-0.3-0.2-0.8-0.5-1.2-0.8c-0.5-0.3-1-0.5-1.7-0.8
		c-0.6-0.2-1.4-0.4-2.3-0.6c-0.9-0.2-1.8-0.2-3-0.2c-2,0-3.8,0.3-5.5,1c-1.7,0.7-3.1,1.7-4.3,2.9c-1.2,1.3-2.1,2.8-2.8,4.7
		c-0.7,1.8-1,3.9-1,6.2c0,2.3,0.3,4.4,1,6.3c0.7,1.8,1.6,3.4,2.8,4.6c1.2,1.3,2.5,2.2,4.1,2.9c1.6,0.7,3.3,1,5.1,1
		c1.1,0,2.1-0.1,3-0.2s1.7-0.3,2.5-0.6s1.5-0.6,2.1-1.1c0.7-0.4,1.3-0.9,2-1.5C175.3,42.7,175.6,42.6,175.9,42.6z"/>
</g>
</svg>
