<?xml version="1.0" encoding="utf-8"?>
<!-- Generator: Adobe Illustrator 19.1.0, SVG Export Plug-In . SVG Version: 6.00 Build 0)  -->
<svg version="1.1" id="Layer_1" xmlns="http://www.w3.org/2000/svg" xmlns:xlink="http://www.w3.org/1999/xlink" x="0px" y="0px"
	 viewBox="0 0 150 150" style="enable-background:new 0 0 150 150;" xml:space="preserve">
<style type="text/css">
	.st0{opacity:0.4;fill:#818282;}
	.st1{fill:#9FD9DA;}
	.st2{fill:#EDAC34;}
	.st3{fill:#EAC88B;}
	.st4{fill:#FFFFFF;}
	.st5{fill:#B5E1E3;}
	.st6{fill:#3A3A3A;}
</style>
<ellipse class="st0" cx="73.1" cy="129.5" rx="51.3" ry="2.3"/>
<ellipse class="st0" cx="69.1" cy="131.5" rx="51.3" ry="2.3"/>
<g>
	<path class="st1" d="M74,84l12.5-8c1.3-1.1,3.3-1,4.5,0.2l11.6,8.4l4.6-4.6c25.8-25.8,30-47.6,20.3-57.3s-31.5-5.5-57.3,20.3
		l-4.6,4.6l8.4,11.6c1.2,1.2,1.3,3.1,0.2,4.5l-8,12.5L74,84z"/>
	<path class="st2" d="M43.6,122c-3.8,3.8-10.3,3.4-14.6-0.9c-4.3-4.3-4.6-10.8-0.9-14.6l35.7-32.7l12.4,12.4L43.6,122z M40.7,117.5
		c2.2-2.2,2.2-5.8,0-8c-2.2-2.2-5.8-2.2-8,0s-2.2,5.8,0,8S38.4,119.8,40.7,117.5z"/>
	<path class="st3" d="M70.1,80.1l6.2,6.2L43.6,122c-3.8,3.8-10.3,3.4-14.6-0.9l3.6-3.6c2.2,2.2,5.8,2.2,8,0c2.2-2.2,2.2-5.8,0-8
		L70.1,80.1z"/>
	<g>
		<path class="st4" d="M43.2,92.9c0,0,0.7,1.1,1.8,2.8c1.1,1.7,2.5,3.9,3.9,6.2c0.7,1.1,1.5,2.2,2.1,3.3c0.6,1.1,1.1,2.2,1.4,3.1
			c0.7,1.9,1,3.2,1,3.2c0,0.1,0,0.1-0.1,0.1c0,0-0.1,0-0.1,0c0,0-1-0.9-2.2-2.6c-0.6-0.8-1.2-1.8-1.8-2.9c-0.6-1.1-1.1-2.3-1.6-3.5
			c-1.1-2.4-2.3-4.8-3.1-6.6c-0.8-1.8-1.4-3-1.4-3c0-0.1,0-0.1,0.1-0.1C43.1,92.8,43.1,92.9,43.2,92.9z"/>
	</g>
	<g>
		<path class="st4" d="M48.9,87.7c0,0,0.7,1.1,1.8,2.7c1.1,1.6,2.4,3.8,3.7,6c0.7,1.1,1.4,2.1,2,3.2c0.6,1.1,1,2.1,1.4,3
			c0.7,1.8,0.9,3.1,0.9,3.1c0,0.1,0,0.1-0.1,0.1c0,0-0.1,0-0.1,0c0,0-1-0.9-2.1-2.5c-0.6-0.8-1.2-1.7-1.8-2.8
			c-0.6-1.1-1-2.3-1.6-3.4c-1.1-2.3-2.2-4.6-3-6.4c-0.8-1.7-1.3-2.9-1.3-2.9c0-0.1,0-0.1,0.1-0.1C48.8,87.6,48.9,87.6,48.9,87.7z"/>
	</g>
	<g>
		<path class="st4" d="M54.6,82.4c0,0,0.7,1,1.7,2.6c1,1.5,2.3,3.7,3.6,5.7c0.6,1.1,1.4,2.1,1.9,3.1c0.5,1,1,2,1.3,2.9
			c0.7,1.7,0.9,3,0.9,3c0,0.1,0,0.1-0.1,0.1c0,0-0.1,0-0.1,0c0,0-1-0.9-2.1-2.4c-0.6-0.7-1.2-1.6-1.7-2.7c-0.5-1-1-2.2-1.5-3.3
			c-1-2.2-2.1-4.5-2.8-6.2c-0.8-1.7-1.2-2.8-1.2-2.8c0-0.1,0-0.1,0.1-0.1C54.5,82.4,54.6,82.4,54.6,82.4z"/>
	</g>
	<g>
		<path class="st4" d="M60.3,77.2c0,0,0.7,1,1.6,2.5c1,1.5,2.2,3.5,3.5,5.5c0.6,1,1.3,2,1.9,2.9c0.5,1,0.9,1.9,1.2,2.8
			c0.6,1.7,0.8,2.9,0.8,2.9c0,0.1,0,0.1-0.1,0.1c0,0-0.1,0-0.1,0c0,0-1-0.8-2-2.3c-0.5-0.7-1.1-1.6-1.7-2.6c-0.5-1-0.9-2.1-1.5-3.2
			c-1-2.2-2-4.3-2.7-5.9c-0.7-1.6-1.2-2.7-1.2-2.7c0-0.1,0-0.1,0.1-0.1C60.3,77.1,60.3,77.1,60.3,77.2z"/>
	</g>
	<path class="st5" d="M70.1,80.1L74,84l12.5-8c1.3-1.1,3.3-1,4.5,0.2l11.6,8.4l4.6-4.6c25.8-25.8,30-47.6,20.3-57.3L70.1,80.1z"/>
	<g>
		<g>
			<path class="st6" d="M42.8,122.9c-1.2,1.2-2.7,2-4.4,2.4c-1.7,0.4-3.4,0.3-5-0.2c-1.6-0.5-3.2-1.3-4.5-2.4
				c-1.3-1.1-2.4-2.4-3.1-4c-0.8-1.5-1.2-3.2-1.2-4.9c0-1.7,0.4-3.4,1.3-4.9c0.5-0.7,1-1.4,1.6-2l1.9-1.7l3.7-3.4l29.7-27.4l0.2-0.2
				l0.2,0.2l12.4,12.4l0.3,0.3l-0.2,0.3l-8.2,8.9l-8.2,8.9L51,114L42.8,122.9z M42.7,122.8l8.1-9l8.1-9l8.1-9l8.2-8.9l0,0.5L62.8,75
				l0.5,0l-29.9,27.2l-3.7,3.4c-1.2,1.2-2.6,2.2-3.5,3.6c-0.8,1.4-1.3,3.1-1.3,4.7c0,1.7,0.4,3.3,1.1,4.8c1.4,3,4.2,5.4,7.4,6.3
				c1.6,0.5,3.3,0.5,5,0.2C40,124.8,41.5,124,42.7,122.8z"/>
			<path class="st6" d="M39.8,118.4c0,0,0.1-0.1,0.3-0.3c0.2-0.2,0.4-0.5,0.6-0.9c0.2-0.4,0.5-1,0.6-1.6c0.1-0.7,0.1-1.4,0-2.2
				c-0.2-0.8-0.6-1.6-1.2-2.3c-0.6-0.7-1.4-1.3-2.3-1.7c-0.9-0.4-2-0.4-3-0.2c-1,0.2-2,0.8-2.7,1.5c-0.8,0.8-1.2,1.7-1.4,2.8
				c-0.2,1-0.1,2,0.3,2.9c0.3,0.9,0.9,1.7,1.6,2.3c0.7,0.6,1.5,0.9,2.2,1.1c0.8,0.2,1.5,0.2,2.2,0.1c0.7-0.1,1.2-0.3,1.6-0.5
				c0.4-0.2,0.7-0.5,0.9-0.6C39.7,118.5,39.8,118.4,39.8,118.4z M39.8,118.4c0,0-0.1,0.1-0.3,0.3c-0.2,0.2-0.5,0.4-0.9,0.7
				c-0.8,0.5-2.2,1.1-4,0.8c-0.9-0.1-1.8-0.5-2.6-1.1c-0.8-0.6-1.5-1.5-1.9-2.5c-0.4-1-0.5-2.2-0.3-3.4c0.1-0.6,0.3-1.1,0.6-1.6
				c0.3-0.5,0.7-1,1.1-1.4c0.9-0.8,1.9-1.4,3.1-1.6c1.1-0.2,2.3-0.1,3.3,0.3c0.5,0.2,1,0.5,1.4,0.8c0.4,0.3,0.8,0.7,1.1,1.1
				c0.6,0.8,0.9,1.7,1.1,2.5c0.3,1.7-0.2,3.1-0.7,3.9c-0.2,0.4-0.5,0.7-0.7,0.9C39.9,118.3,39.8,118.4,39.8,118.4z"/>
		</g>
	</g>
	<g>
		<path class="st6" d="M74,82.2l12.4-8l0,0c0.7-0.5,1.5-0.8,2.3-0.8c0.8,0,1.7,0.4,2.3,1l0,0l11.6,8.4l-0.2,0
			c4.3-4.3,8.6-8.6,12.5-13.2c3.9-4.6,7.5-9.5,10.5-14.8c1.5-2.6,2.8-5.4,3.9-8.2c1.1-2.8,1.9-5.7,2.3-8.7c0.2-1.5,0.3-3,0.3-4.5
			c0-1.5-0.2-3-0.5-4.5c-0.7-2.9-2.1-5.7-4.2-7.7c-2.1-2.1-4.9-3.5-7.8-4.2c-1.5-0.3-2.9-0.5-4.4-0.5c-1.5,0-3,0.1-4.5,0.3
			c-3,0.4-5.9,1.3-8.7,2.4c-2.8,1.1-5.5,2.4-8.1,3.9c-5.2,3-10.1,6.6-14.8,10.5c-2.3,1.9-4.5,4-6.7,6.1c-2.2,2.1-4.3,4.2-6.5,6.4
			l0-0.4l8.4,11.6l0,0c0.6,0.6,1,1.5,1,2.4c0,0.9-0.2,1.8-0.8,2.4l0,0l-8,12.4l0-0.2L74,82.2z M74,82.3l-7.9-7.8L66,74.5l0.1-0.1
			L74,61.9l0,0l0,0c0.5-0.6,0.7-1.4,0.7-2.1c0-0.8-0.4-1.5-0.9-2l0,0l0,0l-8.5-11.6l-0.2-0.2l0.2-0.2c2.1-2.1,4.2-4.3,6.4-6.4
			c2.2-2.1,4.4-4.2,6.7-6.1c4.6-3.9,9.6-7.5,14.9-10.5c2.6-1.5,5.4-2.8,8.3-3.9c2.9-1.1,5.8-1.9,8.8-2.4c1.5-0.2,3-0.3,4.6-0.3
			c1.5,0,3.1,0.2,4.6,0.6c3,0.7,5.9,2.2,8,4.4c2.2,2.2,3.6,5.1,4.3,8.1c0.3,1.5,0.5,3,0.5,4.6c0,1.5-0.1,3.1-0.3,4.6
			c-0.4,3-1.3,6-2.4,8.8c-1.1,2.8-2.4,5.6-3.9,8.2c-3,5.3-6.6,10.2-10.6,14.8c-3.9,4.7-8.3,8.9-12.6,13.2l-0.1,0.1l-0.1-0.1
			l-11.6-8.4l0,0l0,0c-0.6-0.6-1.3-0.9-2.1-1c-0.8,0-1.6,0.2-2.2,0.7l0,0l0,0L74,82.3z"/>
	</g>
</g>
</svg>
