<?xml version="1.0" encoding="utf-8"?>
<!-- Generator: Adobe Illustrator 19.1.0, SVG Export Plug-In . SVG Version: 6.00 Build 0)  -->
<svg version="1.1" id="Layer_1" xmlns="http://www.w3.org/2000/svg" xmlns:xlink="http://www.w3.org/1999/xlink" x="0px" y="0px"
	 viewBox="0 0 150 150" style="enable-background:new 0 0 150 150;" xml:space="preserve">
<style type="text/css">
	.st0{opacity:0.4;fill:#818282;}
	.st1{fill:#99A7A7;}
	.st2{fill:#859594;}
	.st3{fill:#3A3A3A;}
</style>
<ellipse class="st0" cx="78.5" cy="127.7" rx="51.3" ry="2.3"/>
<ellipse class="st0" cx="74.5" cy="129.7" rx="51.3" ry="2.3"/>
<g>
	<path class="st1" d="M119.8,51.8c0.7,0.1,1.5,0.2,2.2,0.3c1.1,0.2,2.2,0.4,3.2,0.6c16.1,4,25.3,18.7,20.8,34.2
		c-4.1,14.3-18.4,24.5-33.9,25.3c-2,0.1-4,0-5.9-0.2l-1.1,5c-0.2,0.7-1,1.2-1.9,1.2H57.7l-5.7,0c-1.1,0-2-0.6-2-1.4
		c0.4-58.3-40-75.5-47.2-78.1c-0.7-0.2-1.1-0.7-1.1-1.3v-1.4c0-0.9,1.1-1.5,2.3-1.4l115,12.2c1.1,0.1,1.8,0.9,1.7,1.6L119.8,51.8z
		 M113.2,106.4c12.2-0.9,23.4-9.1,26.7-20.5c3.5-12.3-3.5-23.9-16-27.5c-1.1-0.3-2.3-0.6-3.5-0.8c-0.6-0.1-1.2-0.2-1.9-0.2l-11,48.8
		C109.4,106.5,111.3,106.6,113.2,106.4z"/>
	<path class="st2" d="M79.4,42.5l39.6,4.2c1.1,0.1,1.8,0.9,1.7,1.6l-0.8,3.5c0.7,0.1,1.5,0.2,2.2,0.3c1.1,0.2,2.2,0.4,3.2,0.6
		c16.1,4,25.3,18.7,20.8,34.2c-4.1,14.3-18.4,24.5-33.9,25.3c-2,0.1-4,0-5.9-0.2l-1.1,5c-0.2,0.7-1,1.2-1.9,1.2H79.4L79.4,42.5z
		 M113.2,106.4c12.2-0.9,23.4-9.1,26.7-20.5c3.5-12.3-3.5-23.9-16-27.5c-1.1-0.3-2.3-0.6-3.5-0.8c-0.6-0.1-1.2-0.2-1.9-0.2l-11,48.8
		C109.4,106.5,111.3,106.6,113.2,106.4z"/>
	<g>
		<path class="st3" d="M120.7,53.4c2.1,0.2,4.2,0.6,6.2,1.1c1,0.3,2,0.5,3,1c1,0.4,2,0.8,2.9,1.3l1.4,0.7c0.5,0.3,0.9,0.6,1.3,0.8
			c0.4,0.3,0.9,0.6,1.3,0.9l1.2,1c1.7,1.3,3.1,2.9,4.5,4.5c0.6,0.9,1.2,1.7,1.8,2.6l0.8,1.4l0.4,0.7l0.3,0.7l0.6,1.5
			c0.2,0.5,0.3,1,0.5,1.5c0.1,0.5,0.3,1,0.4,1.5l0.3,1.6c0.4,2.1,0.4,4.2,0.4,6.3c-0.1,1.1-0.2,2.1-0.4,3.2c-0.3,1-0.5,2.1-0.7,3.1
			c-0.6,2-1.4,4-2.4,5.9l-0.8,1.4c-0.3,0.5-0.6,0.9-0.9,1.3c-0.6,0.9-1.2,1.7-1.9,2.6c-0.6,0.9-1.4,1.6-2.1,2.4
			c-0.7,0.8-1.5,1.5-2.3,2.2c-0.8,0.7-1.6,1.3-2.5,2c-0.9,0.6-1.7,1.2-2.6,1.8c-0.9,0.5-1.8,1.1-2.8,1.5c-0.9,0.5-1.9,0.9-2.9,1.3
			l-1.5,0.6l-1.5,0.5c-1,0.4-2,0.6-3.1,0.8c-2.1,0.5-4.2,0.8-6.3,0.9c-2.1,0.2-4.2,0.1-6.4-0.1l0.2-0.1l-1,4.4l-0.1,0.5
			c0,0.2-0.1,0.4-0.3,0.6c-0.3,0.3-0.6,0.6-1,0.7c-0.4,0.1-0.8,0.2-1.2,0.1l-1.1,0l-9,0l-17.9,0l-17.9,0l-4.5,0
			c-0.7,0-1.7,0-2.3-0.7c-0.2-0.2-0.3-0.3-0.4-0.6c-0.1-0.2-0.1-0.5-0.1-0.6l0-1.1c0-1.5,0-3-0.1-4.5l-0.3-4.5
			c-0.5-5.9-1.5-11.8-3-17.6c-1.6-5.7-3.7-11.3-6.5-16.6c-2.8-5.3-6.2-10.2-10.2-14.6C26.5,55,21.9,51,17,47.7
			c-2.5-1.7-5-3.2-7.7-4.5c-1.3-0.7-2.7-1.3-4-1.9l-1-0.4c-0.4-0.1-0.7-0.2-1.1-0.4c-0.4-0.2-0.8-0.5-0.9-1
			c-0.1-0.2-0.1-0.5-0.1-0.7l0-0.6l0-0.6l0-0.2l0-0.1c0-0.1,0.1-0.3,0.1-0.4c0.2-0.5,0.6-0.8,1-1c0.4-0.2,0.8-0.3,1.2-0.3
			c0.4,0,0.8,0.1,1.2,0.1l4.5,0.5l8.9,0.9l35.7,3.8L90.3,45l17.8,2l8.9,1l2.2,0.2c0.7,0,1.6,0.2,2,0.9c0.2,0.3,0.3,0.8,0.1,1.1
			l-0.3,1.1L120.7,53.4z M120.6,53.5l0.5-2.2l0.2-1.1c0.1-0.4,0.1-0.7-0.1-1c-0.4-0.6-1.2-0.8-2-0.8l-2.2-0.2l-8.9-0.9l-17.8-1.8
			l-35.7-3.7L18.9,38L10,37.1l-4.5-0.5c-0.8-0.1-1.4-0.2-2,0.1c-0.3,0.1-0.5,0.3-0.6,0.6c-0.1,0.1,0,0.6-0.1,1c0,0.4,0,0.8,0,1
			c0.1,0.2,0.3,0.5,0.6,0.6l2.1,0.8c1.4,0.6,2.8,1.2,4.1,1.9c2.7,1.4,5.3,2.9,7.8,4.6c5,3.4,9.5,7.3,13.5,11.8
			c2,2.2,3.8,4.6,5.6,7.1c0.8,1.3,1.7,2.5,2.4,3.8l1.2,1.9l1.1,2c2.8,5.3,5,10.9,6.5,16.7c1.6,5.8,2.5,11.7,3,17.7l0.3,4.5
			c0.1,1.5,0.1,3,0.1,4.5l0,1.1c0,0.4,0.1,0.6,0.3,0.8c0.2,0.2,0.5,0.4,0.8,0.5c0.3,0.1,0.7,0.1,1.1,0.1l4.5,0l17.9,0l17.9,0l9,0
			l1.1,0c0.4,0,0.7,0,1-0.1c0.3-0.1,0.6-0.3,0.8-0.6c0.2-0.2,0.2-0.6,0.3-1l1-4.4l0-0.2l0.2,0c2.1,0.2,4.2,0.3,6.3,0.2
			c2.1-0.1,4.2-0.4,6.2-0.9c1-0.2,2-0.5,3-0.8l1.5-0.5l1.5-0.6c1-0.4,1.9-0.8,2.9-1.3c1-0.4,1.8-1,2.8-1.5c0.9-0.5,1.8-1.2,2.6-1.7
			c0.8-0.6,1.7-1.3,2.5-2c0.8-0.7,1.6-1.4,2.3-2.2c0.7-0.8,1.5-1.5,2.1-2.4c0.7-0.8,1.3-1.6,1.9-2.5c0.3-0.4,0.6-0.9,0.9-1.3
			l0.8-1.4c1-1.8,1.8-3.8,2.4-5.8c0.3-1,0.5-2,0.7-3.1c0.1-1,0.3-2.1,0.4-3.1c0.1-2.1,0.1-4.2-0.3-6.3l-0.3-1.6
			c-0.1-0.5-0.3-1-0.4-1.5c-0.2-0.5-0.3-1-0.5-1.5l-0.6-1.5l-0.3-0.7l-0.4-0.7l-0.8-1.4c-0.5-0.9-1.2-1.8-1.8-2.6
			c-1.3-1.6-2.8-3.2-4.4-4.5l-1.2-1c-0.4-0.3-0.9-0.6-1.3-0.9c-0.4-0.3-0.9-0.6-1.3-0.8l-1.4-0.7c-0.9-0.5-1.9-0.9-2.9-1.3
			c-1-0.4-2-0.7-3-1C124.8,54.1,122.7,53.7,120.6,53.5L120.6,53.5z"/>
	</g>
	<g>
		<path class="st3" d="M112.4,106.4l2.4-0.3c0.8-0.2,1.6-0.3,2.3-0.5c0.8-0.2,1.5-0.4,2.3-0.6c0.7-0.3,1.5-0.5,2.2-0.8
			c1.5-0.6,2.9-1.3,4.3-2.1c0.7-0.4,1.4-0.8,2-1.3c0.7-0.5,1.3-0.9,1.9-1.4l0.9-0.8l0.9-0.8c0.6-0.5,1.1-1.1,1.6-1.7
			c1.1-1.2,2-2.5,2.8-3.8c0.4-0.7,0.8-1.4,1.1-2.1c0.3-0.7,0.6-1.5,0.9-2.2c0.2-0.8,0.5-1.5,0.7-2.3c0.2-0.8,0.4-1.6,0.5-2.3
			c0.1-0.8,0.2-1.6,0.3-2.3c0-0.8,0.1-1.6,0-2.4c-0.1-0.8-0.1-1.6-0.3-2.4c-0.1-0.8-0.3-1.6-0.5-2.3l-0.3-1.1l-0.4-1.1
			c-0.3-0.7-0.7-1.4-1-2.1c-0.3-0.7-0.8-1.3-1.3-2c-0.4-0.7-1-1.2-1.5-1.9c-0.5-0.6-1.1-1.1-1.7-1.7c-0.6-0.5-1.2-1-1.8-1.5
			c-1.3-0.9-2.6-1.7-4.1-2.4c-1.4-0.7-2.9-1.2-4.4-1.6l-2.3-0.5c-0.7-0.2-1.6-0.2-2.3-0.3l0.4-0.3l-2.7,12.2
			c-0.9,4.1-1.8,8.1-2.8,12.2l-5.8,24.3l-0.1-0.1C108.6,106.5,110.5,106.5,112.4,106.4z M112.4,106.5c-1.9,0.2-3.8,0.1-5.7-0.1
			l-0.1,0l0-0.1l5.2-24.5c0.9-4.1,1.8-8.1,2.7-12.2l2.8-12.2l0.1-0.3l0.3,0c0.8,0.1,1.6,0.1,2.4,0.3l2.3,0.5c1.6,0.4,3.1,1,4.6,1.6
			c1.5,0.7,2.9,1.5,4.2,2.5c0.7,0.5,1.2,1,1.9,1.5c0.6,0.6,1.1,1.1,1.7,1.7c0.5,0.6,1,1.2,1.5,1.9c0.4,0.7,0.9,1.3,1.3,2.1
			c0.4,0.7,0.8,1.4,1,2.2l0.4,1.1l0.3,1.2c0.3,0.8,0.4,1.6,0.5,2.4c0.2,0.8,0.2,1.6,0.2,2.4c0.1,0.8,0,1.6,0,2.4
			c0,0.8-0.2,1.6-0.3,2.4c-0.1,0.8-0.4,1.6-0.5,2.3c-0.2,0.8-0.5,1.5-0.8,2.3c-0.3,0.7-0.6,1.5-1,2.2c-0.4,0.7-0.8,1.4-1.2,2.1
			c-0.9,1.4-1.8,2.6-2.9,3.8c-0.5,0.6-1.1,1.2-1.7,1.7l-0.9,0.8l-0.9,0.8c-0.6,0.5-1.3,1-1.9,1.4c-0.6,0.5-1.3,0.9-2,1.3
			c-1.4,0.8-2.8,1.5-4.3,2.1c-0.7,0.3-1.5,0.5-2.3,0.8c-0.8,0.2-1.5,0.4-2.3,0.6c-0.8,0.2-1.6,0.3-2.4,0.5L112.4,106.5z"/>
	</g>
</g>
</svg>
