<?xml version="1.0" encoding="utf-8"?>
<!-- Generator: Adobe Illustrator 19.1.0, SVG Export Plug-In . SVG Version: 6.00 Build 0)  -->
<svg version="1.1" id="Layer_1" xmlns="http://www.w3.org/2000/svg" xmlns:xlink="http://www.w3.org/1999/xlink" x="0px" y="0px"
	 viewBox="0 0 150 150" style="enable-background:new 0 0 150 150;" xml:space="preserve">
<style type="text/css">
	.st0{opacity:0.4;fill:#818282;}
	.st1{fill:#606161;}
	.st2{opacity:0.7;fill:#C8C69A;}
	.st3{fill:#C8C69A;}
	.st4{fill:#474949;}
	.st5{fill:#EAC88B;}
	.st6{fill:#353535;}
	.st7{fill:#EDAC34;}
	.st8{fill:#3A3A3A;}
	.st9{fill:none;}
</style>
<ellipse class="st0" cx="86.1" cy="126.5" rx="39.4" ry="2.3"/>
<ellipse class="st0" cx="81.1" cy="128.5" rx="39.4" ry="2.3"/>
<g>
	<g>
		<path class="st1" d="M112.1,83.3l-33.5,28.2c-1.1,0.9-2.7,0.7-3.8-0.4L46.8,80.3c-1.1-1.2-1.1-3,0.1-4l35.9-30.2
			c1.1-1,2.9-0.7,3.9,0.6l25.6,32.7C113.2,80.7,113.1,82.4,112.1,83.3z"/>
		<path class="st2" d="M83.6,45.5L62.7,20.7c-2.4-2.8-6.4-3.3-9-1.2c-2.6,2.2-2.7,6.2-0.4,9c-2.4-2.8-6.4-3.3-9-1.2s-2.7,6.2-0.4,9
			c-2.4-2.8-6.4-3.3-9-1.2s-2.7,6.2-0.4,9c-2.4-2.8-6.4-3.3-9-1.2s-2.7,6.2-0.4,9L46.2,77L83.6,45.5z"/>
		<path class="st3" d="M83.6,45.5L62.7,20.7c-2.4-2.8-6.4-3.3-9-1.2c-2.6,2.2-2.7,6.2-0.4,9c-2.4-2.8-6.4-3.3-9-1.2s-2.7,6.2-0.4,9
			l20.9,24.8L83.6,45.5z"/>
		
			<rect x="78.5" y="95.6" transform="matrix(0.7651 -0.644 0.644 0.7651 -42.9142 88.7211)" class="st4" width="43.2" height="15.1"/>
		<path class="st5" d="M85.1,67.5L67.5,82.2c-1.9,1.6-4.7,1.4-6.4-0.5l-0.3-0.3c-1.6-1.9-1.4-4.7,0.5-6.4L79,60.3
			c1.9-1.6,4.7-1.4,6.4,0.5l0.3,0.3C87.2,63,87,65.9,85.1,67.5z"/>
		
			<rect x="97.6" y="88.7" transform="matrix(-0.7651 0.644 -0.644 -0.7651 253.2889 100.0287)" class="st6" width="21.6" height="15.1"/>
		<path class="st4" d="M76.3,74.9l8.8-7.4c1.9-1.6,2.1-4.4,0.5-6.4l-0.3-0.3c-1.6-1.9-4.4-2.1-6.4-0.5l-8.8,7.4l-5.4-6.4l17.9-15.1
			c1.1-1,2.9-0.7,3.9,0.6l25.6,32.7c0.9,1.2,0.8,2.9-0.2,3.8L95.3,97.4L76.3,74.9z"/>
		<path class="st7" d="M70.2,67.6l8.8-7.4c1.9-1.6,4.7-1.4,6.4,0.5l0.3,0.3c1.6,1.9,1.4,4.7-0.5,6.4l-8.8,7.4L70.2,67.6z"/>
		<path class="st3" d="M49.6,83.4L42.3,81c-1.6-0.2-3.3,0.2-4.6,1.3c-2.6,2.2-2.7,6.2-0.4,9c0.7,0.8,1.6,1.5,2.5,1.9l0,0l27.2,9.6
			L49.6,83.4z"/>
	</g>
	<g>
		<path class="st8" d="M111.1,83.3c0,0-9.1,7.7-22.8,19.3c-3.4,2.9-7.1,6.1-11.1,9.3c-1.2,0.7-2.9,0.2-3.7-0.8c-0.9-1-1.8-2-2.7-3
			c-1.8-2-3.7-4-5.6-6.1c-3.8-4.1-7.7-8.4-11.6-12.8c-2-2.2-4-4.4-6-6.6l-1.5-1.6c-0.2-0.3-0.5-0.5-0.7-0.9
			c-0.3-0.3-0.4-0.7-0.5-1.1c-0.2-0.8-0.1-1.7,0.4-2.4c0.2-0.4,0.6-0.6,0.8-0.9l0.9-0.7c9.1-7.7,18.2-15.4,26.8-22.6
			c2.1-1.8,4.2-3.6,6.3-5.3c0.5-0.4,1-0.9,1.5-1.3c0.6-0.5,1.4-0.8,2.1-0.7c0.8,0,1.4,0.4,2,0.9c0.5,0.5,0.8,1,1.3,1.5
			c3.1,4.1,6.1,7.9,8.8,11.5c5.5,7.1,10,13,13.2,17.2c0.8,1,1.5,2,2.1,2.8c0.3,0.4,0.6,0.8,0.8,1.2c0.2,0.4,0.2,0.8,0.2,1.2
			c0,0.7-0.3,1.2-0.5,1.5C111.2,83.2,111.1,83.3,111.1,83.3z M111,83.3c0,0,0.1-0.1,0.4-0.4c0.2-0.3,0.5-0.8,0.5-1.5
			c0-0.7-0.3-1.5-1-2.3c-0.6-0.8-1.4-1.7-2.2-2.7c-3.2-4.1-7.9-9.9-13.4-17c-2.8-3.5-5.8-7.3-9-11.3c-0.4-0.5-0.8-1.1-1.2-1.4
			c-0.4-0.4-1-0.6-1.5-0.7c-0.6,0-1.1,0.1-1.6,0.5c-0.5,0.4-1,0.9-1.5,1.3c-2.1,1.7-4.2,3.5-6.3,5.3C65.6,60.3,56.4,68,47.3,75.6
			l-0.9,0.7c-0.3,0.2-0.5,0.4-0.7,0.7c-0.4,0.5-0.5,1.3-0.3,1.9c0.1,0.3,0.2,0.6,0.4,0.9c0.2,0.3,0.5,0.5,0.7,0.8l1.5,1.7
			c2,2.2,4,4.4,5.9,6.6c3.9,4.4,7.8,8.7,11.6,12.8c1.9,2.1,3.7,4.1,5.5,6.1c0.9,1,1.8,2,2.7,3c0.8,1,2.2,1.4,3.3,0.8
			c3.9-3.2,7.7-6.4,11.1-9.2C101.9,90.9,111,83.3,111,83.3z"/>
	</g>
	<g>
		<path class="st8" d="M82.5,45.5l-16.9-20L63.5,23c-0.7-0.8-1.4-1.7-2.1-2.5c-0.7-0.8-1.6-1.4-2.7-1.8c-1-0.4-2.1-0.5-3.2-0.3
			c-1,0.2-2.1,0.6-2.8,1.4c-0.8,0.7-1.4,1.7-1.6,2.7c-0.3,1-0.3,2.1,0,3.2c0.3,1,0.8,2,1.4,2.8l-0.3,0.3c-0.3-0.3-0.6-0.6-0.9-0.9
			c-0.3-0.3-0.6-0.5-1-0.7c-0.7-0.4-1.5-0.7-2.3-0.8c-0.8-0.1-1.6-0.1-2.4,0.1c-0.4,0.1-0.8,0.3-1.1,0.4L44,27.2l-0.5,0.4L43.1,28
			l-0.4,0.5c-0.2,0.3-0.4,0.7-0.6,1c-0.3,0.7-0.5,1.5-0.5,2.3c0,0.8,0.1,1.6,0.4,2.4c0.1,0.4,0.3,0.7,0.5,1.1c0.2,0.3,0.4,0.7,0.7,1
			l-0.4,0.3c-0.3-0.3-0.6-0.6-0.9-0.9c-0.3-0.3-0.6-0.5-1-0.7c-0.7-0.4-1.5-0.7-2.3-0.8c-0.8-0.1-1.6-0.1-2.4,0.1
			c-0.4,0.1-0.8,0.3-1.1,0.4l-0.5,0.3l-0.5,0.4l-0.4,0.4l-0.4,0.4c-0.2,0.3-0.4,0.7-0.6,1c-0.3,0.7-0.5,1.5-0.5,2.3
			c0,0.8,0.1,1.6,0.4,2.4c0.1,0.4,0.3,0.7,0.5,1.1c0.2,0.3,0.4,0.7,0.7,1l-0.4,0.4c-0.7-0.8-1.5-1.4-2.5-1.9c-1-0.4-2-0.6-3.1-0.5
			c-1,0.1-2,0.5-2.8,1.1c-0.2,0.1-0.4,0.4-0.6,0.5c-0.2,0.2-0.3,0.4-0.5,0.6c-0.3,0.4-0.5,0.9-0.7,1.4c-0.3,1-0.4,2.1-0.2,3.1
			c0.2,1,0.6,2,1.3,2.8c0.7,0.8,1.4,1.7,2.1,2.5l2.1,2.5l16.9,20.1l-0.5,0l18.8-15.6l9.4-7.8L82.5,45.5z M82.6,45.5l-9.3,8L64,61.5
			L45.4,77.3l-0.3,0.2l-0.2-0.3L28,57.2l-2.1-2.5c-0.7-0.9-1.4-1.7-2.1-2.5c-0.7-0.9-1.2-2-1.4-3.1c-0.2-1.1-0.1-2.3,0.2-3.4
			c0.2-0.5,0.4-1.1,0.8-1.5c0.2-0.2,0.4-0.5,0.6-0.7c0.2-0.2,0.4-0.4,0.6-0.6c0.9-0.7,2-1.1,3.2-1.2c1.1-0.1,2.3,0.1,3.4,0.6
			c1,0.5,2,1.2,2.7,2l-0.4,0.4c-0.3-0.3-0.5-0.7-0.7-1.1c-0.2-0.4-0.4-0.8-0.6-1.2c-0.3-0.8-0.4-1.7-0.4-2.6c0-0.9,0.2-1.7,0.6-2.5
			c0.2-0.4,0.4-0.8,0.7-1.1l0.4-0.5l0.5-0.4l0.5-0.4l0.6-0.3c0.4-0.2,0.8-0.4,1.2-0.5c0.8-0.2,1.7-0.3,2.6-0.1
			c0.9,0.1,1.7,0.4,2.4,0.9c0.4,0.2,0.7,0.5,1.1,0.7c0.3,0.3,0.6,0.6,0.9,0.9l-0.4,0.3c-0.3-0.3-0.5-0.7-0.7-1.1
			c-0.2-0.4-0.4-0.8-0.5-1.2c-0.3-0.8-0.4-1.7-0.4-2.5c0-0.9,0.2-1.7,0.6-2.5c0.2-0.4,0.4-0.8,0.7-1.1l0.4-0.5l0.5-0.4l0.5-0.4
			l0.6-0.3c0.4-0.2,0.8-0.3,1.2-0.5c0.8-0.2,1.7-0.3,2.6-0.1c0.9,0.1,1.7,0.4,2.4,0.9c0.4,0.2,0.7,0.5,1.1,0.7
			c0.3,0.3,0.6,0.6,0.9,0.9l-0.3,0.3c-0.7-0.9-1.2-1.9-1.5-3c-0.2-1.1-0.3-2.3,0-3.3c0.3-1.1,0.9-2.1,1.7-2.8c0.8-0.8,1.9-1.2,3-1.4
			c1.1-0.2,2.3,0,3.3,0.4c1,0.4,2,1,2.8,1.8c0.7,0.8,1.4,1.7,2.1,2.5l2.1,2.5L82.6,45.5z"/>
	</g>
	<g>
		<path class="st9" d="M53.3,28.6"/>
	</g>
	<g>
		<path class="st9" d="M44,36.5"/>
	</g>
	<g>
		<path class="st9" d="M34.7,44.4"/>
	</g>
	<g>
		<path class="st8" d="M122.6,95l-33,28l-0.2,0.2l-0.2-0.2l-9.7-11.5l-0.2-0.2l0.2-0.2c2.7-2.3,5.5-4.7,8.2-7l8.3-7
			c2.8-2.3,5.5-4.7,8.3-6.9l8.3-6.9l0.2-0.2l0.2,0.2l4.8,5.8L122.6,95z M122.5,95l-4.9-5.6l-4.9-5.7l0.3,0l-8.2,7
			c-2.7,2.4-5.5,4.7-8.2,7l-8.3,7c-2.7,2.3-5.5,4.6-8.3,6.9l0-0.4l9.6,11.6l-0.3,0L122.5,95z"/>
	</g>
	<g>
		<path class="st8" d="M85.1,67.5c0,0-3.6,3-8.9,7.6c-1.3,1.1-2.8,2.4-4.3,3.7c-0.8,0.7-1.6,1.3-2.4,2c-0.4,0.3-0.8,0.7-1.2,1
			c-0.4,0.3-0.8,0.7-1.3,1c-1,0.6-2.2,0.8-3.4,0.5c-1.2-0.2-2.2-1-2.9-1.9c-0.8-0.9-1.2-2.2-1.1-3.4c0.1-1.2,0.7-2.4,1.7-3.2
			c3.6-3,7.1-6.1,10.5-8.9c1.7-1.4,3.3-2.8,4.9-4.1c0.8-0.6,1.5-1.3,2.3-1.9c0.8-0.6,1.8-1,2.7-1c0.9,0,1.8,0.2,2.5,0.6
			c0.7,0.4,1.3,1,1.7,1.6c0.9,1.2,1.1,2.6,0.9,3.6c-0.2,1-0.6,1.7-1,2.2c-0.2,0.2-0.3,0.4-0.4,0.5C85.2,67.4,85.1,67.5,85.1,67.5z
			 M85.1,67.4c0,0,0.1-0.1,0.2-0.1c0.1-0.1,0.2-0.2,0.4-0.5c0.3-0.4,0.8-1.1,0.9-2.1c0.2-1,0-2.3-0.9-3.4c-0.4-0.6-1-1.1-1.7-1.4
			c-0.7-0.3-1.5-0.5-2.3-0.4c-0.8,0.1-1.6,0.4-2.3,1c-0.7,0.6-1.5,1.3-2.2,1.9c-1.5,1.3-3.2,2.7-4.8,4.1c-3.4,2.8-7,5.8-10.6,8.8
			c-0.8,0.7-1.4,1.7-1.5,2.8c-0.1,1.1,0.2,2.2,0.9,3.1c0.7,0.9,1.6,1.6,2.6,1.8c1,0.2,2.2,0.1,3.1-0.4c0.4-0.2,0.9-0.6,1.3-1
			c0.4-0.3,0.8-0.7,1.2-1c0.8-0.7,1.6-1.3,2.4-2c1.6-1.3,3-2.5,4.4-3.6C81.5,70.5,85.1,67.4,85.1,67.4z"/>
	</g>
	<g>
		<path class="st8" d="M48.6,84.4l-7.3-2.3l0,0c-1.5-0.2-3,0.2-4.2,1.1c-0.3,0.2-0.6,0.5-0.8,0.8c-0.2,0.3-0.5,0.6-0.6,0.9
			c-0.2,0.3-0.3,0.7-0.5,1c-0.1,0.3-0.2,0.7-0.3,1.1c0,0.4-0.1,0.7-0.1,1.1c0,0.4,0,0.7,0.1,1.1c0.1,0.4,0.2,0.7,0.3,1.1
			c0.1,0.3,0.3,0.7,0.5,1c0.7,1.3,1.8,2.3,3.2,2.9l-0.3,0.2l0,0l0-0.3l0.3,0.1l13.7,4.7c4.5,1.6,9.1,3.1,13.6,4.7l-0.4,0.6l-4.4-4.9
			l-4.3-4.9C54.2,91,51.4,87.7,48.6,84.4z M48.6,84.3c3,3.2,6,6.3,8.9,9.6l4.4,4.8l4.4,4.9l1,1.1l-1.4-0.5
			c-4.5-1.6-9.1-3.2-13.6-4.9l-13.6-4.9l0.3-0.2l0,0l0,0.3l-0.3-0.1c-1.4-0.7-2.6-1.8-3.3-3.1c-0.2-0.3-0.3-0.7-0.5-1.1
			c-0.1-0.4-0.2-0.7-0.3-1.1c-0.1-0.4-0.1-0.8-0.1-1.2c0-0.4,0-0.8,0.1-1.2c0.1-0.4,0.2-0.8,0.3-1.1c0.1-0.4,0.3-0.7,0.5-1
			c0.2-0.3,0.4-0.6,0.7-0.9c0.3-0.3,0.5-0.5,0.9-0.8c1.2-0.9,2.9-1.3,4.4-1.1l0,0l0,0L48.6,84.3L48.6,84.3z"/>
	</g>
	<g>
		<path class="st8" d="M33.7,44.3c0,0,5.3,6.1,10.6,12.2c1.3,1.5,2.7,3.1,3.9,4.5c1.2,1.5,2.3,2.8,3.3,4c1.9,2.4,3.1,4,3.1,4l-0.1,0
			c0,0-1.4-1.4-3.5-3.7c-1-1.1-2.2-2.5-3.4-3.9c-1.2-1.5-2.5-3-3.8-4.6C38.7,50.7,33.6,44.4,33.7,44.3L33.7,44.3z"/>
	</g>
	<g>
		<path class="st8" d="M43,36.5c0,0,5.3,6.1,10.6,12.2c1.3,1.5,2.7,3.1,3.9,4.5c1.2,1.5,2.3,2.8,3.3,4c1.9,2.4,3.1,4,3.1,4l-0.1,0
			c0,0-1.4-1.4-3.5-3.7c-1-1.1-2.2-2.5-3.4-3.9c-1.2-1.5-2.5-3-3.8-4.6C48.1,42.8,43,36.5,43,36.5L43,36.5z"/>
	</g>
	<g>
		<path class="st8" d="M52.4,28.6c0,0,5.3,6.1,10.6,12.2c1.3,1.5,2.7,3.1,3.9,4.5c1.2,1.5,2.3,2.8,3.3,4c1.9,2.4,3.1,4,3.1,4l-0.1,0
			c0,0-1.4-1.4-3.5-3.7c-1-1.1-2.2-2.5-3.4-3.9c-1.2-1.5-2.5-3-3.8-4.6C57.4,34.9,52.3,28.6,52.4,28.6L52.4,28.6z"/>
	</g>
</g>
</svg>
