<?xml version="1.0" encoding="utf-8"?>
<!-- Generator: Adobe Illustrator 19.1.0, SVG Export Plug-In . SVG Version: 6.00 Build 0)  -->
<svg version="1.1" id="Layer_1" xmlns="http://www.w3.org/2000/svg" xmlns:xlink="http://www.w3.org/1999/xlink" x="0px" y="0px"
	 viewBox="150 -150 450 450" style="enable-background:new 150 -150 450 450;" xml:space="preserve">
<style type="text/css">
	.st0{opacity:0.8;}
	.st1{fill:#FFFFFF;}
	.st2{fill:#D5D5D5;}
	.st3{fill:none;stroke:#333333;stroke-width:0.75;stroke-miterlimit:10;}
	.st4{fill:none;stroke:#333333;stroke-width:0.75;stroke-linecap:round;stroke-miterlimit:10;}
	.st5{opacity:0.4;fill:#818282;}
	.st6{opacity:0.7;fill:#C8C69A;}
	.st7{fill:#5D843B;}
	.st8{fill:#E4DF1F;}
	.st9{fill:#527334;}
	.st10{fill:#C8C69A;}
	.st11{opacity:0.8;fill:#72A040;}
	.st12{opacity:0.9;fill:url(#SVGID_1_);}
	.st13{opacity:0.9;fill:url(#SVGID_2_);}
	.st14{opacity:0.9;fill:url(#SVGID_3_);}
	.st15{opacity:0.9;fill:url(#SVGID_4_);}
	.st16{opacity:0.9;fill:url(#SVGID_5_);}
	.st17{opacity:0.9;fill:url(#SVGID_6_);}
	.st18{opacity:0.9;fill:url(#SVGID_7_);}
	.st19{opacity:0.9;fill:url(#SVGID_8_);}
	.st20{opacity:0.9;fill:url(#SVGID_9_);}
	.st21{opacity:0.9;fill:url(#SVGID_10_);}
	.st22{opacity:0.9;fill:url(#SVGID_11_);}
	.st23{opacity:0.9;fill:url(#SVGID_12_);}
	.st24{opacity:0.9;fill:url(#SVGID_13_);}
	.st25{opacity:0.9;fill:url(#SVGID_14_);}
	.st26{fill:url(#SVGID_15_);}
	.st27{fill:url(#SVGID_16_);}
	.st28{fill:url(#SVGID_17_);}
	.st29{opacity:0.9;fill:url(#SVGID_18_);}
	.st30{fill:url(#SVGID_19_);}
	.st31{fill:url(#SVGID_20_);}
	.st32{fill:url(#SVGID_21_);}
	.st33{fill:#B2B2B2;}
</style>
<g class="st0">
	<circle class="st1" cx="372.8" cy="75.9" r="181.6"/>
	<path class="st2" d="M554.7,75.9c0,0,0,1.1-0.1,3.3c0,1.1-0.1,2.4-0.1,4c0,0.8,0,1.7-0.1,2.6c-0.1,0.9-0.1,1.9-0.2,2.9
		c-0.5,8.3-1.9,20.6-5.9,35.7c-0.5,1.9-1.1,3.8-1.6,5.8c-0.6,2-1.3,4-2,6c-0.6,2.1-1.4,4.1-2.2,6.2c-0.8,2.1-1.6,4.3-2.6,6.4
		c-3.6,8.7-8.3,17.8-14.2,27c-5.9,9.2-13,18.5-21.4,27.4c-4.2,4.5-8.8,8.8-13.7,13.1c-1.2,1.1-2.5,2.1-3.8,3.1
		c-1.3,1-2.6,2.1-3.8,3.1c-2.7,2-5.4,3.9-8.1,5.9c-5.6,3.7-11.5,7.4-17.8,10.6c-1.6,0.8-3.1,1.6-4.7,2.4c-1.6,0.7-3.2,1.5-4.9,2.2
		c-3.2,1.6-6.6,2.8-10,4.2c-1.7,0.7-3.4,1.2-5.2,1.9c-1.7,0.6-3.5,1.2-5.3,1.8c-1.8,0.5-3.6,1-5.4,1.5c-0.9,0.3-1.8,0.5-2.7,0.8
		c-0.9,0.2-1.8,0.4-2.7,0.6c-1.8,0.4-3.7,0.8-5.5,1.3c-1.9,0.4-3.7,0.7-5.6,1c-0.9,0.2-1.9,0.3-2.8,0.5l-1.4,0.3l-1.4,0.2
		c-1.9,0.2-3.8,0.5-5.8,0.7c-1.9,0.3-3.9,0.4-5.8,0.5c-1.9,0.1-3.9,0.3-5.9,0.4c-2,0-3.9,0.1-5.9,0.1l-3,0.1c-1.1,0-2-0.1-3-0.1
		c-2-0.1-3.9-0.1-5.9-0.2c-2-0.1-4-0.3-6-0.5c-4-0.3-8-0.9-12.1-1.4c-8-1.3-16.1-3-24-5.4c-4-1.1-7.9-2.6-11.8-3.9
		c-2-0.7-3.9-1.6-5.8-2.3l-2.9-1.2l-2.9-1.3c-30.7-13.9-58.3-37-77.8-66.4c-1.2-1.9-2.4-3.7-3.6-5.6c-1.2-1.9-2.2-3.8-3.4-5.7
		c-0.5-1-1.1-1.9-1.7-2.9l-1.5-3l-1.5-3c-0.5-1-1-2-1.5-3l-2.8-6.1c-0.9-2-1.7-4.1-2.5-6.2c-0.4-1-0.8-2.1-1.2-3.1l-1.1-3.2
		l-1.1-3.2c-0.4-1.1-0.7-2.1-1-3.2l-1.9-6.4c-0.6-2.2-1.1-4.3-1.6-6.5l-0.8-3.3l-0.6-3.3c-0.4-2.2-0.9-4.4-1.2-6.6
		c-1.4-8.9-2-17.8-2.2-26.8l0.1-6.7c0-1.1,0-2.2,0.1-3.3l0.2-3.4l0.2-3.4c0.1-1.1,0.1-2.3,0.3-3.4l0.8-6.7c0.3-2.2,0.7-4.4,1.1-6.7
		l0.6-3.3l0.7-3.3c0.5-2.2,0.9-4.4,1.5-6.6l1.8-6.5c0.3-1.1,0.6-2.2,1-3.2l1.1-3.2l1.1-3.2c0.4-1.1,0.8-2.1,1.2-3.1
		c0.8-2.1,1.6-4.2,2.5-6.2l2.7-6.1c0.4-1,0.9-2,1.4-3l1.5-3l1.5-3c0.5-1,1.1-1.9,1.6-2.9c1.1-1.9,2.2-3.9,3.3-5.8
		c1.2-1.9,2.4-3.8,3.6-5.6c0.6-1,1.2-1.9,1.9-2.8l1.9-2.7l1.9-2.7l2-2.6c1.4-1.7,2.7-3.5,4.1-5.2c1.4-1.7,2.9-3.3,4.3-5
		c0.7-0.8,1.5-1.6,2.2-2.4l2.3-2.4l2.3-2.4c0.8-0.8,1.6-1.5,2.4-2.3c1.6-1.5,3.1-3.1,4.8-4.5c1.6-1.4,3.3-2.9,4.9-4.3
		c13.3-11.2,28.1-20.5,43.6-27.4l2.9-1.3L304-95c2-0.8,3.9-1.6,5.9-2.3c4-1.3,7.9-2.8,11.9-3.9c8-2.4,16.1-4,24.2-5.2
		c4.1-0.5,8.1-1.1,12.1-1.3c2-0.1,4-0.3,6-0.4c2,0,4-0.1,6-0.1l1.5,0l0.7,0l0.4,0c0.1,0,0.4,0,0.4,0l2.9,0.1c2,0.1,3.9,0.1,5.8,0.2
		c2,0.1,3.9,0.3,5.9,0.4c2,0.2,3.9,0.3,5.8,0.6c1.9,0.3,3.8,0.5,5.8,0.7l1.4,0.2l1.4,0.3c0.9,0.2,1.9,0.3,2.8,0.5
		c1.9,0.4,3.8,0.6,5.6,1.1c1.9,0.4,3.7,0.9,5.5,1.3c0.9,0.2,1.8,0.4,2.7,0.7c0.9,0.3,1.8,0.5,2.7,0.8c1.8,0.5,3.6,1,5.4,1.5
		c1.8,0.6,3.5,1.2,5.3,1.8c1.7,0.6,3.5,1.1,5.2,1.9c13.6,5.3,26.2,11.9,37.3,19.6c11.2,7.6,20.9,16.3,29.4,25.2
		c8.4,8.9,15.5,18.3,21.4,27.5c5.9,9.2,10.6,18.3,14.2,27c1,2.1,1.7,4.3,2.6,6.4c0.8,2.1,1.6,4.2,2.2,6.2c0.7,2.1,1.3,4.1,2,6
		c0.6,2,1.1,3.9,1.6,5.8c4.1,15.1,5.4,27.4,5.9,35.7c0.1,1,0.1,2,0.2,2.9c0.1,0.9,0.1,1.8,0.1,2.6c0,1.6,0.1,2.9,0.1,4
		C554.7,74.8,554.7,75.9,554.7,75.9L554.7,75.9z M554.2,75.9c0,0,0-1.1-0.1-3.3c0-1.1-0.1-2.4-0.1-4c0-0.8,0-1.7-0.1-2.6
		c-0.1-0.9-0.1-1.9-0.2-2.9c-0.6-8.3-1.9-20.6-6.3-35.5c-2-7.5-5-15.6-8.9-24.2c-3.8-8.6-8.7-17.5-14.8-26.4
		c-12.1-17.9-29.1-35.9-51.2-50.4c-11.1-7.2-23.4-13.5-36.7-18.5c-13.3-5-27.7-8.4-42.7-10.1c-1.9-0.3-3.7-0.4-5.6-0.5
		c-1.9-0.1-3.8-0.3-5.7-0.4c-1.9,0-3.9-0.1-5.8-0.1L373-103c-0.2,0-0.2,0-0.3,0l-0.4,0l-0.7,0l-1.5,0c-1.9,0-3.9,0.1-5.8,0.1
		c-1.9,0.1-3.9,0.3-5.8,0.4c-3.9,0.2-7.8,0.8-11.8,1.3c-7.8,1.2-15.7,2.8-23.5,5.1c-3.9,1-7.7,2.4-11.6,3.7
		c-1.9,0.7-3.8,1.5-5.7,2.2l-2.9,1.1l-2.8,1.3c-15.1,6.6-29.5,15.5-42.6,26.3c-1.6,1.4-3.2,2.8-4.8,4.2c-1.6,1.4-3.1,2.9-4.7,4.4
		c-0.8,0.7-1.6,1.5-2.3,2.2l-2.2,2.3l-2.2,2.3c-0.7,0.8-1.5,1.5-2.2,2.4c-5.8,6.4-11,13.2-15.9,20.4c-19.5,28.7-30.5,63.8-30.8,99.2
		c0,8.8,0.5,17.7,1.7,26.5c0.3,2.2,0.7,4.4,1.1,6.6l0.6,3.3l0.7,3.2c0.5,2.2,0.9,4.3,1.5,6.5l1.8,6.4c0.3,1.1,0.6,2.1,1,3.2l1.1,3.1
		l1.1,3.1c0.4,1,0.8,2.1,1.2,3.1c0.8,2,1.6,4.1,2.4,6.1l2.7,6c0.4,1,0.9,2,1.4,3l1.5,2.9l1.5,2.9c0.5,1,1.1,1.9,1.6,2.9
		c1.1,1.9,2.1,3.8,3.3,5.7c1.2,1.8,2.4,3.7,3.5,5.5c0.6,0.9,1.2,1.8,1.8,2.7l1.9,2.7l1.9,2.7l2,2.6c1.4,1.7,2.7,3.4,4.1,5.1
		c1.4,1.6,2.8,3.3,4.3,4.9c5.8,6.4,12,12.5,18.6,17.9c13.2,10.9,27.8,19.8,43,26.3l2.8,1.3l2.9,1.1c1.9,0.7,3.8,1.5,5.8,2.2
		c3.9,1.2,7.8,2.6,11.7,3.6c7.8,2.3,15.8,3.7,23.6,4.9c4,0.4,7.9,1,11.8,1.2c2,0.1,3.9,0.3,5.9,0.4c2,0,3.9,0.1,5.9,0.1
		c1,0,2,0.1,2.9,0l2.9-0.1c1.9-0.1,3.9-0.1,5.8-0.2c1.9-0.1,3.8-0.3,5.7-0.5c1.9-0.2,3.8-0.3,5.7-0.6c15-1.8,29.4-5.3,42.8-10.3
		c13.3-5,25.6-11.4,36.7-18.6c11.1-7.3,20.9-15.4,29.4-24c8.5-8.6,15.8-17.5,21.8-26.5c6-9,11-17.9,14.8-26.4
		c3.8-8.6,6.8-16.6,8.8-24.2c4.3-15,5.7-27.2,6.2-35.5c0.1-1,0.2-2,0.2-2.9c0.1-0.9,0.1-1.8,0.1-2.6c0-1.6,0.1-2.9,0.1-4
		C554.2,77,554.2,75.9,554.2,75.9L554.2,75.9z"/>
</g>
<circle class="st3" cx="377.2" cy="75.9" r="181.6"/>
<g class="st0">
	<ellipse class="st1" cx="377.2" cy="-119.1" rx="10.5" ry="8"/>
	<path class="st2" d="M366.9-119.1c0,0,0,0.2,0.1,0.7c0.1,0.4,0.2,1,0.6,1.6c0.4,0.6,1.1,1.3,2,1.8c0.9,0.5,2,0.8,3.1,1
		c1.1,0.2,2.3,0.5,3.6,0.7l0.5,0.1l0.4,0.1c0.4,0,0.8,0.1,1.2,0.1c0.6,0.1,1.4,0.2,2.2,0.1c1.6-0.1,3.2-0.7,4.4-1.9
		c1.2-1.1,1.7-2.9,1.3-4.3c0,0.2,0,0,0,0.1l0,0l0,0l0-0.1l0-0.2l-0.1-0.3c-0.1-0.2-0.2-0.3-0.2-0.4c-0.1-0.1-0.2-0.3-0.2-0.4
		c-0.1-0.1-0.2-0.3-0.3-0.4c-0.4-0.5-0.9-1-1.4-1.4c-1-0.8-2.4-1.4-3.7-1.7c-0.7-0.2-1.3-0.2-2-0.3c-0.3-0.1-0.7,0-1-0.1l-0.1,0l0,0
		l0,0c0,0,0.2,0,0.1,0l-0.2,0l-0.3,0l-0.6,0c-0.3,0-0.5,0-0.8,0c-0.3,0-0.6,0.1-0.9,0.1c-0.6,0.1-1.2,0.1-1.7,0.2
		c-1.1,0.2-2.2,0.5-3.1,0.9c-0.9,0.5-1.6,1.1-2,1.8c-0.4,0.6-0.6,1.2-0.6,1.6C366.9-119.3,366.9-119.1,366.9-119.1L366.9-119.1z
		 M366.4-119.1c0,0,0-0.2,0-0.7c0-0.4,0.1-1.1,0.3-1.9c0.2-0.8,0.6-1.8,1.2-3c0.7-1.1,1.6-2.3,3-3.2c0.7-0.5,1.4-0.9,2.3-1.1
		c0.4-0.2,0.9-0.2,1.3-0.4c0.5-0.1,1-0.2,1.5-0.2l0.6,0l0.3,0l0.1,0l0.3,0c0.5,0,1,0,1.5,0.1c1,0.1,2,0.3,3,0.7
		c1,0.3,1.9,0.8,2.8,1.4c0.9,0.6,1.8,1.3,2.5,2.1c0.8,0.8,1.3,1.9,1.7,3c0.1,0.3,0.2,0.6,0.2,0.9c0.1,0.3,0.1,0.6,0.1,0.9
		c0,0.3,0.1,0.7,0,0.9l0,0.3l0,0.2l0,0.1l0,0l0,0c0,0,0-0.1,0,0.1c-0.4,2.3-1.6,4-3,5.4c-0.7,0.7-1.4,1.3-2.2,1.8
		c-0.8,0.6-1.6,1.1-2.4,1.5c-0.9,0.5-1.7,0.8-2.7,1.1c-0.3,0.1-0.5,0.1-0.7,0.2l-0.6,0.1c-0.6,0.1-1,0.1-1.4,0.1
		c-1.8,0-3.6-0.6-4.9-1.4c-1.4-0.9-2.4-2.1-3-3.2c-0.7-1.1-1-2.1-1.2-3c-0.2-0.8-0.3-1.5-0.3-1.9C366.4-118.8,366.4-119,366.4-119.1
		L366.4-119.1z"/>
</g>
<circle class="st3" cx="377.5" cy="-119.7" r="8.7"/>
<g>
	<path class="st2" d="M374.2-115.5c0,0,0,0,0.1-0.1c0.1-0.1,0-0.2,0.1-0.3c0.1-0.2,0.2-0.6,0.4-0.9c0.1-0.2,0.2-0.4,0.4-0.5
		c0.2-0.2,0.4-0.3,0.6-0.5c0.2-0.2,0.4-0.4,0.5-0.7c0.1-0.3,0-0.6-0.1-0.8c-0.1-0.1-0.1-0.3-0.2-0.4c-0.1-0.1-0.1-0.2-0.2-0.3
		c-0.1-0.2-0.2-0.4-0.4-0.6c-0.3-0.4-0.4-0.8-0.6-1.1c-0.2-0.4-0.3-0.7-0.4-1c-0.1-0.3-0.2-0.4-0.2-0.4l0,0c0,0,0-0.1,0-0.2
		c0,0,0,0,0,0c0,0,0,0,0.2-0.1c0.1,0,0.3,0,0.4,0c0.4,0,0.9,0.2,1.3,0.5c0.5,0.3,0.9,0.8,1.1,1.5c0.1,0.3,0.2,0.7,0.2,1.1
		c0,0.2,0,0.4,0,0.6c0,0.2-0.1,0.3-0.2,0.5c-0.2,0.4-0.3,0.7-0.4,1c-0.1,0.3-0.1,0.6-0.1,1c0,0.4,0,0.7-0.2,1
		c-0.1,0.3-0.3,0.5-0.6,0.7c-0.2,0.2-0.4,0.3-0.7,0.4c-0.2,0.1-0.4,0.1-0.6,0.1c-0.2,0-0.4,0-0.5-0.1c-0.1-0.1-0.1-0.1-0.1-0.1
		C374.1-115.3,374.1-115.4,374.2-115.5C374.1-115.5,374.2-115.5,374.2-115.5z"/>
</g>
<path class="st4" d="M375.2-115.4c0.6,0,2.5-1.8,2.5-3.9s-1.9-3.9-2.5-3.9"/>
<ellipse class="st5" cx="382" cy="251.6" rx="133.1" ry="10.8"/>
<ellipse class="st5" cx="372.8" cy="262.4" rx="133.1" ry="17.3"/>
<path class="st6" d="M219,155.9c28.8,55,86.5,92.6,152.9,92.6c50.3,0,95.6-21.5,127.1-55.9c0,0-91,15-123.9-29.2
	c-24.4-32.8-73.6-51.5-134.7-49C222.6,115.2,213.2,130.2,219,155.9L219,155.9z"/>
<path class="st7" d="M339.1,164.5c2.2,7.3,8.4,8.5,14.9,6.5c6.5-2,11-6.3,8.8-13.7c-6.2-20.4-13.6-25.7-20.1-23.8
	S333.6,146.3,339.1,164.5z"/>
<g>
	<g>
		<path class="st8" d="M359.9,162.2c0.5,0,0.5-0.8,0-0.8C359.5,161.5,359.5,162.2,359.9,162.2L359.9,162.2z"/>
	</g>
</g>
<g>
	<g>
		<path class="st8" d="M354.8,160.6c0.5,0,0.5-0.8,0-0.8C354.3,159.8,354.3,160.6,354.8,160.6L354.8,160.6z"/>
	</g>
</g>
<g>
	<g>
		<path class="st8" d="M345.7,165.8c0.5,0,0.5-0.8,0-0.8C345.2,165.1,345.2,165.8,345.7,165.8L345.7,165.8z"/>
	</g>
</g>
<g>
	<g>
		<path class="st8" d="M341.7,164.5c0.5,0,0.5-0.8,0-0.8C341.2,163.8,341.2,164.5,341.7,164.5L341.7,164.5z"/>
	</g>
</g>
<g>
	<g>
		<path class="st8" d="M340.3,158.5c0.5,0,0.5-0.8,0-0.8C339.8,157.8,339.8,158.5,340.3,158.5L340.3,158.5z"/>
	</g>
</g>
<g>
	<g>
		<path class="st8" d="M340,151.8c0.5,0,0.5-0.8,0-0.8C339.5,151.1,339.5,151.8,340,151.8L340,151.8z"/>
	</g>
</g>
<g>
	<g>
		<path class="st8" d="M338.4,147.7c0.5,0,0.5-0.8,0-0.8C337.9,146.9,337.9,147.7,338.4,147.7L338.4,147.7z"/>
	</g>
</g>
<g>
	<g>
		<path class="st8" d="M347.6,163.8c0.5,0,0.5-0.8,0-0.8C347.1,163.1,347.1,163.8,347.6,163.8L347.6,163.8z"/>
	</g>
</g>
<g>
	<g>
		<path class="st8" d="M345,158.9c0.5,0,0.5-0.8,0-0.8C344.5,158.1,344.5,158.9,345,158.9L345,158.9z"/>
	</g>
</g>
<g>
	<g>
		<path class="st8" d="M352.8,161.2c0.5,0,0.5-0.8,0-0.8C352.4,160.4,352.4,161.2,352.8,161.2L352.8,161.2z"/>
	</g>
</g>
<g>
	<g>
		<path class="st8" d="M349.1,150.1c0.5,0,0.5-0.8,0-0.8C348.7,149.4,348.7,150.1,349.1,150.1L349.1,150.1z"/>
	</g>
</g>
<g>
	<g>
		<path class="st8" d="M350.6,144.3c0.5,0,0.5-0.8,0-0.8C350.1,143.6,350.1,144.3,350.6,144.3L350.6,144.3z"/>
	</g>
</g>
<g>
	<g>
		<path class="st8" d="M351,137.4c0.5,0,0.5-0.8,0-0.8C350.5,136.7,350.5,137.4,351,137.4L351,137.4z"/>
	</g>
</g>
<g>
	<g>
		<path class="st8" d="M347.3,164.3c0.5,0,0.5-0.8,0-0.8C346.9,163.5,346.9,164.3,347.3,164.3L347.3,164.3z"/>
	</g>
</g>
<g>
	<g>
		<path class="st8" d="M350.4,171.6c0.2-0.1,0.4-0.1,0.7-0.2c0.5-0.1,0.3-0.9-0.2-0.7c-0.2,0.1-0.4,0.1-0.7,0.2
			C349.7,171,349.9,171.7,350.4,171.6L350.4,171.6z"/>
	</g>
</g>
<g>
	<g>
		<path class="st8" d="M357.4,163.7c0.4,0.1,0.8,0.2,1.2,0.4c0.5,0.1,0.7-0.6,0.2-0.7c-0.4-0.1-0.8-0.2-1.2-0.4
			C357.2,162.8,357,163.5,357.4,163.7L357.4,163.7z"/>
	</g>
</g>
<g>
	<g>
		<path class="st8" d="M355.8,167.4c0.5,0,0.5-0.8,0-0.8C355.3,166.7,355.3,167.4,355.8,167.4L355.8,167.4z"/>
	</g>
</g>
<g>
	<g>
		<path class="st8" d="M354.8,168.8c0.5,0,0.5-0.8,0-0.8C354.3,168,354.3,168.8,354.8,168.8L354.8,168.8z"/>
	</g>
</g>
<g>
	<g>
		<path class="st8" d="M357.8,165.7c0.5,0,0.5-0.8,0-0.8C357.3,165,357.3,165.7,357.8,165.7L357.8,165.7z"/>
	</g>
</g>
<g>
	<g>
		<path class="st8" d="M351.1,170.3c0.5,0,0.5-0.8,0-0.8C350.6,169.5,350.6,170.3,351.1,170.3L351.1,170.3z"/>
	</g>
</g>
<g>
	<g>
		<path class="st8" d="M355.1,171c0.5,0,0.5-0.8,0-0.8C354.6,170.2,354.6,171,355.1,171L355.1,171z"/>
	</g>
</g>
<g>
	<g>
		<path class="st8" d="M358.8,168.4c0.5,0,0.5-0.8,0-0.8C358.4,167.7,358.4,168.4,358.8,168.4L358.8,168.4z"/>
	</g>
</g>
<g>
	<g>
		<path class="st8" d="M360.7,166.7c0.5,0,0.5-0.8,0-0.8C360.2,165.9,360.2,166.7,360.7,166.7L360.7,166.7z"/>
	</g>
</g>
<g>
	<g>
		<path class="st8" d="M346.9,166.1c0.5,0,0.5-0.8,0-0.8C346.5,165.3,346.5,166.1,346.9,166.1L346.9,166.1z"/>
	</g>
</g>
<g>
	<g>
		<path class="st8" d="M347.4,170.9c0.5,0,0.5-0.8,0-0.8C347,170.1,347,170.9,347.4,170.9L347.4,170.9z"/>
	</g>
</g>
<g>
	<g>
		<path class="st8" d="M341.8,168.8c0.5,0,0.5-0.8,0-0.8C341.3,168,341.3,168.8,341.8,168.8L341.8,168.8z"/>
	</g>
</g>
<g>
	<g>
		<path class="st8" d="M340.3,165.4c0.5,0,0.5-0.8,0-0.8C339.8,164.7,339.8,165.4,340.3,165.4L340.3,165.4z"/>
	</g>
</g>
<g>
	<g>
		<path class="st8" d="M339,163.4c0.5,0,0.5-0.8,0-0.8C338.5,162.7,338.5,163.4,339,163.4L339,163.4z"/>
	</g>
</g>
<g>
	<g>
		<path class="st8" d="M338,160.2c0.5,0,0.5-0.8,0-0.8C337.5,159.4,337.5,160.2,338,160.2L338,160.2z"/>
	</g>
</g>
<path class="st7" d="M402.4,163.7c0,16.2,8.5,22.3,19.1,22.3c10.5,0,19.1-6.1,19.1-22.3c0-45.1-8.5-60.3-19.1-60.3
	C410.9,103.3,402.4,123.5,402.4,163.7z"/>
<g>
	<g>
		<path class="st8" d="M416.3,131.8c0.5,0,0.5-0.8,0-0.8C415.8,131,415.8,131.8,416.3,131.8L416.3,131.8z"/>
	</g>
</g>
<g>
	<g>
		<path class="st8" d="M423.3,125.3c0.5,0,0.5-0.8,0-0.8C422.8,124.5,422.8,125.3,423.3,125.3L423.3,125.3z"/>
	</g>
</g>
<g>
	<g>
		<path class="st8" d="M426.3,117.8c0.5,0,0.5-0.8,0-0.8C425.8,117,425.8,117.8,426.3,117.8L426.3,117.8z"/>
	</g>
</g>
<g>
	<g>
		<path class="st8" d="M428.8,111.8c0.5,0,0.5-0.8,0-0.8C428.3,111,428.3,111.8,428.8,111.8L428.8,111.8z"/>
	</g>
</g>
<g>
	<g>
		<path class="st8" d="M428.3,127.3c0.5,0,0.5-0.8,0-0.8C427.8,126.5,427.8,127.3,428.3,127.3L428.3,127.3z"/>
	</g>
</g>
<g>
	<g>
		<path class="st8" d="M426.8,145.8c0.5,0,0.5-0.8,0-0.8C426.3,145,426.3,145.8,426.8,145.8L426.8,145.8z"/>
	</g>
</g>
<g>
	<g>
		<path class="st8" d="M432.3,150.3c0.5,0,0.5-0.8,0-0.8C431.8,149.5,431.8,150.3,432.3,150.3L432.3,150.3z"/>
	</g>
</g>
<g>
	<g>
		<path class="st8" d="M433.8,140.3c0.5,0,0.5-0.8,0-0.8C433.3,139.5,433.3,140.3,433.8,140.3L433.8,140.3z"/>
	</g>
</g>
<g>
	<g>
		<path class="st8" d="M434.3,159.3c0.5,0,0.5-0.8,0-0.8C433.8,158.5,433.8,159.3,434.3,159.3L434.3,159.3z"/>
	</g>
</g>
<g>
	<g>
		<path class="st8" d="M432.8,172.8c0.5,0,0.5-0.8,0-0.8C432.3,172,432.3,172.8,432.8,172.8L432.8,172.8z"/>
	</g>
</g>
<g>
	<g>
		<path class="st8" d="M426.3,164.8c0.5,0,0.5-0.8,0-0.8C425.8,164,425.8,164.8,426.3,164.8L426.3,164.8z"/>
	</g>
</g>
<g>
	<g>
		<path class="st8" d="M427.3,161.3c0.5,0,0.5-0.8,0-0.8C426.8,160.5,426.8,161.3,427.3,161.3L427.3,161.3z"/>
	</g>
</g>
<g>
	<g>
		<path class="st8" d="M431.8,157.8c0.5,0,0.5-0.8,0-0.8C431.3,157,431.3,157.8,431.8,157.8L431.8,157.8z"/>
	</g>
</g>
<g>
	<g>
		<path class="st8" d="M426.8,151.8c0.5,0,0.5-0.8,0-0.8C426.3,151,426.3,151.8,426.8,151.8L426.8,151.8z"/>
	</g>
</g>
<g>
	<g>
		<path class="st8" d="M420.8,160.8c0.5,0,0.5-0.8,0-0.8C420.3,160,420.3,160.8,420.8,160.8L420.8,160.8z"/>
	</g>
</g>
<g>
	<g>
		<path class="st8" d="M424.3,167.8c0.5,0,0.5-0.8,0-0.8C423.8,167,423.8,167.8,424.3,167.8L424.3,167.8z"/>
	</g>
</g>
<g>
	<g>
		<path class="st8" d="M415.3,146.3c0.5,0,0.5-0.8,0-0.8C414.8,145.5,414.8,146.3,415.3,146.3L415.3,146.3z"/>
	</g>
</g>
<g>
	<g>
		<path class="st8" d="M423.8,143.3c0.5,0,0.5-0.8,0-0.8C423.3,142.5,423.3,143.3,423.8,143.3L423.8,143.3z"/>
	</g>
</g>
<g>
	<g>
		<path class="st8" d="M419.8,164.8c0.5,0,0.5-0.8,0-0.8C419.3,164,419.3,164.8,419.8,164.8L419.8,164.8z"/>
	</g>
</g>
<g>
	<g>
		<path class="st8" d="M423.3,174.3c0.5,0,0.5-0.8,0-0.8C422.8,173.5,422.8,174.3,423.3,174.3L423.3,174.3z"/>
	</g>
</g>
<g>
	<g>
		<path class="st8" d="M424.8,179.3c0.5,0,0.5-0.8,0-0.8C424.3,178.5,424.3,179.3,424.8,179.3L424.8,179.3z"/>
	</g>
</g>
<g>
	<g>
		<path class="st8" d="M414.3,141.8c0.5,0,0.5-0.8,0-0.8C413.8,141,413.8,141.8,414.3,141.8L414.3,141.8z"/>
	</g>
</g>
<g>
	<g>
		<path class="st8" d="M420.8,169.8c0.5,0,0.5-0.8,0-0.8C420.3,169,420.3,169.8,420.8,169.8L420.8,169.8z"/>
	</g>
</g>
<g>
	<g>
		<path class="st8" d="M421.3,167.3c0.5,0,0.5-0.8,0-0.8C420.8,166.5,420.8,167.3,421.3,167.3L421.3,167.3z"/>
	</g>
</g>
<g>
	<g>
		<path class="st8" d="M432.8,165.3c0.5,0,0.5-0.8,0-0.8C432.3,164.5,432.3,165.3,432.8,165.3L432.8,165.3z"/>
	</g>
</g>
<g>
	<g>
		<path class="st8" d="M433.8,160.3c0.5,0,0.5-0.8,0-0.8C433.3,159.5,433.3,160.3,433.8,160.3L433.8,160.3z"/>
	</g>
</g>
<g>
	<g>
		<path class="st8" d="M437.3,171.3c0.5,0,0.5-0.8,0-0.8C436.8,170.5,436.8,171.3,437.3,171.3L437.3,171.3z"/>
	</g>
</g>
<g>
	<g>
		<path class="st8" d="M435.3,175.8c0.5,0,0.5-0.8,0-0.8C434.8,175,434.8,175.8,435.3,175.8L435.3,175.8z"/>
	</g>
</g>
<g>
	<g>
		<path class="st8" d="M430.3,178.3c0.5,0,0.5-0.8,0-0.8C429.8,177.5,429.8,178.3,430.3,178.3L430.3,178.3z"/>
	</g>
</g>
<g>
	<g>
		<path class="st8" d="M429.8,160.3c0.5,0,0.5-0.8,0-0.8C429.3,159.5,429.3,160.3,429.8,160.3L429.8,160.3z"/>
	</g>
</g>
<g>
	<g>
		<path class="st8" d="M434.3,148.3c0.5,0,0.5-0.8,0-0.8C433.8,147.5,433.8,148.3,434.3,148.3L434.3,148.3z"/>
	</g>
</g>
<g>
	<g>
		<path class="st8" d="M435.8,139.3c0.5,0,0.5-0.8,0-0.8C435.3,138.5,435.3,139.3,435.8,139.3L435.8,139.3z"/>
	</g>
</g>
<g>
	<g>
		<path class="st8" d="M433.3,132.3c0.5,0,0.5-0.8,0-0.8C432.8,131.5,432.8,132.3,433.3,132.3L433.3,132.3z"/>
	</g>
</g>
<g>
	<g>
		<path class="st8" d="M433.3,126.8c0.5,0,0.5-0.8,0-0.8C432.8,126,432.8,126.8,433.3,126.8L433.3,126.8z"/>
	</g>
</g>
<g>
	<g>
		<path class="st8" d="M420.4,169.8c0.5,0,0.5-0.8,0-0.8C420,169,420,169.8,420.4,169.8L420.4,169.8z"/>
	</g>
</g>
<g>
	<g>
		<path class="st8" d="M417.1,171.1c0.5,0,0.5-0.8,0-0.8C416.6,170.4,416.6,171.1,417.1,171.1L417.1,171.1z"/>
	</g>
</g>
<g>
	<g>
		<path class="st8" d="M420.4,179.1c0.5,0,0.5-0.8,0-0.8C420,178.4,420,179.1,420.4,179.1L420.4,179.1z"/>
	</g>
</g>
<g>
	<g>
		<path class="st8" d="M419.8,184.1c0.5,0,0.5-0.8,0-0.8C419.3,183.4,419.3,184.1,419.8,184.1L419.8,184.1z"/>
	</g>
</g>
<g>
	<g>
		<path class="st8" d="M427.8,181.8c0.5,0,0.5-0.8,0-0.8C427.3,181,427.3,181.8,427.8,181.8L427.8,181.8z"/>
	</g>
</g>
<g>
	<g>
		<path class="st8" d="M432.4,178.4c0.5,0,0.5-0.8,0-0.8C432,177.7,432,178.4,432.4,178.4L432.4,178.4z"/>
	</g>
</g>
<g>
	<g>
		<path class="st8" d="M435.1,170.1c0.5,0,0.5-0.8,0-0.8C434.6,169.4,434.6,170.1,435.1,170.1L435.1,170.1z"/>
	</g>
</g>
<g>
	<g>
		<path class="st8" d="M431.4,166.8c0.5,0,0.5-0.8,0-0.8C431,166,431,166.8,431.4,166.8L431.4,166.8z"/>
	</g>
</g>
<g>
	<g>
		<path class="st8" d="M430.1,170.8c0.5,0,0.5-0.8,0-0.8C429.6,170,429.6,170.8,430.1,170.8L430.1,170.8z"/>
	</g>
</g>
<g>
	<g>
		<path class="st8" d="M437.1,168.4c0.5,0,0.5-0.8,0-0.8C436.6,167.7,436.6,168.4,437.1,168.4L437.1,168.4z"/>
	</g>
</g>
<g>
	<g>
		<path class="st8" d="M438.8,172.1c0.5,0,0.5-0.8,0-0.8C438.3,171.4,438.3,172.1,438.8,172.1L438.8,172.1z"/>
	</g>
</g>
<g>
	<g>
		<path class="st8" d="M435.4,176.4c0.5,0,0.5-0.8,0-0.8C435,175.7,435,176.4,435.4,176.4L435.4,176.4z"/>
	</g>
</g>
<g>
	<g>
		<path class="st8" d="M437.1,173.4c0.5,0,0.5-0.8,0-0.8C436.6,172.7,436.6,173.4,437.1,173.4L437.1,173.4z"/>
	</g>
</g>
<g>
	<g>
		<path class="st8" d="M433.4,172.4c0.5,0,0.5-0.8,0-0.8C433,171.7,433,172.4,433.4,172.4L433.4,172.4z"/>
	</g>
</g>
<path class="st9" d="M351.3,152.7c0,28.2,14.6,38.8,32.7,38.8c18,0,32.7-10.6,32.7-38.8S402,47.7,384,47.7
	C365.9,47.7,351.3,124.5,351.3,152.7z"/>
<g>
	<g>
		<path class="st8" d="M361.5,99.7c0.5,0,0.5-0.8,0-0.8C361,99,361,99.7,361.5,99.7L361.5,99.7z"/>
	</g>
</g>
<g>
	<g>
		<path class="st8" d="M365.5,95.2c0.5,0,0.5-0.8,0-0.8C365,94.5,365,95.2,365.5,95.2L365.5,95.2z"/>
	</g>
</g>
<g>
	<g>
		<path class="st8" d="M364.5,100.7c0.5,0,0.5-0.8,0-0.8C364,100,364,100.7,364.5,100.7L364.5,100.7z"/>
	</g>
</g>
<g>
	<g>
		<path class="st8" d="M361.5,109.2c0.5,0,0.5-0.8,0-0.8C361,108.5,361,109.2,361.5,109.2L361.5,109.2z"/>
	</g>
</g>
<g>
	<g>
		<path class="st8" d="M360.5,104.7c0.5,0,0.5-0.8,0-0.8C360,104,360,104.7,360.5,104.7L360.5,104.7z"/>
	</g>
</g>
<g>
	<g>
		<path class="st8" d="M367.5,104.7c0.5,0,0.5-0.8,0-0.8C367,104,367,104.7,367.5,104.7L367.5,104.7z"/>
	</g>
</g>
<g>
	<g>
		<path class="st8" d="M370,90.7c0.5,0,0.5-0.8,0-0.8C369.5,90,369.5,90.7,370,90.7L370,90.7z"/>
	</g>
</g>
<g>
	<g>
		<path class="st8" d="M372,86.7c0.5,0,0.5-0.8,0-0.8C371.5,86,371.5,86.7,372,86.7L372,86.7z"/>
	</g>
</g>
<g>
	<g>
		<path class="st8" d="M370.5,68.7c0.5,0,0.5-0.8,0-0.8C370,68,370,68.7,370.5,68.7L370.5,68.7z"/>
	</g>
</g>
<g>
	<g>
		<path class="st8" d="M366,75.2c0.5,0,0.5-0.8,0-0.8C365.5,74.5,365.5,75.2,366,75.2L366,75.2z"/>
	</g>
</g>
<g>
	<g>
		<path class="st8" d="M367,83.2c0.5,0,0.5-0.8,0-0.8C366.5,82.5,366.5,83.2,367,83.2L367,83.2z"/>
	</g>
</g>
<g>
	<g>
		<path class="st8" d="M369,78.7c0.5,0,0.5-0.8,0-0.8C368.5,78,368.5,78.7,369,78.7L369,78.7z"/>
	</g>
</g>
<g>
	<g>
		<path class="st8" d="M369,74.7c0.5,0,0.5-0.8,0-0.8C368.5,74,368.5,74.7,369,74.7L369,74.7z"/>
	</g>
</g>
<g>
	<g>
		<path class="st8" d="M369,94.2c0.5,0,0.5-0.8,0-0.8C368.5,93.5,368.5,94.2,369,94.2L369,94.2z"/>
	</g>
</g>
<g>
	<g>
		<path class="st8" d="M367.5,110.7c0.5,0,0.5-0.8,0-0.8C367,110,367,110.7,367.5,110.7L367.5,110.7z"/>
	</g>
</g>
<g>
	<g>
		<path class="st8" d="M361,118.2c0.5,0,0.5-0.8,0-0.8C360.5,117.5,360.5,118.2,361,118.2L361,118.2z"/>
	</g>
</g>
<g>
	<g>
		<path class="st8" d="M357.5,122.7c0.5,0,0.5-0.8,0-0.8C357,122,357,122.7,357.5,122.7L357.5,122.7z"/>
	</g>
</g>
<g>
	<g>
		<path class="st8" d="M355,132.7c0.5,0,0.5-0.8,0-0.8C354.5,132,354.5,132.7,355,132.7L355,132.7z"/>
	</g>
</g>
<g>
	<g>
		<path class="st8" d="M356.5,140.7c0.5,0,0.5-0.8,0-0.8C356,140,356,140.7,356.5,140.7L356.5,140.7z"/>
	</g>
</g>
<g>
	<g>
		<path class="st8" d="M363.5,145.7c0.5,0,0.5-0.8,0-0.8C363,145,363,145.7,363.5,145.7L363.5,145.7z"/>
	</g>
</g>
<g>
	<g>
		<path class="st8" d="M361,149.2c0.5,0,0.5-0.8,0-0.8C360.5,148.5,360.5,149.2,361,149.2L361,149.2z"/>
	</g>
</g>
<g>
	<g>
		<path class="st8" d="M358.5,166.2c0.5,0,0.5-0.8,0-0.8C358,165.5,358,166.2,358.5,166.2L358.5,166.2z"/>
	</g>
</g>
<g>
	<g>
		<path class="st8" d="M360.5,172.2c0.5,0,0.5-0.8,0-0.8C360,171.5,360,172.2,360.5,172.2L360.5,172.2z"/>
	</g>
</g>
<g>
	<g>
		<path class="st8" d="M366,177.7c0.5,0,0.5-0.8,0-0.8C365.5,177,365.5,177.7,366,177.7L366,177.7z"/>
	</g>
</g>
<g>
	<g>
		<path class="st8" d="M370,172.2c0.5,0,0.5-0.8,0-0.8C369.5,171.5,369.5,172.2,370,172.2L370,172.2z"/>
	</g>
</g>
<g>
	<g>
		<path class="st8" d="M370,170.2c0.5,0,0.5-0.8,0-0.8C369.5,169.5,369.5,170.2,370,170.2L370,170.2z"/>
	</g>
</g>
<g>
	<g>
		<path class="st8" d="M361.5,161.2c0.5,0,0.5-0.8,0-0.8C361,160.5,361,161.2,361.5,161.2L361.5,161.2z"/>
	</g>
</g>
<g>
	<g>
		<path class="st8" d="M366,158.7c0.5,0,0.5-0.8,0-0.8C365.5,158,365.5,158.7,366,158.7L366,158.7z"/>
	</g>
</g>
<g>
	<g>
		<path class="st8" d="M368.5,165.7c0.5,0,0.5-0.8,0-0.8C368,165,368,165.7,368.5,165.7L368.5,165.7z"/>
	</g>
</g>
<g>
	<g>
		<path class="st8" d="M365,167.2c0.5,0,0.5-0.8,0-0.8C364.5,166.5,364.5,167.2,365,167.2L365,167.2z"/>
	</g>
</g>
<g>
	<g>
		<path class="st8" d="M363,171.2c0.5,0,0.5-0.8,0-0.8C362.5,170.5,362.5,171.2,363,171.2L363,171.2z"/>
	</g>
</g>
<g>
	<g>
		<path class="st8" d="M370,157.7c0.5,0,0.5-0.8,0-0.8C369.5,157,369.5,157.7,370,157.7L370,157.7z"/>
	</g>
</g>
<g>
	<g>
		<path class="st8" d="M371.5,149.2c0.5,0,0.5-0.8,0-0.8C371,148.5,371,149.2,371.5,149.2L371.5,149.2z"/>
	</g>
</g>
<g>
	<g>
		<path class="st8" d="M368.5,139.2c0.5,0,0.5-0.8,0-0.8C368,138.5,368,139.2,368.5,139.2L368.5,139.2z"/>
	</g>
</g>
<g>
	<g>
		<path class="st8" d="M369,130.7c0.5,0,0.5-0.8,0-0.8C368.5,130,368.5,130.7,369,130.7L369,130.7z"/>
	</g>
</g>
<g>
	<g>
		<path class="st8" d="M362.5,130.7c0.5,0,0.5-0.8,0-0.8C362,130,362,130.7,362.5,130.7L362.5,130.7z"/>
	</g>
</g>
<g>
	<g>
		<path class="st8" d="M361.5,138.7c0.5,0,0.5-0.8,0-0.8C361,138,361,138.7,361.5,138.7L361.5,138.7z"/>
	</g>
</g>
<g>
	<g>
		<path class="st8" d="M353.5,151.2c0.5,0,0.5-0.8,0-0.8C353,150.5,353,151.2,353.5,151.2L353.5,151.2z"/>
	</g>
</g>
<g>
	<g>
		<path class="st8" d="M354,160.7c0.5,0,0.5-0.8,0-0.8C353.5,160,353.5,160.7,354,160.7L354,160.7z"/>
	</g>
</g>
<g>
	<g>
		<path class="st8" d="M358,173.2c0.5,0,0.5-0.8,0-0.8C357.5,172.5,357.5,173.2,358,173.2L358,173.2z"/>
	</g>
</g>
<g>
	<g>
		<path class="st8" d="M363,183.2c0.5,0,0.5-0.8,0-0.8C362.5,182.5,362.5,183.2,363,183.2L363,183.2z"/>
	</g>
</g>
<g>
	<g>
		<path class="st8" d="M370.5,186.2c0.5,0,0.5-0.8,0-0.8C370,185.5,370,186.2,370.5,186.2L370.5,186.2z"/>
	</g>
</g>
<g>
	<g>
		<path class="st8" d="M376.5,175.2c0.5,0,0.5-0.8,0-0.8C376,174.5,376,175.2,376.5,175.2L376.5,175.2z"/>
	</g>
</g>
<g>
	<g>
		<path class="st8" d="M381,163.2c0.5,0,0.5-0.8,0-0.8C380.5,162.5,380.5,163.2,381,163.2L381,163.2z"/>
	</g>
</g>
<g>
	<g>
		<path class="st8" d="M380.5,145.2c0.5,0,0.5-0.8,0-0.8C380,144.5,380,145.2,380.5,145.2L380.5,145.2z"/>
	</g>
</g>
<g>
	<g>
		<path class="st8" d="M374,138.2c0.5,0,0.5-0.8,0-0.8C373.5,137.5,373.5,138.2,374,138.2L374,138.2z"/>
	</g>
</g>
<g>
	<g>
		<path class="st8" d="M372.5,154.2c0.5,0,0.5-0.8,0-0.8C372,153.5,372,154.2,372.5,154.2L372.5,154.2z"/>
	</g>
</g>
<g>
	<g>
		<path class="st8" d="M364,150.2c0.5,0,0.5-0.8,0-0.8C363.5,149.5,363.5,150.2,364,150.2L364,150.2z"/>
	</g>
</g>
<g>
	<g>
		<path class="st8" d="M366.5,162.2c0.5,0,0.5-0.8,0-0.8C366,161.5,366,162.2,366.5,162.2L366.5,162.2z"/>
	</g>
</g>
<g>
	<g>
		<path class="st8" d="M378.5,164.2c0.5,0,0.5-0.8,0-0.8C378,163.5,378,164.2,378.5,164.2L378.5,164.2z"/>
	</g>
</g>
<g>
	<g>
		<path class="st8" d="M382.5,170.2c0.5,0,0.5-0.8,0-0.8C382,169.5,382,170.2,382.5,170.2L382.5,170.2z"/>
	</g>
</g>
<g>
	<g>
		<path class="st8" d="M373,181.7c0.5,0,0.5-0.8,0-0.8C372.5,181,372.5,181.7,373,181.7L373,181.7z"/>
	</g>
</g>
<g>
	<g>
		<path class="st8" d="M384,174.7c0.5,0,0.5-0.8,0-0.8C383.5,174,383.5,174.7,384,174.7L384,174.7z"/>
	</g>
</g>
<g>
	<g>
		<path class="st8" d="M375,163.7c0.5,0,0.5-0.8,0-0.8C374.5,163,374.5,163.7,375,163.7L375,163.7z"/>
	</g>
</g>
<g>
	<g>
		<path class="st8" d="M373.5,173.7c0.5,0,0.5-0.8,0-0.8C373,173,373,173.7,373.5,173.7L373.5,173.7z"/>
	</g>
</g>
<g>
	<g>
		<path class="st8" d="M381,162.2c0.5,0,0.5-0.8,0-0.8C380.5,161.5,380.5,162.2,381,162.2L381,162.2z"/>
	</g>
</g>
<g>
	<g>
		<path class="st8" d="M381.5,154.2c0.5,0,0.5-0.8,0-0.8C381,153.5,381,154.2,381.5,154.2L381.5,154.2z"/>
	</g>
</g>
<g>
	<g>
		<path class="st8" d="M382.5,152.2c0.5,0,0.5-0.8,0-0.8C382,151.5,382,152.2,382.5,152.2L382.5,152.2z"/>
	</g>
</g>
<g>
	<g>
		<path class="st8" d="M388,155.2c0.5,0,0.5-0.8,0-0.8C387.5,154.5,387.5,155.2,388,155.2L388,155.2z"/>
	</g>
</g>
<g>
	<g>
		<path class="st8" d="M388,173.7c0.5,0,0.5-0.8,0-0.8C387.5,173,387.5,173.7,388,173.7L388,173.7z"/>
	</g>
</g>
<g>
	<g>
		<path class="st8" d="M378,178.2c0.5,0,0.5-0.8,0-0.8C377.5,177.5,377.5,178.2,378,178.2L378,178.2z"/>
	</g>
</g>
<g>
	<g>
		<path class="st8" d="M393,192.2c0.5,0,0.5-0.8,0-0.8C392.5,191.5,392.5,192.2,393,192.2L393,192.2z"/>
	</g>
</g>
<g>
	<g>
		<path class="st8" d="M376.5,191.7c0.5,0,0.5-0.8,0-0.8C376,191,376,191.7,376.5,191.7L376.5,191.7z"/>
	</g>
</g>
<g>
	<g>
		<path class="st8" d="M372.5,183.7c0.5,0,0.5-0.8,0-0.8C372,183,372,183.7,372.5,183.7L372.5,183.7z"/>
	</g>
</g>
<g>
	<g>
		<path class="st8" d="M376.5,185.7c0.5,0,0.5-0.8,0-0.8C376,185,376,185.7,376.5,185.7L376.5,185.7z"/>
	</g>
</g>
<g>
	<g>
		<path class="st8" d="M381,187.2c0.5,0,0.5-0.8,0-0.8C380.5,186.5,380.5,187.2,381,187.2L381,187.2z"/>
	</g>
</g>
<g>
	<g>
		<path class="st8" d="M355,172.7c0.5,0,0.5-0.8,0-0.8C354.5,172,354.5,172.7,355,172.7L355,172.7z"/>
	</g>
</g>
<g>
	<g>
		<path class="st8" d="M353,161.7c0.5,0,0.5-0.8,0-0.8C352.5,161,352.5,161.7,353,161.7L353,161.7z"/>
	</g>
</g>
<g>
	<g>
		<path class="st8" d="M356,151.2c0.5,0,0.5-0.8,0-0.8C355.5,150.5,355.5,151.2,356,151.2L356,151.2z"/>
	</g>
</g>
<g>
	<g>
		<path class="st8" d="M359.5,156.7c0.5,0,0.5-0.8,0-0.8C359,156,359,156.7,359.5,156.7L359.5,156.7z"/>
	</g>
</g>
<g>
	<g>
		<path class="st8" d="M356,158.7c0.5,0,0.5-0.8,0-0.8C355.5,158,355.5,158.7,356,158.7L356,158.7z"/>
	</g>
</g>
<g>
	<g>
		<path class="st8" d="M358,139.2c0.5,0,0.5-0.8,0-0.8C357.5,138.5,357.5,139.2,358,139.2L358,139.2z"/>
	</g>
</g>
<g>
	<g>
		<path class="st8" d="M365.5,160.2c0.5,0,0.5-0.8,0-0.8C365,159.5,365,160.2,365.5,160.2L365.5,160.2z"/>
	</g>
</g>
<g>
	<g>
		<path class="st8" d="M356.5,148.7c0.5,0,0.5-0.8,0-0.8C356,148,356,148.7,356.5,148.7L356.5,148.7z"/>
	</g>
</g>
<g>
	<g>
		<path class="st8" d="M353.5,144.2c0.5,0,0.5-0.8,0-0.8C353,143.5,353,144.2,353.5,144.2L353.5,144.2z"/>
	</g>
</g>
<g>
	<g>
		<path class="st8" d="M404.5,163.7c0.5,0,0.5-0.8,0-0.8C404,163,404,163.7,404.5,163.7L404.5,163.7z"/>
	</g>
</g>
<g>
	<g>
		<path class="st8" d="M407.5,172.2c0.5,0,0.5-0.8,0-0.8C407,171.5,407,172.2,407.5,172.2L407.5,172.2z"/>
	</g>
</g>
<g>
	<g>
		<path class="st8" d="M400,184.7c0.5,0,0.5-0.8,0-0.8C399.5,184,399.5,184.7,400,184.7L400,184.7z"/>
	</g>
</g>
<g>
	<g>
		<path class="st8" d="M376,192.2c0.5,0,0.5-0.8,0-0.8C375.5,191.5,375.5,192.2,376,192.2L376,192.2z"/>
	</g>
</g>
<g>
	<g>
		<path class="st8" d="M376.5,164.7c0.5,0,0.5-0.8,0-0.8C376,164,376,164.7,376.5,164.7L376.5,164.7z"/>
	</g>
</g>
<g>
	<g>
		<path class="st8" d="M374,147.7c0.5,0,0.5-0.8,0-0.8C373.5,147,373.5,147.7,374,147.7L374,147.7z"/>
	</g>
</g>
<g>
	<g>
		<path class="st8" d="M377,139.7c0.5,0,0.5-0.8,0-0.8C376.5,139,376.5,139.7,377,139.7L377,139.7z"/>
	</g>
</g>
<g>
	<g>
		<path class="st8" d="M378,126.2c0.5,0,0.5-0.8,0-0.8C377.5,125.5,377.5,126.2,378,126.2L378,126.2z"/>
	</g>
</g>
<g>
	<g>
		<path class="st8" d="M379.5,113.2c0.5,0,0.5-0.8,0-0.8C379,112.5,379,113.2,379.5,113.2L379.5,113.2z"/>
	</g>
</g>
<g>
	<g>
		<path class="st8" d="M380,96.2c0.5,0,0.5-0.8,0-0.8C379.5,95.5,379.5,96.2,380,96.2L380,96.2z"/>
	</g>
</g>
<g>
	<g>
		<path class="st8" d="M399.5,137.7c0.5,0,0.5-0.8,0-0.8C399,137,399,137.7,399.5,137.7L399.5,137.7z"/>
	</g>
</g>
<g>
	<g>
		<path class="st8" d="M399.5,120.2c0.5,0,0.5-0.8,0-0.8C399,119.5,399,120.2,399.5,120.2L399.5,120.2z"/>
	</g>
</g>
<g>
	<g>
		<path class="st8" d="M391.5,132.7c0.5,0,0.5-0.8,0-0.8C391,132,391,132.7,391.5,132.7L391.5,132.7z"/>
	</g>
</g>
<g>
	<g>
		<path class="st8" d="M409,151.7c0.5,0,0.5-0.8,0-0.8C408.5,151,408.5,151.7,409,151.7L409,151.7z"/>
	</g>
</g>
<g>
	<g>
		<path class="st8" d="M405.5,112.7c0.5,0,0.5-0.8,0-0.8C405,112,405,112.7,405.5,112.7L405.5,112.7z"/>
	</g>
</g>
<g>
	<g>
		<path class="st8" d="M411,130.7c0.5,0,0.5-0.8,0-0.8C410.5,130,410.5,130.7,411,130.7L411,130.7z"/>
	</g>
</g>
<g>
	<g>
		<path class="st8" d="M400,149.7c0.5,0,0.5-0.8,0-0.8C399.5,149,399.5,149.7,400,149.7L400,149.7z"/>
	</g>
</g>
<g>
	<g>
		<path class="st8" d="M354,164.2c0.5,0,0.5-0.8,0-0.8C353.5,163.5,353.5,164.2,354,164.2L354,164.2z"/>
	</g>
</g>
<g>
	<g>
		<path class="st8" d="M361,173.2c0.5,0,0.5-0.8,0-0.8C360.5,172.5,360.5,173.2,361,173.2L361,173.2z"/>
	</g>
</g>
<g>
	<g>
		<path class="st8" d="M365,181.2c0.5,0,0.5-0.8,0-0.8C364.5,180.5,364.5,181.2,365,181.2L365,181.2z"/>
	</g>
</g>
<g>
	<g>
		<path class="st8" d="M358,178.2c0.5,0,0.5-0.8,0-0.8C357.5,177.5,357.5,178.2,358,178.2L358,178.2z"/>
	</g>
</g>
<g>
	<g>
		<path class="st8" d="M369.5,183.2c0.5,0,0.5-0.8,0-0.8C369,182.5,369,183.2,369.5,183.2L369.5,183.2z"/>
	</g>
</g>
<g>
	<g>
		<path class="st8" d="M378,187.7c0.5,0,0.5-0.8,0-0.8C377.5,187,377.5,187.7,378,187.7L378,187.7z"/>
	</g>
</g>
<g>
	<g>
		<path class="st8" d="M390,188.7c0.5,0,0.5-0.8,0-0.8C389.5,188,389.5,188.7,390,188.7L390,188.7z"/>
	</g>
</g>
<g>
	<g>
		<path class="st8" d="M364.9,139c0.5,0,0.5-0.8,0-0.8C364.4,138.3,364.4,139,364.9,139L364.9,139z"/>
	</g>
</g>
<g>
	<g>
		<path class="st8" d="M366.5,147c0.5,0,0.5-0.8,0-0.8C366,146.3,366,147,366.5,147L366.5,147z"/>
	</g>
</g>
<g>
	<g>
		<path class="st8" d="M383.2,180c0.5,0,0.5-0.8,0-0.8C382.7,179.3,382.7,180,383.2,180L383.2,180z"/>
	</g>
</g>
<g>
	<g>
		<path class="st8" d="M377.5,183.7c0.5,0,0.5-0.8,0-0.8C377,183,377,183.7,377.5,183.7L377.5,183.7z"/>
	</g>
</g>
<g>
	<g>
		<path class="st8" d="M383.5,187c0.5,0,0.5-0.8,0-0.8C383,186.3,383,187,383.5,187L383.5,187z"/>
	</g>
</g>
<g>
	<g>
		<path class="st8" d="M394.2,188.7c0.5,0,0.5-0.8,0-0.8C393.7,188,393.7,188.7,394.2,188.7L394.2,188.7z"/>
	</g>
</g>
<g>
	<g>
		<path class="st8" d="M383.2,189.7c0.5,0,0.5-0.8,0-0.8C382.7,189,382.7,189.7,383.2,189.7L383.2,189.7z"/>
	</g>
</g>
<g>
	<g>
		<path class="st8" d="M374.2,189.4c0.5,0,0.5-0.8,0-0.8C373.7,188.6,373.7,189.4,374.2,189.4L374.2,189.4z"/>
	</g>
</g>
<g>
	<g>
		<path class="st8" d="M365.2,185.7c0.5,0,0.5-0.8,0-0.8C364.7,185,364.7,185.7,365.2,185.7L365.2,185.7z"/>
	</g>
</g>
<g>
	<g>
		<path class="st8" d="M371.2,189.4c0.5,0,0.5-0.8,0-0.8C370.7,188.6,370.7,189.4,371.2,189.4L371.2,189.4z"/>
	</g>
</g>
<path class="st10" d="M525.8,155.9c-28.8,55-86.5,92.6-152.9,92.6c-50.3,0-95.6-21.5-127.1-55.9c0,0,39.5,21.1,95.2,12.7
	c40.4-6.1,92-62.6,109.5-59c17.5,3.6,56.5,15.9,66,12.6L525.8,155.9z"/>
<g>
	<path class="st11" d="M456.8,131.8c0,4.1,3.3,13.9,7.4,13.9c4.1,0,7.4-9.9,7.4-13.9s-3.3-7.4-7.4-7.4
		C460.1,124.4,456.8,127.7,456.8,131.8z"/>
	<path class="st11" d="M454,145.3c3.1,0.7,11.1,0,11.9-3.1c0.7-3.1-6.1-7.3-9.2-8.1c-3.1-0.7-6.2,1.2-6.9,4.3S451,144.6,454,145.3z"
		/>
	<path class="st11" d="M475.5,137.9c-3,0.7-9.8,4.9-9.1,7.9c0.7,3,8.6,3.7,11.7,3s4.9-3.8,4.2-6.8
		C481.6,139.1,478.5,137.2,475.5,137.9z"/>
	<path class="st11" d="M476.5,145.9c-2.7-1.6-10.5-3.2-12-0.6c-1.6,2.7,3.6,8.7,6.3,10.3c2.7,1.6,6.1,0.7,7.7-2
		C480.1,150.9,479.2,147.5,476.5,145.9z"/>
	<path class="st11" d="M467.7,152c-0.6-1.9-3.7-5.9-5.6-5.3c-1.9,0.6-1.9,5.7-1.2,7.6c0.6,1.9,2.7,2.9,4.5,2.2
		C467.3,156,468.3,153.9,467.7,152z"/>
</g>
<g>
	<path class="st11" d="M479.1,178c3.1,2.6,12.8,6.4,15.4,3.3c2.6-3.1-2.8-12-5.9-14.6s-7.8-2.2-10.4,0.9
		C475.6,170.7,476,175.3,479.1,178z"/>
	<path class="st11" d="M487.7,188.7c2.5-1.9,7.1-8.5,5.3-11.1c-1.9-2.5-9.6,0-12.1,1.9c-2.5,1.9-3.1,5.5-1.2,8
		S485.2,190.6,487.7,188.7z"/>
	<path class="st11" d="M495.8,167.5c-1.4,2.8-2.5,10.6,0.3,12c2.8,1.4,8.4-4.2,9.8-7c1.4-2.8,0.3-6.2-2.5-7.6
		C500.6,163.6,497.2,164.8,495.8,167.5z"/>
	<path class="st11" d="M502.6,171.9c-2.9,1-9.2,5.9-8.2,8.9c1,2.9,9,2.8,11.9,1.8c2.9-1,4.5-4.3,3.4-7.2
		C508.7,172.4,505.5,170.9,502.6,171.9z"/>
	<path class="st11" d="M501.6,182.6c-1.8-0.7-6.9-1-7.6,0.9c-0.7,1.8,3.2,5.1,5,5.8c1.8,0.7,3.9-0.2,4.6-2S503.5,183.3,501.6,182.6z
		"/>
</g>
<g>
	<path class="st11" d="M473.7,153.2c-4.1,0.2-13.8,3.9-13.6,8c0.2,4.1,10.2,6.9,14.3,6.7s7.2-3.6,7-7.7
		C481.2,156.1,477.7,153,473.7,153.2z"/>
	<path class="st11" d="M460,151.1c-0.6,3.1,0.5,11.1,3.6,11.7c3.1,0.6,7-6.5,7.6-9.6c0.6-3.1-1.5-6.1-4.6-6.7S460.6,148,460,151.1z"
		/>
	<path class="st11" d="M468.4,172.2c-0.9-3-5.4-9.5-8.4-8.7s-3.3,8.8-2.5,11.8c0.9,3,4,4.7,7,3.9S469.3,175.2,468.4,172.2z"/>
	<path class="st11" d="M460.5,173.5c1.5-2.8,2.7-10.6,0-12c-2.8-1.5-8.5,4-10,6.8c-1.5,2.8-0.4,6.2,2.3,7.6
		C455.6,177.3,459,176.3,460.5,173.5z"/>
	<path class="st11" d="M453.9,165c1.8-0.7,5.7-4,5-5.8c-0.7-1.8-5.8-1.6-7.6-0.9s-2.7,2.8-2,4.6C450,164.9,452.1,165.8,453.9,165z"
		/>
</g>
<g>
	<path class="st11" d="M459.1,218.6c1.5-3.8,2.1-14.2-1.7-15.7c-3.8-1.5-10.5,6.4-12,10.2c-1.5,3.8,0.3,8.1,4.1,9.6
		C453.3,224.2,457.5,222.4,459.1,218.6z"/>
	<path class="st11" d="M484.2,197.7c-2.6-1.8-10.3-4.1-12.2-1.5c-1.8,2.6,3,9.1,5.6,10.9s6.2,1.2,8-1.4
		C487.5,203.1,486.8,199.5,484.2,197.7z"/>
	<path class="st11" d="M461.6,196.6c3.1,0.5,10.9-0.9,11.4-4c0.5-3.1-6.6-6.7-9.7-7.1c-3.1-0.5-5.9,1.7-6.4,4.8
		C456.4,193.3,458.5,196.2,461.6,196.6z"/>
	<path class="st11" d="M463.6,188.8c1.9,2.5,8.5,6.9,11,5c2.5-1.9-0.1-9.4-2-11.9c-1.9-2.5-5.4-2.9-7.9-1
		C462.2,182.8,461.7,186.4,463.6,188.8z"/>
	<path class="st11" d="M474.1,186.4c-0.1,2,1.2,6.8,3.2,6.9c2,0.1,3.8-4.6,3.9-6.6s-1.4-3.7-3.4-3.8
		C475.8,182.9,474.2,184.4,474.1,186.4z"/>
</g>
<g>
	<path class="st11" d="M434.9,168.3c0,4.1,3.3,13.9,7.4,13.9c4.1,0,7.4-9.9,7.4-13.9s-3.3-7.4-7.4-7.4
		C438.2,161,434.9,164.3,434.9,168.3z"/>
	<path class="st11" d="M432.2,181.9c3.1,0.7,11.1,0,11.9-3.1s-6.1-7.3-9.2-8.1c-3.1-0.7-6.2,1.2-6.9,4.3
		C427.2,178.1,429.1,181.1,432.2,181.9z"/>
	<path class="st11" d="M453.6,174.5c-3,0.7-9.8,4.9-9.1,7.9c0.7,3,8.6,3.7,11.7,3c3-0.7,4.9-3.8,4.2-6.8
		C459.7,175.6,456.6,173.8,453.6,174.5z"/>
	<path class="st11" d="M454.6,182.4c-2.7-1.6-10.5-3.2-12-0.6s3.6,8.7,6.3,10.3c2.7,1.6,6.1,0.7,7.7-2
		C458.2,187.5,457.3,184,454.6,182.4z"/>
	<path class="st11" d="M445.8,188.6c-0.6-1.9-3.7-5.9-5.6-5.3c-1.9,0.6-1.9,5.7-1.2,7.6c0.6,1.9,2.7,2.9,4.5,2.2
		C445.4,192.5,446.5,190.5,445.8,188.6z"/>
</g>
<g>
	<path class="st11" d="M342.8,186.1c3.9,1.1,14.3,0.6,15.4-3.3c1.1-3.9-7.5-9.8-11.4-10.9c-3.9-1.1-8,1.2-9.1,5.1
		C336.6,180.9,338.9,185,342.8,186.1z"/>
	<path class="st11" d="M355.1,192.4c1.5-2.8,3-10.7,0.2-12.2c-2.8-1.5-8.7,3.9-10.3,6.7c-1.5,2.8-0.5,6.3,2.2,7.8
		C350.1,196.1,353.6,195.1,355.1,192.4z"/>
	<path class="st11" d="M353.8,169.7c-0.1,3.1,2.1,10.7,5.2,10.9c3.1,0.1,5.9-7.3,6.1-10.4c0.1-3.1-2.3-5.7-5.4-5.9
		C356.6,164.2,353.9,166.6,353.8,169.7z"/>
	<path class="st11" d="M365.3,181c-2,0.1-6.7,2-6.6,3.9c0.1,2,5,3.3,6.9,3.2c2-0.1,3.5-1.8,3.4-3.8C369,182.4,367.3,180.9,365.3,181
		z"/>
</g>
<g>
	<path class="st11" d="M426.6,222.6c3.5,2.1,13.6,4.5,15.7,1c2.1-3.5-4.5-11.4-8-13.6c-3.5-2.1-8-1.1-10.1,2.4
		S423.1,220.4,426.6,222.6z"/>
	<path class="st11" d="M436.7,231.9c2.2-2.2,5.8-9.5,3.6-11.7c-2.2-2.2-9.5,1.4-11.7,3.6c-2.2,2.2-2.2,5.9,0,8.1
		C430.8,234.2,434.4,234.2,436.7,231.9z"/>
	<path class="st11" d="M441.6,209.8c-1,3-0.9,10.9,2,11.9s7.7-5.4,8.7-8.4c1-3-0.6-6.1-3.6-7.1S442.6,206.8,441.6,209.8z"/>
	<path class="st11" d="M448.9,213.1c-2.8,1.5-8.2,7.2-6.8,10c1.5,2.8,9.3,1.5,12,0c2.8-1.5,3.8-4.9,2.4-7.6S451.7,211.7,448.9,213.1
		z"/>
	<path class="st11" d="M449.5,223.8c-1.9-0.4-6.9,0.1-7.4,2s3.9,4.6,5.8,5c1.9,0.4,3.8-0.8,4.3-2.7S451.5,224.3,449.5,223.8z"/>
</g>
<g>
	<path class="st11" d="M307.4,229.4c3.9-1.3,12.2-7.5,10.9-11.4s-11.7-3.9-15.5-2.6c-3.9,1.3-6,5.5-4.7,9.3
		C299.4,228.6,303.6,230.7,307.4,229.4z"/>
	<path class="st11" d="M330,231.8c-0.3-3.2-3.5-10.6-6.7-10.3c-3.2,0.3-5,8.1-4.7,11.3c0.3,3.2,3.1,5.5,6.2,5.2
		C328,237.7,330.3,234.9,330,231.8z"/>
	<path class="st11" d="M307.3,209.7c1.6,2.6,7.8,7.7,10.4,6.1c2.6-1.6,0.8-9.4-0.8-12c-1.6-2.6-5.1-3.5-7.8-1.8
		C306.5,203.5,305.7,207,307.3,209.7z"/>
	<path class="st11" d="M324.6,198.4c-0.7,3,0.2,10.9,3.3,11.6c3,0.7,7.1-6.2,7.8-9.2c0.7-3-1.3-6-4.3-6.7
		C328.2,193.4,325.2,195.3,324.6,198.4z"/>
	<path class="st11" d="M323.2,212.6c-1.6,1.2-4.4,5.4-3.2,6.9s6,0,7.6-1.2s1.9-3.4,0.7-5C327,211.7,324.8,211.4,323.2,212.6z"/>
</g>
<g>
	<path class="st11" d="M416.4,177.8c-2,3.6-3.8,13.8-0.3,15.8c3.6,2,11.2-5.1,13.2-8.6c2-3.6,0.7-8-2.9-10
		C422.8,172.9,418.3,174.2,416.4,177.8z"/>
	<path class="st11" d="M407.4,188.3c2.3,2.1,9.7,5.4,11.9,3s-1.8-9.4-4.2-11.5c-2.3-2.1-6-2-8.1,0.4
		C404.9,182.5,405.1,186.2,407.4,188.3z"/>
	<path class="st11" d="M429.8,192.2c-3-0.8-10.9-0.4-11.8,2.6c-0.8,3,5.7,7.5,8.7,8.3s6.1-0.9,6.9-3.9
		C434.6,196.1,432.8,193,429.8,192.2z"/>
	<path class="st11" d="M426.8,199.6c-1.6-2.7-7.6-7.9-10.3-6.3s-1,9.4,0.5,12c1.6,2.7,5,3.6,7.7,2S428.4,202.3,426.8,199.6z"/>
	<path class="st11" d="M416.1,200.8c0.3-1.9-0.4-6.9-2.3-7.3c-1.9-0.3-4.4,4.1-4.7,6c-0.3,1.9,0.9,3.8,2.9,4.2
		C413.9,204,415.8,202.7,416.1,200.8z"/>
</g>
<g>
	<path class="st11" d="M395.6,176.7c-2,3.6-3.8,13.8-0.3,15.8c3.6,2,11.2-5.1,13.2-8.6c2-3.6,0.7-8-2.9-10
		C402,171.8,397.5,173.1,395.6,176.7z"/>
	<path class="st11" d="M386.7,187.2c2.3,2.1,9.7,5.4,11.9,3s-1.8-9.4-4.2-11.5c-2.3-2.1-6-2-8.1,0.4S384.3,185.1,386.7,187.2z"/>
	<path class="st11" d="M409,191.1c-3-0.8-10.9-0.4-11.8,2.6c-0.8,3,5.7,7.5,8.7,8.3s6.1-0.9,6.9-3.9
		C413.8,195.1,412,191.9,409,191.1z"/>
	<path class="st11" d="M406,198.6c-1.6-2.7-7.6-7.9-10.3-6.3s-1,9.4,0.5,12c1.6,2.7,5,3.6,7.7,2C406.7,204.7,407.6,201.2,406,198.6z
		"/>
	<path class="st11" d="M395.4,199.7c0.3-1.9-0.4-6.9-2.3-7.3c-1.9-0.3-4.4,4.1-4.7,6c-0.3,1.9,0.9,3.8,2.9,4.2
		C393.1,202.9,395,201.6,395.4,199.7z"/>
</g>
<g>
	<path class="st11" d="M518.1,157.5c-2.4-3.3-11-9.2-14.2-6.8c-3.3,2.4,0,12.3,2.4,15.6c2.4,3.3,7,3.9,10.3,1.5
		C519.9,165.4,520.5,160.7,518.1,157.5z"/>
	<path class="st11" d="M519.5,139c-2.9,1.3-8.9,6.6-7.7,9.5c1.3,2.9,9.3,2.2,12.2,1c2.9-1.3,4.2-4.6,3-7.5S522.4,137.7,519.5,139z"
		/>
	<path class="st11" d="M499.4,163.7c2-2.4,4.9-9.8,2.5-11.8c-2.4-2-9.2,2.1-11.2,4.5s-1.7,5.9,0.7,7.9
		C493.9,166.4,497.4,166.1,499.4,163.7z"/>
	<path class="st11" d="M493.9,157.9c3.1-0.3,10.3-3.6,10-6.7c-0.3-3.1-8.1-4.8-11.2-4.5c-3.1,0.3-5.3,3.1-5,6.2
		C488,156,490.8,158.3,493.9,157.9z"/>
	<path class="st11" d="M497.2,147.8c1.6,1.1,6.5,2.5,7.6,0.9c1.1-1.6-1.9-5.7-3.5-6.8c-1.6-1.1-3.9-0.7-5,0.9
		S495.6,146.6,497.2,147.8z"/>
</g>
<g>
	<path class="st11" d="M360.9,203.6c3.5,2.1,13.6,4.5,15.7,1c2.1-3.5-4.5-11.4-8-13.6c-3.5-2.1-8-1.1-10.1,2.4
		C356.4,196.9,357.5,201.5,360.9,203.6z"/>
	<path class="st11" d="M371,213c2.2-2.2,5.8-9.5,3.6-11.7c-2.2-2.2-9.5,1.4-11.7,3.6c-2.2,2.2-2.2,5.9,0,8.1
		C365.2,215.3,368.8,215.2,371,213z"/>
	<path class="st11" d="M376,190.9c-1,3-0.9,10.9,2,11.9c3,1,7.7-5.4,8.7-8.4c1-3-0.6-6.1-3.6-7.1S376.9,187.9,376,190.9z"/>
	<path class="st11" d="M383.3,194.2c-2.8,1.5-8.2,7.2-6.8,10c1.5,2.8,9.3,1.5,12,0c2.8-1.5,3.8-4.9,2.4-7.6
		C389.4,193.8,386,192.7,383.3,194.2z"/>
	<path class="st11" d="M383.9,204.9c-1.9-0.4-6.9,0.1-7.4,2s3.9,4.6,5.8,5c1.9,0.4,3.8-0.8,4.3-2.7
		C387,207.3,385.8,205.3,383.9,204.9z"/>
</g>
<g>
	<path class="st11" d="M335.3,226.5c4-0.4,13.5-4.8,13-8.9s-10.6-6.2-14.7-5.8c-4,0.4-7,4.1-6.5,8.1
		C327.6,224,331.2,226.9,335.3,226.5z"/>
	<path class="st11" d="M349,227.7c0.4-3.1-1.2-11.1-4.4-11.4s-6.6,6.9-7,10.1c-0.4,3.1,1.9,6,5,6.4C345.8,233,348.6,230.8,349,227.7
		z"/>
	<path class="st11" d="M339.3,207.1c1.1,2.9,6,9.2,8.9,8.1s2.8-9,1.7-11.9c-1.1-2.9-4.3-4.5-7.2-3.4S338.2,204.2,339.3,207.1z"/>
	<path class="st11" d="M347.1,205.3c-1.3,2.8-2.1,10.7,0.8,12c2.8,1.3,8.2-4.6,9.5-7.4s0-6.2-2.8-7.5
		C351.7,201.2,348.4,202.4,347.1,205.3z"/>
	<path class="st11" d="M354.2,213.3c-1.8,0.8-5.4,4.3-4.6,6.1s5.9,1.2,7.6,0.4c1.8-0.8,2.6-3,1.7-4.8S356,212.5,354.2,213.3z"/>
</g>
<g>
	<path class="st11" d="M392.7,237.7c3-2.8,8-11.9,5.2-14.9c-2.8-3-12.2,1.3-15.2,4c-3,2.8-3.2,7.4-0.4,10.4
		C385.1,240.3,389.7,240.5,392.7,237.7z"/>
	<path class="st11" d="M404.5,230.5c-1.6-2.8-7.6-8.2-10.3-6.6c-2.8,1.6-1.2,9.5,0.3,12.2c1.6,2.8,5.1,3.7,7.8,2.2
		C405.1,236.8,406.1,233.3,404.5,230.5z"/>
	<path class="st11" d="M384.5,219.8c2.6,1.7,10.2,3.8,12,1.3c1.7-2.6-3.1-8.9-5.7-10.6c-2.6-1.7-6.1-1-7.8,1.5
		C381.2,214.6,381.9,218.1,384.5,219.8z"/>
	<path class="st11" d="M389.7,213.7c0.7,3,4.7,9.9,7.8,9.2c3-0.7,3.9-8.6,3.3-11.6c-0.7-3-3.7-5-6.7-4.3
		C391,207.6,389,210.6,389.7,213.7z"/>
	<path class="st11" d="M400.2,216c-0.9,1.7-1.8,6.7-0.1,7.6c1.7,0.9,5.4-2.5,6.4-4.2c0.9-1.7,0.3-3.9-1.4-4.9
		C403.3,213.6,401.1,214.2,400.2,216z"/>
</g>
<g>
	<path class="st11" d="M427.7,211.6c-4.1-0.4-14.2,1.9-14.6,5.9c-0.4,4.1,9.1,8.3,13.1,8.7c4.1,0.4,7.7-2.6,8.1-6.6
		C434.7,215.6,431.7,212,427.7,211.6z"/>
	<path class="st11" d="M414.5,207.5c-1,3-1.1,11.1,1.9,12.1c3,1,7.9-5.4,8.9-8.4c1-3-0.6-6.3-3.6-7.3
		C418.8,202.9,415.5,204.5,414.5,207.5z"/>
	<path class="st11" d="M419.7,229.6c-0.4-3.1-3.9-10.2-7-9.8s-4.6,8.2-4.2,11.3c0.4,3.1,3.3,5.2,6.3,4.8S420.1,232.7,419.7,229.6z"
		/>
	<path class="st11" d="M411.7,229.8c1.8-2.5,4.3-10.1,1.8-11.9c-2.5-1.8-9,2.7-10.8,5.3c-1.8,2.5-1.3,6,1.2,7.9
		C406.3,232.8,409.9,232.3,411.7,229.8z"/>
	<path class="st11" d="M406.4,220.4c1.9-0.4,6.2-3.1,5.8-5c-0.4-1.9-5.5-2.4-7.4-2s-3.1,2.4-2.7,4.3S404.5,220.9,406.4,220.4z"/>
</g>
<path class="st11" d="M510,128.8c-2.9,1.3-8.9,6.6-7.7,9.5c1.3,2.9,9.3,2.2,12.2,1c2.9-1.3,4.2-4.6,3-7.5
	C516.3,128.9,512.9,127.5,510,128.8z"/>
<path class="st11" d="M370.4,238.3c3-2.8,8-11.9,5.2-14.9c-2.8-3-12.2,1.3-15.2,4s-3.2,7.4-0.4,10.4
	C362.7,240.9,367.4,241.1,370.4,238.3z"/>
<path class="st11" d="M482.1,127.1c0,4.1,3.3,13.9,7.4,13.9c4.1,0,7.4-9.9,7.4-13.9c0-4.1-3.3-7.4-7.4-7.4
	C485.4,119.8,482.1,123.1,482.1,127.1z"/>
<g>
	<linearGradient id="SVGID_1_" gradientUnits="userSpaceOnUse" x1="268.595" y1="108.1147" x2="284.7202" y2="108.1147">
		<stop  offset="0" style="stop-color:#80AA3D"/>
		<stop  offset="1" style="stop-color:#7D9C7E"/>
	</linearGradient>
	<path class="st12" d="M272.8,93.6l-3.9,11c0,0-2.6,12,7.5,16.7c9.4,4.4,8.3-3.5,8.3-3.5L272.8,93.6z"/>
	<linearGradient id="SVGID_2_" gradientUnits="userSpaceOnUse" x1="267.0151" y1="117.7812" x2="280.2091" y2="117.7812">
		<stop  offset="0" style="stop-color:#80AA3D"/>
		<stop  offset="1" style="stop-color:#7D9C7E"/>
	</linearGradient>
	<path class="st13" d="M270.5,105.9l-3.2,9c0,0-2.1,9.8,6.1,13.7c7.7,3.6,6.8-2.9,6.8-2.9L270.5,105.9z"/>
	<linearGradient id="SVGID_3_" gradientUnits="userSpaceOnUse" x1="272.2958" y1="126.3606" x2="293.2185" y2="126.3606">
		<stop  offset="0" style="stop-color:#80AA3D"/>
		<stop  offset="1" style="stop-color:#7D9C7E"/>
	</linearGradient>
	<path class="st14" d="M291.6,136c-2.6,4.2-8.7,5.2-13.7,2.2c-5-3-7-8.9-4.5-13.2l19.8-12.3L291.6,136z"/>
	<linearGradient id="SVGID_4_" gradientUnits="userSpaceOnUse" x1="275.1379" y1="109.8088" x2="294.4953" y2="109.8088">
		<stop  offset="0" style="stop-color:#80AA3D"/>
		<stop  offset="1" style="stop-color:#7D9C7E"/>
	</linearGradient>
	<path class="st15" d="M275.2,114.2c-0.4,4.5,3.5,8.6,8.9,9.1c5.3,0.5,10-2.7,10.5-7.2l-7.8-19.8L275.2,114.2z"/>
	<linearGradient id="SVGID_5_" gradientUnits="userSpaceOnUse" x1="289.6418" y1="128.0783" x2="319.6927" y2="128.0783">
		<stop  offset="0" style="stop-color:#80AA3D"/>
		<stop  offset="1" style="stop-color:#7D9C7E"/>
	</linearGradient>
	<path class="st16" d="M319.7,121.8l-7.9,8.6c0,0-9.4,7.9-18.2,1.2c-8.3-6.2-0.8-9-0.8-9L319.7,121.8z"/>
	<linearGradient id="SVGID_6_" gradientUnits="userSpaceOnUse" x1="285.325" y1="134.7716" x2="309.9132" y2="134.7716">
		<stop  offset="0" style="stop-color:#80AA3D"/>
		<stop  offset="1" style="stop-color:#7D9C7E"/>
	</linearGradient>
	<path class="st17" d="M309.9,129.6l-6.5,7.1c0,0-7.7,6.5-14.9,1c-6.8-5.1-0.6-7.4-0.6-7.4L309.9,129.6z"/>
	<linearGradient id="SVGID_7_" gradientUnits="userSpaceOnUse" x1="286.3509" y1="120.6823" x2="310.8342" y2="120.6823">
		<stop  offset="0" style="stop-color:#80AA3D"/>
		<stop  offset="1" style="stop-color:#7D9C7E"/>
	</linearGradient>
	<path class="st18" d="M300.4,129.4c-3.8,2.5-9.2,0.9-12.2-3.6c-3-4.5-2.3-10.1,1.5-12.6l21.2-2.4L300.4,129.4z"/>
</g>
<g>
	<linearGradient id="SVGID_8_" gradientUnits="userSpaceOnUse" x1="218.4548" y1="127.6226" x2="244.1083" y2="127.6226">
		<stop  offset="0" style="stop-color:#80AA3D"/>
		<stop  offset="1" style="stop-color:#7D9C7E"/>
	</linearGradient>
	<path class="st19" d="M218.5,126.7l5.1,4.5c0,0,6.6,3.8,15.9-2.1c8.6-5.5,2.6-6.1,2.6-6.1L218.5,126.7z"/>
	<linearGradient id="SVGID_9_" gradientUnits="userSpaceOnUse" x1="225.4199" y1="131.1147" x2="246.4102" y2="131.1147">
		<stop  offset="0" style="stop-color:#80AA3D"/>
		<stop  offset="1" style="stop-color:#7D9C7E"/>
	</linearGradient>
	<path class="st20" d="M225.4,130.3l4.2,3.7c0,0,5.4,3.1,13-1.7c7.1-4.5,2.1-5,2.1-5L225.4,130.3z"/>
	<linearGradient id="SVGID_10_" gradientUnits="userSpaceOnUse" x1="240.2151" y1="124.8102" x2="258.953" y2="124.8102">
		<stop  offset="0" style="stop-color:#80AA3D"/>
		<stop  offset="1" style="stop-color:#7D9C7E"/>
	</linearGradient>
	<path class="st21" d="M258.6,121.4c1.4,2.4-1.7,6.7-6.8,9.5s-10.3,3.2-11.7,0.7l3.5-15.3L258.6,121.4z"/>
	<linearGradient id="SVGID_11_" gradientUnits="userSpaceOnUse" x1="228.6201" y1="122.4869" x2="248.5473" y2="122.4869">
		<stop  offset="0" style="stop-color:#80AA3D"/>
		<stop  offset="1" style="stop-color:#7D9C7E"/>
	</linearGradient>
	<path class="st22" d="M233.9,128.6c2.8,1.1,8-0.9,11.5-4.3c3.6-3.5,4.2-7.1,1.4-8.2l-18.2,1.8L233.9,128.6z"/>
	<linearGradient id="SVGID_12_" gradientUnits="userSpaceOnUse" x1="249.8711" y1="110.6857" x2="266.9673" y2="110.6857">
		<stop  offset="0" style="stop-color:#80AA3D"/>
		<stop  offset="1" style="stop-color:#7D9C7E"/>
	</linearGradient>
	<path class="st23" d="M265.8,100.3l1.1,6.7c0,0-0.3,7.6-10.2,12.4c-9.2,4.4-6.6-1-6.6-1L265.8,100.3z"/>
	<linearGradient id="SVGID_13_" gradientUnits="userSpaceOnUse" x1="252.2265" y1="116.6432" x2="266.215" y2="116.6432">
		<stop  offset="0" style="stop-color:#80AA3D"/>
		<stop  offset="1" style="stop-color:#7D9C7E"/>
	</linearGradient>
	<path class="st24" d="M265.3,108.1l0.9,5.5c0,0-0.2,6.2-8.3,10.1c-7.6,3.6-5.4-0.8-5.4-0.8L265.3,108.1z"/>
	<linearGradient id="SVGID_14_" gradientUnits="userSpaceOnUse" x1="241.8596" y1="113.3174" x2="259.3863" y2="113.3174">
		<stop  offset="0" style="stop-color:#80AA3D"/>
		<stop  offset="1" style="stop-color:#7D9C7E"/>
	</linearGradient>
	<path class="st25" d="M259.4,114.4c-0.6,2.9-4.9,6.3-9.8,7.5c-4.8,1.2-8.3-0.2-7.7-3.1l11.1-14.5L259.4,114.4z"/>
</g>
<g>
	<linearGradient id="SVGID_15_" gradientUnits="userSpaceOnUse" x1="264.6769" y1="169.4554" x2="226.7631" y2="131.5416">
		<stop  offset="0" style="stop-color:#7F9639"/>
		<stop  offset="1" style="stop-color:#769477"/>
	</linearGradient>
	<path class="st26" d="M228.3,130l4.1,20.3c0,0,7,20.5,26.5,18.5c18.2-1.9,9.4-12.9,9.4-12.9L228.3,130z"/>
	<linearGradient id="SVGID_16_" gradientUnits="userSpaceOnUse" x1="316.2296" y1="159.133" x2="298.9608" y2="141.8641">
		<stop  offset="0" style="stop-color:#7F9639"/>
		<stop  offset="1" style="stop-color:#769477"/>
	</linearGradient>
	<path class="st27" d="M325,130l-4.1,20.3c0,0-7,20.5-26.5,18.5c-18.2-1.9-9.4-12.9-9.4-12.9L325,130z"/>
	<linearGradient id="SVGID_17_" gradientUnits="userSpaceOnUse" x1="276.352" y1="162.4008" x2="243.5603" y2="129.6091">
		<stop  offset="0" style="stop-color:#829A3B"/>
		<stop  offset="1" style="stop-color:#7D9C7E"/>
	</linearGradient>
	<path class="st28" d="M250.6,159c3.4,7.2,13.2,9.8,21.7,5.7s12.7-13.2,9.3-20.4l-29.9-22.9L250.6,159z"/>
	<linearGradient id="SVGID_18_" gradientUnits="userSpaceOnUse" x1="305.0463" y1="157.6921" x2="281.6719" y2="134.3178">
		<stop  offset="0" style="stop-color:#829A3B"/>
		<stop  offset="1" style="stop-color:#7D9C7E"/>
	</linearGradient>
	<path class="st29" d="M302.7,159c-3.4,7.2-13.2,9.8-21.7,5.7s-12.7-13.2-9.3-20.4l29.9-22.9L302.7,159z"/>
	<linearGradient id="SVGID_19_" gradientUnits="userSpaceOnUse" x1="265.7312" y1="183.0615" x2="234.7094" y2="152.0397">
		<stop  offset="0" style="stop-color:#7B9137"/>
		<stop  offset="1" style="stop-color:#6C876D"/>
	</linearGradient>
	<path class="st30" d="M236,150.8l3.4,16.6c0,0,5.7,16.8,21.7,15.1c14.9-1.6,7.7-10.6,7.7-10.6L236,150.8z"/>
	<linearGradient id="SVGID_20_" gradientUnits="userSpaceOnUse" x1="310.1598" y1="174.6154" x2="296.03" y2="160.4857">
		<stop  offset="0" style="stop-color:#7B9137"/>
		<stop  offset="1" style="stop-color:#6C876D"/>
	</linearGradient>
	<path class="st31" d="M317.3,150.8l-3.4,16.6c0,0-5.7,16.8-21.7,15.1c-14.9-1.6-7.7-10.6-7.7-10.6L317.3,150.8z"/>
	<linearGradient id="SVGID_21_" gradientUnits="userSpaceOnUse" x1="291.9748" y1="186.3719" x2="261.3404" y2="155.7375">
		<stop  offset="0" style="stop-color:#7B9137"/>
		<stop  offset="1" style="stop-color:#6C876D"/>
	</linearGradient>
	<path class="st32" d="M295.4,177.1c0,8.8-8.4,15.9-18.8,15.9c-10.4,0-18.8-7.1-18.8-15.9l18.8-36.7L295.4,177.1z"/>
</g>
<g>
	<path class="st33" d="M228.1,4.3c0,0-0.2,0.6-0.7,1.7c-0.2,0.6-0.5,1.2-0.8,2.1c-0.2,0.4-0.3,0.8-0.5,1.3c-0.2,0.5-0.3,1-0.5,1.5
		c-1.6,4.3-3.5,10.8-4.9,19.2c-0.7,4.2-1.2,8.9-1.3,14.1c-0.1,5.1,0.1,10.7,0.8,16.6c1.4,11.8,5.2,24.9,12.4,37.5
		c3.6,6.3,8,12.5,13.4,18.1c2.7,2.9,5.6,5.5,8.7,8.1c0.8,0.6,1.6,1.2,2.4,1.8l1.2,0.9l1.3,0.9c0.8,0.6,1.7,1.2,2.5,1.7
		c0.9,0.5,1.8,1.1,2.7,1.6l1.3,0.8l1.4,0.7c0.9,0.5,1.8,1,2.8,1.5c1,0.4,1.9,0.9,2.9,1.3l1.4,0.7c0.4,0.2,1,0.4,1.5,0.6
		c1,0.4,2,0.8,3,1.2c1,0.3,2,0.7,3,1l1.5,0.5l1.6,0.4c1,0.3,2.1,0.6,3.1,0.9c4.3,1,8.6,1.8,13.1,2.1c4.4,0.3,9,0.5,13.5,0.1
		c18.2-1.2,36.5-8.4,51.8-20c3.8-2.9,7.4-6.1,10.8-9.6c1.7-1.7,3.3-3.5,5-5.3c1.5-1.9,3.1-3.7,4.6-5.7c5.9-7.7,10.6-16.3,14.4-25.3
		c7.4-18,10.2-37.9,7.8-56.8c-1.2-9.5-3.6-18.7-7.2-27.3c-3.6-8.6-8.4-16.5-14.2-23.5c-2.9-3.5-6.1-6.6-9.3-9.6
		c-3.3-2.9-6.9-5.5-10.5-7.9c-0.9-0.6-1.9-1.1-2.8-1.7l-1.4-0.8l-1.4-0.7c-1-0.5-1.9-1-2.8-1.5c-1-0.4-1.9-0.9-2.9-1.3l-1.4-0.6
		l-1.5-0.6c-1-0.4-2-0.8-3-1.2c-1-0.3-2-0.6-2.9-1l-1.5-0.5l-1.5-0.4c-1-0.3-2-0.5-3-0.8c-1-0.2-2-0.4-3-0.6l-1.5-0.3l-1.5-0.2
		c-1-0.2-2-0.3-3-0.5c-4-0.4-8-0.7-11.8-0.7c-3.9,0-7.7,0.3-11.5,0.8c-3.7,0.6-7.4,1.2-10.9,2.2c-14.1,3.7-26.1,10.1-35.5,17.2
		c-4.7,3.6-8.9,7.3-12.5,11c-3.6,3.7-6.6,7.4-9.2,10.8c-5.1,6.9-8.4,12.8-10.4,16.9c-0.3,0.5-0.5,1-0.7,1.4
		c-0.2,0.5-0.4,0.9-0.6,1.3c-0.4,0.8-0.7,1.5-0.9,2C228.4,3.7,228.1,4.3,228.1,4.3z M227.8,4.2c0,0,0.3-0.6,0.7-1.6
		c0.2-0.5,0.5-1.2,0.9-2c0.2-0.4,0.4-0.8,0.6-1.3c0.2-0.5,0.5-0.9,0.7-1.5c0.5-1,1.1-2.2,1.7-3.4c0.7-1.2,1.4-2.6,2.3-4
		c0.8-1.4,1.8-2.9,2.8-4.6c1.1-1.6,2.2-3.3,3.4-5c1.3-1.7,2.6-3.6,4.1-5.4c0.8-0.9,1.5-1.9,2.3-2.8c0.8-0.9,1.7-1.9,2.5-2.8
		c3.5-3.8,7.6-7.7,12.3-11.4c9.4-7.5,21.3-14.5,35.7-18.6c3.6-1,7.3-1.8,11.1-2.4c3.8-0.5,7.8-1,11.8-1c4-0.2,8.1,0.1,12.3,0.6
		c1,0.2,2.1,0.3,3.1,0.5l1.6,0.2l1.6,0.3c1,0.2,2.1,0.4,3.1,0.6c1,0.3,2.1,0.5,3.1,0.8l1.6,0.4l1.6,0.5c1,0.3,2.1,0.7,3.1,1
		c1,0.4,2,0.8,3,1.2l1.5,0.6c0.6,0.2,1,0.5,1.5,0.7c1,0.5,2,0.9,3,1.4c1,0.5,2,1,3,1.5l1.5,0.8l1.4,0.9c1,0.6,1.9,1.2,2.9,1.7
		c3.8,2.5,7.4,5.2,10.9,8.2c0.9,0.7,1.7,1.6,2.5,2.4c0.8,0.8,1.7,1.6,2.5,2.5c0.8,0.8,1.6,1.7,2.4,2.5c0.8,0.9,1.5,1.8,2.3,2.7
		c11.9,14.4,19.5,33,21.7,52.4c0.5,4.9,0.8,9.8,0.6,14.7c0,2.5-0.2,4.9-0.4,7.4c-0.3,2.4-0.5,4.9-0.9,7.3
		c-1.5,9.7-4.4,19.3-8.3,28.4c-4,9-9,17.6-15,25.3c-1.5,2-3.1,3.8-4.7,5.7c-1.7,1.8-3.3,3.6-5,5.3c-3.4,3.5-7.1,6.6-11,9.6
		c-7.7,5.9-16.1,10.8-24.9,14.3c-8.8,3.5-18.1,5.8-27.3,6.7c-4.6,0.5-9.2,0.4-13.8,0.2c-4.6-0.3-9-1-13.4-1.9
		c-1.1-0.3-2.2-0.5-3.2-0.8l-1.6-0.4l-1.6-0.5c-1.1-0.3-2.1-0.7-3.2-1c-1-0.4-2-0.8-3-1.2c-0.5-0.2-1-0.4-1.5-0.6l-1.5-0.7
		c-1-0.4-2-0.9-3-1.3c-1-0.5-1.9-1-2.9-1.5l-1.4-0.7l-1.4-0.8c-0.9-0.5-1.8-1.1-2.7-1.6c-0.9-0.6-1.8-1.2-2.6-1.8l-1.3-0.9l-1.3-0.9
		c-0.8-0.6-1.7-1.3-2.5-1.9c-3.2-2.7-6.3-5.4-9-8.3c-2.8-2.9-5.2-6-7.5-9.1c-2.2-3.2-4.3-6.4-6-9.7c-7.1-13.1-10.4-26.6-11.6-38.5
		c-0.6-6-0.6-11.6-0.4-16.8c0.1-1.3,0.2-2.6,0.3-3.8c0.1-1.2,0.3-2.4,0.4-3.6c0.2-2.4,0.7-4.6,1-6.7c0.4-2.1,0.8-4.1,1.2-6
		c0.5-1.9,0.9-3.6,1.3-5.2c0.5-1.6,0.9-3.1,1.3-4.4c0.5-1.3,0.9-2.6,1.3-3.6c0.2-0.5,0.4-1.1,0.5-1.5c0.2-0.5,0.4-0.9,0.5-1.3
		c0.3-0.8,0.6-1.5,0.8-2C227.6,4.7,227.8,4.2,227.8,4.2z"/>
</g>
</svg>
