<?xml version="1.0" encoding="utf-8"?>
<!-- Generator: Adobe Illustrator 19.1.0, SVG Export Plug-In . SVG Version: 6.00 Build 0)  -->
<svg version="1.1" xmlns="http://www.w3.org/2000/svg" xmlns:xlink="http://www.w3.org/1999/xlink" x="0px" y="0px"
	 viewBox="0 0 450 450" style="enable-background:new 0 0 450 450;" xml:space="preserve">
<style type="text/css">
	.st0{opacity:0.4;fill:#828282;}
	.st1{fill:#FFFFFF;}
	.st2{fill:#D6D6D6;}
	.st3{fill:none;stroke:#333333;stroke-width:0.75;stroke-miterlimit:10;}
	.st4{opacity:0.7;fill:#C9C79B;}
	.st5{fill:#5E853A;}
	.st6{fill:#E5E020;}
	.st7{fill:#537234;}
	.st8{fill:#C9C79B;}
	.st9{opacity:0.8;fill:#72A040;}
	.st10{opacity:0.9;fill:url(#SVGID_1_);}
	.st11{opacity:0.9;fill:url(#SVGID_2_);}
	.st12{opacity:0.9;fill:url(#SVGID_3_);}
	.st13{opacity:0.9;fill:url(#SVGID_4_);}
	.st14{opacity:0.9;fill:url(#SVGID_5_);}
	.st15{opacity:0.9;fill:url(#SVGID_6_);}
	.st16{opacity:0.9;fill:url(#SVGID_7_);}
	.st17{opacity:0.9;fill:url(#SVGID_8_);}
	.st18{opacity:0.9;fill:url(#SVGID_9_);}
	.st19{opacity:0.9;fill:url(#SVGID_10_);}
	.st20{opacity:0.9;fill:url(#SVGID_11_);}
	.st21{opacity:0.9;fill:url(#SVGID_12_);}
	.st22{opacity:0.9;fill:url(#SVGID_13_);}
	.st23{opacity:0.9;fill:url(#SVGID_14_);}
	.st24{fill:url(#SVGID_15_);}
	.st25{fill:url(#SVGID_16_);}
	.st26{fill:url(#SVGID_17_);}
	.st27{opacity:0.9;fill:url(#SVGID_18_);}
	.st28{fill:url(#SVGID_19_);}
	.st29{fill:url(#SVGID_20_);}
	.st30{fill:url(#SVGID_21_);}
	.st31{fill:#B2B3B3;}
</style>
<g id="Layer_4">
	<ellipse class="st0" cx="233.1" cy="400.7" rx="133.1" ry="10.8"/>
	<ellipse class="st0" cx="224" cy="411.5" rx="133.1" ry="17.3"/>
</g>
<g id="Layer_3">
	<g>
		<circle class="st1" cx="224" cy="225" r="181.6"/>
		<path class="st2" d="M405.9,225c0,0,0,1.1-0.1,3.3c0,1.1-0.1,2.4-0.1,4c0,0.8,0,1.7-0.1,2.6c-0.1,0.9-0.1,1.9-0.2,2.9
			c-0.5,8.3-1.9,20.6-5.9,35.7c-0.5,1.9-1.1,3.8-1.6,5.8c-0.6,2-1.3,4-2,6c-0.6,2.1-1.4,4.1-2.2,6.2c-0.8,2.1-1.6,4.3-2.6,6.4
			c-3.6,8.7-8.3,17.8-14.2,27c-5.9,9.2-13,18.5-21.4,27.4c-4.2,4.5-8.8,8.8-13.7,13.1c-1.2,1.1-2.5,2.1-3.8,3.1
			c-1.3,1-2.6,2.1-3.8,3.1c-2.7,2-5.4,3.9-8.1,5.9c-5.6,3.7-11.5,7.4-17.8,10.6c-1.6,0.8-3.1,1.6-4.7,2.4c-1.6,0.7-3.2,1.5-4.9,2.2
			c-3.2,1.6-6.6,2.8-10,4.2c-1.7,0.7-3.4,1.2-5.2,1.9c-1.7,0.6-3.5,1.2-5.3,1.8c-1.8,0.5-3.6,1-5.4,1.5c-0.9,0.3-1.8,0.5-2.7,0.8
			c-0.9,0.2-1.8,0.4-2.7,0.6c-1.8,0.4-3.7,0.8-5.5,1.3c-1.9,0.4-3.7,0.7-5.6,1c-0.9,0.2-1.9,0.3-2.8,0.5l-1.4,0.3l-1.4,0.2
			c-1.9,0.2-3.8,0.5-5.8,0.7c-1.9,0.3-3.9,0.4-5.8,0.5c-1.9,0.1-3.9,0.3-5.9,0.4c-2,0-3.9,0.1-5.9,0.1l-3,0.1c-1.1,0-2-0.1-3-0.1
			c-2-0.1-3.9-0.1-5.9-0.2c-2-0.1-4-0.3-6-0.5c-4-0.3-8-0.9-12.1-1.4c-8-1.3-16.1-3-24-5.4c-4-1.1-7.9-2.6-11.8-3.9
			c-2-0.7-3.9-1.6-5.8-2.3l-2.9-1.2l-2.9-1.3c-30.7-13.9-58.3-37-77.8-66.4c-1.2-1.9-2.4-3.7-3.6-5.6c-1.2-1.9-2.2-3.8-3.4-5.7
			c-0.5-1-1.1-1.9-1.7-2.9l-1.5-3l-1.5-3c-0.5-1-1-2-1.5-3l-2.8-6.1c-0.9-2-1.7-4.1-2.5-6.2c-0.4-1-0.8-2.1-1.2-3.1l-1.1-3.2
			l-1.1-3.2c-0.4-1.1-0.7-2.1-1-3.2l-1.9-6.4c-0.6-2.2-1.1-4.3-1.6-6.5l-0.8-3.3l-0.6-3.3c-0.4-2.2-0.9-4.4-1.2-6.6
			c-1.4-8.9-2-17.8-2.2-26.8l0.1-6.7c0-1.1,0-2.2,0.1-3.3l0.2-3.4l0.2-3.4c0.1-1.1,0.1-2.3,0.3-3.4l0.8-6.7c0.3-2.2,0.7-4.4,1.1-6.7
			l0.6-3.3l0.7-3.3c0.5-2.2,0.9-4.4,1.5-6.6l1.8-6.5c0.3-1.1,0.6-2.2,1-3.2l1.1-3.2l1.1-3.2c0.4-1.1,0.8-2.1,1.2-3.1
			c0.8-2.1,1.6-4.2,2.5-6.2l2.7-6.1c0.4-1,0.9-2,1.4-3l1.5-3l1.5-3c0.5-1,1.1-1.9,1.6-2.9c1.1-1.9,2.2-3.9,3.3-5.8
			c1.2-1.9,2.4-3.8,3.6-5.6c0.6-1,1.2-1.9,1.9-2.8l1.9-2.7l1.9-2.7l2-2.6c1.4-1.7,2.7-3.5,4.1-5.2c1.4-1.7,2.9-3.3,4.3-5
			c0.7-0.8,1.5-1.6,2.2-2.4l2.3-2.4l2.3-2.4c0.8-0.8,1.6-1.5,2.4-2.3c1.6-1.5,3.1-3.1,4.8-4.5c1.6-1.4,3.3-2.9,4.9-4.3
			c13.3-11.2,28.1-20.5,43.6-27.4l2.9-1.3l2.9-1.2c2-0.8,3.9-1.6,5.9-2.3c4-1.3,7.9-2.8,11.9-3.9c8-2.4,16.1-4,24.2-5.2
			c4.1-0.5,8.1-1.1,12.1-1.3c2-0.1,4-0.3,6-0.4c2,0,4-0.1,6-0.1l1.5,0l0.7,0l0.4,0c0.1,0,0.4,0,0.4,0l2.9,0.1c2,0.1,3.9,0.1,5.8,0.2
			c2,0.1,3.9,0.3,5.9,0.4c2,0.2,3.9,0.3,5.8,0.6c1.9,0.3,3.8,0.5,5.8,0.7l1.4,0.2l1.4,0.3c0.9,0.2,1.9,0.3,2.8,0.5
			c1.9,0.4,3.8,0.6,5.6,1.1c1.9,0.4,3.7,0.9,5.5,1.3c0.9,0.2,1.8,0.4,2.7,0.7c0.9,0.3,1.8,0.5,2.7,0.8c1.8,0.5,3.6,1,5.4,1.5
			c1.8,0.6,3.5,1.2,5.3,1.8c1.7,0.6,3.5,1.1,5.2,1.9c13.6,5.3,26.2,11.9,37.3,19.6c11.2,7.6,20.9,16.3,29.4,25.2
			c8.4,8.9,15.5,18.3,21.4,27.5c5.9,9.2,10.6,18.3,14.2,27c1,2.1,1.7,4.3,2.6,6.4c0.8,2.1,1.6,4.2,2.2,6.2c0.7,2.1,1.3,4.1,2,6
			c0.6,2,1.1,3.9,1.6,5.8c4.1,15.1,5.4,27.4,5.9,35.7c0.1,1,0.1,2,0.2,2.9c0.1,0.9,0.1,1.8,0.1,2.6c0,1.6,0.1,2.9,0.1,4
			C405.9,223.9,405.9,225,405.9,225L405.9,225z M405.4,225c0,0,0-1.1-0.1-3.3c0-1.1-0.1-2.4-0.1-4c0-0.8,0-1.7-0.1-2.6
			c-0.1-0.9-0.1-1.9-0.2-2.9c-0.6-8.3-1.9-20.6-6.3-35.5c-2-7.5-5-15.6-8.9-24.2c-3.8-8.6-8.7-17.5-14.8-26.4
			c-12.1-17.9-29.1-35.9-51.2-50.4c-11.1-7.2-23.4-13.5-36.7-18.5c-13.3-5-27.7-8.4-42.7-10.1c-1.9-0.3-3.7-0.4-5.6-0.5
			c-1.9-0.1-3.8-0.3-5.7-0.4c-1.9,0-3.9-0.1-5.8-0.1l-2.9-0.1c-0.2,0-0.2,0-0.3,0l-0.4,0l-0.7,0l-1.5,0c-1.9,0-3.9,0.1-5.8,0.1
			c-1.9,0.1-3.9,0.3-5.8,0.4c-3.9,0.2-7.8,0.8-11.8,1.3c-7.8,1.2-15.7,2.8-23.5,5.1c-3.9,1-7.7,2.4-11.6,3.7
			c-1.9,0.7-3.8,1.5-5.7,2.2l-2.9,1.1l-2.8,1.3c-15.1,6.6-29.5,15.5-42.6,26.3c-1.6,1.4-3.2,2.8-4.8,4.2c-1.6,1.4-3.1,2.9-4.7,4.4
			c-0.8,0.7-1.6,1.5-2.3,2.2l-2.2,2.3l-2.2,2.3c-0.7,0.8-1.5,1.5-2.2,2.4c-5.8,6.4-11,13.2-15.9,20.4C55,154.5,44,189.6,43.7,225
			c0,8.8,0.5,17.7,1.7,26.5c0.3,2.2,0.7,4.4,1.1,6.6l0.6,3.3l0.7,3.2c0.5,2.2,0.9,4.3,1.5,6.5l1.8,6.4c0.3,1.1,0.6,2.1,1,3.2
			l1.1,3.1l1.1,3.1c0.4,1,0.8,2.1,1.2,3.1c0.8,2,1.6,4.1,2.4,6.1l2.7,6c0.4,1,0.9,2,1.4,3l1.5,2.9l1.5,2.9c0.5,1,1.1,1.9,1.6,2.9
			c1.1,1.9,2.1,3.8,3.3,5.7c1.2,1.8,2.4,3.7,3.5,5.5c0.6,0.9,1.2,1.8,1.8,2.7l1.9,2.7l1.9,2.7l2,2.6c1.4,1.7,2.7,3.4,4.1,5.1
			c1.4,1.6,2.8,3.3,4.3,4.9c5.8,6.4,12,12.5,18.6,17.9c13.2,10.9,27.8,19.8,43,26.3l2.8,1.3l2.9,1.1c1.9,0.7,3.8,1.5,5.8,2.2
			c3.9,1.2,7.8,2.6,11.7,3.6c7.8,2.3,15.8,3.7,23.6,4.9c4,0.4,7.9,1,11.8,1.2c2,0.1,3.9,0.3,5.9,0.4c2,0,3.9,0.1,5.9,0.1
			c1,0,2,0.1,2.9,0l2.9-0.1c1.9-0.1,3.9-0.1,5.8-0.2c1.9-0.1,3.8-0.3,5.7-0.5c1.9-0.2,3.8-0.3,5.7-0.6c15-1.8,29.4-5.3,42.8-10.3
			c13.3-5,25.6-11.4,36.7-18.6c11.1-7.3,20.9-15.4,29.4-24c8.5-8.6,15.8-17.5,21.8-26.5c6-9,11-17.9,14.8-26.4
			c3.8-8.6,6.8-16.6,8.8-24.2c4.3-15,5.7-27.2,6.2-35.5c0.1-1,0.2-2,0.2-2.9c0.1-0.9,0.1-1.8,0.1-2.6c0-1.6,0.1-2.9,0.1-4
			C405.4,226.1,405.4,225,405.4,225L405.4,225z"/>
	</g>
	<circle class="st3" cx="228.3" cy="225" r="181.6"/>
	<g>
		<ellipse class="st1" cx="228.3" cy="30" rx="10.5" ry="8"/>
		<path class="st2" d="M218.1,30c0,0,0,0.2,0.1,0.7c0.1,0.4,0.2,1,0.6,1.6c0.4,0.6,1.1,1.3,2,1.8c0.9,0.5,2,0.8,3.1,1
			c1.1,0.2,2.3,0.5,3.6,0.7l0.5,0.1l0.4,0.1c0.4,0,0.8,0.1,1.2,0.1c0.6,0.1,1.4,0.2,2.2,0.1c1.6-0.1,3.2-0.7,4.4-1.9
			c1.2-1.1,1.7-2.9,1.3-4.3c0,0.2,0,0,0,0.1l0,0l0,0l0-0.1l0-0.2l-0.1-0.3c-0.1-0.2-0.2-0.3-0.2-0.4c-0.1-0.1-0.2-0.3-0.2-0.4
			c-0.1-0.1-0.2-0.3-0.3-0.4c-0.4-0.5-0.9-1-1.4-1.4c-1-0.8-2.4-1.4-3.7-1.7c-0.7-0.2-1.3-0.2-2-0.3c-0.3-0.1-0.7,0-1-0.1l-0.1,0
			l0,0l0,0c0,0,0.2,0,0.1,0l-0.2,0l-0.3,0l-0.6,0c-0.3,0-0.5,0-0.8,0c-0.3,0-0.6,0.1-0.9,0.1c-0.6,0.1-1.2,0.1-1.7,0.2
			c-1.1,0.2-2.2,0.5-3.1,0.9c-0.9,0.5-1.6,1.1-2,1.8c-0.4,0.6-0.6,1.2-0.6,1.6C218.1,29.8,218.1,30,218.1,30L218.1,30z M217.6,30
			c0,0,0-0.2,0-0.7c0-0.4,0.1-1.1,0.3-1.9c0.2-0.8,0.6-1.8,1.2-3c0.7-1.1,1.6-2.3,3-3.2c0.7-0.5,1.4-0.9,2.3-1.1
			c0.4-0.2,0.9-0.2,1.3-0.4c0.5-0.1,1-0.2,1.5-0.2l0.6,0l0.3,0l0.1,0l0.3,0c0.5,0,1,0,1.5,0.1c1,0.1,2,0.3,3,0.7
			c1,0.3,1.9,0.8,2.8,1.4c0.9,0.6,1.8,1.3,2.5,2.1c0.8,0.8,1.3,1.9,1.7,3c0.1,0.3,0.2,0.6,0.2,0.9c0.1,0.3,0.1,0.6,0.1,0.9
			c0,0.3,0.1,0.7,0,0.9l0,0.3l0,0.2l0,0.1l0,0l0,0c0,0,0-0.1,0,0.1c-0.4,2.3-1.6,4-3,5.4c-0.7,0.7-1.4,1.3-2.2,1.8
			c-0.8,0.6-1.6,1.1-2.4,1.5c-0.9,0.5-1.7,0.8-2.7,1.1c-0.3,0.1-0.5,0.1-0.7,0.2l-0.6,0.1c-0.6,0.1-1,0.1-1.4,0.1
			c-1.8,0-3.6-0.6-4.9-1.4c-1.4-0.9-2.4-2.1-3-3.2c-0.7-1.1-1-2.1-1.2-3c-0.2-0.8-0.3-1.5-0.3-1.9C217.6,30.2,217.6,30,217.6,30
			L217.6,30z"/>
	</g>
	<circle class="st3" cx="228.7" cy="29.3" r="8.7"/>
</g>
<g id="Layer_7">
	<path class="st4" d="M70.2,305c28.8,55,86.5,92.6,152.9,92.6c50.3,0,95.6-21.5,127.1-55.9c0,0-91,15-123.9-29.2
		c-24.4-32.8-73.6-51.5-134.7-49C73.8,264.2,64.3,279.3,70.2,305L70.2,305z"/>
</g>
<g id="Layer_6">
	<path class="st5" d="M190.3,313.6c2.2,7.3,8.4,8.5,14.9,6.5c6.5-2,11-6.3,8.8-13.7c-6.2-20.4-13.6-25.7-20.1-23.8
		C187.3,284.6,184.8,295.4,190.3,313.6z"/>
	<g>
		<g>
			<path class="st6" d="M211.1,311.3c0.5,0,0.5-0.8,0-0.8C210.6,310.5,210.6,311.3,211.1,311.3L211.1,311.3z"/>
		</g>
	</g>
	<g>
		<g>
			<path class="st6" d="M206,309.6c0.5,0,0.5-0.8,0-0.8C205.5,308.9,205.5,309.6,206,309.6L206,309.6z"/>
		</g>
	</g>
	<g>
		<g>
			<path class="st6" d="M196.8,314.9c0.5,0,0.5-0.8,0-0.8C196.4,314.1,196.4,314.9,196.8,314.9L196.8,314.9z"/>
		</g>
	</g>
	<g>
		<g>
			<path class="st6" d="M192.9,313.6c0.5,0,0.5-0.8,0-0.8C192.4,312.8,192.4,313.6,192.9,313.6L192.9,313.6z"/>
		</g>
	</g>
	<g>
		<g>
			<path class="st6" d="M191.4,307.6c0.5,0,0.5-0.8,0-0.8C190.9,306.9,190.9,307.6,191.4,307.6L191.4,307.6z"/>
		</g>
	</g>
	<g>
		<g>
			<path class="st6" d="M191.2,300.9c0.5,0,0.5-0.8,0-0.8C190.7,300.1,190.7,300.9,191.2,300.9L191.2,300.9z"/>
		</g>
	</g>
	<g>
		<g>
			<path class="st6" d="M189.6,296.7c0.5,0,0.5-0.8,0-0.8C189.1,296,189.1,296.7,189.6,296.7L189.6,296.7z"/>
		</g>
	</g>
	<g>
		<g>
			<path class="st6" d="M198.7,312.9c0.5,0,0.5-0.8,0-0.8C198.3,312.1,198.3,312.9,198.7,312.9L198.7,312.9z"/>
		</g>
	</g>
	<g>
		<g>
			<path class="st6" d="M196.2,308c0.5,0,0.5-0.8,0-0.8C195.7,307.2,195.7,308,196.2,308L196.2,308z"/>
		</g>
	</g>
	<g>
		<g>
			<path class="st6" d="M204,310.2c0.5,0,0.5-0.8,0-0.8C203.5,309.5,203.5,310.2,204,310.2L204,310.2z"/>
		</g>
	</g>
	<g>
		<g>
			<path class="st6" d="M200.3,299.2c0.5,0,0.5-0.8,0-0.8C199.8,298.5,199.8,299.2,200.3,299.2L200.3,299.2z"/>
		</g>
	</g>
	<g>
		<g>
			<path class="st6" d="M201.8,293.4c0.5,0,0.5-0.8,0-0.8C201.3,292.7,201.3,293.4,201.8,293.4L201.8,293.4z"/>
		</g>
	</g>
	<g>
		<g>
			<path class="st6" d="M202.2,286.5c0.5,0,0.5-0.8,0-0.8C201.7,285.7,201.7,286.5,202.2,286.5L202.2,286.5z"/>
		</g>
	</g>
	<g>
		<g>
			<path class="st6" d="M198.5,313.3c0.5,0,0.5-0.8,0-0.8C198,312.6,198,313.3,198.5,313.3L198.5,313.3z"/>
		</g>
	</g>
	<g>
		<g>
			<path class="st6" d="M201.5,320.6c0.2-0.1,0.4-0.1,0.7-0.2c0.5-0.1,0.3-0.9-0.2-0.7c-0.2,0.1-0.4,0.1-0.7,0.2
				C200.9,320.1,201.1,320.8,201.5,320.6L201.5,320.6z"/>
		</g>
	</g>
	<g>
		<g>
			<path class="st6" d="M208.6,312.7c0.4,0.1,0.8,0.2,1.2,0.4c0.5,0.1,0.7-0.6,0.2-0.7c-0.4-0.1-0.8-0.2-1.2-0.4
				C208.3,311.9,208.1,312.6,208.6,312.7L208.6,312.7z"/>
		</g>
	</g>
	<g>
		<g>
			<path class="st6" d="M207,316.5c0.5,0,0.5-0.8,0-0.8C206.5,315.7,206.5,316.5,207,316.5L207,316.5z"/>
		</g>
	</g>
	<g>
		<g>
			<path class="st6" d="M206,317.9c0.5,0,0.5-0.8,0-0.8C205.5,317.1,205.5,317.9,206,317.9L206,317.9z"/>
		</g>
	</g>
	<g>
		<g>
			<path class="st6" d="M209,314.8c0.5,0,0.5-0.8,0-0.8C208.5,314.1,208.5,314.8,209,314.8L209,314.8z"/>
		</g>
	</g>
	<g>
		<g>
			<path class="st6" d="M202.2,319.3c0.5,0,0.5-0.8,0-0.8C201.8,318.6,201.8,319.3,202.2,319.3L202.2,319.3z"/>
		</g>
	</g>
	<g>
		<g>
			<path class="st6" d="M206.3,320c0.5,0,0.5-0.8,0-0.8C205.8,319.3,205.8,320,206.3,320L206.3,320z"/>
		</g>
	</g>
	<g>
		<g>
			<path class="st6" d="M210,317.5c0.5,0,0.5-0.8,0-0.8C209.5,316.7,209.5,317.5,210,317.5L210,317.5z"/>
		</g>
	</g>
	<g>
		<g>
			<path class="st6" d="M211.9,315.7c0.5,0,0.5-0.8,0-0.8C211.4,315,211.4,315.7,211.9,315.7L211.9,315.7z"/>
		</g>
	</g>
	<g>
		<g>
			<path class="st6" d="M198.1,315.1c0.5,0,0.5-0.8,0-0.8C197.6,314.4,197.6,315.1,198.1,315.1L198.1,315.1z"/>
		</g>
	</g>
	<g>
		<g>
			<path class="st6" d="M198.6,320c0.5,0,0.5-0.8,0-0.8C198.1,319.2,198.1,320,198.6,320L198.6,320z"/>
		</g>
	</g>
	<g>
		<g>
			<path class="st6" d="M193,317.9c0.5,0,0.5-0.8,0-0.8C192.5,317.1,192.5,317.9,193,317.9L193,317.9z"/>
		</g>
	</g>
	<g>
		<g>
			<path class="st6" d="M191.5,314.5c0.5,0,0.5-0.8,0-0.8C191,313.7,191,314.5,191.5,314.5L191.5,314.5z"/>
		</g>
	</g>
	<g>
		<g>
			<path class="st6" d="M190.2,312.5c0.5,0,0.5-0.8,0-0.8C189.7,311.8,189.7,312.5,190.2,312.5L190.2,312.5z"/>
		</g>
	</g>
	<g>
		<g>
			<path class="st6" d="M189.2,309.2c0.5,0,0.5-0.8,0-0.8C188.7,308.5,188.7,309.2,189.2,309.2L189.2,309.2z"/>
		</g>
	</g>
	<path class="st5" d="M253.5,312.7c0,16.2,8.5,22.3,19.1,22.3c10.5,0,19.1-6.1,19.1-22.3c0-45.1-8.5-60.3-19.1-60.3
		C262.1,252.4,253.5,272.6,253.5,312.7z"/>
	<g>
		<g>
			<path class="st6" d="M267.4,280.8c0.5,0,0.5-0.8,0-0.8C267,280.1,267,280.8,267.4,280.8L267.4,280.8z"/>
		</g>
	</g>
	<g>
		<g>
			<path class="st6" d="M274.4,274.3c0.5,0,0.5-0.8,0-0.8C274,273.6,274,274.3,274.4,274.3L274.4,274.3z"/>
		</g>
	</g>
	<g>
		<g>
			<path class="st6" d="M277.4,266.8c0.5,0,0.5-0.8,0-0.8C277,266.1,277,266.8,277.4,266.8L277.4,266.8z"/>
		</g>
	</g>
	<g>
		<g>
			<path class="st6" d="M279.9,260.8c0.5,0,0.5-0.8,0-0.8C279.5,260.1,279.5,260.8,279.9,260.8L279.9,260.8z"/>
		</g>
	</g>
	<g>
		<g>
			<path class="st6" d="M279.4,276.3c0.5,0,0.5-0.8,0-0.8C279,275.6,279,276.3,279.4,276.3L279.4,276.3z"/>
		</g>
	</g>
	<g>
		<g>
			<path class="st6" d="M277.9,294.8c0.5,0,0.5-0.8,0-0.8C277.5,294.1,277.5,294.8,277.9,294.8L277.9,294.8z"/>
		</g>
	</g>
	<g>
		<g>
			<path class="st6" d="M283.4,299.3c0.5,0,0.5-0.8,0-0.8C283,298.6,283,299.3,283.4,299.3L283.4,299.3z"/>
		</g>
	</g>
	<g>
		<g>
			<path class="st6" d="M284.9,289.3c0.5,0,0.5-0.8,0-0.8C284.5,288.6,284.5,289.3,284.9,289.3L284.9,289.3z"/>
		</g>
	</g>
	<g>
		<g>
			<path class="st6" d="M285.4,308.3c0.5,0,0.5-0.8,0-0.8C285,307.6,285,308.3,285.4,308.3L285.4,308.3z"/>
		</g>
	</g>
	<g>
		<g>
			<path class="st6" d="M283.9,321.8c0.5,0,0.5-0.8,0-0.8C283.5,321.1,283.5,321.8,283.9,321.8L283.9,321.8z"/>
		</g>
	</g>
	<g>
		<g>
			<path class="st6" d="M277.4,313.8c0.5,0,0.5-0.8,0-0.8C277,313.1,277,313.8,277.4,313.8L277.4,313.8z"/>
		</g>
	</g>
	<g>
		<g>
			<path class="st6" d="M278.4,310.3c0.5,0,0.5-0.8,0-0.8C278,309.6,278,310.3,278.4,310.3L278.4,310.3z"/>
		</g>
	</g>
	<g>
		<g>
			<path class="st6" d="M282.9,306.8c0.5,0,0.5-0.8,0-0.8C282.5,306.1,282.5,306.8,282.9,306.8L282.9,306.8z"/>
		</g>
	</g>
	<g>
		<g>
			<path class="st6" d="M277.9,300.8c0.5,0,0.5-0.8,0-0.8C277.5,300.1,277.5,300.8,277.9,300.8L277.9,300.8z"/>
		</g>
	</g>
	<g>
		<g>
			<path class="st6" d="M271.9,309.8c0.5,0,0.5-0.8,0-0.8C271.5,309.1,271.5,309.8,271.9,309.8L271.9,309.8z"/>
		</g>
	</g>
	<g>
		<g>
			<path class="st6" d="M275.4,316.8c0.5,0,0.5-0.8,0-0.8C275,316.1,275,316.8,275.4,316.8L275.4,316.8z"/>
		</g>
	</g>
	<g>
		<g>
			<path class="st6" d="M266.4,295.3c0.5,0,0.5-0.8,0-0.8C266,294.6,266,295.3,266.4,295.3L266.4,295.3z"/>
		</g>
	</g>
	<g>
		<g>
			<path class="st6" d="M274.9,292.3c0.5,0,0.5-0.8,0-0.8C274.5,291.6,274.5,292.3,274.9,292.3L274.9,292.3z"/>
		</g>
	</g>
	<g>
		<g>
			<path class="st6" d="M270.9,313.8c0.5,0,0.5-0.8,0-0.8C270.5,313.1,270.5,313.8,270.9,313.8L270.9,313.8z"/>
		</g>
	</g>
	<g>
		<g>
			<path class="st6" d="M274.4,323.3c0.5,0,0.5-0.8,0-0.8C274,322.6,274,323.3,274.4,323.3L274.4,323.3z"/>
		</g>
	</g>
	<g>
		<g>
			<path class="st6" d="M275.9,328.3c0.5,0,0.5-0.8,0-0.8C275.5,327.6,275.5,328.3,275.9,328.3L275.9,328.3z"/>
		</g>
	</g>
	<g>
		<g>
			<path class="st6" d="M265.4,290.8c0.5,0,0.5-0.8,0-0.8C265,290.1,265,290.8,265.4,290.8L265.4,290.8z"/>
		</g>
	</g>
	<g>
		<g>
			<path class="st6" d="M271.9,318.8c0.5,0,0.5-0.8,0-0.8C271.5,318.1,271.5,318.8,271.9,318.8L271.9,318.8z"/>
		</g>
	</g>
	<g>
		<g>
			<path class="st6" d="M272.4,316.3c0.5,0,0.5-0.8,0-0.8C272,315.6,272,316.3,272.4,316.3L272.4,316.3z"/>
		</g>
	</g>
	<g>
		<g>
			<path class="st6" d="M283.9,314.3c0.5,0,0.5-0.8,0-0.8C283.5,313.6,283.5,314.3,283.9,314.3L283.9,314.3z"/>
		</g>
	</g>
	<g>
		<g>
			<path class="st6" d="M284.9,309.3c0.5,0,0.5-0.8,0-0.8C284.5,308.6,284.5,309.3,284.9,309.3L284.9,309.3z"/>
		</g>
	</g>
	<g>
		<g>
			<path class="st6" d="M288.4,320.3c0.5,0,0.5-0.8,0-0.8C288,319.6,288,320.3,288.4,320.3L288.4,320.3z"/>
		</g>
	</g>
	<g>
		<g>
			<path class="st6" d="M286.4,324.8c0.5,0,0.5-0.8,0-0.8C286,324.1,286,324.8,286.4,324.8L286.4,324.8z"/>
		</g>
	</g>
	<g>
		<g>
			<path class="st6" d="M281.4,327.3c0.5,0,0.5-0.8,0-0.8C281,326.6,281,327.3,281.4,327.3L281.4,327.3z"/>
		</g>
	</g>
	<g>
		<g>
			<path class="st6" d="M280.9,309.3c0.5,0,0.5-0.8,0-0.8C280.5,308.6,280.5,309.3,280.9,309.3L280.9,309.3z"/>
		</g>
	</g>
	<g>
		<g>
			<path class="st6" d="M285.4,297.3c0.5,0,0.5-0.8,0-0.8C285,296.6,285,297.3,285.4,297.3L285.4,297.3z"/>
		</g>
	</g>
	<g>
		<g>
			<path class="st6" d="M286.9,288.3c0.5,0,0.5-0.8,0-0.8C286.5,287.6,286.5,288.3,286.9,288.3L286.9,288.3z"/>
		</g>
	</g>
	<g>
		<g>
			<path class="st6" d="M284.4,281.3c0.5,0,0.5-0.8,0-0.8C284,280.6,284,281.3,284.4,281.3L284.4,281.3z"/>
		</g>
	</g>
	<g>
		<g>
			<path class="st6" d="M284.4,275.8c0.5,0,0.5-0.8,0-0.8C284,275.1,284,275.8,284.4,275.8L284.4,275.8z"/>
		</g>
	</g>
	<g>
		<g>
			<path class="st6" d="M271.6,318.8c0.5,0,0.5-0.8,0-0.8C271.1,318.1,271.1,318.8,271.6,318.8L271.6,318.8z"/>
		</g>
	</g>
	<g>
		<g>
			<path class="st6" d="M268.3,320.2c0.5,0,0.5-0.8,0-0.8C267.8,319.4,267.8,320.2,268.3,320.2L268.3,320.2z"/>
		</g>
	</g>
	<g>
		<g>
			<path class="st6" d="M271.6,328.2c0.5,0,0.5-0.8,0-0.8C271.1,327.4,271.1,328.2,271.6,328.2L271.6,328.2z"/>
		</g>
	</g>
	<g>
		<g>
			<path class="st6" d="M270.9,333.2c0.5,0,0.5-0.8,0-0.8C270.5,332.4,270.5,333.2,270.9,333.2L270.9,333.2z"/>
		</g>
	</g>
	<g>
		<g>
			<path class="st6" d="M278.9,330.8c0.5,0,0.5-0.8,0-0.8C278.5,330.1,278.5,330.8,278.9,330.8L278.9,330.8z"/>
		</g>
	</g>
	<g>
		<g>
			<path class="st6" d="M283.6,327.5c0.5,0,0.5-0.8,0-0.8C283.1,326.8,283.1,327.5,283.6,327.5L283.6,327.5z"/>
		</g>
	</g>
	<g>
		<g>
			<path class="st6" d="M286.3,319.2c0.5,0,0.5-0.8,0-0.8C285.8,318.4,285.8,319.2,286.3,319.2L286.3,319.2z"/>
		</g>
	</g>
	<g>
		<g>
			<path class="st6" d="M282.6,315.8c0.5,0,0.5-0.8,0-0.8C282.1,315.1,282.1,315.8,282.6,315.8L282.6,315.8z"/>
		</g>
	</g>
	<g>
		<g>
			<path class="st6" d="M281.3,319.8c0.5,0,0.5-0.8,0-0.8C280.8,319.1,280.8,319.8,281.3,319.8L281.3,319.8z"/>
		</g>
	</g>
	<g>
		<g>
			<path class="st6" d="M288.3,317.5c0.5,0,0.5-0.8,0-0.8C287.8,316.8,287.8,317.5,288.3,317.5L288.3,317.5z"/>
		</g>
	</g>
	<g>
		<g>
			<path class="st6" d="M289.9,321.2c0.5,0,0.5-0.8,0-0.8C289.5,320.4,289.5,321.2,289.9,321.2L289.9,321.2z"/>
		</g>
	</g>
	<g>
		<g>
			<path class="st6" d="M286.6,325.5c0.5,0,0.5-0.8,0-0.8C286.1,324.8,286.1,325.5,286.6,325.5L286.6,325.5z"/>
		</g>
	</g>
	<g>
		<g>
			<path class="st6" d="M288.3,322.5c0.5,0,0.5-0.8,0-0.8C287.8,321.8,287.8,322.5,288.3,322.5L288.3,322.5z"/>
		</g>
	</g>
	<g>
		<g>
			<path class="st6" d="M284.6,321.5c0.5,0,0.5-0.8,0-0.8C284.1,320.8,284.1,321.5,284.6,321.5L284.6,321.5z"/>
		</g>
	</g>
	<path class="st7" d="M202.5,301.7c0,28.2,14.6,38.8,32.7,38.8s32.7-10.6,32.7-38.8c0-28.2-14.6-105-32.7-105
		S202.5,273.6,202.5,301.7z"/>
	<g>
		<g>
			<path class="st6" d="M212.7,248.8c0.5,0,0.5-0.8,0-0.8C212.2,248,212.2,248.8,212.7,248.8L212.7,248.8z"/>
		</g>
	</g>
	<g>
		<g>
			<path class="st6" d="M216.7,244.3c0.5,0,0.5-0.8,0-0.8C216.2,243.5,216.2,244.3,216.7,244.3L216.7,244.3z"/>
		</g>
	</g>
	<g>
		<g>
			<path class="st6" d="M215.7,249.8c0.5,0,0.5-0.8,0-0.8C215.2,249,215.2,249.8,215.7,249.8L215.7,249.8z"/>
		</g>
	</g>
	<g>
		<g>
			<path class="st6" d="M212.7,258.3c0.5,0,0.5-0.8,0-0.8C212.2,257.5,212.2,258.3,212.7,258.3L212.7,258.3z"/>
		</g>
	</g>
	<g>
		<g>
			<path class="st6" d="M211.7,253.8c0.5,0,0.5-0.8,0-0.8C211.2,253,211.2,253.8,211.7,253.8L211.7,253.8z"/>
		</g>
	</g>
	<g>
		<g>
			<path class="st6" d="M218.7,253.8c0.5,0,0.5-0.8,0-0.8C218.2,253,218.2,253.8,218.7,253.8L218.7,253.8z"/>
		</g>
	</g>
	<g>
		<g>
			<path class="st6" d="M221.2,239.8c0.5,0,0.5-0.8,0-0.8C220.7,239,220.7,239.8,221.2,239.8L221.2,239.8z"/>
		</g>
	</g>
	<g>
		<g>
			<path class="st6" d="M223.2,235.8c0.5,0,0.5-0.8,0-0.8C222.7,235,222.7,235.8,223.2,235.8L223.2,235.8z"/>
		</g>
	</g>
	<g>
		<g>
			<path class="st6" d="M221.7,217.8c0.5,0,0.5-0.8,0-0.8C221.2,217,221.2,217.8,221.7,217.8L221.7,217.8z"/>
		</g>
	</g>
	<g>
		<g>
			<path class="st6" d="M217.2,224.3c0.5,0,0.5-0.8,0-0.8C216.7,223.5,216.7,224.3,217.2,224.3L217.2,224.3z"/>
		</g>
	</g>
	<g>
		<g>
			<path class="st6" d="M218.2,232.3c0.5,0,0.5-0.8,0-0.8C217.7,231.5,217.7,232.3,218.2,232.3L218.2,232.3z"/>
		</g>
	</g>
	<g>
		<g>
			<path class="st6" d="M220.2,227.8c0.5,0,0.5-0.8,0-0.8C219.7,227,219.7,227.8,220.2,227.8L220.2,227.8z"/>
		</g>
	</g>
	<g>
		<g>
			<path class="st6" d="M220.2,223.8c0.5,0,0.5-0.8,0-0.8C219.7,223,219.7,223.8,220.2,223.8L220.2,223.8z"/>
		</g>
	</g>
	<g>
		<g>
			<path class="st6" d="M220.2,243.3c0.5,0,0.5-0.8,0-0.8C219.7,242.5,219.7,243.3,220.2,243.3L220.2,243.3z"/>
		</g>
	</g>
	<g>
		<g>
			<path class="st6" d="M218.7,259.8c0.5,0,0.5-0.8,0-0.8C218.2,259,218.2,259.8,218.7,259.8L218.7,259.8z"/>
		</g>
	</g>
	<g>
		<g>
			<path class="st6" d="M212.2,267.3c0.5,0,0.5-0.8,0-0.8C211.7,266.5,211.7,267.3,212.2,267.3L212.2,267.3z"/>
		</g>
	</g>
	<g>
		<g>
			<path class="st6" d="M208.7,271.8c0.5,0,0.5-0.8,0-0.8C208.2,271,208.2,271.8,208.7,271.8L208.7,271.8z"/>
		</g>
	</g>
	<g>
		<g>
			<path class="st6" d="M206.2,281.8c0.5,0,0.5-0.8,0-0.8C205.7,281,205.7,281.8,206.2,281.8L206.2,281.8z"/>
		</g>
	</g>
	<g>
		<g>
			<path class="st6" d="M207.7,289.8c0.5,0,0.5-0.8,0-0.8C207.2,289,207.2,289.8,207.7,289.8L207.7,289.8z"/>
		</g>
	</g>
	<g>
		<g>
			<path class="st6" d="M214.7,294.8c0.5,0,0.5-0.8,0-0.8C214.2,294,214.2,294.8,214.7,294.8L214.7,294.8z"/>
		</g>
	</g>
	<g>
		<g>
			<path class="st6" d="M212.2,298.3c0.5,0,0.5-0.8,0-0.8C211.7,297.5,211.7,298.3,212.2,298.3L212.2,298.3z"/>
		</g>
	</g>
	<g>
		<g>
			<path class="st6" d="M209.7,315.3c0.5,0,0.5-0.8,0-0.8C209.2,314.5,209.2,315.3,209.7,315.3L209.7,315.3z"/>
		</g>
	</g>
	<g>
		<g>
			<path class="st6" d="M211.7,321.3c0.5,0,0.5-0.8,0-0.8C211.2,320.5,211.2,321.3,211.7,321.3L211.7,321.3z"/>
		</g>
	</g>
	<g>
		<g>
			<path class="st6" d="M217.2,326.8c0.5,0,0.5-0.8,0-0.8C216.7,326,216.7,326.8,217.2,326.8L217.2,326.8z"/>
		</g>
	</g>
	<g>
		<g>
			<path class="st6" d="M221.2,321.3c0.5,0,0.5-0.8,0-0.8C220.7,320.5,220.7,321.3,221.2,321.3L221.2,321.3z"/>
		</g>
	</g>
	<g>
		<g>
			<path class="st6" d="M221.2,319.3c0.5,0,0.5-0.8,0-0.8C220.7,318.5,220.7,319.3,221.2,319.3L221.2,319.3z"/>
		</g>
	</g>
	<g>
		<g>
			<path class="st6" d="M212.7,310.3c0.5,0,0.5-0.8,0-0.8C212.2,309.5,212.2,310.3,212.7,310.3L212.7,310.3z"/>
		</g>
	</g>
	<g>
		<g>
			<path class="st6" d="M217.2,307.8c0.5,0,0.5-0.8,0-0.8C216.7,307,216.7,307.8,217.2,307.8L217.2,307.8z"/>
		</g>
	</g>
	<g>
		<g>
			<path class="st6" d="M219.7,314.8c0.5,0,0.5-0.8,0-0.8C219.2,314,219.2,314.8,219.7,314.8L219.7,314.8z"/>
		</g>
	</g>
	<g>
		<g>
			<path class="st6" d="M216.2,316.3c0.5,0,0.5-0.8,0-0.8C215.7,315.5,215.7,316.3,216.2,316.3L216.2,316.3z"/>
		</g>
	</g>
	<g>
		<g>
			<path class="st6" d="M214.2,320.3c0.5,0,0.5-0.8,0-0.8C213.7,319.5,213.7,320.3,214.2,320.3L214.2,320.3z"/>
		</g>
	</g>
	<g>
		<g>
			<path class="st6" d="M221.2,306.8c0.5,0,0.5-0.8,0-0.8C220.7,306,220.7,306.8,221.2,306.8L221.2,306.8z"/>
		</g>
	</g>
	<g>
		<g>
			<path class="st6" d="M222.7,298.3c0.5,0,0.5-0.8,0-0.8C222.2,297.5,222.2,298.3,222.7,298.3L222.7,298.3z"/>
		</g>
	</g>
	<g>
		<g>
			<path class="st6" d="M219.7,288.3c0.5,0,0.5-0.8,0-0.8C219.2,287.5,219.2,288.3,219.7,288.3L219.7,288.3z"/>
		</g>
	</g>
	<g>
		<g>
			<path class="st6" d="M220.2,279.8c0.5,0,0.5-0.8,0-0.8C219.7,279,219.7,279.8,220.2,279.8L220.2,279.8z"/>
		</g>
	</g>
	<g>
		<g>
			<path class="st6" d="M213.7,279.8c0.5,0,0.5-0.8,0-0.8C213.2,279,213.2,279.8,213.7,279.8L213.7,279.8z"/>
		</g>
	</g>
	<g>
		<g>
			<path class="st6" d="M212.7,287.8c0.5,0,0.5-0.8,0-0.8C212.2,287,212.2,287.8,212.7,287.8L212.7,287.8z"/>
		</g>
	</g>
	<g>
		<g>
			<path class="st6" d="M204.7,300.3c0.5,0,0.5-0.8,0-0.8C204.2,299.5,204.2,300.3,204.7,300.3L204.7,300.3z"/>
		</g>
	</g>
	<g>
		<g>
			<path class="st6" d="M205.2,309.8c0.5,0,0.5-0.8,0-0.8C204.7,309,204.7,309.8,205.2,309.8L205.2,309.8z"/>
		</g>
	</g>
	<g>
		<g>
			<path class="st6" d="M209.2,322.3c0.5,0,0.5-0.8,0-0.8C208.7,321.5,208.7,322.3,209.2,322.3L209.2,322.3z"/>
		</g>
	</g>
	<g>
		<g>
			<path class="st6" d="M214.2,332.3c0.5,0,0.5-0.8,0-0.8C213.7,331.5,213.7,332.3,214.2,332.3L214.2,332.3z"/>
		</g>
	</g>
	<g>
		<g>
			<path class="st6" d="M221.7,335.3c0.5,0,0.5-0.8,0-0.8C221.2,334.5,221.2,335.3,221.7,335.3L221.7,335.3z"/>
		</g>
	</g>
	<g>
		<g>
			<path class="st6" d="M227.7,324.3c0.5,0,0.5-0.8,0-0.8C227.2,323.5,227.2,324.3,227.7,324.3L227.7,324.3z"/>
		</g>
	</g>
	<g>
		<g>
			<path class="st6" d="M232.2,312.3c0.5,0,0.5-0.8,0-0.8C231.7,311.5,231.7,312.3,232.2,312.3L232.2,312.3z"/>
		</g>
	</g>
	<g>
		<g>
			<path class="st6" d="M231.7,294.3c0.5,0,0.5-0.8,0-0.8C231.2,293.5,231.2,294.3,231.7,294.3L231.7,294.3z"/>
		</g>
	</g>
	<g>
		<g>
			<path class="st6" d="M225.2,287.3c0.5,0,0.5-0.8,0-0.8C224.7,286.5,224.7,287.3,225.2,287.3L225.2,287.3z"/>
		</g>
	</g>
	<g>
		<g>
			<path class="st6" d="M223.7,303.3c0.5,0,0.5-0.8,0-0.8C223.2,302.5,223.2,303.3,223.7,303.3L223.7,303.3z"/>
		</g>
	</g>
	<g>
		<g>
			<path class="st6" d="M215.2,299.3c0.5,0,0.5-0.8,0-0.8C214.7,298.5,214.7,299.3,215.2,299.3L215.2,299.3z"/>
		</g>
	</g>
	<g>
		<g>
			<path class="st6" d="M217.7,311.3c0.5,0,0.5-0.8,0-0.8C217.2,310.5,217.2,311.3,217.7,311.3L217.7,311.3z"/>
		</g>
	</g>
	<g>
		<g>
			<path class="st6" d="M229.7,313.3c0.5,0,0.5-0.8,0-0.8C229.2,312.5,229.2,313.3,229.7,313.3L229.7,313.3z"/>
		</g>
	</g>
	<g>
		<g>
			<path class="st6" d="M233.7,319.3c0.5,0,0.5-0.8,0-0.8C233.2,318.5,233.2,319.3,233.7,319.3L233.7,319.3z"/>
		</g>
	</g>
	<g>
		<g>
			<path class="st6" d="M224.2,330.8c0.5,0,0.5-0.8,0-0.8C223.7,330,223.7,330.8,224.2,330.8L224.2,330.8z"/>
		</g>
	</g>
	<g>
		<g>
			<path class="st6" d="M235.2,323.8c0.5,0,0.5-0.8,0-0.8C234.7,323,234.7,323.8,235.2,323.8L235.2,323.8z"/>
		</g>
	</g>
	<g>
		<g>
			<path class="st6" d="M226.2,312.8c0.5,0,0.5-0.8,0-0.8C225.7,312,225.7,312.8,226.2,312.8L226.2,312.8z"/>
		</g>
	</g>
	<g>
		<g>
			<path class="st6" d="M224.7,322.8c0.5,0,0.5-0.8,0-0.8C224.2,322,224.2,322.8,224.7,322.8L224.7,322.8z"/>
		</g>
	</g>
	<g>
		<g>
			<path class="st6" d="M232.2,311.3c0.5,0,0.5-0.8,0-0.8C231.7,310.5,231.7,311.3,232.2,311.3L232.2,311.3z"/>
		</g>
	</g>
	<g>
		<g>
			<path class="st6" d="M232.7,303.3c0.5,0,0.5-0.8,0-0.8C232.2,302.5,232.2,303.3,232.7,303.3L232.7,303.3z"/>
		</g>
	</g>
	<g>
		<g>
			<path class="st6" d="M233.7,301.3c0.5,0,0.5-0.8,0-0.8C233.2,300.5,233.2,301.3,233.7,301.3L233.7,301.3z"/>
		</g>
	</g>
	<g>
		<g>
			<path class="st6" d="M239.2,304.3c0.5,0,0.5-0.8,0-0.8C238.7,303.5,238.7,304.3,239.2,304.3L239.2,304.3z"/>
		</g>
	</g>
	<g>
		<g>
			<path class="st6" d="M239.2,322.8c0.5,0,0.5-0.8,0-0.8C238.7,322,238.7,322.8,239.2,322.8L239.2,322.8z"/>
		</g>
	</g>
	<g>
		<g>
			<path class="st6" d="M229.2,327.3c0.5,0,0.5-0.8,0-0.8C228.7,326.5,228.7,327.3,229.2,327.3L229.2,327.3z"/>
		</g>
	</g>
	<g>
		<g>
			<path class="st6" d="M244.2,341.3c0.5,0,0.5-0.8,0-0.8C243.7,340.5,243.7,341.3,244.2,341.3L244.2,341.3z"/>
		</g>
	</g>
	<g>
		<g>
			<path class="st6" d="M227.7,340.8c0.5,0,0.5-0.8,0-0.8C227.2,340,227.2,340.8,227.7,340.8L227.7,340.8z"/>
		</g>
	</g>
	<g>
		<g>
			<path class="st6" d="M223.7,332.8c0.5,0,0.5-0.8,0-0.8C223.2,332,223.2,332.8,223.7,332.8L223.7,332.8z"/>
		</g>
	</g>
	<g>
		<g>
			<path class="st6" d="M227.7,334.8c0.5,0,0.5-0.8,0-0.8C227.2,334,227.2,334.8,227.7,334.8L227.7,334.8z"/>
		</g>
	</g>
	<g>
		<g>
			<path class="st6" d="M232.2,336.3c0.5,0,0.5-0.8,0-0.8C231.7,335.5,231.7,336.3,232.2,336.3L232.2,336.3z"/>
		</g>
	</g>
	<g>
		<g>
			<path class="st6" d="M206.2,321.8c0.5,0,0.5-0.8,0-0.8C205.7,321,205.7,321.8,206.2,321.8L206.2,321.8z"/>
		</g>
	</g>
	<g>
		<g>
			<path class="st6" d="M204.2,310.8c0.5,0,0.5-0.8,0-0.8C203.7,310,203.7,310.8,204.2,310.8L204.2,310.8z"/>
		</g>
	</g>
	<g>
		<g>
			<path class="st6" d="M207.2,300.3c0.5,0,0.5-0.8,0-0.8C206.7,299.5,206.7,300.3,207.2,300.3L207.2,300.3z"/>
		</g>
	</g>
	<g>
		<g>
			<path class="st6" d="M210.7,305.8c0.5,0,0.5-0.8,0-0.8C210.2,305,210.2,305.8,210.7,305.8L210.7,305.8z"/>
		</g>
	</g>
	<g>
		<g>
			<path class="st6" d="M207.2,307.8c0.5,0,0.5-0.8,0-0.8C206.7,307,206.7,307.8,207.2,307.8L207.2,307.8z"/>
		</g>
	</g>
	<g>
		<g>
			<path class="st6" d="M209.2,288.3c0.5,0,0.5-0.8,0-0.8C208.7,287.5,208.7,288.3,209.2,288.3L209.2,288.3z"/>
		</g>
	</g>
	<g>
		<g>
			<path class="st6" d="M216.7,309.3c0.5,0,0.5-0.8,0-0.8C216.2,308.5,216.2,309.3,216.7,309.3L216.7,309.3z"/>
		</g>
	</g>
	<g>
		<g>
			<path class="st6" d="M207.7,297.8c0.5,0,0.5-0.8,0-0.8C207.2,297,207.2,297.8,207.7,297.8L207.7,297.8z"/>
		</g>
	</g>
	<g>
		<g>
			<path class="st6" d="M204.7,293.3c0.5,0,0.5-0.8,0-0.8C204.2,292.5,204.2,293.3,204.7,293.3L204.7,293.3z"/>
		</g>
	</g>
	<g>
		<g>
			<path class="st6" d="M255.7,312.8c0.5,0,0.5-0.8,0-0.8C255.2,312,255.2,312.8,255.7,312.8L255.7,312.8z"/>
		</g>
	</g>
	<g>
		<g>
			<path class="st6" d="M258.7,321.3c0.5,0,0.5-0.8,0-0.8C258.2,320.5,258.2,321.3,258.7,321.3L258.7,321.3z"/>
		</g>
	</g>
	<g>
		<g>
			<path class="st6" d="M251.2,333.8c0.5,0,0.5-0.8,0-0.8C250.7,333,250.7,333.8,251.2,333.8L251.2,333.8z"/>
		</g>
	</g>
	<g>
		<g>
			<path class="st6" d="M227.2,341.3c0.5,0,0.5-0.8,0-0.8C226.7,340.5,226.7,341.3,227.2,341.3L227.2,341.3z"/>
		</g>
	</g>
	<g>
		<g>
			<path class="st6" d="M227.7,313.8c0.5,0,0.5-0.8,0-0.8C227.2,313,227.2,313.8,227.7,313.8L227.7,313.8z"/>
		</g>
	</g>
	<g>
		<g>
			<path class="st6" d="M225.2,296.8c0.5,0,0.5-0.8,0-0.8C224.7,296,224.7,296.8,225.2,296.8L225.2,296.8z"/>
		</g>
	</g>
	<g>
		<g>
			<path class="st6" d="M228.2,288.8c0.5,0,0.5-0.8,0-0.8C227.7,288,227.7,288.8,228.2,288.8L228.2,288.8z"/>
		</g>
	</g>
	<g>
		<g>
			<path class="st6" d="M229.2,275.3c0.5,0,0.5-0.8,0-0.8C228.7,274.5,228.7,275.3,229.2,275.3L229.2,275.3z"/>
		</g>
	</g>
	<g>
		<g>
			<path class="st6" d="M230.7,262.3c0.5,0,0.5-0.8,0-0.8C230.2,261.5,230.2,262.3,230.7,262.3L230.7,262.3z"/>
		</g>
	</g>
	<g>
		<g>
			<path class="st6" d="M231.2,245.3c0.5,0,0.5-0.8,0-0.8C230.7,244.5,230.7,245.3,231.2,245.3L231.2,245.3z"/>
		</g>
	</g>
	<g>
		<g>
			<path class="st6" d="M250.7,286.8c0.5,0,0.5-0.8,0-0.8C250.2,286,250.2,286.8,250.7,286.8L250.7,286.8z"/>
		</g>
	</g>
	<g>
		<g>
			<path class="st6" d="M250.7,269.3c0.5,0,0.5-0.8,0-0.8C250.2,268.5,250.2,269.3,250.7,269.3L250.7,269.3z"/>
		</g>
	</g>
	<g>
		<g>
			<path class="st6" d="M242.7,281.8c0.5,0,0.5-0.8,0-0.8C242.2,281,242.2,281.8,242.7,281.8L242.7,281.8z"/>
		</g>
	</g>
	<g>
		<g>
			<path class="st6" d="M260.2,300.8c0.5,0,0.5-0.8,0-0.8C259.7,300,259.7,300.8,260.2,300.8L260.2,300.8z"/>
		</g>
	</g>
	<g>
		<g>
			<path class="st6" d="M256.7,261.8c0.5,0,0.5-0.8,0-0.8C256.2,261,256.2,261.8,256.7,261.8L256.7,261.8z"/>
		</g>
	</g>
	<g>
		<g>
			<path class="st6" d="M262.2,279.8c0.5,0,0.5-0.8,0-0.8C261.7,279,261.7,279.8,262.2,279.8L262.2,279.8z"/>
		</g>
	</g>
	<g>
		<g>
			<path class="st6" d="M251.2,298.8c0.5,0,0.5-0.8,0-0.8C250.7,298,250.7,298.8,251.2,298.8L251.2,298.8z"/>
		</g>
	</g>
	<g>
		<g>
			<path class="st6" d="M205.2,313.3c0.5,0,0.5-0.8,0-0.8C204.7,312.5,204.7,313.3,205.2,313.3L205.2,313.3z"/>
		</g>
	</g>
	<g>
		<g>
			<path class="st6" d="M212.2,322.3c0.5,0,0.5-0.8,0-0.8C211.7,321.5,211.7,322.3,212.2,322.3L212.2,322.3z"/>
		</g>
	</g>
	<g>
		<g>
			<path class="st6" d="M216.2,330.3c0.5,0,0.5-0.8,0-0.8C215.7,329.5,215.7,330.3,216.2,330.3L216.2,330.3z"/>
		</g>
	</g>
	<g>
		<g>
			<path class="st6" d="M209.2,327.3c0.5,0,0.5-0.8,0-0.8C208.7,326.5,208.7,327.3,209.2,327.3L209.2,327.3z"/>
		</g>
	</g>
	<g>
		<g>
			<path class="st6" d="M220.7,332.3c0.5,0,0.5-0.8,0-0.8C220.2,331.5,220.2,332.3,220.7,332.3L220.7,332.3z"/>
		</g>
	</g>
	<g>
		<g>
			<path class="st6" d="M229.2,336.8c0.5,0,0.5-0.8,0-0.8C228.7,336,228.7,336.8,229.2,336.8L229.2,336.8z"/>
		</g>
	</g>
	<g>
		<g>
			<path class="st6" d="M241.2,337.8c0.5,0,0.5-0.8,0-0.8C240.7,337,240.7,337.8,241.2,337.8L241.2,337.8z"/>
		</g>
	</g>
	<g>
		<g>
			<path class="st6" d="M216,288.1c0.5,0,0.5-0.8,0-0.8C215.5,287.4,215.5,288.1,216,288.1L216,288.1z"/>
		</g>
	</g>
	<g>
		<g>
			<path class="st6" d="M217.7,296.1c0.5,0,0.5-0.8,0-0.8C217.2,295.4,217.2,296.1,217.7,296.1L217.7,296.1z"/>
		</g>
	</g>
	<g>
		<g>
			<path class="st6" d="M234.4,329.1c0.5,0,0.5-0.8,0-0.8C233.9,328.4,233.9,329.1,234.4,329.1L234.4,329.1z"/>
		</g>
	</g>
	<g>
		<g>
			<path class="st6" d="M228.7,332.8c0.5,0,0.5-0.8,0-0.8C228.2,332,228.2,332.8,228.7,332.8L228.7,332.8z"/>
		</g>
	</g>
	<g>
		<g>
			<path class="st6" d="M234.7,336.1c0.5,0,0.5-0.8,0-0.8C234.2,335.4,234.2,336.1,234.7,336.1L234.7,336.1z"/>
		</g>
	</g>
	<g>
		<g>
			<path class="st6" d="M245.4,337.8c0.5,0,0.5-0.8,0-0.8C244.9,337,244.9,337.8,245.4,337.8L245.4,337.8z"/>
		</g>
	</g>
	<g>
		<g>
			<path class="st6" d="M234.4,338.8c0.5,0,0.5-0.8,0-0.8C233.9,338,233.9,338.8,234.4,338.8L234.4,338.8z"/>
		</g>
	</g>
	<g>
		<g>
			<path class="st6" d="M225.4,338.4c0.5,0,0.5-0.8,0-0.8C224.9,337.7,224.9,338.4,225.4,338.4L225.4,338.4z"/>
		</g>
	</g>
	<g>
		<g>
			<path class="st6" d="M216.4,334.8c0.5,0,0.5-0.8,0-0.8C215.9,334,215.9,334.8,216.4,334.8L216.4,334.8z"/>
		</g>
	</g>
	<g>
		<g>
			<path class="st6" d="M222.4,338.4c0.5,0,0.5-0.8,0-0.8C221.9,337.7,221.9,338.4,222.4,338.4L222.4,338.4z"/>
		</g>
	</g>
</g>
<g id="Layer_2">
	<path class="st8" d="M376.9,305c-28.8,55-86.5,92.6-152.9,92.6c-50.3,0-95.6-21.5-127.1-55.9c0,0,39.5,21.1,95.2,12.7
		c40.4-6.1,92-62.6,109.5-59s56.5,15.9,66,12.6L376.9,305z"/>
</g>
<g id="Layer_1">
	<g>
		<path class="st9" d="M307.9,280.9c0,4.1,3.3,13.9,7.4,13.9c4.1,0,7.4-9.9,7.4-13.9s-3.3-7.4-7.4-7.4
			C311.2,273.5,307.9,276.8,307.9,280.9z"/>
		<path class="st9" d="M305.2,294.4c3.1,0.7,11.1,0,11.9-3.1c0.7-3.1-6.1-7.3-9.2-8.1s-6.2,1.2-6.9,4.3S302.1,293.7,305.2,294.4z"/>
		<path class="st9" d="M326.7,287c-3,0.7-9.8,4.9-9.1,7.9c0.7,3,8.6,3.7,11.7,3c3-0.7,4.9-3.8,4.2-6.8
			C332.7,288.1,329.7,286.3,326.7,287z"/>
		<path class="st9" d="M327.7,294.9c-2.7-1.6-10.5-3.2-12-0.6s3.6,8.7,6.3,10.3c2.7,1.6,6.1,0.7,7.7-2
			C331.2,300,330.3,296.5,327.7,294.9z"/>
		<path class="st9" d="M318.9,301.1c-0.6-1.9-3.7-5.9-5.6-5.3c-1.9,0.6-1.9,5.7-1.2,7.6c0.6,1.9,2.7,2.9,4.5,2.2
			C318.5,305,319.5,303,318.9,301.1z"/>
	</g>
	<g>
		<path class="st9" d="M330.3,327c3.1,2.6,12.8,6.4,15.4,3.3c2.6-3.1-2.8-12-5.9-14.6s-7.8-2.2-10.4,0.9
			C326.7,319.8,327.1,324.4,330.3,327z"/>
		<path class="st9" d="M338.9,337.8c2.5-1.9,7.1-8.5,5.3-11.1c-1.9-2.5-9.6,0-12.1,1.9c-2.5,1.9-3.1,5.5-1.2,8
			C332.7,339.2,336.3,339.7,338.9,337.8z"/>
		<path class="st9" d="M347,316.6c-1.4,2.8-2.5,10.6,0.3,12s8.4-4.2,9.8-7s0.3-6.2-2.5-7.6C351.8,312.7,348.4,313.8,347,316.6z"/>
		<path class="st9" d="M353.7,321c-2.9,1-9.2,5.9-8.2,8.9c1,2.9,9,2.8,11.9,1.8s4.5-4.3,3.4-7.2C359.9,321.5,356.7,319.9,353.7,321z
			"/>
		<path class="st9" d="M352.8,331.7c-1.8-0.7-6.9-1-7.6,0.9c-0.7,1.8,3.2,5.1,5,5.8c1.8,0.7,3.9-0.2,4.6-2
			C355.6,334.4,354.6,332.4,352.8,331.7z"/>
	</g>
	<g>
		<path class="st9" d="M324.8,302.2c-4.1,0.2-13.8,3.9-13.6,8c0.2,4.1,10.2,6.9,14.3,6.7c4.1-0.2,7.2-3.6,7-7.7
			C332.3,305.2,328.9,302,324.8,302.2z"/>
		<path class="st9" d="M311.2,300.2c-0.6,3.1,0.5,11.1,3.6,11.7c3.1,0.6,7-6.5,7.6-9.6c0.6-3.1-1.5-6.1-4.6-6.7
			C314.7,295,311.8,297,311.2,300.2z"/>
		<path class="st9" d="M319.6,321.2c-0.9-3-5.4-9.5-8.4-8.7s-3.3,8.8-2.5,11.8c0.9,3,4,4.7,7,3.9S320.4,324.2,319.6,321.2z"/>
		<path class="st9" d="M311.7,322.6c1.5-2.8,2.7-10.6,0-12c-2.8-1.5-8.5,4-10,6.8c-1.5,2.8-0.4,6.2,2.3,7.6
			C306.8,326.4,310.2,325.4,311.7,322.6z"/>
		<path class="st9" d="M305.1,314.1c1.8-0.7,5.7-4,5-5.8s-5.8-1.6-7.6-0.9s-2.7,2.8-2,4.6S303.3,314.8,305.1,314.1z"/>
	</g>
	<g>
		<path class="st9" d="M310.2,367.7c1.5-3.8,2.1-14.2-1.7-15.7c-3.8-1.5-10.5,6.4-12,10.2c-1.5,3.8,0.3,8.1,4.1,9.6
			C304.4,373.3,308.7,371.5,310.2,367.7z"/>
		<path class="st9" d="M335.4,346.8c-2.6-1.8-10.3-4.1-12.2-1.5c-1.8,2.6,3,9.1,5.6,10.9s6.2,1.2,8-1.4S338,348.6,335.4,346.8z"/>
		<path class="st9" d="M312.7,345.7c3.1,0.5,10.9-0.9,11.4-4c0.5-3.1-6.6-6.7-9.7-7.1c-3.1-0.5-5.9,1.7-6.4,4.8
			C307.5,342.3,309.7,345.2,312.7,345.7z"/>
		<path class="st9" d="M314.8,337.9c1.9,2.5,8.5,6.9,11,5c2.5-1.9-0.1-9.4-2-11.9c-1.9-2.5-5.4-2.9-7.9-1
			C313.3,331.9,312.9,335.4,314.8,337.9z"/>
		<path class="st9" d="M325.2,335.5c-0.1,2,1.2,6.8,3.2,6.9s3.8-4.6,3.9-6.6s-1.4-3.7-3.4-3.8C327,332,325.3,333.5,325.2,335.5z"/>
	</g>
	<g>
		<path class="st9" d="M286,317.4c0,4.1,3.3,13.9,7.4,13.9c4.1,0,7.4-9.9,7.4-13.9c0-4.1-3.3-7.4-7.4-7.4
			C289.3,310,286,313.3,286,317.4z"/>
		<path class="st9" d="M283.3,330.9c3.1,0.7,11.1,0,11.9-3.1c0.7-3.1-6.1-7.3-9.2-8.1s-6.2,1.2-6.9,4.3
			C278.3,327.1,280.2,330.2,283.3,330.9z"/>
		<path class="st9" d="M304.8,323.5c-3,0.7-9.8,4.9-9.1,7.9s8.6,3.7,11.7,3c3-0.7,4.9-3.8,4.2-6.8
			C310.8,324.7,307.8,322.8,304.8,323.5z"/>
		<path class="st9" d="M305.8,331.5c-2.7-1.6-10.5-3.2-12-0.6c-1.6,2.7,3.6,8.7,6.3,10.3c2.7,1.6,6.1,0.7,7.7-2
			C309.3,336.5,308.5,333.1,305.8,331.5z"/>
		<path class="st9" d="M297,337.7c-0.6-1.9-3.7-5.9-5.6-5.3c-1.9,0.6-1.9,5.7-1.2,7.6c0.6,1.9,2.7,2.9,4.5,2.2
			C296.6,341.6,297.6,339.5,297,337.7z"/>
	</g>
	<g>
		<path class="st9" d="M194,335.2c3.9,1.1,14.3,0.6,15.4-3.3c1.1-3.9-7.5-9.8-11.4-10.9c-3.9-1.1-8,1.2-9.1,5.1
			C187.8,330,190.1,334.1,194,335.2z"/>
		<path class="st9" d="M206.3,341.4c1.5-2.8,3-10.7,0.2-12.2s-8.7,3.9-10.3,6.7c-1.5,2.8-0.5,6.3,2.2,7.8S204.8,344.2,206.3,341.4z"
			/>
		<path class="st9" d="M205,318.8c-0.1,3.1,2.1,10.7,5.2,10.9c3.1,0.1,5.9-7.3,6.1-10.4c0.1-3.1-2.3-5.7-5.4-5.9
			C207.7,313.2,205.1,315.7,205,318.8z"/>
		<path class="st9" d="M216.5,330.1c-2,0.1-6.7,2-6.6,3.9c0.1,2,5,3.3,6.9,3.2c2-0.1,3.5-1.8,3.4-3.8
			C220.1,331.5,218.4,330,216.5,330.1z"/>
	</g>
	<g>
		<path class="st9" d="M277.7,371.6c3.5,2.1,13.6,4.5,15.7,1c2.1-3.5-4.5-11.4-8-13.6c-3.5-2.1-8-1.1-10.1,2.4
			C273.2,364.9,274.2,369.5,277.7,371.6z"/>
		<path class="st9" d="M287.8,381c2.2-2.2,5.8-9.5,3.6-11.7c-2.2-2.2-9.5,1.4-11.7,3.6c-2.2,2.2-2.2,5.9,0,8.1
			C282,383.3,285.6,383.3,287.8,381z"/>
		<path class="st9" d="M292.8,358.9c-1,3-0.9,10.9,2,11.9s7.7-5.4,8.7-8.4c1-3-0.6-6.1-3.6-7.1S293.7,355.9,292.8,358.9z"/>
		<path class="st9" d="M300.1,362.2c-2.8,1.5-8.2,7.2-6.8,10c1.5,2.8,9.3,1.5,12,0c2.8-1.5,3.8-4.9,2.4-7.6S302.8,360.7,300.1,362.2
			z"/>
		<path class="st9" d="M300.7,372.9c-1.9-0.4-6.9,0.1-7.4,2c-0.4,1.9,3.9,4.6,5.8,5c1.9,0.4,3.8-0.8,4.3-2.7
			C303.8,375.3,302.6,373.3,300.7,372.9z"/>
	</g>
	<g>
		<path class="st9" d="M158.6,378.4c3.9-1.3,12.2-7.5,10.9-11.4c-1.3-3.9-11.7-3.9-15.5-2.6c-3.9,1.3-6,5.5-4.7,9.3
			C150.6,377.6,154.7,379.7,158.6,378.4z"/>
		<path class="st9" d="M181.2,380.8c-0.3-3.2-3.5-10.6-6.7-10.3c-3.2,0.3-5,8.1-4.7,11.3s3.1,5.5,6.2,5.2
			C179.1,386.8,181.5,384,181.2,380.8z"/>
		<path class="st9" d="M158.5,358.7c1.6,2.6,7.8,7.7,10.4,6.1c2.6-1.6,0.8-9.4-0.8-12c-1.6-2.6-5.1-3.5-7.8-1.8
			C157.7,352.6,156.9,356.1,158.5,358.7z"/>
		<path class="st9" d="M175.7,347.4c-0.7,3,0.2,10.9,3.3,11.6s7.1-6.2,7.8-9.2c0.7-3-1.3-6-4.3-6.7
			C179.4,342.4,176.4,344.4,175.7,347.4z"/>
		<path class="st9" d="M174.4,361.7c-1.6,1.2-4.4,5.4-3.2,6.9c1.2,1.6,6,0,7.6-1.2s1.9-3.4,0.7-5
			C178.2,360.8,175.9,360.5,174.4,361.7z"/>
	</g>
	<g>
		<path class="st9" d="M267.5,326.8c-2,3.6-3.8,13.8-0.3,15.8c3.6,2,11.2-5.1,13.2-8.6c2-3.6,0.7-8-2.9-10
			C274,322,269.5,323.3,267.5,326.8z"/>
		<path class="st9" d="M258.6,337.4c2.3,2.1,9.7,5.4,11.9,3s-1.8-9.4-4.2-11.5s-6-2-8.1,0.4C256.1,331.6,256.3,335.2,258.6,337.4z"
			/>
		<path class="st9" d="M281,341.3c-3-0.8-10.9-0.4-11.8,2.6s5.7,7.5,8.7,8.3s6.1-0.9,6.9-3.9S284,342.1,281,341.3z"/>
		<path class="st9" d="M278,348.7c-1.6-2.7-7.6-7.9-10.3-6.3s-1,9.4,0.5,12s5,3.6,7.7,2C278.7,354.8,279.6,351.4,278,348.7z"/>
		<path class="st9" d="M267.3,349.8c0.3-1.9-0.4-6.9-2.3-7.3s-4.4,4.1-4.7,6c-0.3,1.9,0.9,3.8,2.9,4.2S267,351.8,267.3,349.8z"/>
	</g>
	<g>
		<path class="st9" d="M246.7,325.7c-2,3.6-3.8,13.8-0.3,15.8c3.6,2,11.2-5.1,13.2-8.6c2-3.6,0.7-8-2.9-10
			C253.2,320.9,248.7,322.2,246.7,325.7z"/>
		<path class="st9" d="M237.8,336.3c2.3,2.1,9.7,5.4,11.9,3c2.1-2.3-1.8-9.4-4.2-11.5s-6-2-8.1,0.4
			C235.3,330.5,235.5,334.1,237.8,336.3z"/>
		<path class="st9" d="M260.2,340.2c-3-0.8-10.9-0.4-11.8,2.6c-0.8,3,5.7,7.5,8.7,8.3c3,0.8,6.1-0.9,6.9-3.9S263.2,341,260.2,340.2z
			"/>
		<path class="st9" d="M257.2,347.6c-1.6-2.7-7.6-7.9-10.3-6.3c-2.7,1.6-1,9.4,0.5,12c1.6,2.7,5,3.6,7.7,2
			C257.9,353.8,258.8,350.3,257.2,347.6z"/>
		<path class="st9" d="M246.5,348.8c0.3-1.9-0.4-6.9-2.3-7.3c-1.9-0.3-4.4,4.1-4.7,6c-0.3,1.9,0.9,3.8,2.9,4.2
			C244.3,352,246.2,350.7,246.5,348.8z"/>
	</g>
	<g>
		<path class="st9" d="M369.3,306.5c-2.4-3.3-11-9.2-14.2-6.8c-3.3,2.4,0,12.3,2.4,15.6s7,3.9,10.3,1.5
			C371,314.4,371.7,309.8,369.3,306.5z"/>
		<path class="st9" d="M370.7,288c-2.9,1.3-8.9,6.6-7.7,9.5s9.3,2.2,12.2,1s4.2-4.6,3-7.5C376.9,288.1,373.6,286.8,370.7,288z"/>
		<path class="st9" d="M350.6,312.8c2-2.4,4.9-9.8,2.5-11.8c-2.4-2-9.2,2.1-11.2,4.5c-2,2.4-1.7,5.9,0.7,7.9
			C345,315.5,348.6,315.2,350.6,312.8z"/>
		<path class="st9" d="M345,307c3.1-0.3,10.3-3.6,10-6.7s-8.1-4.8-11.2-4.5s-5.3,3.1-5,6.2S341.9,307.3,345,307z"/>
		<path class="st9" d="M348.4,296.8c1.6,1.1,6.5,2.5,7.6,0.9c1.1-1.6-1.9-5.7-3.5-6.8c-1.6-1.1-3.9-0.7-5,0.9
			C346.4,293.5,346.8,295.7,348.4,296.8z"/>
	</g>
	<g>
		<path class="st9" d="M212.1,352.7c3.5,2.1,13.6,4.5,15.7,1c2.1-3.5-4.5-11.4-8-13.6c-3.5-2.1-8-1.1-10.1,2.4
			C207.5,346,208.6,350.5,212.1,352.7z"/>
		<path class="st9" d="M222.2,362.1c2.2-2.2,5.8-9.5,3.6-11.7s-9.5,1.4-11.7,3.6s-2.2,5.9,0,8.1C216.3,364.3,220,364.3,222.2,362.1z
			"/>
		<path class="st9" d="M227.1,339.9c-1,3-0.9,10.9,2,11.9c3,1,7.7-5.4,8.7-8.4c1-3-0.6-6.1-3.6-7.1
			C231.3,335.4,228.1,337,227.1,339.9z"/>
		<path class="st9" d="M234.4,343.2c-2.8,1.5-8.2,7.2-6.8,10c1.5,2.8,9.3,1.5,12,0c2.8-1.5,3.8-4.9,2.4-7.6
			C240.6,342.8,237.2,341.8,234.4,343.2z"/>
		<path class="st9" d="M235.1,354c-1.9-0.4-6.9,0.1-7.4,2c-0.4,1.9,3.9,4.6,5.8,5c1.9,0.4,3.8-0.8,4.3-2.7
			C238.2,356.3,237,354.4,235.1,354z"/>
	</g>
	<g>
		<path class="st9" d="M186.4,375.5c4-0.4,13.5-4.8,13-8.9c-0.4-4-10.6-6.2-14.7-5.8s-7,4.1-6.5,8.1
			C178.7,373.1,182.4,376,186.4,375.5z"/>
		<path class="st9" d="M200.2,376.7c0.4-3.1-1.2-11.1-4.4-11.4s-6.6,6.9-7,10.1c-0.4,3.1,1.9,6,5,6.4
			C196.9,382.1,199.8,379.9,200.2,376.7z"/>
		<path class="st9" d="M190.5,356.2c1.1,2.9,6,9.2,8.9,8.1c2.9-1.1,2.8-9,1.7-11.9s-4.3-4.5-7.2-3.4
			C190.9,350.1,189.4,353.3,190.5,356.2z"/>
		<path class="st9" d="M198.3,354.3c-1.3,2.8-2.1,10.7,0.8,12s8.2-4.6,9.5-7.4c1.3-2.8,0-6.2-2.8-7.5
			C202.9,350.2,199.5,351.5,198.3,354.3z"/>
		<path class="st9" d="M205.3,362.4c-1.8,0.8-5.4,4.3-4.6,6.1s5.9,1.2,7.6,0.4s2.6-3,1.7-4.8S207.1,361.6,205.3,362.4z"/>
	</g>
	<g>
		<path class="st9" d="M243.9,386.8c3-2.8,8-11.9,5.2-14.9s-12.2,1.3-15.2,4c-3,2.8-3.2,7.4-0.4,10.4
			C236.2,389.4,240.9,389.6,243.9,386.8z"/>
		<path class="st9" d="M255.7,379.6c-1.6-2.8-7.6-8.2-10.3-6.6c-2.8,1.6-1.2,9.5,0.3,12.2c1.6,2.8,5.1,3.7,7.8,2.2
			S257.2,382.4,255.7,379.6z"/>
		<path class="st9" d="M235.7,368.9c2.6,1.7,10.2,3.8,12,1.3c1.7-2.6-3.1-8.9-5.7-10.6c-2.6-1.7-6.1-1-7.8,1.5
			C232.4,363.6,233.1,367.1,235.7,368.9z"/>
		<path class="st9" d="M240.8,362.7c0.7,3,4.7,9.9,7.8,9.2c3-0.7,3.9-8.6,3.3-11.6c-0.7-3-3.7-5-6.7-4.3
			C242.1,356.7,240.2,359.7,240.8,362.7z"/>
		<path class="st9" d="M251.3,365c-0.9,1.7-1.8,6.7-0.1,7.6c1.7,0.9,5.4-2.5,6.4-4.2c0.9-1.7,0.3-3.9-1.4-4.9
			C254.5,362.6,252.3,363.3,251.3,365z"/>
	</g>
	<g>
		<path class="st9" d="M278.9,360.6c-4.1-0.4-14.2,1.9-14.6,5.9s9.1,8.3,13.1,8.7c4.1,0.4,7.7-2.6,8.1-6.6
			C285.9,364.6,282.9,361,278.9,360.6z"/>
		<path class="st9" d="M265.7,356.6c-1,3-1.1,11.1,1.9,12.1c3,1,7.9-5.4,8.9-8.4s-0.6-6.3-3.6-7.3
			C269.9,352,266.7,353.6,265.7,356.6z"/>
		<path class="st9" d="M270.9,378.7c-0.4-3.1-3.9-10.2-7-9.8c-3.1,0.4-4.6,8.2-4.2,11.3c0.4,3.1,3.3,5.2,6.3,4.8
			C269.1,384.6,271.3,381.7,270.9,378.7z"/>
		<path class="st9" d="M262.9,378.9c1.8-2.5,4.3-10.1,1.8-11.9c-2.5-1.8-9,2.7-10.8,5.3c-1.8,2.5-1.3,6,1.2,7.9
			S261,381.4,262.9,378.9z"/>
		<path class="st9" d="M257.6,369.5c1.9-0.4,6.2-3.1,5.8-5s-5.5-2.4-7.4-2s-3.1,2.4-2.7,4.3C253.8,368.7,255.7,369.9,257.6,369.5z"
			/>
	</g>
	<path class="st9" d="M361.2,277.8c-2.9,1.3-8.9,6.6-7.7,9.5c1.3,2.9,9.3,2.2,12.2,1c2.9-1.3,4.2-4.6,3-7.5
		C367.5,277.9,364.1,276.6,361.2,277.8z"/>
	<path class="st9" d="M221.6,387.4c3-2.8,8-11.9,5.2-14.9s-12.2,1.3-15.2,4c-3,2.8-3.2,7.4-0.4,10.4
		C213.9,390,218.6,390.2,221.6,387.4z"/>
	<path class="st9" d="M333.2,276.2c0,4.1,3.3,13.9,7.4,13.9c4.1,0,7.4-9.9,7.4-13.9c0-4.1-3.3-7.4-7.4-7.4
		C336.5,268.8,333.2,272.1,333.2,276.2z"/>
</g>
<g id="Layer_8">
	<g>
		<linearGradient id="SVGID_1_" gradientUnits="userSpaceOnUse" x1="119.7593" y1="257.1792" x2="135.8844" y2="257.1792">
			<stop  offset="0" style="stop-color:#81AB3D"/>
			<stop  offset="1" style="stop-color:#7E9D7D"/>
		</linearGradient>
		<path class="st10" d="M124,242.7l-3.9,11c0,0-2.6,12,7.5,16.7c9.4,4.4,8.3-3.5,8.3-3.5L124,242.7z"/>
		<linearGradient id="SVGID_2_" gradientUnits="userSpaceOnUse" x1="118.1794" y1="266.8456" x2="131.3733" y2="266.8456">
			<stop  offset="0" style="stop-color:#81AB3D"/>
			<stop  offset="1" style="stop-color:#7E9D7D"/>
		</linearGradient>
		<path class="st11" d="M121.6,255l-3.2,9c0,0-2.1,9.8,6.1,13.7c7.7,3.6,6.8-2.9,6.8-2.9L121.6,255z"/>
		<linearGradient id="SVGID_3_" gradientUnits="userSpaceOnUse" x1="123.46" y1="275.4251" x2="144.3828" y2="275.4251">
			<stop  offset="0" style="stop-color:#81AB3D"/>
			<stop  offset="1" style="stop-color:#7E9D7D"/>
		</linearGradient>
		<path class="st12" d="M142.8,285.1c-2.6,4.2-8.7,5.2-13.7,2.2c-5-3-7-8.9-4.5-13.2l19.8-12.3L142.8,285.1z"/>
		<linearGradient id="SVGID_4_" gradientUnits="userSpaceOnUse" x1="126.3021" y1="258.8733" x2="145.6595" y2="258.8733">
			<stop  offset="0" style="stop-color:#81AB3D"/>
			<stop  offset="1" style="stop-color:#7E9D7D"/>
		</linearGradient>
		<path class="st13" d="M126.3,263.2c-0.4,4.5,3.5,8.6,8.9,9.1c5.3,0.5,10-2.7,10.5-7.2l-7.8-19.8L126.3,263.2z"/>
		<linearGradient id="SVGID_5_" gradientUnits="userSpaceOnUse" x1="140.806" y1="277.1427" x2="170.8569" y2="277.1427">
			<stop  offset="0" style="stop-color:#81AB3D"/>
			<stop  offset="1" style="stop-color:#7E9D7D"/>
		</linearGradient>
		<path class="st14" d="M170.9,270.9l-7.9,8.6c0,0-9.4,7.9-18.2,1.2c-8.3-6.2-0.8-9-0.8-9L170.9,270.9z"/>
		<linearGradient id="SVGID_6_" gradientUnits="userSpaceOnUse" x1="136.4892" y1="283.836" x2="161.0775" y2="283.836">
			<stop  offset="0" style="stop-color:#81AB3D"/>
			<stop  offset="1" style="stop-color:#7E9D7D"/>
		</linearGradient>
		<path class="st15" d="M161.1,278.7l-6.5,7.1c0,0-7.7,6.5-14.9,1c-6.8-5.1-0.6-7.4-0.6-7.4L161.1,278.7z"/>
		<linearGradient id="SVGID_7_" gradientUnits="userSpaceOnUse" x1="137.5151" y1="269.7467" x2="161.9984" y2="269.7467">
			<stop  offset="0" style="stop-color:#81AB3D"/>
			<stop  offset="1" style="stop-color:#7E9D7D"/>
		</linearGradient>
		<path class="st16" d="M151.6,278.4c-3.8,2.5-9.2,0.9-12.2-3.6c-3-4.5-2.3-10.1,1.5-12.6l21.2-2.4L151.6,278.4z"/>
	</g>
	<g>
		<linearGradient id="SVGID_8_" gradientUnits="userSpaceOnUse" x1="69.619" y1="276.687" x2="95.2725" y2="276.687">
			<stop  offset="0" style="stop-color:#81AB3D"/>
			<stop  offset="1" style="stop-color:#7E9D7D"/>
		</linearGradient>
		<path class="st17" d="M69.6,275.7l5.1,4.5c0,0,6.6,3.8,15.9-2.1c8.6-5.5,2.6-6.1,2.6-6.1L69.6,275.7z"/>
		<linearGradient id="SVGID_9_" gradientUnits="userSpaceOnUse" x1="76.5842" y1="280.1792" x2="97.5744" y2="280.1792">
			<stop  offset="0" style="stop-color:#81AB3D"/>
			<stop  offset="1" style="stop-color:#7E9D7D"/>
		</linearGradient>
		<path class="st18" d="M76.6,279.4l4.2,3.7c0,0,5.4,3.1,13-1.7c7.1-4.5,2.1-5,2.1-5L76.6,279.4z"/>
		<linearGradient id="SVGID_10_" gradientUnits="userSpaceOnUse" x1="91.3793" y1="273.8747" x2="110.1172" y2="273.8747">
			<stop  offset="0" style="stop-color:#81AB3D"/>
			<stop  offset="1" style="stop-color:#7E9D7D"/>
		</linearGradient>
		<path class="st19" d="M109.8,270.5c1.4,2.4-1.7,6.7-6.8,9.5c-5.1,2.8-10.3,3.2-11.7,0.7l3.5-15.3L109.8,270.5z"/>
		<linearGradient id="SVGID_11_" gradientUnits="userSpaceOnUse" x1="79.7844" y1="271.5514" x2="99.7116" y2="271.5514">
			<stop  offset="0" style="stop-color:#81AB3D"/>
			<stop  offset="1" style="stop-color:#7E9D7D"/>
		</linearGradient>
		<path class="st20" d="M85,277.7c2.8,1.1,8-0.9,11.5-4.3c3.6-3.5,4.2-7.1,1.4-8.2l-18.2,1.8L85,277.7z"/>
		<linearGradient id="SVGID_12_" gradientUnits="userSpaceOnUse" x1="101.0354" y1="259.7501" x2="118.1316" y2="259.7501">
			<stop  offset="0" style="stop-color:#81AB3D"/>
			<stop  offset="1" style="stop-color:#7E9D7D"/>
		</linearGradient>
		<path class="st21" d="M117,249.3l1.1,6.7c0,0-0.3,7.6-10.2,12.4c-9.2,4.4-6.6-1-6.6-1L117,249.3z"/>
		<linearGradient id="SVGID_13_" gradientUnits="userSpaceOnUse" x1="103.3908" y1="265.7077" x2="117.3792" y2="265.7077">
			<stop  offset="0" style="stop-color:#81AB3D"/>
			<stop  offset="1" style="stop-color:#7E9D7D"/>
		</linearGradient>
		<path class="st22" d="M116.5,257.2l0.9,5.5c0,0-0.2,6.2-8.3,10.1c-7.6,3.6-5.4-0.8-5.4-0.8L116.5,257.2z"/>
		<linearGradient id="SVGID_14_" gradientUnits="userSpaceOnUse" x1="93.0238" y1="262.3818" x2="110.5505" y2="262.3818">
			<stop  offset="0" style="stop-color:#81AB3D"/>
			<stop  offset="1" style="stop-color:#7E9D7D"/>
		</linearGradient>
		<path class="st23" d="M110.6,263.5c-0.6,2.9-4.9,6.3-9.8,7.5s-8.3-0.2-7.7-3.1l11.1-14.5L110.6,263.5z"/>
	</g>
	<g>
		<linearGradient id="SVGID_15_" gradientUnits="userSpaceOnUse" x1="115.8411" y1="318.5199" x2="77.9274" y2="280.6061">
			<stop  offset="0" style="stop-color:#809639"/>
			<stop  offset="1" style="stop-color:#779576"/>
		</linearGradient>
		<path class="st24" d="M79.5,279.1l4.1,20.3c0,0,7,20.5,26.5,18.5c18.2-1.9,9.4-12.9,9.4-12.9L79.5,279.1z"/>
		<linearGradient id="SVGID_16_" gradientUnits="userSpaceOnUse" x1="167.3939" y1="308.1974" x2="150.125" y2="290.9286">
			<stop  offset="0" style="stop-color:#809639"/>
			<stop  offset="1" style="stop-color:#779576"/>
		</linearGradient>
		<path class="st25" d="M176.2,279.1l-4.1,20.3c0,0-7,20.5-26.5,18.5c-18.2-1.9-9.4-12.9-9.4-12.9L176.2,279.1z"/>
		<linearGradient id="SVGID_17_" gradientUnits="userSpaceOnUse" x1="127.5162" y1="311.4652" x2="94.7245" y2="278.6736">
			<stop  offset="0" style="stop-color:#849B3B"/>
			<stop  offset="1" style="stop-color:#7E9D7D"/>
		</linearGradient>
		<path class="st26" d="M101.8,308.1c3.4,7.2,13.2,9.8,21.7,5.7c8.6-4.1,12.7-13.2,9.3-20.4l-29.9-22.9L101.8,308.1z"/>
		<linearGradient id="SVGID_18_" gradientUnits="userSpaceOnUse" x1="156.2105" y1="306.7566" x2="132.8362" y2="283.3822">
			<stop  offset="0" style="stop-color:#849B3B"/>
			<stop  offset="1" style="stop-color:#7E9D7D"/>
		</linearGradient>
		<path class="st27" d="M153.8,308.1c-3.4,7.2-13.2,9.8-21.7,5.7c-8.6-4.1-12.7-13.2-9.3-20.4l29.9-22.9L153.8,308.1z"/>
		<linearGradient id="SVGID_19_" gradientUnits="userSpaceOnUse" x1="116.8955" y1="332.1259" x2="85.8736" y2="301.1041">
			<stop  offset="0" style="stop-color:#7B9137"/>
			<stop  offset="1" style="stop-color:#6C886C"/>
		</linearGradient>
		<path class="st28" d="M87.1,299.8l3.4,16.6c0,0,5.7,16.8,21.7,15.1c14.9-1.6,7.7-10.6,7.7-10.6L87.1,299.8z"/>
		<linearGradient id="SVGID_20_" gradientUnits="userSpaceOnUse" x1="161.324" y1="323.6799" x2="147.1943" y2="309.5501">
			<stop  offset="0" style="stop-color:#7B9137"/>
			<stop  offset="1" style="stop-color:#6C886C"/>
		</linearGradient>
		<path class="st29" d="M168.5,299.8l-3.4,16.6c0,0-5.7,16.8-21.7,15.1c-14.9-1.6-7.7-10.6-7.7-10.6L168.5,299.8z"/>
		<linearGradient id="SVGID_21_" gradientUnits="userSpaceOnUse" x1="143.1391" y1="335.4364" x2="112.5046" y2="304.8019">
			<stop  offset="0" style="stop-color:#7B9137"/>
			<stop  offset="1" style="stop-color:#6C886C"/>
		</linearGradient>
		<path class="st30" d="M146.6,326.2c0,8.8-8.4,15.9-18.8,15.9s-18.8-7.1-18.8-15.9l18.8-36.7L146.6,326.2z"/>
	</g>
</g>
<g id="Layer_5">
	<g>
		<path class="st31" d="M79.3,153.3c0,0-0.2,0.6-0.7,1.7c-0.2,0.6-0.5,1.2-0.8,2.1c-0.2,0.4-0.3,0.8-0.5,1.3c-0.2,0.5-0.3,1-0.5,1.5
			c-1.6,4.3-3.5,10.8-4.9,19.2c-0.7,4.2-1.2,8.9-1.3,14.1c-0.1,5.1,0.1,10.7,0.8,16.6c1.4,11.8,5.2,24.9,12.4,37.5
			c3.6,6.3,8,12.5,13.4,18.1c2.7,2.9,5.6,5.5,8.7,8.1c0.8,0.6,1.6,1.2,2.4,1.8l1.2,0.9l1.3,0.9c0.8,0.6,1.7,1.2,2.5,1.7
			c0.9,0.5,1.8,1.1,2.7,1.6l1.3,0.8l1.4,0.7c0.9,0.5,1.8,1,2.8,1.5c1,0.4,1.9,0.9,2.9,1.3l1.4,0.7c0.4,0.2,1,0.4,1.5,0.6
			c1,0.4,2,0.8,3,1.2c1,0.3,2,0.7,3,1l1.5,0.5l1.6,0.4c1,0.3,2.1,0.6,3.1,0.9c4.3,1,8.6,1.8,13.1,2.1c4.4,0.3,9,0.5,13.5,0.1
			c18.2-1.2,36.5-8.4,51.8-20c3.8-2.9,7.4-6.1,10.8-9.6c1.7-1.7,3.3-3.5,5-5.3c1.5-1.9,3.1-3.7,4.6-5.7c5.9-7.7,10.6-16.3,14.4-25.3
			c7.4-18,10.2-37.9,7.8-56.8c-1.2-9.5-3.6-18.7-7.2-27.3c-3.6-8.6-8.4-16.5-14.2-23.5c-2.9-3.5-6.1-6.6-9.3-9.6
			c-3.3-2.9-6.9-5.5-10.5-7.9c-0.9-0.6-1.9-1.1-2.8-1.7L215,99l-1.4-0.7c-1-0.5-1.9-1-2.8-1.5c-1-0.4-1.9-0.9-2.9-1.3l-1.4-0.6
			l-1.5-0.6c-1-0.4-2-0.8-3-1.2c-1-0.3-2-0.6-2.9-1l-1.5-0.5l-1.5-0.4c-1-0.3-2-0.5-3-0.8c-1-0.2-2-0.4-3-0.6l-1.5-0.3l-1.5-0.2
			c-1-0.2-2-0.3-3-0.5c-4-0.4-8-0.7-11.8-0.7c-3.9,0-7.7,0.3-11.5,0.8c-3.7,0.6-7.4,1.2-10.9,2.2c-14.1,3.7-26.1,10.1-35.5,17.2
			c-4.7,3.6-8.9,7.3-12.5,11c-3.6,3.7-6.6,7.4-9.2,10.8c-5.1,6.9-8.4,12.8-10.4,16.9c-0.3,0.5-0.5,1-0.7,1.4
			c-0.2,0.5-0.4,0.9-0.6,1.3c-0.4,0.8-0.7,1.5-0.9,2C79.5,152.8,79.3,153.3,79.3,153.3z M79,153.2c0,0,0.3-0.6,0.7-1.6
			c0.2-0.5,0.5-1.2,0.9-2c0.2-0.4,0.4-0.8,0.6-1.3c0.2-0.5,0.5-0.9,0.7-1.5c0.5-1,1.1-2.2,1.7-3.4c0.7-1.2,1.4-2.6,2.3-4
			c0.8-1.4,1.8-2.9,2.8-4.6c1.1-1.6,2.2-3.3,3.4-5c1.3-1.7,2.6-3.6,4.1-5.4c0.8-0.9,1.5-1.9,2.3-2.8c0.8-0.9,1.7-1.9,2.5-2.8
			c3.5-3.8,7.6-7.7,12.3-11.4c9.4-7.5,21.3-14.5,35.7-18.6c3.6-1,7.3-1.8,11.1-2.4c3.8-0.5,7.8-1,11.8-1c4-0.2,8.1,0.1,12.3,0.6
			c1,0.2,2.1,0.3,3.1,0.5l1.6,0.2l1.6,0.3c1,0.2,2.1,0.4,3.1,0.6c1,0.3,2.1,0.5,3.1,0.8l1.6,0.4l1.6,0.5c1,0.3,2.1,0.7,3.1,1
			c1,0.4,2,0.8,3,1.2l1.5,0.6c0.6,0.2,1,0.5,1.5,0.7c1,0.5,2,0.9,3,1.4c1,0.5,2,1,3,1.5l1.5,0.8l1.4,0.9c1,0.6,1.9,1.2,2.9,1.7
			c3.8,2.5,7.4,5.2,10.9,8.2c0.9,0.7,1.7,1.6,2.5,2.4c0.8,0.8,1.7,1.6,2.5,2.5c0.8,0.8,1.6,1.7,2.4,2.5c0.8,0.9,1.5,1.8,2.3,2.7
			c11.9,14.4,19.5,33,21.7,52.4c0.5,4.9,0.8,9.8,0.6,14.7c0,2.5-0.2,4.9-0.4,7.4c-0.3,2.4-0.5,4.9-0.9,7.3
			c-1.5,9.7-4.4,19.3-8.3,28.4c-4,9-9,17.6-15,25.3c-1.5,2-3.1,3.8-4.7,5.7c-1.7,1.8-3.3,3.6-5,5.3c-3.4,3.5-7.1,6.6-11,9.6
			c-7.7,5.9-16.1,10.8-24.9,14.3c-8.8,3.5-18.1,5.8-27.3,6.7c-4.6,0.5-9.2,0.4-13.8,0.2c-4.6-0.3-9-1-13.4-1.9
			c-1.1-0.3-2.2-0.5-3.2-0.8l-1.6-0.4l-1.6-0.5c-1.1-0.3-2.1-0.7-3.2-1c-1-0.4-2-0.8-3-1.2c-0.5-0.2-1-0.4-1.5-0.6l-1.5-0.7
			c-1-0.4-2-0.9-3-1.3c-1-0.5-1.9-1-2.9-1.5l-1.4-0.7l-1.4-0.8c-0.9-0.5-1.8-1.1-2.7-1.6c-0.9-0.6-1.8-1.2-2.6-1.8l-1.3-0.9
			l-1.3-0.9c-0.8-0.6-1.7-1.3-2.5-1.9c-3.2-2.7-6.3-5.4-9-8.3c-2.8-2.9-5.2-6-7.5-9.1c-2.2-3.2-4.3-6.4-6-9.7
			C74.5,235.4,71.2,221.9,70,210c-0.6-6-0.6-11.6-0.4-16.8c0.1-1.3,0.2-2.6,0.3-3.8c0.1-1.2,0.3-2.4,0.4-3.6c0.2-2.4,0.7-4.6,1-6.7
			c0.4-2.1,0.8-4.1,1.2-6c0.5-1.9,0.9-3.6,1.3-5.2c0.5-1.6,0.9-3.1,1.3-4.4c0.5-1.3,0.9-2.6,1.3-3.6c0.2-0.5,0.4-1.1,0.5-1.5
			c0.2-0.5,0.4-0.9,0.5-1.3c0.3-0.8,0.6-1.5,0.8-2C78.8,153.8,79,153.2,79,153.2z"/>
	</g>
</g>
</svg>
