<?xml version="1.0" encoding="utf-8"?>
<!-- Generator: Adobe Illustrator 18.1.1, SVG Export Plug-In . SVG Version: 6.00 Build 0)  -->
<svg version="1.1" id="Layer_1" xmlns="http://www.w3.org/2000/svg" xmlns:xlink="http://www.w3.org/1999/xlink" x="0px" y="0px"
	 viewBox="0 0 30 30" enable-background="new 0 0 30 30" xml:space="preserve">
<g id="Layer_1_1_">
</g>
<g id="Layer_2">
	<path fill="none" stroke="#848484" stroke-width="0.65" stroke-miterlimit="10" d="M24.8,28.4H5.2c-1.6,0-2.7-1.3-2.7-2.7V14.3
		c0-1.4,1.2-2.7,2.7-2.7h19.6c1.4,0,2.7,1.3,2.7,2.7v11.3C27.5,27.2,26.3,28.4,24.8,28.4z"/>
	<line fill="none" stroke="#848484" stroke-width="0.65" stroke-miterlimit="10" x1="5.6" y1="11.6" x2="5.6" y2="28.4"/>
	<line fill="none" stroke="#848484" stroke-width="0.65" stroke-miterlimit="10" x1="24.4" y1="11.6" x2="24.4" y2="28.4"/>
	<path fill="none" stroke="#848484" stroke-width="0.65" stroke-miterlimit="10" d="M10.5,11.6V9.5c0-1,0.8-1.8,1.8-1.8h5.4
		c1,0,1.8,0.8,1.8,1.8v2.3"/>
	<rect x="12.2" y="14.5" fill="none" stroke="#848484" stroke-width="0.65" stroke-miterlimit="10" width="5.7" height="2.2"/>
	<path fill="none" stroke="#848484" stroke-width="0.65" stroke-miterlimit="10" d="M11.9,11.6v-2c0-0.4,0.3-0.7,0.7-0.7h4.8
		c0.4,0,0.7,0.3,0.7,0.7v2.1"/>
</g>
</svg>
