<?xml version="1.0" encoding="utf-8"?>
<!-- Generator: Adobe Illustrator 14.0.0, SVG Export Plug-In . SVG Version: 6.00 Build 43363)  -->
<!DOCTYPE svg PUBLIC "-//W3C//DTD SVG 1.1//EN" "http://www.w3.org/Graphics/SVG/1.1/DTD/svg11.dtd">
<svg version="1.1" xmlns="http://www.w3.org/2000/svg" xmlns:xlink="http://www.w3.org/1999/xlink" x="0px" y="0px" width="190px"
	 height="190px" viewBox="-5 -23 190 190" enable-background="new -5 -23 190 190" xml:space="preserve">
<g id="Layer_2">
</g>
<g id="Layer_1">
	<g>
		<rect x="-5" y="-23" fill="#4F631C" width="190" height="190"/>
		<path fill="#E8E895" d="M52.648-8.55c7.786-2.256,46.251-1.211,46.251-1.211l2.192,0.131l1.184,0.997l0.514,0.556l0.344,1.624
			l-0.771,2.134l-1.743,1.026l-2.271,1.115h-2.991h-6.624l-5.569,19.244l17.228,33.106l1.217,2.335
			c6.139-2.386,12.815-3.695,19.805-3.695c30.196,0,54.678,24.477,54.678,54.676c0,30.198-24.481,54.676-54.678,54.676
			c-27.216,0-49.782-19.879-53.978-45.915l-2.648-0.04H40.91L-5.001,63.781L-5.003,51.32l49.602,52.663l27.84-83.018l-77.439,0
			l0-7.713h80.794l4.444-15.432L57.009-3.21l-2.48-0.939l-1.542-1.108l-0.337-1.195v-1.454l0.337-0.726 M129.966,107.004
			c2.465,4.979-2.682,5.204-2.682,5.204l-50.752-0.01c4.068,21.08,22.613,36.996,44.878,36.996c25.244,0,45.71-20.462,45.71-45.705
			c0-25.25-20.466-45.714-45.71-45.714c-5.494,0-10.755,0.968-15.633,2.743L129.966,107.004z M66.738,103.983
			c-0.004-0.163-0.004-0.328-0.004-0.498c0-20.277,11.035-37.973,27.425-47.413L79.312,27.507l-24.989,76.476H66.738z
			 M75.705,103.983h43.358L98.299,64.038C71.932,81.682,75.705,103.983,75.705,103.983z"/>
		<path fill="#86A524" d="M129.966,107.004l-2.688,1.331c0.335,0.673,0.36,1.023,0.356,1.056v0.002l0.504,0.04l-0.457-0.202
			l-0.047,0.162l0.504,0.04l-0.457-0.202l0.633,0.28l-0.53-0.446l-0.103,0.166l0.633,0.28l-0.53-0.446l0.291,0.245l-0.235-0.301
			l-0.056,0.056l0.291,0.245l-0.235-0.301l-0.002,0.001c-0.022,0.023-0.25,0.121-0.45,0.159c-0.099,0.022-0.188,0.035-0.237,0.04
			l-0.039,0.004l0.101,1.306l-0.058-1.308l-0.043,0.002l0.101,1.306l-0.058-1.308l0.131,2.997l0.001-3l-54.384-0.011l0.69,3.57
			c2.172,11.237,8.198,21.093,16.641,28.138c8.441,7.045,19.331,11.291,31.183,11.289c13.441,0.002,25.637-5.456,34.441-14.265
			c8.809-8.805,14.266-21,14.264-34.44c0.002-13.443-5.455-25.64-14.264-34.445c-8.805-8.81-21-14.266-34.441-14.265
			c-5.847,0-11.459,1.032-16.661,2.924l-3.215,1.169l25.766,49.516L129.966,107.004l-2.688,1.331L129.966,107.004l2.661-1.385
			L108.44,59.138l-2.661,1.385l1.025,2.819c4.56-1.658,9.469-2.562,14.61-2.562c11.805,0.001,22.462,4.774,30.198,12.507
			c7.732,7.737,12.505,18.396,12.507,30.202c-0.002,11.803-4.774,22.46-12.507,30.197c-7.737,7.732-18.394,12.506-30.198,12.508
			c-10.412-0.002-19.925-3.714-27.339-9.896c-7.412-6.184-12.693-14.826-14.595-24.669l-2.945,0.569l0,3l50.813,0.01l0.066-0.003
			c0.1-0.005,0.432-0.022,0.914-0.107c0.362-0.064,0.812-0.166,1.318-0.345c0.753-0.271,1.677-0.709,2.525-1.599
			c0.419-0.443,0.802-1.007,1.063-1.658c0.264-0.65,0.399-1.379,0.397-2.105c-0.003-1.248-0.362-2.466-0.979-3.718l-0.013-0.026
			l-0.015-0.027L129.966,107.004z"/>
		<circle fill="#85A71D" cx="143.615" cy="86.352" r="2.34"/>
		<path fill="#86A524" d="M143.615,84.012v1c0.741,0.001,1.339,0.601,1.34,1.34c0,0.742-0.598,1.34-1.34,1.34
			c-0.741,0-1.34-0.598-1.34-1.34c0.001-0.738,0.601-1.339,1.34-1.34V84.012v-1c-1.847,0.001-3.339,1.496-3.34,3.34
			c-0.001,0.919,0.375,1.761,0.979,2.362c0.601,0.603,1.442,0.979,2.361,0.978c0.919,0.001,1.761-0.375,2.362-0.978
			c0.603-0.602,0.979-1.443,0.978-2.362c0-1.843-1.493-3.339-3.34-3.34V84.012z"/>
	</g>
</g>
</svg>
