<?xml version="1.0" encoding="utf-8"?>
<!-- Generator: Adobe Illustrator 21.1.0, SVG Export Plug-In . SVG Version: 6.00 Build 0)  -->
<svg version="1.1" xmlns="http://www.w3.org/2000/svg" xmlns:xlink="http://www.w3.org/1999/xlink" x="0px" y="0px"
	 viewBox="0 0 392 201" style="enable-background:new 0 0 392 201;" xml:space="preserve">
<style type="text/css">
	.st0{fill:#CE642A;}
	.st1{fill:#843F2C;}
	.st2{fill:#F27E5F;}
	.st3{fill:#D3D4CF;}
	.st4{fill:#F8AD8F;}
	.st5{fill:none;stroke:#283B48;stroke-width:0.1;stroke-miterlimit:10;}
	.st6{fill:#FFFFFF;}
	.st7{fill:#EAEAEA;}
	.st8{fill:#283B48;}
	@keyframes rotate {
		100% {
			transform: rotate(360deg);
		}
	}
	.hand {
		animation: rotate 60s infinite linear;
		transform-origin: bottom center;
	}
</style>
<g id="Layer_1">
	<g>
		<path class="st0" d="M339,157"/>
		<path class="st0" d="M337.4,160.6"/>
		<polyline class="st1" points="337.4,160.6 336,154.7 343.3,138.3 344.8,144 337.4,160.6 		"/>
		<polyline class="st2" points="337.4,160.6 342.7,157.7 350,141.3 344.8,144 337.4,160.6 		"/>
		<polygon class="st3" points="338.2,160.1 324.4,191.3 323.3,190.9 337.2,159.7 337.4,160.6 		"/>
		<path class="st4" d="M363.2,201c8.9-4,17.2-8.9,24.8-6.8l1-2.1c-12.4-3.3-24.1,6-39.7,5.8c-11.1-0.1-22.4-5.4-22.4-5.4l-6.3-2.8
			c0,0-11.5-4.9-19-13c-10.5-11.5-11.5-26.3-22.3-33.4l-1,2.1c10.8,7,9.2,27.6,19.8,39c7.5,8.1,19,13,19,13l6.3,2.8
			c0,0,0.6,0.3,1.6,0.7L363.2,201z"/>
		<polyline class="st5" points="284.6,148.2 344.8,144 381.7,191.3 		"/>
	</g>
	<rect x="137.7" y="162.2" class="st6" width="78" height="38.7"/>
	<rect x="153.9" y="83" class="st6" width="45.6" height="79.2"/>
	<rect x="151.8" y="80.5" class="st3" width="49.8" height="2.5"/>
	<rect x="152.8" y="69" class="st3" width="47.8" height="1.5"/>
	<polygon class="st3" points="192.3,47.1 192.3,48.5 161.2,48.5 161.2,47.1 162.7,47.1 162.7,42.5 190.8,42.5 190.8,47.1 	"/>
	<rect x="164.5" y="26" class="st3" width="24.4" height="2.9"/>
	<rect x="168.4" y="18.2" class="st3" width="16.6" height="2"/>
	<rect x="174.4" y="14.4" class="st6" width="4.6" height="3.9"/>
	<rect x="169.3" y="20.2" class="st6" width="14.9" height="5.8"/>
	<rect x="167.5" y="28.9" class="st6" width="18.5" height="13.6"/>
	<rect x="161.6" y="48.5" class="st6" width="30.2" height="20.5"/>
	<rect x="155.5" y="70.5" class="st6" width="42.5" height="10"/>
	<rect x="169.5" y="30.5" class="st7" width="3.8" height="10.2"/>
	<rect x="180.2" y="30.5" class="st7" width="3.8" height="10.2"/>
	<rect x="174.8" y="30.5" class="st7" width="3.8" height="10.2"/>
	<rect x="171.4" y="21.1" class="st7" width="2.8" height="4"/>
	<rect x="179.3" y="21.1" class="st7" width="2.8" height="4"/>
	<rect x="175.3" y="21.1" class="st7" width="2.8" height="4"/>
	<rect x="167.1" y="51.5" class="st7" width="5.5" height="16"/>
	<rect x="180.9" y="51.5" class="st7" width="5.5" height="16"/>
	<rect x="174" y="51.5" class="st7" width="5.5" height="16"/>
	<rect x="157.9" y="73" class="st7" width="4.5" height="5.5"/>
	<rect x="164.5" y="73" class="st7" width="4.5" height="5.5"/>
	<rect x="171.1" y="73" class="st7" width="4.5" height="5.5"/>
	<rect x="177.7" y="73" class="st7" width="4.5" height="5.5"/>
	<rect x="184.4" y="73" class="st7" width="4.5" height="5.5"/>
	<rect x="191" y="73" class="st7" width="4.5" height="5.5"/>
	<rect x="159.8" y="87.8" class="st7" width="9" height="74.5"/>
	<rect x="172.2" y="87.8" class="st7" width="9" height="74.5"/>
	<rect x="184.6" y="87.8" class="st7" width="9" height="74.5"/>
	<rect x="141.2" y="165.3" class="st7" width="3.1" height="6.1"/>
	<rect x="145.2" y="165.3" class="st7" width="3.1" height="6.1"/>
	<rect x="149.3" y="165.3" class="st7" width="3.1" height="6.1"/>
	<rect x="201.1" y="165.3" class="st7" width="3.1" height="6.1"/>
	<rect x="205.1" y="165.3" class="st7" width="3.1" height="6.1"/>
	<rect x="209.2" y="165.3" class="st7" width="3.1" height="6.1"/>
	<path class="st3" d="M160.7,177.1L160.7,177.1c-2.5,0-4.6,2-4.6,4.6v19.2h9.1v-19.2C165.3,179.2,163.2,177.1,160.7,177.1z"/>
	<path class="st3" d="M176.7,177.1L176.7,177.1c-2.5,0-4.6,2-4.6,4.6v19.2h9.1v-19.2C181.3,179.2,179.2,177.1,176.7,177.1z"/>
	<path class="st3" d="M192.7,177.1L192.7,177.1c-2.5,0-4.6,2-4.6,4.6v19.2h9.1v-19.2C197.3,179.2,195.2,177.1,192.7,177.1z"/>
	<rect x="176.4" y="1.9" class="st3" width="0.6" height="12.5"/>
	<rect x="174.5" y="125" class="st3" width="4.4" height="6.8"/>
	<rect x="174.5" y="145.7" class="st3" width="4.4" height="6.8"/>
	<rect x="162.1" y="135.2" class="st3" width="4.4" height="6.8"/>
	<rect x="186.9" y="135.2" class="st3" width="4.4" height="6.8"/>
	<circle class="st3" cx="176.7" cy="102" r="15.1"/>
	<circle class="st6" cx="176.7" cy="102" r="13.7"/>
	<rect x="177" y="1.9" class="st2" width="8" height="3.6"/>
	<rect x="2.5" y="169.2" class="st6" width="135.2" height="31.7"/>
	<path class="st3" d="M114.1,191.8L114.1,191.8c-1.7,0-3.2,1.4-3.2,3.2v5.9h6.3V195C117.3,193.3,115.8,191.8,114.1,191.8z"/>
	<path class="st3" d="M103.9,191.8L103.9,191.8c-1.7,0-3.2,1.4-3.2,3.2v5.9h6.3V195C107,193.3,105.6,191.8,103.9,191.8z"/>
	<path class="st3" d="M93.7,191.8L93.7,191.8c-1.7,0-3.2,1.4-3.2,3.2v5.9h6.3V195C96.8,193.3,95.4,191.8,93.7,191.8z"/>
	<path class="st7" d="M114.1,175L114.1,175c-1.7,0-3.2,1.4-3.2,3.2v8.8h6.3v-8.8C117.3,176.4,115.8,175,114.1,175z"/>
	<path class="st7" d="M103.9,175L103.9,175c-1.7,0-3.2,1.4-3.2,3.2v8.8h6.3v-8.8C107,176.4,105.6,175,103.9,175z"/>
	<path class="st7" d="M124.3,175L124.3,175c-1.7,0-3.2,1.4-3.2,3.2v8.8h6.3v-8.8C127.5,176.4,126,175,124.3,175z"/>
	<path class="st7" d="M114.1,175L114.1,175c-1.7,0-3.2,1.4-3.2,3.2v8.8h6.3v-8.8C117.3,176.4,115.8,175,114.1,175z"/>
	<path class="st7" d="M134.5,175L134.5,175c-1.7,0-3.2,1.4-3.2,3.2v8.8h6.3v-8.8C137.7,176.4,136.2,175,134.5,175z"/>
	<path class="st7" d="M93.7,175L93.7,175c-1.7,0-3.2,1.4-3.2,3.2v8.8h6.3v-8.8C96.8,176.4,95.4,175,93.7,175z"/>
	<path class="st3" d="M83.5,191.8L83.5,191.8c-1.7,0-3.2,1.4-3.2,3.2v5.9h6.3V195C86.6,193.3,85.2,191.8,83.5,191.8z"/>
	<path class="st3" d="M73.3,191.8L73.3,191.8c-1.7,0-3.2,1.4-3.2,3.2v5.9h6.3V195C76.4,193.3,75,191.8,73.3,191.8z"/>
	<path class="st7" d="M83.5,175L83.5,175c-1.7,0-3.2,1.4-3.2,3.2v8.8h6.3v-8.8C86.6,176.4,85.2,175,83.5,175z"/>
	<path class="st7" d="M73.3,175L73.3,175c-1.7,0-3.2,1.4-3.2,3.2v8.8h6.3v-8.8C76.4,176.4,75,175,73.3,175z"/>
	<path class="st3" d="M63,191.8L63,191.8c-1.7,0-3.2,1.4-3.2,3.2v5.9h6.3V195C66.2,193.3,64.8,191.8,63,191.8z"/>
	<path class="st3" d="M52.8,191.8L52.8,191.8c-1.7,0-3.2,1.4-3.2,3.2v5.9H56V195C56,193.3,54.6,191.8,52.8,191.8z"/>
	<path class="st3" d="M42.6,191.8L42.6,191.8c-1.7,0-3.2,1.4-3.2,3.2v5.9h6.3V195C45.8,193.3,44.4,191.8,42.6,191.8z"/>
	<path class="st7" d="M63,175L63,175c-1.7,0-3.2,1.4-3.2,3.2v8.8h6.3v-8.8C66.2,176.4,64.8,175,63,175z"/>
	<path class="st7" d="M52.8,175L52.8,175c-1.7,0-3.2,1.4-3.2,3.2v8.8H56v-8.8C56,176.4,54.6,175,52.8,175z"/>
	<path class="st7" d="M63,175L63,175c-1.7,0-3.2,1.4-3.2,3.2v8.8h6.3v-8.8C66.2,176.4,64.8,175,63,175z"/>
	<path class="st7" d="M42.6,175L42.6,175c-1.7,0-3.2,1.4-3.2,3.2v8.8h6.3v-8.8C45.8,176.4,44.4,175,42.6,175z"/>
	<path class="st3" d="M32.4,191.8L32.4,191.8c-1.7,0-3.2,1.4-3.2,3.2v5.9h6.3V195C35.6,193.3,34.2,191.8,32.4,191.8z"/>
	<path class="st3" d="M22.2,191.8L22.2,191.8c-1.7,0-3.2,1.4-3.2,3.2v5.9h6.3V195C25.4,193.3,24,191.8,22.2,191.8z"/>
	<path class="st7" d="M32.4,175L32.4,175c-1.7,0-3.2,1.4-3.2,3.2v8.8h6.3v-8.8C35.6,176.4,34.2,175,32.4,175z"/>
	<path class="st7" d="M22.2,175L22.2,175c-1.7,0-3.2,1.4-3.2,3.2v8.8h6.3v-8.8C25.4,176.4,24,175,22.2,175z"/>
	<path class="st3" d="M12,191.8L12,191.8c-1.7,0-3.2,1.4-3.2,3.2v5.9h6.3V195C15.2,193.3,13.8,191.8,12,191.8z"/>
	<path class="st7" d="M12,175L12,175c-1.7,0-3.2,1.4-3.2,3.2v8.8h6.3v-8.8C15.2,176.4,13.8,175,12,175z"/>
	<rect x="1.5" y="167.5" class="st3" width="136.2" height="1.7"/>
	<rect x="121.1" y="191.8" class="st3" width="16.5" height="9.1"/>
	<rect x="5.1" y="165.3" class="st6" width="132.6" height="2.3"/>
	<rect x="215.7" y="169.3" class="st6" width="135.2" height="31.7"/>
	<path class="st3" d="M239.3,191.8L239.3,191.8c1.7,0,3.2,1.4,3.2,3.2v5.9h-6.3V195C236.1,193.3,237.5,191.8,239.3,191.8z"/>
	<path class="st3" d="M249.5,191.8L249.5,191.8c1.7,0,3.2,1.4,3.2,3.2v5.9h-6.3V195C246.3,193.3,247.8,191.8,249.5,191.8z"/>
	<path class="st3" d="M259.7,191.8L259.7,191.8c1.7,0,3.2,1.4,3.2,3.2v5.9h-6.3V195C256.5,193.3,258,191.8,259.7,191.8z"/>
	<path class="st7" d="M239.3,175L239.3,175c1.7,0,3.2,1.4,3.2,3.2v8.8h-6.3v-8.8C236.1,176.4,237.5,175,239.3,175z"/>
	<path class="st7" d="M249.5,175L249.5,175c1.7,0,3.2,1.4,3.2,3.2v8.8h-6.3v-8.8C246.3,176.4,247.8,175,249.5,175z"/>
	<path class="st7" d="M229.1,175L229.1,175c1.7,0,3.2,1.4,3.2,3.2v8.8H226v-8.8C225.9,176.4,227.3,175,229.1,175z"/>
	<path class="st7" d="M239.3,175L239.3,175c1.7,0,3.2,1.4,3.2,3.2v8.8h-6.3v-8.8C236.1,176.4,237.5,175,239.3,175z"/>
	<path class="st7" d="M218.9,175L218.9,175c1.7,0,3.2,1.4,3.2,3.2v8.8h-6.3v-8.8C215.7,176.4,217.1,175,218.9,175z"/>
	<path class="st7" d="M259.7,175L259.7,175c1.7,0,3.2,1.4,3.2,3.2v8.8h-6.3v-8.8C256.5,176.4,258,175,259.7,175z"/>
	<path class="st3" d="M269.9,191.8L269.9,191.8c1.7,0,3.2,1.4,3.2,3.2v5.9h-6.3V195C266.8,193.3,268.2,191.8,269.9,191.8z"/>
	<path class="st3" d="M280.1,191.8L280.1,191.8c1.7,0,3.2,1.4,3.2,3.2v5.9H277V195C277,193.3,278.4,191.8,280.1,191.8z"/>
	<path class="st7" d="M269.9,175L269.9,175c1.7,0,3.2,1.4,3.2,3.2v8.8h-6.3v-8.8C266.8,176.4,268.2,175,269.9,175z"/>
	<path class="st7" d="M280.1,175L280.1,175c1.7,0,3.2,1.4,3.2,3.2v8.8H277v-8.8C277,176.4,278.4,175,280.1,175z"/>
	<path class="st3" d="M290.3,191.8L290.3,191.8c1.7,0,3.2,1.4,3.2,3.2v5.9h-6.3V195C287.2,193.3,288.6,191.8,290.3,191.8z"/>
	<path class="st3" d="M300.5,191.8L300.5,191.8c1.7,0,3.2,1.4,3.2,3.2v5.9h-6.3V195C297.4,193.3,298.8,191.8,300.5,191.8z"/>
	<path class="st3" d="M310.8,191.8L310.8,191.8c1.7,0,3.2,1.4,3.2,3.2v5.9h-6.3V195C307.6,193.3,309,191.8,310.8,191.8z"/>
	<path class="st7" d="M290.3,175L290.3,175c1.7,0,3.2,1.4,3.2,3.2v8.8h-6.3v-8.8C287.2,176.4,288.6,175,290.3,175z"/>
	<path class="st7" d="M300.5,175L300.5,175c1.7,0,3.2,1.4,3.2,3.2v8.8h-6.3v-8.8C297.4,176.4,298.8,175,300.5,175z"/>
	<path class="st7" d="M290.3,175L290.3,175c1.7,0,3.2,1.4,3.2,3.2v8.8h-6.3v-8.8C287.2,176.4,288.6,175,290.3,175z"/>
	<path class="st7" d="M310.8,175L310.8,175c1.7,0,3.2,1.4,3.2,3.2v8.8h-6.3v-8.8C307.6,176.4,309,175,310.8,175z"/>
	<path class="st3" d="M321,191.8L321,191.8c1.7,0,3.2,1.4,3.2,3.2v5.9h-6.3V195C317.8,193.3,319.2,191.8,321,191.8z"/>
	<path class="st3" d="M331.2,191.8L331.2,191.8c1.7,0,3.2,1.4,3.2,3.2v5.9H328V195C328,193.3,329.4,191.8,331.2,191.8z"/>
	<path class="st7" d="M321,175L321,175c1.7,0,3.2,1.4,3.2,3.2v8.8h-6.3v-8.8C317.8,176.4,319.2,175,321,175z"/>
	<path class="st7" d="M331.2,175L331.2,175c1.7,0,3.2,1.4,3.2,3.2v8.8H328v-8.8C328,176.4,329.4,175,331.2,175z"/>
	<path class="st3" d="M341.4,191.8L341.4,191.8c1.7,0,3.2,1.4,3.2,3.2v5.9h-6.3V195C338.2,193.3,339.6,191.8,341.4,191.8z"/>
	<path class="st7" d="M341.4,175L341.4,175c1.7,0,3.2,1.4,3.2,3.2v8.8h-6.3v-8.8C338.2,176.4,339.6,175,341.4,175z"/>
	<rect x="215.7" y="167.6" class="st3" width="136.2" height="1.7"/>
	<rect x="215.8" y="191.9" class="st3" width="16.5" height="9.1"/>
	<rect x="215.7" y="165.2" class="st6" width="132.6" height="2.3"/>
	<g>
		<path class="st4" d="M143.3,158.9c-0.4,0.3-0.9,0.5-1.7,0.5c-0.5,0-0.9-0.1-1.2-0.2c-0.3-0.1-0.6-0.4-0.8-0.6
			c-0.2-0.3-0.3-0.6-0.3-0.9c0-0.4,0.1-0.7,0.2-0.9s0.4-0.4,0.6-0.6c0.3-0.1,0.7-0.3,1.2-0.4s0.9-0.3,1.1-0.4
			c0.1-0.1,0.2-0.2,0.2-0.3s-0.1-0.3-0.2-0.4c-0.2-0.1-0.5-0.2-0.8-0.2s-0.6,0.1-0.7,0.2s-0.3,0.3-0.3,0.6l-1.2-0.1
			c0-0.5,0.2-0.9,0.6-1.3s0.9-0.5,1.6-0.5c0.4,0,0.8,0.1,1.1,0.2s0.5,0.3,0.7,0.6s0.2,0.5,0.2,0.8c0,0.5-0.2,0.8-0.5,1.2
			c-0.2,0.2-0.7,0.4-1.3,0.6c-0.5,0.1-0.8,0.2-0.9,0.2c-0.2,0.1-0.3,0.2-0.4,0.2c-0.1,0.1-0.1,0.2-0.1,0.3c0,0.2,0.1,0.4,0.3,0.6
			c0.2,0.2,0.5,0.2,0.8,0.2c0.4,0,0.6-0.1,0.8-0.3s0.3-0.5,0.4-0.8l1.1,0.1C143.9,158.1,143.7,158.6,143.3,158.9z"/>
		<path class="st4" d="M135.5,153.6h1.2l2.2,5.7h-1.2l-0.5-1.3H135l-0.5,1.3h-1.3L135.5,153.6z M136.9,157l-0.8-2.1l-0.8,2.1H136.9z
			"/>
		<path class="st4" d="M131.5,159.3v-3.7l-2.3,3.7H128v-5.7h1.1v3.8l2.3-3.8h1.1v5.7H131.5z"/>
		<path class="st4" d="M123.4,159.3v-2.4H121v-1h2.4v-1.4h-2.8v-1h3.9v5.7L123.4,159.3L123.4,159.3z"/>
		<path class="st4" d="M118.6,159.3v-2.4h-0.2c-0.3,0-0.5,0-0.6,0.1s-0.2,0.1-0.3,0.2c-0.1,0.1-0.3,0.4-0.6,0.8l-0.8,1.2h-1.4
			l0.7-1.1c0.3-0.4,0.5-0.8,0.7-0.9c0.2-0.2,0.4-0.3,0.6-0.5c-0.5-0.1-0.9-0.2-1.1-0.5c-0.3-0.3-0.4-0.6-0.4-1.1
			c0-0.3,0.1-0.6,0.2-0.9s0.4-0.4,0.7-0.5s0.7-0.2,1.3-0.2h2.4v5.7L118.6,159.3L118.6,159.3z M118.6,154.5h-0.9c-0.5,0-0.8,0-0.8,0
			c-0.2,0-0.3,0.1-0.4,0.2s-0.2,0.3-0.2,0.5s0,0.3,0.1,0.4c0.1,0.1,0.2,0.2,0.3,0.2s0.5,0.1,1,0.1h0.9V154.5z"/>
		<path class="st4" d="M111.1,153.6h1.2l2.2,5.7h-1.2l-0.5-1.3h-2.3l-0.5,1.3h-1.3L111.1,153.6z M112.5,157l-0.8-2.1l-0.8,2.1H112.5
			z"/>
		<path class="st4" d="M107.1,159.3v-3.7l-2.3,3.7h-1.2v-5.7h1.1v3.8l2.3-3.8h1.1v5.7H107.1z"/>
		<path class="st4" d="M99.2,158.1c0.2,0.2,0.5,0.3,0.8,0.3c0.4,0,0.8-0.2,1-0.5c0.3-0.3,0.4-0.8,0.4-1.5s-0.1-1.2-0.4-1.5
			s-0.6-0.5-1-0.5c-0.3,0-0.6,0.1-0.8,0.3s-0.4,0.4-0.4,0.7l-1.1-0.3c0.1-0.5,0.3-0.8,0.6-1.1c0.4-0.4,1-0.6,1.7-0.6
			c0.8,0,1.4,0.3,1.9,0.8s0.7,1.3,0.7,2.2s-0.2,1.6-0.7,2.1s-1.1,0.8-1.9,0.8c-0.6,0-1.1-0.2-1.5-0.5s-0.7-0.8-0.9-1.4l1.1-0.4
			C98.8,157.6,99,157.9,99.2,158.1z"/>
		<path class="st4" d="M95.5,159.3v-5.7h1.2v5.7H95.5z"/>
		<path class="st4" d="M94,158.9c-0.4,0.3-0.9,0.5-1.7,0.5c-0.5,0-0.9-0.1-1.2-0.2c-0.3-0.1-0.6-0.4-0.8-0.6
			c-0.2-0.3-0.3-0.6-0.3-0.9c0-0.4,0.1-0.7,0.2-0.9s0.4-0.4,0.6-0.6c0.3-0.1,0.7-0.3,1.2-0.4s0.9-0.3,1.1-0.4
			c0.1-0.1,0.2-0.2,0.2-0.3s-0.1-0.3-0.2-0.4c-0.2-0.1-0.5-0.2-0.8-0.2s-0.6,0.1-0.7,0.2s-0.3,0.3-0.3,0.6l-1.2-0.1
			c0-0.5,0.2-0.9,0.6-1.3s0.9-0.5,1.6-0.5c0.4,0,0.8,0.1,1.1,0.2s0.5,0.3,0.7,0.6s0.2,0.5,0.2,0.8c0,0.5-0.2,0.8-0.5,1.2
			c-0.2,0.2-0.7,0.4-1.3,0.6c-0.5,0.1-0.8,0.2-0.9,0.2c-0.2,0.1-0.3,0.2-0.4,0.2c-0.1,0.1-0.1,0.2-0.1,0.3c0,0.2,0.1,0.4,0.3,0.6
			c0.2,0.2,0.5,0.2,0.8,0.2c0.4,0,0.6-0.1,0.8-0.3c0.2-0.2,0.3-0.5,0.4-0.8l1.1,0.1C94.6,158.1,94.4,158.6,94,158.9z"/>
		<path class="st4" d="M85.9,158.1c0.2,0.2,0.5,0.3,0.8,0.3c0.4,0,0.8-0.2,1-0.5c0.3-0.3,0.4-0.8,0.4-1.5s-0.1-1.2-0.4-1.5
			s-0.6-0.5-1-0.5c-0.3,0-0.6,0.1-0.8,0.3s-0.4,0.4-0.4,0.7l-1.1-0.3c0.1-0.5,0.3-0.8,0.6-1.1c0.4-0.4,1-0.6,1.7-0.6
			c0.8,0,1.4,0.3,1.9,0.8s0.7,1.3,0.7,2.2s-0.2,1.6-0.7,2.1s-1.1,0.8-1.9,0.8c-0.6,0-1.1-0.2-1.5-0.5s-0.7-0.8-0.9-1.4l1.1-0.4
			C85.5,157.6,85.6,157.9,85.9,158.1z"/>
		<path class="st4" d="M82.7,158.6c-0.5,0.5-1.2,0.8-2,0.8s-1.5-0.3-2-0.8s-0.8-1.2-0.8-2.2c0-0.9,0.3-1.7,0.8-2.2s1.2-0.8,2-0.8
			c0.5,0,0.9,0.1,1.2,0.2c0.3,0.1,0.5,0.3,0.7,0.5s0.4,0.5,0.5,0.8c0.2,0.4,0.3,0.9,0.3,1.5C83.5,157.4,83.3,158.1,82.7,158.6z
			 M81.9,154.9c-0.3-0.3-0.7-0.5-1.2-0.5s-0.9,0.2-1.1,0.5s-0.4,0.8-0.4,1.5s0.1,1.2,0.4,1.5s0.7,0.5,1.1,0.5s0.8-0.2,1.1-0.5
			c0.3-0.3,0.4-0.8,0.4-1.5C82.3,155.8,82.2,155.3,81.9,154.9z"/>
	</g>
	<g>
		<path class="st4" d="M243,159.3v-2.2h-0.8c-0.5,0-0.9,0-1.2-0.1c-0.2,0-0.4-0.1-0.6-0.3s-0.4-0.3-0.5-0.6
			c-0.1-0.2-0.2-0.5-0.2-0.9c0-0.5,0.1-0.8,0.3-1.1s0.5-0.5,0.8-0.6c0.2-0.1,0.7-0.1,1.4-0.1h1.9v5.7H243V159.3z M242.4,154.5
			c-0.4,0-0.7,0-0.8,0c-0.2,0-0.3,0.1-0.5,0.3s-0.2,0.3-0.2,0.5s0,0.3,0.1,0.4c0.1,0.1,0.2,0.2,0.4,0.3s0.5,0.1,0.9,0.1h0.6v-1.6
			H242.4z"/>
		<path class="st4" d="M238.3,158.6c-0.5,0.5-1.2,0.8-2,0.8s-1.5-0.3-2-0.8s-0.8-1.2-0.8-2.2c0-0.9,0.3-1.7,0.8-2.2s1.2-0.8,2-0.8
			c0.5,0,0.9,0.1,1.2,0.2c0.3,0.1,0.5,0.3,0.7,0.5s0.4,0.5,0.5,0.8c0.2,0.4,0.3,0.9,0.3,1.5C239,157.4,238.8,158.1,238.3,158.6z
			 M237.4,154.9c-0.3-0.3-0.7-0.5-1.2-0.5s-0.9,0.2-1.1,0.5s-0.4,0.8-0.4,1.5s0.1,1.2,0.4,1.5s0.7,0.5,1.1,0.5s0.8-0.2,1.1-0.5
			s0.4-0.8,0.4-1.5C237.8,155.8,237.7,155.3,237.4,154.9z"/>
		<path class="st4" d="M231.4,159.3v-2.4h-0.2c-0.3,0-0.5,0-0.6,0.1s-0.2,0.1-0.3,0.2c-0.1,0.1-0.3,0.4-0.6,0.8l-0.8,1.2h-1.4
			l0.7-1.1c0.3-0.4,0.5-0.8,0.7-0.9c0.2-0.2,0.4-0.3,0.6-0.5c-0.5-0.1-0.9-0.2-1.1-0.5c-0.3-0.3-0.4-0.6-0.4-1.1
			c0-0.3,0.1-0.6,0.2-0.9s0.4-0.4,0.7-0.5s0.7-0.2,1.3-0.2h2.4v5.7L231.4,159.3L231.4,159.3z M231.4,154.5h-0.9c-0.5,0-0.8,0-0.8,0
			c-0.2,0-0.3,0.1-0.4,0.2s-0.2,0.3-0.2,0.5s0,0.3,0.1,0.4c0.1,0.1,0.2,0.2,0.3,0.2s0.5,0.1,1,0.1h0.9L231.4,154.5L231.4,154.5z"/>
		<path class="st4" d="M224.3,159.3v-4.8h-1.7v-1h4.6v1h-1.7v4.8H224.3z"/>
		<path class="st4" d="M219.2,158.6c-0.5,0.5-1.2,0.8-2,0.8s-1.5-0.3-2-0.8s-0.8-1.2-0.8-2.2c0-0.9,0.3-1.7,0.8-2.2s1.2-0.8,2-0.8
			c0.5,0,0.9,0.1,1.2,0.2c0.3,0.1,0.5,0.3,0.7,0.5s0.4,0.5,0.5,0.8c0.2,0.4,0.3,0.9,0.3,1.5C219.9,157.4,219.7,158.1,219.2,158.6z
			 M218.3,154.9c-0.3-0.3-0.7-0.5-1.2-0.5s-0.9,0.2-1.1,0.5s-0.4,0.8-0.4,1.5s0.1,1.2,0.4,1.5s0.7,0.5,1.1,0.5s0.8-0.2,1.1-0.5
			s0.4-0.8,0.4-1.5C218.7,155.8,218.6,155.3,218.3,154.9z"/>
		<path class="st4" d="M212.3,159.3v-2.4h-2.4v-1h2.4v-1.4h-2.8v-1h3.9v5.7L212.3,159.3L212.3,159.3z"/>
	</g>
</g>
<g id="Hand">
	<polyline class="st8 hand" points="176.7,89.5 177.4,101 176.7,102 176.7,102 176,101 176.7,89.5 	"/>
</g>
</svg>
