<?xml version="1.0" encoding="utf-8"?>
<!-- Generator: Adobe Illustrator 21.1.0, SVG Export Plug-In . SVG Version: 6.00 Build 0)  -->
<svg version="1.1" id="Layer_1" xmlns="http://www.w3.org/2000/svg" xmlns:xlink="http://www.w3.org/1999/xlink" x="0px" y="0px"
	 viewBox="0 0 14.8 7.6" style="enable-background:new 0 0 14.8 7.6;" xml:space="preserve">
<style type="text/css">
	.st0{fill:#F8AD8F;}
	.st1{fill:#16333D;}
	.st2{fill:#F9F6ED;}
</style>
<path class="st0" d="M1.8,6.6h12.1c0.5,0,0.9-0.4,0.9-0.9V4.6c0-1-0.7-1.8-1.6-2l-1.6-0.3l-1.3-1.5C9.7,0.3,9.1,0,8.4,0H4.9
	C3.5,0,2.2,0.8,1.4,2L0.3,4.2C0.2,4.4,0.1,4.7,0.1,4.9v0C0.1,5.9,0.8,6.6,1.8,6.6z"/>
<path class="st1" d="M10.8,2.6"/>
<path class="st1" d="M5.1,2.6"/>
<path class="st1" d="M5.7,2.8H10c0.3,0,0.4-0.3,0.2-0.6L9.2,1.1C9,0.8,8.7,0.7,8.4,0.7l-2.7,0L5.7,2.8z"/>
<ellipse class="st1" cx="3.3" cy="6.1" rx="1.6" ry="1.5"/>
<ellipse class="st2" cx="3.3" cy="6.1" rx="0.9" ry="0.8"/>
<ellipse class="st1" cx="11.2" cy="6.1" rx="1.6" ry="1.5"/>
<ellipse class="st2" cx="11.2" cy="6.1" rx="0.9" ry="0.8"/>
<path class="st1" d="M2.2,2.8h3.2l0-2C3.9,0.8,2.7,1.4,2.2,2.8"/>
<rect x="14.3" y="4.8" class="st1" width="0.5" height="0.7"/>
<rect y="4.8" class="st1" width="0.9" height="0.7"/>
<rect x="0.3" y="3.6" class="st2" width="5.4" height="0.5"/>
<rect x="10.4" y="3.6" class="st2" width="4.4" height="0.5"/>
</svg>
