<?xml version="1.0" encoding="utf-8"?>
<!-- Generator: Adobe Illustrator 21.1.0, SVG Export Plug-In . SVG Version: 6.00 Build 0)  -->
<svg version="1.1" id="Layer_1" xmlns="http://www.w3.org/2000/svg" xmlns:xlink="http://www.w3.org/1999/xlink" x="0px" y="0px"
	 viewBox="0 0 231.6 57.5" style="enable-background:new 0 0 231.6 57.5;" xml:space="preserve">
<style type="text/css">
	.st0{fill:#FFFFFF;}
	.st1{fill:#77BCB8;}
	.st2{fill:#6EAFAA;}
	.st3{fill:#F27E5F;}
	.st4{fill:#E56E57;}
	.st5{fill:#4C827F;}
	.st6{fill:#40706C;}
	.st7{fill:#ADDEE0;}
	.st8{fill:#9FD1D1;}
	.st9{fill:#843F2C;}
	.st10{fill:#773525;}
	.st11{fill:#F8AD8F;}
	.st12{fill:#E89E85;}
	.st13{fill:#EAEAEA;}
	.st14{fill:#283B48;}
</style>
<polygon class="st0" points="45.8,7.7 20,7.7 20,20.8 3.1,20.8 3.1,33.6 45.8,33.6 "/>
<g>
	
		<rect x="95.8" y="0" transform="matrix(-1 -4.492197e-11 4.492197e-11 -1 224.7082 11.186)" class="st1" width="33.2" height="11.2"/>
	
		<rect x="126.1" y="0.9" transform="matrix(-1 -4.485402e-11 4.485402e-11 -1 254.0246 11.186)" class="st2" width="1.8" height="9.5"/>
	
		<rect x="123.7" y="0.9" transform="matrix(-1 -4.485402e-11 4.485402e-11 -1 249.1385 11.186)" class="st2" width="1.8" height="9.5"/>
	
		<rect x="121.2" y="0.9" transform="matrix(-1 -4.485402e-11 4.485402e-11 -1 244.2524 11.186)" class="st2" width="1.8" height="9.5"/>
	
		<rect x="118.8" y="0.9" transform="matrix(-1 -4.485402e-11 4.485402e-11 -1 239.3664 11.186)" class="st2" width="1.8" height="9.5"/>
	
		<rect x="116.3" y="0.9" transform="matrix(-1 -4.485402e-11 4.485402e-11 -1 234.4803 11.186)" class="st2" width="1.8" height="9.5"/>
	
		<rect x="113.9" y="0.9" transform="matrix(-1 -4.485402e-11 4.485402e-11 -1 229.5942 11.186)" class="st2" width="1.8" height="9.5"/>
	
		<rect x="111.4" y="0.9" transform="matrix(-1 -4.485402e-11 4.485402e-11 -1 224.7082 11.186)" class="st2" width="1.8" height="9.5"/>
	
		<rect x="109" y="0.9" transform="matrix(-1 -4.485402e-11 4.485402e-11 -1 219.8221 11.186)" class="st2" width="1.8" height="9.5"/>
	
		<rect x="106.6" y="0.9" transform="matrix(-1 -4.485402e-11 4.485402e-11 -1 214.9361 11.186)" class="st2" width="1.8" height="9.5"/>
	
		<rect x="104.1" y="0.9" transform="matrix(-1 -4.485402e-11 4.485402e-11 -1 210.05 11.186)" class="st2" width="1.8" height="9.5"/>
	
		<rect x="101.7" y="0.9" transform="matrix(-1 -4.485402e-11 4.485402e-11 -1 205.1639 11.186)" class="st2" width="1.8" height="9.5"/>
	
		<rect x="99.2" y="0.9" transform="matrix(-1 -4.485402e-11 4.485402e-11 -1 200.2778 11.186)" class="st2" width="1.8" height="9.5"/>
	
		<rect x="96.8" y="0.9" transform="matrix(-1 -4.485402e-11 4.485402e-11 -1 195.3918 11.186)" class="st2" width="1.8" height="9.5"/>
</g>
<g>
	
		<rect x="50.3" y="22.4" transform="matrix(-1 -4.486734e-11 4.486734e-11 -1 133.7364 55.93)" class="st1" width="33.2" height="11.2"/>
	
		<rect x="80.6" y="23.2" transform="matrix(-1 -4.485402e-11 4.485402e-11 -1 163.0528 55.93)" class="st2" width="1.8" height="9.5"/>
	
		<rect x="78.2" y="23.2" transform="matrix(-1 -4.485402e-11 4.485402e-11 -1 158.1667 55.93)" class="st2" width="1.8" height="9.5"/>
	
		<rect x="75.7" y="23.2" transform="matrix(-1 -4.485402e-11 4.485402e-11 -1 153.2806 55.93)" class="st2" width="1.8" height="9.5"/>
	
		<rect x="73.3" y="23.2" transform="matrix(-1 -4.485402e-11 4.485402e-11 -1 148.3946 55.93)" class="st2" width="1.8" height="9.5"/>
	
		<rect x="70.8" y="23.2" transform="matrix(-1 -4.485402e-11 4.485402e-11 -1 143.5085 55.93)" class="st2" width="1.8" height="9.5"/>
	
		<rect x="68.4" y="23.2" transform="matrix(-1 -4.485402e-11 4.485402e-11 -1 138.6224 55.93)" class="st2" width="1.8" height="9.5"/>
	
		<rect x="66" y="23.2" transform="matrix(-1 -4.485402e-11 4.485402e-11 -1 133.7364 55.93)" class="st2" width="1.8" height="9.5"/>
	
		<rect x="63.5" y="23.2" transform="matrix(-1 -4.485402e-11 4.485402e-11 -1 128.8503 55.93)" class="st2" width="1.8" height="9.5"/>
	
		<rect x="61.1" y="23.2" transform="matrix(-1 -4.485402e-11 4.485402e-11 -1 123.9642 55.93)" class="st2" width="1.8" height="9.5"/>
	
		<rect x="58.6" y="23.2" transform="matrix(-1 -4.485402e-11 4.485402e-11 -1 119.0782 55.93)" class="st2" width="1.8" height="9.5"/>
	
		<rect x="56.2" y="23.2" transform="matrix(-1 -4.485402e-11 4.485402e-11 -1 114.1921 55.93)" class="st2" width="1.8" height="9.5"/>
	
		<rect x="53.7" y="23.2" transform="matrix(-1 -4.485402e-11 4.485402e-11 -1 109.306 55.93)" class="st2" width="1.8" height="9.5"/>
	
		<rect x="51.3" y="23.2" transform="matrix(-1 -4.485402e-11 4.485402e-11 -1 104.42 55.93)" class="st2" width="1.8" height="9.5"/>
</g>
<g>
	<rect x="50.3" y="11.2" class="st3" width="33.2" height="11.2"/>
	<rect x="51.3" y="12" class="st4" width="1.8" height="9.5"/>
	<rect x="53.7" y="12" class="st4" width="1.8" height="9.5"/>
	<rect x="56.2" y="12" class="st4" width="1.8" height="9.5"/>
	<rect x="58.6" y="12" class="st4" width="1.8" height="9.5"/>
	<rect x="61.1" y="12" class="st4" width="1.8" height="9.5"/>
	<rect x="63.5" y="12" class="st4" width="1.8" height="9.5"/>
	<rect x="66" y="12" class="st4" width="1.8" height="9.5"/>
	<rect x="68.4" y="12" class="st4" width="1.8" height="9.5"/>
	<rect x="70.8" y="12" class="st4" width="1.8" height="9.5"/>
	<rect x="73.3" y="12" class="st4" width="1.8" height="9.5"/>
	<rect x="75.7" y="12" class="st4" width="1.8" height="9.5"/>
	<rect x="78.2" y="12" class="st4" width="1.8" height="9.5"/>
	<rect x="80.6" y="12" class="st4" width="1.8" height="9.5"/>
</g>
<g>
	
		<rect x="129" y="22.4" transform="matrix(-1 -4.486734e-11 4.486734e-11 -1 291.1153 55.93)" class="st5" width="33.2" height="11.2"/>
	
		<rect x="159.3" y="23.2" transform="matrix(-1 -4.485402e-11 4.485402e-11 -1 320.4317 55.93)" class="st6" width="1.8" height="9.5"/>
	
		<rect x="156.9" y="23.2" transform="matrix(-1 -4.485402e-11 4.485402e-11 -1 315.5456 55.93)" class="st6" width="1.8" height="9.5"/>
	
		<rect x="154.4" y="23.2" transform="matrix(-1 -4.485402e-11 4.485402e-11 -1 310.6595 55.93)" class="st6" width="1.8" height="9.5"/>
	
		<rect x="152" y="23.2" transform="matrix(-1 -4.485402e-11 4.485402e-11 -1 305.7735 55.93)" class="st6" width="1.8" height="9.5"/>
	
		<rect x="149.5" y="23.2" transform="matrix(-1 -4.485402e-11 4.485402e-11 -1 300.8874 55.93)" class="st6" width="1.8" height="9.5"/>
	
		<rect x="147.1" y="23.2" transform="matrix(-1 -4.485402e-11 4.485402e-11 -1 296.0013 55.93)" class="st6" width="1.8" height="9.5"/>
	
		<rect x="144.6" y="23.2" transform="matrix(-1 -4.485402e-11 4.485402e-11 -1 291.1153 55.93)" class="st6" width="1.8" height="9.5"/>
	
		<rect x="142.2" y="23.2" transform="matrix(-1 -4.485402e-11 4.485402e-11 -1 286.2292 55.93)" class="st6" width="1.8" height="9.5"/>
	
		<rect x="139.8" y="23.2" transform="matrix(-1 -4.585056e-11 4.585056e-11 -1 281.3431 55.93)" class="st6" width="1.8" height="9.5"/>
	
		<rect x="137.3" y="23.2" transform="matrix(-1 -4.485402e-11 4.485402e-11 -1 276.4571 55.93)" class="st6" width="1.8" height="9.5"/>
	
		<rect x="134.9" y="23.2" transform="matrix(-1 -4.485402e-11 4.485402e-11 -1 271.571 55.93)" class="st6" width="1.8" height="9.5"/>
	
		<rect x="132.4" y="23.2" transform="matrix(-1 -4.485402e-11 4.485402e-11 -1 266.6849 55.93)" class="st6" width="1.8" height="9.5"/>
	
		<rect x="130" y="23.2" transform="matrix(-1 -4.485402e-11 4.485402e-11 -1 261.7989 55.93)" class="st6" width="1.8" height="9.5"/>
</g>
<g>
	
		<rect x="162.2" y="22.4" transform="matrix(-1 -4.492241e-11 4.492241e-11 -1 335.5351 55.93)" class="st7" width="11.2" height="11.2"/>
	
		<rect x="170.5" y="23.2" transform="matrix(-1 -4.485402e-11 4.485402e-11 -1 342.8642 55.93)" class="st8" width="1.8" height="9.5"/>
	
		<rect x="168.1" y="23.2" transform="matrix(-1 -4.485402e-11 4.485402e-11 -1 337.9781 55.93)" class="st8" width="1.8" height="9.5"/>
	
		<rect x="165.6" y="23.2" transform="matrix(-1 -4.485402e-11 4.485402e-11 -1 333.092 55.93)" class="st8" width="1.8" height="9.5"/>
	
		<rect x="163.2" y="23.2" transform="matrix(-1 -4.485402e-11 4.485402e-11 -1 328.206 55.93)" class="st8" width="1.8" height="9.5"/>
</g>
<g>
	
		<rect x="162.2" y="11.2" transform="matrix(-1 -4.492241e-11 4.492241e-11 -1 335.5351 33.558)" class="st9" width="11.2" height="11.2"/>
	
		<rect x="170.5" y="12" transform="matrix(-1 -4.485402e-11 4.485402e-11 -1 342.8642 33.558)" class="st10" width="1.8" height="9.5"/>
	
		<rect x="168.1" y="12" transform="matrix(-1 -4.485402e-11 4.485402e-11 -1 337.9781 33.558)" class="st10" width="1.8" height="9.5"/>
	
		<rect x="165.6" y="12" transform="matrix(-1 -4.485402e-11 4.485402e-11 -1 333.092 33.558)" class="st10" width="1.8" height="9.5"/>
	
		<rect x="163.2" y="12" transform="matrix(-1 -4.485402e-11 4.485402e-11 -1 328.206 33.558)" class="st10" width="1.8" height="9.5"/>
</g>
<g>
	
		<rect x="61.5" y="0" transform="matrix(-1 -4.492241e-11 4.492241e-11 -1 134.1815 11.186)" class="st9" width="11.2" height="11.2"/>
	
		<rect x="69.8" y="0.9" transform="matrix(-1 -4.485402e-11 4.485402e-11 -1 141.5107 11.186)" class="st10" width="1.8" height="9.5"/>
	
		<rect x="67.4" y="0.9" transform="matrix(-1 -4.585056e-11 4.585056e-11 -1 136.6246 11.186)" class="st10" width="1.8" height="9.5"/>
	
		<rect x="65" y="0.9" transform="matrix(-1 -4.485402e-11 4.485402e-11 -1 131.7385 11.186)" class="st10" width="1.8" height="9.5"/>
	
		<rect x="62.5" y="0.9" transform="matrix(-1 -4.485402e-11 4.485402e-11 -1 126.8525 11.186)" class="st10" width="1.8" height="9.5"/>
</g>
<g>
	
		<rect x="50.3" y="0" transform="matrix(-1 -4.476032e-11 4.476032e-11 -1 111.7491 11.186)" class="st5" width="11.2" height="11.2"/>
	
		<rect x="58.6" y="0.9" transform="matrix(-1 -4.485402e-11 4.485402e-11 -1 119.0782 11.186)" class="st6" width="1.8" height="9.5"/>
	
		<rect x="56.2" y="0.9" transform="matrix(-1 -4.485402e-11 4.485402e-11 -1 114.1921 11.186)" class="st6" width="1.8" height="9.5"/>
	
		<rect x="53.7" y="0.9" transform="matrix(-1 -4.485402e-11 4.485402e-11 -1 109.306 11.186)" class="st6" width="1.8" height="9.5"/>
	
		<rect x="51.3" y="0.9" transform="matrix(-1 -4.485402e-11 4.485402e-11 -1 104.42 11.186)" class="st6" width="1.8" height="9.5"/>
</g>
<g>
	
		<rect x="150.9" y="11.2" transform="matrix(-1 -4.476032e-11 4.476032e-11 -1 313.1026 33.558)" class="st11" width="11.2" height="11.2"/>
	
		<rect x="159.3" y="12" transform="matrix(-1 -4.485402e-11 4.485402e-11 -1 320.4317 33.558)" class="st12" width="1.8" height="9.5"/>
	
		<rect x="156.9" y="12" transform="matrix(-1 -4.485402e-11 4.485402e-11 -1 315.5456 33.558)" class="st12" width="1.8" height="9.5"/>
	
		<rect x="154.4" y="12" transform="matrix(-1 -4.485402e-11 4.485402e-11 -1 310.6595 33.558)" class="st12" width="1.8" height="9.5"/>
	
		<rect x="152" y="12" transform="matrix(-1 -4.485402e-11 4.485402e-11 -1 305.7735 33.558)" class="st12" width="1.8" height="9.5"/>
</g>
<g>
	
		<rect x="95.8" y="11.2" transform="matrix(-1 -4.486734e-11 4.486734e-11 -1 224.7082 33.558)" class="st7" width="33.2" height="11.2"/>
	
		<rect x="126.1" y="12" transform="matrix(-1 -4.485402e-11 4.485402e-11 -1 254.0246 33.558)" class="st8" width="1.8" height="9.5"/>
	
		<rect x="123.7" y="12" transform="matrix(-1 -4.485402e-11 4.485402e-11 -1 249.1385 33.558)" class="st8" width="1.8" height="9.5"/>
	
		<rect x="121.2" y="12" transform="matrix(-1 -4.485402e-11 4.485402e-11 -1 244.2524 33.558)" class="st8" width="1.8" height="9.5"/>
	
		<rect x="118.8" y="12" transform="matrix(-1 -4.485402e-11 4.485402e-11 -1 239.3664 33.558)" class="st8" width="1.8" height="9.5"/>
	
		<rect x="116.3" y="12" transform="matrix(-1 -4.485402e-11 4.485402e-11 -1 234.4803 33.558)" class="st8" width="1.8" height="9.5"/>
	
		<rect x="113.9" y="12" transform="matrix(-1 -4.485402e-11 4.485402e-11 -1 229.5942 33.558)" class="st8" width="1.8" height="9.5"/>
	
		<rect x="111.4" y="12" transform="matrix(-1 -4.485402e-11 4.485402e-11 -1 224.7082 33.558)" class="st8" width="1.8" height="9.5"/>
	
		<rect x="109" y="12" transform="matrix(-1 -4.485402e-11 4.485402e-11 -1 219.8221 33.558)" class="st8" width="1.8" height="9.5"/>
	
		<rect x="106.6" y="12" transform="matrix(-1 -4.585056e-11 4.585056e-11 -1 214.9361 33.558)" class="st8" width="1.8" height="9.5"/>
	
		<rect x="104.1" y="12" transform="matrix(-1 -4.485402e-11 4.485402e-11 -1 210.05 33.558)" class="st8" width="1.8" height="9.5"/>
	
		<rect x="101.7" y="12" transform="matrix(-1 -4.485402e-11 4.485402e-11 -1 205.1639 33.558)" class="st8" width="1.8" height="9.5"/>
	
		<rect x="99.2" y="12" transform="matrix(-1 -4.485402e-11 4.485402e-11 -1 200.2778 33.558)" class="st8" width="1.8" height="9.5"/>
	
		<rect x="96.8" y="12" transform="matrix(-1 -4.485402e-11 4.485402e-11 -1 195.3918 33.558)" class="st8" width="1.8" height="9.5"/>
</g>
<g>
	
		<rect x="95.8" y="22.4" transform="matrix(-1 -4.486734e-11 4.486734e-11 -1 224.7082 55.93)" class="st11" width="33.2" height="11.2"/>
	
		<rect x="126.1" y="23.2" transform="matrix(-1 -4.485402e-11 4.485402e-11 -1 254.0246 55.93)" class="st12" width="1.8" height="9.5"/>
	
		<rect x="123.7" y="23.2" transform="matrix(-1 -4.485402e-11 4.485402e-11 -1 249.1385 55.93)" class="st12" width="1.8" height="9.5"/>
	
		<rect x="121.2" y="23.2" transform="matrix(-1 -4.485402e-11 4.485402e-11 -1 244.2524 55.93)" class="st12" width="1.8" height="9.5"/>
	
		<rect x="118.8" y="23.2" transform="matrix(-1 -4.485402e-11 4.485402e-11 -1 239.3664 55.93)" class="st12" width="1.8" height="9.5"/>
	
		<rect x="116.3" y="23.2" transform="matrix(-1 -4.485402e-11 4.485402e-11 -1 234.4803 55.93)" class="st12" width="1.8" height="9.5"/>
	
		<rect x="113.9" y="23.2" transform="matrix(-1 -4.485402e-11 4.485402e-11 -1 229.5942 55.93)" class="st12" width="1.8" height="9.5"/>
	
		<rect x="111.4" y="23.2" transform="matrix(-1 -4.485402e-11 4.485402e-11 -1 224.7082 55.93)" class="st12" width="1.8" height="9.5"/>
	
		<rect x="109" y="23.2" transform="matrix(-1 -4.485402e-11 4.485402e-11 -1 219.8221 55.93)" class="st12" width="1.8" height="9.5"/>
	
		<rect x="106.6" y="23.2" transform="matrix(-1 -4.585056e-11 4.585056e-11 -1 214.9361 55.93)" class="st12" width="1.8" height="9.5"/>
	
		<rect x="104.1" y="23.2" transform="matrix(-1 -4.485402e-11 4.485402e-11 -1 210.05 55.93)" class="st12" width="1.8" height="9.5"/>
	
		<rect x="101.7" y="23.2" transform="matrix(-1 -4.485402e-11 4.485402e-11 -1 205.1639 55.93)" class="st12" width="1.8" height="9.5"/>
	
		<rect x="99.2" y="23.2" transform="matrix(-1 -4.485402e-11 4.485402e-11 -1 200.2778 55.93)" class="st12" width="1.8" height="9.5"/>
	
		<rect x="96.8" y="23.2" transform="matrix(-1 -4.485402e-11 4.485402e-11 -1 195.3918 55.93)" class="st12" width="1.8" height="9.5"/>
</g>
<path class="st0" d="M226.2,37.7c2,3.6-2.6,3.7-2.6,3.7C148.1,46.7,6.6,47.8,6.6,47.8H230C230,47.8,235.6,42.4,226.2,37.7"/>
<path class="st13" d="M215.2,57.5c1.9-3.5-2.6-3.6-2.6-3.6c-72.8-5.1-206-6.1-206-6.1H219C219,47.8,224.3,53,215.2,57.5"/>
<path class="st14" d="M176.4,33.6h-64.5H0c0,0,3.2,13.3,6.6,14.2c0,0,138.8-1.1,214.7-6.2l6.8-13.1H179L176.4,33.6z"/>
<circle class="st13" cx="214.6" cy="36.3" r="1.5"/>
<circle class="st13" cx="208.6" cy="36.3" r="1.5"/>
<circle class="st13" cx="202.6" cy="36.3" r="1.5"/>
<circle class="st13" cx="196.6" cy="36.3" r="1.5"/>
<circle class="st13" cx="28.1" cy="27.8" r="1.5"/>
<circle class="st13" cx="22.1" cy="27.8" r="1.5"/>
<circle class="st13" cx="16.1" cy="27.8" r="1.5"/>
<circle class="st13" cx="10.1" cy="27.8" r="1.5"/>
<rect x="32.7" y="11" transform="matrix(-1 -4.486912e-11 4.486912e-11 -1 78.5411 27.779)" class="st13" width="13.1" height="5.8"/>
</svg>
