<?xml version="1.0" encoding="utf-8"?>
<!-- Generator: Adobe Illustrator 21.1.0, SVG Export Plug-In . SVG Version: 6.00 Build 0)  -->
<svg version="1.1" id="Layer_1" xmlns="http://www.w3.org/2000/svg" xmlns:xlink="http://www.w3.org/1999/xlink" x="0px" y="0px"
	 viewBox="0 0 224.6 147" style="enable-background:new 0 0 224.6 147;" xml:space="preserve">
<style type="text/css">
	.st0{fill:#F2ECDD;}
	.st1{fill:#FFFFFF;}
	.st2{fill:#F27E5F;}
	.st3{fill:#EAEAEA;}
	.st4{fill:#F9F6ED;}
	.st5{fill:#E8E2D4;}
</style>
<rect x="196.3" y="130.6" class="st0" width="28.4" height="16.4"/>
<polygon class="st1" points="100.4,0 111,27.9 110.8,46.8 118.5,46.8 115.8,88.2 122.6,88.2 117.2,120.9 117.2,129.3 52.9,129.3 
	52.9,6.4 "/>
<g>
	<path class="st2" d="M62,95.1h0.8c0,0.3,0.2,0.6,0.8,0.6c0.4,0,0.6-0.2,0.6-0.5c0-0.3-0.2-0.4-0.7-0.5c-1-0.1-1.4-0.4-1.4-1.2
		c0-0.7,0.6-1.2,1.4-1.2c0.9,0,1.4,0.4,1.5,1.2h-0.8c-0.1-0.4-0.3-0.5-0.6-0.5c-0.4,0-0.6,0.2-0.6,0.4c0,0.3,0.1,0.4,0.7,0.5
		c0.9,0.1,1.4,0.4,1.4,1.2c0,0.7-0.6,1.2-1.5,1.2C62.5,96.4,62,95.9,62,95.1z"/>
	<path class="st2" d="M65.8,92.4h2.5v0.7h-1.6v1H68v0.7h-1.3v1.5h-0.9V92.4z"/>
</g>
<g>
	<path class="st2" d="M70.8,89.3h1.2l0.9,2.4l0.9-2.4h1.1v3.9H74v-2.7l-1.1,2.7h-0.3l-1.1-2.7v2.7h-0.8V89.3z"/>
	<path class="st2" d="M75.6,91.2L75.6,91.2c0-1.2,0.9-2,2-2c1.2,0,2,0.8,2,2v0c0,1.2-0.8,2-2,2C76.4,93.2,75.6,92.4,75.6,91.2z
		 M78.7,91.2L78.7,91.2c0-0.8-0.4-1.3-1.1-1.3c-0.7,0-1.1,0.5-1.1,1.3v0c0,0.8,0.5,1.3,1.1,1.3C78.3,92.5,78.7,92,78.7,91.2z"/>
</g>
<g>
	<path class="st2" d="M79.5,94.9h1.2l0.9,2.4l0.9-2.4h1.1v3.9h-0.9v-2.7l-1.1,2.7h-0.3l-1.1-2.7v2.7h-0.8V94.9z"/>
	<path class="st2" d="M85.5,94.9h1.2l1.3,3.9H87L86.7,98h-1.4l-0.3,0.9h-0.8L85.5,94.9z M85.5,97.3h1L86,95.7L85.5,97.3z"/>
</g>
<rect x="70.5" y="23.5" class="st3" width="34.1" height="5.4"/>
<rect x="66.7" y="13.1" class="st3" width="34.1" height="5.4"/>
<rect x="87.6" y="41.4" class="st3" width="17" height="5.4"/>
<rect x="62" y="114.8" class="st3" width="42.6" height="5.4"/>
<rect x="52.9" y="129.3" class="st3" width="60.9" height="17.7"/>
<rect x="136.8" y="111.8" class="st0" width="31.8" height="35.2"/>
<rect x="140" y="118.2" class="st4" width="6.6" height="15.2"/>
<rect x="140" y="138.8" class="st5" width="6.6" height="8.2"/>
<rect x="149.4" y="118.2" class="st4" width="6.6" height="15.2"/>
<rect x="149.4" y="138.8" class="st5" width="6.6" height="8.2"/>
<rect x="158.7" y="118.2" class="st4" width="6.6" height="15.2"/>
<rect x="158.7" y="138.8" class="st5" width="6.6" height="8.2"/>
<rect x="200.1" y="138.8" class="st5" width="20.8" height="8.2"/>
<rect x="169.5" y="118.2" class="st0" width="25.7" height="28.8"/>
<rect x="173.1" y="121.2" class="st4" width="4.8" height="7.5"/>
<rect x="180" y="121.2" class="st4" width="4.8" height="7.5"/>
<rect x="186.8" y="121.2" class="st4" width="4.8" height="7.5"/>
<rect x="173.1" y="130.6" class="st4" width="4.8" height="7.5"/>
<rect x="180" y="130.6" class="st4" width="4.8" height="7.5"/>
<rect x="186.8" y="130.6" class="st4" width="4.8" height="7.5"/>
<rect x="0.2" y="23.5" class="st0" width="50.5" height="123.5"/>
<rect x="6.3" y="138.8" class="st5" width="38.2" height="8.2"/>
<rect x="33.6" y="37.6" class="st4" width="10.9" height="5.4"/>
<rect x="19.9" y="37.6" class="st4" width="10.9" height="5.4"/>
<rect x="6.3" y="37.6" class="st4" width="10.9" height="5.4"/>
<rect x="33.6" y="30.1" class="st4" width="10.9" height="5.4"/>
<rect x="19.9" y="30.1" class="st4" width="10.9" height="5.4"/>
<rect x="6.3" y="30.1" class="st4" width="10.9" height="5.4"/>
<rect x="33.6" y="45.1" class="st4" width="10.9" height="5.4"/>
<rect x="19.9" y="45.1" class="st4" width="10.9" height="5.4"/>
<rect x="6.3" y="45.1" class="st4" width="10.9" height="5.4"/>
<rect x="33.6" y="64.9" class="st4" width="10.9" height="5.4"/>
<rect x="19.9" y="64.9" class="st4" width="10.9" height="5.4"/>
<rect x="6.3" y="64.9" class="st4" width="10.9" height="5.4"/>
<rect x="33.6" y="57.4" class="st4" width="10.9" height="5.4"/>
<rect x="19.9" y="57.4" class="st4" width="10.9" height="5.4"/>
<rect x="6.3" y="57.4" class="st4" width="10.9" height="5.4"/>
<rect x="33.6" y="72.4" class="st4" width="10.9" height="5.4"/>
<rect x="19.9" y="72.4" class="st4" width="10.9" height="5.4"/>
<rect x="6.3" y="72.4" class="st4" width="10.9" height="5.4"/>
<rect x="33.6" y="92.1" class="st4" width="10.9" height="5.4"/>
<rect x="19.9" y="92.1" class="st4" width="10.9" height="5.4"/>
<rect x="6.3" y="92.1" class="st4" width="10.9" height="5.4"/>
<rect x="33.6" y="84.6" class="st4" width="10.9" height="5.4"/>
<rect x="19.9" y="84.6" class="st4" width="10.9" height="5.4"/>
<rect x="6.3" y="84.6" class="st4" width="10.9" height="5.4"/>
<rect x="33.6" y="99.6" class="st4" width="10.9" height="5.4"/>
<rect x="19.9" y="99.6" class="st4" width="10.9" height="5.4"/>
<rect x="6.3" y="99.6" class="st4" width="10.9" height="5.4"/>
<rect x="33.6" y="119.4" class="st4" width="10.9" height="5.4"/>
<rect x="19.9" y="119.4" class="st4" width="10.9" height="5.4"/>
<rect x="6.3" y="119.4" class="st4" width="10.9" height="5.4"/>
<rect x="33.6" y="111.9" class="st4" width="10.9" height="5.4"/>
<rect x="19.9" y="111.9" class="st4" width="10.9" height="5.4"/>
<rect x="6.3" y="111.9" class="st4" width="10.9" height="5.4"/>
<rect x="33.6" y="126.9" class="st4" width="10.9" height="5.4"/>
<rect x="19.9" y="126.9" class="st4" width="10.9" height="5.4"/>
<rect x="6.3" y="126.9" class="st4" width="10.9" height="5.4"/>
</svg>
