<?xml version="1.0" encoding="utf-8"?>
<!-- Generator: Adobe Illustrator 21.1.0, SVG Export Plug-In . SVG Version: 6.00 Build 0)  -->
<svg version="1.1" xmlns="http://www.w3.org/2000/svg" xmlns:xlink="http://www.w3.org/1999/xlink" x="0px" y="0px"
	 viewBox="0 0 391.8 78" style="enable-background:new 0 0 391.8 78;" xml:space="preserve">
<style type="text/css">
	.st0{fill:#4C827F;}
	.st1{fill:#77BCB8;}
	.st2{fill:#F27E5F;}
	.st3{fill:#F8AD8F;}
	.st4{fill:#843F2C;}
	.st5{fill:#E8E2D4;}
	@keyframes trees {
	  0% {
	    transform: scale(1, 1) rotate(0deg);
	  }
	  33% {
	    transform: scale(1, 1.05) rotate(-5deg);
	  }
		66% {
			transform: scale(1.05, 1) rotate(5deg);
		}
	  100% {
	    transform: scale(1, 1) rotate(0deg);
	  }
	}
	.delay {
		animation-delay: 0.2s;
	}
	.trees {
		animation: trees 3s infinite;
		transform-origin: 50% 50%;
	}
</style>
<g id="trees2">
	<path class="st0 trees delay" d="M89.2,53.5c0,6.7,4.9,9.6,11,9.6s11-2.9,11-9.6s-4.9-16.7-11-16.7S89.2,46.7,89.2,53.5z"/>
	<path class="st0 trees delay" d="M36.6,49.2c0,9.7,5.2,13.8,11.6,13.8s11.6-4.2,11.6-13.8s-5.2-24-11.6-24S36.6,39.6,36.6,49.2z"/>
	<path class="st1 trees delay" d="M373.7,61.3c0,5.5,4,7.9,9,7.9s9-2.4,9-7.9s-4-13.7-9-13.7C377.8,47.6,373.7,55.8,373.7,61.3z"/>
</g>
<g id="trees1">
	<path class="st1 trees" d="M0,61.3c0,5.5,4,7.9,9,7.9s9-2.4,9-7.9s-4-13.7-9-13.7S0,55.8,0,61.3z"/>
	<path class="st0 trees" d="M355.5,49.2c0,9.7,5.2,13.8,11.6,13.8s11.6-4.2,11.6-13.8s-5.2-24-11.6-24S355.5,39.6,355.5,49.2z"/>
	<path class="st1 trees" d="M74.6,46.3c0,8.5,6.2,12.1,13.8,12.1s13.8-3.7,13.8-12.1s-6.2-21-13.8-21S74.6,37.8,74.6,46.3z"/>
</g>
<g id="background">
	<polygon class="st2" points="124.7,78 271.8,78 271.8,45.2 104.7,45.2 104.7,49.3 124.7,49.3 	"/>
	<rect x="308" class="st3" width="47.5" height="10.7"/>
	<rect x="297.4" y="10.7" class="st4" width="56.8" height="1.7"/>
	<polyline class="st3" points="342.9,42.7 342.9,78 353.9,78 353.9,42.7 355.5,12.3 308,12.3 342.9,42.7 	"/>
	<rect x="296.2" class="st2" width="11.8" height="10.7"/>
	<rect x="271.8" y="45.2" class="st3" width="63.6" height="32.8"/>
	<polygon class="st2" points="335.4,45.2 335.4,78 342.9,78 342.9,45.2 342.9,42.7 308,12.3 296.2,12.3 313.9,42.7 313.9,45.2 	"/>
	<rect x="212.9" y="64.6" class="st4" width="51" height="13.4"/>
	<rect x="202.9" y="64.6" class="st3" width="10" height="13.4"/>
	<g>
		<path class="st5" d="M48.6,78h-2.8c0,0,1.4-21.7,1.4-30.2c0-0.5,0.3-0.8,0.7-0.8l0,0c0.4,0,0.7,0.3,0.7,0.8
			C48.8,51.1,49.3,64.4,48.6,78z"/>
		<path class="st5" d="M367.5,78h-2.8c0,0,1.4-21.7,1.4-30.2c0-0.5,0.3-0.8,0.7-0.8l0,0c0.4,0,0.7,0.3,0.7,0.8
			C367.7,51.1,368.2,64.4,367.5,78z"/>
		<path class="st5" d="M99.4,78h1.9c0,0-1-19.6-1-27.3c0-0.4-0.2-0.7-0.5-0.7l0,0c-0.3,0-0.5,0.3-0.5,0.7
			C99.2,53.6,98.9,65.7,99.4,78z"/>
		<path class="st5" d="M8.2,78h1.9c0,0-1-10.8-1-15.1c0-0.2-0.2-0.4-0.5-0.4l0,0c-0.3,0-0.5,0.2-0.5,0.4C8.1,64.5,7.7,71.2,8.2,78z"
			/>
		<path class="st5" d="M381.9,78h1.9c0,0-1-10.8-1-15.1c0-0.2-0.2-0.4-0.5-0.4l0,0c-0.3,0-0.5,0.2-0.5,0.4
			C381.8,64.5,381.4,71.2,381.9,78z"/>
		<path class="st5" d="M88.9,78h-2.5c0,0,1.3-25.6,1.3-35.7c0-0.5,0.3-1,0.6-1l0,0c0.3,0,0.6,0.4,0.6,0.9C89,46.1,89.5,61.9,88.9,78
			z"/>
	</g>
</g>
</svg>
