<?xml version="1.0" encoding="utf-8"?>
<!-- Generator: Adobe Illustrator 21.1.0, SVG Export Plug-In . SVG Version: 6.00 Build 0)  -->
<svg version="1.1" id="Layer_1" xmlns="http://www.w3.org/2000/svg" xmlns:xlink="http://www.w3.org/1999/xlink" x="0px" y="0px"
	 viewBox="0 0 88.4 25" style="enable-background:new 0 0 88.4 25;" xml:space="preserve">
<style type="text/css">
	.st0{fill:#F8AD8F;}
	.st1{fill:#77BCB8;}
	.st2{fill:#16333D;}
</style>
<path class="st0" d="M88.4,18.2H0.1v-7c0-2.2,1.8-4,4-4h80.3c2.2,0,4,1.8,4,4V18.2z"/>
<rect x="40.6" y="13.4" class="st1" width="7.4" height="11.5"/>
<rect x="42.5" y="15.2" class="st2" width="3.5" height="8"/>
<path class="st1" d="M55.9,7.2V3.3c0-1.7-1.7-3.1-3.7-3.1H36.3c-2,0-3.7,1.4-3.7,3.1v3.9h3.3V3.5c0,0.3,0.5,0.5,1.2,0.5
	c0.7,0,1.2-0.2,1.2-0.5S38.8,3,39.5,3c0.7,0,1.2,0.2,1.2,0.5S41.2,4,41.9,4c0.7,0,1.2-0.2,1.2-0.5S43.6,3,44.3,3
	c0.7,0,1.2,0.2,1.2,0.5h0C45.5,3.8,46,4,46.6,4c0.7,0,1.2-0.2,1.2-0.5S48.4,3,49,3c0.7,0,1.2,0.2,1.2,0.5S50.8,4,51.4,4
	c0.7,0,1.2-0.2,1.2-0.5v3.7H55.9z"/>
</svg>
