<?xml version="1.0" encoding="utf-8"?>
<!-- Generator: Adobe Illustrator 21.1.0, SVG Export Plug-In . SVG Version: 6.00 Build 0)  -->
<svg version="1.1" id="Layer_1" xmlns="http://www.w3.org/2000/svg" xmlns:xlink="http://www.w3.org/1999/xlink" x="0px" y="0px"
	 viewBox="0 0 28 16" style="enable-background:new 0 0 28 16;" xml:space="preserve">
<style type="text/css">
	.st0{fill:#77BCB8;}
	.st1{fill:#F9F6ED;}
	.st2{fill:#16333D;}
	.st3{fill:#4B807D;}
</style>
<g>
	<path class="st0" d="M25.7,9.9c1,0,1.9-0.8,1.9-1.9s-0.8-1.9-1.9-1.9H5.6L3,1.1H0.1l2.8,8.8H25.7z"/>
	<rect x="7.4" y="7.2" class="st1" width="1.1" height="1.4"/>
	<rect x="10.1" y="7.2" class="st1" width="1.1" height="1.4"/>
	<rect x="12.7" y="7.2" class="st1" width="1.1" height="1.4"/>
	<rect x="15.4" y="7.2" class="st1" width="1.1" height="1.4"/>
	<rect x="18" y="7.2" class="st1" width="1.1" height="1.4"/>
	<rect x="20.6" y="7.2" class="st1" width="1.1" height="1.4"/>
	<polygon class="st2" points="0.6,2.7 0.1,1.1 3,1.1 3.8,2.7 	"/>
	<path class="st2" d="M27.6,8c0,1-0.8,1.9-1.9,1.9h-2.9L27.6,8z"/>
	<polygon class="st3" points="19.2,6.1 13.8,0 11.2,0 13.8,6.1 	"/>
	<polygon class="st3" points="19.2,9.9 13.8,16 11.2,16 13.8,9.9 	"/>
</g>
</svg>
