<?xml version="1.0" encoding="utf-8"?>
<!-- Generator: Adobe Illustrator 21.1.0, SVG Export Plug-In . SVG Version: 6.00 Build 0)  -->
<svg version="1.1" id="Layer_1" xmlns="http://www.w3.org/2000/svg" xmlns:xlink="http://www.w3.org/1999/xlink" x="0px" y="0px"
	 viewBox="0 0 21.5 11.5" style="enable-background:new 0 0 21.5 11.5;" xml:space="preserve">
<style type="text/css">
	.st0{fill:#77BCB8;}
	.st1{fill:#16333D;}
	.st2{fill:#F9F6ED;}
	.st3{fill:#4C827F;}
</style>
<g>
	<path class="st0" d="M21.3,5.9l-1-0.6l-2.6-5C17.6,0.1,17.5,0,17.3,0L0.5,0C0.3,0,0,0.2,0,0.5l0,8.7c0,0.3,0.2,0.5,0.5,0.5H21
		c0.3,0,0.5-0.2,0.5-0.5V6.3C21.5,6.1,21.4,6,21.3,5.9z"/>
	<circle class="st1" cx="17.3" cy="9.6" r="1.9"/>
	<circle class="st2" cx="17.3" cy="9.7" r="1.1"/>
	<circle class="st1" cx="3.4" cy="9.6" r="1.9"/>
	<circle class="st2" cx="3.4" cy="9.7" r="1.1"/>
	<polygon class="st2" points="1.3,3.5 1.7,1.8 10.5,1.8 10.9,3.5 	"/>
	<rect x="2" y="3.5" class="st1" width="8.2" height="2.2"/>
	<rect x="1.7" y="5.7" class="st2" width="8.9" height="0.4"/>
	<rect x="12.8" y="1.8" class="st1" width="2.5" height="3.9"/>
	<polygon class="st1" points="17.5,1.8 16.7,1.8 16.7,5.7 19.5,5.7 	"/>
	<g>
		<rect x="9.6" y="1.8" class="st3" width="0.6" height="1.7"/>
		<rect x="8.5" y="1.8" class="st3" width="0.6" height="1.7"/>
		<rect x="7.4" y="1.8" class="st3" width="0.6" height="1.7"/>
		<rect x="6.3" y="1.8" class="st3" width="0.6" height="1.7"/>
		<rect x="5.2" y="1.8" class="st3" width="0.6" height="1.7"/>
		<rect x="4.2" y="1.8" class="st3" width="0.6" height="1.7"/>
		<rect x="3.1" y="1.8" class="st3" width="0.6" height="1.7"/>
		<rect x="2" y="1.8" class="st3" width="0.6" height="1.7"/>
	</g>
	<rect x="20.4" y="7.4" class="st2" width="1.1" height="0.8"/>
	<rect x="0.1" y="7.4" class="st2" width="1.1" height="0.8"/>
</g>
</svg>
