<?xml version="1.0" encoding="utf-8"?>
<!-- Generator: Adobe Illustrator 21.1.0, SVG Export Plug-In . SVG Version: 6.00 Build 0)  -->
<svg version="1.1" id="Layer_1" xmlns="http://www.w3.org/2000/svg" xmlns:xlink="http://www.w3.org/1999/xlink" x="0px" y="0px"
	 viewBox="0 0 88.8 109.8" style="enable-background:new 0 0 88.8 109.8;" xml:space="preserve">
<style type="text/css">
	.st0{fill:none;stroke:#77BCB8;stroke-width:0.1;stroke-miterlimit:10;}
	.st1{fill:#77BCB8;}
	.st2{fill:#FFFFFF;}
</style>
<path class="st0" d="M422.5,253.4"/>
<path class="st0" d="M417.3,252.3"/>
<path class="st1" d="M86.4,36.6c-0.6,0-1.1,0.2-1.5,0.6l-8.3-4.3l-4.7,0.7L37.8,2c-0.1-0.1-0.2-0.1-0.3-0.1L22.1,0
	c-0.2,0-0.4,0.1-0.5,0.2L0.1,29.7C0,29.9,0,30.2,0.1,30.4c0.1,0.1,0.2,0.1,0.4,0.1c0.1,0,0.2,0,0.3-0.1l27-20.2l0,0l0,0v0L55,55.3
	l6.9,7.8l-2,4H58v5.1h1.9v2.8h1v10.4L58.8,102l-11.1,3.6v4.2h32.7v-4.2L69.4,102l-2.1-16.8V74.8h13.8V63h-1L77,37.9l7.1,1
	c0,1.3,1,2.3,2.3,2.3s2.3-1,2.3-2.3C88.8,37.6,87.7,36.6,86.4,36.6z M2.9,27.6L22.3,1l5,8.3L2.9,27.6z M23.6,1.2l12.6,1.5l-7.4,5.5
	L23.6,1.2z M29.4,9L29.4,9l8.1-6l34.3,31.7l-10.3,18L29.4,9z M65.3,61.9l-3.5-8.1l10.6-18.4l2.3,2C74.7,37.3,65.3,61.9,65.3,61.9z
	 M79.2,63h-8.7l5.9-22.6L79.2,63z"/>
<rect x="67.6" y="65.7" transform="matrix(-1 -4.480339e-11 4.480339e-11 -1 146.0804 134.1054)" class="st2" width="11" height="2.6"/>
</svg>
