<?xml version="1.0" encoding="utf-8"?>
<!-- Generator: Adobe Illustrator 21.1.0, SVG Export Plug-In . SVG Version: 6.00 Build 0)  -->
<svg version="1.1" id="Layer_1" xmlns="http://www.w3.org/2000/svg" xmlns:xlink="http://www.w3.org/1999/xlink" x="0px" y="0px"
	 viewBox="0 0 88.4 25" style="enable-background:new 0 0 88.4 25;" xml:space="preserve">
<style type="text/css">
	.st0{fill:#D3D4CF;}
	.st1{fill:#283B48;}
	.st2{fill:#77BCB8;}
</style>
<path class="st0" d="M88.3,18.1H0.1v-7c0-2.2,1.8-4,4-4h80.3c2.2,0,4,1.8,4,4V18.1z"/>
<rect x="40.5" y="13.4" class="st1" width="7.4" height="11.5"/>
<rect x="42.4" y="15.2" class="st2" width="3.5" height="8"/>
<path class="st1" d="M55.9,7.1V3.2c0-1.7-1.7-3.1-3.7-3.1H36.2c-2,0-3.7,1.4-3.7,3.1v3.9h3.3V3.4C35.8,3.7,36.4,4,37,4
	c0.7,0,1.2-0.2,1.2-0.5s0.5-0.5,1.2-0.5c0.7,0,1.2,0.2,1.2,0.5S41.1,4,41.8,4C42.5,4,43,3.7,43,3.4s0.5-0.5,1.2-0.5
	c0.7,0,1.2,0.2,1.2,0.5h0c0,0.3,0.5,0.5,1.2,0.5c0.7,0,1.2-0.2,1.2-0.5s0.5-0.5,1.2-0.5c0.7,0,1.2,0.2,1.2,0.5S50.7,4,51.4,4
	c0.7,0,1.2-0.2,1.2-0.5v3.7H55.9z"/>
</svg>
