<?xml version="1.0" encoding="utf-8"?>
<!-- Generator: Adobe Illustrator 21.1.0, SVG Export Plug-In . SVG Version: 6.00 Build 0)  -->
<svg version="1.1" id="Layer_1" xmlns="http://www.w3.org/2000/svg" xmlns:xlink="http://www.w3.org/1999/xlink" x="0px" y="0px"
	 viewBox="0 0 21.5 11.5" style="enable-background:new 0 0 21.5 11.5;" xml:space="preserve">
<style type="text/css">
	.st0{fill:#77BCB8;}
	.st1{fill:#16333D;}
	.st2{fill:#F9F6ED;}
	.st3{fill:#4C827F;}
</style>
<g>
	<path class="st0" d="M0,6.3v2.9c0,0.3,0.2,0.5,0.5,0.5H21c0.3,0,0.5-0.2,0.5-0.5V0.5C21.5,0.2,21.2,0,21,0H4.2C4,0,3.9,0.1,3.8,0.3
		l-2.6,5L0.2,5.9C0.1,6,0,6.1,0,6.3z"/>
	<circle class="st1" cx="4.2" cy="9.6" r="1.9"/>
	<circle class="st2" cx="4.2" cy="9.7" r="1.1"/>
	<circle class="st1" cx="18.1" cy="9.6" r="1.9"/>
	<circle class="st2" cx="18.1" cy="9.7" r="1.1"/>
	<polygon class="st2" points="10.6,3.5 11,1.8 19.8,1.8 20.2,3.5 	"/>
	<rect x="11.3" y="3.5" class="st1" width="8.2" height="2.2"/>
	<rect x="10.9" y="5.7" class="st2" width="8.9" height="0.4"/>
	<rect x="6.2" y="1.8" class="st1" width="2.5" height="3.9"/>
	<polygon class="st1" points="2,5.7 4.8,5.7 4.8,1.8 4,1.8 	"/>
	<g>
		<rect x="11.3" y="1.8" class="st3" width="0.6" height="1.7"/>
		<rect x="12.4" y="1.8" class="st3" width="0.6" height="1.7"/>
		<rect x="13.5" y="1.8" class="st3" width="0.6" height="1.7"/>
		<rect x="14.6" y="1.8" class="st3" width="0.6" height="1.7"/>
		<rect x="15.7" y="1.8" class="st3" width="0.6" height="1.7"/>
		<rect x="16.7" y="1.8" class="st3" width="0.6" height="1.7"/>
		<rect x="17.8" y="1.8" class="st3" width="0.6" height="1.7"/>
		<rect x="18.9" y="1.8" class="st3" width="0.6" height="1.7"/>
	</g>
	<rect y="7.4" class="st2" width="1.1" height="0.8"/>
	<rect x="20.3" y="7.4" class="st2" width="1.1" height="0.8"/>
</g>
</svg>
