<?xml version="1.0" encoding="utf-8"?>
<!-- Generator: Adobe Illustrator 21.1.0, SVG Export Plug-In . SVG Version: 6.00 Build 0)  -->
<svg version="1.1" id="Layer_1" xmlns="http://www.w3.org/2000/svg" xmlns:xlink="http://www.w3.org/1999/xlink" x="0px" y="0px"
	 viewBox="0 0 24.5 11.5" style="enable-background:new 0 0 24.5 11.5;" xml:space="preserve">
<style type="text/css">
	.st0{fill:#843F2C;}
	.st1{fill:#16333D;}
	.st2{fill:#F9F6ED;}
</style>
<path class="st0" d="M24.5,6.3v2.9c0,0.3-0.2,0.5-0.5,0.5H0.5C0.2,9.7,0,9.5,0,9.2l0-8.7C0,0.2,0.2,0,0.5,0l19.7,0
	c0.2,0,0.4,0.1,0.4,0.3l2.6,5l0.9,0.6C24.4,6,24.5,6.1,24.5,6.3z"/>
<circle class="st1" cx="20.2" cy="9.6" r="1.9"/>
<circle class="st2" cx="20.2" cy="9.7" r="1.1"/>
<circle class="st1" cx="3.3" cy="9.6" r="1.9"/>
<circle class="st2" cx="3.3" cy="9.7" r="1.1"/>
<rect x="15.3" y="1.8" transform="matrix(-1 -7.904756e-11 7.904756e-11 -1 33.1354 10.5385)" class="st2" width="2.5" height="6.9"/>
<polygon class="st1" points="22.5,5.7 18.6,5.7 18.6,1.8 20.4,1.8 "/>
<rect x="23.3" y="7.4" transform="matrix(-1 -2.965329e-11 2.965329e-11 -1 47.8021 15.3347)" class="st2" width="1.1" height="0.6"/>
<rect x="0" y="7.4" transform="matrix(-1 -2.965329e-11 2.965329e-11 -1 1.1042 15.3347)" class="st2" width="1.1" height="0.6"/>
</svg>
