<?xml version="1.0" encoding="utf-8"?>
<!-- Generator: Adobe Illustrator 21.1.0, SVG Export Plug-In . SVG Version: 6.00 Build 0)  -->
<svg version="1.1" id="Layer_1" xmlns="http://www.w3.org/2000/svg" xmlns:xlink="http://www.w3.org/1999/xlink" x="0px" y="0px"
	 viewBox="0 0 26.4 11.3" style="enable-background:new 0 0 26.4 11.3;" xml:space="preserve">
<style type="text/css">
	.st0{fill:#16333D;}
	.st1{fill:#F27E5F;}
	.st2{fill:#F9F6ED;}
</style>
<circle class="st0" cx="19.9" cy="9.4" r="1.9"/>
<circle class="st0" cx="7.9" cy="9.4" r="1.9"/>
<path class="st1" d="M24.6,0H1.8C1,0,0.3,0.7,0.3,1.5v7.9h25.8V1.5C26.1,0.7,25.4,0,24.6,0z"/>
<rect x="2" y="1" class="st0" width="2.8" height="4.5"/>
<rect x="6" y="1" class="st0" width="2.8" height="4.5"/>
<rect x="12.9" y="1" class="st0" width="2.8" height="4.5"/>
<rect x="16.8" y="1" class="st0" width="2.8" height="4.5"/>
<rect x="20.5" y="1" class="st2" width="2.6" height="7.5"/>
<rect x="9.6" y="1" class="st2" width="2.6" height="7.5"/>
<circle class="st0" cx="5.7" cy="9.4" r="1.9"/>
<circle class="st2" cx="5.7" cy="9.4" r="1.1"/>
<circle class="st0" cx="17.9" cy="9.4" r="1.9"/>
<circle class="st2" cx="17.9" cy="9.4" r="1.1"/>
<rect x="0" y="7.8" class="st0" width="1.5" height="1.1"/>
<rect x="24.9" y="7.8" class="st0" width="1.5" height="1.1"/>
<rect x="0.3" y="6.2" class="st2" width="8.5" height="0.7"/>
<rect x="12.9" y="6.2" class="st2" width="6.8" height="0.7"/>
<path class="st0" d="M26.1,6.2V1.5c0-0.8-0.7-1.5-1.5-1.5H24v6.2H26.1z"/>
</svg>
