<?xml version="1.0" encoding="utf-8"?>
<!-- Generator: Adobe Illustrator 21.1.0, SVG Export Plug-In . SVG Version: 6.00 Build 0)  -->
<svg version="1.1" xmlns="http://www.w3.org/2000/svg" xmlns:xlink="http://www.w3.org/1999/xlink" x="0px" y="0px"
	 viewBox="0 0 284.9 119.6" style="enable-background:new 0 0 284.9 119.6;" xml:space="preserve">
<style type="text/css">
	.st0{fill:#FFFFFF;}
	.st1{fill:#77BCB8;}
	.st2{fill:#6EAFAA;}
	.st3{fill:#F27E5F;}
	.st4{fill:#E56E57;}
	.st5{fill:#4C827F;}
	.st6{fill:#40706C;}
	.st7{fill:#ADDEE0;}
	.st8{fill:#9FD1D1;}
	.st9{fill:#843F2C;}
	.st10{fill:#773525;}
	.st11{fill:#F8AD8F;}
	.st12{fill:#E89E85;}
	.st13{fill:#EAEAEA;}
	.st14{fill:#283B48;}
	.st15{fill:none;stroke:#283B48;stroke-width:0.1;stroke-miterlimit:10;}
	@keyframes pull-release {
		0% {
			transform: scaleY(1);
		}
		100% {
			transform: scaleY(0.5);
		}
	}
	@keyframes up-down {
		0% {
			transform: translateY(0) rotate(-2deg);
		}
		100% {
			transform: translateY(-20px) rotate(2deg);
		}
	}
	.rope {
		animation: pull-release 5s alternate infinite ease-in-out;
		transform-origin: 50% 0%;
	}
	.cargo {
		animation: up-down 5s alternate infinite ease-in-out;
		transform-origin: top center;
	}
</style>
<g id="background">
	<g id="Layer_1_1_">
		<polygon class="st0" points="45.8,69.8 20,69.8 20,82.9 3.1,82.9 3.1,95.6 45.8,95.6 		"/>
		<g>
			<rect x="95.7" y="62.1" class="st1" width="33.2" height="11.2"/>
			<rect x="126.1" y="62.9" class="st2" width="1.8" height="9.5"/>
			<rect x="123.6" y="62.9" class="st2" width="1.8" height="9.5"/>
			<rect x="121.3" y="62.9" class="st2" width="1.8" height="9.5"/>
			<rect x="118.8" y="62.9" class="st2" width="1.8" height="9.5"/>
			<rect x="116.4" y="62.9" class="st2" width="1.8" height="9.5"/>
			<rect x="113.9" y="62.9" class="st2" width="1.8" height="9.5"/>
			<rect x="111.5" y="62.9" class="st2" width="1.8" height="9.5"/>
			<rect x="109" y="62.9" class="st2" width="1.8" height="9.5"/>
			<rect x="106.5" y="62.9" class="st2" width="1.8" height="9.5"/>
			<rect x="104.2" y="62.9" class="st2" width="1.8" height="9.5"/>
			<rect x="101.7" y="62.9" class="st2" width="1.8" height="9.5"/>
			<rect x="99.3" y="62.9" class="st2" width="1.8" height="9.5"/>
			<rect x="96.8" y="62.9" class="st2" width="1.8" height="9.5"/>
		</g>
		<g>
			<rect x="50.2" y="84.4" class="st1" width="33.2" height="11.2"/>
			<rect x="80.7" y="85.3" class="st2" width="1.8" height="9.5"/>
			<rect x="78.2" y="85.3" class="st2" width="1.8" height="9.5"/>
			<rect x="75.8" y="85.3" class="st2" width="1.8" height="9.5"/>
			<rect x="73.3" y="85.3" class="st2" width="1.8" height="9.5"/>
			<rect x="70.9" y="85.3" class="st2" width="1.8" height="9.5"/>
			<rect x="68.4" y="85.3" class="st2" width="1.8" height="9.5"/>
			<rect x="65.9" y="85.3" class="st2" width="1.8" height="9.5"/>
			<rect x="63.6" y="85.3" class="st2" width="1.8" height="9.5"/>
			<rect x="61.1" y="85.3" class="st2" width="1.8" height="9.5"/>
			<rect x="58.7" y="85.3" class="st2" width="1.8" height="9.5"/>
			<rect x="56.2" y="85.3" class="st2" width="1.8" height="9.5"/>
			<rect x="53.8" y="85.3" class="st2" width="1.8" height="9.5"/>
			<rect x="51.3" y="85.3" class="st2" width="1.8" height="9.5"/>
		</g>
		<g>
			<rect x="50.3" y="73.3" class="st3" width="33.2" height="11.2"/>
			<rect x="51.3" y="74.1" class="st4" width="1.8" height="9.5"/>
			<rect x="53.7" y="74.1" class="st4" width="1.8" height="9.5"/>
			<rect x="56.2" y="74.1" class="st4" width="1.8" height="9.5"/>
			<rect x="58.6" y="74.1" class="st4" width="1.8" height="9.5"/>
			<rect x="61.1" y="74.1" class="st4" width="1.8" height="9.5"/>
			<rect x="63.5" y="74.1" class="st4" width="1.8" height="9.5"/>
			<rect x="66" y="74.1" class="st4" width="1.8" height="9.5"/>
			<rect x="68.4" y="74.1" class="st4" width="1.8" height="9.5"/>
			<rect x="70.8" y="74.1" class="st4" width="1.8" height="9.5"/>
			<rect x="73.3" y="74.1" class="st4" width="1.8" height="9.5"/>
			<rect x="75.7" y="74.1" class="st4" width="1.8" height="9.5"/>
			<rect x="78.2" y="74.1" class="st4" width="1.8" height="9.5"/>
			<rect x="80.6" y="74.1" class="st4" width="1.8" height="9.5"/>
		</g>
		<g>
			<rect x="128.9" y="84.4" class="st5" width="33.2" height="11.2"/>
			<rect x="159.3" y="85.3" class="st6" width="1.8" height="9.5"/>
			<rect x="156.8" y="85.3" class="st6" width="1.8" height="9.5"/>
			<rect x="154.5" y="85.3" class="st6" width="1.8" height="9.5"/>
			<rect x="152" y="85.3" class="st6" width="1.8" height="9.5"/>
			<rect x="149.6" y="85.3" class="st6" width="1.8" height="9.5"/>
			<rect x="147.1" y="85.3" class="st6" width="1.8" height="9.5"/>
			<rect x="144.7" y="85.3" class="st6" width="1.8" height="9.5"/>
			<rect x="142.2" y="85.3" class="st6" width="1.8" height="9.5"/>
			<rect x="139.7" y="85.3" class="st6" width="1.8" height="9.5"/>
			<rect x="137.4" y="85.3" class="st6" width="1.8" height="9.5"/>
			<rect x="134.9" y="85.3" class="st6" width="1.8" height="9.5"/>
			<rect x="132.5" y="85.3" class="st6" width="1.8" height="9.5"/>
			<rect x="130" y="85.3" class="st6" width="1.8" height="9.5"/>
		</g>
		<g>
			<rect x="162.1" y="84.4" class="st7" width="11.2" height="11.2"/>
			<rect x="170.6" y="85.3" class="st8" width="1.8" height="9.5"/>
			<rect x="168.1" y="85.3" class="st8" width="1.8" height="9.5"/>
			<rect x="165.7" y="85.3" class="st8" width="1.8" height="9.5"/>
			<rect x="163.2" y="85.3" class="st8" width="1.8" height="9.5"/>
		</g>
		<g>
			<rect x="162.1" y="73.2" class="st9" width="11.2" height="11.2"/>
			<rect x="170.6" y="74.1" class="st10" width="1.8" height="9.5"/>
			<rect x="168.1" y="74.1" class="st10" width="1.8" height="9.5"/>
			<rect x="165.7" y="74.1" class="st10" width="1.8" height="9.5"/>
			<rect x="163.2" y="74.1" class="st10" width="1.8" height="9.5"/>
		</g>
		<g>
			<rect x="61.5" y="62.1" class="st9" width="11.2" height="11.2"/>
			<rect x="69.9" y="62.9" class="st10" width="1.8" height="9.5"/>
			<rect x="67.4" y="62.9" class="st10" width="1.8" height="9.5"/>
			<rect x="64.9" y="62.9" class="st10" width="1.8" height="9.5"/>
			<rect x="62.6" y="62.9" class="st10" width="1.8" height="9.5"/>
		</g>
		<g>
			<rect x="50.2" y="62.1" class="st5" width="11.2" height="11.2"/>
			<rect x="58.7" y="62.9" class="st6" width="1.8" height="9.5"/>
			<rect x="56.2" y="62.9" class="st6" width="1.8" height="9.5"/>
			<rect x="53.8" y="62.9" class="st6" width="1.8" height="9.5"/>
			<rect x="51.3" y="62.9" class="st6" width="1.8" height="9.5"/>
		</g>
		<g>
			<rect x="151" y="73.2" class="st11" width="11.2" height="11.2"/>
			<rect x="159.3" y="74.1" class="st12" width="1.8" height="9.5"/>
			<rect x="156.8" y="74.1" class="st12" width="1.8" height="9.5"/>
			<rect x="154.5" y="74.1" class="st12" width="1.8" height="9.5"/>
			<rect x="152" y="74.1" class="st12" width="1.8" height="9.5"/>
		</g>
		<g>
			<rect x="95.7" y="73.2" class="st7" width="33.2" height="11.2"/>
			<rect x="126.1" y="74.1" class="st8" width="1.8" height="9.5"/>
			<rect x="123.6" y="74.1" class="st8" width="1.8" height="9.5"/>
			<rect x="121.3" y="74.1" class="st8" width="1.8" height="9.5"/>
			<rect x="118.8" y="74.1" class="st8" width="1.8" height="9.5"/>
			<rect x="116.4" y="74.1" class="st8" width="1.8" height="9.5"/>
			<rect x="113.9" y="74.1" class="st8" width="1.8" height="9.5"/>
			<rect x="111.5" y="74.1" class="st8" width="1.8" height="9.5"/>
			<rect x="109" y="74.1" class="st8" width="1.8" height="9.5"/>
			<rect x="106.5" y="74.1" class="st8" width="1.8" height="9.5"/>
			<rect x="104.2" y="74.1" class="st8" width="1.8" height="9.5"/>
			<rect x="101.7" y="74.1" class="st8" width="1.8" height="9.5"/>
			<rect x="99.3" y="74.1" class="st8" width="1.8" height="9.5"/>
			<rect x="96.8" y="74.1" class="st8" width="1.8" height="9.5"/>
		</g>
		<g>
			<rect x="95.7" y="84.4" class="st11" width="33.2" height="11.2"/>
			<rect x="126.1" y="85.3" class="st12" width="1.8" height="9.5"/>
			<rect x="123.6" y="85.3" class="st12" width="1.8" height="9.5"/>
			<rect x="121.3" y="85.3" class="st12" width="1.8" height="9.5"/>
			<rect x="118.8" y="85.3" class="st12" width="1.8" height="9.5"/>
			<rect x="116.4" y="85.3" class="st12" width="1.8" height="9.5"/>
			<rect x="113.9" y="85.3" class="st12" width="1.8" height="9.5"/>
			<rect x="111.5" y="85.3" class="st12" width="1.8" height="9.5"/>
			<rect x="109" y="85.3" class="st12" width="1.8" height="9.5"/>
			<rect x="106.5" y="85.3" class="st12" width="1.8" height="9.5"/>
			<rect x="104.2" y="85.3" class="st12" width="1.8" height="9.5"/>
			<rect x="101.7" y="85.3" class="st12" width="1.8" height="9.5"/>
			<rect x="99.3" y="85.3" class="st12" width="1.8" height="9.5"/>
			<rect x="96.8" y="85.3" class="st12" width="1.8" height="9.5"/>
		</g>
		<path class="st0" d="M226.2,99.8c2,3.6-2.6,3.7-2.6,3.7c-75.4,5.3-216.9,6.4-216.9,6.4H230C230,109.9,235.6,104.5,226.2,99.8"/>
		<path class="st13" d="M215.2,119.6c1.9-3.5-2.6-3.6-2.6-3.6c-72.8-5.1-206-6.1-206-6.1H219C219,109.9,224.3,115.1,215.2,119.6"/>
		<path class="st14" d="M176.4,95.6h-64.5H0c0,0,3.2,13.3,6.6,14.2c0,0,138.8-1.1,214.7-6.2l6.8-13.1H179L176.4,95.6z"/>
		<circle class="st13" cx="214.6" cy="98.4" r="1.5"/>
		<circle class="st13" cx="208.6" cy="98.4" r="1.5"/>
		<circle class="st13" cx="202.6" cy="98.4" r="1.5"/>
		<circle class="st13" cx="196.6" cy="98.4" r="1.5"/>
		<circle class="st13" cx="28.1" cy="89.9" r="1.5"/>
		<circle class="st13" cx="22.1" cy="89.9" r="1.5"/>
		<circle class="st13" cx="16.1" cy="89.9" r="1.5"/>
		<circle class="st13" cx="10.1" cy="89.9" r="1.5"/>
		<rect x="32.7" y="73.1" class="st13" width="13.1" height="5.8"/>
		<path class="st1" d="M282.5,36.6c-0.6,0-1.1,0.2-1.5,0.6l-8.3-4.3l-4.7,0.7L233.9,2c-0.1-0.1-0.2-0.1-0.3-0.1L218.3,0
			c-0.2,0-0.4,0.1-0.5,0.2l-21.6,29.5c-0.1,0.2-0.1,0.5,0.1,0.7c0.1,0.1,0.2,0.1,0.4,0.1c0.1,0,0.2,0,0.3-0.1l27-20.2l0,0l0,0l0,0
			l27.2,45.1L258,63l-2,4h-1.9v5.1h1.9v2.8h1v10.4l-2.1,16.8l-11.1,3.6v4.2h32.7v-4.2l-11.1-3.6l-2.1-16.8V74.9h13.8V63h-1
			l-3.2-25.1l7.1,1c0,1.3,1,2.3,2.3,2.3s2.3-1,2.3-2.3C284.9,37.7,283.8,36.6,282.5,36.6z M199,27.6L218.4,1l5,8.3L199,27.6z
			 M219.7,1.2l12.6,1.5l-7.4,5.5L219.7,1.2z M225.5,9.1L225.5,9.1l8.1-6l34.3,31.7l-10.3,18L225.5,9.1z M261.4,61.9l-3.5-8.1
			l10.6-18.4l2.3,2L261.4,61.9z M275.4,63h-8.7l5.9-22.6L275.4,63z"/>
		<rect x="263.6" y="65.8" class="st0" width="11" height="2.6"/>
	</g>
</g>
<g id="rope_1_" class="rope">
	<g id="rope">
		<g>
			<polyline class="st15" points="194,66.3 196.6,29.9 199.3,66.3 			"/>
		</g>
	</g>
</g>
<g id="cargo" class="cargo">
	<g id="container">
		<g>
			<rect x="180" y="66.3" class="st3" width="33.2" height="11.2"/>
			<rect x="181.1" y="67.1" class="st4" width="1.8" height="9.5"/>
			<rect x="183.5" y="67.1" class="st4" width="1.8" height="9.5"/>
			<rect x="186" y="67.1" class="st4" width="1.8" height="9.5"/>
			<rect x="188.4" y="67.1" class="st4" width="1.8" height="9.5"/>
			<rect x="190.8" y="67.1" class="st4" width="1.8" height="9.5"/>
			<rect x="193.3" y="67.1" class="st4" width="1.8" height="9.5"/>
			<rect x="195.7" y="67.1" class="st4" width="1.8" height="9.5"/>
			<rect x="198.2" y="67.1" class="st4" width="1.8" height="9.5"/>
			<rect x="200.6" y="67.1" class="st4" width="1.8" height="9.5"/>
			<rect x="203.1" y="67.1" class="st4" width="1.8" height="9.5"/>
			<rect x="205.5" y="67.1" class="st4" width="1.8" height="9.5"/>
			<rect x="207.9" y="67.1" class="st4" width="1.8" height="9.5"/>
			<rect x="210.4" y="67.1" class="st4" width="1.8" height="9.5"/>
		</g>
	</g>
</g>
</svg>
