<?xml version="1.0" standalone="no"?>
<!DOCTYPE svg PUBLIC "-//W3C//DTD SVG 20010904//EN"
 "http://www.w3.org/TR/2001/REC-SVG-20010904/DTD/svg10.dtd">
<svg version="1.0" xmlns="http://www.w3.org/2000/svg"
 width="260.000000pt" height="260.000000pt" viewBox="0 0 260.000000 260.000000"
 preserveAspectRatio="xMidYMid meet">
<metadata>
Created by potrace 1.11, written by Peter Selinger 2001-2013
</metadata>
<g transform="translate(0.000000,260.000000) scale(0.100000,-0.100000)"
fill="#000000" stroke="none">
<path d="M1885 2530 c3 -5 2 -10 -3 -10 -5 0 -20 -10 -34 -22 -45 -41 -78 -68
-83 -68 -2 0 -17 -12 -33 -27 -29 -28 -57 -51 -127 -108 -21 -16 -50 -41 -65
-55 -15 -14 -38 -34 -52 -45 -110 -92 -144 -121 -149 -128 -3 -5 -10 -9 -15
-10 -5 -1 -8 -5 -6 -9 1 -5 -2 -8 -6 -8 -8 0 -54 -34 -84 -62 -10 -10 -21 -18
-24 -18 -3 0 -15 -11 -25 -24 -11 -14 -28 -28 -39 -31 -11 -4 -18 -11 -15 -16
4 -5 2 -9 -4 -9 -9 0 -40 -24 -82 -62 -10 -10 -23 -18 -29 -18 -5 0 -9 -3 -7
-8 1 -4 -2 -8 -6 -9 -4 -1 -14 -8 -21 -15 -7 -7 -34 -31 -60 -53 -27 -22 -56
-47 -66 -55 -10 -8 -36 -31 -59 -50 -24 -19 -55 -46 -71 -60 -16 -14 -42 -35
-58 -47 -15 -12 -40 -33 -54 -45 -14 -13 -44 -39 -68 -58 -23 -19 -59 -50 -79
-67 -20 -18 -40 -33 -45 -33 -10 0 5 -14 151 -135 20 -16 48 -40 62 -53 14
-13 40 -35 59 -50 19 -15 46 -37 61 -49 14 -13 29 -23 34 -23 4 0 7 -8 7 -17
0 -9 3 -14 6 -10 6 5 24 -9 98 -75 22 -21 44 -38 48 -38 3 0 19 -12 35 -27 49
-47 126 -113 132 -113 3 0 27 -20 52 -43 25 -23 65 -58 89 -77 23 -19 50 -42
60 -50 9 -8 36 -31 60 -50 23 -19 57 -50 76 -67 19 -18 34 -29 34 -25 0 4 6 0
13 -8 7 -8 37 -35 67 -60 30 -25 57 -47 60 -51 3 -3 32 -28 65 -55 60 -48 109
-91 150 -129 30 -28 85 -58 85 -47 0 10 32 49 87 108 18 19 30 34 26 34 -3 0
6 11 21 25 14 13 26 29 26 35 0 5 7 10 16 10 8 0 13 4 9 9 -3 5 5 17 17 25 12
9 19 16 15 16 -5 0 3 11 17 24 15 13 26 27 26 31 0 8 -56 65 -65 65 -2 0 -17
12 -34 27 -16 16 -42 38 -58 50 -16 12 -43 35 -59 50 -17 15 -50 44 -75 63
-45 35 -83 68 -125 108 -13 12 -25 22 -28 22 -6 0 -34 22 -74 60 -15 14 -47
41 -71 60 -24 19 -56 46 -72 60 -15 14 -47 41 -70 60 -23 19 -47 40 -53 45 -6
6 -36 30 -66 54 -30 25 -68 58 -83 75 -16 17 -32 31 -35 31 -7 -1 -26 14 -68
52 -13 12 -32 27 -41 32 -20 11 -15 16 81 94 37 31 79 68 122 107 12 11 24 20
28 20 3 0 18 12 34 28 16 15 46 41 67 57 42 34 67 55 107 91 15 13 48 40 74
59 25 19 42 35 37 35 -4 0 7 9 25 20 17 11 32 24 32 30 0 5 5 10 10 10 9 0 34
20 84 65 6 6 54 46 106 89 52 43 109 91 127 107 17 16 36 29 43 29 6 0 8 5 5
10 -3 6 -2 10 4 10 5 0 16 6 23 13 7 6 28 24 46 40 19 15 29 27 23 27 -6 0
-11 5 -11 10 0 6 -10 21 -22 34 -49 51 -78 84 -78 90 0 3 -10 16 -22 29 -32
32 -69 76 -102 120 -16 20 -37 37 -48 37 -10 0 -16 -4 -13 -10z"/>
</g>
</svg>
