<?xml version="1.0" encoding="utf-8"?>
<!-- Generator: Adobe Illustrator 17.1.0, SVG Export Plug-In . SVG Version: 6.00 Build 0)  -->
<!DOCTYPE svg PUBLIC "-//W3C//DTD SVG 1.1//EN" "http://www.w3.org/Graphics/SVG/1.1/DTD/svg11.dtd">
<svg version="1.1" id="Layer_1" xmlns="http://www.w3.org/2000/svg" xmlns:xlink="http://www.w3.org/1999/xlink" x="0px" y="0px"
	 viewBox="0 0 540 402" enable-background="new 0 0 540 402" xml:space="preserve">
<path fill="#E8E4DB" d="M58.7,239.7c-2.5-12.8-3.8-26.1-3.8-39.7c0-13.6,1.3-26.8,3.8-39.7l-31.5,17.9c-13.3,8.8-17.3,12-17.3,21.6
	v0.3c0,9.6,4,12.8,17.3,21.6L58.7,239.7z"/>
<g>
	<g opacity="0.4">
		<path d="M76.1,259.1l-49-27.8C9.8,219.9,4.6,215.7,4.6,203.2v-0.4c0-12.4,5.2-16.7,22.5-28.1l49-27.8 M61.7,242.7
			c-2.5-12.8-3.8-26.1-3.8-39.7c0-13.6,1.3-26.8,3.8-39.7l-31.5,17.9c-13.3,8.8-17.3,12-17.3,21.6v0.3c0,9.6,4,12.8,17.3,21.6
			L61.7,242.7z"/>
	</g>
	<g>
		<path fill="#DA4027" d="M73.1,256.1l-49-27.8C6.8,216.9,1.6,212.7,1.6,200.2v-0.4c0-12.4,5.2-16.7,22.5-28.1l49-27.8 M58.7,239.7
			c-2.5-12.8-3.8-26.1-3.8-39.7c0-13.6,1.3-26.8,3.8-39.7l-31.5,17.9c-13.3,8.8-17.3,12-17.3,21.6v0.3c0,9.6,4,12.8,17.3,21.6
			L58.7,239.7z"/>
	</g>
</g>
<path fill="#DA4027" d="M460.9,227.1c1.2-8.8,1.8-17.9,1.8-27s-0.6-18.2-1.8-27l6.4,0h56c6.1,0,11.1,5,11.1,11.1V216
	c0,6.1-5,11.1-11.1,11.1h-56L460.9,227.1z"/>
<g>
	<g opacity="0.4">
		<path d="M266.9,4C189.5,4,122.4,48.2,89.5,112.8c-13.8,27.1-21.6,57.8-21.6,90.3c0,32.5,7.8,63.2,21.6,90.3
			c32.9,64.6,100,108.8,177.4,108.8c109.9,0,199-89.1,199-199S376.8,4,266.9,4z"/>
	</g>
	<g>
		<path fill="#F04D24" d="M263.9,1C186.5,1,119.4,45.2,86.5,109.8c-13.8,27.1-21.6,57.8-21.6,90.3c0,32.5,7.8,63.2,21.6,90.3
			c32.9,64.6,100,108.8,177.4,108.8c109.9,0,199-89.1,199-199S373.8,1,263.9,1z"/>
	</g>
</g>
<g>
	<g opacity="0.4">
		<circle cx="267.2" cy="203.3" r="180.6"/>
	</g>
	<g>
		<circle fill="#DA4027" cx="263.9" cy="200" r="180.6"/>
	</g>
</g>
<path fill="#AD1F24" d="M322.1,183.6c3.4,0,6.2,2.8,6.2,6.2v15.6c0,3.4-2.8,6.2-6.2,6.2H205.7c-3.4,0-6.2-2.8-6.2-6.2v-15.6
	c0-3.4,2.8-6.2,6.2-6.2H322.1z"/>
</svg>
