<?xml version="1.0" encoding="utf-8"?>
<!-- Generator: Adobe Illustrator 23.0.6, SVG Export Plug-In . SVG Version: 6.00 Build 0)  -->
<svg version="1.1" id="Layer_1" xmlns="http://www.w3.org/2000/svg" xmlns:xlink="http://www.w3.org/1999/xlink" x="0px" y="0px"
	 viewBox="0 0 1212.1 813.1" style="enable-background:new 0 0 1212.1 813.1;" xml:space="preserve">
<style type="text/css">
	.st0{fill:#63C5A8;stroke:#63C5A8;stroke-width:2;stroke-miterlimit:10;}
	.st1{fill:#ABF57E;}
	.st2{fill:#E78562;stroke:#E78562;stroke-width:2;stroke-miterlimit:10;}
	.st3{fill:#113347;}
	.st4{fill:#A0E475;}
	.st5{fill:#9FE375;}
	.st6{fill:#F0B881;}
	.st7{fill:#102A39;}
	.st8{fill:#F2B982;}
	.st9{fill:#F0B982;}
	.st10{fill:#153548;}
	.st11{fill:#143548;}
	.st12{fill:#59B996;stroke:#59B996;stroke-width:2;stroke-miterlimit:10;}
	.st13{fill:#476170;}
	.st14{fill:#D7F3C6;}
	.st15{fill:#D0F1BA;}
	.st16{fill:#E1F6D4;}
	.st17{fill:#D2F9BA;}
	.st18{fill:#ECA863;}
	.st19{fill:#F8DED4;}
	.st20{fill:#59B996;}
	.st21{fill:#27404C;}
	.st22{fill:#FDFEFD;}
	.st23{fill:#313C3D;}
	.st24{fill:#D97652;stroke:#D97652;stroke-width:2;stroke-miterlimit:10;}
	.st25{fill:#9FE475;stroke:#9FE475;stroke-width:2;stroke-miterlimit:10;}
</style>
<path class="st0" d="M52.1,403.2c9.8,0.4,19.6,1.2,29.3,0.9c18-0.6,36.1-1.5,54.1-2.9c11.7-0.9,23.4-2.4,35-4.1
	c4.4-0.6,8.6-2.5,12.8-3.7c0.6,4.1,1.4,8.2,1.6,12.3c0.5,11.8,1.2,23.5,0.9,35.3c-0.3,11.1-1.2,22.1-2.9,33.1
	c-2.6,17.8-6,35.5-9.1,53.2c-5.6,0.1-7.1-4.9-8.6-8.3c-8.6-19.2-17-38.5-24.7-58c-4-10.2-9.5-20.7-3.9-32.3c0.1-0.2-0.2-0.6-0.5-1.4
	l-6.4,1.6c0.4,3.1,0.5,5.9,1.2,8.5c3.6,13.4,6.6,27.1,11.4,40c8.1,21.4,17.5,42.3,26.4,63.3c0.6,1.4,2,2.4,3,3.6
	c3.5,6.8,6.9,13.6,10.4,20.4c19.9,39.1,39.8,78.3,59.8,117.4c4.2,8.3,9,16.3,13.7,24.4c1.6,2.7,1.6,4.7-1.2,6.7
	c-3.3,2.2-6.3,4.8-9.5,7.3l-29,16.1c-2.2,1-4.6,2-6.7,3.2s-3.6,0.5-4.8-1.6c-18.2-30.7-36.4-61.4-54.7-92.1
	c-0.8-1.4-2.4-2.4-3.6-3.5c-0.6-2.5-0.7-5.3-1.9-7.6c-11.5-22-23.2-44-34.9-66c-0.6-0.9-1.3-1.7-2.2-2.5c-0.4,1.4-0.4,3,0.2,4.3
	c4.2,10.6,8.7,21.1,12.8,31.8c6.9,18.4,17.4,35.3,21.8,54.7c-4.7,17.5-9.4,35-14.2,52.5c-1.4,4.9-3,9.8-4.3,14.7
	c-2.3,8.8-1.1,8.3-10.4,7.4c-5.5-1.2-11-2.2-16.4-3.6c-4.8-1.2-9.6-2.7-14.3-4c-4.4-1.9-8.7-4.1-13.2-5.7c-3.6-1.2-3.9-3-3-6.4
	C74,684,82.3,656,89.5,627.8c5.3-20.9,9-42.1,13.3-63.2c0.9-4.4-0.4-8.5-2.5-12.5c-8.6-16.3-17.5-32.5-25.5-49.1
	c-6.8-14-14.3-28-16.9-43.5c-2.2-12.7-3.3-25.6-4.7-38.5C52.5,415.1,52.5,409.1,52.1,403.2z M105.8,564.5l0.1-0.4l-0.6,0.1
	c0,0.1,0.1,0.3,0.1,0.3C105.6,564.6,105.7,564.5,105.8,564.5z"/>
<title>profile</title>
<path class="st1" d="M464.9,743.5c-6.1-0.5-12.2-1-18.3-1.5c-1.7-0.1-3.3-0.4-4.9-0.8c-4.8-1.4-6.7-3.9-6.6-8.5
	c0.4-43.2,0.8-86.4,1.2-129.6c0-1.3,0.2-2.6,0.3-4c15.4-0.2,30.8,0.1,46.2-1.6c11.2-1.2,22.8,1.5,34.2,1.5
	c20.3,0.1,40.5-0.6,60.8-0.9c26.7-0.4,53.4-0.6,80.1-1c19.5-0.3,38.9-0.9,58.3-0.9c15.6,0,31.2,0.6,46.8,0.9
	c13.3,0.3,26.6,0.8,39.8,0.9c7.8,0,15.6-0.9,23.3-0.9c30.3,0.2,60.5,0.5,90.8,1c10.3,0.1,20.6,0.7,30.8,1c12.1,0.4,24.2,0.8,36.3,1
	c34.9,0.4,69.9,0.7,104.8,1c20.6,0.2,41.2,0.6,61.8,1c15.3,0.3,30.6,0.6,45.8,1c1.3,0,2.6,0.7,3.9,0.7c3.5,0,7.3,1.8,10.2-1.7
	c0,31.5,0,62.9,0.1,94.4c0,10.2-0.1,20.3,0,30.5c0,1.9,1,3.9,1,5.8s-0.7,3.8-1.2,6.8l-27.7,0.6c0-6.2,0.6-12.4-0.2-18.5
	c-1.1-8.1-2.2-16.6-5.4-24c-2.9-6.8-8-13-13.1-18.6c-9.1-10-20.3-17.5-32.6-23.1c-8.5-3.8-17.4-6.5-26.9-6c-5.9,0.3-12,0-17.8,1.2
	c-6.7,1.4-13.9,2.9-19.5,6.4c-9.2,5.9-17.8,12.8-25.6,20.4c-8.4,8-13.4,18.3-16,29.7c-2.5,11-1.8,22.1-1.9,33.2l-91,0.2l-2-0.1
	l-34-0.9l-3-0.1l-24-0.9l-2-0.2l-46-0.8l-5-0.1c-40.9,0-81.9-0.1-122.8,0.2c-20.9,0.2-41.8,1.3-62.7,2c-2.8,0.1-5.6,0.7-8.4,1
	c0-2.2-0.2-4.3-0.1-6.5c0.7-10.4-0.8-20.5-3.2-30.5c-0.8-3.1-2.1-6-3.8-8.6c-6.9-10.6-14.8-20.3-25.4-27.6
	c-13.7-9.4-28-17.1-45.2-16.9c-5.1,0-10.2,0.7-15.4,0.9c-9.5,0.3-18.6,3.5-26.3,9c-4.9,3.5-9.5,7.3-14.2,10.8
	c-11.1,8.3-19.2,20.2-22.8,33.6C463.2,717.9,463.1,730.8,464.9,743.5z"/>
<path class="st2" d="M181.4,364.2c1.3,8.6,2.7,17.1,3.9,25.7c0.1,1.1-1.2,2.3-1.8,3.5c-4.3,1.3-8.5,3.1-12.8,3.7
	c-11.6,1.7-23.3,3.2-35,4.1c-18,1.3-36.1,2.3-54.1,2.9c-9.8,0.3-19.6-0.6-29.3-0.9c-0.7-1.5-2-3-2-4.5c-1.1-22.7-1.9-45.5-3.2-68.2
	c-1-18.7-2.4-37.4-4-56.1c-1.7-19.2-3.1-38.4-3-57.7c0.1-13.3,2.9-25.2,12.4-35.2c7.4-7.8,14.2-16.2,21.5-24.3
	c3.7-4.1,6.8-8.2,5.6-14.1c11.7,0.4,23.4,0.9,35.1,1.2c1.8,0.1,4.2,0.8,4.8-2.1c2.9,1.5,5.4,1.8,6.8-1.9c2.2-0.4,3.4,0.1,3.4,2.8
	c0,5.8,3.1,9.6,8.2,12c14.4,6.9,23.5,18.4,31.4,32.2c10.3,17.8,21.7,35,33.9,51.6c23.8,32.6,48.5,64.6,72.8,96.9
	c3.1,4.1,6,8.4,9.3,12.3c2.1,2.5,2,4.6,0,6.9c-2,2.1-4,4.1-6,6.2l-14.2,8.2l-2.7,1.9l-4-0.1l-0.3-0.3l0.4,0.2l2.8,2.2
	c2.9,3,0.2,5.8-0.3,8.7l-15.5,18.1c-8.3,5-6.1,6.2-14.6-1.3c-16.9-15-33.5-30.3-50.2-45.5c-0.7-1.1-1.6-2.1-2.5-3
	c-8.3-6.6-16.2-13.7-25-19.6c-15-10.3-28.2-22.6-41-35.4c-10-10-19.7-20.2-29.5-30.4c-6.4-6.7-12.9-13.3-19-20.2
	c-2.4-2.7-4.1-6.2-6.1-9.3l-1.1,0.5c0.5,1.4,0.7,3,1.5,4.2c5.5,7.7,10.5,15.8,16.8,22.7c13.2,14.6,27.1,28.7,40.7,42.9
	c15.8,16.4,32.5,31.8,50.2,46.1C170.5,356.2,176,360.1,181.4,364.2z M172.2,261.5c0.3,8.3,0.6,16.6,1,24.9c0.2,3.6,1,7.2,3.9,9.9
	c3.8,3.5,7.4,7.1,11.2,10.6c17.5,15.6,34.9,31.2,52.5,46.7c5,5.3,10,10.7,15,16l1.4-1.3l-13.6-15c-1.2-1.3-2.5-2.6-3.6-4
	c-9.5-12.5-18.9-25.2-28.4-37.6c-12.1-15.8-24.3-31.5-36.4-47.2c0.5-0.9,1.6-2,1.4-2.8c-0.7-4.6-1.8-9.1-2.5-13.6
	c-2.7-17.6-5.3-35.2-8.1-52.9c-0.8-5.1-2.5-10-3.7-15c-1,0.7-1.1,1.2-1.1,1.6c1.9,12.2,4.2,24.4,5.8,36.6
	C169,232.6,170.5,247,172.2,261.5z"/>
<path class="st3" d="M119.3,142.2c-0.6,2.9-3,2.2-4.8,2.1c-11.7-0.4-23.4-0.8-35.1-1.2c-4.7-1.2-9.5-2.4-14.2-3.8
	c-12-3.7-21.9-10.8-30.4-19.9C25.9,110.2,16.9,101,8,91.8c-1.6-1.7-3.1-3.4-5-5.4l2.5-3.6c5.6-6.8,11.3-13.5,16.8-20.4
	c0.8-1,0.5-2.8,0.7-4.3c6.8-8.6,13.6-17.3,20.5-25.9C56.6,16,73.1,4.7,93.6,0.7c7.7-1.5,16.1-0.2,24.1,0.5
	c6.3,0.5,12.6,1.6,18.7,3.3c14.6,4,25.8,13.2,35,24.9c3.2,4.3,6.1,8.9,8.6,13.6c1.6,2.9,1.3,5.5-2.9,6.4c-1.5,0.3-2.9,1.4-4.4,2.1
	l-15.8,5.8H156c-1.8,0.1-3.6,0.2-5.4,0.5c-11.2,2.4-22.4,5.3-33.6,7.3c-6.7,1.2-10.6,4.8-11.7,11.3c-0.5,2.8-1.5,4-3.7,4.2
	c-4.9-2.1-2.1-5.8-2.6-8.7c-0.5-1.6-1.1-3.1-1.9-4.6c-1.6,0.8-4,1.3-4.7,2.6c-2.8,5.1-3.6,10.7-0.1,15.8c5.9,8.5,11.9,17,18.1,25.3
	c4.2,5.5,7.6,11.2,7.8,18.4C118.3,133.7,118.9,138,119.3,142.2z"/>
<path class="st4" d="M464.9,743.5c-1.9-12.8-1.7-25.7,1.8-38c3.7-13.4,11.7-25.2,22.8-33.6c4.8-3.6,9.4-7.4,14.2-10.8
	c7.7-5.5,16.9-8.7,26.3-9c5.1-0.2,10.2-0.9,15.4-0.9c17.2-0.2,31.5,7.6,45.2,16.9c10.7,7.3,18.5,17,25.4,27.6c1.7,2.6,3,5.5,3.8,8.6
	c2.5,10,4,20.2,3.2,30.5c-0.2,2.2,0,4.3,0.1,6.5c-0.5,9.3-3.6,17.7-8.6,25.6c-5.5,8.8-11.5,17-19.1,24.1
	c-15.4,14.1-33.4,21.6-54.5,20c-11.4-0.8-21.9-5.1-32.2-10C484.4,789.4,470.5,769.7,464.9,743.5z M489.7,729.6
	c0.5,4.1,0.8,8.2,1.5,12.3c2.3,12.7,9,22.6,19.3,30.3c7.9,5.9,17.1,9.7,26.9,11.1c10.3,1.6,20.3,0.6,29.5-4.2
	c22.1-11.5,31.9-33.8,28-58.2c-1.6-9.7-3.7-19.1-11.5-26.4c-6.9-6.5-15-10.8-23.3-15c-0.5-0.2-1-0.3-1.5-0.2
	c-6.8-0.3-13.7-1.3-20.4-0.7s-14.4,1.4-20.2,4.7C500.4,693.2,488.8,707.7,489.7,729.6L489.7,729.6z"/>
<path class="st5" d="M1024.1,741c0-11.1-0.6-22.2,1.9-33.2c2.6-11.4,7.6-21.7,16-29.7c7.9-7.6,16.4-14.4,25.6-20.3
	c5.6-3.6,12.8-5,19.5-6.4c5.8-1.2,11.8-0.8,17.8-1.2c9.5-0.6,18.4,2.1,26.9,6c12.3,5.6,23.5,13.1,32.6,23.1
	c5.1,5.6,10.2,11.7,13.1,18.6c3.2,7.4,4.3,15.9,5.4,24c0.8,6,0.2,12.3,0.2,18.5c-0.4,8.8-3.1,17.4-7.9,24.8
	c-5.8,9.2-11.8,18-20,25.3c-22.1,19.5-46.8,25.4-74.8,14.8c-4.3-1.7-8.6-3.6-12.8-5.6c-23.3-11.3-36.6-30.4-42.4-55.2
	C1024.9,743.2,1024.6,742.1,1024.1,741z M1050.1,727.2c0,9.4,1.8,19.2,4.5,25c8.6,18.7,33.3,32.9,55.6,30.4
	c19.1-2.1,32.2-12.1,40.3-28.6c6.1-12.4,6.4-25.6,3.6-39.3c-2.3-11.2-7.5-19.9-16.5-26.2c-5.8-4-12.1-8-18.8-9.9s-13.9-1.6-20.8-1
	c-6.7,0.6-14,1.4-19.7,4.6C1060.5,692.2,1048.9,706.6,1050.1,727.2L1050.1,727.2z"/>
<path class="st6" d="M157.1,57.2l15.8-5.8c1.7,8.6,3,17.2,5.3,25.6c1,3.6,4,6.7,6.3,9.9s1.7,6.2-1.6,8.3s-6.7,3.6-9.9,5.7
	c-2.1,1.4-4.3,3-5.6,5c-6.4,10.4-15.9,16.5-27.1,20.4c-1.6,0.5-3.2,0.8-4.8,0.9c-8.4,0.3-11.6,4.7-9.4,13.1c-1.4,3.7-4,3.4-6.8,1.9
	c-0.4-4.3-1-8.5-1.1-12.8c-0.2-7.2-3.6-12.9-7.8-18.4c-6.3-8.3-12.2-16.8-18.1-25.3c-3.6-5.2-2.7-10.7,0.1-15.8
	c0.7-1.3,3.1-1.8,4.7-2.6c0.8,1.4,1.5,3,1.9,4.6c0.5,2.9-2.3,6.7,2.6,8.7c2.2-0.2,3.2-1.4,3.7-4.2c1.1-6.4,5-10,11.7-11.3
	c11.3-2.1,22.4-4.9,33.6-7.3c1.8-0.3,3.6-0.5,5.4-0.5c-2.1,1.7-4.2,3.4-6.2,5.2c-1.7,1.6-2.8,3.3,0,6.1c2.7-5.2,10.7-1.8,13.1-8.4
	L157.1,57.2z M151.8,108.1l-13.3-11C139.3,102.4,145.7,107.5,151.8,108.1z M157.8,77.8c-2.7,1.7-3.4,4.3-2.2,7.3
	c0.2,0.4,2.4,0.8,2.8,0.3c2.1-2.3,2.7-4.8,0.3-7.4C158.6,78,158.3,78,157.8,77.8L157.8,77.8z"/>
<path class="st7" d="M433,557.6l0.1,17.7l-18.2-21.7c-17.5-20.9-34.6-42.2-52.7-62.6c-10.8-12.5-25.1-21.6-41.1-26
	c-6.9-1.9-13.5-4.3-20-7.2c-5.2-2.4-10.2-5.5-14.7-9.1c-6.2-5-11.8-10.7-17.9-16.4l5-4.5c0.8,0.5,1.9,0.9,2.2,1.6
	c3.1,7.2,9.3,10.3,16.2,12.6l5.7,5l35.8-31.9l-8.2-10.8c0.6-4.5-1-9.1-4.3-12.2c-1.1-1.1-1.1-3.2-1.6-4.8l3.9-2.2
	c7.7,11.6,16.5,22.6,21.3,35.8c2.3,6.3,3.3,13,4.5,19.6c2,11.3,7.1,21.4,13.5,30.5c20.7,29.9,45.1,56.7,68.8,84.1L433,557.6z
	 M348.1,467.2l0.5,0.6l0.1-0.6l-0.6,0.1c-0.4-1.6-0.6-3.3-1.1-4.8c-2.5-7.9-5.2-15.7-7.4-23.6c-1.1-4-1.2-8.4-1.7-12.6l-1.2-0.7
	L307,450.8c14.2,3,26.3,7.2,37.1,14.7C345.4,466.2,346.7,466.8,348.1,467.2L348.1,467.2z"/>
<path class="st8" d="M319.2,387.4c0.5,1.6,0.5,3.8,1.6,4.8c3.4,3.2,5,7.7,4.4,12.3c-2.8,3-5.5,6.1-8.5,8.9c-1.9,1.8-3.5,3-2.7,6.1
	c0.4,1.7-0.6,4.4-1.8,5.9c-3.5,4.4-7.5,8.4-11.2,12.6c-2.3,2.7-5.6,4.2-9.1,4.2c-6.9-2.3-13.1-5.4-16.2-12.6
	c-0.3-0.7-1.5-1.1-2.2-1.6c-1-1.6-1.6-3.6-3-4.9c-8.4-7.7-16.9-15.2-25.3-22.8l15.5-18.1c8.1,6.8,16.2,13.6,24.5,20.2
	c1.8,1.5,4.4,2,6.6,2.9l4.9,0.9l7,4.4l0.3-0.7c-1-2.1-1.9-4.3-2.9-6.4c-1.7-4.3-0.9-8,2.5-11.3c1.8-1.7,3-4,4.6-6.2
	c-0.9-0.2-1.3-0.5-1.5-0.4c-0.8,0.6-1.5,1.2-2.3,1.9c-5.6,4.5-10.7,10.5-19.2,6.1c-0.2-0.1-0.8,0.5-1.1,0.8
	c-1.9-2.5-3.9-4.9-5.8-7.4c-2.8-3.8-5.6-7.7-8.4-11.5l9.2-14.2c2-2.1,4-4.1,6-6.2c3.6,5.1,7.3,10.2,10.7,15.4
	c3.9,5.8,8.7,10.2,15.6,12.1C314.3,383.4,316.6,385.7,319.2,387.4z"/>
<path class="st9" d="M216,736.4l29-16.1c6.9,13.5,13.8,27,20.8,40.5c2,3.8,4.3,7.4,6.5,11.1c0.5,1,0.8,2.6,1.6,3
	c6.8,2.9,13.8,5.6,20.6,8.4c5.4,2.2,10.8,4.1,16,6.7c1.6,0.8,2.9,3.3,3.1,5.1c0.1,0.9-2.4,2.8-3.9,3.1c-3.7,0.8-7.5,1.2-11.3,1.2
	c-11,0-21-4.2-31.4-6.8c-9.3-2.3-17.9-6.1-24.6-13.4c-0.9-0.8-1.8-1.4-2.8-2C231.8,763.6,223.9,750,216,736.4z"/>
<path class="st9" d="M82.3,724.2c4.8,1.4,9.5,2.9,14.3,4c5.4,1.3,11,2.4,16.4,3.6c-2.3,10-5.2,19.8-6.8,29.9
	c-1,6.3,3.6,12.1,9.8,14.5c2.6,1,5.3,1.7,8,2.6c2,1.4,4,2.8,6.1,4c3.8,2,7.9,3.5,11.6,5.6c1.6,0.9,2.6,2.8,3.9,4.2l-0.8,1.8
	c-3.4,0-6.8,0.1-10.2,0c-12.8-0.5-24.5-5.4-36.7-8.4c-10.9-2.8-21.3-6.3-28.7-15.6C73.6,754.9,78,739.6,82.3,724.2z"/>
<path class="st10" d="M239.6,777.2c1,0.6,2,1.2,2.8,2c6.7,7.2,15.3,11.1,24.6,13.4c10.4,2.6,20.5,6.8,31.4,6.8
	c3.8,0,7.6-0.4,11.3-1.2c1.5-0.3,4-2.2,3.9-3.1c-0.3-1.9-1.5-4.3-3.1-5.1c-5.2-2.6-10.6-4.5-16-6.7c-6.9-2.8-13.8-5.5-20.6-8.4
	c-0.8-0.3-1-1.9-1.6-3c18.9,6.4,37.9,12.7,56.7,19.3c2.5,0.9,4.7,2.4,6.4,4.3c4.2,4.8,3.3,8.9-2,12.5c-5.6,3.8-12,5-18.4,5.1
	c-18.8,0.2-37.2-2.3-54.8-9.6c-9.5-3.9-14.7-11.3-18.3-20.3C241.2,781.2,240.4,779.2,239.6,777.2z"/>
<path class="st11" d="M69.3,770.3c7.4,9.2,17.8,12.8,28.7,15.6c12.2,3.1,23.9,8,36.7,8.4c3.4,0.1,6.8,0,10.2,0l0.8-1.8
	c-1.3-1.4-2.4-3.3-3.9-4.2c-3.7-2.1-7.8-3.7-11.6-5.6c-2.1-1.2-4.1-2.6-6.1-4c10,3.2,20.2,6.2,30,9.9c3.9,1.4,8.4,3.5,8.2,8.9
	s-5.2,6.1-8.9,7.3c-9.3,3-19.3,3.5-28.8,1.4c-13.6-3-27-6.5-40.5-9.9c-1.9-0.6-3.7-1.4-5.4-2.4C68.7,789,65.4,780.6,69.3,770.3z"/>
<path class="st12" d="M142,657.2c-4.4-19.4-14.9-36.3-21.8-54.7c-4-10.7-8.5-21.2-12.8-31.8c-0.6-1.4-0.6-2.9-0.2-4.3
	c0.8,0.7,1.5,1.6,2.1,2.5c11.7,22,23.4,43.9,34.9,66c1.2,2.2,1.3,5,1.9,7.6L142,657.2z"/>
<path class="st12" d="M171.9,544.2c-1-1.2-2.4-2.2-3-3.6c-8.9-21-18.3-41.9-26.4-63.3c-4.9-12.9-7.8-26.6-11.4-40
	c-0.7-2.6-0.8-5.5-1.2-8.5l6.4-1.6c0.3,0.8,0.6,1.2,0.5,1.4c-5.6,11.6-0.1,22.1,3.9,32.3c7.7,19.5,16.1,38.8,24.7,58
	c1.5,3.4,3,8.4,8.6,8.3L171.9,544.2z"/>
<path class="st13" d="M23,58.1c-0.2,1.4,0.1,3.3-0.7,4.3C16.8,69.3,11.2,76,5.5,82.7L0,82.2L23,58.1z"/>
<path class="st14" d="M1031.3,536.6l-18.2-0.5C1019.2,535,1025.3,534.2,1031.3,536.6z"/>
<path class="st15" d="M1157.1,536.3h-11H1157.1z"/>
<path class="st15" d="M1169.1,536.2l-6,0.1L1169.1,536.2z"/>
<path class="st16" d="M583.1,533.2l-5,0.1L583.1,533.2z"/>
<path class="st14" d="M699.1,535.3l-5,0.8C695.3,533.4,697.1,533.8,699.1,535.3z"/>
<path class="st14" d="M817.1,738.2l5,0.1L817.1,738.2z"/>
<path class="st14" d="M772.1,535.2l-4,0.3L772.1,535.2z"/>
<path class="st15" d="M983.1,535.4l-4-0.2L983.1,535.4z"/>
<path class="st17" d="M894.1,740.2l3,0.1L894.1,740.2z"/>
<path class="st16" d="M634.1,533.3l-2-0.2L634.1,533.3z"/>
<path class="st14" d="M868.1,739.2l2,0.2L868.1,739.2z"/>
<path class="st17" d="M931.1,741.2l2,0.1L931.1,741.2z"/>
<path class="st14" d="M433,557.6l-1.9-2.3l1.7-0.2L433,557.6z"/>
<path class="st18" d="M269.8,375.4l-5-6l14.3-8.3L269.8,375.4z"/>
<path class="st19" d="M258.1,371.2l-0.4-0.2L258.1,371.2L258.1,371.2z"/>
<path class="st20" d="M105.8,564.5c-0.1,0-0.3,0.1-0.3,0.1s-0.1-0.2-0.1-0.3l0.6-0.1L105.8,564.5z"/>
<path class="st21" d="M157.1,57.2l5.8,2.9c-2.4,6.6-10.4,3.2-13.1,8.4c-2.8-2.8-1.7-4.5,0-6.1c2-1.8,4.1-3.5,6.2-5.2L157.1,57.2z"/>
<path class="st22" d="M489.7,729.6c-0.8-21.9,10.7-36.4,28.4-46.3c5.8-3.3,13.3-4.1,20.2-4.7s13.6,0.4,20.4,0.7c0.5,0,1,0.1,1.5,0.2
	c8.3,4.2,16.4,8.5,23.3,15c7.8,7.3,9.9,16.7,11.5,26.4c3.9,24.4-5.9,46.6-28,58.2c-9.2,4.8-19.2,5.8-29.5,4.2
	c-9.7-1.4-19-5.3-26.9-11.2c-10.4-7.7-17.1-17.6-19.4-30.3C490.5,737.8,490.2,733.7,489.7,729.6z M544.3,717.2
	c-8.5,0-14.2,5.3-14.1,13.2c0,6.3,6.7,11.9,14.7,11.7c4.7-0.2,11.5-6.3,11.3-13.1C556,721.8,551.4,717.2,544.3,717.2z"/>
<path class="st22" d="M1050.1,727.2c-1.2-20.6,10.4-35,28.1-45c5.7-3.2,13-4,19.7-4.6c6.9-0.6,14.3-0.8,20.8,1s13,5.9,18.8,9.9
	c9,6.3,14.2,14.9,16.5,26.2c2.8,13.8,2.5,27-3.6,39.3c-8.2,16.5-21.2,26.5-40.3,28.6c-22.2,2.5-47-11.7-55.6-30.4
	C1052,746.4,1050.1,736.6,1050.1,727.2z M1116.1,728c0-7.1-4.7-11.8-11.8-11.8c-8.5,0-14.2,5.3-14.2,13.1c0,6.4,6.6,11.9,14.6,11.7
	C1109.4,741,1116.4,734.8,1116.1,728L1116.1,728z"/>
<path class="st23" d="M151.8,108.1c-6.1-0.6-12.5-5.7-13.3-11L151.8,108.1z"/>
<path class="st23" d="M157.7,77.8c0.6,0.2,0.8,0.2,0.9,0.3c2.4,2.6,1.8,5.1-0.3,7.4c-0.4,0.4-2.6,0.1-2.8-0.3
	C154.3,82.2,155,79.5,157.7,77.8z"/>
<path class="st7" d="M348,467.3l0.6-0.1c0,0.2-0.1,0.4-0.1,0.6l-0.5-0.6L348,467.3z"/>
<path class="st18" d="M291.6,405.3l-7.6-11c0.4-0.3,0.9-0.9,1.1-0.8c8.5,4.4,13.6-1.6,19.2-6.1c0.8-0.6,1.5-1.3,2.3-1.9
	c0.2-0.1,0.6,0.1,1.5,0.4c-1.6,2.2-2.8,4.5-4.6,6.2c-3.4,3.3-4.3,6.9-2.5,11.3l-4.4,2.8L291.6,405.3z"/>
<path class="st23" d="M296.6,406.2l4.4-2.8c1,2.1,1.9,4.3,2.9,6.4l-0.3,0.7L296.6,406.2z"/>
<path class="st4" d="M544.3,717.2c7.2,0,11.8,4.6,11.9,11.7c0.1,6.8-6.7,13-11.3,13.1c-8,0.3-14.7-5.3-14.7-11.7
	C530.1,722.5,535.8,717.2,544.3,717.2z"/>
<path class="st4" d="M1116.2,728c0.2,6.8-6.8,13-11.4,13.1c-8.1,0.2-14.6-5.3-14.6-11.7c0-7.9,5.7-13.1,14.2-13.1
	C1111.5,716.2,1116.1,720.9,1116.2,728z"/>
<path class="st24" d="M181.4,364.2c-5.4-4.1-10.9-8.1-16.1-12.3c-17.6-14.4-34.4-29.8-50.2-46.1c-13.7-14.2-27.5-28.3-40.7-42.9
	c-6.3-7-11.3-15.1-16.8-22.7c-0.8-1.1-1-2.8-1.5-4.1l1.1-0.5c2,3.1,3.6,6.6,6.1,9.3c6.1,6.9,12.6,13.5,19,20.2
	c9.8,10.2,19.5,20.5,29.5,30.5c12.8,12.8,26,25.1,41,35.4c8.7,6,16.7,13,25,19.6c0.9,0.9,1.8,1.9,2.5,3
	C180.7,357.1,181,360.6,181.4,364.2z"/>
<path class="st24" d="M175.2,264.2l-3-2.8c-1.7-14.4-3.2-28.9-5.2-43.3c-1.7-12.2-3.9-24.4-5.8-36.6c-0.1-0.4,0.1-1,1.1-1.6
	c1.3,5,2.9,10,3.7,15c2.9,17.6,5.4,35.2,8.1,52.9c0.7,4.6,1.8,9.1,2.5,13.6C176.7,262.3,175.7,263.3,175.2,264.2z"/>
<path class="st25" d="M1211,602.3c-2.9,3.5-6.7,1.7-10.2,1.7c-1.3,0-2.6-0.6-3.9-0.7c-15.3-0.4-30.6-0.7-45.8-1
	c-20.6-0.4-41.2-0.8-61.8-1c-34.9-0.4-69.9-0.6-104.8-1c-12.1-0.2-24.2-0.6-36.3-1c-10.3-0.3-20.6-0.8-30.8-1
	c-30.3-0.4-60.5-0.8-90.8-1c-7.8,0-15.6,0.9-23.3,0.9c-13.3-0.1-26.6-0.6-39.8-0.9c-15.6-0.4-31.2-1-46.8-0.9
	c-19.5,0-38.9,0.7-58.3,0.9c-26.7,0.4-53.4,0.7-80.1,1c-20.3,0.3-40.6,0.9-60.8,0.9c-11.4,0-23-2.7-34.2-1.5
	c-15.5,1.7-30.8,1.3-46.2,1.6c-3.7-3-3-7.5-3.4-11.4c-0.5-4.1-0.1-8.3-0.1-12.4l-0.1-17.7l-0.1-2.6c0-6.3,0.1-12.6,0.1-18.9
	s0.1-6.2,6-6.1c21,0.4,41.9,0.9,62.9,1.2c12.5,0.2,25,0,37.5,0.3c12.9,0.3,25.8,1.2,38.8,1.8l5-0.1h49l2,0.2
	c1.3,0.3,2.6,0.5,3.9,0.6c13.9,0.5,27.8,0.8,41.7,1.3c4.8,0.2,9.5,0.6,14.3,0.9l5-0.8c18.5,0.2,37.1,0.5,55.6,0.7
	c4.5,0,8.9-0.4,13.4-0.6l4-0.3c54.2-0.3,108.4-0.7,162.6-0.8c14.8,0,29.6,0.6,44.4,0.9l4,0.2l30,0.8l18.2,0.5
	c5.6-0.1,11.2-0.2,16.9-0.2c26.8,0.2,53.7,0.4,80.6,0.5c5.8,0,11.6-0.4,17.4-0.7h11h6l6-0.1c11.5,0,22.9-0.1,34.4-0.1
	c7.3,0,7.9,0.6,7.8,7.9C1211.2,563.4,1211.1,582.8,1211,602.3z"/>
</svg>
