<svg xmlns="http://www.w3.org/2000/svg" viewBox="0 0 101.73 287.96">
  <defs>
    <style>
      .cls-1 {
        fill: #d1d1d1;
      }

      .cls-2 {
        fill: #ba7ab5;
      }

      .cls-3 {
        fill: #fff;
      }

      .cls-4 {
        fill: #adadad;
      }

      .cls-5 {
        fill: #464148;
      }
    </style>
  </defs>
  <title>illo-</title>
  <g id="Layer_5" data-name="Layer 5">
    <path class="cls-1" d="M30.16,0h7.61V277H64.58a1.84,1.84,0,0,1,1.81,1.48l1.55,7.68H0l1.55-7.68A1.84,1.84,0,0,1,3.35,277H30.16Z"/>
    <circle class="cls-2" cx="33.97" cy="67.24" r="8.95"/>
    <circle class="cls-3" cx="33.97" cy="67.24" r="5.37"/>
    <circle class="cls-2" cx="33.97" cy="29.05" r="8.95"/>
    <circle class="cls-3" cx="33.97" cy="29.05" r="5.37"/>
    <rect class="cls-4" y="286.12" width="67.93" height="1.84"/>
    <g>
      <path class="cls-1" d="M79.77,55a2.3,2.3,0,0,1-.1.67L72.29,80.12a2.3,2.3,0,0,1-4.4-1.33l7.38-24.43a2.3,2.3,0,0,1,4.5.66Z"/>
      <path class="cls-1" d="M89.55,55a2.3,2.3,0,0,1-.1.67L82.07,80.12a2.3,2.3,0,0,1-4.4-1.33l7.38-24.43a2.3,2.3,0,0,1,4.5.66Z"/>
      <path class="cls-1" d="M56.46,69.54H64a2.3,2.3,0,0,0,2.2-1.63l3.69-12.22a2.3,2.3,0,1,0-4.4-1.33l-3.2,10.58H56.46Z"/>
      <path class="cls-3" d="M72.39,79.46a2.3,2.3,0,0,1-4.58.22l-2.4-24.43A2.3,2.3,0,0,1,70,54.8l2.4,24.43A2.22,2.22,0,0,1,72.39,79.46Z"/>
      <path class="cls-3" d="M82.17,79.46a2.3,2.3,0,0,1-4.58.22l-2.4-24.43a2.3,2.3,0,0,1,4.57-.45l2.4,24.43A2.22,2.22,0,0,1,82.17,79.46Z"/>
      <path class="cls-1" d="M99.33,55a2.3,2.3,0,0,1-.1.67L91.85,80.12a2.3,2.3,0,1,1-4.4-1.33l7.38-24.43a2.3,2.3,0,0,1,4.5.66Z"/>
      <path class="cls-3" d="M92,79.46a2.3,2.3,0,0,1-4.58.22L85,55.25a2.3,2.3,0,0,1,4.57-.45l2.4,24.43A2.22,2.22,0,0,1,92,79.46Z"/>
      <path class="cls-3" d="M101.73,79.46a2.3,2.3,0,0,1-4.58.22l-2.4-24.43a2.3,2.3,0,0,1,4.57-.45l2.4,24.43A2.22,2.22,0,0,1,101.73,79.46Z"/>
      <path class="cls-4" d="M47.5,75.22h7.7A1.26,1.26,0,0,0,56.46,74V60.53a1.26,1.26,0,0,0-1.26-1.26H47.5Z"/>
      <path class="cls-5" d="M47.5,75.22h-.7A1.26,1.26,0,0,1,45.53,74V60.53a1.26,1.26,0,0,1,1.26-1.26h.7Z"/>
    </g>
    <g>
      <path class="cls-1" d="M79.77,16.84a2.3,2.3,0,0,1-.1.67L72.29,41.93a2.3,2.3,0,0,1-4.4-1.33l7.38-24.43a2.3,2.3,0,0,1,4.5.66Z"/>
      <path class="cls-1" d="M89.55,16.84a2.3,2.3,0,0,1-.1.67L82.07,41.93a2.3,2.3,0,1,1-4.4-1.33l7.38-24.43a2.3,2.3,0,0,1,4.5.66Z"/>
      <path class="cls-1" d="M56.46,31.35H64a2.3,2.3,0,0,0,2.2-1.63L69.89,17.5a2.3,2.3,0,0,0-4.4-1.33l-3.2,10.58H56.46Z"/>
      <path class="cls-3" d="M72.39,41.27a2.3,2.3,0,0,1-4.58.22l-2.4-24.43A2.3,2.3,0,0,1,70,16.61L72.38,41A2.22,2.22,0,0,1,72.39,41.27Z"/>
      <path class="cls-3" d="M82.17,41.27a2.3,2.3,0,0,1-4.58.22l-2.4-24.43a2.3,2.3,0,0,1,4.57-.45L82.16,41A2.22,2.22,0,0,1,82.17,41.27Z"/>
      <path class="cls-1" d="M99.33,16.84a2.3,2.3,0,0,1-.1.67L91.85,41.93a2.3,2.3,0,1,1-4.4-1.33l7.38-24.43a2.3,2.3,0,0,1,4.5.66Z"/>
      <path class="cls-3" d="M92,41.27a2.3,2.3,0,0,1-4.58.22L85,17.06a2.3,2.3,0,0,1,4.57-.45L91.94,41A2.22,2.22,0,0,1,92,41.27Z"/>
      <path class="cls-3" d="M101.73,41.27a2.3,2.3,0,0,1-4.58.22l-2.4-24.43a2.3,2.3,0,0,1,4.57-.45L101.72,41A2.22,2.22,0,0,1,101.73,41.27Z"/>
      <path class="cls-4" d="M47.5,37h7.7a1.26,1.26,0,0,0,1.26-1.26V22.34a1.26,1.26,0,0,0-1.26-1.26H47.5Z"/>
      <path class="cls-5" d="M47.5,37h-.7a1.26,1.26,0,0,1-1.26-1.26V22.34a1.26,1.26,0,0,1,1.26-1.26h.7Z"/>
    </g>
  </g>
</svg>
