<svg xmlns="http://www.w3.org/2000/svg" viewBox="0 0 113.81 48.44">
  <defs>
    <style>
      .cls-1 {
        fill: #d1d1d1;
      }

      .cls-2 {
        fill: #adadad;
      }

      .cls-3 {
        fill: #464148;
      }

      .cls-4 {
        fill: #fff;
      }

      .cls-5 {
        fill: #ba7ab5;
      }
    </style>
  </defs>
  <title>illo-</title>
  <g id="Layer_5" data-name="Layer 5">
    <path class="cls-1" d="M104.45,17.93v16H95.51V21.86a3,3,0,0,0-3-3H11.94a3,3,0,0,0-3,3v9.29H0V17.93a8,8,0,0,1,8-8H96.45A8,8,0,0,1,104.45,17.93Z"/>
    <rect class="cls-2" x="94.23" y="33.94" width="11.5" height="14.49"/>
    <circle class="cls-3" cx="99.97" cy="13.89" r="13.84"/>
    <circle class="cls-4" cx="99.97" cy="13.89" r="10.85"/>
    <path class="cls-3" d="M100,4.8h0a.41.41,0,0,1,.41.41v8.68a0,0,0,0,1,0,0h-.81a0,0,0,0,1,0,0V5.21A.41.41,0,0,1,100,4.8Z"/>
    <g>
      <circle class="cls-5" cx="99.97" cy="4.01" r="0.3"/>
      <circle class="cls-5" cx="96.59" cy="4.6" r="0.3" transform="translate(4.25 33.31) rotate(-20)"/>
      <circle class="cls-5" cx="93.62" cy="6.32" r="0.3" transform="translate(17.84 61.65) rotate(-40)"/>
      <circle class="cls-5" cx="91.41" cy="8.95" r="0.3" transform="translate(37.96 83.64) rotate(-60)"/>
      <circle class="cls-5" cx="90.24" cy="12.18" r="0.3" transform="translate(62.57 98.94) rotate(-80)"/>
      <circle class="cls-5" cx="90.24" cy="15.61" r="0.3" transform="matrix(0.98, -0.17, 0.17, 0.98, -1.34, 15.91)"/>
      <circle class="cls-5" cx="91.42" cy="18.84" r="0.3" transform="translate(2.83 48.23) rotate(-30)"/>
      <circle class="cls-5" cx="93.63" cy="21.46" r="0.3" transform="translate(17 79.39) rotate(-50)"/>
      <circle class="cls-5" cx="96.6" cy="23.17" r="0.3" transform="translate(41.78 106.02) rotate(-70)"/>
      <circle class="cls-5" cx="99.98" cy="23.77" r="0.3"/>
      <circle class="cls-5" cx="103.36" cy="23.17" r="0.3" transform="translate(-1.69 36.75) rotate(-20)"/>
      <circle class="cls-5" cx="106.32" cy="21.45" r="0.3" transform="translate(11.09 73.36) rotate(-40)"/>
      <circle class="cls-5" cx="108.53" cy="18.82" r="0.3" transform="matrix(0.5, -0.87, 0.87, 0.5, 37.97, 103.4)"/>
      <circle class="cls-5" cx="109.7" cy="15.59" r="0.3" transform="translate(75.29 120.92) rotate(-80)"/>
      <circle class="cls-5" cx="109.69" cy="12.16" r="0.3" transform="translate(-0.45 19.23) rotate(-10)"/>
      <circle class="cls-5" cx="108.52" cy="8.94" r="0.3" transform="translate(10.07 55.46) rotate(-30)"/>
      <circle class="cls-5" cx="106.31" cy="6.32" r="0.3" transform="translate(33.14 83.69) rotate(-50)"/>
      <circle class="cls-5" cx="103.34" cy="4.61" r="0.3" transform="translate(63.66 100.14) rotate(-70)"/>
      <circle class="cls-5" cx="99.97" cy="13.89" r="1.46"/>
    </g>
  </g>
</svg>
