<svg xmlns="http://www.w3.org/2000/svg" viewBox="0 0 336.81 180.75">
  <defs>
    <style>
      .cls-1 {
        fill: #464148;
      }

      .cls-2 {
        fill: #ba7ab5;
      }

      .cls-3 {
        fill: #adadad;
      }

      .cls-4 {
        fill: #d1d1d1;
      }

      .cls-5 {
        fill: #fff;
      }
    </style>
  </defs>
  <title>illo-</title>
  <g id="Layer_5" data-name="Layer 5">
    <g>
      <path class="cls-1" d="M52.88,0H285.13a10,10,0,0,1,10,10V166a0,0,0,0,1,0,0H42.88a0,0,0,0,1,0,0V10A10,10,0,0,1,52.88,0Z"/>
      <rect class="cls-2" x="53.63" y="11.75" width="230.75" height="144.01"/>
      <path class="cls-3" d="M168.53,175H336.81l-10,4.77a10,10,0,0,1-4.32,1h-308a10,10,0,0,1-4.32-1L.25,175Z"/>
      <path class="cls-4" d="M1,166H335.81a1,1,0,0,1,1,1v8a0,0,0,0,1,0,0H0a0,0,0,0,1,0,0v-8A1,1,0,0,1,1,166Z"/>
      <circle class="cls-5" cx="168.41" cy="5.87" r="1.64"/>
    </g>
  </g>
</svg>
