<svg xmlns="http://www.w3.org/2000/svg" viewBox="0 0 122.73 174.26">
  <defs>
    <style>
      .cls-1 {
        fill: #d1d1d1;
      }

      .cls-2 {
        fill: #464148;
      }

      .cls-3 {
        fill: #fff;
      }

      .cls-4 {
        fill: #adadad;
      }

      .cls-5 {
        fill: #ba7ab5;
      }
    </style>
  </defs>
  <title>illo-</title>
  <g id="Layer_5" data-name="Layer 5">
    <path class="cls-1" d="M56.84,49.64H85V0h7.61V163.26h26.81a1.84,1.84,0,0,1,1.81,1.48l1.55,7.68H54.8l1.55-7.68a1.84,1.84,0,0,1,1.81-1.48H85V54H56.84V49.64"/>
    <rect class="cls-2" x="3.8" y="21.01" width="49.07" height="92.24" rx="5" ry="5" transform="translate(56.68 134.25) rotate(-180)"/>
    <circle class="cls-3" cx="28.34" cy="107.15" r="3.74"/>
    <rect class="cls-3" x="23.64" y="24.47" width="9.39" height="2.31" rx="1.15" ry="1.15" transform="translate(56.68 51.24) rotate(-180)"/>
    <rect class="cls-3" x="6.51" y="30.93" width="43.65" height="70.55" transform="translate(56.68 132.42) rotate(-180)"/>
    <circle class="cls-4" cx="88.77" cy="51.83" r="8.95"/>
    <circle class="cls-3" cx="88.77" cy="51.83" r="5.37"/>
    <g>
      <rect class="cls-5" x="-0.17" y="45.08" width="3.97" height="13.49" transform="translate(3.63 103.65) rotate(-180)"/>
      <rect class="cls-5" x="52.87" y="45.08" width="3.97" height="13.49" transform="translate(109.72 103.65) rotate(-180)"/>
    </g>
    <rect class="cls-4" x="54.8" y="172.41" width="67.93" height="1.84"/>
  </g>
</svg>
