<?xml version="1.0" encoding="utf-8"?>
<!-- Generator: Adobe Illustrator 14.0.0, SVG Export Plug-In . SVG Version: 6.00 Build 43363)  -->
<!DOCTYPE svg PUBLIC "-//W3C//DTD SVG 1.1//EN" "http://www.w3.org/Graphics/SVG/1.1/DTD/svg11.dtd">
<svg version="1.1" id="Layer_1" xmlns="http://www.w3.org/2000/svg" xmlns:xlink="http://www.w3.org/1999/xlink" x="0px" y="0px"
	 width="150px" height="150px" viewBox="25 25 150 150" enable-background="new 25 25 150 150" xml:space="preserve">
<path fill="#DDDDDD" d="M145.693,71.654c-3.362,1.491-6.973,2.499-10.769,2.952c3.875-2.321,6.843-5.996,8.244-10.371
	c-3.618,2.147-7.633,3.708-11.91,4.549c-3.418-3.644-8.291-5.919-13.682-5.919c-10.351,0-18.746,8.393-18.746,18.749
	c0,1.469,0.166,2.898,0.484,4.273c-15.58-0.784-29.394-8.246-38.642-19.59c-1.612,2.771-2.538,5.993-2.538,9.428
	c0,6.502,3.312,12.242,8.339,15.601c-3.072-0.096-5.962-0.937-8.491-2.341c0,0.079,0,0.155,0,0.236
	c0,9.082,6.459,16.659,15.038,18.38c-1.576,0.434-3.23,0.658-4.94,0.658c-1.21,0-2.383-0.115-3.528-0.328
	c2.386,7.443,9.307,12.861,17.511,13.015c-6.417,5.03-14.503,8.029-23.285,8.029c-1.511,0-3.004-0.091-4.473-0.269
	c8.297,5.32,18.15,8.428,28.737,8.428c34.48,0,53.341-28.568,53.341-53.338c0-0.816-0.017-1.621-0.057-2.425
	C140.002,78.716,143.182,75.414,145.693,71.654z"/>
</svg>
