<?xml version="1.0" encoding="utf-8"?>
<!-- Generator: Adobe Illustrator 14.0.0, SVG Export Plug-In . SVG Version: 6.00 Build 43363)  -->
<!DOCTYPE svg PUBLIC "-//W3C//DTD SVG 1.1//EN" "http://www.w3.org/Graphics/SVG/1.1/DTD/svg11.dtd">
<svg version="1.1" id="Layer_1" xmlns="http://www.w3.org/2000/svg" xmlns:xlink="http://www.w3.org/1999/xlink" x="0px" y="0px"
	 width="150px" height="150px" viewBox="25 25 150 150" enable-background="new 25 25 150 150" xml:space="preserve">
<g>
	<g>
		<path fill="#DDDDDD" d="M74.314,67.821c-4.324,0-7.148,2.914-7.06,6.798c-0.089,3.707,2.737,6.708,6.974,6.708
			c4.415,0,7.239-3.001,7.239-6.708C81.38,70.734,78.643,67.821,74.314,67.821z M67.607,132.177h13.416V86.315H67.607V132.177z
			 M117.305,86.96c-4.291,0-8.667-0.885-13.332,6.349h-0.267l-0.233-6.992H91.591c0.176,3.796,0.198,9.463,0.198,14.849v31.014
			h13.418v-26.508c0-1.237,0.176-2.471,0.527-3.357c0.883-2.471,3.092-5.033,6.799-5.033c4.854,0,6.797,3.795,6.797,9.359v25.537
			h13.418v-27.219C132.753,92.247,126.129,86.96,117.305,86.96z"/>
	</g>
</g>
</svg>
