<?xml version="1.0" encoding="utf-8"?>
<!-- Generator: Adobe Illustrator 14.0.0, SVG Export Plug-In . SVG Version: 6.00 Build 43363)  -->
<!DOCTYPE svg PUBLIC "-//W3C//DTD SVG 1.1//EN" "http://www.w3.org/Graphics/SVG/1.1/DTD/svg11.dtd">
<svg version="1.1" id="Layer_1" xmlns="http://www.w3.org/2000/svg" xmlns:xlink="http://www.w3.org/1999/xlink" x="0px" y="0px"
	 width="150px" height="150px" viewBox="0 0 150 150" enable-background="new 0 0 150 150" xml:space="preserve">
<path d="M121.04,70.897c3.304,3.894,2.527,6.294,2.527,6.294s-2.802,12.957-4.521,28.612c-1.718,15.655-6.512,19.32-6.512,19.32
	s-5.152,4.505-19.125,5.242c-13.973,0.738-27.543-12.258-27.543-12.258l-12.606-8.859c0,0-12.427-9.28-15.068-10.656
	c-2.64-1.376-3.961-2.933-3.961-2.933l-3.063-3.294c0,0-4.62-1.974-9.062-4.367c-4.441-2.393,0.952-6.298,0.952-6.298
	s6.775-0.633,12.626,1.891c5.851,2.523,11.198,9.772,20.916,11.438c9.718,1.667,15.035-13.693,14.011-17.11
	c0,0-1.994-11.032-12.034-29.971S48.177,28.112,47.394,25.294c-0.783-2.817,0.708-8.637,2.508-7.619c0,0,1.077-2.521,15.622,21.569
	c14.546,24.09,8.59,10.124,8.59,10.124s-0.666-4.257,3.174-3.362s8.7,3.467,8.7,3.467l1.862,2.037l1.438-1.622
	c0,0,5.579,0.893,8.885,6.526c0,0,2.336-1.982,4.257-0.666C104.35,57.065,121.04,70.897,121.04,70.897z"/>
</svg>
