<?xml version="1.0" encoding="utf-8"?>
<!-- Generator: Adobe Illustrator 14.0.0, SVG Export Plug-In . SVG Version: 6.00 Build 43363)  -->
<!DOCTYPE svg PUBLIC "-//W3C//DTD SVG 1.1//EN" "http://www.w3.org/Graphics/SVG/1.1/DTD/svg11.dtd">
<svg version="1.1" id="Layer_1" xmlns="http://www.w3.org/2000/svg" xmlns:xlink="http://www.w3.org/1999/xlink" x="0px" y="0px"
	 width="275px" height="60px" viewBox="63 11 275 60" enable-background="new 63 11 275 60" xml:space="preserve">
<path fill="#CCCDCF" d="M65.125,13.991h54.184c0,18.453,0,36.912,0,55.365H65.125V13.991 M69.115,22.681
	c2.418,11.255,4.585,22.571,6.914,33.847c0.425,1.352,0.162,3.133,1.472,4.039c2.363,0.377,4.787,0.283,7.17,0.121
	c1.296,0.04,1.607-1.486,1.843-2.465c1.627-8.028,3.396-16.029,5.017-24.057c0.128-0.743,0.357-1.465,0.709-2.134
	c2.019,8.615,3.687,17.305,5.563,25.949c0.256,0.917,0.311,2.051,1.215,2.611c2.58,0.311,5.226,0.338,7.798-0.02
	c0.925-0.548,0.972-1.675,1.209-2.606c2.383-11.755,4.604-23.557,7.123-35.285c-2.275,0.013-4.543,0.007-6.812,0.007
	c-1.81,10.229-3.261,20.525-5.26,30.721c-2.248-8.648-3.754-17.507-5.712-26.237c-0.445-1.493-0.243-3.667-1.877-4.423
	c-1.999-0.122-4.011-0.128-6.009,0c-1.134,0.095-1.391,1.438-1.613,2.329c-1.81,8.656-3.707,17.29-5.477,25.946
	c-0.182,0.805-0.452,1.574-0.755,2.338c-1.816-10.202-3.538-20.432-5.104-30.674C74.058,22.681,71.587,22.694,69.115,22.681z"/>
<path fill="#FFFFFF" d="M119.309,13.991h53.677c0,18.453,0,36.912,0,55.365h-53.677C119.309,50.902,119.309,32.444,119.309,13.991
	 M133.056,22.316c-0.026,2.268-0.026,4.53,0,6.798c3.085,0.021,6.171,0.007,9.257,0.007c-0.013,8.366-0.013,16.738,0,25.103
	c-3.085,0-6.171-0.012-9.257,0.008c-0.026,2.269-0.026,4.53,0.007,6.799c8.724,0.02,17.447,0.02,26.17,0
	c0.034-2.262,0.027-4.53,0.014-6.792c-3.092-0.026-6.178-0.015-9.264-0.015c0.014-8.365,0.014-16.737,0-25.103
	c3.086,0,6.172,0.015,9.258-0.007c0.026-2.268,0.026-4.537-0.007-6.798C150.509,22.295,141.786,22.295,133.056,22.316z"/>
<path fill="#CCCDCF" d="M172.986,13.991h54.184c0,18.453,0,36.912,0,55.365h-54.184C172.986,50.902,172.986,32.444,172.986,13.991
	 M185.227,22.688c0,12.659,0,25.312,0,37.973c2.499,0,5.003,0,7.508,0c0-4.949,0-9.906,0-14.854
	c4.071,0.014,8.143-0.021,12.214,0.007c1.486-0.144,3.255,0.917,3.221,2.552c0.189,4.104,0.541,8.197,0.797,12.295
	c2.385,0,4.76,0,7.144,0.006c-0.675-4.645,0.155-9.445-1.154-13.995c-0.675-2.384-3.308-2.918-5.36-3.512
	c1.525-0.81,3.482-0.884,4.59-2.37c1.607-2.04,1.723-4.76,1.73-7.245c-0.028-2.903,0.04-6.097-1.805-8.535
	c-1.471-2.025-4.227-2.322-6.535-2.322C200.129,22.681,192.675,22.688,185.227,22.688z"/>
<path fill="#FFFFFF" d="M227.17,13.991h53.846c0,18.453,0,36.912,0,55.365H227.17C227.17,50.902,227.17,32.444,227.17,13.991
	 M236.853,22.323c-0.028,2.255-0.028,4.517-0.013,6.772c1.721,0.034,3.442,0.034,5.165,0.02c0.032,8.373,0.032,16.745,0,25.118
	c-1.723-0.014-3.438-0.014-5.159,0.007c-0.021,2.262-0.027,4.523,0.007,6.785c10.856,0.034,21.707,0.034,32.565,0
	c0.054-4.478,0.019-8.954,0.019-13.43c-2.356-0.021-4.713-0.021-7.069,0.007c-0.006,2.209-0.006,4.416,0,6.623
	c-4.294,0.008-8.588-0.026-12.883,0.021c-0.066-3.316-0.021-6.639-0.033-9.952c3.377,0,6.752,0,10.127,0c0-2.154,0-4.308,0-6.463
	c-3.375,0-6.75,0-10.127,0c0-2.903-0.006-5.806,0.008-8.709c4.185,0.007,8.365,0.007,12.55,0c-0.013,1.932-0.013,3.862-0.005,5.8
	c2.314,0,4.631,0,6.947,0c-0.008-4.199,0.006-8.4-0.008-12.599C258.242,22.289,247.547,22.289,236.853,22.323z"/>
<path fill="#CCCDCF" d="M281.016,13.991h54.859v55.365h-54.859C281.016,50.902,281.016,32.444,281.016,13.991 M293.258,22.688
	c0,12.659,0,25.312,0,37.973c6.312-0.014,12.619,0.027,18.932-0.021c3.889-0.073,8.42-0.797,10.762-4.28
	c2.735-4.377,2.324-9.73,2.803-14.665c-0.486-4.943-0.055-10.317-2.803-14.706c-2.18-3.261-6.353-4.119-10.02-4.253
	C306.375,22.626,299.812,22.714,293.258,22.688z"/>
<path fill="#CCCDCF" d="M133.056,22.316c8.73-0.021,17.454-0.021,26.177,0c0.034,2.262,0.034,4.53,0.007,6.798
	c-3.086,0.021-6.172,0.007-9.258,0.007c0.014,8.366,0.014,16.738,0,25.103c3.086,0,6.172-0.012,9.264,0.015
	c0.013,2.262,0.02,4.53-0.014,6.792c-8.724,0.02-17.447,0.02-26.17,0c-0.033-2.269-0.033-4.53-0.007-6.799
	c3.085-0.02,6.171-0.008,9.257-0.008c-0.013-8.365-0.013-16.737,0-25.103c-3.085,0-6.171,0.015-9.257-0.007
	C133.029,26.847,133.029,24.584,133.056,22.316z"/>
<path fill="#CCCDCF" d="M236.853,22.323c10.694-0.034,21.39-0.034,32.091,0c0.014,4.199,0,8.4,0.008,12.599
	c-2.316,0-4.633,0-6.947,0c-0.008-1.938-0.008-3.868,0.005-5.8c-4.185,0.007-8.365,0.007-12.55,0
	c-0.014,2.903-0.008,5.807-0.008,8.709c3.377,0,6.752,0,10.127,0c0,2.155,0,4.309,0,6.463c-3.375,0-6.75,0-10.127,0
	c0.013,3.313-0.033,6.636,0.033,9.952c4.295-0.048,8.589-0.014,12.883-0.021c-0.006-2.207-0.006-4.414,0-6.623
	c2.356-0.027,4.713-0.027,7.069-0.007c0,4.476,0.035,8.952-0.019,13.43c-10.858,0.034-21.709,0.034-32.565,0
	c-0.034-2.262-0.028-4.523-0.007-6.785c1.721-0.021,3.437-0.021,5.159-0.007c0.032-8.373,0.032-16.745,0-25.118
	c-1.723,0.014-3.444,0.014-5.165-0.02C236.824,26.84,236.824,24.578,236.853,22.323z"/>
<path fill="#FFFFFF" d="M69.115,22.681c2.472,0.013,4.943,0,7.414,0.007c1.566,10.242,3.288,20.472,5.104,30.674
	c0.304-0.764,0.574-1.533,0.755-2.338c1.77-8.656,3.667-17.29,5.477-25.946c0.223-0.891,0.479-2.234,1.613-2.329
	c1.999-0.128,4.011-0.122,6.009,0c1.634,0.756,1.432,2.93,1.877,4.423c1.958,8.73,3.464,17.589,5.712,26.237
	c1.999-10.195,3.45-20.492,5.26-30.721c2.269,0,4.537,0.006,6.812-0.007c-2.518,11.728-4.74,23.53-7.123,35.285
	c-0.237,0.932-0.284,2.059-1.209,2.606c-2.572,0.357-5.219,0.33-7.798,0.02c-0.905-0.561-0.959-1.694-1.215-2.611
	c-1.877-8.644-3.544-17.333-5.563-25.949c-0.352,0.668-0.581,1.391-0.709,2.134c-1.62,8.028-3.39,16.029-5.017,24.057
	c-0.236,0.979-0.547,2.505-1.843,2.465c-2.383,0.162-4.808,0.256-7.17-0.121c-1.31-0.906-1.047-2.688-1.472-4.039
	C73.7,45.252,71.533,33.936,69.115,22.681z"/>
<path fill="#FFFFFF" d="M185.227,22.688c7.448,0,14.902-0.007,22.349,0c2.309,0,5.064,0.297,6.535,2.322
	c1.845,2.438,1.776,5.632,1.805,8.535c-0.008,2.485-0.123,5.206-1.73,7.245c-1.107,1.486-3.064,1.56-4.59,2.37
	c2.053,0.594,4.686,1.128,5.36,3.512c1.31,4.55,0.479,9.351,1.154,13.995c-2.384-0.006-4.759-0.006-7.144-0.006
	c-0.256-4.098-0.607-8.191-0.797-12.295c0.034-1.635-1.734-2.695-3.221-2.552c-4.071-0.028-8.143,0.007-12.214-0.007
	c0,4.947,0,9.904,0,14.854c-2.505,0-5.01,0-7.508,0C185.227,48,185.227,35.347,185.227,22.688 M192.735,28.926
	c0,3.666,0,7.332,0,10.999c4.491-0.062,8.995,0.135,13.477-0.095c2.409-0.142,2.444-3.039,2.54-4.848
	c-0.076-1.992,0.297-4.639-1.561-5.955C202.383,28.777,197.557,29,192.735,28.926z"/>
<path fill="#FFFFFF" d="M293.258,22.688c6.555,0.027,13.117-0.062,19.674,0.047c3.667,0.134,7.84,0.993,10.02,4.253
	c2.748,4.389,2.316,9.763,2.803,14.706c-0.479,4.935-0.067,10.288-2.803,14.665c-2.342,3.483-6.873,4.207-10.762,4.28
	c-6.312,0.048-12.619,0.007-18.932,0.021C293.258,48,293.258,35.347,293.258,22.688 M300.766,28.926c0,8.5,0,16.994,0,25.495
	c3.842-0.005,7.684,0.007,11.532,0.007c1.843,0.034,4.078-0.452,4.942-2.289c1.289-2.842,0.972-6.043,1.08-9.074
	c-0.142-3.794,0.398-7.751-0.877-11.396c-0.576-1.864-2.647-2.749-4.464-2.729C308.908,28.899,304.837,28.946,300.766,28.926z"/>
<path fill="#CCCDCF" d="M192.735,28.926c4.821,0.073,9.647-0.149,14.456,0.101c1.857,1.316,1.484,3.963,1.561,5.955
	c-0.096,1.81-0.131,4.706-2.54,4.848c-4.481,0.229-8.986,0.033-13.477,0.095C192.735,36.258,192.735,32.592,192.735,28.926z"/>
<path fill="#CCCDCF" d="M300.766,28.926c4.071,0.02,8.143-0.027,12.214,0.013c1.816-0.02,3.888,0.864,4.464,2.729
	c1.275,3.646,0.735,7.602,0.877,11.396c-0.108,3.031,0.209,6.232-1.08,9.074c-0.864,1.837-3.1,2.323-4.942,2.289
	c-3.849,0-7.69-0.012-11.532-0.007C300.766,45.92,300.766,37.427,300.766,28.926z"/>
</svg>
