<?xml version="1.0" encoding="utf-8"?>
<!-- Generator: Adobe Illustrator 14.0.0, SVG Export Plug-In . SVG Version: 6.00 Build 43363)  -->
<!DOCTYPE svg PUBLIC "-//W3C//DTD SVG 1.1//EN" "http://www.w3.org/Graphics/SVG/1.1/DTD/svg11.dtd">
<svg version="1.1" id="svg2" xmlns:svg="http://www.w3.org/2000/svg"
	 xmlns="http://www.w3.org/2000/svg" xmlns:xlink="http://www.w3.org/1999/xlink" x="0px" y="0px" width="300px" height="60px"
	 viewBox="708 65.378 300 60" enable-background="new 708 65.378 300 60" xml:space="preserve">
<path id="path6" fill="#CCCDCF" d="M729.282,75.671c-0.276,0.013-0.544,0.083-0.802,0.249c1.063,0.213,2.311,0.356,2.982,1.326
	c0.336,0.358,0.231,0.907-0.105,1.221c-0.637,0.759-1.729,0.997-2.664,0.754c-3.169-0.749-6.166-2.203-9.424-2.582
	c-1.744-0.23-3.448,0.609-4.652,1.823c-1.111,1.115-1.515,2.806-1.295,4.334c0.246,1.208,1.143,2.464,2.438,2.643
	c-0.768-0.834-0.912-2.282-0.117-3.148c0.449-0.558,1.25-0.635,1.914-0.532c2.523,0.469,4.983,1.229,7.5,1.74
	c1.41,0.384,2.803,0.841,4.243,1.103c0.026,1.721,0.026,3.442,0,5.163c-0.93,0.694-1.817,1.441-2.729,2.158
	c0.888,0.665,1.803,1.288,2.721,1.91c0.059,2.436-0.009,4.869,0.035,7.305c-1.502,1.16-3.514,1.348-5.342,1.133
	c-1.941-0.107-3.664-1.264-4.937-2.668c2.132-1.137,4.304-2.21,6.484-3.253c0.077-3.839,0.014-7.681,0.035-11.521
	c-2.726,1.143-5.421,2.346-8.138,3.506c0.785-2.008,2.383-3.634,4.287-4.601c-0.497,0.03-1.019-0.007-1.482,0.209
	c-3.565,1.407-6.504,4.432-7.609,8.124c-0.74,2.344-0.502,4.907,0.301,7.199c0.994,2.551,2.834,4.807,5.271,6.096
	c1.369,0.709,2.844,1.372,4.413,1.392c3.25,0.271,6.669-0.956,8.86-3.401c0.958-1.027,1.44-2.367,1.915-3.662
	c0.439-1.277,0.638-2.637,0.593-3.986c-1.052,2.086-2.451,4.046-4.36,5.429c0.013-2.426-0.005-4.852,0.005-7.277
	c0.83-0.634,1.664-1.266,2.467-1.933c-0.824-0.73-1.645-1.461-2.467-2.193c0.003-1.705-0.004-3.414,0-5.119
	c1.857-0.098,3.994-1.078,4.495-3.026c0.349-1.271,0.531-2.778-0.249-3.929c-0.717-0.816-1.646-1.525-2.738-1.722
	C730.527,75.88,729.889,75.642,729.282,75.671z M720.592,87.371c-0.008,3.698,0.021,7.396-0.014,11.094
	c-0.617,0.242-1.225,0.507-1.831,0.776c-1.12-1.621-1.815-3.527-2.137-5.465c-0.087-1.635,0.216-3.289,0.785-4.822
	C718.47,88.442,719.521,87.89,720.592,87.371z"/>
<path id="path8" fill="#CCCDCF" d="M933.642,75.671c-0.299-0.009-0.591,0.05-0.867,0.249c0.628,0.145,1.291,0.207,1.879,0.501
	c0.523,0.251,0.87,0.771,1.051,1.308c0.098,0.581-0.327,1.116-0.837,1.334c-0.914,0.422-1.951,0.227-2.882-0.026
	c-2.233-0.684-4.407-1.568-6.685-2.102c-1.171-0.25-2.398-0.485-3.581-0.174c-1.282,0.361-2.583,0.975-3.34,2.119
	c-0.978,1.261-1.1,2.996-0.623,4.479c0.392,0.989,1.188,1.962,2.311,2.089c-0.366-0.471-0.997-0.946-0.815-1.618
	c0.102-0.666,0.378-1.342,0.912-1.774c0.533-0.403,1.264-0.398,1.883-0.218c2.271,0.422,4.488,1.06,6.732,1.592
	c1.521,0.323,2.982,0.89,4.514,1.173c0.026,1.714,0.006,3.429,0.014,5.145c-0.824,0.729-1.646,1.454-2.459,2.193
	c0.819,0.634,1.624,1.283,2.454,1.902c0.012,2.439-0.005,4.883,0.013,7.325c-1.439,1.079-3.336,1.346-5.084,1.103
	c-1.931-0.114-3.619-1.275-4.901-2.65c0.525-0.367,1.125-0.602,1.692-0.898c1.594-0.785,3.168-1.606,4.774-2.363
	c0.051-3.843,0.007-7.688,0.022-11.53c-2.707,1.153-5.395,2.36-8.111,3.489c0.621-1.475,1.613-2.822,2.948-3.724
	c0.399-0.365,0.804-0.747,1.352-0.872c-0.548,0.039-1.115,0.02-1.613,0.275c-3.829,1.549-7.095,4.927-7.814,9.079
	c-0.274,2.106-0.077,4.295,0.658,6.291c0.944,2.345,2.605,4.428,4.767,5.757c1.034,0.63,2.145,1.136,3.305,1.487
	c2.777,0.462,5.756,0.062,8.186-1.413c1.603-1.118,3.091-2.567,3.763-4.448c0.721-1.596,1.01-3.339,1.047-5.08
	c-0.335,0.438-0.531,0.959-0.815,1.426c-0.923,1.549-2.117,2.952-3.571,4.025c0.018-2.434-0.022-4.867,0.021-7.301
	c0.823-0.594,1.597-1.257,2.425-1.848c-0.764-0.792-1.631-1.477-2.442-2.215c-0.016-1.707,0.02-3.414-0.018-5.12
	c1.596-0.103,3.211-0.818,4.068-2.219c0.894-1.439,0.888-3.399,0.027-4.849c-0.68-0.896-1.746-1.474-2.849-1.64
	C934.656,75.888,934.141,75.686,933.642,75.671L933.642,75.671z M924.882,87.366c0.021,3.691,0,7.381,0.009,11.072
	c-0.63,0.264-1.252,0.541-1.88,0.807c-0.91-1.28-1.619-2.721-1.984-4.252c-0.402-2.006-0.297-4.18,0.637-6.03
	C922.744,88.446,923.811,87.905,924.882,87.366L924.882,87.366z"/>
<path id="path10" fill="#CCCDCF" d="M795.16,76.901c1.04,1.821,0.39,4.289-1.176,5.601c-0.961,0.626-2.066,0.972-3.15,1.322
	c0.025,7.448,0.004,14.897,0.008,22.345c0.076,0.341-0.235,0.607-0.557,0.472c-0.633-0.029-0.801-0.698-1.068-1.147
	c-3.897-7.166-7.752-14.355-11.68-21.505c-0.075,5.259-0.002,10.523-0.037,15.784c1.855,0.351,3.662,1.245,4.877,2.722
	c0.563-0.437,0.928-1.204,1.65-1.381c-0.184,0.334-0.45,0.607-0.705,0.887c-1.404,1.555-2.805,3.115-4.207,4.673
	c-0.65-0.819-1.518-1.598-2.603-1.709c-0.713-0.028-1.538,0.009-2.058,0.571c-0.599,0.534-1,1.434-0.572,2.197
	c0.5,1.093,1.76,1.39,2.82,1.65c-1.326,0.262-2.811,0.109-3.88-0.779c-0.851-0.727-1.623-1.65-1.845-2.776
	c-0.299-1.553,0.166-3.278,1.325-4.378c1.269-1.254,3.128-1.723,4.868-1.623c0.048-2.291,0.026-4.584,0.011-6.875
	c-0.846-0.135-1.999-0.014-2.393,0.869c-0.229,0.719,0.308,1.321,0.841,1.714c-0.66-0.115-1.393-0.24-1.868-0.752
	c-0.562-0.692-0.998-1.511-1.16-2.394c-0.163-1.135,0.136-2.43,1.081-3.16c0.989-0.766,2.307-0.87,3.513-0.842
	c0-1.615,0-3.23,0-4.846c-0.437-0.657-0.857-1.411-1.609-1.751c-0.492-0.204-1.134-0.277-1.558,0.106
	c-0.586,0.497-0.728,1.287-0.959,1.979c-0.226-1.69-0.057-3.607,1.128-4.933c1.431-1.852,4.457-1.92,6.021-0.208
	c0.678,0.696,1.142,1.554,1.602,2.4c2.896,5.156,5.734,10.345,8.659,15.484c0.017-4.262,0.026-8.525-0.004-12.787
	c-0.502-0.195-1.062-0.19-1.573-0.368c-0.953-0.251-1.746-0.865-2.451-1.53c-0.439,0.517-0.883,1.031-1.293,1.57
	c-0.095-0.053-0.285-0.156-0.381-0.208c1.5-1.891,3.107-3.696,4.669-5.538c0.818,0.861,1.886,1.566,3.104,1.645
	C793.821,79.255,795.072,78.239,795.16,76.901L795.16,76.901z"/>
<path id="path12" fill="#CCCDCF" d="M892.527,81.026c2.093-1.364,4.183-2.74,6.283-4.094c0.018,8.048-0.016,16.098,0.018,24.146
	c0.453,0.617,1.072,1.125,1.622,1.667c0.346-0.369,0.704-0.723,1.06-1.081c0.084,0.084,0.252,0.251,0.337,0.333
	c-1.676,1.453-3.3,2.962-4.986,4.399c-1.062-1.091-2.161-2.142-3.214-3.237c-0.474,0.42-0.906,0.881-1.351,1.329
	c-0.091-0.07-0.272-0.211-0.363-0.28c0.805-0.77,1.666-1.475,2.479-2.237c-0.008-6.099,0.004-12.198-0.008-18.297
	C894.385,82.533,893.805,81.167,892.527,81.026z"/>
<path id="path14" fill="#CCCDCF" d="M736.238,81.263c1.802-1.343,3.568-2.735,5.372-4.073c0.009,4.434-0.001,8.869,0.005,13.304
	c1.527-1.259,3.065-2.502,4.576-3.779c1.212,1.258,2.344,2.594,3.593,3.812c0.526-0.378,1.067-0.737,1.62-1.076
	c-0.1,0.702-0.939,0.943-1.376,1.434c0.005,2.425,0,4.847,0.002,7.272c0.034,1.812-0.228,3.611-0.281,5.422
	c-0.081,1.965-0.845,3.973-2.376,5.262c-1.244,1.112-2.947,1.514-4.571,1.647c-0.028,0.038-0.087,0.118-0.116,0.157l0.043-0.143
	c-0.56,0-1.118-0.021-1.676-0.063c0.701-0.363,1.494-0.595,2.047-1.194c0.635-0.709,1.375-1.383,1.688-2.311
	c0.511-1.412,0.526-2.936,0.577-4.418c-0.015-3.322,0.016-6.646-0.016-9.968c-0.739-0.964-1.626-1.815-2.411-2.747
	c-0.429,0.459-0.943,0.844-1.311,1.354c-0.03,3.43-0.004,6.859-0.013,10.289c0.444,0.443,0.888,0.89,1.336,1.329
	c0.359-0.36,0.719-0.724,1.078-1.087c0.08,0.078,0.239,0.236,0.319,0.314c-1.744,1.363-3.471,2.749-5.216,4.111
	c-1.104-0.98-2.182-1.988-3.269-2.988c-0.365,0.272-0.729,0.548-1.096,0.818c-0.078-0.082-0.231-0.246-0.311-0.328
	c0.838-0.539,1.659-1.102,2.488-1.652c-0.002-6.098-0.002-12.193,0-18.292c-0.018-0.465,0.005-0.968-0.241-1.383
	c-0.162-0.317-0.528-0.418-0.802-0.61C735.84,81.474,736.13,81.389,736.238,81.263L736.238,81.263z"/>
<path id="path16" fill="#CCCDCF" d="M856.372,78.026c-1.64,1.327-3.243,2.696-4.866,4.042c-0.018-1.27,0.021-2.537-0.022-3.807
	c-0.251-0.012-0.362,0.101-0.327,0.34c-0.008,8.975,0.004,17.951-0.004,26.926c-0.886-0.169-1.773-0.346-2.651-0.545
	c-0.014-7.57-0.001-15.139-0.004-22.71c-0.02-0.958-0.33-1.92-0.96-2.651c-0.785-0.93-2.012-1.361-3.195-1.443
	c-1.404-0.04-2.691,0.698-3.672,1.648c-0.902,0.856-1.387,2.18-1.131,3.41c0.111-0.762,0.359-1.622,1.061-2.045
	c0.77-0.328,1.794-0.063,2.255,0.659c0.394,0.583,0.433,1.311,0.448,1.993c0.004,2.046-0.001,4.092,0,6.14
	c-1.35,0.021-2.943,0.238-3.723,1.491c-0.785,0.98-1.027,2.37-0.489,3.522c0.354,1.141,1.54,1.729,2.643,1.91
	c-0.617-0.398-1.245-1.102-0.88-1.884c0.489-0.784,1.604-0.899,2.433-0.671c0.032,3.631,0.017,7.262,0.009,10.893
	c-1.238,0.433-2.443,1.184-3.105,2.351c-0.48,0.831-0.492,1.827-0.453,2.76c0.148,1.635,1.229,3.131,2.678,3.877
	c1.095,0.512,2.328,0.527,3.514,0.488c3.367-0.201,6.565-1.537,9.938-1.648c1.005-0.074,1.594,1.035,1.33,1.906
	c-0.2,0.785-0.86,1.318-1.482,1.777c1.184-0.25,2.363-0.695,3.288-1.5c1.043-0.883,1.522-2.311,1.456-3.648
	c-0.078-1.327-1.147-2.313-2.259-2.882c-1.464-0.859-3.23-0.668-4.84-0.493c-3.025,0.349-5.973,1.31-9.027,1.392
	c-1.035,0.068-2.002-0.664-2.211-1.68c-0.233-0.979,0.562-1.834,1.365-2.254c1.74-0.822,3.744-0.518,5.561-0.135
	c2.104,0.219,4.08,1.078,6.187,1.294c1.197,0.136,2.468-0.094,3.45-0.819c1.012-0.625,1.468-1.842,1.495-2.987
	c0.013-7.144-0.013-14.288,0.014-21.433c0.652-0.566,1.371-1.075,1.94-1.731c-0.795,0.197-1.295,0.943-1.945,1.4
	C858.902,80.209,857.644,79.112,856.372,78.026L856.372,78.026z M852.805,81.636c0.732,0.628,1.455,1.268,2.185,1.901
	c0.002,2.25-0.005,4.5,0,6.75c-0.347,0.342-0.726,0.703-1.233,0.768c-0.826,0.174-1.632-0.234-2.255-0.746
	c0.004-2.627,0.002-5.252,0-7.879C851.938,82.168,852.373,81.907,852.805,81.636L852.805,81.636z M851.501,90.933
	c1.071,0.544,2.449,0.71,3.488,0.005c-0.003,1.02-0.003,2.045,0,3.065c-0.422-0.412-0.964-0.739-1.569-0.737
	c-0.711-0.016-1.365,0.32-1.919,0.737C851.505,92.981,851.5,91.958,851.501,90.933L851.501,90.933z M853.411,93.588
	c0.69,0.018,1.222,0.533,1.578,1.078c-0.005,2.848,0.002,5.697,0,8.546c0.056,0.874-0.546,1.622-1.203,2.124
	c-0.635,0.504-1.497,0.521-2.267,0.479c-0.045-3.72-0.002-7.447-0.019-11.167C852,94.106,852.631,93.579,853.411,93.588z"/>
<path id="path18" fill="#CCCDCF" d="M939.282,82.669c1.13-0.991,2.193-2.055,3.349-3.018c0.977,1.031,2.006,2.011,2.999,3.026
	c-1.191,1.115-2.391,2.22-3.597,3.317C941.12,84.881,940.183,83.792,939.282,82.669L939.282,82.669z"/>
<path id="path22" fill="#CCCDCF" d="M808.83,83.729c0.707-0.485,1.6-0.455,2.416-0.56c-0.616,0.487-1.299,1.052-1.383,1.891
	c-0.139,0.751,0.336,1.425,0.889,1.876c1.008,0.805,2.299,1.256,3.119,2.287c0.395,0.5,0.633,1.131,0.615,1.771
	c-0.005,3.384,0.004,6.766-0.005,10.147c0.899,0.728,1.804,1.446,2.702,2.173c0.262-0.168,0.523-0.338,0.786-0.507
	c-0.013-3.692,0.019-7.387-0.015-11.077c-0.463-0.547-1.104-0.938-1.632-1.424c1.298-1.195,2.569-2.422,3.894-3.586
	c1.151,1.13,2.361,2.199,3.543,3.298c-0.449,0.476-0.911,0.935-1.384,1.385c-0.009,3.246,0,6.493-0.005,9.738
	c1.179,0.914,2.357,1.829,3.549,2.729c0.168-0.098,0.337-0.193,0.51-0.289c-0.018-3.965,0.002-7.928-0.01-11.893
	c-0.547-0.465-1.111-0.91-1.65-1.385c1.273-1.203,2.562-2.387,3.842-3.581c1.275,0.998,2.553,1.995,3.82,3.002
	c0.439-0.485,0.889-0.966,1.393-1.39c0.064,0.092,0.196,0.279,0.261,0.371c-1.085,0.967-2.163,1.945-3.215,2.947
	c-0.09,3.161-0.001,6.332-0.044,9.494c-2.761,1.814-5.645,3.47-8.445,5.234c-1.477-1.059-2.912-2.174-4.371-3.258
	c-1.309,1.052-2.617,2.105-3.935,3.146c-0.188,0.209-0.382-0.096-0.537-0.184c-1.231-0.988-2.456-1.986-3.703-2.952
	c-0.522,0.456-1.072,0.884-1.598,1.341c-0.083-0.08-0.248-0.238-0.331-0.317c0.64-0.442,1.266-0.909,1.906-1.352
	c0.004-3.065,0.004-6.128,0-9.192c-0.002-0.82-0.29-1.65-0.85-2.257c-0.616-0.669-1.444-1.138-1.935-1.921
	c-0.542-0.91-0.591-2.039-0.384-3.056C806.948,85.233,807.86,84.357,808.83,83.729L808.83,83.729z"/>
<path id="path24" fill="#CCCDCF" d="M1002.954,85.918c0.125,0.32,0.166,0.68,0.009,0.998c-0.386,0.881-1.437,1.22-2.329,1.204
	c-0.935-0.083-1.664-0.756-2.293-1.392c-1.058,0.709-2.12,1.412-3.175,2.119c-1.218,0.82-2.562,1.426-3.912,1.989
	c-0.005,1.733,0.002,3.464-0.004,5.198c0.985,0.821,1.999,1.605,2.965,2.45c-0.741,0.785-1.472,1.581-2.171,2.402
	c-0.719,0.865-1.397,1.864-1.439,3.026c-0.042,1.32,0.523,2.75,1.692,3.449c0.517,0.304,1.144,0.574,1.744,0.34
	c-0.747-0.266-1.665-0.807-1.602-1.718c0.208-0.861,1.231-1.438,2.081-1.19c0.881,0.252,1.608,0.881,2.172,1.588
	c2.264-1.631,4.647-3.088,7.125-4.375c-0.02-2.198,0.03-4.403-0.022-6.602c-1.093-0.767-2.136-1.604-3.218-2.385
	c1.145-1.449,2.296-2.982,2.773-4.797C1003.528,87.459,1003.589,86.495,1002.954,85.918L1002.954,85.918z M995.663,89.215
	c0.734,1.055,1.707,2.082,3.039,2.298c1.327,0.312,2.613-0.407,3.484-1.364c-1.191,2.203-3.04,3.971-4.949,5.555
	c-0.517-0.548-1.072-1.059-1.583-1.609C995.675,92.469,995.657,90.84,995.663,89.215L995.663,89.215z M997.533,95.791
	c0.572,0.481,1.138,0.972,1.71,1.456c0.262,0.158,0.133,0.485,0.17,0.733c-0.016,1.889,0.023,3.784-0.022,5.673
	c-0.427-0.966-1.067-1.865-1.971-2.438c-1.31-0.855-3.11-0.906-4.443-0.074c-0.61,0.338-1.099,0.844-1.562,1.356
	c0.662-1.291,1.73-2.31,2.734-3.331C995.297,98.06,996.445,96.956,997.533,95.791z"/>
<path id="path26" fill="#CCCDCF" d="M762,86.725c-1.508,0.872-2.964,1.824-4.439,2.742c-1.25,0.653-2.521,1.27-3.78,1.902
	c0.005,3.532-0.005,7.063,0.009,10.596c-0.537,0.417-1.164,0.717-1.652,1.195c0.094,0.055,0.28,0.169,0.375,0.227
	c0.422-0.364,0.84-0.736,1.303-1.047c1.562,1.298,3.035,2.703,4.592,4.008c0.077-0.04,0.231-0.121,0.311-0.162
	c2.637-2.044,5.301-4.058,7.94-6.1l-0.327-0.289c-1.469,1.145-2.897,2.35-4.352,3.512c-1.202-1.082-2.365-2.207-3.562-3.293
	c-0.408-0.298-0.18-0.864-0.21-1.286c2.462-1.802,4.923-3.604,7.348-5.455C764.344,91.105,763.172,88.917,762,86.725z
	 M758.197,89.329c1.246,2.045,2.497,4.085,3.729,6.14c-1.252,0.881-2.494,1.772-3.732,2.669
	C758.181,95.202,758.175,92.264,758.197,89.329L758.197,89.329z"/>
<path id="path28" fill="#CCCDCF" d="M802.789,86.721c-1.062,0.699-2.132,1.39-3.218,2.049c-1.589,0.994-3.312,1.743-4.976,2.6
	c0.005,3.53-0.01,7.062,0.004,10.592c-0.513,0.382-1.079,0.685-1.578,1.086c0.053,0.092,0.161,0.277,0.213,0.37
	c0.553-0.372,1.1-0.753,1.666-1.103c1.429,1.365,2.879,2.71,4.317,4.063c2.69-1.999,5.333-4.069,7.997-6.104
	c0.342-0.07,0.061-0.625-0.156-0.41c-1.445,1.12-2.846,2.297-4.27,3.445c-1.116-1.107-2.225-2.221-3.336-3.332
	c-0.359-0.315-0.146-0.843-0.166-1.256c2.369-1.758,4.664-3.616,7.038-5.367C805.232,91.103,803.953,88.938,802.789,86.721z
	 M799.257,89.398c1.222,1.989,2.341,4.044,3.467,6.087c-1.163,0.854-2.288,1.76-3.44,2.626
	C799.229,95.208,799.283,92.302,799.257,89.398z"/>
<path id="path30" fill="#CCCDCF" d="M871.591,86.729c-1.165,0.679-2.315,1.379-3.445,2.111c-1.327,0.809-2.777,1.384-4.19,2.019
	c0.033,3.705,0.01,7.411,0.014,11.115c-0.474,0.472-0.95,0.94-1.409,1.422c0.096-0.006,0.288-0.02,0.384-0.026
	c0.335-0.357,0.684-0.707,1.029-1.055c1.586,1.297,3.147,2.623,4.723,3.933c0.26,0.251,0.554-0.122,0.807-0.214
	c2.532-1.385,4.926-3.017,7.535-4.26c0.04-3.452,0.012-6.902,0.018-10.356c0.471-0.472,0.948-0.94,1.408-1.422
	c-0.093,0.002-0.276,0.01-0.371,0.013c-0.439,0.361-0.884,0.713-1.325,1.068C875.04,89.629,873.321,88.17,871.591,86.729
	L871.591,86.729z M868.639,89.29c1.245,1.17,2.514,2.323,3.759,3.497c-0.013,3.675-0.009,7.349-0.009,11.023
	c-1.276-1.12-2.489-2.308-3.75-3.445V89.29L868.639,89.29z"/>
<path id="path32" fill="#CCCDCF" d="M899.028,94.962c1.797-2.758,3.632-5.491,5.474-8.221c0.792,0.675,1.786,1.099,2.824,1.204
	c1.018,0.001,1.887-0.604,2.654-1.209c-0.193,1.488-0.688,3.033-1.832,4.067c-0.996,0.913-2.506,1.134-3.76,0.687
	c-0.74-0.25-1.423-0.645-2.036-1.128c-0.107,0.255-0.196,0.519-0.262,0.786c2.551,3.842,5.056,7.717,7.561,11.589
	c0.575-0.373,1.079-0.844,1.587-1.302c0.099,0.062,0.297,0.188,0.396,0.25c-1.802,1.607-3.661,3.148-5.508,4.705
	C903.751,102.586,901.431,98.749,899.028,94.962L899.028,94.962z"/>
<path id="path34" fill="#CCCDCF" d="M985.298,86.725c-1.109,0.676-2.224,1.35-3.318,2.045c-1.516,1.054-3.254,1.709-4.862,2.6
	c0.018,3.53,0,7.062,0.009,10.592c-0.555,0.365-1.103,0.739-1.657,1.099c0.071,0.087,0.217,0.267,0.288,0.354
	c0.478-0.354,0.909-0.774,1.426-1.081c1.438,1.337,2.944,2.603,4.404,3.92c0.14,0.223,0.343-0.006,0.484-0.097
	c2.63-2.026,5.268-4.042,7.901-6.062c-0.31-0.541-0.66-0.016-0.969,0.205c-1.236,1.007-2.471,2.013-3.711,3.014
	c-1.268-1.156-2.492-2.355-3.784-3.484c-0.02-0.363-0.022-0.727-0.005-1.09c2.468-1.788,4.907-3.617,7.356-5.434
	C987.681,91.106,986.498,88.911,985.298,86.725L985.298,86.725z M981.491,89.389c1.334,1.973,2.507,4.057,3.759,6.088
	c-1.27,0.871-2.505,1.791-3.768,2.668C981.503,95.227,981.483,92.307,981.491,89.389L981.491,89.389z"/>
<path id="path36" fill="#CCCDCF" d="M883.508,87.016c0.998,0.908,1.837,1.979,2.763,2.961c1.009-0.967,1.994-1.961,2.968-2.963
	c0.708,0.453,1.445,1.09,2.354,0.906c0.64-0.043,0.973-0.671,1.518-0.928c0.002,1.334-0.305,2.736-1.188,3.773
	c-1.012,1.211-2.926,1.564-4.279,0.734c-0.52-0.254-0.865-0.738-1.35-1.037c0.013,3.649,0.007,7.297,0.003,10.945
	c0.719,0.553,1.439,1.104,2.179,1.631c0.537-0.352,0.95-1.001,1.629-1.062c-1.594,1.517-3.265,2.962-4.927,4.407
	c-1.249-1.178-2.526-2.324-3.762-3.517c-0.48,0.433-0.926,0.903-1.384,1.359c-0.074-0.086-0.221-0.255-0.294-0.341
	c0.605-0.674,1.281-1.28,1.9-1.941c-0.023-3.121,0.012-6.244-0.017-9.364c-0.331-0.789-0.906-1.472-1.323-2.226
	c-0.57,0.336-0.985,1.037-1.695,1.062C880.217,89.926,881.903,88.516,883.508,87.016L883.508,87.016z"/>
<path id="path38" fill="#CCCDCF" d="M948.232,90.919c1.483-1.3,2.937-2.632,4.43-3.921c1.071,1.18,2.179,2.328,3.23,3.526
	c1.577-1.139,3.091-2.363,4.651-3.526c1.094,1.172,2.166,2.363,3.271,3.526c1.547-1.172,3.075-2.368,4.633-3.524
	c1.064,1.186,2.161,2.342,3.237,3.518c0.66-0.42,1.265-0.925,1.937-1.327c0.051,0.391-0.305,0.568-0.553,0.784
	c-0.359,0.29-0.708,0.594-1.068,0.881c-0.029,3.248,0.008,6.496-0.019,9.744c0.619,0.642,1.251,1.273,1.895,1.891
	c0.34-0.354,0.688-0.701,1.02-1.064c0.1,0.062,0.301,0.188,0.4,0.25c-1.628,1.603-3.306,3.156-4.977,4.715
	c-1.178-1.391-2.413-2.735-3.562-4.15c0.278-0.256,0.551-0.522,0.819-0.791c0.004-2.802,0-5.604,0-8.402
	c-0.89-0.993-1.775-1.988-2.693-2.955c-0.265,0.271-0.53,0.539-0.792,0.812c-0.003,3.503,0.015,7.005-0.009,10.507
	c0.441,0.496,0.939,0.938,1.388,1.432c-1.206,1.07-2.368,2.189-3.565,3.27c-1.12-1.178-2.223-2.373-3.306-3.581
	c0.309-0.38,0.928-0.655,0.83-1.235c-0.014-2.731,0.014-5.465-0.014-8.194c-0.747-1.039-1.584-2.046-2.449-2.995
	c-0.253,0.269-0.509,0.532-0.768,0.796c0.008,3.393-0.019,6.786,0.012,10.179c0.367,0.625,0.913,1.136,1.368,1.699
	c-1.17,1.23-2.379,2.425-3.599,3.605c-1.165-1.389-2.372-2.74-3.546-4.119c0.366-0.285,0.736-0.566,1.104-0.85
	c-0.011-2.866-0.021-5.733,0.005-8.6c-0.688-0.852-1.441-1.646-2.163-2.468c-0.513,0.38-0.964,0.858-1.551,1.126
	C947.803,91.209,948.066,91.082,948.232,90.919z"/>
<path id="path40" fill="#CCCDCF" d="M937.907,91.144c1.535-1.405,3.124-2.757,4.675-4.147c1.104,1.256,2.177,2.539,3.275,3.801
	c0.57-0.447,1.082-0.977,1.713-1.346c-0.047,0.201-0.102,0.408-0.287,0.521c-0.473,0.393-0.942,0.787-1.419,1.169
	c0.008,3.254-0.014,6.505,0.011,9.757c0.621,0.702,1.263,1.389,1.842,2.129c0.483-0.295,0.887-0.697,1.347-1.025
	c0.098,0.052,0.295,0.154,0.393,0.205c-1.533,1.438-3.124,2.816-4.722,4.178c-1.062-1.277-2.152-2.533-3.239-3.79
	c-0.472,0.429-0.866,0.949-1.385,1.322c-0.073-0.068-0.22-0.208-0.293-0.277c0.461-0.437,0.895-0.9,1.362-1.333
	c0.036-2.955,0.002-5.912,0.018-8.867c-0.028-0.412,0.104-0.898-0.217-1.227c-0.568-0.707-1.092-1.449-1.696-2.125
	C938.834,90.454,938.406,90.849,937.907,91.144L937.907,91.144z"/>
</svg>
