<?xml version="1.0" encoding="utf-8"?>
<!-- Generator: Adobe Illustrator 14.0.0, SVG Export Plug-In . SVG Version: 6.00 Build 43363)  -->
<!DOCTYPE svg PUBLIC "-//W3C//DTD SVG 1.1//EN" "http://www.w3.org/Graphics/SVG/1.1/DTD/svg11.dtd">
<svg version="1.1" id="Layer_1" xmlns="http://www.w3.org/2000/svg" xmlns:xlink="http://www.w3.org/1999/xlink" x="0px" y="0px"
	 width="115.833px" height="60px" viewBox="151 121 115.833 60" enable-background="new 151 121 115.833 60" xml:space="preserve">
<g id="_x23_fdfefcff">
</g>
<g id="_x23_099c00ff">
	<path fill="#CCCDCF" d="M153.336,123.417c18.389-0.003,36.776-0.003,55.164,0c0.007,6.13,0.002,12.259,0.003,18.388
		c-6.129,0.001-12.259-0.004-18.386,0.001c-0.009,12.258,0.002,24.517-0.007,36.775c-6.153,0.004-12.309,0.006-18.464,0
		c-0.028-12.23-0.011-24.46-0.008-36.692c-6.101-0.009-12.202-0.072-18.303-0.088C153.333,135.674,153.331,129.545,153.336,123.417z
		"/>
	<path fill="#CCCDCF" d="M226.896,123.417c12.256-0.003,24.515-0.003,36.773,0c0.006,6.127,0.003,12.257,0,18.384
		c-12.259,0.007-24.519,0.001-36.777,0.004C226.895,135.676,226.889,129.547,226.896,123.417z"/>
	<path fill="#CCCDCF" d="M208.503,141.806c6.13,0,12.261,0,18.39,0c0.002,6.129-0.004,12.259,0.002,18.388
		c12.258,0.007,24.517-0.005,36.775,0.005c0.003,6.128,0.006,12.255,0,18.384c-18.388,0.004-36.775,0.004-55.163,0
		C208.5,166.324,208.506,154.064,208.503,141.806z"/>
</g>
</svg>
