<?xml version="1.0" encoding="utf-8"?>
<!-- Generator: Adobe Illustrator 14.0.0, SVG Export Plug-In . SVG Version: 6.00 Build 43363)  -->
<!DOCTYPE svg PUBLIC "-//W3C//DTD SVG 1.1//EN" "http://www.w3.org/Graphics/SVG/1.1/DTD/svg11.dtd">
<svg version="1.1" id="Layer_1" xmlns="http://www.w3.org/2000/svg" xmlns:xlink="http://www.w3.org/1999/xlink" x="0px" y="0px"
	 width="25px" height="25px" viewBox="0 0 25 25" enable-background="new 0 0 25 25" xml:space="preserve">
<path fill="#FFFFFF" d="M10.552,16.498c0.425,0.52,0.861,1.057,0.861,1.779c0,1.257-1.018,2.273-2.273,2.273
	c-1.255,0-2.273-1.017-2.273-2.273c0-0.723,0.447-1.253,0.861-1.779c1.453-1.855-0.148-3.631-0.148-3.631
	c-0.296-0.292-0.52-0.663-0.646-1.075C6.188,9.355,3.584,9.941,3.584,9.941c-0.181,0.046-0.37,0.071-0.566,0.071
	c-1.255,0-2.274-1.018-2.274-2.273s1.019-2.274,2.274-2.274c1.052,0,1.937,0.716,2.197,1.686c0,0,0.553,2.35,3.248,1.921
	C8.685,9.037,8.904,8.97,9.14,8.97c1.256,0,2.273,1.018,2.273,2.273c0,0.627-0.254,1.196-0.666,1.608
	C10.747,12.852,9.071,14.684,10.552,16.498z"/>
<circle fill="#FFFFFF" cx="15.262" cy="14.775" r="2.272"/>
<circle fill="#FFFFFF" cx="3.018" cy="14.775" r="2.273"/>
<path fill="#FFFFFF" d="M14.585,5.568c0.221-0.035,0.441-0.104,0.677-0.104c1.255,0,2.272,1.018,2.272,2.274
	s-1.018,2.273-2.272,2.273c-1.067,0-1.907-0.749-2.207-1.724c-0.744-2.437-3.349-1.851-3.349-1.851
	c-0.182,0.045-0.372,0.07-0.566,0.07c-1.255,0-2.273-1.017-2.273-2.273c0-1.255,1.018-2.273,2.273-2.273
	c1.053,0,1.938,0.714,2.197,1.686C11.337,3.647,11.891,5.997,14.585,5.568z"/>
</svg>
