<?xml version="1.0" encoding="utf-8"?>
<!-- Generator: Adobe Illustrator 14.0.0, SVG Export Plug-In . SVG Version: 6.00 Build 43363)  -->
<!DOCTYPE svg PUBLIC "-//W3C//DTD SVG 1.1//EN" "http://www.w3.org/Graphics/SVG/1.1/DTD/svg11.dtd">
<svg version="1.1" id="Layer_2" xmlns="http://www.w3.org/2000/svg" xmlns:xlink="http://www.w3.org/1999/xlink" x="0px" y="0px"
	 width="40px" height="40px" viewBox="2.5 2.5 40 40" enable-background="new 2.5 2.5 40 40" xml:space="preserve">
<path fill="#3A3A3A" d="M15.037,14.519h21.978c1.831,0,3.317,1.485,3.317,3.317v14.652c0,1.832-1.486,3.317-3.317,3.317H7.987
	c-1.833,0-3.317-1.485-3.317-3.317V17.836c0-1.832,1.485-3.317,3.317-3.317h1.382v-4.286h5.668V14.519z M22.5,16.522
	c-4.809,0-8.708,3.899-8.708,8.708c0,4.81,3.899,8.709,8.708,8.709c4.812,0,8.709-3.899,8.709-8.709
	C31.209,20.42,27.312,16.522,22.5,16.522z M22.5,20.462c-2.634,0-4.769,2.135-4.769,4.769c0,2.635,2.135,4.77,4.769,4.77
	c2.635,0,4.77-2.135,4.77-4.77C27.27,22.597,25.135,20.462,22.5,20.462z"/>
</svg>
