<svg xmlns="http://www.w3.org/2000/svg" viewBox="0 0 86.7 147.17">
  <defs>
    <style>
      .cls-1 {
        fill: #fff;
      }

      .cls-2 {
        fill: #ba7ab5;
      }

      .cls-3 {
        fill: #464148;
      }

      .cls-4 {
        fill: #d1d1d1;
      }
    </style>
  </defs>
  <title>illo-</title>
  <g id="Layer_5" data-name="Layer 5">
    <path class="cls-1" d="M35.9,68.95c-11.19,3-19.36,12.59-19.36,24.83,0,14.84,12,23.66,26.88,23.66S70.3,108.62,70.3,93.77c0-12.28-8.23-21.89-19.47-24.86V5.53h4.73A2.42,2.42,0,0,0,58,3.11h0A2.42,2.42,0,0,0,55.56.69H31.14a2.42,2.42,0,0,0-2.42,2.42h0a2.42,2.42,0,0,0,2.42,2.42H36V68.95"/>
    <path class="cls-2" d="M21.31,87.18a22.17,22.17,0,0,0-.87,6.21c0,12.65,10.26,20.17,22.91,20.17S66.26,106,66.26,93.39a22.17,22.17,0,0,0-.87-6.21Z"/>
    <path class="cls-3" d="M15.65,101.83a1.75,1.75,0,1,0,0,3.51h4.89L.21,143.48a1.75,1.75,0,1,0,3.09,1.65l21.22-39.79H41.6v40.08a1.75,1.75,0,0,0,3.51,0V105.34H62.19L83.4,145.13a1.75,1.75,0,1,0,3.09-1.65L66.16,105.34h4.89a1.75,1.75,0,1,0,0-3.51Z"/>
    <path class="cls-1" d="M71.28,59a3.44,3.44,0,1,1-6.88,0V32.71h-.27a1.23,1.23,0,0,1-1.23-1.23h0a1.23,1.23,0,0,1,1.23-1.23h7.42a1.23,1.23,0,0,1,1.23,1.23h0a1.23,1.23,0,0,1-1.23,1.23h-.27Z"/>
    <rect class="cls-3" x="71.26" y="40.07" width="1.88" height="5.1" transform="translate(144.39 85.24) rotate(-180)"/>
    <rect class="cls-3" x="62.54" y="40.07" width="1.88" height="5.1" rx="0.07" ry="0.07" transform="translate(126.96 85.24) rotate(-180)"/>
    <rect class="cls-3" x="50.83" y="38.55" width="3.24" height="8.14" rx="0.07" ry="0.07" transform="translate(104.91 85.24) rotate(-180)"/>
    <rect class="cls-3" x="32.77" y="38.55" width="3.24" height="8.14" rx="0.07" ry="0.07" transform="translate(68.77 85.24) rotate(-180)"/>
    <rect class="cls-4" x="54.07" y="41.43" width="8.47" height="2.37" transform="translate(116.61 85.24) rotate(-180)"/>
  </g>
</svg>
