<svg xmlns="http://www.w3.org/2000/svg" viewBox="0 0 67.36 283.3">
  <defs>
    <style>
      .cls-1 {
        fill: #d1d1d1;
      }

      .cls-2 {
        fill: #fff;
      }

      .cls-3 {
        fill: #ba7ab5;
      }

      .cls-4 {
        fill: #464148;
      }
    </style>
  </defs>
  <title>illo-</title>
  <g id="Layer_5" data-name="Layer 5">
    <g>
      <path class="cls-1" d="M44.53,183.37a2,2,0,0,1-.58-.09l-21.27-6.43A2,2,0,1,1,23.83,173l21.27,6.43a2,2,0,0,1-.58,3.92Z"/>
      <path class="cls-1" d="M44.53,191.89a2,2,0,0,1-.58-.09l-21.27-6.43a2,2,0,0,1,1.16-3.83L45.1,188a2,2,0,0,1-.58,3.92Z"/>
      <path class="cls-1" d="M44.53,174.86a2,2,0,0,1-.58-.09l-10.64-3.21a2,2,0,0,1-1.42-1.91v-4.85a2,2,0,0,1,4,0v3.36l9.21,2.78a2,2,0,0,1-.58,3.92Z"/>
      <path class="cls-1" d="M33.89,209.92a2,2,0,0,1-2-2V196.68l-9.21-2.78a2,2,0,1,1,1.16-3.83l10.64,3.21a2,2,0,0,1,1.42,1.91v12.73A2,2,0,0,1,33.89,209.92Z"/>
      <path class="cls-2" d="M23.25,176.95a2,2,0,0,1-.19-4l21.27-2.09a2,2,0,0,1,.39,4l-21.27,2.09Z"/>
      <path class="cls-2" d="M23.25,185.46a2,2,0,0,1-.19-4l21.27-2.09a2,2,0,0,1,.39,4l-21.27,2.09Z"/>
      <path class="cls-2" d="M23.25,194a2,2,0,0,1-.19-4l21.27-2.09a2,2,0,0,1,.39,4L23.45,194Z"/>
    </g>
    <path class="cls-2" d="M48.61,6.15C58.23,8.1,64.77,13,64.77,24.57c0,13.71-12.85,25.87-25.5,29.88l-1.68,2.81a1,1,0,0,1-.86.49H31a1,1,0,0,1-.86-.49l-1.68-2.81C15.87,50.44,3,38.29,3,24.57,3,13,9.58,8.07,19.25,6.14L18.67,2.3a2,2,0,0,1,2-2.3H47.16a2,2,0,0,1,2,2.27Z"/>
    <path class="cls-2" d="M22.42,161.43H12.71a1.77,1.77,0,0,1-1.77-1.77V105.44a1.77,1.77,0,0,0-.27-.94l-2.46-3.93a1.77,1.77,0,0,1,1.5-2.7H58.07a1.77,1.77,0,0,1,1.5,2.7l-2.46,3.93a1.77,1.77,0,0,0-.27.94v54.22a1.77,1.77,0,0,1-1.77,1.77H45.37V163a2,2,0,0,1-2,2h-19a2,2,0,0,1-2-2v-1.53"/>
    <path class="cls-2" d="M44.16,210.33a2,2,0,0,0-1.84-2.4H24.91a2,2,0,0,0-1.84,2.4L25,218.62a2.15,2.15,0,0,1-1.21,2.51c-13.82,5-23.87,20.33-23.87,37.58,0,21.14,15.11,24.61,33.74,24.61s33.74-3.47,33.74-24.61c0-17.24-10-32.53-23.86-37.58a2.15,2.15,0,0,1-1.21-2.51Z"/>
    <path class="cls-3" d="M14.22,139.71H53.56a0,0,0,0,1,0,0V157.1a1,1,0,0,1-1,1H15.22a1,1,0,0,1-1-1V139.71A0,0,0,0,1,14.22,139.71Z"/>
    <path class="cls-3" d="M60.76,25.88c0,11.94-12.19,21.51-23.19,25l-1.46,2.44a.87.87,0,0,1-.75.42H32.42a.87.87,0,0,1-.75-.42l-1.46-2.44C19.21,47.39,7,37.81,7,25.88Z"/>
    <path class="cls-4" d="M56.21,46.35H11.57a1.63,1.63,0,1,1,0-3.27H56.21a1.63,1.63,0,0,1,0,3.27Z"/>
    <path class="cls-4" d="M59.71,106.67H8.07a1.5,1.5,0,1,1,0-3H59.71a1.5,1.5,0,1,1,0,3Z"/>
    <path class="cls-4" d="M40.82,203.5H26.41a1.5,1.5,0,0,1,0-3H40.82a1.5,1.5,0,0,1,0,3Z"/>
    <g>
      <rect class="cls-4" x="28.43" y="60.98" width="2.02" height="0.78"/>
      <path class="cls-4" d="M26.27,61.37c0,.85.53,2.06,1.19,2.06s1.19-1.2,1.19-2.06-.53-2.06-1.19-2.06S26.27,60.51,26.27,61.37Z"/>
    </g>
    <path class="cls-4" d="M36.43,59.75a1,1,0,0,1,1,1V62.1a1,1,0,0,1,0,.26S35.82,64.18,35.63,69a.91.91,0,0,1-1,.74H33.12a.91.91,0,0,1-1-.74c-.19-4.81-1.77-6.63-1.77-6.63a1,1,0,0,1,0-.26V60.75a1,1,0,0,1,1-1Z"/>
  </g>
</svg>
