<?xml version="1.0" encoding="utf-8"?>
<!-- Generator: Adobe Illustrator 14.0.0, SVG Export Plug-In . SVG Version: 6.00 Build 43363)  -->
<!DOCTYPE svg PUBLIC "-//W3C//DTD SVG 1.1//EN" "http://www.w3.org/Graphics/SVG/1.1/DTD/svg11.dtd">
<svg version="1.1" id="Layer_1" xmlns="http://www.w3.org/2000/svg" xmlns:xlink="http://www.w3.org/1999/xlink" x="0px" y="0px"
	 width="216px" height="216px" viewBox="0 0 216 216" enable-background="new 0 0 216 216" xml:space="preserve">
<circle opacity="0.8" fill-rule="evenodd" clip-rule="evenodd" fill="none" stroke="#FFFFFF" stroke-width="4" cx="108" cy="108" r="64.078"/>
<path opacity="0.8" fill-rule="evenodd" clip-rule="evenodd" fill="#FFFFFF" d="M77.825,99.871h-6.75l-1.908,6.704h-2.531
	l7.217-24.316h1.401l7.217,24.316h-2.702L77.825,99.871z M71.757,97.648h5.454l-2.079-7.433l-0.631-3.612h-0.07l-0.664,3.681
	L71.757,97.648z M96.697,88.072c0,0.594-0.069,1.186-0.204,1.779c-0.138,0.594-0.354,1.15-0.65,1.676
	c-0.296,0.524-0.667,0.992-1.111,1.402c-0.445,0.411-0.987,0.719-1.625,0.923v0.137c0.547,0.115,1.071,0.303,1.573,0.564
	c0.501,0.262,0.946,0.627,1.333,1.095c0.388,0.467,0.695,1.037,0.923,1.709c0.228,0.673,0.342,1.476,0.342,2.411
	c0,1.231-0.195,2.297-0.582,3.198c-0.388,0.901-0.917,1.635-1.59,2.205c-0.672,0.571-1.447,0.993-2.325,1.266
	c-0.878,0.274-1.808,0.411-2.788,0.411c-0.319,0-0.691,0-1.111,0c-0.422,0-0.872-0.018-1.351-0.051
	c-0.479-0.034-0.952-0.082-1.419-0.138c-0.468-0.059-0.896-0.142-1.283-0.257V82.84c0.685-0.137,1.488-0.251,2.412-0.343
	c0.923-0.089,1.92-0.136,2.992-0.136c0.775,0,1.55,0.074,2.326,0.223c0.775,0.147,1.47,0.428,2.085,0.838
	c0.616,0.41,1.111,0.987,1.488,1.727C96.509,85.89,96.697,86.864,96.697,88.072z M88.797,93.271c0.319,0,0.684-0.011,1.094-0.034
	c0.411-0.021,0.753-0.057,1.026-0.103c0.844-0.342,1.568-0.895,2.172-1.659c0.603-0.763,0.906-1.703,0.906-2.821
	c0-0.752-0.102-1.385-0.308-1.897c-0.205-0.514-0.484-0.918-0.838-1.215c-0.354-0.296-0.769-0.506-1.248-0.633
	c-0.479-0.124-0.98-0.188-1.505-0.188c-0.594,0-1.129,0.017-1.608,0.051c-0.479,0.034-0.843,0.075-1.094,0.12v8.379H88.797z
	 M90.199,104.49c0.616,0,1.186-0.098,1.711-0.292c0.523-0.193,0.985-0.484,1.384-0.872s0.713-0.861,0.941-1.419
	s0.342-1.213,0.342-1.967c0-0.934-0.142-1.692-0.428-2.274c-0.285-0.582-0.655-1.032-1.111-1.351
	c-0.457-0.32-0.974-0.536-1.557-0.65c-0.581-0.113-1.179-0.171-1.794-0.171h-2.292v8.755c0.137,0.047,0.313,0.081,0.53,0.103
	c0.216,0.022,0.456,0.046,0.718,0.069c0.262,0.021,0.53,0.039,0.804,0.051C89.72,104.484,89.971,104.49,90.199,104.49z
	 M100.22,94.605c0-4.058,0.649-7.136,1.948-9.235c1.301-2.097,3.284-3.146,5.951-3.146c1.437,0,2.656,0.29,3.66,0.872
	c1.004,0.582,1.816,1.407,2.445,2.479c0.626,1.071,1.089,2.372,1.385,3.898c0.297,1.527,0.445,3.238,0.445,5.13
	c0,4.058-0.656,7.136-1.966,9.234c-1.313,2.098-3.302,3.146-5.969,3.146c-1.413,0-2.622-0.291-3.625-0.872
	c-1.004-0.581-1.824-1.407-2.463-2.479c-0.639-1.071-1.1-2.372-1.385-3.899S100.22,96.498,100.22,94.605z M102.922,94.605
	c0,1.345,0.096,2.622,0.29,3.83c0.194,1.209,0.497,2.27,0.907,3.18c0.41,0.913,0.946,1.642,1.606,2.189
	c0.662,0.547,1.458,0.821,2.395,0.821c1.71,0,3.009-0.821,3.9-2.463c0.889-1.641,1.332-4.16,1.332-7.557
	c0-1.323-0.097-2.588-0.289-3.796c-0.195-1.208-0.496-2.275-0.908-3.198c-0.41-0.923-0.946-1.659-1.606-2.206
	c-0.661-0.546-1.471-0.821-2.428-0.821c-1.688,0-2.975,0.821-3.864,2.462C103.366,88.688,102.922,91.208,102.922,94.605z
	 M130.69,82.635h2.464v16.04c0,2.896-0.565,4.988-1.693,6.276c-1.129,1.289-2.731,1.933-4.807,1.933
	c-2.415,0-4.176-0.627-5.283-1.882c-1.105-1.252-1.657-3.18-1.657-5.78V82.635h2.563v15.253c0,1.232,0.08,2.27,0.24,3.113
	c0.159,0.843,0.421,1.528,0.787,2.052c0.363,0.524,0.819,0.9,1.365,1.129c0.548,0.228,1.221,0.34,2.02,0.34
	c1.504,0,2.549-0.524,3.128-1.572c0.583-1.049,0.872-2.737,0.872-5.062L130.69,82.635L130.69,82.635z M150.15,84.995h-5.881v21.58
	h-2.566v-21.58h-5.881v-2.36h14.33v2.36H150.15z M106.804,125.234l0.307-3.625h-0.136l-1.094,3.385l-4.823,10.396h-0.855
	l-5.062-10.396l-1.06-3.385h-0.137l0.479,3.625v15.732h-2.462v-23.941h2.154l5.78,11.768l0.855,2.803h0.068l0.82-2.838l5.472-11.732
	h2.258v23.941h-2.565V125.234L106.804,125.234z M113.746,117.025h10.636v2.359h-8.071v8.105h7.422v2.359h-7.422v8.756h8.242v2.359
	h-10.807V117.025L113.746,117.025z"/>
</svg>
