<?xml version="1.0" encoding="utf-8"?>
<!-- Generator: Adobe Illustrator 14.0.0, SVG Export Plug-In . SVG Version: 6.00 Build 43363)  -->
<!DOCTYPE svg PUBLIC "-//W3C//DTD SVG 1.1//EN" "http://www.w3.org/Graphics/SVG/1.1/DTD/svg11.dtd">
<svg version="1.1" id="Layer_2" xmlns="http://www.w3.org/2000/svg" xmlns:xlink="http://www.w3.org/1999/xlink" x="0px" y="0px"
	 width="273.6px" height="144px" viewBox="-28.8 0 273.6 144" enable-background="new -28.8 0 273.6 144" xml:space="preserve">
<path fill="#FFFFFF" stroke="#000000" stroke-width="0.75" d="M149.315,128.592c0.221,0.546-0.045,1.168-0.592,1.39l-4.369,1.765
	c-0.547,0.221-1.17-0.043-1.391-0.592L96.241,15.41c-0.222-0.548,0.043-1.17,0.59-1.391l4.369-1.764
	c0.547-0.221,1.17,0.043,1.393,0.591L149.315,128.592z"/>
<rect x="88.489" y="45.299" width="19.545" height="86.524"/>
<rect x="67.774" y="45.299" width="19.545" height="86.524"/>
<rect x="170.107" y="45.299" width="19.546" height="86.524"/>
<rect x="149.394" y="45.299" width="19.545" height="86.524"/>
<rect x="47.061" y="45.299" width="19.545" height="86.524"/>
<rect x="26.347" y="45.299" width="19.545" height="86.524"/>
<path fill="none" stroke="#000000" stroke-width="0.25" d="M147.364,130.529l-2.812,1.137c-0.656,0.264-1.404-0.055-1.668-0.711
	L96.321,15.608c-0.265-0.657,0.051-1.405,0.709-1.67l2.812-1.135l17.106,42.379l-0.015,0.006c-0.657,0.265-0.974,1.013-0.709,1.669
	l12.349,30.588c0.268,0.66,1.014,0.979,1.672,0.712l0.013-0.006L147.364,130.529z"/>
<path fill="none" stroke="#000000" stroke-width="0.25" d="M147.364,130.531l1.162-0.469c0.655-0.268,0.975-1.014,0.707-1.67
	L102.671,13.044c-0.266-0.657-1.012-0.974-1.67-0.71l-1.16,0.468L147.364,130.531z"/>
<text transform="matrix(1 0 0 1 30.5576 111.2715)" fill="#FFFFFF" font-family="'ArialMT'" font-size="10">20</text>
<text transform="matrix(1 0 0 1 30.5576 125.7715)" fill="#FFFFFF" font-family="'ArialMT'" font-size="10">08</text>
<text transform="matrix(1 0 0 1 51.2715 111.2715)" fill="#FFFFFF" font-family="'ArialMT'" font-size="10">20</text>
<text transform="matrix(1 0 0 1 51.2715 125.7715)" fill="#FFFFFF" font-family="'ArialMT'" font-size="10">09</text>
<text transform="matrix(1 0 0 1 71.9863 111.2715)" fill="#FFFFFF" font-family="'ArialMT'" font-size="10">20</text>
<text transform="matrix(1 0 0 1 71.9863 125.7715)" fill="#FFFFFF" font-family="'ArialMT'" font-size="10">10</text>
<text transform="matrix(1 0 0 1 92.7002 111.2715)" fill="#FFFFFF" font-family="'ArialMT'" font-size="10">20</text>
<text transform="matrix(1 0 0 1 92.7002 125.7715)" fill="#FFFFFF" font-family="'ArialMT'" font-size="10">11</text>
<text transform="matrix(1 0 0 1 153.6045 111.2715)" fill="#FFFFFF" font-family="'ArialMT'" font-size="10">20</text>
<text transform="matrix(1 0 0 1 153.6045 125.7715)" fill="#FFFFFF" font-family="'ArialMT'" font-size="10">12</text>
<text transform="matrix(1 0 0 1 174.3184 111.2715)" fill="#FFFFFF" font-family="'ArialMT'" font-size="10">20</text>
<text transform="matrix(1 0 0 1 174.3184 125.7715)" fill="#FFFFFF" font-family="'ArialMT'" font-size="10">13</text>
<line fill="none" stroke="#FFFFFF" x1="71.987" y1="114.519" x2="83.11" y2="114.519"/>
<line fill="none" stroke="#FFFFFF" x1="30.558" y1="114.519" x2="41.681" y2="114.519"/>
<line fill="none" stroke="#FFFFFF" x1="153.604" y1="114.519" x2="164.728" y2="114.519"/>
<line fill="none" stroke="#FFFFFF" x1="174.319" y1="114.519" x2="185.441" y2="114.519"/>
<line fill="none" stroke="#FFFFFF" x1="92.7" y1="114.519" x2="103.823" y2="114.519"/>
<line fill="none" stroke="#FFFFFF" x1="51.271" y1="114.519" x2="62.395" y2="114.519"/>
</svg>
