<?xml version="1.0" encoding="utf-8"?>
<!-- Generator: Adobe Illustrator 14.0.0, SVG Export Plug-In . SVG Version: 6.00 Build 43363)  -->
<!DOCTYPE svg PUBLIC "-//W3C//DTD SVG 1.1//EN" "http://www.w3.org/Graphics/SVG/1.1/DTD/svg11.dtd">
<svg version="1.1" id="Layer_2" xmlns="http://www.w3.org/2000/svg" xmlns:xlink="http://www.w3.org/1999/xlink" x="0px" y="0px"
	 width="273.6px" height="144px" viewBox="0 0 273.6 144" enable-background="new 0 0 273.6 144" xml:space="preserve">
<path fill="#FFFFFF" stroke="#000000" stroke-width="0.75" d="M178.115,128.592c0.222,0.547-0.045,1.168-0.592,1.391l-4.369,1.765
	c-0.547,0.221-1.17-0.043-1.391-0.593L125.041,15.41c-0.223-0.548,0.043-1.17,0.59-1.391L130,12.255
	c0.547-0.221,1.17,0.043,1.393,0.591L178.115,128.592z"/>
<rect x="117.288" y="45.299" width="19.546" height="86.524"/>
<rect x="96.573" y="45.299" width="19.545" height="86.524"/>
<rect x="198.906" y="45.299" width="19.546" height="86.524"/>
<rect x="178.194" y="45.299" width="19.545" height="86.524"/>
<rect x="75.861" y="45.299" width="19.545" height="86.524"/>
<rect x="55.147" y="45.299" width="19.545" height="86.524"/>
<path fill="none" stroke="#000000" stroke-width="0.25" d="M176.163,130.529l-2.812,1.137c-0.656,0.264-1.404-0.055-1.668-0.711
	L125.12,15.608c-0.265-0.657,0.052-1.405,0.709-1.67l2.812-1.135l17.106,42.379l-0.016,0.006c-0.657,0.265-0.974,1.013-0.709,1.669
	l12.35,30.588c0.268,0.66,1.014,0.979,1.672,0.712l0.013-0.007L176.163,130.529z"/>
<path fill="none" stroke="#000000" stroke-width="0.25" d="M176.163,130.531l1.162-0.469c0.655-0.269,0.976-1.015,0.707-1.67
	L131.471,13.044c-0.267-0.657-1.012-0.974-1.67-0.71l-1.16,0.468L176.163,130.531z"/>
<text transform="matrix(1 0 0 1 59.3577 111.2715)" fill="#FFFFFF" font-family="'ArialMT'" font-size="10">20</text>
<text transform="matrix(1 0 0 1 59.3577 125.7715)" fill="#FFFFFF" font-family="'ArialMT'" font-size="10">08</text>
<text transform="matrix(1 0 0 1 80.0715 111.2715)" fill="#FFFFFF" font-family="'ArialMT'" font-size="10">20</text>
<text transform="matrix(1 0 0 1 80.0715 125.7715)" fill="#FFFFFF" font-family="'ArialMT'" font-size="10">09</text>
<text transform="matrix(1 0 0 1 100.7864 111.2715)" fill="#FFFFFF" font-family="'ArialMT'" font-size="10">20</text>
<text transform="matrix(1 0 0 1 100.7864 125.7715)" fill="#FFFFFF" font-family="'ArialMT'" font-size="10">10</text>
<text transform="matrix(1 0 0 1 121.5002 111.2715)" fill="#FFFFFF" font-family="'ArialMT'" font-size="10">20</text>
<text transform="matrix(1 0 0 1 121.5002 125.7715)" fill="#FFFFFF" font-family="'ArialMT'" font-size="10">11</text>
<text transform="matrix(1 0 0 1 182.4045 111.2715)" fill="#FFFFFF" font-family="'ArialMT'" font-size="10">20</text>
<text transform="matrix(1 0 0 1 182.4045 125.7715)" fill="#FFFFFF" font-family="'ArialMT'" font-size="10">12</text>
<text transform="matrix(1 0 0 1 203.1184 111.2715)" fill="#FFFFFF" font-family="'ArialMT'" font-size="10">20</text>
<text transform="matrix(1 0 0 1 203.1184 125.7715)" fill="#FFFFFF" font-family="'ArialMT'" font-size="10">13</text>
<line fill="none" stroke="#FFFFFF" x1="100.786" y1="114.52" x2="111.909" y2="114.52"/>
<line fill="none" stroke="#FFFFFF" x1="59.358" y1="114.52" x2="70.481" y2="114.52"/>
<line fill="none" stroke="#FFFFFF" x1="182.404" y1="114.52" x2="193.528" y2="114.52"/>
<line fill="none" stroke="#FFFFFF" x1="203.118" y1="114.52" x2="214.24" y2="114.52"/>
<line fill="none" stroke="#FFFFFF" x1="121.5" y1="114.52" x2="132.623" y2="114.52"/>
<line fill="none" stroke="#FFFFFF" x1="80.071" y1="114.52" x2="91.195" y2="114.52"/>
</svg>
