<?xml version="1.0" encoding="utf-8"?>
<!-- Generator: Adobe Illustrator 14.0.0, SVG Export Plug-In . SVG Version: 6.00 Build 43363)  -->
<!DOCTYPE svg PUBLIC "-//W3C//DTD SVG 1.1//EN" "http://www.w3.org/Graphics/SVG/1.1/DTD/svg11.dtd">
<svg version="1.1" id="Layer_1" xmlns="http://www.w3.org/2000/svg" xmlns:xlink="http://www.w3.org/1999/xlink" x="0px" y="0px"
	 width="468px" height="468px" viewBox="0 0 468 468" enable-background="new 0 0 468 468" xml:space="preserve">
<path opacity="0.6" fill-rule="evenodd" clip-rule="evenodd" enable-background="new    " d="M234,142.434
	c50.57,0,91.566,40.996,91.566,91.566c0,50.57-40.996,91.566-91.566,91.566c-50.57,0-91.566-40.996-91.566-91.566
	C142.434,183.43,183.43,142.434,234,142.434z M209.261,248.895c-0.769,0.646-1.736,1.107-2.904,1.383
	c-1.169,0.279-2.398,0.416-3.689,0.416c-1.63,0-3.136-0.307-4.52-0.922c-1.383-0.612-2.575-1.59-3.573-2.928
	c-0.999-1.338-1.775-3.068-2.328-5.188c-0.554-2.119-0.831-4.673-0.831-7.654c0-3.073,0.315-5.672,0.946-7.793
	c0.629-2.121,1.468-3.843,2.513-5.164c1.045-1.321,2.252-2.275,3.62-2.859c1.367-0.584,2.773-0.876,4.22-0.876
	c1.476,0,2.697,0.107,3.665,0.322c0.969,0.216,1.806,0.478,2.513,0.784l-0.829,3.136c-0.615-0.338-1.338-0.6-2.168-0.784
	c-0.829-0.185-1.783-0.276-2.858-0.276c-1.077,0-2.091,0.238-3.044,0.715c-0.952,0.477-1.798,1.245-2.536,2.306
	c-0.737,1.061-1.322,2.451-1.752,4.173c-0.432,1.722-0.646,3.827-0.646,6.317c0,4.488,0.768,7.863,2.306,10.123
	c1.536,2.258,3.581,3.389,6.133,3.389c1.045,0,1.983-0.146,2.812-0.438c0.831-0.293,1.537-0.637,2.122-1.037L209.261,248.895z
	 M211.521,234c0-5.472,0.877-9.622,2.629-12.45c1.752-2.828,4.427-4.242,8.023-4.242c1.938,0,3.581,0.392,4.934,1.176
	c1.354,0.784,2.452,1.898,3.297,3.343c0.846,1.445,1.468,3.198,1.868,5.257c0.398,2.061,0.6,4.366,0.6,6.917
	c0,5.472-0.884,9.623-2.651,12.451c-1.767,2.828-4.449,4.241-8.047,4.241c-1.906,0-3.536-0.393-4.889-1.176
	c-1.353-0.785-2.459-1.896-3.319-3.344c-0.861-1.443-1.483-3.197-1.867-5.256C211.713,238.857,211.521,236.553,211.521,234z
	 M215.164,234c0,1.814,0.13,3.537,0.392,5.166c0.262,1.629,0.669,3.059,1.222,4.289c0.554,1.229,1.275,2.213,2.167,2.951
	c0.892,0.736,1.968,1.104,3.229,1.104c2.306,0,4.058-1.104,5.257-3.319c1.198-2.213,1.799-5.609,1.799-10.191
	c0-1.782-0.132-3.488-0.392-5.118c-0.262-1.63-0.669-3.066-1.223-4.312c-0.553-1.245-1.276-2.236-2.168-2.975
	c-0.892-0.737-1.982-1.106-3.273-1.106c-2.275,0-4.012,1.106-5.211,3.32C215.764,226.023,215.164,229.42,215.164,234z
	 M237.807,217.861c0.49-0.092,1.036-0.161,1.637-0.207c0.6-0.046,1.205-0.076,1.822-0.092c0.613-0.016,1.221-0.031,1.819-0.047
	c0.601-0.015,1.16-0.022,1.685-0.022c2.242,0,4.148,0.384,5.717,1.152c1.568,0.769,2.844,1.868,3.828,3.297
	c0.982,1.43,1.689,3.145,2.121,5.142c0.431,1.999,0.646,4.228,0.646,6.687c0,2.213-0.207,4.333-0.622,6.365
	c-0.415,2.027-1.115,3.812-2.1,5.349c-0.983,1.539-2.281,2.768-3.896,3.688c-1.614,0.922-3.637,1.386-6.063,1.386
	c-0.4,0-0.907-0.009-1.521-0.025c-0.615-0.016-1.253-0.045-1.913-0.092c-0.661-0.045-1.276-0.084-1.845-0.115
	c-0.57-0.031-1.008-0.076-1.314-0.137V217.861L237.807,217.861z M244.953,220.674c-0.309,0-0.639,0-0.991,0
	c-0.354,0-0.7,0.016-1.038,0.046c-0.339,0.031-0.652,0.062-0.945,0.093c-0.291,0.03-0.529,0.062-0.713,0.092v26.285
	c0.121,0.031,0.344,0.056,0.666,0.068c0.324,0.016,0.661,0.031,1.017,0.047c0.353,0.016,0.69,0.029,1.015,0.045
	c0.322,0.017,0.561,0.023,0.715,0.023c1.689,0,3.104-0.367,4.241-1.105c1.138-0.738,2.037-1.729,2.698-2.975
	c0.66-1.246,1.13-2.691,1.406-4.334c0.276-1.646,0.414-3.391,0.414-5.234c0-1.63-0.123-3.229-0.369-4.797
	c-0.245-1.568-0.685-2.959-1.312-4.173c-0.631-1.215-1.492-2.198-2.583-2.951C248.082,221.051,246.674,220.674,244.953,220.674z
	 M262.014,217.861h14.342v3.183h-10.883v10.928h10.006v3.182h-10.006v11.804h11.113v3.185h-14.572V217.861L262.014,217.861z"/>
<path opacity="0.6" fill="#FFFFFF" enable-background="new    " d="M209.261,248.895c-0.769,0.646-1.736,1.107-2.904,1.383
	c-1.169,0.279-2.398,0.416-3.689,0.416c-1.63,0-3.136-0.307-4.52-0.922c-1.383-0.612-2.575-1.59-3.573-2.928
	c-0.999-1.338-1.775-3.068-2.328-5.188c-0.554-2.119-0.831-4.673-0.831-7.654c0-3.073,0.315-5.672,0.946-7.793
	c0.629-2.121,1.468-3.843,2.513-5.164c1.045-1.321,2.252-2.275,3.62-2.859c1.367-0.584,2.773-0.876,4.22-0.876
	c1.476,0,2.697,0.107,3.665,0.322c0.969,0.216,1.806,0.478,2.513,0.784l-0.829,3.136c-0.615-0.338-1.338-0.6-2.168-0.784
	c-0.829-0.185-1.783-0.276-2.858-0.276c-1.077,0-2.091,0.238-3.044,0.715c-0.952,0.477-1.798,1.245-2.536,2.306
	c-0.737,1.061-1.322,2.451-1.752,4.173c-0.432,1.722-0.646,3.827-0.646,6.317c0,4.488,0.768,7.863,2.306,10.123
	c1.536,2.258,3.581,3.389,6.133,3.389c1.045,0,1.983-0.146,2.812-0.438c0.831-0.293,1.537-0.637,2.122-1.037L209.261,248.895z
	 M211.521,234c0-5.472,0.877-9.622,2.629-12.45c1.752-2.828,4.427-4.242,8.023-4.242c1.938,0,3.581,0.392,4.934,1.176
	c1.354,0.784,2.452,1.898,3.297,3.343c0.846,1.445,1.468,3.198,1.868,5.257c0.398,2.061,0.6,4.366,0.6,6.917
	c0,5.472-0.884,9.623-2.651,12.451c-1.767,2.828-4.449,4.241-8.047,4.241c-1.906,0-3.536-0.393-4.889-1.176
	c-1.353-0.785-2.459-1.896-3.319-3.344c-0.861-1.443-1.483-3.197-1.867-5.256C211.713,238.857,211.521,236.553,211.521,234z
	 M215.164,234c0,1.814,0.13,3.537,0.392,5.166c0.262,1.629,0.669,3.059,1.222,4.289c0.554,1.229,1.275,2.213,2.167,2.951
	c0.892,0.736,1.968,1.104,3.229,1.104c2.306,0,4.058-1.104,5.257-3.319c1.198-2.213,1.799-5.609,1.799-10.191
	c0-1.782-0.132-3.488-0.392-5.118c-0.262-1.63-0.669-3.066-1.223-4.312c-0.553-1.245-1.276-2.236-2.168-2.975
	c-0.892-0.737-1.982-1.106-3.273-1.106c-2.275,0-4.012,1.106-5.211,3.32C215.764,226.023,215.164,229.42,215.164,234z
	 M237.807,217.861c0.49-0.092,1.036-0.161,1.637-0.207c0.6-0.046,1.205-0.076,1.822-0.092c0.613-0.016,1.221-0.031,1.819-0.047
	c0.601-0.015,1.16-0.022,1.685-0.022c2.242,0,4.148,0.384,5.717,1.152c1.568,0.769,2.844,1.868,3.828,3.297
	c0.982,1.43,1.689,3.145,2.121,5.142c0.431,1.999,0.646,4.228,0.646,6.687c0,2.213-0.207,4.333-0.622,6.365
	c-0.415,2.027-1.115,3.812-2.1,5.349c-0.983,1.539-2.281,2.768-3.896,3.688c-1.614,0.922-3.637,1.386-6.063,1.386
	c-0.4,0-0.907-0.009-1.521-0.025c-0.615-0.016-1.253-0.045-1.913-0.092c-0.661-0.045-1.276-0.084-1.845-0.115
	c-0.57-0.031-1.008-0.076-1.314-0.137V217.861L237.807,217.861z M244.953,220.674c-0.309,0-0.639,0-0.991,0
	c-0.354,0-0.7,0.016-1.038,0.046c-0.339,0.031-0.652,0.062-0.945,0.093c-0.291,0.03-0.529,0.062-0.713,0.092v26.285
	c0.121,0.031,0.344,0.056,0.666,0.068c0.324,0.016,0.661,0.031,1.017,0.047c0.353,0.016,0.69,0.029,1.015,0.045
	c0.322,0.017,0.561,0.023,0.715,0.023c1.689,0,3.104-0.367,4.241-1.105c1.138-0.738,2.037-1.729,2.698-2.975
	c0.66-1.246,1.13-2.691,1.406-4.334c0.276-1.646,0.414-3.391,0.414-5.234c0-1.63-0.123-3.229-0.369-4.797
	c-0.245-1.568-0.685-2.959-1.312-4.173c-0.631-1.215-1.492-2.198-2.583-2.951C248.082,221.051,246.674,220.674,244.953,220.674z
	 M262.014,217.861h14.342v3.183h-10.883v10.928h10.006v3.182h-10.006v11.804h11.113v3.185h-14.572V217.861L262.014,217.861z"/>
<circle fill="none" stroke="#FFFFFF" stroke-width="2" cx="234" cy="234.001" r="100.532"/>
<circle fill="none" stroke="#FFFFFF" stroke-width="0.5" cx="234" cy="234.001" r="96.132"/>
</svg>
