<?xml version="1.0" encoding="utf-8"?>
<!-- Generator: Adobe Illustrator 14.0.0, SVG Export Plug-In . SVG Version: 6.00 Build 43363)  -->
<!DOCTYPE svg PUBLIC "-//W3C//DTD SVG 1.1//EN" "http://www.w3.org/Graphics/SVG/1.1/DTD/svg11.dtd">
<svg version="1.1" id="Layer_1" xmlns="http://www.w3.org/2000/svg" xmlns:xlink="http://www.w3.org/1999/xlink" x="0px" y="0px"
	 width="468px" height="468px" viewBox="0 0 468 468" enable-background="new 0 0 468 468" xml:space="preserve">
<path opacity="0.6" fill-rule="evenodd" clip-rule="evenodd" enable-background="new    " d="M234,142.434
	c50.57,0,91.566,40.996,91.566,91.566c0,50.57-40.996,91.566-91.566,91.566c-50.57,0-91.566-40.996-91.566-91.566
	C142.434,183.43,183.43,142.434,234,142.434z M175.96,217.806c0.491-0.092,1.038-0.162,1.637-0.208
	c0.6-0.046,1.206-0.077,1.822-0.092c0.615-0.015,1.222-0.03,1.822-0.046c0.6-0.015,1.16-0.023,1.683-0.023
	c2.244,0,4.151,0.385,5.719,1.153c1.568,0.769,2.844,1.868,3.828,3.298c0.983,1.43,1.69,3.144,2.121,5.142
	c0.43,1.999,0.646,4.228,0.646,6.688c0,2.214-0.208,4.335-0.623,6.364c-0.415,2.029-1.115,3.812-2.099,5.35
	c-0.984,1.539-2.283,2.769-3.897,3.689c-1.614,0.923-3.636,1.384-6.064,1.384c-0.4,0-0.908-0.008-1.522-0.022
	c-0.616-0.017-1.253-0.047-1.914-0.092c-0.662-0.047-1.276-0.086-1.845-0.115c-0.569-0.031-1.007-0.077-1.314-0.139V217.806z
	 M183.109,220.619c-0.308,0-0.639,0-0.992,0c-0.354,0-0.7,0.016-1.038,0.046c-0.339,0.031-0.654,0.062-0.945,0.092
	c-0.292,0.031-0.53,0.062-0.715,0.092v26.288c0.123,0.03,0.346,0.055,0.668,0.068c0.323,0.018,0.661,0.031,1.015,0.047
	c0.353,0.016,0.692,0.03,1.015,0.046c0.323,0.017,0.561,0.022,0.715,0.022c1.69,0,3.105-0.368,4.243-1.106
	c1.137-0.737,2.036-1.729,2.698-2.976c0.661-1.244,1.13-2.689,1.407-4.334c0.277-1.646,0.415-3.391,0.415-5.235
	c0-1.629-0.123-3.228-0.369-4.796s-0.685-2.958-1.314-4.174c-0.631-1.214-1.492-2.198-2.583-2.952
	C186.237,220.996,184.831,220.619,183.109,220.619z M200.173,217.806h14.343v3.182h-10.884v10.93h10.008v3.184h-10.008v11.806
	h11.115v3.183h-14.574V217.806z M219.727,245.8c0.583,0.4,1.406,0.776,2.467,1.13c1.061,0.354,2.267,0.53,3.62,0.53
	c1.722,0,3.121-0.422,4.197-1.269c1.076-0.846,1.614-2.176,1.614-3.989c0-1.198-0.308-2.243-0.922-3.136
	c-0.615-0.893-1.383-1.715-2.306-2.469c-0.922-0.752-1.914-1.49-2.975-2.213c-1.061-0.722-2.052-1.522-2.975-2.398
	c-0.922-0.876-1.691-1.883-2.306-3.021c-0.616-1.137-0.922-2.505-0.922-4.104c0-2.583,0.776-4.497,2.329-5.742
	c1.552-1.246,3.574-1.868,6.065-1.868c1.537,0,2.905,0.139,4.104,0.415c1.199,0.277,2.167,0.631,2.906,1.061l-1.107,3.044
	c-0.554-0.338-1.346-0.646-2.375-0.922c-1.03-0.277-2.221-0.415-3.574-0.415c-1.66,0-2.89,0.408-3.689,1.222
	c-0.8,0.815-1.199,1.837-1.199,3.067c0,1.076,0.307,2.029,0.922,2.859c0.614,0.83,1.383,1.614,2.306,2.352
	c0.922,0.738,1.914,1.483,2.975,2.237c1.061,0.753,2.052,1.591,2.975,2.514c0.922,0.922,1.691,1.969,2.306,3.137
	c0.614,1.169,0.922,2.553,0.922,4.15c0,2.705-0.8,4.826-2.398,6.363c-1.599,1.538-3.859,2.307-6.78,2.307
	c-1.845,0-3.359-0.17-4.542-0.508c-1.184-0.338-2.129-0.722-2.836-1.152L219.727,245.8z M240.389,217.806h3.459v32.283h-3.459
	V217.806z M259.342,233.993h8.9v14.205c-0.86,0.8-1.967,1.405-3.32,1.821c-1.354,0.414-2.721,0.623-4.104,0.623
	c-1.723,0-3.283-0.324-4.683-0.97s-2.591-1.651-3.573-3.021c-0.984-1.368-1.746-3.098-2.283-5.188
	c-0.538-2.091-0.807-4.597-0.807-7.518c0-3.013,0.321-5.573,0.969-7.679c0.645-2.106,1.514-3.828,2.604-5.166
	c1.091-1.337,2.336-2.313,3.735-2.929c1.398-0.614,2.837-0.922,4.312-0.922c1.478,0,2.714,0.101,3.714,0.3
	c0.998,0.201,1.852,0.469,2.561,0.807l-0.83,3.136c-0.616-0.338-1.346-0.6-2.191-0.784c-0.845-0.184-1.822-0.276-2.929-0.276
	c-1.076,0-2.106,0.23-3.09,0.691c-0.984,0.461-1.868,1.222-2.651,2.283c-0.785,1.061-1.406,2.452-1.867,4.174
	c-0.463,1.722-0.692,3.844-0.692,6.364c0,4.612,0.729,8.018,2.19,10.215c1.461,2.199,3.467,3.298,6.02,3.298
	c1.599,0,2.921-0.38,3.966-1.144v-9.325l-5.949-0.904L259.342,233.993L259.342,233.993z M278.064,229.612l-1.982-5.073h-0.139
	l0.508,5.073v20.477h-3.32v-32.791h2.075l11.944,20.938l1.892,4.843h0.185l-0.508-4.843v-20.431h3.32v32.791h-2.121L278.064,229.612
	z"/>
<path opacity="0.6" fill="#FFFFFF" enable-background="new    " d="M175.96,217.806c0.491-0.092,1.038-0.162,1.637-0.208
	c0.6-0.046,1.206-0.077,1.822-0.092c0.615-0.015,1.222-0.03,1.822-0.046c0.6-0.015,1.16-0.023,1.683-0.023
	c2.244,0,4.151,0.385,5.719,1.153c1.568,0.769,2.844,1.868,3.828,3.298c0.983,1.43,1.69,3.144,2.121,5.142
	c0.43,1.999,0.646,4.228,0.646,6.688c0,2.214-0.208,4.335-0.623,6.364c-0.415,2.029-1.115,3.812-2.099,5.35
	c-0.984,1.539-2.283,2.769-3.897,3.689c-1.614,0.923-3.636,1.384-6.064,1.384c-0.4,0-0.908-0.008-1.522-0.022
	c-0.616-0.017-1.253-0.047-1.914-0.092c-0.662-0.047-1.276-0.086-1.845-0.115c-0.569-0.031-1.007-0.077-1.314-0.139V217.806z
	 M183.109,220.619c-0.308,0-0.639,0-0.992,0c-0.354,0-0.7,0.016-1.038,0.046c-0.339,0.031-0.654,0.062-0.945,0.092
	c-0.292,0.031-0.53,0.062-0.715,0.092v26.288c0.123,0.03,0.346,0.055,0.668,0.068c0.323,0.018,0.661,0.031,1.015,0.047
	c0.353,0.016,0.692,0.03,1.015,0.046c0.323,0.017,0.561,0.022,0.715,0.022c1.69,0,3.105-0.368,4.243-1.106
	c1.137-0.737,2.036-1.729,2.698-2.976c0.661-1.244,1.13-2.689,1.407-4.334c0.277-1.646,0.415-3.391,0.415-5.235
	c0-1.629-0.123-3.228-0.369-4.796s-0.685-2.958-1.314-4.174c-0.631-1.214-1.492-2.198-2.583-2.952
	C186.237,220.996,184.831,220.619,183.109,220.619z M200.173,217.806h14.343v3.182h-10.884v10.93h10.008v3.184h-10.008v11.806
	h11.115v3.183h-14.574V217.806z M219.727,245.8c0.583,0.4,1.406,0.776,2.467,1.13c1.061,0.354,2.267,0.53,3.62,0.53
	c1.722,0,3.121-0.422,4.197-1.269c1.076-0.846,1.614-2.176,1.614-3.989c0-1.198-0.308-2.243-0.922-3.136
	c-0.615-0.893-1.383-1.715-2.306-2.469c-0.922-0.752-1.914-1.49-2.975-2.213c-1.061-0.722-2.052-1.522-2.975-2.398
	c-0.922-0.876-1.691-1.883-2.306-3.021c-0.616-1.137-0.922-2.505-0.922-4.104c0-2.583,0.776-4.497,2.329-5.742
	c1.552-1.246,3.574-1.868,6.065-1.868c1.537,0,2.905,0.139,4.104,0.415c1.199,0.277,2.167,0.631,2.906,1.061l-1.107,3.044
	c-0.554-0.338-1.346-0.646-2.375-0.922c-1.03-0.277-2.221-0.415-3.574-0.415c-1.66,0-2.89,0.408-3.689,1.222
	c-0.8,0.815-1.199,1.837-1.199,3.067c0,1.076,0.307,2.029,0.922,2.859c0.614,0.83,1.383,1.614,2.306,2.352
	c0.922,0.738,1.914,1.483,2.975,2.237c1.061,0.753,2.052,1.591,2.975,2.514c0.922,0.922,1.691,1.969,2.306,3.137
	c0.614,1.169,0.922,2.553,0.922,4.15c0,2.705-0.8,4.826-2.398,6.363c-1.599,1.538-3.859,2.307-6.78,2.307
	c-1.845,0-3.359-0.17-4.542-0.508c-1.184-0.338-2.129-0.722-2.836-1.152L219.727,245.8z M240.389,217.806h3.459v32.283h-3.459
	V217.806z M259.342,233.993h8.9v14.205c-0.86,0.8-1.967,1.405-3.32,1.821c-1.354,0.414-2.721,0.623-4.104,0.623
	c-1.723,0-3.283-0.324-4.683-0.97s-2.591-1.651-3.573-3.021c-0.984-1.368-1.746-3.098-2.283-5.188
	c-0.538-2.091-0.807-4.597-0.807-7.518c0-3.013,0.321-5.573,0.969-7.679c0.645-2.106,1.514-3.828,2.604-5.166
	c1.091-1.337,2.336-2.313,3.735-2.929c1.398-0.614,2.837-0.922,4.312-0.922c1.478,0,2.714,0.101,3.714,0.3
	c0.998,0.201,1.852,0.469,2.561,0.807l-0.83,3.136c-0.616-0.338-1.346-0.6-2.191-0.784c-0.845-0.184-1.822-0.276-2.929-0.276
	c-1.076,0-2.106,0.23-3.09,0.691c-0.984,0.461-1.868,1.222-2.651,2.283c-0.785,1.061-1.406,2.452-1.867,4.174
	c-0.463,1.722-0.692,3.844-0.692,6.364c0,4.612,0.729,8.018,2.19,10.215c1.461,2.199,3.467,3.298,6.02,3.298
	c1.599,0,2.921-0.38,3.966-1.144v-9.325l-5.949-0.904L259.342,233.993L259.342,233.993z M278.064,229.612l-1.982-5.073h-0.139
	l0.508,5.073v20.477h-3.32v-32.791h2.075l11.944,20.938l1.892,4.843h0.185l-0.508-4.843v-20.431h3.32v32.791h-2.121L278.064,229.612
	z"/>
<circle fill="none" stroke="#FFFFFF" stroke-width="2" cx="234" cy="234.001" r="100.532"/>
<circle fill="none" stroke="#FFFFFF" stroke-width="0.5" cx="234" cy="234.001" r="96.132"/>
</svg>
