<?xml version="1.0" encoding="utf-8"?>
<!-- Generator: Adobe Illustrator 14.0.0, SVG Export Plug-In . SVG Version: 6.00 Build 43363)  -->
<!DOCTYPE svg PUBLIC "-//W3C//DTD SVG 1.1//EN" "http://www.w3.org/Graphics/SVG/1.1/DTD/svg11.dtd">
<svg version="1.1" id="Layer_1" xmlns="http://www.w3.org/2000/svg" xmlns:xlink="http://www.w3.org/1999/xlink" x="0px" y="0px"
	 width="108px" height="108px" viewBox="0 0 108 108" enable-background="new 0 0 108 108" xml:space="preserve">
<g id="Layer_4">
	<path d="M93.389,54.001c0,21.754-17.633,39.388-39.387,39.388c-21.756,0-39.391-17.634-39.391-39.388
		c0-21.756,17.635-39.391,39.391-39.391C75.756,14.611,93.389,32.246,93.389,54.001z"/>
	<circle fill="none" stroke="#FFFFFF" stroke-width="0.5" cx="54" cy="54.001" r="41.859"/>
	<path opacity="0.6" fill="none" stroke="#FFFFFF" stroke-width="3" enable-background="new    " d="M101.469,54.001
		c0,26.213-21.254,47.467-47.467,47.467c-26.219,0-47.472-21.254-47.472-47.467C6.53,27.783,27.783,6.53,54.001,6.53
		C80.215,6.53,101.469,27.783,101.469,54.001z"/>
</g>
<path fill="#FFFFFF" d="M32.415,65.068c-2.113-3.258-1.888-5.423-1.888-5.423l5.788-4.681c0,0-0.053-1.788,0.222-3.354l-6.133-4.952
	c0.801-3.802,2.5-5.173,2.5-5.173l7.404,0.781c0,0,1.227-1.303,2.526-2.215l-0.835-7.842c3.255-2.115,5.423-1.888,5.423-1.888
	l4.683,5.785c0,0,1.788-0.051,3.352,0.227l4.957-6.135c3.798,0.803,5.169,2.501,5.169,2.501l-0.779,7.399
	c0,0,1.303,1.229,2.215,2.531l7.842-0.838c2.112,3.257,1.884,5.426,1.884,5.426l-5.786,4.679c0,0,0.056,1.79-0.223,3.354
	l6.135,4.955c-0.803,3.797-2.501,5.17-2.501,5.17l-7.401-0.78c0,0-1.227,1.301-2.528,2.213l0.837,7.842
	c-3.258,2.114-5.425,1.888-5.425,1.888l-4.683-5.785c0,0-1.788,0.052-3.349-0.222l-4.957,6.13c-3.797-0.802-5.173-2.499-5.173-2.499
	l0.78-7.4c0,0-1.297-1.229-2.209-2.527L32.415,65.068z M53.638,45.263c-4.509,0-8.163,3.658-8.163,8.167
	c0,4.504,3.654,8.158,8.163,8.158c4.508,0,8.161-3.654,8.161-8.158C61.799,48.916,58.146,45.263,53.638,45.263z"/>
</svg>
