<?xml version="1.0" encoding="utf-8"?>
<!-- Generator: Adobe Illustrator 14.0.0, SVG Export Plug-In . SVG Version: 6.00 Build 43363)  -->
<!DOCTYPE svg PUBLIC "-//W3C//DTD SVG 1.1//EN" "http://www.w3.org/Graphics/SVG/1.1/DTD/svg11.dtd">
<svg version="1.1" id="Layer_4" xmlns="http://www.w3.org/2000/svg" xmlns:xlink="http://www.w3.org/1999/xlink" x="0px" y="0px"
	 width="64.051px" height="58.2px" viewBox="0 0 64.051 58.2" enable-background="new 0 0 64.051 58.2" xml:space="preserve">
<polygon opacity="0.4" fill="#AAD5C4" enable-background="new    " points="0,58.2 44.633,58.2 64.051,29.101 44.633,0 0,0 "/>
<path fill="#FFFFFF" d="M35.439,45.442c-0.793,0.543-1.752,1.014-2.879,1.409s-2.4,0.594-3.82,0.594
	c-3.465,0-6.239-1.532-8.326-4.603c-2.088-3.068-3.131-7.647-3.131-13.742c0-3.381,0.291-6.24,0.877-8.578
	c0.584-2.337,1.377-4.227,2.38-5.666c1.002-1.439,2.147-2.482,3.442-3.131c1.293-0.646,2.67-0.971,4.133-0.971
	c1.461,0,2.754,0.125,3.881,0.375c1.128,0.25,2.107,0.605,2.943,1.064l1.127-4.258c-0.961-0.417-2.099-0.771-3.412-1.064
	c-1.314-0.291-2.975-0.438-4.979-0.438c-1.962,0-3.871,0.396-5.729,1.189c-1.858,0.793-3.496,2.088-4.916,3.881
	c-1.418,1.795-2.558,4.133-3.412,7.014c-0.855,2.88-1.283,6.408-1.283,10.582c0,4.049,0.376,7.514,1.127,10.396
	c0.752,2.879,1.806,5.229,3.162,7.043c1.355,1.814,2.975,3.143,4.853,3.977s3.923,1.252,6.136,1.252
	c1.754,0,3.422-0.188,5.011-0.562c1.586-0.377,2.899-1.002,3.944-1.879L35.439,45.442z"/>
</svg>
