<?xml version="1.0" encoding="utf-8"?>
<!-- Generator: Adobe Illustrator 14.0.0, SVG Export Plug-In . SVG Version: 6.00 Build 43363)  -->
<!DOCTYPE svg PUBLIC "-//W3C//DTD SVG 1.1//EN" "http://www.w3.org/Graphics/SVG/1.1/DTD/svg11.dtd">
<svg version="1.1" xmlns="http://www.w3.org/2000/svg" xmlns:xlink="http://www.w3.org/1999/xlink" x="0px" y="0px" width="108px"
	 height="108px" viewBox="0 0 108 108" enable-background="new 0 0 108 108" xml:space="preserve">
<g id="Layer_4">
	<path d="M93.389,54.001c0,21.754-17.633,39.388-39.387,39.388c-21.756,0-39.391-17.634-39.391-39.388
		c0-21.756,17.635-39.391,39.391-39.391C75.756,14.611,93.389,32.246,93.389,54.001z"/>
	<circle fill="none" stroke="#FFFFFF" stroke-width="0.5" cx="54" cy="54.001" r="41.859"/>
	<path opacity="0.6" fill="none" stroke="#FFFFFF" stroke-width="3" enable-background="new    " d="M101.469,54.001
		c0,26.213-21.254,47.467-47.467,47.467c-26.219,0-47.472-21.254-47.472-47.467C6.53,27.783,27.783,6.53,54.001,6.53
		C80.215,6.53,101.469,27.783,101.469,54.001z"/>
</g>
<g id="Layer_3">
	<path fill="#FFFFFF" d="M41.504,53.392l-1.699,8.504c0.26,4.84,15.768,6.381,15.768,6.381c15.023,1.266,16.939-3.896,16.939-3.896
		l0.396-1.436l-0.789-4.189h3.012l13.348-14.787l-40.305-4.445l-28.652,8.898l0.652,1.047L41.504,53.392z"/>
</g>
</svg>
