<?xml version="1.0" encoding="utf-8"?>
<!-- Generator: Adobe Illustrator 14.0.0, SVG Export Plug-In . SVG Version: 6.00 Build 43363)  -->
<!DOCTYPE svg PUBLIC "-//W3C//DTD SVG 1.1//EN" "http://www.w3.org/Graphics/SVG/1.1/DTD/svg11.dtd">
<svg version="1.1" id="Layer_2" xmlns="http://www.w3.org/2000/svg" xmlns:xlink="http://www.w3.org/1999/xlink" x="0px" y="0px"
	 width="108px" height="108px" viewBox="0 0 108 108" enable-background="new 0 0 108 108" xml:space="preserve">
<path fill-rule="evenodd" clip-rule="evenodd" d="M93.389,54.001c0,21.754-17.633,39.387-39.387,39.387
	c-21.756,0-39.391-17.633-39.391-39.387c0-21.756,17.635-39.391,39.391-39.391C75.756,14.611,93.389,32.246,93.389,54.001z"/>
<circle fill="none" stroke="#FFFFFF" stroke-width="0.5" cx="54" cy="54.001" r="41.859"/>
<path opacity="0.6" fill="none" stroke="#FFFFFF" stroke-width="3" d="M101.469,54.001c0,26.213-21.254,47.467-47.467,47.467
	c-26.219,0-47.472-21.254-47.472-47.467C6.53,27.783,27.783,6.53,54.001,6.53C80.215,6.53,101.469,27.783,101.469,54.001z"/>
<path fill-rule="evenodd" clip-rule="evenodd" fill="#FFFFFF" d="M54.694,45.041l-0.156-0.431l0.191-0.313l0.589,0.029l0.625,0.382
	l0.177,0.483l0.117,0.323l-0.269,0.098l-0.482-0.069l-0.577,0.088L54.694,45.041z M63.69,57.93l0.879-0.32L65.19,57l0.578-0.518
	l0.483-0.674l-0.185-0.508l-0.379-0.092l-0.98,0.357l-0.652,0.736l-0.348,0.625l-0.116,0.73L63.69,57.93z M79.563,48.779
	l-0.017,0.252l0.253,0.399l-0.031,0.21l-0.115,0.396l-0.015,0.342l0.093,0.257l0.074,0.204l0.266,0.47l0.08,0.479l0.075,0.417
	l-0.038,0.274l0.139,0.38l0.203,0.095l0.258-0.094l0.21-0.14l0.138-0.171l0.071-0.304l-0.009-0.409l-0.154-0.421l-0.334-0.201
	l-0.187-0.346l-0.196-0.541c0,0,0.055-0.312,0.094-0.373c0.039-0.059-0.036-0.141,0.013-0.218c0.048-0.079-0.015-0.67-0.015-0.67
	l-0.188-0.223l-0.221-0.227l-0.19,0.069L79.563,48.779z M80.693,57.527l0.186-1.844l-0.222-0.891l0.717-0.977l0.496-0.743
	l0.209-0.688l-0.571-1.99l-0.718-1.833l-0.467-0.443l-0.477-0.185l-0.497,0.181l-1.074-3.235l-0.133-1.483l-0.259-1.132
	l-0.613-0.849l-0.928-0.582l-0.415-1.841l-0.315-1.57l-0.48-1.46l-1.358-1.345l-2.384-2.197l-0.381-0.627l-2.72-1.718l-2.009-1.312
	l-1.379-0.418l-0.283-0.356l-0.104-0.985l-0.553-0.257l-0.78-1.3l-0.778-0.739l-1.592-1.004l-1.591-0.443l-1.227,0.14l-1.398,0.509
	l-1.025,0.833l-1.144,0.926l-0.721,1.388l-0.189,0.886l0.012,0.455L52.837,28.6l-0.887-0.188l-2.279-0.651l-0.924-0.431
	l-0.832,0.099l-0.701-0.102l-0.356-0.279l-1.104-0.365l-1.473-0.536l-0.677,0.246l-0.812,0.295l-4.417-1.048l-1.001-0.504
	l-0.504-0.685l-0.73-0.041l-0.956,0.603l-0.027,0.623l0.229,0.632l0.292,0.66l0.486,0.64l0.899,0.082l1.517,0.521l1.633,0.836
	l1.382,0.569l0.657,0.681l0.123,0.619c0,0,0.968,0.414,0.902,0.233c-0.066-0.181,1.697,0.456,1.697,0.456l1.014,0.397l1.415,0.098
	l1.804,0.468l1.398,0.052l1.161,0.242l1.382,0.008L53.519,33l0.275,0.616l0.349,0.537l0.48,0.337l0.508,0.273l0.414,0.156
	l0.427,0.049l0.278,0.205l0.306,0.553l0.486,0.078l0.316-0.115l0.455-0.012l0.377,0.476l0.385,0.217l0.391,0.368l0.521,0.168
	l0.418-0.254l0.45-0.164l0.394-0.041l0.32,0.599l-0.386,0.344l-0.446,0.316l-0.13,0.201l0.266,0.312l0.397,0.11l0.308,0.144
	l0.196,0.541l-0.749,0.324l-0.596-0.09l-1.595-1.156l-1.813-0.771l-1.612-0.639l-1.431-0.144l-0.914-0.127l-0.887,0.374
	l-0.631,0.229l-0.517,0.546l-0.845,1.891l-0.614,1.96l-0.217,1.509l-0.2,1.554l-2.248-1.123l-1.267-0.816l-0.783-0.327l-0.562-0.001
	l-0.406,0.148l-0.193,0.734l0.174,0.755l0.319,0.599l0.366,0.582l0.722,0.299l0.565,0.151l0.656,0.119l1.87,0.647l0.837,0.615
	l0.181,1.058L48.614,49.7l-0.18,1.189l0.346,0.948l0.254,0.979l-0.121,3.314l-0.423,0.666l-0.422,0.664l-0.871,0.418l-0.79,0.492
	l-1.021,0.422l-0.615,0.275l-0.57,0.258l-0.176,0.779l0.169,0.604l0.364,0.582l0.496,0.381l0.402,0.264l0.775,0.023l0.878-0.113
	l0.693,0.359l0.997,0.914l0.775,0.586l0.734,0.193l0.855-0.312l0.697-0.611l-0.021-0.758l-0.062-1.152l-0.091-1.092l-0.197-1.102
	l0.749-4.259l0.86-2.406l0.337-1.043l0.549-1.018l0.672-0.397l0.969-0.148l0.701,0.103l0.881,0.036l0.75-0.324l0.678-0.246
	l0.869,0.706l1.119,0.971l0.825,0.722l0.915,0.688l0.603,0.393l0.468,0.443l-0.39,0.191l-0.718,0.415l-0.574,0.67l-0.012,0.668
	l0.103,0.423l-0.016,0.516l-0.391,0.756l-0.027,0.623l0.279,0.766l0.196,0.541l-0.217,0.949l-1.738,0.838l-2.137,1.287l-1.939,1.268
	l-1.932,1.57l-1.176,1.398l-0.386,0.908l-0.195,1.707l-0.042,1.291l-0.113,1.369l-0.188,2.01l-0.569,2.506l-0.693,2.449
	l-0.794,2.025l-0.854,1.025l-1.242,0.656l-0.88,0.32l-0.194,0.377l-0.333,0.07l-0.401-0.262l-0.59,0.061l-0.907,0.176l-1.037-0.184
	l-0.983-0.457l-0.628-0.182l-0.66,0.291L40.89,82.65l0.296,0.811l0.71,0.969l0.542,0.365l0.615,0.287l0.614,0.287l0.824,0.158
	l0.681,0.467l0.874,0.857l0.566,0.713l0.632,0.332l0.582,0.197l0.97-0.354l0.338-0.684l0.677-0.809l0.66-0.293l0.324-0.371
	l-0.054-0.85l0.742-1.752l1.238-1.93l2.471-3.457l0.836-1.631l0.443-1.59l0.216-1.51l0.069-0.793l0.377-1.209l1.021-1.547
	l1.529-1.271l1.89-1.402l2.029-0.74l3.363-1.428l3.673-1.693l1.918-0.699l1.195-0.434l0.414,0.156l0.836,0.051l0.607-0.016
	l0.549-0.455l0.255-0.705l1.6,0.184l0.483-0.074l0.381-0.496l0.378-0.648L80.693,57.527z"/>
<polyline fill="none" stroke="#FFFFFF" stroke-width="0.5" points="35.614,19.159 35.782,21.014 35.614,21.28 35.681,22.585 
	36.099,23.454 36.141,24.41 37.064,27.649 37.109,29.318 38.021,30.417 38.431,30.983 39.784,32.738 40.335,33.968 40.843,34.804 
	41.491,35.182 42.246,36.133 42.739,37.486 43.034,38.298 43.429,39.381 43.174,40.086 43.625,41.045 43.888,41.767 43.794,42.209 
	44.775,45.326 46.056,46.597 45.97,47.485 46.177,49.176 45.548,52.502 45.073,55.128 44.581,57.145 44.196,58.613 44.2,59.326 
	43.64,61.855 42.099,62.953 40.637,65.324 39.845,67.145 39.521,68.783 38.835,70.828 38.582,72.1 38.688,73.791 39.06,76.217 
	39.881,78.471 40.185,80.711 40.89,82.65 41.459,85.617 42.524,88.543 42.634,89.586 42.501,91.682 "/>
</svg>
