<?xml version="1.0" encoding="utf-8"?>
<!-- Generator: Adobe Illustrator 14.0.0, SVG Export Plug-In . SVG Version: 6.00 Build 43363)  -->
<!DOCTYPE svg PUBLIC "-//W3C//DTD SVG 1.1//EN" "http://www.w3.org/Graphics/SVG/1.1/DTD/svg11.dtd">
<svg version="1.1" id="Layer_4" xmlns="http://www.w3.org/2000/svg" xmlns:xlink="http://www.w3.org/1999/xlink" x="0px" y="0px"
	 width="64.051px" height="58.2px" viewBox="0 0 64.051 58.2" enable-background="new 0 0 64.051 58.2" xml:space="preserve">
<path fill-rule="evenodd" clip-rule="evenodd" fill="#AAD5C4" enable-background="new    " d="M0,58.2h44.633l19.418-29.101
	L44.633,0H0V58.2z M13.553,51.045c0.416,0.082,1.012,0.146,1.783,0.188c0.773,0.041,1.607,0.096,2.506,0.156
	c0.896,0.062,1.762,0.104,2.598,0.125c0.834,0.021,1.523,0.029,2.066,0.029c3.297,0,6.043-0.625,8.234-1.879
	c2.189-1.252,3.953-2.92,5.289-5.008c1.336-2.089,2.285-4.509,2.85-7.265c0.564-2.754,0.846-5.636,0.846-8.641
	c0-3.338-0.293-6.365-0.877-9.08c-0.586-2.713-1.545-5.039-2.881-6.979S32.9,9.26,30.771,8.217
	c-2.129-1.043-4.719-1.565-7.766-1.565c-0.709,0-1.471,0.013-2.285,0.031c-0.812,0.021-1.639,0.043-2.473,0.062
	c-0.836,0.021-1.658,0.062-2.473,0.125c-0.814,0.063-1.558,0.157-2.224,0.282L13.553,51.045L13.553,51.045z M28.986,12.508
	c1.48,1.023,2.65,2.357,3.506,4.007c0.855,1.65,1.449,3.538,1.785,5.666c0.334,2.129,0.5,4.301,0.5,6.512
	c0,2.507-0.188,4.875-0.562,7.106c-0.377,2.232-1.015,4.195-1.91,5.886c-0.897,1.69-2.118,3.037-3.661,4.039
	c-1.546,1.002-3.468,1.502-5.763,1.502c-0.209,0-0.531-0.011-0.972-0.031c-0.438-0.021-0.896-0.041-1.377-0.062
	c-0.479-0.021-0.938-0.041-1.377-0.062c-0.438-0.02-0.741-0.053-0.907-0.094V11.288c0.25-0.043,0.573-0.084,0.971-0.127
	c0.396-0.041,0.824-0.082,1.283-0.125c0.459-0.041,0.93-0.062,1.407-0.062c0.48,0,0.931,0,1.349,0
	C25.594,10.974,27.504,11.485,28.986,12.508z"/>
</svg>
