<?xml version="1.0" encoding="utf-8"?>
<!-- Generator: Adobe Illustrator 14.0.0, SVG Export Plug-In . SVG Version: 6.00 Build 43363)  -->
<!DOCTYPE svg PUBLIC "-//W3C//DTD SVG 1.1//EN" "http://www.w3.org/Graphics/SVG/1.1/DTD/svg11.dtd">
<svg version="1.1" id="Layer_4" xmlns="http://www.w3.org/2000/svg" xmlns:xlink="http://www.w3.org/1999/xlink" x="0px" y="0px"
	 width="64.051px" height="58.2px" viewBox="0 0 64.051 58.2" enable-background="new 0 0 64.051 58.2" xml:space="preserve">
<path fill-rule="evenodd" clip-rule="evenodd" fill="#AAD5C4" enable-background="new    " d="M0,58.2h44.633l19.418-29.1L44.633,0
	H0V58.2z M35.969,17.141c0,1.086-0.125,2.171-0.375,3.256c-0.251,1.086-0.648,2.107-1.189,3.068
	c-0.543,0.961-1.221,1.816-2.031,2.566c-0.813,0.752-1.807,1.315-2.975,1.691v0.25c1.002,0.209,1.961,0.555,2.881,1.033
	c0.917,0.479,1.73,1.147,2.442,2.003c0.709,0.854,1.271,1.9,1.688,3.132s0.627,2.702,0.627,4.414c0,2.254-0.354,4.204-1.062,5.854
	c-0.713,1.646-1.685,2.992-2.91,4.035c-1.231,1.047-2.651,1.812-4.261,2.314c-1.607,0.502-3.31,0.754-5.103,0.754
	c-0.586,0-1.265,0-2.035,0c-0.773,0-1.598-0.031-2.473-0.1c-0.877-0.062-1.744-0.146-2.601-0.25c-0.854-0.104-1.64-0.26-2.349-0.469
	V7.561c1.252-0.25,2.726-0.459,4.414-0.626c1.691-0.167,3.518-0.25,5.479-0.25c1.419,0,2.838,0.136,4.258,0.407
	c1.419,0.271,2.692,0.783,3.82,1.533c1.127,0.752,2.034,1.807,2.727,3.162C35.625,13.144,35.969,14.929,35.969,17.141z
	 M21.506,26.659c0.584,0,1.252-0.021,2.004-0.062c0.75-0.041,1.377-0.104,1.878-0.188c1.544-0.627,2.869-1.639,3.976-3.037
	c1.104-1.398,1.66-3.121,1.66-5.166c0-1.377-0.188-2.537-0.563-3.476s-0.888-1.681-1.534-2.224
	c-0.646-0.541-1.409-0.928-2.285-1.157s-1.795-0.345-2.755-0.345c-1.086,0-2.065,0.031-2.942,0.094s-1.545,0.136-2.004,0.219v15.34
	h2.566L21.506,26.659L21.506,26.659z M24.072,47.195c1.127,0,2.17-0.178,3.131-0.532c0.959-0.354,1.805-0.887,2.535-1.597
	c0.729-0.709,1.305-1.575,1.723-2.599c0.416-1.022,0.626-2.223,0.626-3.602c0-1.715-0.261-3.104-0.782-4.164
	c-0.523-1.063-1.201-1.892-2.035-2.477c-0.836-0.584-1.785-0.979-2.85-1.188s-2.16-0.312-3.287-0.312H18.94V46.75
	c0.25,0.086,0.572,0.146,0.969,0.188c0.396,0.042,0.836,0.084,1.315,0.126c0.479,0.041,0.972,0.071,1.472,0.097
	C23.195,47.185,23.654,47.195,24.072,47.195z"/>
</svg>
