<?xml version="1.0" encoding="utf-8"?>
<!-- Generator: Adobe Illustrator 14.0.0, SVG Export Plug-In . SVG Version: 6.00 Build 43363)  -->
<!DOCTYPE svg PUBLIC "-//W3C//DTD SVG 1.1//EN" "http://www.w3.org/Graphics/SVG/1.1/DTD/svg11.dtd">
<svg version="1.1" xmlns="http://www.w3.org/2000/svg" xmlns:xlink="http://www.w3.org/1999/xlink" x="0px" y="0px" width="750px"
	 height="300px" viewBox="0 0 750 300" enable-background="new 0 0 750 300" xml:space="preserve">
<g id="Layer_2">
</g>
<g id="Layer_1">
	<path fill="#231F20" d="M376.872,260.879l0.148-0.647l0.205-0.503l0.385-0.562l-0.474-0.177l-0.532-0.294l-0.591-1.065
		l-0.118-0.354l-0.029-0.621l-0.061-0.385l-0.354-1.683l0.029-0.83l-0.146-1.712l-0.121-1.86l0.268-1.12l0.473-0.385l0.856-0.269
		l0.237-0.176c0,0,0.089-0.325,0.117-0.414c0.029-0.089,0.148-0.267,0.148-0.267l0.354-0.089c0,0,0.119-0.086,0.119-0.177
		c0-0.087-0.296-0.444-0.296-0.444l0.09-0.884l-0.03-0.857l0.061-1.241l0.325-0.739l0.472-0.916l0.945-1.238l0.709-0.474
		l0.592-0.147h0.561l0.709,0.147l0.619,0.561l0.592,0.886l0.561,1.714l0.179,2.628l-0.179,0.772l-0.236,2.067l0.295,0.59
		c0,0,0.09,0.503,0.09,0.59c0,0.089-0.355,0.561-0.355,0.561l-0.414,0.621l0.355,0.503l0.383,0.146l0.68,0.592l0.504,0.146
		l0.412,0.443h0.473l1.184-0.765l0.504-0.444l0.353-0.679l1.124-1.153l0.029-0.355l0.236-0.296l0.237-0.205l0.178,0.148l0.088,0.298
		h0.443l0.622-0.239l0.707-0.178l0.236,0.267l-0.029,0.325l-0.029,0.265l-0.592,0.327l-0.502,0.326l-0.798,0.207l-0.207,0.443
		l0.03,0.41l0.441,0.444l-0.265,0.205v0.387l-0.827,0.65l-1.124,0.977l-1.417,1.209l-0.62,0.06h-0.591l-0.62-0.207l-0.887-0.294
		l0.028,1.271l0.295,0.089l0.03,0.443l0.296,0.677l-0.028,1.006l-0.149,1.271l-0.027,1.031h-7.444L376.872,260.879z"/>
	<path fill="#AAD5C4" d="M279.76,105.787c0,52.996,51.382,99.141,95.24,99.141c43.854,0,95.24-46.144,95.24-99.141
		c0-52.997-42.641-91.183-95.24-91.183S279.76,52.79,279.76,105.787z"/>
	<path fill="none" stroke="#636363" stroke-width="0.75" d="M361.707,261.032"/>
	<path fill="none" stroke="#636363" stroke-width="0.75" d="M388.294,261.032"/>
	<polygon fill="#636363" points="386.479,285.396 363.523,285.396 361.266,261.171 388.737,261.171 	"/>
	<polygon fill="none" stroke="#231F20" stroke-width="0.25" stroke-linecap="round" points="386.479,285.396 363.523,285.396 
		361.266,261.171 388.737,261.171 	"/>
	<path fill="none" stroke="#231F20" stroke-width="0.25" stroke-linecap="round" d="M370.131,269.855
		c0,3.752,1.089,5.226,2.436,5.226c1.343,0,2.434-1.474,2.434-5.226c0-3.754-1.089-8.685-2.434-8.685
		C371.221,261.171,370.131,266.102,370.131,269.855z"/>
	<path fill="none" stroke="#231F20" stroke-width="0.25" stroke-linecap="round" d="M365.262,269.854
		c0,3.752,1.089,5.228,2.434,5.228s2.435-1.474,2.435-5.228c0-3.752-1.091-8.685-2.435-8.685
		C366.353,261.171,365.262,266.102,365.262,269.854z"/>
	<path fill="none" stroke="#231F20" stroke-width="0.25" stroke-linecap="round" d="M375.001,269.855
		c0,3.752,1.09,5.226,2.436,5.226c1.342,0,2.434-1.474,2.434-5.226c0-3.754-1.09-8.685-2.434-8.685
		C376.091,261.171,375.001,266.102,375.001,269.855z"/>
	<path fill="none" stroke="#231F20" stroke-width="0.25" stroke-linecap="round" d="M379.87,269.855
		c0,3.752,1.089,5.226,2.437,5.226c1.343,0,2.433-1.474,2.433-5.226c0-3.754-1.09-8.685-2.433-8.685
		C380.962,261.171,379.87,266.102,379.87,269.855z"/>
	<path fill="none" stroke="#231F20" stroke-width="0.25" stroke-linecap="round" d="M384.741,269.855
		c0,3.752,1.088,5.226,2.436,5.226c1.342,0,2.434-1.474,2.434-5.226c0-3.754-1.09-8.685-2.434-8.685
		C385.829,261.171,384.741,266.102,384.741,269.855z"/>
	<path fill="none" stroke="#231F20" stroke-width="0.25" stroke-linecap="round" d="M360.392,269.855
		c0,3.752,1.089,5.226,2.437,5.226c1.343,0,2.434-1.474,2.434-5.226c0-3.754-1.09-8.685-2.434-8.685
		C361.482,261.171,360.392,266.102,360.392,269.855z"/>
	<path fill="none" stroke="#231F20" stroke-width="0.5" stroke-linecap="round" d="M289.327,145.974c0,0,0.362,4.709,72.379,115.059
		"/>
	<path fill="none" stroke="#231F20" stroke-width="0.5" stroke-linecap="round" d="M289.324,145.974
		c-6.021-12.596-9.564-26.268-9.564-40.187c0-52.997,42.641-91.183,95.24-91.183s95.24,38.186,95.24,91.183
		c0,13.919-3.543,27.591-9.566,40.187c0,0-0.361,4.709-72.38,115.059"/>
	<polygon opacity="0.6" enable-background="new    " points="512.15,152.878 0,152.878 0,69.75 512.15,69.75 539.839,111.315 	"/>
	<polygon fill="#CCDD59" points="539.839,111.315 512.15,69.75 750,69.75 750,152.878 512.15,152.878 	"/>
	<polygon opacity="0.6" fill-rule="evenodd" clip-rule="evenodd" enable-background="new    " points="523.878,111.546 
		512.026,153.34 539.915,111.546 512.026,69.75 	"/>
</g>
</svg>
