<?xml version="1.0" encoding="utf-8"?>
<!-- Generator: Adobe Illustrator 14.0.0, SVG Export Plug-In . SVG Version: 6.00 Build 43363)  -->
<!DOCTYPE svg PUBLIC "-//W3C//DTD SVG 1.1//EN" "http://www.w3.org/Graphics/SVG/1.1/DTD/svg11.dtd">
<svg version="1.1" id="Layer_1" xmlns="http://www.w3.org/2000/svg" xmlns:xlink="http://www.w3.org/1999/xlink" x="0px" y="0px"
	 width="750px" height="300px" viewBox="0 0 750 300" enable-background="new 0 0 750 300" xml:space="preserve">
<g id="Layer_2">
</g>
<path fill="#231F20" d="M376.872,260.879l0.147-0.646l0.205-0.504l0.385-0.562l-0.473-0.177l-0.533-0.295l-0.59-1.064l-0.119-0.354
	l-0.028-0.621l-0.062-0.385l-0.354-1.684l0.029-0.83l-0.146-1.712l-0.121-1.86l0.268-1.119l0.473-0.385l0.856-0.27l0.236-0.176
	c0,0,0.089-0.325,0.117-0.414c0.029-0.09,0.148-0.268,0.148-0.268l0.354-0.089c0,0,0.119-0.086,0.119-0.177
	c0-0.087-0.297-0.444-0.297-0.444l0.091-0.884l-0.03-0.857l0.061-1.24l0.326-0.739l0.472-0.916l0.944-1.238l0.709-0.474l0.592-0.146
	h0.562l0.709,0.146l0.619,0.561l0.592,0.887l0.562,1.714l0.179,2.628l-0.179,0.771l-0.236,2.067l0.295,0.59
	c0,0,0.09,0.503,0.09,0.591s-0.354,0.561-0.354,0.561l-0.414,0.621l0.354,0.502l0.383,0.146l0.681,0.592l0.504,0.146l0.412,0.443
	h0.473l1.185-0.766l0.504-0.443l0.353-0.68l1.124-1.152l0.029-0.355l0.236-0.296l0.236-0.205l0.178,0.147l0.088,0.299h0.443
	l0.622-0.239l0.707-0.179l0.236,0.268l-0.029,0.325l-0.028,0.265l-0.593,0.327l-0.502,0.326l-0.798,0.207l-0.207,0.442l0.029,0.41
	l0.441,0.444l-0.265,0.205v0.388l-0.827,0.649l-1.124,0.978l-1.417,1.209l-0.62,0.06h-0.591l-0.62-0.207l-0.887-0.294l0.028,1.271
	l0.295,0.089l0.029,0.443l0.297,0.677l-0.028,1.007l-0.149,1.271l-0.027,1.03h-7.443L376.872,260.879z"/>
<path fill="#AAD5C4" d="M279.76,105.787c0,52.996,51.382,99.141,95.24,99.141c43.854,0,95.24-46.144,95.24-99.141
	S427.599,14.604,375,14.604C322.401,14.604,279.76,52.79,279.76,105.787z"/>
<path fill="none" stroke="#636363" stroke-width="0.75" d="M361.707,261.032"/>
<path fill="none" stroke="#636363" stroke-width="0.75" d="M388.294,261.032"/>
<polygon fill="#636363" points="386.479,285.396 363.523,285.396 361.266,261.171 388.736,261.171 "/>
<polygon fill="none" stroke="#231F20" stroke-width="0.25" stroke-linecap="round" points="386.479,285.396 363.523,285.396 
	361.266,261.171 388.736,261.171 "/>
<path fill="none" stroke="#231F20" stroke-width="0.25" stroke-linecap="round" d="M370.131,269.855
	c0,3.752,1.089,5.226,2.436,5.226c1.343,0,2.434-1.474,2.434-5.226c0-3.754-1.089-8.686-2.434-8.686
	C371.221,261.171,370.131,266.102,370.131,269.855z"/>
<path fill="none" stroke="#231F20" stroke-width="0.25" stroke-linecap="round" d="M365.262,269.854
	c0,3.752,1.089,5.229,2.434,5.229c1.345,0,2.435-1.475,2.435-5.229c0-3.752-1.091-8.685-2.435-8.685
	C366.353,261.171,365.262,266.102,365.262,269.854z"/>
<path fill="none" stroke="#231F20" stroke-width="0.25" stroke-linecap="round" d="M375.001,269.855c0,3.752,1.09,5.226,2.437,5.226
	c1.342,0,2.434-1.474,2.434-5.226c0-3.754-1.09-8.686-2.434-8.686C376.091,261.171,375.001,266.102,375.001,269.855z"/>
<path fill="none" stroke="#231F20" stroke-width="0.25" stroke-linecap="round" d="M379.87,269.855c0,3.752,1.089,5.226,2.437,5.226
	c1.344,0,2.434-1.474,2.434-5.226c0-3.754-1.09-8.686-2.434-8.686C380.962,261.171,379.87,266.102,379.87,269.855z"/>
<path fill="none" stroke="#231F20" stroke-width="0.25" stroke-linecap="round" d="M384.741,269.855
	c0,3.752,1.088,5.226,2.436,5.226c1.343,0,2.435-1.474,2.435-5.226c0-3.754-1.09-8.686-2.435-8.686
	C385.829,261.171,384.741,266.102,384.741,269.855z"/>
<path fill="none" stroke="#231F20" stroke-width="0.25" stroke-linecap="round" d="M360.392,269.855
	c0,3.752,1.089,5.226,2.437,5.226c1.343,0,2.434-1.474,2.434-5.226c0-3.754-1.09-8.686-2.434-8.686
	C361.482,261.171,360.392,266.102,360.392,269.855z"/>
<path fill="none" stroke="#231F20" stroke-width="0.5" stroke-linecap="round" d="M289.327,145.974c0,0,0.362,4.709,72.379,115.059"
	/>
<path fill="none" stroke="#231F20" stroke-width="0.5" stroke-linecap="round" d="M289.324,145.974
	c-6.021-12.596-9.564-26.268-9.564-40.187c0-52.997,42.641-91.183,95.24-91.183c52.599,0,95.24,38.186,95.24,91.183
	c0,13.919-3.543,27.591-9.566,40.187c0,0-0.361,4.709-72.38,115.059"/>
<polygon opacity="0.6" enable-background="new    " points="512.15,152.878 0,152.878 0,69.75 512.15,69.75 539.839,111.315 "/>
<polygon fill="#CCDD59" points="551.237,111.315 523.549,69.75 750,69.75 750,152.878 523.549,152.878 "/>
<polygon opacity="0.6" enable-background="new    " points="523.878,111.546 512.026,153.34 539.915,111.546 512.026,69.75 "/>
</svg>
