<?xml version="1.0" encoding="utf-8"?>
<!-- Generator: Adobe Illustrator 14.0.0, SVG Export Plug-In . SVG Version: 6.00 Build 43363)  -->
<!DOCTYPE svg PUBLIC "-//W3C//DTD SVG 1.1//EN" "http://www.w3.org/Graphics/SVG/1.1/DTD/svg11.dtd">
<svg version="1.1" id="Layer_1" xmlns="http://www.w3.org/2000/svg" xmlns:xlink="http://www.w3.org/1999/xlink" x="0px" y="0px"
	 width="750px" height="300px" viewBox="0 0 750 300" enable-background="new 0 0 750 300" xml:space="preserve">
<g id="Layer_2">
</g>
<path fill="#231F20" d="M384.136,257.251l0.297,0.677l-0.026,1.008l-0.149,1.271l-0.025,1.029h-7.443l0.084-0.357l0.146-0.646
	l0.205-0.504l0.387-0.562l-0.475-0.177l-0.532-0.295l-0.591-1.064l-0.118-0.354l-0.027-0.621l-0.062-0.385l-0.354-1.686l0.027-0.83
	l-0.146-1.712l-0.121-1.858l0.269-1.119l0.474-0.385l0.854-0.271l0.236-0.178c0,0,0.089-0.323,0.117-0.414
	c0.028-0.09,0.146-0.268,0.146-0.268l0.354-0.089c0,0,0.119-0.086,0.119-0.177c0-0.088-0.297-0.444-0.297-0.444l0.091-0.884
	l-0.03-0.857l0.062-1.24l0.324-0.737l0.474-0.916l0.942-1.238l0.709-0.474l0.594-0.146h0.562l0.709,0.146l0.619,0.562l0.592,0.887
	l0.562,1.713l0.179,2.629l-0.179,0.771l-0.236,2.066l0.295,0.59l0.417,0.667l0.263,0.87l0.309,0.87l0.001,1.16l-0.282,1.103
	l-0.116,1.276l-0.174,0.755l-0.116,0.58L384.136,257.251z"/>
<path fill="#AAD5C4" d="M279.76,105.787c0,52.996,51.382,99.141,95.24,99.141c43.854,0,95.24-46.144,95.24-99.141
	S427.599,14.604,375,14.604S279.76,52.79,279.76,105.787z"/>
<path fill="none" stroke="#636363" stroke-width="0.75" d="M361.707,261.032"/>
<path fill="none" stroke="#636363" stroke-width="0.75" d="M388.294,261.032"/>
<polygon fill="#636363" points="386.479,285.396 363.523,285.396 361.266,261.171 388.736,261.171 "/>
<polygon fill="none" stroke="#231F20" stroke-width="0.25" stroke-linecap="round" points="386.479,285.396 363.523,285.396 
	361.266,261.171 388.736,261.171 "/>
<path fill="none" stroke="#231F20" stroke-width="0.25" stroke-linecap="round" d="M370.131,269.855
	c0,3.752,1.089,5.226,2.438,5.226c1.343,0,2.434-1.474,2.434-5.226c0-3.754-1.089-8.688-2.434-8.688
	C371.221,261.171,370.131,266.102,370.131,269.855z"/>
<path fill="none" stroke="#231F20" stroke-width="0.25" stroke-linecap="round" d="M365.262,269.854
	c0,3.752,1.089,5.229,2.436,5.229c1.345,0,2.435-1.476,2.435-5.229c0-3.752-1.091-8.685-2.435-8.685
	C366.353,261.171,365.262,266.102,365.262,269.854z"/>
<path fill="none" stroke="#231F20" stroke-width="0.25" stroke-linecap="round" d="M375.001,269.855c0,3.752,1.09,5.226,2.438,5.226
	c1.342,0,2.434-1.474,2.434-5.226c0-3.754-1.09-8.688-2.434-8.688C376.091,261.171,375.001,266.102,375.001,269.855z"/>
<path fill="none" stroke="#231F20" stroke-width="0.25" stroke-linecap="round" d="M379.87,269.855c0,3.752,1.089,5.226,2.437,5.226
	c1.346,0,2.436-1.474,2.436-5.226c0-3.754-1.09-8.688-2.436-8.688C380.962,261.171,379.87,266.102,379.87,269.855z"/>
<path fill="none" stroke="#231F20" stroke-width="0.25" stroke-linecap="round" d="M384.741,269.855
	c0,3.752,1.088,5.226,2.436,5.226c1.343,0,2.437-1.474,2.437-5.226c0-3.754-1.09-8.688-2.437-8.688
	C385.829,261.171,384.741,266.102,384.741,269.855z"/>
<path fill="none" stroke="#231F20" stroke-width="0.25" stroke-linecap="round" d="M360.392,269.855
	c0,3.752,1.091,5.226,2.438,5.226c1.343,0,2.434-1.474,2.434-5.226c0-3.754-1.09-8.688-2.434-8.688
	C361.482,261.171,360.392,266.102,360.392,269.855z"/>
<path fill="none" stroke="#231F20" stroke-width="0.5" stroke-linecap="round" d="M289.327,145.974c0,0,0.362,4.709,72.379,115.059"
	/>
<path fill="none" stroke="#231F20" stroke-width="0.5" stroke-linecap="round" d="M289.324,145.974
	c-6.021-12.596-9.564-26.268-9.564-40.187c0-52.997,42.643-91.183,95.24-91.183s95.24,38.186,95.24,91.183
	c0,13.919-3.543,27.591-9.566,40.187c0,0-0.361,4.709-72.38,115.059"/>
<polygon opacity="0.6" enable-background="new    " points="512.15,152.878 0,152.878 0,69.75 512.15,69.75 539.839,111.315 "/>
<polygon fill="#CCDD59" points="551.237,111.315 523.549,69.75 750,69.75 750,152.878 523.549,152.878 "/>
<polygon opacity="0.6" enable-background="new    " points="523.878,111.546 512.026,153.34 539.915,111.546 512.026,69.75 "/>
<path fill="#FFFFFF" d="M324.184,124.812c-0.7,0.589-1.585,1.01-2.649,1.262c-1.066,0.252-2.188,0.379-3.365,0.379
	c-1.486,0-2.861-0.281-4.123-0.841s-2.349-1.451-3.26-2.671c-0.912-1.22-1.619-2.797-2.125-4.732
	c-0.504-1.935-0.756-4.263-0.756-6.983c0-2.804,0.287-5.174,0.86-7.109c0.574-1.935,1.341-3.505,2.293-4.711
	c0.953-1.206,2.056-2.075,3.304-2.608c1.247-0.532,2.529-0.799,3.849-0.799c1.347,0,2.461,0.098,3.345,0.294
	s1.646,0.435,2.292,0.715l-0.757,2.861c-0.562-0.309-1.221-0.547-1.978-0.715s-1.626-0.252-2.608-0.252
	c-0.98,0-1.907,0.218-2.774,0.652c-0.87,0.436-1.642,1.136-2.314,2.104c-0.673,0.968-1.206,2.237-1.598,3.807
	c-0.395,1.571-0.59,3.491-0.59,5.763c0,4.095,0.7,7.172,2.104,9.233c1.402,2.062,3.267,3.092,5.595,3.092
	c0.953,0,1.811-0.133,2.566-0.399c0.757-0.266,1.401-0.582,1.935-0.947L324.184,124.812z"/>
<path fill="#FFFFFF" d="M326.245,111.224c0-4.992,0.799-8.778,2.396-11.358c1.599-2.58,4.039-3.87,7.32-3.87
	c1.766,0,3.266,0.357,4.5,1.072c1.234,0.715,2.236,1.732,3.008,3.05c0.771,1.319,1.34,2.917,1.704,4.796s0.547,3.982,0.547,6.31
	c0,4.992-0.807,8.778-2.419,11.358c-1.612,2.581-4.059,3.87-7.34,3.87c-1.74,0-3.227-0.357-4.459-1.073
	c-1.234-0.715-2.244-1.731-3.029-3.05c-0.784-1.318-1.354-2.917-1.704-4.795C326.42,115.656,326.245,113.552,326.245,111.224z
	 M329.568,111.224c0,1.655,0.118,3.225,0.356,4.711c0.238,1.487,0.609,2.791,1.115,3.912c0.504,1.122,1.163,2.019,1.977,2.692
	c0.812,0.673,1.795,1.009,2.945,1.009c2.104,0,3.701-1.009,4.795-3.029c1.094-2.019,1.642-5.118,1.642-9.296
	c0-1.626-0.119-3.183-0.357-4.669c-0.238-1.486-0.609-2.797-1.115-3.933c-0.504-1.136-1.164-2.041-1.977-2.713
	c-0.814-0.673-1.81-1.01-2.986-1.01c-2.076,0-3.66,1.01-4.754,3.029C330.115,103.946,329.568,107.045,329.568,111.224z"/>
<path fill="#FFFFFF" d="M354.724,107.27l-1.81-4.627h-0.125l0.463,4.627v18.678h-3.029v-29.91h1.894l10.896,19.098l1.726,4.417
	h0.169l-0.463-4.417V96.5h3.027v29.91h-1.935L354.724,107.27z"/>
<path fill="#FFFFFF" d="M388.377,99.403h-7.235v26.544h-3.154V99.403h-7.235V96.5h17.626L388.377,99.403L388.377,99.403z"/>
<path fill="#FFFFFF" d="M400.625,117.702h-8.303l-2.349,8.245h-3.111l8.876-29.909h1.725l8.877,29.909h-3.324L400.625,117.702z
	 M393.162,114.968h6.709l-2.559-9.143l-0.775-4.445h-0.086l-0.816,4.529L393.162,114.968z"/>
<path fill="#FFFFFF" d="M423.754,124.812c-0.701,0.589-1.584,1.01-2.65,1.262c-1.065,0.252-2.188,0.379-3.364,0.379
	c-1.486,0-2.859-0.281-4.123-0.841c-1.262-0.561-2.349-1.451-3.26-2.671c-0.912-1.22-1.619-2.797-2.123-4.732
	c-0.507-1.935-0.759-4.263-0.759-6.983c0-2.804,0.287-5.174,0.861-7.109c0.576-1.935,1.34-3.505,2.293-4.711
	c0.953-1.206,2.055-2.075,3.303-2.608c1.248-0.532,2.531-0.799,3.851-0.799c1.346,0,2.461,0.098,3.344,0.294
	s1.646,0.435,2.293,0.715l-0.758,2.861c-0.562-0.309-1.219-0.547-1.978-0.715c-0.758-0.168-1.627-0.252-2.608-0.252
	c-0.98,0-1.906,0.218-2.775,0.652c-0.869,0.436-1.641,1.136-2.313,2.104c-0.672,0.968-1.205,2.237-1.599,3.807
	c-0.393,1.571-0.59,3.491-0.59,5.763c0,4.095,0.701,7.172,2.104,9.233c1.401,2.062,3.268,3.092,5.596,3.092
	c0.953,0,1.809-0.133,2.566-0.399c0.756-0.266,1.401-0.582,1.934-0.947L423.754,124.812z"/>
<path fill="#FFFFFF" d="M442.096,99.403h-7.235v26.544h-3.154V99.403h-7.236V96.5h17.627L442.096,99.403L442.096,99.403z"/>
</svg>
