<?xml version="1.0" encoding="utf-8"?>
<!-- Generator: Adobe Illustrator 14.0.0, SVG Export Plug-In . SVG Version: 6.00 Build 43363)  -->
<!DOCTYPE svg PUBLIC "-//W3C//DTD SVG 1.1//EN" "http://www.w3.org/Graphics/SVG/1.1/DTD/svg11.dtd">
<svg version="1.1" id="Layer_1" xmlns="http://www.w3.org/2000/svg" xmlns:xlink="http://www.w3.org/1999/xlink" x="0px" y="0px"
	 width="1000px" height="107.555px" viewBox="0 0 1000 107.555" enable-background="new 0 0 1000 107.555" xml:space="preserve">
<path fill-rule="evenodd" clip-rule="evenodd" fill="#AAD5C4" d="M0,1.768h687.133l35.355,52.984l-35.355,52.982H0V1.768z
	 M407.631,70.485c-0.973,0.633-2.063,1.18-3.278,1.641c-1.214,0.462-2.671,0.69-4.369,0.69c-1.942,0-3.605-0.437-4.99-1.311
	c-1.384-0.875-2.525-2.113-3.423-3.715c-0.899-1.604-1.557-3.508-1.969-5.718c-0.413-2.208-0.618-4.649-0.618-7.32
	c0-6.215,0.896-10.78,2.693-13.694c1.796-2.914,4.37-4.37,7.723-4.37c1.697,0,3.168,0.136,4.405,0.4
	c1.238,0.268,2.318,0.644,3.242,1.129l1.821-8.085c-1.118-0.485-2.562-0.922-4.334-1.312c-1.773-0.388-3.851-0.583-6.229-0.583
	c-2.331,0-4.638,0.413-6.92,1.238c-2.281,0.827-4.311,2.247-6.083,4.261c-1.771,2.018-3.205,4.725-4.297,8.122
	c-1.092,3.4-1.639,7.675-1.639,12.82c0,4.953,0.482,9.13,1.457,12.528c0.97,3.398,2.306,6.144,4.006,8.229
	c1.699,2.089,3.678,3.581,5.936,4.479c2.26,0.896,4.698,1.348,7.32,1.348c2.088,0,4.188-0.244,6.301-0.729
	c2.113-0.485,3.8-1.265,5.062-2.331L407.631,70.485z M411.636,65.714c0.681,3.278,1.748,6.071,3.205,8.376
	c1.457,2.307,3.314,4.08,5.572,5.317s4.99,1.856,8.195,1.856c5.973,0,10.476-2.259,13.512-6.772
	c3.034-4.518,4.552-11.098,4.552-19.74c0-4.03-0.353-7.687-1.056-10.962c-0.705-3.278-1.785-6.07-3.242-8.377
	c-1.457-2.308-3.327-4.079-5.608-5.317s-5.002-1.857-8.156-1.857c-6.071,0-10.589,2.26-13.55,6.774
	c-2.962,4.517-4.441,11.097-4.441,19.74C410.616,58.783,410.955,62.437,411.636,65.714z M428.607,36.688
	c1.603,0,2.938,0.475,4.006,1.42c1.066,0.947,1.931,2.234,2.586,3.861c0.653,1.627,1.129,3.545,1.42,5.754
	c0.292,2.21,0.438,4.552,0.438,7.029c0,6.312-0.705,10.9-2.111,13.767c-1.409,2.865-3.521,4.297-6.337,4.297
	c-1.557,0-2.854-0.461-3.897-1.384c-1.045-0.922-1.906-2.185-2.585-3.788c-0.681-1.603-1.166-3.508-1.457-5.718
	c-0.292-2.209-0.438-4.601-0.438-7.175C420.23,42.709,423.022,36.688,428.607,36.688z M477.774,80.61h7.062V29.258h-8.668V54.68
	l1.166,8.667h-0.438l-3.132-8.812l-14.641-25.642h-7.066v51.354h8.668V55.044l-1.166-8.814h0.364l3.352,8.959L477.774,80.61z
	 M521.987,29.258H488.7v8.449h12.092v42.539h9.177V37.708h12.021L521.987,29.258L521.987,29.258z M544.786,80.247h9.615
	l-14.859-51.354h-7.212l-14.786,51.354h9.105l2.984-11.655h12.021L544.786,80.247z M534.442,49.362l1.236-8.085h0.291l1.166,8.014
	l2.914,11.873h-8.448L534.442,49.362z M582.736,70.485c-0.974,0.633-2.063,1.18-3.278,1.641c-1.215,0.462-2.671,0.69-4.369,0.69
	c-1.942,0-3.604-0.437-4.99-1.311c-1.384-0.875-2.523-2.113-3.424-3.715c-0.897-1.604-1.555-3.508-1.967-5.718
	c-0.412-2.208-0.618-4.649-0.618-7.32c0-6.215,0.897-10.78,2.694-13.694c1.796-2.914,4.371-4.37,7.721-4.37
	c1.7,0,3.169,0.136,4.407,0.4c1.237,0.268,2.318,0.644,3.241,1.129l1.818-8.085c-1.114-0.485-2.561-0.922-4.333-1.312
	c-1.771-0.388-3.85-0.583-6.229-0.583c-2.33,0-4.639,0.413-6.919,1.238c-2.283,0.827-4.312,2.247-6.082,4.261
	c-1.773,2.018-3.205,4.725-4.299,8.122c-1.093,3.4-1.641,7.675-1.641,12.82c0,4.953,0.485,9.13,1.457,12.528
	c0.974,3.398,2.309,6.144,4.006,8.229c1.701,2.089,3.682,3.581,5.938,4.479c2.258,0.896,4.697,1.348,7.32,1.348
	c2.088,0,4.188-0.244,6.301-0.729c2.11-0.485,3.799-1.265,5.062-2.331L582.736,70.485z M616.752,29.258h-33.288v8.449h12.092v42.539
	h9.18V37.708h12.019L616.752,29.258L616.752,29.258z"/>
</svg>
