<?xml version="1.0" encoding="utf-8"?>
<!-- Generator: Adobe Illustrator 14.0.0, SVG Export Plug-In . SVG Version: 6.00 Build 43363)  -->
<!DOCTYPE svg PUBLIC "-//W3C//DTD SVG 1.1//EN" "http://www.w3.org/Graphics/SVG/1.1/DTD/svg11.dtd">
<svg version="1.1" id="Layer_3" xmlns="http://www.w3.org/2000/svg" xmlns:xlink="http://www.w3.org/1999/xlink" x="0px" y="0px"
	 width="180px" height="244.8px" viewBox="0 0 180 244.8" enable-background="new 0 0 180 244.8" xml:space="preserve">
<path fill="#FFFFFF" stroke="#000000" stroke-width="0.75" stroke-dasharray="2,2" d="M137.791,80.147
	c0,0.643-0.521,1.162-1.164,1.162H43.373c-0.646,0-1.164-0.52-1.164-1.162V16.076c0-0.643,0.52-1.163,1.164-1.163h93.254
	c0.643,0,1.164,0.521,1.164,1.163V80.147z"/>
<path fill="#434F5B" d="M135.252,77.894c0,0.645-0.52,1.164-1.163,1.164h-17.606c-0.646,0-1.164-0.52-1.164-1.164V41.601
	c0-0.643,0.521-1.163,1.164-1.163h17.604c0.646,0,1.163,0.521,1.163,1.163L135.252,77.894L135.252,77.894z"/>
<path fill="#FFFFFF" stroke="#000000" stroke-width="0.75" stroke-dasharray="2,2" d="M137.791,154.44
	c0,0.642-0.521,1.16-1.164,1.16H43.373c-0.646,0-1.164-0.521-1.164-1.16V90.364c0-0.643,0.52-1.162,1.164-1.162h93.254
	c0.643,0,1.164,0.52,1.164,1.162V154.44z"/>
<path fill="#FFFFFF" stroke="#000000" stroke-width="0.75" stroke-dasharray="2,2" d="M137.791,228.729
	c0,0.642-0.521,1.16-1.164,1.16H43.373c-0.646,0-1.164-0.521-1.164-1.16v-64.074c0-0.646,0.52-1.163,1.164-1.163h93.254
	c0.643,0,1.164,0.52,1.164,1.163V228.729z"/>
<path fill="#434F5B" d="M113.107,131.333c0,0.645-0.521,1.164-1.164,1.164H45.699c-0.644,0-1.162-0.521-1.162-1.164v-15.441
	c0-0.645,0.52-1.164,1.162-1.164h66.244c0.646,0,1.164,0.52,1.164,1.164V131.333L113.107,131.333z"/>
<path fill="#434F5B" d="M113.104,226.475c0,0.642-0.521,1.162-1.158,1.162H92.221c-0.641,0-1.162-0.521-1.162-1.162v-16.983
	c0-0.646,0.521-1.164,1.162-1.164h19.725c0.643,0,1.16,0.521,1.16,1.164L113.104,226.475L113.104,226.475z"/>
<path fill="#434F5B" d="M89.844,205.569c0,0.647-0.521,1.168-1.162,1.168H68.963c-0.645,0-1.164-0.521-1.164-1.168v-15.387
	c0-0.646,0.521-1.166,1.164-1.166h19.719c0.642,0,1.162,0.521,1.162,1.166V205.569L89.844,205.569z"/>
<path fill="#434F5B" d="M135.252,37.222c0,0.642-0.52,1.162-1.163,1.162h-88.39c-0.644,0-1.162-0.521-1.162-1.162V18.4
	c0-0.642,0.52-1.162,1.162-1.162h88.39c0.646,0,1.163,0.521,1.163,1.162V37.222z"/>
<path fill="#434F5B" d="M113.107,77.894c0,0.645-0.521,1.164-1.164,1.164H45.699c-0.644,0-1.162-0.52-1.162-1.164V41.601
	c0-0.643,0.52-1.163,1.162-1.163h66.244c0.646,0,1.164,0.521,1.164,1.163V77.894L113.107,77.894z"/>
<path fill="#434F5B" d="M135.252,111.515c0,0.637-0.52,1.158-1.163,1.158h-88.39c-0.644,0-1.162-0.521-1.162-1.158V92.69
	c0-0.643,0.52-1.164,1.162-1.164h88.39c0.646,0,1.163,0.521,1.163,1.164V111.515z"/>
<path fill="#434F5B" d="M66.58,152.186c0,0.642-0.521,1.16-1.16,1.16H45.699c-0.644,0-1.162-0.521-1.162-1.16v-16.985
	c0-0.644,0.52-1.162,1.162-1.162H65.42c0.641,0,1.16,0.521,1.16,1.162V152.186z"/>
<path fill="#434F5B" d="M113.104,152.186c0,0.642-0.521,1.16-1.158,1.16H92.221c-0.641,0-1.162-0.521-1.162-1.16v-16.985
	c0-0.644,0.521-1.162,1.162-1.162h19.725c0.643,0,1.16,0.521,1.16,1.162L113.104,152.186L113.104,152.186z"/>
<path fill="#434F5B" d="M89.844,152.186c0,0.642-0.521,1.16-1.162,1.16H68.963c-0.645,0-1.164-0.521-1.164-1.16v-16.985
	c0-0.644,0.521-1.162,1.164-1.162h19.719c0.642,0,1.162,0.521,1.162,1.162V152.186L89.844,152.186z"/>
<path fill="#434F5B" d="M135.252,152.186c0,0.642-0.52,1.16-1.163,1.16h-17.606c-0.646,0-1.164-0.521-1.164-1.16V115.89
	c0-0.645,0.521-1.164,1.164-1.164h17.604c0.646,0,1.163,0.52,1.163,1.164L135.252,152.186L135.252,152.186z"/>
<path fill="#434F5B" d="M135.252,185.802c0,0.64-0.52,1.16-1.163,1.16h-88.39c-0.644,0-1.162-0.521-1.162-1.16v-18.823
	c0-0.644,0.52-1.164,1.162-1.164h88.39c0.646,0,1.163,0.521,1.163,1.164V185.802z"/>
<path fill="#434F5B" d="M66.58,226.475c0,0.642-0.521,1.162-1.16,1.162H45.699c-0.644,0-1.162-0.521-1.162-1.162v-16.983
	c0-0.646,0.52-1.164,1.162-1.164H65.42c0.641,0,1.16,0.521,1.16,1.164V226.475z"/>
<path fill="#434F5B" d="M89.844,226.475c0,0.642-0.521,1.162-1.162,1.162H68.963c-0.645,0-1.164-0.521-1.164-1.162v-16.983
	c0-0.646,0.521-1.164,1.164-1.164h19.719c0.642,0,1.162,0.521,1.162,1.164V226.475L89.844,226.475z"/>
<path fill="#434F5B" d="M66.58,205.569c0,0.647-0.521,1.168-1.16,1.168H45.699c-0.644,0-1.162-0.521-1.162-1.168v-15.387
	c0-0.646,0.52-1.166,1.162-1.166H65.42c0.641,0,1.16,0.521,1.16,1.166V205.569z"/>
<path fill="#434F5B" d="M113.104,205.569c0,0.647-0.521,1.168-1.158,1.168H92.221c-0.641,0-1.162-0.521-1.162-1.168v-15.387
	c0-0.646,0.521-1.166,1.162-1.166h19.725c0.643,0,1.16,0.521,1.16,1.166L113.104,205.569L113.104,205.569z"/>
<path fill="#434F5B" d="M135.252,226.475c0,0.642-0.52,1.162-1.163,1.162h-17.606c-0.646,0-1.164-0.521-1.164-1.162v-36.293
	c0-0.646,0.521-1.166,1.164-1.166h17.604c0.646,0,1.163,0.521,1.163,1.166L135.252,226.475L135.252,226.475z"/>
<g enable-background="new    ">
	<path d="M92.182,53.281h-4.5l-1.272,4.469h-1.688l4.811-16.211h0.935l4.811,16.211h-1.801L92.182,53.281z M88.136,51.799h3.636
		l-1.386-4.955l-0.42-2.409h-0.046l-0.442,2.455L88.136,51.799z"/>
</g>
<g enable-background="new    ">
	<path d="M94.002,119.704c0,0.396-0.046,0.791-0.137,1.186c-0.092,0.396-0.236,0.768-0.434,1.117s-0.445,0.661-0.741,0.934
		c-0.296,0.275-0.657,0.48-1.083,0.617v0.09c0.365,0.076,0.715,0.203,1.049,0.377c0.334,0.176,0.631,0.418,0.89,0.73
		c0.258,0.311,0.464,0.691,0.615,1.139c0.151,0.449,0.228,0.984,0.228,1.607c0,0.82-0.129,1.531-0.387,2.133
		c-0.259,0.6-0.612,1.09-1.061,1.471c-0.448,0.379-0.965,0.66-1.551,0.844c-0.585,0.182-1.205,0.273-1.858,0.273
		c-0.213,0-0.46,0-0.741,0c-0.282,0-0.582-0.012-0.901-0.035c-0.319-0.023-0.635-0.053-0.946-0.092
		c-0.312-0.037-0.597-0.094-0.855-0.17v-15.709c0.456-0.091,0.992-0.167,1.607-0.228c0.616-0.061,1.281-0.092,1.995-0.092
		c0.517,0,1.034,0.05,1.55,0.148c0.518,0.099,0.98,0.285,1.392,0.559c0.41,0.273,0.741,0.657,0.991,1.151
		C93.877,118.249,94.002,118.898,94.002,119.704z M88.735,123.169c0.213,0,0.456-0.008,0.729-0.021
		c0.274-0.016,0.501-0.039,0.684-0.068c0.562-0.229,1.045-0.597,1.447-1.107c0.403-0.509,0.605-1.136,0.605-1.881
		c0-0.502-0.069-0.923-0.206-1.266c-0.137-0.342-0.323-0.611-0.559-0.81c-0.235-0.197-0.513-0.338-0.832-0.421
		c-0.319-0.084-0.654-0.126-1.003-0.126c-0.395,0-0.752,0.012-1.071,0.034c-0.319,0.023-0.562,0.05-0.729,0.08v5.585H88.735z
		 M89.669,130.648c0.411,0,0.791-0.064,1.14-0.193s0.657-0.322,0.923-0.582c0.267-0.258,0.476-0.572,0.627-0.945
		c0.152-0.373,0.229-0.811,0.229-1.311c0-0.623-0.095-1.129-0.285-1.518c-0.189-0.387-0.438-0.688-0.74-0.9
		c-0.305-0.213-0.65-0.357-1.037-0.434c-0.388-0.074-0.787-0.113-1.198-0.113H87.8v5.836c0.091,0.031,0.208,0.055,0.353,0.068
		c0.145,0.016,0.304,0.031,0.479,0.047c0.174,0.016,0.354,0.025,0.536,0.033C89.351,130.644,89.518,130.648,89.669,130.648z"/>
</g>
<g enable-background="new    ">
	<path d="M94.582,205.708c-0.38,0.318-0.858,0.547-1.436,0.684c-0.578,0.137-1.186,0.205-1.824,0.205
		c-0.807,0-1.551-0.152-2.235-0.455c-0.684-0.305-1.273-0.787-1.767-1.447c-0.494-0.662-0.877-1.518-1.151-2.566
		c-0.273-1.049-0.41-2.311-0.41-3.785c0-1.52,0.156-2.803,0.467-3.852s0.726-1.9,1.243-2.555c0.517-0.652,1.113-1.125,1.79-1.414
		c0.676-0.287,1.372-0.432,2.086-0.432c0.729,0,1.334,0.053,1.812,0.158c0.479,0.107,0.894,0.236,1.243,0.389l-0.41,1.551
		c-0.305-0.168-0.662-0.297-1.072-0.389s-0.882-0.137-1.414-0.137c-0.531,0-1.033,0.117-1.504,0.354s-0.889,0.615-1.254,1.141
		c-0.365,0.523-0.654,1.211-0.867,2.062s-0.319,1.893-0.319,3.123c0,2.221,0.379,3.889,1.14,5.006s1.771,1.676,3.033,1.676
		c0.517,0,0.98-0.072,1.391-0.217s0.76-0.314,1.049-0.514L94.582,205.708z"/>
</g>
</svg>
