<?xml version="1.0" encoding="utf-8"?>
<!-- Generator: Adobe Illustrator 14.0.0, SVG Export Plug-In . SVG Version: 6.00 Build 43363)  -->
<!DOCTYPE svg PUBLIC "-//W3C//DTD SVG 1.1//EN" "http://www.w3.org/Graphics/SVG/1.1/DTD/svg11.dtd">
<svg version="1.1" id="Layer_3" xmlns="http://www.w3.org/2000/svg" xmlns:xlink="http://www.w3.org/1999/xlink" x="0px" y="0px"
	 width="180px" height="244.8px" viewBox="-18 0 180 244.8" enable-background="new -18 0 180 244.8" xml:space="preserve">
<path fill="#FFFFFF" stroke="#000000" stroke-width="0.75" stroke-dasharray="2,2" d="M119.791,80.147
	c0,0.643-0.522,1.162-1.164,1.162H25.373c-0.646,0-1.164-0.52-1.164-1.162V16.076c0-0.643,0.52-1.163,1.164-1.163h93.254
	c0.642,0,1.164,0.521,1.164,1.163V80.147z"/>
<path fill="#BCBCBC" d="M117.252,77.894c0,0.645-0.52,1.164-1.163,1.164H98.482c-0.646,0-1.164-0.52-1.164-1.164V41.601
	c0-0.643,0.521-1.163,1.164-1.163h17.604c0.646,0,1.163,0.521,1.163,1.163L117.252,77.894L117.252,77.894z"/>
<path fill="#FFFFFF" stroke="#000000" stroke-width="0.75" stroke-dasharray="2,2" d="M119.791,154.44
	c0,0.641-0.522,1.16-1.164,1.16H25.373c-0.646,0-1.164-0.52-1.164-1.16V90.364c0-0.643,0.52-1.162,1.164-1.162h93.254
	c0.642,0,1.164,0.52,1.164,1.162V154.44z"/>
<path fill="#FFFFFF" stroke="#000000" stroke-width="0.75" stroke-dasharray="2,2" d="M119.791,228.729
	c0,0.641-0.522,1.16-1.164,1.16H25.373c-0.646,0-1.164-0.52-1.164-1.16v-64.074c0-0.645,0.52-1.164,1.164-1.164h93.254
	c0.642,0,1.164,0.52,1.164,1.164V228.729z"/>
<path fill="#BCBCBC" d="M95.107,131.333c0,0.645-0.521,1.164-1.164,1.164H27.699c-0.644,0-1.162-0.52-1.162-1.164v-15.441
	c0-0.645,0.52-1.164,1.162-1.164h66.244c0.646,0,1.164,0.52,1.164,1.164V131.333L95.107,131.333z"/>
<path fill="#BCBCBC" d="M95.103,226.475c0,0.641-0.52,1.162-1.158,1.162H74.221c-0.641,0-1.162-0.521-1.162-1.162v-16.984
	c0-0.645,0.521-1.164,1.162-1.164h19.725c0.642,0,1.159,0.521,1.159,1.164L95.103,226.475L95.103,226.475z"/>
<path fill="#BCBCBC" d="M71.844,205.569c0,0.648-0.521,1.168-1.162,1.168H50.963c-0.645,0-1.164-0.52-1.164-1.168v-15.387
	c0-0.646,0.521-1.166,1.164-1.166h19.719c0.642,0,1.162,0.52,1.162,1.166V205.569L71.844,205.569z"/>
<path fill="#BCBCBC" d="M117.252,37.222c0,0.642-0.52,1.162-1.163,1.162h-88.39c-0.644,0-1.162-0.521-1.162-1.162V18.4
	c0-0.642,0.52-1.162,1.162-1.162h88.39c0.646,0,1.163,0.521,1.163,1.162V37.222z"/>
<path fill="#BCBCBC" d="M95.107,77.894c0,0.645-0.521,1.164-1.164,1.164H27.699c-0.644,0-1.162-0.52-1.162-1.164V41.601
	c0-0.643,0.52-1.163,1.162-1.163h66.244c0.646,0,1.164,0.521,1.164,1.163V77.894L95.107,77.894z"/>
<path fill="#BCBCBC" d="M117.252,111.515c0,0.637-0.52,1.158-1.163,1.158h-88.39c-0.644,0-1.162-0.521-1.162-1.158V92.69
	c0-0.643,0.52-1.164,1.162-1.164h88.39c0.646,0,1.163,0.521,1.163,1.164V111.515z"/>
<path fill="#BCBCBC" d="M48.58,152.186c0,0.641-0.521,1.16-1.16,1.16H27.699c-0.644,0-1.162-0.52-1.162-1.16V135.2
	c0-0.643,0.52-1.162,1.162-1.162H47.42c0.641,0,1.16,0.521,1.16,1.162V152.186z"/>
<path fill="#BCBCBC" d="M95.103,152.186c0,0.641-0.52,1.16-1.158,1.16H74.221c-0.641,0-1.162-0.52-1.162-1.16V135.2
	c0-0.643,0.521-1.162,1.162-1.162h19.725c0.642,0,1.159,0.521,1.159,1.162L95.103,152.186L95.103,152.186z"/>
<path fill="#BCBCBC" d="M71.844,152.186c0,0.641-0.521,1.16-1.162,1.16H50.963c-0.645,0-1.164-0.52-1.164-1.16V135.2
	c0-0.643,0.521-1.162,1.164-1.162h19.719c0.642,0,1.162,0.521,1.162,1.162V152.186L71.844,152.186z"/>
<path fill="#BCBCBC" d="M117.252,152.186c0,0.641-0.52,1.16-1.163,1.16H98.482c-0.646,0-1.164-0.52-1.164-1.16V115.89
	c0-0.645,0.521-1.164,1.164-1.164h17.604c0.646,0,1.163,0.52,1.163,1.164L117.252,152.186L117.252,152.186z"/>
<path fill="#BCBCBC" d="M117.252,185.803c0,0.639-0.52,1.16-1.163,1.16h-88.39c-0.644,0-1.162-0.521-1.162-1.16v-18.824
	c0-0.643,0.52-1.164,1.162-1.164h88.39c0.646,0,1.163,0.521,1.163,1.164V185.803z"/>
<path fill="#BCBCBC" d="M48.58,226.475c0,0.641-0.521,1.162-1.16,1.162H27.699c-0.644,0-1.162-0.521-1.162-1.162v-16.984
	c0-0.645,0.52-1.164,1.162-1.164H47.42c0.641,0,1.16,0.521,1.16,1.164V226.475z"/>
<path fill="#BCBCBC" d="M71.844,226.475c0,0.641-0.521,1.162-1.162,1.162H50.963c-0.645,0-1.164-0.521-1.164-1.162v-16.984
	c0-0.645,0.521-1.164,1.164-1.164h19.719c0.642,0,1.162,0.521,1.162,1.164V226.475L71.844,226.475z"/>
<path fill="#BCBCBC" d="M48.58,205.569c0,0.648-0.521,1.168-1.16,1.168H27.699c-0.644,0-1.162-0.52-1.162-1.168v-15.387
	c0-0.646,0.52-1.166,1.162-1.166H47.42c0.641,0,1.16,0.52,1.16,1.166V205.569z"/>
<path fill="#BCBCBC" d="M95.103,205.569c0,0.648-0.52,1.168-1.158,1.168H74.221c-0.641,0-1.162-0.52-1.162-1.168v-15.387
	c0-0.646,0.521-1.166,1.162-1.166h19.725c0.642,0,1.159,0.52,1.159,1.166L95.103,205.569L95.103,205.569z"/>
<path fill="#BCBCBC" d="M117.252,226.475c0,0.641-0.52,1.162-1.163,1.162H98.482c-0.646,0-1.164-0.521-1.164-1.162v-36.293
	c0-0.646,0.521-1.166,1.164-1.166h17.604c0.646,0,1.163,0.52,1.163,1.166L117.252,226.475L117.252,226.475z"/>
<text transform="matrix(1 0 0 1 66.6074 57.7495)" font-family="'PTSans-Narrow'" font-size="22.8">A</text>
<text transform="matrix(1 0 0 1 66.6309 132.0386)" font-family="'PTSans-Narrow'" font-size="22.8">B</text>
<text transform="matrix(1 0 0 1 66.7783 206.3247)" font-family="'PTSans-Narrow'" font-size="22.8">C</text>
</svg>
