<?xml version="1.0" encoding="utf-8"?>
<!-- Generator: Adobe Illustrator 14.0.0, SVG Export Plug-In . SVG Version: 6.00 Build 43363)  -->
<!DOCTYPE svg PUBLIC "-//W3C//DTD SVG 1.1//EN" "http://www.w3.org/Graphics/SVG/1.1/DTD/svg11.dtd">
<svg version="1.1" id="Layer_3" xmlns="http://www.w3.org/2000/svg" xmlns:xlink="http://www.w3.org/1999/xlink" x="0px" y="0px"
	 width="200px" height="244.8px" viewBox="0 0 200 244.8" enable-background="new 0 0 200 244.8" xml:space="preserve">
<path fill="#FFFFFF" stroke="#000000" stroke-width="0.75" stroke-dasharray="2,2" d="M147.791,80.147
	c0,0.643-0.521,1.162-1.164,1.162H53.373c-0.646,0-1.164-0.52-1.164-1.162V16.076c0-0.643,0.52-1.163,1.164-1.163h93.254
	c0.643,0,1.164,0.521,1.164,1.163V80.147z"/>
<path fill="#CBEFDE" d="M145.252,77.894c0,0.645-0.52,1.164-1.163,1.164h-17.606c-0.646,0-1.164-0.52-1.164-1.164V41.601
	c0-0.643,0.521-1.163,1.164-1.163h17.604c0.646,0,1.163,0.521,1.163,1.163L145.252,77.894L145.252,77.894z"/>
<path fill="#FFFFFF" stroke="#000000" stroke-width="0.75" stroke-dasharray="2,2" d="M147.791,154.44
	c0,0.642-0.521,1.16-1.164,1.16H53.373c-0.646,0-1.164-0.521-1.164-1.16V90.364c0-0.643,0.52-1.162,1.164-1.162h93.254
	c0.643,0,1.164,0.52,1.164,1.162V154.44z"/>
<path fill="#FFFFFF" stroke="#000000" stroke-width="0.75" stroke-dasharray="2,2" d="M147.791,228.729
	c0,0.642-0.521,1.16-1.164,1.16H53.373c-0.646,0-1.164-0.521-1.164-1.16v-64.074c0-0.646,0.52-1.163,1.164-1.163h93.254
	c0.643,0,1.164,0.521,1.164,1.163V228.729z"/>
<path fill="#CBEFDE" d="M123.107,131.333c0,0.645-0.521,1.164-1.164,1.164H55.699c-0.645,0-1.162-0.521-1.162-1.164v-15.441
	c0-0.645,0.52-1.164,1.162-1.164h66.244c0.646,0,1.164,0.52,1.164,1.164V131.333L123.107,131.333z"/>
<path fill="#CBEFDE" d="M123.104,226.475c0,0.642-0.521,1.162-1.158,1.162h-19.725c-0.641,0-1.162-0.521-1.162-1.162v-16.983
	c0-0.646,0.521-1.164,1.162-1.164h19.725c0.646,0,1.16,0.521,1.16,1.164L123.104,226.475L123.104,226.475z"/>
<path fill="#CBEFDE" d="M99.844,205.569c0,0.647-0.521,1.168-1.162,1.168H78.963c-0.645,0-1.164-0.521-1.164-1.168v-15.387
	c0-0.646,0.521-1.166,1.164-1.166h19.719c0.643,0,1.162,0.521,1.162,1.166V205.569L99.844,205.569z"/>
<path fill="#CBEFDE" d="M145.252,37.222c0,0.642-0.52,1.162-1.163,1.162h-88.39c-0.645,0-1.162-0.521-1.162-1.162V18.4
	c0-0.642,0.52-1.162,1.162-1.162h88.39c0.646,0,1.163,0.521,1.163,1.162V37.222z"/>
<path fill="#CBEFDE" d="M123.107,77.894c0,0.645-0.521,1.164-1.164,1.164H55.699c-0.645,0-1.162-0.52-1.162-1.164V41.601
	c0-0.643,0.52-1.163,1.162-1.163h66.244c0.646,0,1.164,0.521,1.164,1.163V77.894L123.107,77.894z"/>
<path fill="#CBEFDE" d="M145.252,111.515c0,0.637-0.52,1.158-1.163,1.158h-88.39c-0.645,0-1.162-0.521-1.162-1.158V92.69
	c0-0.643,0.52-1.164,1.162-1.164h88.39c0.646,0,1.163,0.521,1.163,1.164V111.515z"/>
<path fill="#CBEFDE" d="M76.58,152.186c0,0.642-0.521,1.16-1.16,1.16H55.699c-0.645,0-1.162-0.521-1.162-1.16v-16.985
	c0-0.644,0.52-1.162,1.162-1.162H75.42c0.641,0,1.16,0.521,1.16,1.162V152.186z"/>
<path fill="#CBEFDE" d="M123.104,152.186c0,0.642-0.521,1.16-1.158,1.16h-19.725c-0.641,0-1.162-0.521-1.162-1.16v-16.985
	c0-0.644,0.521-1.162,1.162-1.162h19.725c0.646,0,1.16,0.521,1.16,1.162L123.104,152.186L123.104,152.186z"/>
<path fill="#CBEFDE" d="M99.844,152.186c0,0.642-0.521,1.16-1.162,1.16H78.963c-0.645,0-1.164-0.521-1.164-1.16v-16.985
	c0-0.644,0.521-1.162,1.164-1.162h19.719c0.643,0,1.162,0.521,1.162,1.162V152.186L99.844,152.186z"/>
<path fill="#CBEFDE" d="M145.252,152.186c0,0.642-0.52,1.16-1.163,1.16h-17.606c-0.646,0-1.164-0.521-1.164-1.16V115.89
	c0-0.645,0.521-1.164,1.164-1.164h17.604c0.646,0,1.163,0.52,1.163,1.164L145.252,152.186L145.252,152.186z"/>
<path fill="#CBEFDE" d="M145.252,185.802c0,0.64-0.52,1.16-1.163,1.16h-88.39c-0.645,0-1.162-0.521-1.162-1.16v-18.823
	c0-0.644,0.52-1.164,1.162-1.164h88.39c0.646,0,1.163,0.521,1.163,1.164V185.802z"/>
<path fill="#CBEFDE" d="M76.58,226.475c0,0.642-0.521,1.162-1.16,1.162H55.699c-0.645,0-1.162-0.521-1.162-1.162v-16.983
	c0-0.646,0.52-1.164,1.162-1.164H75.42c0.641,0,1.16,0.521,1.16,1.164V226.475z"/>
<path fill="#CBEFDE" d="M99.844,226.475c0,0.642-0.521,1.162-1.162,1.162H78.963c-0.645,0-1.164-0.521-1.164-1.162v-16.983
	c0-0.646,0.521-1.164,1.164-1.164h19.719c0.643,0,1.162,0.521,1.162,1.164V226.475L99.844,226.475z"/>
<path fill="#CBEFDE" d="M76.58,205.569c0,0.647-0.521,1.168-1.16,1.168H55.699c-0.645,0-1.162-0.521-1.162-1.168v-15.387
	c0-0.646,0.52-1.166,1.162-1.166H75.42c0.641,0,1.16,0.521,1.16,1.166V205.569z"/>
<path fill="#CBEFDE" d="M123.104,205.569c0,0.647-0.521,1.168-1.158,1.168h-19.725c-0.641,0-1.162-0.521-1.162-1.168v-15.387
	c0-0.646,0.521-1.166,1.162-1.166h19.725c0.646,0,1.16,0.521,1.16,1.166L123.104,205.569L123.104,205.569z"/>
<path fill="#CBEFDE" d="M145.252,226.475c0,0.642-0.52,1.162-1.163,1.162h-17.606c-0.646,0-1.164-0.521-1.164-1.162v-36.293
	c0-0.646,0.521-1.166,1.164-1.166h17.604c0.646,0,1.163,0.521,1.163,1.166L145.252,226.475L145.252,226.475z"/>
<g enable-background="new    ">
	<path d="M41.923,53.281h-4.5l-1.271,4.469h-1.688l4.811-16.211h0.935l4.812,16.211H43.22L41.923,53.281z M37.878,51.799h3.635
		l-1.385-4.955l-0.421-2.409h-0.046L39.22,46.89L37.878,51.799z"/>
</g>
<g enable-background="new    ">
	<path d="M43.743,119.704c0,0.396-0.046,0.791-0.137,1.186c-0.092,0.396-0.236,0.768-0.434,1.117
		c-0.199,0.349-0.445,0.661-0.742,0.934c-0.295,0.275-0.656,0.48-1.082,0.617v0.09c0.365,0.076,0.715,0.203,1.049,0.377
		c0.334,0.176,0.631,0.418,0.89,0.73c0.259,0.311,0.464,0.688,0.615,1.139c0.151,0.449,0.228,0.984,0.228,1.607
		c0,0.816-0.129,1.531-0.387,2.133c-0.259,0.6-0.611,1.09-1.061,1.471c-0.448,0.379-0.965,0.66-1.551,0.844
		c-0.586,0.182-1.207,0.273-1.858,0.273c-0.214,0-0.46,0-0.741,0c-0.282,0-0.582-0.012-0.9-0.035
		c-0.32-0.023-0.636-0.053-0.947-0.092c-0.312-0.037-0.596-0.094-0.854-0.17v-15.709c0.456-0.091,0.992-0.167,1.606-0.228
		c0.617-0.061,1.281-0.092,1.996-0.092c0.517,0,1.033,0.05,1.55,0.148c0.518,0.099,0.979,0.285,1.392,0.559
		c0.41,0.273,0.741,0.657,0.991,1.151C43.618,118.249,43.743,118.898,43.743,119.704z M38.476,123.169
		c0.214,0,0.457-0.008,0.729-0.021c0.274-0.016,0.501-0.039,0.685-0.068c0.562-0.229,1.045-0.597,1.447-1.104
		c0.402-0.509,0.604-1.136,0.604-1.881c0-0.502-0.069-0.923-0.206-1.266c-0.137-0.342-0.323-0.611-0.559-0.81
		c-0.235-0.197-0.515-0.338-0.832-0.421c-0.319-0.084-0.654-0.126-1.004-0.126c-0.395,0-0.752,0.012-1.07,0.034
		c-0.319,0.023-0.562,0.05-0.729,0.08v5.583H38.476L38.476,123.169z M39.41,130.648c0.411,0,0.791-0.064,1.14-0.193
		c0.351-0.129,0.657-0.322,0.924-0.582c0.268-0.258,0.477-0.572,0.627-0.945c0.152-0.369,0.229-0.811,0.229-1.311
		c0-0.623-0.095-1.129-0.284-1.518c-0.189-0.387-0.438-0.688-0.74-0.9c-0.306-0.213-0.649-0.357-1.037-0.434
		c-0.387-0.074-0.787-0.113-1.197-0.113h-1.53v5.836c0.091,0.031,0.208,0.055,0.353,0.068c0.146,0.016,0.305,0.031,0.479,0.047
		s0.354,0.025,0.536,0.033C39.093,130.644,39.259,130.648,39.41,130.648z"/>
</g>
<g enable-background="new    ">
	<path d="M44.323,205.708c-0.38,0.314-0.857,0.547-1.436,0.684c-0.58,0.137-1.188,0.205-1.824,0.205
		c-0.807,0-1.551-0.152-2.235-0.455c-0.685-0.305-1.272-0.787-1.767-1.447c-0.494-0.662-0.877-1.518-1.151-2.566
		c-0.272-1.049-0.41-2.311-0.41-3.785c0-1.52,0.156-2.803,0.468-3.852c0.311-1.049,0.726-1.9,1.242-2.555
		c0.518-0.652,1.113-1.125,1.79-1.414c0.677-0.287,1.372-0.432,2.087-0.432c0.729,0,1.334,0.053,1.812,0.158
		c0.479,0.104,0.894,0.232,1.242,0.389l-0.409,1.551c-0.306-0.168-0.662-0.297-1.072-0.389s-0.882-0.137-1.414-0.137
		c-0.53,0-1.032,0.113-1.504,0.354c-0.472,0.236-0.89,0.615-1.254,1.141c-0.365,0.523-0.654,1.211-0.867,2.062
		c-0.213,0.851-0.319,1.893-0.319,3.123c0,2.221,0.379,3.889,1.141,5.006c0.761,1.117,1.771,1.676,3.031,1.676
		c0.519,0,0.98-0.072,1.393-0.217s0.76-0.314,1.049-0.514L44.323,205.708z"/>
</g>
</svg>
