<?xml version="1.0" encoding="utf-8"?>
<!-- Generator: Adobe Illustrator 14.0.0, SVG Export Plug-In . SVG Version: 6.00 Build 43363)  -->
<!DOCTYPE svg PUBLIC "-//W3C//DTD SVG 1.1//EN" "http://www.w3.org/Graphics/SVG/1.1/DTD/svg11.dtd">
<svg version="1.1" id="Layer_3" xmlns="http://www.w3.org/2000/svg" xmlns:xlink="http://www.w3.org/1999/xlink" x="0px" y="0px"
	 width="273.6px" height="144px" viewBox="0 0 273.6 144" enable-background="new 0 0 273.6 144" xml:space="preserve">
<path d="M265.712,82.373c0,1.705-1.379,3.086-3.086,3.086h-13.795c-1.701,0-3.086-1.377-3.086-3.086v-36.67
	c0-1.703,1.381-3.083,3.086-3.083h13.795c1.703,0,3.086,1.38,3.086,3.083V82.373z M264.49,48.885h-17.52v30.689h17.52V48.885z
	 M255.732,80.855c-0.988,0-1.791,0.801-1.791,1.791c0,0.986,0.803,1.789,1.791,1.789c0.986,0,1.789-0.803,1.789-1.789
	C257.521,81.656,256.718,80.855,255.732,80.855z"/>
<rect x="246.972" y="48.885" fill="#FFFFFF" width="17.518" height="30.689"/>
<path d="M53.917,92.127c0,1.459-1.184,2.643-2.645,2.643H10.534c-1.461,0-2.646-1.184-2.646-2.643V36.905
	c0-1.46,1.185-2.645,2.646-2.645h40.738c1.461,0,2.645,1.185,2.645,2.645V92.127L53.917,92.127z M49.608,39.558H12.199v49.466
	h37.409V39.558z M30.904,90.373c-0.902,0-1.635,0.732-1.635,1.635c0,0.904,0.73,1.637,1.635,1.637c0.901,0,1.633-0.73,1.633-1.637
	C32.536,91.105,31.805,90.373,30.904,90.373z M30.905,36.627c-0.374,0-0.678,0.303-0.678,0.677c0,0.372,0.304,0.676,0.678,0.676
	c0.372,0,0.675-0.304,0.675-0.676C31.579,36.93,31.277,36.627,30.905,36.627z"/>
<rect x="12.199" y="39.558" fill="#FFFFFF" width="37.409" height="49.466"/>
<circle fill="#FFFFFF" cx="30.904" cy="92.009" r="1.636"/>
<circle fill="#FFFFFF" cx="30.905" cy="37.302" r="0.676"/>
<path fill="#FFFFFF" d="M255.732,80.855c-0.988,0-1.791,0.801-1.791,1.789s0.803,1.791,1.791,1.791c0.986,0,1.789-0.803,1.789-1.791
	S256.718,80.855,255.732,80.855z"/>
<path fill="#FFFFFF" stroke="#000000" stroke-width="0.75" d="M160.376,113.947l4.896,13.551c0,0,0.326,0.645,1.514,0.688
	c1.189,0.041,1.908,0.211,1.908,0.211s0.848,0,1.016,1.482h-38.524c0.17-1.482,1.019-1.482,1.019-1.482s0.721-0.17,1.906-0.211
	c1.188-0.043,1.515-0.688,1.515-0.688l4.897-13.551"/>
<path fill="#FFFFFF" stroke="#000000" stroke-width="0.75" d="M220.632,110.039c0,2.166-1.754,3.916-3.916,3.916H86.646
	c-2.164,0-3.917-1.752-3.917-3.916v-92c0-2.164,1.754-3.918,3.917-3.918h130.07c2.162,0,3.914,1.754,3.914,3.918L220.632,110.039
	L220.632,110.039z"/>
<path d="M82.729,96.156V18.039c0-2.164,1.754-3.917,3.917-3.917h130.07c2.162,0,3.914,1.754,3.914,3.917v78.118H82.729
	L82.729,96.156z M216.507,18.248H87.122v72.946h129.385V18.248L216.507,18.248z"/>
</svg>
