<?xml version="1.0" encoding="utf-8"?>
<!-- Generator: Adobe Illustrator 14.0.0, SVG Export Plug-In . SVG Version: 6.00 Build 43363)  -->
<!DOCTYPE svg PUBLIC "-//W3C//DTD SVG 1.1//EN" "http://www.w3.org/Graphics/SVG/1.1/DTD/svg11.dtd">
<svg version="1.1" id="Layer_1" xmlns="http://www.w3.org/2000/svg" xmlns:xlink="http://www.w3.org/1999/xlink" x="0px" y="0px"
	 width="468px" height="468px" viewBox="0 0 468 468" enable-background="new 0 0 468 468" xml:space="preserve">
<g id="Layer_1_1_" display="none">
	<g id="Layer_2" display="inline">
	</g>
	<circle display="inline" fill="none" stroke="#FFFFFF" stroke-width="2" cx="126" cy="126.002" r="100.532"/>
	<circle display="inline" fill="none" stroke="#FFFFFF" stroke-width="0.5" cx="126" cy="126.002" r="96.132"/>
</g>
<g id="Layer_3">
	<path opacity="0.7" fill-rule="evenodd" clip-rule="evenodd" fill="#FFFFFF" enable-background="new    " d="M197.749,346.788
		c11.425,3.67,23.606,5.649,36.251,5.649c65.411,0,118.438-53.025,118.438-118.438S299.412,115.563,234,115.563
		c-65.41,0-118.438,53.027-118.438,118.438c0,6.238,0.482,12.363,1.411,18.34l-5.827,1.069c-0.991-6.325-1.506-12.807-1.506-19.409
		c0-68.682,55.679-124.36,124.358-124.36c68.682,0,124.361,55.679,124.361,124.36c0,68.681-55.678,124.358-124.36,124.358
		c-13.299,0-26.11-2.086-38.125-5.953L197.749,346.788z"/>
	<path opacity="0.95" fill-rule="evenodd" clip-rule="evenodd" fill="#FFFFFF" enable-background="new    " d="M234,367.139
		c-17.944,0-35.061-3.552-50.683-9.986c-48.39-19.938-82.454-67.562-82.454-123.147c0-73.529,59.607-133.139,133.137-133.139
		c65.562,0,120.061,47.396,131.098,109.796l-6.204,1.331C348.473,152.455,296.521,107.205,234,107.205
		c-70.027,0-126.797,56.769-126.797,126.798c0,52.911,32.41,98.254,78.46,117.257c14.896,6.146,31.22,9.539,48.336,9.539
		L234,367.139L234,367.139z"/>
	<path opacity="0.75" fill-rule="evenodd" clip-rule="evenodd" fill="#FFFFFF" enable-background="new    " d="M175.906,111.219
		c17.612-8.348,37.307-13.018,58.093-13.018c75.003,0,135.801,60.801,135.801,135.802c0,74.999-60.798,135.798-135.801,135.798
		c-55.728,0-103.614-33.566-124.546-81.586l-6.185,2.809c22,50.367,72.255,85.566,130.729,85.566
		c78.748,0,142.591-63.838,142.591-142.587c0-78.751-63.843-142.592-142.591-142.592c-21.788,0-42.436,4.888-60.904,13.626
		L175.906,111.219z"/>
	<path opacity="0.85" fill-rule="evenodd" clip-rule="evenodd" fill="#FFFFFF" enable-background="new    " d="M386.712,234.003
		c0,11.823-1.344,23.332-3.887,34.384c-15.6,67.781-76.312,118.325-148.827,118.325c-84.339,0-152.71-68.37-152.71-152.709
		c0-84.342,68.371-152.715,152.71-152.715c25.559,0,49.65,6.278,70.816,17.379l-3.569,6.34
		c-20.11-10.506-42.985-16.445-67.247-16.445C153.676,88.561,88.56,153.677,88.56,234.003c0,80.322,65.114,145.438,145.438,145.438
		c69.182,0,127.08-48.299,141.814-113.012c2.373-10.429,3.63-21.281,3.63-32.429L386.712,234.003L386.712,234.003z"/>
	<path fill-rule="evenodd" clip-rule="evenodd" fill="#FFFFFF" d="M233.998,78.235c86.029,0,155.77,69.74,155.77,155.769
		c0,86.023-69.737,155.764-155.77,155.764c-86.025,0-155.764-69.738-155.764-155.764C78.235,147.976,147.973,78.235,233.998,78.235z
		 M233.998,70.444c90.326,0,163.556,73.228,163.556,163.559c0,90.327-73.228,163.552-163.556,163.552
		c-90.326,0-163.554-73.224-163.554-163.552C70.444,143.673,143.672,70.444,233.998,70.444z"/>
	<path opacity="0.65" fill-rule="evenodd" clip-rule="evenodd" fill="#FFFFFF" enable-background="new    " d="M309.062,84.975
		c54.436,27.473,91.766,83.892,91.766,149.028c0,92.134-74.689,166.823-166.831,166.823c-92.131,0-166.821-74.689-166.821-166.823
		c0-55.27,26.877-104.263,68.272-134.62l-5.186-6.544c-43.319,31.892-71.43,83.246-71.43,141.165
		c0,96.74,78.427,175.161,175.164,175.161c96.743,0,175.169-78.421,175.169-175.161c0-68.403-39.206-127.648-96.371-156.49
		L309.062,84.975z"/>
	<path opacity="0.85" fill-rule="evenodd" clip-rule="evenodd" fill="#FFFFFF" enable-background="new    " d="M421.604,234.005
		c0-38.703-11.72-74.669-31.804-104.543c-33.683-50.102-90.894-83.065-155.802-83.065c-103.607,0-187.601,83.995-187.601,187.608
		c0,103.606,83.994,187.599,187.601,187.599c58.016,0,109.879-26.332,144.292-67.696l-6.921-5.646
		c-32.774,39.357-82.146,64.413-137.371,64.413c-98.673,0-178.668-79.993-178.668-178.668c0-98.679,79.995-178.676,178.668-178.676
		c61.82,0,116.306,31.396,148.386,79.111c19.129,28.45,30.289,62.704,30.289,99.563H421.604L421.604,234.005z"/>
</g>
<g id="Layer_5" opacity="0.7">
	<text transform="matrix(1 0 0 1 435.8496 234)" fill="#FFFFFF" font-family="'Futura-CondensedMedium'" font-size="11">15:00</text>
	
		<text transform="matrix(2.980232e-08 -1 1 2.980232e-08 233.9961 32.1528)" fill="#FFFFFF" font-family="'Futura-CondensedMedium'" font-size="11">0:00</text>
	
		<text transform="matrix(0.1045 -0.9945 0.9945 0.1045 255.0957 33.2573)" fill="#FFFFFF" font-family="'Futura-CondensedMedium'" font-size="10.9997">1:00</text>
	
		<text transform="matrix(0.2079 -0.9781 0.9781 0.2079 275.9609 36.5645)" fill="#FFFFFF" font-family="'Futura-CondensedMedium'" font-size="10.9985">2:00</text>
	
		<text transform="matrix(0.309 -0.9511 0.9511 0.309 296.3711 42.0288)" fill="#FFFFFF" font-family="'Futura-CondensedMedium'" font-size="11.0012">3:00</text>
	
		<text transform="matrix(0.4067 -0.9136 0.9136 0.4067 316.0928 49.5996)" fill="#FFFFFF" font-family="'Futura-CondensedMedium'" font-size="11.0002">4:00</text>
	
		<text transform="matrix(0.5 -0.866 0.866 0.5 334.9199 59.1924)" fill="#FFFFFF" font-family="'Futura-CondensedMedium'" font-size="10.9998">5:00</text>
	
		<text transform="matrix(0.5878 -0.809 0.809 0.5878 352.6416 70.6997)" fill="#FFFFFF" font-family="'Futura-CondensedMedium'" font-size="10.9999">6:00</text>
	
		<text transform="matrix(0.6691 -0.7431 0.7431 0.6691 369.0605 83.9971)" fill="#FFFFFF" font-family="'Futura-CondensedMedium'" font-size="10.9982">7:00</text>
	
		<text transform="matrix(0.7431 -0.6691 0.6691 0.7431 384 98.9351)" fill="#FFFFFF" font-family="'Futura-CondensedMedium'" font-size="10.9982">8:00</text>
	
		<text transform="matrix(0.809 -0.5878 0.5878 0.809 397.2949 115.354)" fill="#FFFFFF" font-family="'Futura-CondensedMedium'" font-size="10.9999">9:00</text>
	
		<text transform="matrix(0.866 -0.5 0.5 0.866 408.8047 133.0723)" fill="#FFFFFF" font-family="'Futura-CondensedMedium'" font-size="10.9998">10:00</text>
	
		<text transform="matrix(0.9136 -0.4067 0.4067 0.9136 418.3955 151.897)" fill="#FFFFFF" font-family="'Futura-CondensedMedium'" font-size="11.0002">11:00</text>
	
		<text transform="matrix(0.9511 -0.309 0.309 0.9511 425.9668 171.6221)" fill="#FFFFFF" font-family="'Futura-CondensedMedium'" font-size="11.0012">12:00</text>
	
		<text transform="matrix(0.9781 -0.2079 0.2079 0.9781 431.4365 192.0298)" fill="#FFFFFF" font-family="'Futura-CondensedMedium'" font-size="10.9985">13:00</text>
	
		<text transform="matrix(0.9945 -0.1045 0.1045 0.9945 434.7402 212.8975)" fill="#FFFFFF" font-family="'Futura-CondensedMedium'" font-size="10.9997">14:00</text>
	<text transform="matrix(-1 0 0 -1 32.1504 234.0039)" fill="#FFFFFF" font-family="'Futura-CondensedMedium'" font-size="11">45:00</text>
	
		<text transform="matrix(-0.9945 -0.1045 0.1045 -0.9945 33.2563 212.9053)" fill="#FFFFFF" font-family="'Futura-CondensedMedium'" font-size="10.9997">46:00</text>
	
		<text transform="matrix(-0.9781 -0.2079 0.2079 -0.9781 36.5659 192.0386)" fill="#FFFFFF" font-family="'Futura-CondensedMedium'" font-size="10.9985">47:00</text>
	
		<text transform="matrix(-0.9511 -0.309 0.309 -0.9511 42.0308 171.6328)" fill="#FFFFFF" font-family="'Futura-CondensedMedium'" font-size="11.0012">48:00</text>
	
		<text transform="matrix(-0.9136 -0.4067 0.4067 -0.9136 49.6011 151.9053)" fill="#FFFFFF" font-family="'Futura-CondensedMedium'" font-size="11.0002">49:00</text>
	
		<text transform="matrix(-0.866 -0.5 0.5 -0.866 59.1914 133.0781)" fill="#FFFFFF" font-family="'Futura-CondensedMedium'" font-size="10.9998">50:00</text>
	
		<text transform="matrix(-0.809 -0.5878 0.5878 -0.809 70.7007 115.3574)" fill="#FFFFFF" font-family="'Futura-CondensedMedium'" font-size="10.9999">51:00</text>
	
		<text transform="matrix(-0.7431 -0.6691 0.6691 -0.7431 83.9976 98.9409)" fill="#FFFFFF" font-family="'Futura-CondensedMedium'" font-size="10.9982">52:00</text>
	
		<text transform="matrix(-0.6691 -0.7431 0.7431 -0.6691 98.9351 83.998)" fill="#FFFFFF" font-family="'Futura-CondensedMedium'" font-size="10.9982">53:00</text>
	
		<text transform="matrix(-0.5878 -0.809 0.809 -0.5878 115.3535 70.7031)" fill="#FFFFFF" font-family="'Futura-CondensedMedium'" font-size="10.9999">54:00</text>
	
		<text transform="matrix(-0.5 -0.866 0.866 -0.5 133.0728 59.1973)" fill="#FFFFFF" font-family="'Futura-CondensedMedium'" font-size="10.9998">55:00</text>
	
		<text transform="matrix(-0.4067 -0.9136 0.9136 -0.4067 151.8975 49.6055)" fill="#FFFFFF" font-family="'Futura-CondensedMedium'" font-size="11.0002">56:00</text>
	
		<text transform="matrix(-0.309 -0.9511 0.9511 -0.309 171.6211 42.0303)" fill="#FFFFFF" font-family="'Futura-CondensedMedium'" font-size="11.0012">57:00</text>
	
		<text transform="matrix(-0.2079 -0.9781 0.9781 -0.2079 192.0298 36.5625)" fill="#FFFFFF" font-family="'Futura-CondensedMedium'" font-size="10.9985">58:00</text>
	
		<text transform="matrix(-0.1045 -0.9945 0.9945 -0.1045 212.897 33.2578)" fill="#FFFFFF" font-family="'Futura-CondensedMedium'" font-size="10.9997">59:00</text>
	
		<text transform="matrix(-2.989212e-08 1 -1 -2.989212e-08 234.0039 435.8467)" fill="#FFFFFF" font-family="'Futura-CondensedMedium'" font-size="11">30:00</text>
	
		<text transform="matrix(-0.1045 0.9945 -0.9945 -0.1045 212.9053 434.7432)" fill="#FFFFFF" font-family="'Futura-CondensedMedium'" font-size="10.9997">31:00</text>
	
		<text transform="matrix(-0.2079 0.9781 -0.9781 -0.2079 192.0391 431.4375)" fill="#FFFFFF" font-family="'Futura-CondensedMedium'" font-size="10.9985">32:00</text>
	
		<text transform="matrix(-0.309 0.9511 -0.9511 -0.309 171.6328 425.9707)" fill="#FFFFFF" font-family="'Futura-CondensedMedium'" font-size="11.0012">33:00</text>
	
		<text transform="matrix(-0.4067 0.9136 -0.9136 -0.4067 151.9043 418.3984)" fill="#FFFFFF" font-family="'Futura-CondensedMedium'" font-size="11.0002">34:00</text>
	
		<text transform="matrix(-0.5 0.866 -0.866 -0.5 133.0781 408.8066)" fill="#FFFFFF" font-family="'Futura-CondensedMedium'" font-size="10.9998">35:00</text>
	
		<text transform="matrix(-0.5878 0.809 -0.809 -0.5878 115.3613 397.2998)" fill="#FFFFFF" font-family="'Futura-CondensedMedium'" font-size="10.9999">36:00</text>
	
		<text transform="matrix(-0.6691 0.7431 -0.7431 -0.6691 98.939 384.0049)" fill="#FFFFFF" font-family="'Futura-CondensedMedium'" font-size="10.9982">37:00</text>
	
		<text transform="matrix(-0.7431 0.6691 -0.6691 -0.7431 84.0005 369.0664)" fill="#FFFFFF" font-family="'Futura-CondensedMedium'" font-size="10.9982">38:00</text>
	
		<text transform="matrix(-0.809 0.5878 -0.5878 -0.809 70.7051 352.6455)" fill="#FFFFFF" font-family="'Futura-CondensedMedium'" font-size="10.9999">39:00</text>
	
		<text transform="matrix(-0.866 0.5 -0.5 -0.866 59.1953 334.9268)" fill="#FFFFFF" font-family="'Futura-CondensedMedium'" font-size="10.9998">40:00</text>
	
		<text transform="matrix(-0.9136 0.4067 -0.4067 -0.9136 49.603 316.1016)" fill="#FFFFFF" font-family="'Futura-CondensedMedium'" font-size="11.0002">41:00</text>
	
		<text transform="matrix(-0.9511 0.309 -0.309 -0.9511 42.0293 296.377)" fill="#FFFFFF" font-family="'Futura-CondensedMedium'" font-size="11.0012">42:00</text>
	
		<text transform="matrix(-0.9781 0.2079 -0.2079 -0.9781 36.563 275.9707)" fill="#FFFFFF" font-family="'Futura-CondensedMedium'" font-size="10.9985">43:00</text>
	
		<text transform="matrix(-0.9945 0.1045 -0.1045 -0.9945 33.2598 255.1045)" fill="#FFFFFF" font-family="'Futura-CondensedMedium'" font-size="10.9997">44:00</text>
	
		<text transform="matrix(0.9945 0.1045 -0.1045 0.9945 434.7432 255.0947)" fill="#FFFFFF" font-family="'Futura-CondensedMedium'" font-size="10.9997">16:00</text>
	
		<text transform="matrix(0.9781 0.2079 -0.2079 0.9781 431.4346 275.9609)" fill="#FFFFFF" font-family="'Futura-CondensedMedium'" font-size="10.9985">17:00</text>
	
		<text transform="matrix(0.9511 0.309 -0.309 0.9511 425.9707 296.3701)" fill="#FFFFFF" font-family="'Futura-CondensedMedium'" font-size="11.0012">18:00</text>
	
		<text transform="matrix(0.9136 0.4067 -0.4067 0.9136 418.3984 316.0938)" fill="#FFFFFF" font-family="'Futura-CondensedMedium'" font-size="11.0002">19:00</text>
	
		<text transform="matrix(0.866 0.5 -0.5 0.866 408.8086 334.9199)" fill="#FFFFFF" font-family="'Futura-CondensedMedium'" font-size="10.9998">20:00</text>
	
		<text transform="matrix(0.809 0.5878 -0.5878 0.809 397.3008 352.6406)" fill="#FFFFFF" font-family="'Futura-CondensedMedium'" font-size="10.9999">21:00</text>
	
		<text transform="matrix(0.7431 0.6691 -0.6691 0.7431 384.0039 369.0625)" fill="#FFFFFF" font-family="'Futura-CondensedMedium'" font-size="10.9982">22:00</text>
	
		<text transform="matrix(0.6691 0.7431 -0.7431 0.6691 369.0664 384)" fill="#FFFFFF" font-family="'Futura-CondensedMedium'" font-size="10.9982">23:00</text>
	
		<text transform="matrix(0.5878 0.809 -0.809 0.5878 352.6455 397.2949)" fill="#FFFFFF" font-family="'Futura-CondensedMedium'" font-size="10.9999">24:00</text>
	
		<text transform="matrix(0.5 0.866 -0.866 0.5 334.9277 408.8037)" fill="#FFFFFF" font-family="'Futura-CondensedMedium'" font-size="10.9998">25:00</text>
	
		<text transform="matrix(0.4067 0.9136 -0.9136 0.4067 316.1045 418.3945)" fill="#FFFFFF" font-family="'Futura-CondensedMedium'" font-size="11.0002">26:00</text>
	
		<text transform="matrix(0.309 0.9511 -0.9511 0.309 296.3789 425.9668)" fill="#FFFFFF" font-family="'Futura-CondensedMedium'" font-size="11.0012">27:00</text>
	
		<text transform="matrix(0.2079 0.9781 -0.9781 0.2079 275.9688 431.4355)" fill="#FFFFFF" font-family="'Futura-CondensedMedium'" font-size="10.9985">28:00</text>
	
		<text transform="matrix(0.1045 0.9945 -0.9945 0.1045 255.1045 434.7412)" fill="#FFFFFF" font-family="'Futura-CondensedMedium'" font-size="10.9997">29:00</text>
</g>
<g id="Layer_4">
	
		<path opacity="0.85" fill-rule="evenodd" clip-rule="evenodd" fill="none" stroke="#FFFFFF" stroke-width="80" stroke-dasharray="0.25,2" enable-background="new    " d="
		M233.998,79.793c85.17,0,154.212,69.044,154.212,154.211c0,85.164-69.043,154.206-154.212,154.206
		c-85.164,0-154.206-69.042-154.206-154.206C79.793,148.836,148.834,79.793,233.998,79.793z"/>
</g>
</svg>
