<?xml version="1.0" encoding="utf-8"?>
<!-- Generator: Adobe Illustrator 14.0.0, SVG Export Plug-In . SVG Version: 6.00 Build 43363)  -->
<!DOCTYPE svg PUBLIC "-//W3C//DTD SVG 1.1//EN" "http://www.w3.org/Graphics/SVG/1.1/DTD/svg11.dtd">
<svg version="1.1" xmlns="http://www.w3.org/2000/svg" xmlns:xlink="http://www.w3.org/1999/xlink" x="0px" y="0px" width="432px"
	 height="432px" viewBox="-90 -90 432 432" enable-background="new -90 -90 432 432" xml:space="preserve">
<g id="Layer_1">
	<g id="Layer_2">
	</g>
	
		<circle fill-rule="evenodd" clip-rule="evenodd" fill="none" stroke="#FFFFFF" stroke-width="2" cx="126" cy="126.002" r="100.532"/>
	
		<circle fill-rule="evenodd" clip-rule="evenodd" fill="none" stroke="#FFFFFF" stroke-width="0.5" cx="126" cy="126.002" r="96.132"/>
</g>
<g id="Layer_5">
	<text transform="matrix(1 0 0 1 309.5 126)" opacity="0.5" font-family="'Futura-CondensedMedium'" font-size="10">15:00</text>
	<text transform="matrix(0 -1 1 0 125.915 -57.416)" opacity="0.5" font-family="'Futura-CondensedMedium'" font-size="10">0:00</text>
	
		<text transform="matrix(0.1045 -0.9945 0.9945 0.1045 145.1758 -56.4668)" opacity="0.5" font-family="'Futura-CondensedMedium'" font-size="10">1:00</text>
	
		<text transform="matrix(0.2079 -0.9782 0.9782 0.2079 164.1543 -53.5239)" opacity="0.5" font-family="'Futura-CondensedMedium'" font-size="10">2:00</text>
	
		<text transform="matrix(0.309 -0.9511 0.9511 0.309 182.7559 -48.5234)" opacity="0.5" font-family="'Futura-CondensedMedium'" font-size="10">3:00</text>
	
		<text transform="matrix(0.4067 -0.9136 0.9136 0.4067 200.6992 -41.647)" opacity="0.5" font-family="'Futura-CondensedMedium'" font-size="10">4:00</text>
	
		<text transform="matrix(0.5 -0.866 0.866 0.5 217.7842 -32.9551)" opacity="0.5" font-family="'Futura-CondensedMedium'" font-size="10">5:00</text>
	
		<text transform="matrix(0.5878 -0.809 0.809 0.5878 233.9209 -22.4424)" opacity="0.5" font-family="'Futura-CondensedMedium'" font-size="10">6:00</text>
	
		<text transform="matrix(0.6691 -0.7431 0.7431 0.6691 248.7383 -10.333)" opacity="0.5" font-family="'Futura-CondensedMedium'" font-size="10">7:00</text>
	
		<text transform="matrix(0.7431 -0.6691 0.6691 0.7431 262.3193 3.1792)" opacity="0.5" font-family="'Futura-CondensedMedium'" font-size="10">8:00</text>
	
		<text transform="matrix(0.809 -0.5878 0.5878 0.809 274.5166 18.125)" opacity="0.5" font-family="'Futura-CondensedMedium'" font-size="10">9:00</text>
	
		<text transform="matrix(0.866 -0.5 0.5 0.866 284.9512 34.2856)" opacity="0.5" font-family="'Futura-CondensedMedium'" font-size="10">10:00</text>
	
		<text transform="matrix(0.9136 -0.4067 0.4067 0.9136 293.6973 51.3711)" opacity="0.5" font-family="'Futura-CondensedMedium'" font-size="10">11:00</text>
	
		<text transform="matrix(0.9511 -0.309 0.309 0.9511 300.5693 69.2959)" opacity="0.5" font-family="'Futura-CondensedMedium'" font-size="10">12:00</text>
	
		<text transform="matrix(0.9782 -0.2079 0.2079 0.9782 305.4932 87.8794)" opacity="0.5" font-family="'Futura-CondensedMedium'" font-size="10">13:00</text>
	
		<text transform="matrix(0.9945 -0.1045 0.1045 0.9945 308.4883 106.7876)" opacity="0.5" font-family="'Futura-CondensedMedium'" font-size="10">14:00</text>
	<text transform="matrix(-1 0 0 -1 -57.5 126.0029)" opacity="0.5" font-family="'Futura-CondensedMedium'" font-size="10">45:00</text>
	
		<text transform="matrix(-0.9945 -0.1045 0.1045 -0.9945 -56.4668 106.8242)" opacity="0.5" font-family="'Futura-CondensedMedium'" font-size="10">46:00</text>
	
		<text transform="matrix(-0.9782 -0.2079 0.2079 -0.9782 -53.5239 87.8457)" opacity="0.5" font-family="'Futura-CondensedMedium'" font-size="10">47:00</text>
	
		<text transform="matrix(-0.9511 -0.309 0.309 -0.9511 -48.5234 69.2441)" opacity="0.5" font-family="'Futura-CondensedMedium'" font-size="10">48:00</text>
	
		<text transform="matrix(-0.9136 -0.4067 0.4067 -0.9136 -41.647 51.3008)" opacity="0.5" font-family="'Futura-CondensedMedium'" font-size="10">49:00</text>
	
		<text transform="matrix(-0.866 -0.5 0.5 -0.866 -32.9551 34.2158)" opacity="0.5" font-family="'Futura-CondensedMedium'" font-size="10">50:00</text>
	
		<text transform="matrix(-0.809 -0.5878 0.5878 -0.809 -22.4424 18.0791)" opacity="0.5" font-family="'Futura-CondensedMedium'" font-size="10">51:00</text>
	
		<text transform="matrix(-0.7431 -0.6691 0.6691 -0.7431 -10.333 3.2617)" opacity="0.5" font-family="'Futura-CondensedMedium'" font-size="10">52:00</text>
	
		<text transform="matrix(-0.6691 -0.7431 0.7431 -0.6691 3.1792 -10.3193)" opacity="0.5" font-family="'Futura-CondensedMedium'" font-size="10">53:00</text>
	
		<text transform="matrix(-0.5878 -0.809 0.809 -0.5878 18.125 -22.5166)" opacity="0.5" font-family="'Futura-CondensedMedium'" font-size="10">54:00</text>
	
		<text transform="matrix(-0.5 -0.866 0.866 -0.5 34.2856 -32.9512)" opacity="0.5" font-family="'Futura-CondensedMedium'" font-size="10">55:00</text>
	
		<text transform="matrix(-0.4067 -0.9136 0.9136 -0.4067 51.3711 -41.6973)" opacity="0.5" font-family="'Futura-CondensedMedium'" font-size="10">56:00</text>
	
		<text transform="matrix(-0.309 -0.9511 0.9511 -0.309 69.2959 -48.5703)" opacity="0.5" font-family="'Futura-CondensedMedium'" font-size="10">57:00</text>
	
		<text transform="matrix(-0.2079 -0.9782 0.9782 -0.2079 87.8794 -53.4932)" opacity="0.5" font-family="'Futura-CondensedMedium'" font-size="10">58:00</text>
	
		<text transform="matrix(-0.1045 -0.9945 0.9945 -0.1045 106.7876 -56.4883)" opacity="0.5" font-family="'Futura-CondensedMedium'" font-size="10">59:00</text>
	<text transform="matrix(0 1 -1 0 126.085 309.416)" opacity="0.5" font-family="'Futura-CondensedMedium'" font-size="10">30:00</text>
	
		<text transform="matrix(-0.1045 0.9945 -0.9945 -0.1045 106.8242 308.4668)" opacity="0.5" font-family="'Futura-CondensedMedium'" font-size="10">31:00</text>
	
		<text transform="matrix(-0.2079 0.9782 -0.9782 -0.2079 87.8457 305.5234)" opacity="0.5" font-family="'Futura-CondensedMedium'" font-size="10">32:00</text>
	
		<text transform="matrix(-0.309 0.9511 -0.9511 -0.309 69.2441 300.5234)" opacity="0.5" font-family="'Futura-CondensedMedium'" font-size="10">33:00</text>
	
		<text transform="matrix(-0.4067 0.9136 -0.9136 -0.4067 51.3008 293.6465)" opacity="0.5" font-family="'Futura-CondensedMedium'" font-size="10">34:00</text>
	
		<text transform="matrix(-0.5 0.866 -0.866 -0.5 34.2158 284.9551)" opacity="0.5" font-family="'Futura-CondensedMedium'" font-size="10">35:00</text>
	
		<text transform="matrix(-0.5878 0.809 -0.809 -0.5878 18.0791 274.4424)" opacity="0.5" font-family="'Futura-CondensedMedium'" font-size="10">36:00</text>
	
		<text transform="matrix(-0.6691 0.7431 -0.7431 -0.6691 3.2617 262.333)" opacity="0.5" font-family="'Futura-CondensedMedium'" font-size="10">37:00</text>
	
		<text transform="matrix(-0.7431 0.6691 -0.6691 -0.7431 -10.3193 248.8203)" opacity="0.5" font-family="'Futura-CondensedMedium'" font-size="10">38:00</text>
	
		<text transform="matrix(-0.809 0.5878 -0.5878 -0.809 -22.5166 233.875)" opacity="0.5" font-family="'Futura-CondensedMedium'" font-size="10">39:00</text>
	
		<text transform="matrix(-0.866 0.5 -0.5 -0.866 -32.9512 217.7139)" opacity="0.5" font-family="'Futura-CondensedMedium'" font-size="10">40:00</text>
	
		<text transform="matrix(-0.9136 0.4067 -0.4067 -0.9136 -41.6973 200.6299)" opacity="0.5" font-family="'Futura-CondensedMedium'" font-size="10">41:00</text>
	
		<text transform="matrix(-0.9511 0.309 -0.309 -0.9511 -48.5703 182.7041)" opacity="0.5" font-family="'Futura-CondensedMedium'" font-size="10">42:00</text>
	
		<text transform="matrix(-0.9782 0.2079 -0.2079 -0.9782 -53.4932 164.1201)" opacity="0.5" font-family="'Futura-CondensedMedium'" font-size="10">43:00</text>
	
		<text transform="matrix(-0.9945 0.1045 -0.1045 -0.9945 -56.4883 145.2129)" opacity="0.5" font-family="'Futura-CondensedMedium'" font-size="10">44:00</text>
	
		<text transform="matrix(0.9945 0.1045 -0.1045 0.9945 308.4668 145.1758)" opacity="0.5" font-family="'Futura-CondensedMedium'" font-size="10">16:00</text>
	
		<text transform="matrix(0.9782 0.2079 -0.2079 0.9782 305.5234 164.1543)" opacity="0.5" font-family="'Futura-CondensedMedium'" font-size="10">17:00</text>
	
		<text transform="matrix(0.9511 0.309 -0.309 0.9511 300.5234 182.7559)" opacity="0.5" font-family="'Futura-CondensedMedium'" font-size="10">18:00</text>
	
		<text transform="matrix(0.9136 0.4067 -0.4067 0.9136 293.6465 200.6992)" opacity="0.5" font-family="'Futura-CondensedMedium'" font-size="10">19:00</text>
	
		<text transform="matrix(0.866 0.5 -0.5 0.866 284.9551 217.7842)" opacity="0.5" font-family="'Futura-CondensedMedium'" font-size="10">20:00</text>
	
		<text transform="matrix(0.809 0.5878 -0.5878 0.809 274.4424 233.9209)" opacity="0.5" font-family="'Futura-CondensedMedium'" font-size="10">21:00</text>
	
		<text transform="matrix(0.7431 0.6691 -0.6691 0.7431 262.333 248.7383)" opacity="0.5" font-family="'Futura-CondensedMedium'" font-size="10">22:00</text>
	
		<text transform="matrix(0.6691 0.7431 -0.7431 0.6691 248.8203 262.3193)" opacity="0.5" font-family="'Futura-CondensedMedium'" font-size="10">23:00</text>
	
		<text transform="matrix(0.5878 0.809 -0.809 0.5878 233.875 274.5166)" opacity="0.5" font-family="'Futura-CondensedMedium'" font-size="10">24:00</text>
	
		<text transform="matrix(0.5 0.866 -0.866 0.5 217.7139 284.9512)" opacity="0.5" font-family="'Futura-CondensedMedium'" font-size="10">25:00</text>
	
		<text transform="matrix(0.4067 0.9136 -0.9136 0.4067 200.6299 293.6973)" opacity="0.5" font-family="'Futura-CondensedMedium'" font-size="10">26:00</text>
	
		<text transform="matrix(0.309 0.9511 -0.9511 0.309 182.7041 300.5703)" opacity="0.5" font-family="'Futura-CondensedMedium'" font-size="10">27:00</text>
	
		<text transform="matrix(0.2079 0.9782 -0.9782 0.2079 164.1201 305.4932)" opacity="0.5" font-family="'Futura-CondensedMedium'" font-size="10">28:00</text>
	
		<text transform="matrix(0.1045 0.9945 -0.9945 0.1045 145.2129 308.4883)" opacity="0.5" font-family="'Futura-CondensedMedium'" font-size="10">29:00</text>
</g>
<g id="Layer_4">
	
		<path opacity="0.8" fill-rule="evenodd" clip-rule="evenodd" fill="none" stroke="#848484" stroke-width="80" stroke-dasharray="0.3,2" d="
		M125.998-14.188c77.428,0,140.193,62.767,140.193,140.192c0,77.422-62.766,140.188-140.193,140.188
		c-77.422,0-140.187-62.766-140.187-140.188C-14.188,48.578,48.576-14.188,125.998-14.188z"/>
</g>
<g id="Layer_3">
	<path opacity="0.8" fill-rule="evenodd" clip-rule="evenodd" fill="#CCDD59" d="M93.045,228.535
		c10.386,3.336,21.46,5.137,32.955,5.137c59.465,0,107.671-48.206,107.671-107.67c0-59.465-48.206-107.671-107.671-107.671
		c-59.464,0-107.67,48.206-107.67,107.671c0,5.671,0.438,11.239,1.283,16.673l-5.298,0.971c-0.901-5.749-1.369-11.642-1.369-17.644
		c0-62.438,50.617-113.055,113.053-113.055c62.438,0,113.056,50.617,113.056,113.055c0,62.437-50.618,113.053-113.056,113.053
		c-12.09,0-23.737-1.897-34.659-5.412L93.045,228.535z"/>
	<path opacity="0.6" fill-rule="evenodd" clip-rule="evenodd" fill="#CCDD59" d="M126,247.035c-16.313,0-31.873-3.228-46.075-9.079
		C35.934,219.832,4.967,176.534,4.967,126.003C4.967,59.158,59.156,4.968,126,4.968c59.604,0,109.147,43.087,119.18,99.814
		l-5.64,1.21C230.066,51.868,182.837,10.732,126,10.732c-63.661,0-115.27,51.608-115.27,115.271
		c0,48.101,29.464,89.321,71.327,106.596c13.542,5.589,28.382,8.672,43.942,8.672V247.035z"/>
	<path opacity="0.4" fill-rule="evenodd" clip-rule="evenodd" fill="#CCDD59" d="M73.188,14.381
		c16.011-7.589,33.915-11.834,52.811-11.834c68.184,0,123.455,55.273,123.455,123.456c0,68.181-55.271,123.452-123.455,123.452
		c-50.661,0-94.195-30.516-113.223-74.169l-5.622,2.554c20,45.787,65.686,77.787,118.844,77.787
		c71.59,0,129.628-58.034,129.628-129.624c0-71.592-58.038-129.629-129.628-129.629c-19.807,0-38.577,4.443-55.367,12.387
		L73.188,14.381z"/>
	<path opacity="0.7" fill-rule="evenodd" clip-rule="evenodd" fill="#CCDD59" d="M264.829,126.003
		c0,10.748-1.222,21.211-3.533,31.258c-14.18,61.619-69.374,107.568-135.298,107.568c-76.671,0-138.827-62.154-138.827-138.826
		c0-76.675,62.156-138.832,138.827-138.832c23.235,0,45.137,5.708,64.38,15.799l-3.246,5.764
		c-18.283-9.551-39.078-14.951-61.134-14.951C52.978-6.218-6.218,52.979-6.218,126.003c0,73.021,59.195,132.217,132.216,132.217
		c62.893,0,115.527-43.907,128.924-102.738c2.158-9.479,3.298-19.346,3.298-29.479H264.829z"/>
	<path opacity="0.9" fill-rule="evenodd" clip-rule="evenodd" fill="#CCDD59" d="M125.998-15.604
		c78.21,0,141.609,63.4,141.609,141.608c0,78.204-63.399,141.604-141.609,141.604c-78.204,0-141.603-63.399-141.603-141.604
		C-15.604,47.796,47.794-15.604,125.998-15.604z M125.998-22.687c82.116,0,148.688,66.571,148.688,148.69
		c0,82.115-66.571,148.682-148.688,148.682c-82.114,0-148.685-66.566-148.685-148.682C-22.687,43.885,43.884-22.687,125.998-22.687z
		"/>
	<path opacity="0.8" fill-rule="evenodd" clip-rule="evenodd" fill="#CCDD59" d="M194.238-9.477
		c49.486,24.975,83.423,76.265,83.423,135.48c0,83.758-67.899,151.657-151.664,151.657c-83.756,0-151.656-67.899-151.656-151.657
		c0-50.245,24.434-94.784,62.066-122.382l-4.714-5.949C-7.689,26.664-33.243,73.35-33.243,126.004
		c0,87.945,71.296,159.237,159.24,159.237c87.948,0,159.244-71.292,159.244-159.237c0-62.185-35.642-116.044-87.61-142.264
		L194.238-9.477z"/>
	<path opacity="0.6" fill-rule="evenodd" clip-rule="evenodd" fill="#CCDD59" d="M296.549,126.005
		c0-35.185-10.654-67.881-28.912-95.039c-30.621-45.547-82.631-75.515-141.639-75.515c-94.188,0-170.546,76.36-170.546,170.554
		c0,94.188,76.359,170.543,170.546,170.543c52.741,0,99.891-23.939,131.175-61.543l-6.292-5.133
		c-29.795,35.781-74.678,58.557-124.883,58.557c-89.702,0-162.425-72.721-162.425-162.424c0-89.708,72.723-162.433,162.425-162.433
		c56.201,0,105.733,28.542,134.897,71.919c17.389,25.864,27.535,57.004,27.535,90.513H296.549z"/>
</g>
</svg>
