<?xml version="1.0" encoding="utf-8"?>
<!-- Generator: Adobe Illustrator 14.0.0, SVG Export Plug-In . SVG Version: 6.00 Build 43363)  -->
<!DOCTYPE svg PUBLIC "-//W3C//DTD SVG 1.1//EN" "http://www.w3.org/Graphics/SVG/1.1/DTD/svg11.dtd">
<svg version="1.1" id="Layer_1" xmlns="http://www.w3.org/2000/svg" xmlns:xlink="http://www.w3.org/1999/xlink" x="0px" y="0px"
	 width="130px" height="40px" viewBox="0 0 130 40" enable-background="new 0 0 130 40" xml:space="preserve">
<g id="Layer_1_2_">
	<g id="Layer_1_1_" display="none">
		
			<text transform="matrix(1 0 0 1 22.0269 157.9336)" display="inline" fill="#659099" font-family="'PTSans-NarrowBold'" font-size="63.7596">DORA CHAN</text>
		<g id="Layer_2_4_" display="inline">
			<g id="Layer_2_5_">
				<path d="M158.646,73.926l-9.033-12.832l7.974-16.402h-8.955l-4.101,9.939l-6.146-8.883c1.316-0.809,2.582-1.695,3.793-2.657
					c1.217-0.958,2.277-2.022,3.189-3.188c0.906-1.158,1.643-2.447,2.199-3.866c0.559-1.417,0.834-2.987,0.834-4.709
					c0-1.976-0.303-3.743-0.904-5.313c-0.604-1.566-1.438-2.895-2.496-3.984c-1.062-1.088-2.322-1.922-3.783-2.504
					c-1.461-0.58-3.078-0.873-4.842-0.873c-1.812,0-3.521,0.317-5.107,0.951c-1.59,0.634-2.949,1.531-4.086,2.695
					c-1.137,1.165-2.029,2.581-2.688,4.25c-0.654,1.669-0.986,3.542-0.986,5.618c0,2.176,0.328,4.188,0.988,6.029
					c0.652,1.853,1.691,3.787,3.109,5.811c-2.584,1.521-4.744,3.521-6.488,6c-1.748,2.479-2.617,5.564-2.617,9.26
					c0,5.063,1.291,8.976,3.869,11.729c2.582,2.76,6.021,4.139,10.322,4.139c2.936,0,5.352-0.663,7.25-1.989
					c1.896-1.328,3.35-2.918,4.355-4.771l3.873,5.553H158.646z M139.825,61.999c-0.455,1.317-1.218,2.543-2.275,3.678
					c-1.062,1.142-2.399,1.709-4.021,1.709c-1.926,0-3.479-0.77-4.67-2.315c-1.188-1.543-1.781-3.648-1.781-6.334
					c0-2.271,0.479-4.125,1.439-5.543c0.961-1.414,2-2.479,3.104-3.188L139.825,61.999z M138.812,36.986
					c-1.127,1.393-2.441,2.591-3.945,3.604c-1.008-1.414-1.76-2.777-2.262-4.095c-0.5-1.313-0.752-2.761-0.752-4.328
					c0-1.823,0.414-3.366,1.242-4.629c0.82-1.267,1.918-1.897,3.271-1.897s2.383,0.579,3.084,1.744
					c0.7,1.166,1.055,2.655,1.055,4.477C140.508,33.889,139.941,35.594,138.812,36.986z M201.758,73.926l-9.031-12.832l7.971-16.402
					h-8.945l-4.104,9.939l-6.146-8.883c1.312-0.809,2.57-1.695,3.795-2.657c1.215-0.958,2.271-2.022,3.188-3.188
					c0.914-1.158,1.646-2.447,2.203-3.866c0.562-1.417,0.836-2.987,0.836-4.709c0-1.976-0.31-3.743-0.91-5.313
					c-0.604-1.566-1.438-2.895-2.489-3.984c-1.062-1.088-2.317-1.922-3.779-2.504c-1.461-0.58-3.075-0.873-4.844-0.873
					c-1.812,0-3.521,0.317-5.104,0.951c-1.588,0.634-2.949,1.531-4.086,2.695c-1.14,1.165-2.023,2.581-2.688,4.25
					c-0.652,1.669-0.979,3.542-0.979,5.618c0,2.176,0.326,4.188,0.982,6.029c0.648,1.853,1.689,3.787,3.105,5.811
					c-2.58,1.521-4.744,3.521-6.491,6c-1.739,2.479-2.612,5.564-2.612,9.26c0,5.063,1.291,8.976,3.873,11.729
					c2.58,2.76,6.021,4.139,10.316,4.139c2.934,0,5.354-0.663,7.25-1.989c1.896-1.328,3.354-2.918,4.359-4.771l3.875,5.553H201.758z
					 M182.938,61.999c-0.451,1.317-1.211,2.543-2.271,3.678c-1.062,1.142-2.396,1.709-4.021,1.709c-1.924,0-3.479-0.77-4.666-2.315
					c-1.189-1.543-1.785-3.648-1.785-6.334c0-2.271,0.479-4.125,1.438-5.543c0.963-1.414,2-2.479,3.115-3.188L182.938,61.999z
					 M181.932,36.986c-1.131,1.393-2.445,2.591-3.951,3.604c-1.004-1.414-1.758-2.777-2.262-4.095c-0.5-1.313-0.75-2.761-0.75-4.328
					c0-1.823,0.412-3.366,1.238-4.629c0.83-1.267,1.922-1.897,3.271-1.897c1.354,0,2.387,0.579,3.082,1.744
					c0.701,1.166,1.061,2.655,1.061,4.477C183.622,33.889,183.061,35.594,181.932,36.986z"/>
			</g>
			<path fill="none" stroke="#000000" stroke-width="3" d="M203.1,83.695c6.914,0,12.521-5.604,12.521-12.521V22.598
				c0-6.914-5.604-12.52-12.521-12.52h-86.195c-6.916,0-12.521,5.606-12.521,12.52v48.576c0,6.916,5.604,12.521,12.521,12.521
				h64.312l20.549,16.994L203.1,83.695z"/>
		</g>
		
			<text transform="matrix(1 0 0 1 63.918 194.0234)" display="inline" fill="#CCDD59" font-family="'PTSans-Narrow'" font-size="36">WEB DESIGNER</text>
		<text transform="matrix(1 0 0 1 92.9766 210.0234)" display="inline" font-family="'PTSans-Narrow'" font-size="14">ASPIRATIONAL DEVELOPER</text>
		<g id="Layer_3_2_" display="inline">
			<line fill="none" stroke="#000000" stroke-width="1.4" x1="294.967" y1="162.562" x2="24.967" y2="162.562"/>
		</g>
	</g>
	<g id="Layer_2_2_" display="none">
		<path display="inline" fill="none" stroke="#000000" stroke-width="3" d="M203.1,83.695c6.914,0,12.521-5.604,12.521-12.521
			V22.598c0-6.914-5.604-12.52-12.521-12.52h-86.195c-6.916,0-12.521,5.606-12.521,12.52v48.576c0,6.916,5.604,12.521,12.521,12.521
			h64.312l20.549,16.994L203.1,83.695z"/>
	</g>
</g>
<path d="M22.32,14.276v18.769h-2.702V16.716h-5.82v16.329h-2.702V16.716H8.806v-2.441h2.291v-1.051c0-2.352,0.474-4.06,1.425-5.124
	c0.952-1.062,2.341-1.595,4.168-1.595c1.225,0,2.296,0.12,3.209,0.356c0.913,0.239,1.658,0.506,2.232,0.807L21.27,9.921
	c-0.602-0.351-1.271-0.6-2.008-0.75c-0.739-0.15-1.509-0.226-2.309-0.226c-0.699,0-1.256,0.12-1.669,0.356
	c-0.413,0.238-0.732,0.589-0.958,1.052c-0.225,0.462-0.369,1.026-0.431,1.689c-0.062,0.662-0.094,1.406-0.094,2.232h8.521
	L22.32,14.276L22.32,14.276z"/>
<path d="M36.436,33.044V21.595c0-1.877-0.22-3.234-0.657-4.072c-0.438-0.838-1.219-1.256-2.345-1.256c-1,0-1.826,0.301-2.478,0.902
	c-0.651,0.6-1.126,1.337-1.426,2.213v13.664h-2.703V14.276h1.951l0.489,1.99h0.112c0.474-0.676,1.119-1.252,1.932-1.727
	c0.813-0.476,1.783-0.713,2.909-0.713c0.8,0,1.508,0.113,2.12,0.338c0.614,0.225,1.127,0.607,1.541,1.144
	c0.413,0.54,0.725,1.256,0.938,2.158c0.21,0.902,0.319,2.042,0.319,3.415v12.163H36.436z"/>
<path d="M55.129,26.587c0,1.276,0.012,2.435,0.037,3.472c0.024,1.039,0.114,2.059,0.264,3.061h-1.841l-0.599-2.254h-0.151
	c-0.351,0.752-0.9,1.378-1.65,1.877c-0.751,0.502-1.652,0.751-2.704,0.751c-2.027,0-3.535-0.788-4.522-2.364
	c-0.989-1.576-1.482-4.054-1.482-7.432c0-3.207,0.606-5.633,1.82-7.285c1.214-1.652,2.885-2.477,5.011-2.477
	c0.726,0,1.3,0.044,1.726,0.132c0.427,0.087,0.889,0.232,1.391,0.431V6.767h2.702V26.587z M52.427,17.242
	c-0.352-0.3-0.745-0.519-1.182-0.657c-0.438-0.137-1.02-0.206-1.744-0.206c-1.328,0-2.358,0.601-3.096,1.802
	c-0.739,1.2-1.106,3.054-1.106,5.557c0,1.103,0.067,2.097,0.206,2.981c0.137,0.891,0.351,1.661,0.638,2.311
	c0.287,0.65,0.663,1.148,1.127,1.5c0.463,0.352,1.031,0.527,1.707,0.527c1.802,0,2.953-1.064,3.455-3.193V17.242H52.427z"/>
<path d="M79.342,26.587c0,1.276,0.012,2.435,0.037,3.472c0.025,1.039,0.113,2.059,0.262,3.061h-1.838l-0.602-2.254h-0.149
	c-0.352,0.752-0.901,1.378-1.652,1.877c-0.751,0.502-1.652,0.751-2.702,0.751c-2.026,0-3.535-0.788-4.524-2.364
	c-0.987-1.576-1.481-4.054-1.481-7.432c0-3.207,0.607-5.633,1.819-7.285c1.216-1.652,2.884-2.477,5.011-2.477
	c0.727,0,1.301,0.044,1.729,0.132c0.426,0.088,0.888,0.232,1.389,0.431V6.767h2.703V26.587z M76.639,17.242
	c-0.352-0.3-0.745-0.519-1.182-0.657c-0.438-0.137-1.021-0.206-1.745-0.206c-1.328,0-2.357,0.601-3.096,1.802
	c-0.738,1.2-1.107,3.054-1.107,5.557c0,1.103,0.07,2.097,0.206,2.981c0.137,0.891,0.352,1.661,0.638,2.311
	c0.288,0.65,0.665,1.148,1.128,1.5c0.464,0.352,1.031,0.527,1.706,0.527c1.804,0,2.953-1.064,3.454-3.193V17.242H76.639z"/>
<path d="M82.943,23.66c0-3.38,0.584-5.862,1.746-7.451c1.164-1.59,2.821-2.383,4.973-2.383c2.305,0,3.999,0.812,5.088,2.44
	c1.088,1.628,1.631,4.092,1.631,7.396c0,3.402-0.588,5.894-1.764,7.471c-1.178,1.576-2.83,2.363-4.957,2.363
	c-2.303,0-3.996-0.812-5.084-2.439C83.488,29.431,82.943,26.963,82.943,23.66z M85.76,23.66c0,1.102,0.068,2.101,0.207,3.002
	c0.135,0.902,0.361,1.678,0.675,2.328c0.313,0.652,0.722,1.158,1.219,1.52c0.502,0.362,1.102,0.545,1.802,0.545
	c1.301,0,2.276-0.582,2.93-1.746c0.65-1.164,0.976-3.047,0.976-5.646c0-1.076-0.069-2.071-0.206-2.985
	c-0.138-0.914-0.363-1.696-0.676-2.344c-0.313-0.651-0.72-1.158-1.219-1.52c-0.504-0.362-1.104-0.543-1.805-0.543
	c-1.275,0-2.246,0.587-2.906,1.764C86.092,19.207,85.76,21.082,85.76,23.66z"/>
<path d="M99.986,14.276h1.916l0.486,1.99h0.114c0.351-0.727,0.806-1.295,1.368-1.707c0.562-0.413,1.245-0.619,2.046-0.619
	c0.576,0,1.226,0.113,1.951,0.338l-0.526,2.741c-0.65-0.225-1.225-0.337-1.724-0.337c-0.804,0-1.454,0.23-1.955,0.693
	c-0.499,0.464-0.824,1.083-0.974,1.857v13.813h-2.705v-18.77H99.986z"/>
<path d="M110.084,15.402c0.725-0.45,1.607-0.801,2.645-1.051c1.039-0.249,2.134-0.375,3.285-0.375c1.051,0,1.895,0.157,2.533,0.469
	c0.638,0.313,1.139,0.738,1.503,1.276c0.36,0.539,0.599,1.151,0.714,1.84c0.112,0.69,0.168,1.406,0.168,2.157
	c0,1.501-0.033,2.965-0.098,4.392c-0.062,1.428-0.094,2.777-0.094,4.055c0,0.951,0.031,1.834,0.094,2.646
	c0.064,0.812,0.186,1.582,0.359,2.309h-2.115l-0.656-2.215h-0.149c-0.372,0.652-0.919,1.215-1.638,1.689
	c-0.721,0.475-1.691,0.711-2.906,0.711c-1.343,0-2.441-0.467-3.298-1.406c-0.857-0.938-1.286-2.232-1.286-3.887
	c0-1.074,0.18-1.975,0.541-2.701c0.357-0.727,0.868-1.312,1.525-1.765c0.656-0.45,1.439-0.769,2.344-0.956
	c0.906-0.186,1.918-0.279,3.033-0.279c0.248,0,0.499,0,0.746,0c0.248,0,0.508,0.014,0.782,0.038c0.073-0.775,0.11-1.464,0.11-2.066
	c0-1.425-0.21-2.427-0.633-3.002c-0.422-0.577-1.189-0.865-2.305-0.865c-0.693,0-1.449,0.107-2.27,0.319
	c-0.818,0.214-1.5,0.483-2.045,0.808L110.084,15.402z M118.154,24.484c-0.246-0.021-0.495-0.042-0.741-0.055
	c-0.247-0.014-0.494-0.02-0.741-0.02c-0.592,0-1.175,0.053-1.744,0.15c-0.568,0.102-1.074,0.276-1.52,0.525
	c-0.444,0.251-0.798,0.588-1.058,1.014c-0.261,0.426-0.389,0.963-0.389,1.613c0,1.001,0.241,1.779,0.723,2.328
	c0.481,0.55,1.106,0.825,1.874,0.825c1.035,0,1.84-0.248,2.41-0.749c0.568-0.502,0.965-1.051,1.186-1.653V24.484L118.154,24.484z"/>
</svg>
