<?xml version="1.0" encoding="utf-8"?>
<!-- Generator: Adobe Illustrator 14.0.0, SVG Export Plug-In . SVG Version: 6.00 Build 43363)  -->
<!DOCTYPE svg PUBLIC "-//W3C//DTD SVG 1.1//EN" "http://www.w3.org/Graphics/SVG/1.1/DTD/svg11.dtd">
<svg version="1.1" id="Layer_1" xmlns="http://www.w3.org/2000/svg" xmlns:xlink="http://www.w3.org/1999/xlink" x="0px" y="0px"
	 width="200px" height="244.8px" viewBox="0 0 200 244.8" enable-background="new 0 0 200 244.8" xml:space="preserve">
<path fill="#CBEFDE" d="M156.124,189.664c0.048-0.492,0.195-0.516,0.355-0.848c-0.424-0.047-0.777-0.105-1.066-0.426
	c0.119-1.141,0.236-2.273,0.357-3.41c-0.088-0.426-0.328-0.984-0.215-1.629c0.186-1.035,0.764-1.961,0.989-2.912
	c0.278-1.148-1.879-5.73-2.271-6.812c-0.051,0.023-0.096,0.047-0.141,0.07c-0.107,0.961-0.812,4.629-0.57,5.535
	c0.399,0.969,0.809,1.938,1.207,2.908c0.205,0.59,0.922,2.551,0.426,3.125c-0.18,0.199-0.344,0.312-0.565,0.285
	c-0.144-0.309-0.282-0.617-0.427-0.926c-0.021,0-0.047,0-0.066,0c0.211,1.871,0.426,3.732,0.639,5.604
	c-0.068,0.688-0.146,1.375-0.213,2.061c0.16,0.572,0.334,1.137,0.498,1.703c0.403,2.555-0.974,6.271-1.49,8.305
	c-0.475,0.021-0.942,0.051-1.422,0.07c-0.473,3.586-2.527,5.979-4.113,8.512c-0.489,0.789-1.157,1.473-1.35,2.562
	c1.606,1.285,0.785,1.949,1.203,3.977c0.323,1.561,3.909,7.453,0.354,8.375c-6.077,1.572-3.188-5.961-5.819-7.732
	c-0.027,2.783,0.797,3.447,1.213,5.033c0.045,0.875,0.092,1.754,0.144,2.629c0.224,0.648,1.403,3.285,1.272,3.688
	c-0.979,1.535-6,0.871-7.166,0c-0.109-0.779-0.394-1.072-0.496-1.771c0.115-0.608,0.232-1.229,0.354-1.845
	c-0.098-0.76-0.188-1.52-0.284-2.271c0.099-0.396,0.521-0.73,0.854-0.922c-0.246-0.281-0.344-0.271-0.284-0.713
	c0.379-0.404,0.604-0.467,1.137-0.562c0.044-2.144-0.483-3.369-0.991-5.043c-1.24-4.063-2.379-9.521-0.854-13.979
	c-2.104,0.038-5.584,0.632-6.597-0.638c0.438-2.832,0.604-5.461,0.067-8.449c-0.022-0.805-0.045-1.604-0.067-2.406
	c-1.062,0.023-4.082-3.232-3.764-5.184c0.219-0.854,0.428-1.703,0.645-2.557c0.271-1.271,0.021-2.562,0.209-3.688
	c0.051-2.297,0.099-4.59,0.144-6.883c0.271-1.646,0.899-3.793,0.644-5.396c-1.396-0.781-2.789-1.562-4.188-2.346
	c0.062-1.311,1.176-2.57,1.633-3.689c1.214-2.957,3.132-10.775,5.183-12.418c1.914-1.525,4.468-2.197,6.529-3.615
	c0.87-0.602,1.434-1.703,2.059-2.557c-0.1-1.912-1.572-1.675-2.129-2.979c-0.428-1,0.144-1.469,0-2.414
	c-0.099-0.776-0.188-1.562-0.282-2.34c0.473-2.562,2.832-5.092,6.389-4.188c3.146,0.799,4.188,4.681,3.897,7.808
	c0.022,0.729,0.05,1.469,0.068,2.2c-0.142,0.812-0.938,1.629-0.638,2.41c1.789,3.426,6.28,3.099,8.16,5.604
	c1.954,2.614,1.729,7.524,2.481,11.354c0.25,1.271,1.58,4.719,1.139,5.745c-0.549,0.332-1.092,0.663-1.635,0.993
	c0.283,1.988,0.563,3.977,0.854,5.961c0.459,2.391,0.438,5.426,0.991,7.809c0.233,0.069,0.474,0.143,0.712,0.217
	c0.221,0.924-0.018,1.463-0.645,1.91C159.72,185.73,159.204,189.457,156.124,189.664z M130.862,179.447
	c-0.108,0.906-0.641,2.4-0.145,3.119c0,0.051,0,0.098,0,0.145c0.098-0.064,0.188-0.145,0.277-0.215
	C131.211,181.605,131.384,180.326,130.862,179.447z M156.905,185.265c-0.045,0.473-0.098,0.945-0.145,1.418
	c0.021,0.047,0.047,0.098,0.069,0.141c0.282-0.02,0.563-0.043,0.854-0.066c0-0.141,0-0.283,0-0.426
	c-0.068-0.285-0.144-0.564-0.215-0.854C157.282,185.406,157.095,185.335,156.905,185.265z M130.011,186.617
	c-0.046,0.328-0.098,0.66-0.143,0.988c0.045-0.023,0.097-0.047,0.143-0.07c0.07-0.305,0.146-0.613,0.215-0.918
	C130.153,186.617,130.081,186.617,130.011,186.617z M156.763,187.32c-0.104,0.246-0.17,0.184,0,0.426
	c0.272-0.104,0.366-0.086,0.498-0.352C157.095,187.371,156.931,187.347,156.763,187.32z M131.218,187.675
	c-0.074,0.684-0.24,1.516-0.923,1.633c0.211,0.332,0.427,0.664,0.64,0.992c0-0.043,0-0.09,0-0.141
	C131.196,189.617,131.44,188.25,131.218,187.675z M143.709,201.16c-1.166,2.797-0.562,4.617-0.354,7.523
	c0.074,1.043-0.582,2.422-0.213,3.332c0-0.047,0-0.09,0-0.141c0.771-0.676,1.145-2.574,1.35-3.768
	c-0.021-0.982-0.051-1.982-0.067-2.979c0.241-1.396,0.794-2.562,1.353-3.619C145.079,201.398,144.392,201.277,143.709,201.16z
	 M138.739,221.597c-0.166,0.094-0.332,0.188-0.496,0.285c0.047,0.047,0.097,0.094,0.143,0.141c0.215-0.07,0.426-0.141,0.641-0.211
	c-0.051-0.074-0.098-0.145-0.146-0.215C138.834,221.597,138.786,221.597,138.739,221.597z M138.313,222.234
	c0.065,0.023,0.141,0.051,0.213,0.074C138.454,222.285,138.386,222.257,138.313,222.234z"/>
<path fill="#CBEFDE" d="M138.879,48.139h9.94c2.922,0,5.291-2.367,5.291-5.291V20.725c0-2.924-2.369-5.291-5.291-5.291h-28.373
	c-2.924,0-5.293,2.367-5.293,5.291v22.123c0,2.924,2.369,5.291,5.293,5.291h9.082l5.104,8.481L138.879,48.139z"/>
<path fill="#CBEFDE" d="M104.134,196.843c-0.109,0.109-1.521,0.621-1.631,0.691c-0.113,0.072-0.258,0.029-0.258,0.029
	s0.727,1.16,0.762,1.389c0.037,0.219,0.072,0.318,0.02,0.375c-0.055,0.039-0.771,0.309-1.146,0.414
	c-0.377,0.111-0.704,0.104-0.94,0.115c-0.235,0.021-0.213-0.094-0.469,0.07c-0.256,0.18-0.399,0.117-0.604,0.172
	c-0.2,0.039-0.256,0.078-0.256,0.078s0.037,1.367,0.037,1.4c0,0.035,0,0.121-0.239,0.105c-0.24-0.012-0.32-0.035-0.521-0.066
	c-0.201-0.021-0.422-0.18-0.599-0.18c-0.175,0-0.433,0.043-0.612,0.066c-0.184,0.02-0.304-0.023-0.504-0.027
	c-0.199-0.016-0.199-0.039-0.296-0.023c-0.09,0.023-0.575,0.217-0.575,0.217s-0.176,0.125-0.021,0.875
	c0.155,0.762,0.155,0.762,0.155,0.762s0.192,0.836,0.192,1.564c0,0.742,0.095,3.543-0.221,4.936
	c-0.312,1.396-0.696,4.043-0.999,5.107c-0.298,1.074-0.566,2.398-0.943,3.418c-0.377,1.021-1.062,2.676-1.181,3.203
	c-0.117,0.531-0.138,0.543-0.058,0.609c0.084,0.059,0.164-0.012,0.119,0.195c-0.045,0.195,0.012,0.293-0.108,0.305
	c-0.118,0.008-0.236-0.012-0.236-0.012s0.19,0.617,0.201,0.727c0.007,0.109,0.024,0.646,0.024,0.816c0,0.16,0.119,0.73,0.192,1.016
	c0.075,0.286,0.11,0.688,0.208,0.832c0.104,0.152,0.188,0.445,0.195,0.508c0.008,0.059-0.174,0.578-0.213,0.664
	c-0.035,0.086-0.658,1.375-0.861,1.707c-0.199,0.328-0.268,0.688-0.336,0.771c-0.075,0.082-0.415,0.219-0.613,0.254
	c-0.201,0.039-1.125,0.332-1.595,0.357c-0.469,0.027-1.679,0.027-1.926,0.014c-0.248-0.021-1.045-0.104-1.162-0.104
	c-0.118,0-0.317-0.12-0.312-0.175c0.008-0.057,0.082-0.225,0.047-0.312c-0.039-0.082-0.119-0.512-0.186-0.668
	c-0.062-0.154-0.154-0.154-0.072-0.219c0.084-0.066,0.229-0.16,0.229-0.16s-0.128-0.117-0.186-0.188
	c-0.059-0.071-0.139-0.178-0.139-0.307c0-0.125,0-0.246,0.11-0.318c0.108-0.071,0.2-0.104,0.2-0.104s0.021-0.188,0.101-0.229
	c0.085-0.033,0.158-0.043,0.213-0.043c0.056,0-0.106-0.302,0.062-0.457c0.178-0.158,0.319-0.322,0.319-0.322
	s-0.108,0.024-0.274-0.168c-0.16-0.188-0.243-0.272-0.148-0.354c0.1-0.082,0.223-0.225,0.466-0.232
	c0.253-0.018,0.566-0.152,0.679-0.201c0.108-0.062,0.261-0.244,0.285-0.419c0.028-0.157,0.812-1.538,1.008-2.043
	c0.188-0.519,0.174-0.688,0.203-0.903c0.026-0.222-0.084-0.449,0.098-0.611c0.18-0.146,0.205-0.16,0.205-0.229
	c0-0.065-0.139-0.187-0.125-0.255c0.015-0.062,0.193-0.158,0.193-0.158s0.963-1.746,1.019-3.222
	c0.055-1.461,0.274-3.115,0.261-4.649c-0.011-1.539,0.314-4.164,0.469-5.336c0.149-1.168-0.166-2.979-0.166-3.515
	c0-0.538-0.098-0.908-0.168-1.104c-0.062-0.191-0.341-0.99-0.341-0.99s-1.993-0.396-3.601-0.572
	c-1.608-0.182-3.614-0.398-4.385-0.352c-0.77,0.062-1.44-0.021-1.44-0.021s-0.427,0.478-0.347,1.06
	c0.084,0.578,0.479,2.031,0.744,3.146c0.264,1.105,0.77,3.098,0.699,4.184c-0.068,1.082-0.166,2.23-0.221,2.991
	c-0.055,0.759,0.066,1.595,0.083,3.082c0.012,1.479,0.125,2.455,0.147,3.575c0.024,1.136,0.043,1.521,0.183,2
	c0.136,0.479,0.013,0.271,0.301,0.8c0.288,0.521,0.313,0.856,0.313,1.013c0,0.155-0.055,0.293,0.017,0.405
	c0.069,0.104,0.194,0.114,0.356,0.399c0.168,0.297,0.492,0.683,0.492,0.988c0,0.315,0.07,0.44-0.021,0.602
	c-0.104,0.146-0.104,0.146,0.01,0.236c0.109,0.104,0.25,0.062,0.234,0.17c-0.014,0.109,0.139,0-0.079,0.479
	c-0.224,0.482-0.483,1.211-0.704,1.832c-0.219,0.615-0.23,0.904-0.37,0.99c-0.14,0.082-0.317,0.189-0.453,0.199
	c-0.142,0.017-0.469-0.01-0.825-0.01c-0.354,0-0.59,0.039-0.781-0.029c-0.191-0.069-0.508-0.182-0.508-0.182
	s-0.192-0.107-0.263-0.139c-0.071-0.025-0.356-0.178-0.356-0.178s-0.205,0.312-0.592,0.354c-0.387,0.043-0.387,0.131-0.592,0.178
	c-0.205,0.057-0.797,0.168-1.127,0.178c-0.331,0.02-1.428,0.072-2.02,0.086c-0.592,0.02-1.113,0.048-1.444,0.059
	c-0.328,0.018-0.604,0.018-0.836-0.039c-0.231-0.062-0.413-0.354-0.47-0.535s-0.189-0.224-0.149-0.4
	c0.04-0.176,0.058-0.25,0.263-0.271c0.203-0.025,0.398-0.082,0.398-0.082l0.027-0.188c0,0,0.121-0.312,0.16-0.385
	c0.041-0.069,0.019-0.303,0.15-0.354c0.141-0.061,0.331-0.195,0.496-0.264c0.165-0.069,0.346-0.188,0.456-0.25
	c0.108-0.064-0.142-0.189-0.142-0.189s0.25-0.057,0.387-0.086c0.135-0.021,0.381-0.053,0.244-0.135
	c-0.135-0.082-0.176-0.223-0.176-0.223s0.262-0.07,0.33-0.096c0.064-0.025,0.178-0.318,0.178-0.318s0.013-0.121,0.107-0.121
	c0.1,0,0.1,0.039,0.152,0.139c0.053,0.098,0.406,0.111,0.549,0.012c0.139-0.094,0.866-0.961,1.044-1.301
	c0.179-0.346,0.248-0.566,0.618-0.924c0.371-0.357,0.371-0.369,0.552-0.582c0.179-0.201,0.261-0.4,0.261-0.629
	c0-0.225,0.024-0.812,0.024-0.812s0.045-1.691-0.04-2.188c-0.08-0.496-0.619-3.879-0.797-4.562
	c-0.182-0.688-0.553-2.871-0.674-3.504c-0.122-0.637-0.493-2.957-0.482-3.777c0.02-0.822,0.02-2.312-0.107-2.947
	c-0.121-0.65-0.354-1.521-0.383-1.604c-0.029-0.082-0.387-1.193-0.512-1.482c-0.12-0.289-0.396-1.521-0.396-2.564
	c0-1.049,0.112-1.646,0.112-1.646s-0.702-0.233-1.155-0.457c-0.451-0.218-0.824-0.438-0.867-0.492
	c-0.041-0.062,0.842-1.688,1.213-2.336c0.369-0.646,0.961-1.797,1.232-2.323c0.274-0.521,1.729-3.724,2.075-4.576
	c0.345-0.851,1.293-3.558,1.482-4.449c0.19-0.893,0.471-1.907,0.842-2.584c0.37-0.676,0.546-1.144,0.546-1.279
	c0-0.135,0.068-0.404,0.068-0.404s0.345-0.539,0.345-0.841c0-0.303-0.015-0.646-0.04-0.729c-0.027-0.082-0.248,0.067-0.218-0.275
	c0.022-0.346-0.251-2.582-0.238-2.639c0.017-0.057,0.36-0.289,0.429-0.354c0.067-0.065,0.058-0.121,0.058-0.269
	c0-0.135,0-0.463,0-0.463s0.188-1.03,0.188-1.229c0-0.188-0.08-0.438,0-0.545c0.081-0.115,0.209-0.307,0.264-0.373
	c0.056-0.062,0.097-0.604,0.097-0.604v-0.275c0,0-2.172-1.768-3.243-3.256c-1.072-1.479-1.428-2.293-1.839-2.812
	c-0.413-0.521-0.485-0.58-0.565-0.63c-0.078-0.058-0.164-0.081-0.205-0.149s-0.041-0.168-0.041-0.168l-0.246-0.188
	c0,0-0.111-0.063-0.166-0.178c-0.055-0.106-0.082-0.171-0.15-0.275c-0.064-0.106-0.229-0.284-0.229-0.284s-0.111-0.347-0.308-0.457
	c-0.188-0.107-0.521-0.203-0.739-0.22c-0.223-0.019-0.468-0.063-0.798-0.12c-0.329-0.062-0.479-0.189-0.717-0.189
	c-0.229,0-0.562-0.03-0.771,0.052c-0.207,0.082-0.592,0.207-0.779,0.224c-0.195,0.014-0.562,0.021-0.619-0.037
	c-0.057-0.074-0.165-0.115-0.193-0.192c-0.023-0.091-0.095-0.429-0.095-0.429l-0.067-0.125l0.016-0.66c0,0-0.413-0.301-0.483-0.387
	c-0.069-0.082-0.175-0.328-0.204-0.451c-0.025-0.123-0.097-0.184-0.025-0.221c0.064-0.045,0.188-0.109,0.188-0.191
	c0-0.079,0.06-0.18,0.072-0.229c0.013-0.057,0.067-0.079,0.123-0.108c0.058-0.024,0.082-0.012,0.026-0.065
	c-0.058-0.06-0.225-0.14-0.301-0.248c-0.087-0.106-0.277-0.388-0.291-0.513c-0.017-0.119,0.068-0.303,0.123-0.354
	c0.059-0.06,0.178-0.135,0.286-0.146c0.11-0.016,0.397-0.024,0.397-0.024l-0.039-0.409c0,0-0.233-0.129-0.315-0.207
	c-0.085-0.086-0.178-0.104-0.178-0.25c0-0.147,0.017-0.328,0.08-0.427c0.069-0.099,0.194-0.274,0.272-0.274
	c0.082,0,0.11-0.015,0.11-0.015s-0.013-0.397-0.013-0.456c0-0.053-0.107-0.096-0.107-0.096l0.023-0.146c0,0,0.742-0.015,1.634,0.058
	c0.896,0.063,1.237,0.106,1.801,0.118c0.563,0.02,0.979,0.066,1.044,0.066c0.07,0,0.127-0.016,0.143,0.1
	c0.014,0.111-0.109,0.143-0.109,0.143s-0.125-0.064-0.143,0.023c-0.012,0.102-0.147,1.537-0.147,1.537s0.513,0.084,0.591,0.11
	c0.086,0.021,0.248,0.108,0.37,0.125c0.126,0.013,0.195-0.086,0.263,0.013c0.068,0.097,0.375,0.562,0.512,0.797
	c0.136,0.234,0.631,0.896,0.892,1.352c0.263,0.448,0.701,0.979,0.769,1.143c0.07,0.166,0.438,0.986,0.758,1.318
	c0.318,0.328,0.976,1.182,1.457,1.578c0.48,0.396,1.019,1.066,1.225,1.137c0.208,0.074,0.314,0.115,0.314,0.115l-0.098-2.199
	c0,0-0.453-0.797-0.468-1.195c-0.01-0.396-0.056-0.836,0.085-1.178c0.137-0.351,0.312-1.051,0.355-1.133
	c0.039-0.08-0.014-1.045,0-1.271c0.016-0.237,0-0.397,0-0.397s-0.741-1.608-0.896-1.938c-0.146-0.33-0.273-0.553-0.301-0.719
	c-0.027-0.162-0.208-0.646-0.208-0.646s-0.222,0.346-0.37,0.471s-0.48,0.592-0.592,0.695c-0.109,0.111-0.354,0.168-0.354,0.168
	s0.121-0.646,0.273-0.797c0.148-0.15,0.592-0.576,0.768-0.717c0.182-0.141,0.348-0.271,0.58-0.594c0.23-0.312,0.19-0.166,0.328-0.49
	c0.139-0.334,0.318-0.826,0.305-1.172c-0.017-0.342-0.057-0.92,0.017-1.016c0.063-0.104,0.202-0.412,0.215-0.646
	c0.017-0.231,0.03-0.678,0.069-0.867c0.041-0.188,0.142-1.664,0.166-1.883c0.024-0.221,0.024-0.617,0.039-0.836
	c0.017-0.221,0.017-0.563,0.099-0.967c0.083-0.396,0.192-0.977,0.192-1.121c0-0.154-0.043-0.306,0.022-0.513
	c0.07-0.207,0.108-0.579,0.108-0.579s-0.108,0.166-0.313,0.329c-0.205,0.166-0.33,0.427-0.438,0.634
	c-0.109,0.207-0.438,1.109-0.617,1.416c-0.182,0.305-0.223,0.594-0.358,0.895c-0.138,0.306-0.288,0.66-0.411,0.925
	c-0.123,0.262-0.223,0.508-0.303,0.604c-0.082,0.092,0.291-0.979,0.314-1.113c0.027-0.143,0.068-0.393,0.068-0.688
	c0-0.308,0.233-1.433,0.536-1.979c0.302-0.553,0.632-1.006,0.688-1.211c0.055-0.209,0.892-1.313,0.836-1.25
	c-0.057,0.064,0.193-0.532,0.304-0.758c0.112-0.226,0.552-0.838,0.866-1.414c0.316-0.574,0.053-0.574,0.604-1.481
	c0.553-0.908,0.741-1.106,0.965-1.272c0.219-0.166,0.188-0.15,0.244-0.193c0.055-0.041,0.387-0.271,0.635-0.285
	c0.246-0.02,0.223-0.114,0.396-0.114c0.182,0,0.331-0.123,0.331-0.123l0.142-0.062c0,0,0.295-0.268,0.726-0.373
	c0.428-0.105,1.012-0.221,1.803,0.088c0.791,0.311,1.728,0.703,2.196,1.197c0.476,0.498,0.641,0.668,0.927,1.461
	c0.285,0.797,0.429,1.234,0.683,1.719c0.25,0.48,0.614,1.043,0.713,1.658c0.1,0.619,0.135,0.979,0.362,1.67
	c0.23,0.689,0.212,0.879,0.275,1.181c0.063,0.293,0.239,0.534,0.315,0.769c0.075,0.236,0.223,0.713,0.272,1.022
	c0.056,0.317,0.155,0.759,0.101,1.058c-0.056,0.295-0.193,0.681-0.306,0.979c-0.11,0.293-0.165,0.538-0.165,0.685
	c0,0.14,0.275,0.375,0.626,0.515c0.353,0.147,0.978,0.521,1.218,0.553c0.242,0.028,0.312-0.135,1.012-0.015
	c0.707,0.121,1.51,0.168,1.936,0.601c0.432,0.427,0.881,1.134,1.072,1.836c0.184,0.697,0.295,0.832,0.357,1.285
	c0.063,0.444,0.012,3.177,0.021,4.192c0.015,1.024,0.138,4.914,0.152,6.104c0.022,1.187-0.121,3.668-0.164,4.625
	c-0.043,0.953-0.471,3.392-0.625,3.869c-0.153,0.483-1.018,3.745-1.235,4.304c-0.22,0.543-0.749,1.793-0.749,1.793
	s0.223,0.809,0.35,1.723c0.131,0.914,0.312,1.541,0.478,2.291s0.108,1.021,0.187,1.394c0.069,0.365,0.932,2.524,0.985,3.021
	c0.056,0.494,1.082,2.957,1.414,3.736c0.323,0.788,1.899,4.182,2.179,4.896C103.858,196.23,104.245,196.726,104.134,196.843z"/>
<path fill="#CBEFDE" d="M55.071,131.662c2.632-0.027,4.348,1.238,4.938,3.242c0.069,0.688,0.141,1.371,0.206,2.059
	c0.054,0.812,0.104,1.615,0.155,2.414c-0.139,0.793-0.275,1.582-0.414,2.371c-0.2,0.715-0.684,1.229-0.77,2.008
	c0.992,0.338,1.985,0.688,2.979,1.029c1.768,0.6,4.117,0.58,5.1,1.951c0.912,1.283,1.76,4.152,2.105,5.918
	c0.09,0.738,0.172,1.473,0.26,2.211c0.562,1.695,1.127,3.395,1.693,5.092c0.479,1.885,0.963,3.775,1.441,5.656
	c0.498,1.471,0.977,3.359,1.285,4.893c-0.087,0.732-0.173,1.479-0.255,2.209c0.488,1.277,1.222,2.727,0.306,3.854
	c0.074,1.494,0.92,2.16,1.133,3.556c-0.549,0.754-0.605,2.119-1.133,2.881c0.604,1.22,1.203,2.438,1.805,3.652
	c0.377,0.051,3.18,0.155,3.236,0.207c0.256,1.508,0.516,3.016,0.771,4.522c0.465,2.473,0.928,4.94,1.391,7.405
	c0.086,0.863,0.176,1.72,0.258,2.578c0.152,0.776,0.539,4.785,0.515,4.832c-2.106,0.43-4.218,0.854-6.326,1.293
	c-0.375-0.336-0.756-0.656-1.133-0.983c-1.3-0.82-2.603-1.646-3.908-2.47c-0.569-0.672-0.164-2.207-0.771-2.828
	c-0.311,0.104-0.621,0.207-0.924,0.306c-0.328,0.711-0.271,1.668-0.52,2.522c-0.271,0.927-0.83,1.746-1.338,2.47
	c-0.807,0.961-1.613,1.922-2.422,2.883c-0.496,0.379-0.99,0.754-1.486,1.125c-0.062,0.104-0.523,2.539-0.568,2.733
	c-0.021,0-0.035,0-0.054,0c-0.084,0.664,0.571,1.488,0.774,2.004c0.186,0.484,0.717,3.66,0.615,4.22
	c-0.201,1.142-1.533,2.483-3.035,1.75c-1.121-0.552-2.108-2.625-2.36-4.017c-0.3-1.603,0.431-3.233-0.567-4.164
	c-0.019,0-0.033,0-0.055,0c0,0.035,0,0.062,0,0.104c-0.602,1.531,0.312,3.75,0.464,5.246c0.149,1.449-0.854,1.943-0.618,3.238
	c0.25,1.326,1.162,1.982,0.412,3.447c0.486,0.268,0.133,0.531,0.364,1.078c0.437,1.047,1.78,1.703,1.485,3.396
	c-3.285,1.61-5.78,0.481-7.61-1.646c0.026-0.793,0.31-1.531,0.103-2.263c-0.672-0.241-0.494-1.844-0.664-2.573
	c-0.658-2.773-0.451-6.017-0.929-9.103c-0.241-2.354-0.479-4.703-0.725-7.06c0.053-1.646,0.104-3.293,0.157-4.935
	c-0.221-1.185-1.012-2.327-1.289-3.655c0-3.324,0-6.646,0-9.978c-0.002-1.401-0.4-2.462-0.612-3.707
	c-0.067-1.353-0.14-2.712-0.205-4.063c-0.106-0.672-0.321-1.289-0.106-1.795c-1.403-1.965-0.484-5.412-0.717-7.718
	c-0.082-0.812,0.182-2.188-0.359-2.521c-0.25,1.916-0.785,4.115-1.543,5.709c-0.396,0.672-0.789,1.336-1.188,2.004
	c-0.313,0.771,0.458,2.17-0.05,3.035c-0.209,0.102-0.414,0.207-0.614,0.307c-0.222,0.494,1.882,5.551,0.979,6.535
	c-0.396-0.168-0.657-0.344-0.928-0.199c-0.033,0.133-0.068,0.266-0.104,0.406c0.206,0.172,0.411,0.344,0.618,0.516
	c-0.018,0.09-0.032,0.172-0.049,0.254c-2.448,0.59-3.307-1.238-3.812-3.34c-0.217-0.902,0.44-1.68,0.31-2.422
	c-0.102-0.561-0.731-2.555-0.67-2.672c0.107-0.271,0.277-0.244,0.461-0.41c-0.057-3.455-0.74-7.334-0.147-10.807
	c0.244-1.449,0.619-2.797,0.924-4.113c0.12-0.855,0.236-1.717,0.361-2.572c0.425-1.182,0.854-2.369,1.282-3.551
	c0.713-2.592,0.361-5.295,1.754-7.1c0.439-0.576,1.279-0.824,1.9-1.234c1.391-1.098,2.775-2.191,4.164-3.293
	c0.443-0.328,1.493-0.473,1.749-0.98c0.513-0.977,0.241-2.949-0.051-3.906c-0.733-0.236-1.819-1.188-1.54-2.361
	c0.07-0.312,0.369-0.5,0.463-0.721c0-0.551,0-1.102,0-1.646c0.021-1.235,0.414-2.209,0.977-2.935
	C53.097,132.154,53.877,132.13,55.071,131.662z M66.489,163.091c-0.26,0.922,0.512,4.715,0.723,5.766
	c0.438,2.164,0.621,4.074,0.979,6.223c0.156,0.979,0.035,1.961-0.103,2.676c-0.086,0.449,0.304,0.668,0.361,0.979
	c-0.072,0.271-0.144,0.554-0.209,0.824c0.151,0.601,0.312,1.203,0.463,1.799c0.346,1.254,0.44,3.976,1.185,4.731
	c0.67-0.133,1.336-0.274,2.008-0.414c0.072-0.875,0.688-2.403,0.307-3.079c-0.02,0-0.033,0-0.053,0
	c-0.254,0.114-0.514,0.235-0.771,0.356c-0.088-0.054-0.172-0.104-0.256-0.156c-0.004-0.914,0.511-1.901,0.256-2.881
	c-0.153-0.312-0.305-0.617-0.463-0.926c-0.166-0.789,0.285-1.939-0.051-2.214c-1.47-0.735-0.597-1.971-1.082-3.446
	c-0.236-0.724-0.896-1.287-1.181-2.062c-0.244-1.25-0.479-2.5-0.725-3.754c-0.445-1.25-1.072-2.787-1.23-4.429
	C66.595,163.091,66.542,163.091,66.489,163.091z M72.872,180.228c-0.053,0.238-0.104,0.48-0.158,0.715
	c0.039,0.016,0.072,0.031,0.105,0.055c0.066-0.203,0.137-0.414,0.209-0.621C72.972,180.326,72.923,180.275,72.872,180.228z
	 M72.563,182.902c-0.154,0.906-0.312,1.812-0.465,2.723c0.018,0,0.032,0,0.051,0c0.207-0.051,0.414-0.102,0.617-0.146
	c0.065-0.85,0.139-1.686,0.203-2.521C72.835,182.937,72.696,182.921,72.563,182.902z M73.282,182.953
	c-0.049,0.051-0.105,0.104-0.154,0.156c-0.051,0.754-0.1,1.504-0.156,2.258c0.5-0.104,0.996-0.203,1.494-0.305
	c-0.344-0.703-0.686-1.41-1.027-2.109C73.386,182.953,73.335,182.953,73.282,182.953z M73.694,183.003
	c0.307,0.664,0.619,1.336,0.924,2.008c0.072-0.016,0.139-0.031,0.209-0.055c0-0.021,0-0.031,0-0.057
	c-0.328-0.637-0.65-1.271-0.979-1.896C73.8,183.003,73.747,183.003,73.694,183.003z M43.19,183.718
	c-0.178,0.211-0.344,0.418-0.518,0.621c0,0.07,0,0.141,0,0.207c0.381,0.332,0.583,0.688,1.232,0.771c0-0.062,0-0.104,0-0.153
	c-0.135-0.504-0.188-1.043-0.414-1.445C43.394,183.718,43.295,183.718,43.19,183.718z M75.081,185.73
	c0.076,0.227,0.025,0.27,0.26,0.359C75.284,185.863,75.263,185.828,75.081,185.73z M59.493,195.761
	c-0.541,1.246,0.098,3.277-0.205,4.832c-0.256,0.656-0.514,1.305-0.77,1.961c-0.183,0.645-0.28,3.984-0.104,4.367
	c0.292-0.125,0.515-0.254,0.724-0.461c-0.055-0.258-0.106-0.521-0.156-0.771c0.271-0.469,0.548-0.932,0.824-1.396
	c0.519-1.354,1.01-2.625,1.696-3.852c-0.866-0.828-1.106-0.949-1.392-2.422C59.966,197.261,60.074,196.074,59.493,195.761z"/>
<path fill="#FFFFFF" stroke="#000000" stroke-width="0.75" d="M102.7,117.66h-4.043c-5.107,0-9.25-4.141-9.25-9.25V69.734
	c0-5.109,4.143-9.248,9.25-9.248h49.604c5.107,0,9.254,4.139,9.254,9.248v38.676c0,5.109-4.146,9.25-9.254,9.25
	c0.002,0-31.021,0-31.021,0l-4.716,15.414L102.7,117.66z"/>
<path fill="#CBEFDE" d="M59.901,55.191c0,0,23.387,0,23.386,0c3.38,0,6.12-2.738,6.12-6.121V28.514c0-3.381-2.74-6.12-6.12-6.12
	H51.372c-3.38,0-6.119,2.739-6.119,6.12V49.07c0,3.383,2.739,6.121,6.119,6.121c-0.001,0,1.443,0,1.443,0l5.951,23.656
	L59.901,55.191z"/>
<path fill="#CBEFDE" d="M75.427,123.042h4.363c3.38,0,6.119-2.738,6.119-6.123v-9.42c0-3.379-2.739-6.119-6.119-6.119H64.608
	c-3.381,0-6.119,2.74-6.119,6.119v9.426c0,3.379,2.738,6.117,6.119,6.117h1.47l6.121,7.811L75.427,123.042z"/>
<path fill="#FFFFFF" stroke="#000000" stroke-width="0.75" d="M121.206,137.376c1.854,1.854,1.455,5.729,0.061,7.771
	c-0.254,0.385-0.744,0.324-1.102,0.609c-0.645,0.521-1.625,2.762-1.286,4.283c0.272,1.23,2.541,1.76,3.677,2.207
	c1.547,0.609,2.568,1.441,3,3.188c0.203,0.812,0.062,2.021-0.062,2.761c-0.039,0.877-0.08,1.756-0.121,2.635
	c-0.368,2.103-1.008,3.976-1.774,5.69c-0.43,0.812-0.854,1.638-1.287,2.449c0.187,0.896,0.369,1.799,0.553,2.69
	c0.191,1.228-0.271,2.496-0.12,3.435c0.172,1.104,0.694,2.258,0.92,3.489c0.813,4.578,0.075,10.845-0.61,15.065
	c-0.215,1.312,0.155,4.582-0.433,5.513c-0.457,0.728-1.953,1.049-3.123,1.039c-0.263,0.948-0.032,2.51,0.123,3.312
	c0.381,1.94,0.877,4.805,0.487,7.104c-0.766,4.543-1.729,8.439-2.446,12.861c-0.312,1.88,0.61,2.738,0.916,3.979
	c0.233,0.953-0.125,1.479-0.121,2.52c-0.685,0.418-2.802,0.562-3.244-0.246c-0.188-0.336,0.021-0.521-0.243-0.734
	c-0.39-0.164-0.777-0.324-1.164-0.488c0,0-3.789,0.707-4.896,0.613c-0.551-0.939,0.416-1.688,0.668-2.328
	c0.062-0.447,0.125-0.896,0.188-1.349c0.779-1.448,2.615-2.851,1.896-5.636c-0.322-1.254-1.062-2.332-1.531-3.438
	c-1.271-2.979-2.564-5.922-3.551-9.125c-0.574-1.859-0.686-3.957-1.046-6.125c-0.021-0.854-0.041-1.715-0.06-2.566
	c-0.285-0.477-0.57-0.938-0.856-1.41c-0.043-0.771-0.081-1.551-0.122-2.328c-0.714-3.941-0.1-8.516-0.062-12.488
	c-1.16-0.203-1.92,0.465-2.877,0.547c-0.043-0.02-0.082-0.035-0.123-0.062c-0.539-2.213,0.394-4.817,0.735-6.61
	c0.267-1.75,0.53-3.515,0.797-5.271c0.306-0.367,0.608-0.733,0.916-1.104c0.146-0.49,0.287-0.979,0.433-1.475
	c-0.006-0.002-1.979,0.5-2.938,0.186c-2.111-3.355,1.07-10.379,2.021-13.289c0.508-1.561,0.812-3.349,2.084-4.104
	c2.354-1.404,5.957-0.018,7.896-2.021c0.254-1.562-0.741-2.393-0.979-3.797c-0.258-1.521,0.123-2.957,0.367-4.041
	c0.022-0.633,0.043-1.27,0.063-1.896c0.642-2.084,2.696-3.043,5.084-3.246C119.249,136.677,120.317,136.482,121.206,137.376z
	 M111.715,198.992c-0.084,0.773-0.163,1.551-0.243,2.328c-0.158,0.516-0.746,1.004-0.613,1.715c0.307,1.613,1.283,3.129,1.65,4.898
	c0.383,1.828,0.025,3.965,0.37,5.941c0.284,1.664,0.791,3.059,1.405,4.352c0.391,0.809,0.561,1.312,1.285,1.773
	c-0.242-3.229-0.492-6.449-0.729-9.686c0.021-1.4,0.037-2.812,0.06-4.229c-0.32-1.258-0.648-2.521-0.979-3.789
	c0.062-1.371,0.123-2.736,0.182-4.107C113.306,198.46,112.509,198.726,111.715,198.992z"/>
</svg>
