<?xml version="1.0" encoding="utf-8"?>
<!-- Generator: Adobe Illustrator 14.0.0, SVG Export Plug-In . SVG Version: 6.00 Build 43363)  -->
<!DOCTYPE svg PUBLIC "-//W3C//DTD SVG 1.1//EN" "http://www.w3.org/Graphics/SVG/1.1/DTD/svg11.dtd">
<svg version="1.1" id="Layer_1" xmlns="http://www.w3.org/2000/svg" xmlns:xlink="http://www.w3.org/1999/xlink" x="0px" y="0px"
	 width="200px" height="244.8px" viewBox="-10 0 200 244.8" enable-background="new -10 0 200 244.8" xml:space="preserve">
<path fill="#20324A" d="M146.127,189.664c0.048-0.492,0.195-0.516,0.355-0.848c-0.424-0.047-0.777-0.105-1.066-0.426
	c0.119-1.141,0.236-2.273,0.357-3.41c-0.088-0.426-0.328-0.984-0.215-1.629c0.186-1.035,0.764-1.961,0.99-2.912
	c0.278-1.148-1.879-5.73-2.271-6.812c-0.051,0.023-0.096,0.047-0.141,0.07c-0.107,0.961-0.812,4.629-0.57,5.535
	c0.4,0.969,0.809,1.938,1.207,2.908c0.205,0.59,0.922,2.551,0.426,3.125c-0.18,0.199-0.344,0.312-0.565,0.285
	c-0.144-0.309-0.282-0.617-0.427-0.926c-0.021,0-0.047,0-0.066,0c0.211,1.871,0.426,3.733,0.639,5.604
	c-0.069,0.688-0.146,1.375-0.213,2.061c0.16,0.572,0.334,1.137,0.498,1.703c0.403,2.555-0.974,6.271-1.491,8.305
	c-0.474,0.021-0.942,0.05-1.421,0.07c-0.473,3.586-2.528,5.979-4.114,8.512c-0.489,0.789-1.157,1.472-1.349,2.562
	c1.606,1.285,0.785,1.949,1.203,3.976c0.323,1.561,3.909,7.453,0.354,8.375c-6.077,1.572-3.188-5.961-5.819-7.732
	c-0.028,2.783,0.796,3.447,1.212,5.033c0.045,0.875,0.092,1.754,0.144,2.629c0.224,0.648,1.403,3.285,1.272,3.688
	c-0.979,1.535-6,0.871-7.166,0c-0.109-0.779-0.393-1.072-0.496-1.771c0.116-0.608,0.233-1.229,0.354-1.845
	c-0.098-0.76-0.188-1.519-0.284-2.271c0.099-0.396,0.521-0.73,0.854-0.922c-0.246-0.281-0.344-0.271-0.284-0.713
	c0.379-0.404,0.604-0.467,1.137-0.562c0.044-2.144-0.483-3.369-0.991-5.043c-1.24-4.064-2.379-9.521-0.855-13.98
	c-2.104,0.039-5.584,0.632-6.596-0.637c0.438-2.832,0.604-5.461,0.067-8.449c-0.022-0.805-0.045-1.604-0.067-2.407
	c-1.062,0.024-4.082-3.233-3.764-5.183c0.219-0.854,0.428-1.703,0.645-2.557c0.27-1.271,0.021-2.562,0.209-3.688
	c0.05-2.297,0.098-4.59,0.143-6.883c0.271-1.646,0.9-3.793,0.643-5.396c-1.396-0.781-2.789-1.562-4.188-2.346
	c0.062-1.311,1.176-2.57,1.633-3.689c1.214-2.957,3.132-10.775,5.183-12.418c1.914-1.525,4.467-2.197,6.528-3.615
	c0.871-0.602,1.435-1.703,2.06-2.557c-0.1-1.912-1.573-1.675-2.129-2.979c-0.428-1,0.143-1.469,0-2.414
	c-0.099-0.776-0.189-1.562-0.283-2.34c0.473-2.561,2.832-5.092,6.389-4.188c3.145,0.799,4.188,4.68,3.898,7.808
	c0.022,0.729,0.049,1.469,0.068,2.2c-0.142,0.812-0.939,1.629-0.638,2.41c1.789,3.426,6.28,3.099,8.16,5.604
	c1.954,2.615,1.729,7.525,2.481,11.354c0.25,1.271,1.581,4.719,1.139,5.745c-0.549,0.332-1.092,0.663-1.635,0.993
	c0.284,1.988,0.564,3.977,0.854,5.961c0.459,2.391,0.438,5.426,0.991,7.809c0.234,0.069,0.474,0.143,0.712,0.217
	c0.221,0.924-0.017,1.463-0.644,1.91C149.723,185.73,149.207,189.457,146.127,189.664z M120.865,179.447
	c-0.108,0.906-0.641,2.4-0.145,3.119c0,0.051,0,0.098,0,0.145c0.098-0.065,0.188-0.145,0.278-0.215
	C121.214,181.605,121.387,180.326,120.865,179.447z M146.908,185.265c-0.045,0.473-0.098,0.945-0.145,1.418
	c0.022,0.047,0.047,0.098,0.07,0.141c0.282-0.02,0.564-0.043,0.854-0.066c0-0.141,0-0.284,0-0.426
	c-0.068-0.285-0.143-0.565-0.215-0.854C147.285,185.406,147.098,185.335,146.908,185.265z M120.014,186.617
	c-0.046,0.328-0.098,0.66-0.143,0.988c0.045-0.023,0.097-0.047,0.143-0.07c0.07-0.305,0.146-0.613,0.215-0.918
	C120.156,186.617,120.084,186.617,120.014,186.617z M146.766,187.32c-0.104,0.246-0.17,0.184,0,0.426
	c0.272-0.104,0.366-0.086,0.498-0.352C147.098,187.371,146.934,187.347,146.766,187.32z M121.221,187.675
	c-0.074,0.684-0.24,1.516-0.923,1.633c0.211,0.332,0.427,0.664,0.64,0.992c0-0.043,0-0.09,0-0.141
	C121.199,189.617,121.443,188.25,121.221,187.675z M133.712,201.16c-1.166,2.797-0.562,4.617-0.354,7.523
	c0.074,1.043-0.582,2.422-0.213,3.332c0-0.047,0-0.09,0-0.141c0.771-0.676,1.144-2.574,1.349-3.767
	c-0.021-0.983-0.05-1.983-0.067-2.979c0.241-1.396,0.793-2.562,1.352-3.619C135.082,201.398,134.395,201.277,133.712,201.16z
	 M128.742,221.597c-0.166,0.094-0.332,0.188-0.496,0.285c0.047,0.047,0.097,0.094,0.143,0.141c0.215-0.07,0.426-0.141,0.641-0.211
	c-0.051-0.074-0.098-0.145-0.146-0.215C128.837,221.597,128.789,221.597,128.742,221.597z M128.316,222.234
	c0.066,0.023,0.141,0.051,0.213,0.074C128.457,222.285,128.389,222.257,128.316,222.234z"/>
<path fill="#20324A" d="M128.882,48.139h9.94c2.922,0,5.291-2.367,5.291-5.291V20.725c0-2.924-2.369-5.291-5.291-5.291h-28.373
	c-2.924,0-5.293,2.367-5.293,5.291v22.123c0,2.924,2.369,5.291,5.293,5.291h9.082l5.104,8.481L128.882,48.139z"/>
<path fill="#20324A" d="M94.137,196.843c-0.109,0.109-1.521,0.621-1.631,0.691c-0.113,0.073-0.258,0.03-0.258,0.03
	s0.727,1.16,0.762,1.388c0.037,0.219,0.072,0.319,0.02,0.375c-0.055,0.039-0.771,0.309-1.146,0.414
	c-0.377,0.112-0.704,0.104-0.94,0.116c-0.236,0.021-0.213-0.094-0.469,0.07c-0.256,0.18-0.4,0.118-0.604,0.172
	c-0.2,0.039-0.256,0.078-0.256,0.078s0.037,1.368,0.037,1.401c0,0.035,0,0.121-0.239,0.105c-0.24-0.012-0.32-0.035-0.521-0.066
	c-0.201-0.021-0.422-0.18-0.598-0.18c-0.175,0-0.432,0.043-0.613,0.066c-0.183,0.02-0.303-0.023-0.503-0.027
	c-0.2-0.016-0.2-0.039-0.296-0.023c-0.09,0.023-0.576,0.217-0.576,0.217s-0.175,0.125-0.02,0.875
	c0.156,0.761,0.156,0.761,0.156,0.761s0.192,0.836,0.192,1.565c0,0.742,0.095,3.543-0.221,4.935
	c-0.312,1.396-0.696,4.043-0.999,5.108c-0.298,1.074-0.566,2.398-0.943,3.418c-0.377,1.021-1.062,2.676-1.181,3.203
	c-0.117,0.531-0.138,0.543-0.058,0.609c0.084,0.059,0.164-0.012,0.119,0.195c-0.045,0.195,0.012,0.293-0.108,0.305
	c-0.118,0.008-0.236-0.012-0.236-0.012s0.19,0.617,0.201,0.727c0.007,0.109,0.024,0.646,0.024,0.816c0,0.16,0.119,0.73,0.193,1.016
	c0.075,0.286,0.11,0.688,0.208,0.832c0.104,0.152,0.188,0.445,0.195,0.508c0.008,0.059-0.173,0.578-0.213,0.664
	c-0.035,0.086-0.658,1.375-0.861,1.707c-0.2,0.328-0.267,0.688-0.336,0.771c-0.075,0.082-0.415,0.219-0.614,0.254
	c-0.201,0.039-1.125,0.332-1.594,0.357c-0.469,0.028-1.679,0.028-1.926,0.014c-0.248-0.021-1.045-0.104-1.162-0.104
	c-0.118,0-0.318-0.12-0.312-0.175c0.008-0.057,0.082-0.225,0.047-0.312c-0.039-0.082-0.119-0.512-0.185-0.668
	c-0.063-0.154-0.155-0.154-0.073-0.219c0.084-0.066,0.229-0.16,0.229-0.16s-0.128-0.117-0.185-0.188
	c-0.059-0.071-0.139-0.178-0.139-0.307c0-0.125,0-0.246,0.11-0.318c0.108-0.071,0.2-0.104,0.2-0.104s0.021-0.188,0.101-0.229
	c0.085-0.033,0.158-0.043,0.213-0.043c0.056,0-0.106-0.302,0.062-0.457c0.177-0.158,0.319-0.322,0.319-0.322
	s-0.108,0.024-0.274-0.168c-0.161-0.188-0.244-0.272-0.149-0.354c0.099-0.082,0.222-0.225,0.466-0.233
	c0.252-0.017,0.566-0.153,0.678-0.201c0.109-0.062,0.261-0.245,0.285-0.419c0.029-0.158,0.812-1.538,1.008-2.043
	c0.188-0.518,0.174-0.688,0.203-0.904c0.027-0.221-0.084-0.449,0.098-0.611c0.18-0.146,0.205-0.16,0.205-0.229
	c0-0.065-0.139-0.187-0.125-0.255c0.015-0.062,0.193-0.158,0.193-0.158s0.963-1.746,1.019-3.222
	c0.055-1.461,0.274-3.115,0.261-4.649c-0.011-1.539,0.314-4.164,0.469-5.336c0.149-1.168-0.166-2.979-0.166-3.515
	c0-0.538-0.098-0.908-0.168-1.104c-0.063-0.192-0.341-0.99-0.341-0.99s-1.993-0.396-3.601-0.573
	c-1.608-0.181-3.614-0.399-4.385-0.351c-0.769,0.062-1.44-0.021-1.44-0.021s-0.427,0.478-0.347,1.06
	c0.084,0.578,0.479,2.031,0.744,3.146c0.264,1.105,0.77,3.098,0.7,4.184c-0.069,1.082-0.166,2.23-0.221,2.991
	c-0.054,0.759,0.067,1.595,0.083,3.082c0.012,1.479,0.125,2.455,0.148,3.575c0.024,1.136,0.043,1.521,0.182,2
	c0.136,0.479,0.013,0.271,0.301,0.8c0.288,0.521,0.314,0.856,0.314,1.013c0,0.155-0.055,0.293,0.016,0.405
	c0.07,0.104,0.195,0.114,0.357,0.399c0.168,0.297,0.492,0.683,0.492,0.988c0,0.316,0.07,0.441-0.022,0.602
	c-0.103,0.146-0.103,0.146,0.01,0.236c0.11,0.105,0.25,0.062,0.235,0.17c-0.014,0.109,0.138,0-0.08,0.479
	c-0.223,0.482-0.483,1.211-0.704,1.832c-0.218,0.615-0.231,0.904-0.37,0.99c-0.139,0.082-0.318,0.189-0.453,0.199
	c-0.141,0.017-0.469-0.01-0.826-0.01c-0.354,0-0.589,0.039-0.781-0.029c-0.191-0.069-0.508-0.182-0.508-0.182
	s-0.192-0.107-0.262-0.138c-0.072-0.026-0.357-0.178-0.357-0.178s-0.205,0.312-0.592,0.354c-0.386,0.043-0.386,0.131-0.591,0.178
	c-0.205,0.056-0.797,0.168-1.127,0.177c-0.331,0.019-1.428,0.073-2.019,0.086c-0.592,0.019-1.114,0.048-1.445,0.058
	c-0.328,0.018-0.604,0.018-0.836-0.039c-0.232-0.062-0.413-0.354-0.469-0.535c-0.057-0.18-0.19-0.223-0.15-0.4
	c0.04-0.176,0.057-0.25,0.262-0.271c0.204-0.025,0.399-0.082,0.399-0.082l0.028-0.188c0,0,0.121-0.312,0.16-0.384
	c0.041-0.07,0.018-0.303,0.15-0.354c0.141-0.061,0.331-0.195,0.496-0.264c0.165-0.069,0.346-0.188,0.456-0.25
	c0.108-0.064-0.142-0.189-0.142-0.189s0.25-0.057,0.387-0.086c0.135-0.021,0.381-0.053,0.244-0.135
	c-0.135-0.082-0.176-0.223-0.176-0.223s0.262-0.07,0.33-0.096c0.065-0.025,0.178-0.318,0.178-0.318s0.013-0.121,0.108-0.121
	c0.099,0,0.099,0.039,0.152,0.139c0.053,0.098,0.407,0.111,0.549,0.012c0.138-0.094,0.866-0.961,1.044-1.301
	c0.178-0.346,0.248-0.566,0.618-0.924c0.371-0.357,0.371-0.369,0.552-0.582c0.178-0.201,0.26-0.4,0.26-0.629
	c0-0.225,0.025-0.812,0.025-0.812s0.045-1.692-0.04-2.188c-0.08-0.496-0.619-3.879-0.797-4.563
	c-0.181-0.687-0.552-2.871-0.673-3.504c-0.123-0.636-0.494-2.957-0.483-3.777c0.019-0.822,0.019-2.312-0.108-2.947
	c-0.121-0.65-0.354-1.521-0.383-1.604c-0.029-0.082-0.386-1.193-0.511-1.482c-0.12-0.289-0.397-1.521-0.397-2.564
	c0-1.049,0.113-1.646,0.113-1.646s-0.703-0.233-1.156-0.457c-0.451-0.218-0.824-0.438-0.867-0.492
	c-0.04-0.062,0.842-1.688,1.213-2.336c0.369-0.646,0.961-1.797,1.232-2.323c0.275-0.521,1.73-3.724,2.076-4.576
	c0.344-0.851,1.293-3.558,1.482-4.449c0.191-0.894,0.471-1.908,0.842-2.584c0.37-0.676,0.546-1.144,0.546-1.28
	c0-0.134,0.069-0.405,0.069-0.405s0.344-0.539,0.344-0.84c0-0.303-0.014-0.646-0.04-0.729c-0.028-0.082-0.248,0.067-0.218-0.276
	c0.023-0.345-0.251-2.582-0.238-2.638c0.016-0.058,0.36-0.289,0.428-0.355c0.068-0.066,0.058-0.121,0.058-0.268
	c0-0.135,0-0.463,0-0.463s0.188-1.031,0.188-1.229c0-0.188-0.08-0.438,0-0.545c0.082-0.115,0.209-0.306,0.264-0.373
	c0.056-0.063,0.097-0.604,0.097-0.604v-0.275c0,0-2.172-1.768-3.243-3.256c-1.072-1.479-1.428-2.293-1.839-2.813
	c-0.413-0.521-0.485-0.579-0.565-0.629c-0.078-0.058-0.164-0.082-0.205-0.149c-0.041-0.069-0.041-0.168-0.041-0.168l-0.246-0.189
	c0,0-0.112-0.064-0.166-0.178c-0.055-0.107-0.082-0.17-0.151-0.275c-0.065-0.107-0.229-0.285-0.229-0.285s-0.111-0.346-0.307-0.457
	c-0.189-0.107-0.521-0.203-0.74-0.219c-0.222-0.018-0.467-0.064-0.797-0.121c-0.33-0.061-0.48-0.189-0.717-0.189
	c-0.229,0-0.561-0.03-0.77,0.052c-0.207,0.082-0.592,0.207-0.78,0.223c-0.195,0.015-0.563,0.022-0.619-0.036
	c-0.056-0.074-0.165-0.115-0.194-0.193c-0.023-0.09-0.094-0.428-0.094-0.428l-0.068-0.125l0.016-0.66c0,0-0.413-0.301-0.483-0.387
	c-0.069-0.082-0.175-0.328-0.204-0.451c-0.025-0.123-0.097-0.184-0.025-0.222c0.064-0.044,0.188-0.108,0.188-0.19
	c0-0.08,0.06-0.18,0.072-0.23c0.013-0.057,0.067-0.08,0.123-0.109c0.058-0.024,0.082-0.012,0.026-0.065
	c-0.057-0.06-0.224-0.14-0.301-0.248c-0.086-0.106-0.277-0.388-0.291-0.513c-0.016-0.119,0.069-0.303,0.123-0.354
	c0.059-0.059,0.178-0.134,0.287-0.146c0.11-0.016,0.398-0.024,0.398-0.024l-0.04-0.409c0,0-0.233-0.129-0.315-0.207
	c-0.085-0.086-0.178-0.104-0.178-0.25c0-0.148,0.016-0.328,0.08-0.427c0.07-0.099,0.195-0.274,0.273-0.274
	c0.082,0,0.11-0.015,0.11-0.015s-0.013-0.397-0.013-0.456c0-0.053-0.107-0.096-0.107-0.096l0.024-0.146c0,0,0.741-0.015,1.633,0.057
	c0.896,0.064,1.237,0.107,1.801,0.119c0.563,0.019,0.979,0.066,1.044,0.066c0.07,0,0.127-0.016,0.143,0.1
	c0.013,0.111-0.11,0.142-0.11,0.142s-0.125-0.065-0.142,0.024c-0.012,0.101-0.148,1.537-0.148,1.537s0.512,0.084,0.591,0.11
	c0.085,0.021,0.248,0.108,0.37,0.125c0.126,0.013,0.195-0.086,0.262,0.013c0.069,0.096,0.375,0.562,0.512,0.797
	c0.136,0.233,0.631,0.896,0.892,1.351c0.263,0.448,0.701,0.978,0.769,1.142c0.07,0.166,0.438,0.987,0.758,1.319
	c0.318,0.328,0.975,1.181,1.457,1.578c0.48,0.396,1.018,1.067,1.224,1.137c0.208,0.074,0.315,0.115,0.315,0.115l-0.098-2.199
	c0,0-0.453-0.797-0.468-1.196c-0.01-0.396-0.056-0.836,0.085-1.177c0.137-0.351,0.312-1.051,0.355-1.133
	c0.039-0.08-0.014-1.045,0-1.271c0.016-0.238,0-0.398,0-0.398s-0.741-1.609-0.896-1.938c-0.147-0.33-0.274-0.554-0.301-0.72
	c-0.027-0.161-0.208-0.646-0.208-0.646s-0.221,0.346-0.37,0.471s-0.481,0.591-0.592,0.695c-0.109,0.111-0.354,0.168-0.354,0.168
	s0.122-0.646,0.274-0.797c0.149-0.15,0.592-0.576,0.767-0.717c0.182-0.14,0.348-0.271,0.581-0.593
	c0.23-0.313,0.19-0.166,0.328-0.491c0.138-0.334,0.318-0.826,0.304-1.172c-0.016-0.341-0.056-0.919,0.017-1.015
	c0.063-0.103,0.202-0.412,0.215-0.646c0.017-0.232,0.03-0.678,0.069-0.867c0.041-0.188,0.142-1.664,0.166-1.883
	c0.025-0.221,0.025-0.617,0.039-0.836c0.017-0.221,0.017-0.564,0.099-0.967c0.083-0.396,0.192-0.977,0.192-1.122
	c0-0.153-0.043-0.305,0.023-0.512c0.07-0.207,0.109-0.579,0.109-0.579s-0.109,0.166-0.314,0.329
	c-0.205,0.166-0.33,0.427-0.438,0.634c-0.11,0.207-0.438,1.109-0.618,1.416c-0.181,0.305-0.222,0.594-0.358,0.895
	c-0.138,0.305-0.289,0.66-0.412,0.924c-0.123,0.262-0.222,0.508-0.302,0.604c-0.082,0.092,0.291-0.979,0.315-1.113
	c0.027-0.142,0.068-0.392,0.068-0.688c0-0.307,0.233-1.432,0.536-1.979c0.302-0.554,0.632-1.006,0.688-1.211
	c0.055-0.209,0.892-1.314,0.836-1.25c-0.057,0.064,0.193-0.533,0.304-0.758c0.112-0.226,0.552-0.838,0.866-1.414
	c0.316-0.574,0.053-0.574,0.604-1.482c0.553-0.908,0.741-1.107,0.965-1.273c0.219-0.166,0.188-0.15,0.244-0.193
	c0.055-0.041,0.387-0.271,0.635-0.285c0.246-0.02,0.222-0.114,0.396-0.114c0.182,0,0.331-0.123,0.331-0.123l0.142-0.062
	c0,0,0.295-0.268,0.725-0.373c0.428-0.105,1.012-0.221,1.803,0.088c0.791,0.311,1.727,0.703,2.196,1.197
	c0.476,0.498,0.641,0.668,0.927,1.461c0.285,0.797,0.428,1.234,0.682,1.719c0.25,0.48,0.615,1.043,0.713,1.658
	c0.1,0.619,0.135,0.979,0.363,1.67c0.23,0.689,0.211,0.879,0.275,1.181c0.064,0.293,0.24,0.534,0.316,0.769
	c0.075,0.236,0.222,0.713,0.272,1.022c0.056,0.317,0.155,0.759,0.101,1.058c-0.056,0.295-0.193,0.68-0.306,0.979
	c-0.11,0.293-0.165,0.538-0.165,0.684c0,0.14,0.275,0.375,0.626,0.515c0.353,0.147,0.978,0.521,1.218,0.553
	c0.242,0.029,0.312-0.135,1.012-0.014c0.707,0.121,1.509,0.168,1.935,0.6c0.431,0.427,0.881,1.134,1.072,1.836
	c0.184,0.697,0.295,0.832,0.358,1.285c0.063,0.445,0.012,3.177,0.021,4.193c0.015,1.024,0.138,4.914,0.153,6.104
	c0.022,1.187-0.121,3.668-0.164,4.625c-0.043,0.953-0.471,3.392-0.625,3.869c-0.154,0.483-1.018,3.745-1.236,4.303
	c-0.219,0.543-0.749,1.793-0.749,1.793s0.222,0.81,0.349,1.724c0.131,0.914,0.312,1.541,0.478,2.291s0.108,1.021,0.187,1.393
	c0.069,0.365,0.932,2.525,0.985,3.021c0.055,0.494,1.082,2.957,1.414,3.736c0.324,0.788,1.9,4.182,2.179,4.896
	C93.861,196.23,94.248,196.726,94.137,196.843z"/>
<path fill="#20324A" d="M45.074,131.662c2.632-0.027,4.348,1.238,4.938,3.242c0.069,0.688,0.141,1.371,0.206,2.059
	c0.054,0.812,0.104,1.615,0.155,2.414c-0.139,0.793-0.275,1.582-0.414,2.371c-0.2,0.715-0.684,1.228-0.77,2.008
	c0.992,0.338,1.986,0.688,2.979,1.029c1.767,0.6,4.117,0.58,5.099,1.951c0.912,1.283,1.76,4.152,2.106,5.918
	c0.09,0.738,0.172,1.473,0.26,2.211c0.563,1.695,1.127,3.395,1.693,5.092c0.479,1.885,0.963,3.775,1.442,5.656
	c0.498,1.471,0.976,3.359,1.285,4.893c-0.087,0.732-0.173,1.479-0.255,2.209c0.488,1.277,1.222,2.726,0.306,3.854
	c0.074,1.494,0.92,2.16,1.133,3.556c-0.549,0.754-0.606,2.119-1.133,2.881c0.604,1.219,1.203,2.438,1.804,3.652
	c0.377,0.051,3.18,0.155,3.237,0.207c0.256,1.508,0.515,3.016,0.771,4.522c0.465,2.473,0.928,4.94,1.39,7.405
	c0.086,0.863,0.176,1.72,0.258,2.578c0.153,0.777,0.539,4.785,0.515,4.832c-2.106,0.43-4.218,0.855-6.326,1.293
	c-0.375-0.336-0.756-0.656-1.133-0.983c-1.3-0.82-2.603-1.646-3.908-2.47c-0.569-0.672-0.164-2.207-0.771-2.828
	c-0.31,0.104-0.621,0.207-0.924,0.306c-0.328,0.711-0.271,1.668-0.519,2.522c-0.271,0.927-0.83,1.746-1.338,2.47
	c-0.806,0.961-1.613,1.922-2.421,2.883c-0.497,0.379-0.991,0.754-1.487,1.125c-0.062,0.104-0.524,2.539-0.569,2.733
	c-0.02,0-0.035,0-0.053,0c-0.084,0.664,0.571,1.488,0.775,2.004c0.185,0.484,0.716,3.66,0.615,4.22
	c-0.201,1.142-1.533,2.483-3.035,1.75c-1.121-0.552-2.109-2.625-2.361-4.017c-0.3-1.602,0.43-3.233-0.568-4.164
	c-0.018,0-0.033,0-0.054,0c0,0.035,0,0.062,0,0.104c-0.601,1.531,0.313,3.75,0.464,5.246c0.149,1.449-0.854,1.943-0.619,3.238
	c0.25,1.326,1.163,1.982,0.413,3.447c0.486,0.268,0.132,0.531,0.364,1.078c0.436,1.047,1.781,1.703,1.486,3.396
	c-3.286,1.61-5.781,0.481-7.611-1.646c0.027-0.793,0.309-1.531,0.102-2.262c-0.672-0.242-0.494-1.844-0.664-2.574
	c-0.658-2.773-0.451-6.016-0.928-9.102c-0.242-2.354-0.479-4.703-0.725-7.059c0.053-1.646,0.104-3.293,0.158-4.935
	c-0.221-1.185-1.012-2.327-1.289-3.655c0-3.324,0-6.646,0-9.978c-0.002-1.401-0.401-2.461-0.613-3.707
	c-0.068-1.353-0.139-2.711-0.205-4.063c-0.107-0.672-0.322-1.289-0.107-1.795c-1.403-1.965-0.484-5.412-0.717-7.718
	c-0.082-0.812,0.182-2.188-0.359-2.521c-0.25,1.916-0.785,4.115-1.543,5.709c-0.396,0.672-0.789,1.336-1.188,2.004
	c-0.314,0.771,0.458,2.17-0.05,3.035c-0.209,0.102-0.414,0.207-0.614,0.307c-0.222,0.494,1.881,5.551,0.979,6.535
	c-0.396-0.168-0.657-0.344-0.928-0.199c-0.033,0.133-0.068,0.266-0.104,0.406c0.206,0.172,0.411,0.344,0.618,0.516
	c-0.018,0.09-0.032,0.172-0.049,0.254c-2.448,0.59-3.306-1.238-3.811-3.34c-0.217-0.902,0.441-1.68,0.309-2.422
	c-0.101-0.561-0.731-2.555-0.67-2.672c0.108-0.271,0.278-0.244,0.461-0.41c-0.056-3.455-0.74-7.334-0.147-10.807
	c0.244-1.449,0.619-2.797,0.924-4.113c0.12-0.855,0.236-1.717,0.361-2.572c0.425-1.182,0.854-2.369,1.282-3.551
	c0.713-2.592,0.362-5.295,1.754-7.1c0.44-0.576,1.279-0.824,1.9-1.234c1.391-1.098,2.776-2.191,4.165-3.293
	c0.443-0.328,1.493-0.473,1.749-0.98c0.512-0.977,0.241-2.949-0.051-3.906c-0.734-0.237-1.82-1.188-1.54-2.362
	c0.071-0.312,0.369-0.5,0.463-0.72c0-0.551,0-1.102,0-1.646c0.021-1.235,0.414-2.209,0.976-2.935
	C43.1,132.154,43.88,132.13,45.074,131.662z M56.492,163.091c-0.26,0.922,0.512,4.715,0.723,5.766
	c0.438,2.164,0.621,4.074,0.979,6.223c0.156,0.978,0.035,1.961-0.103,2.676c-0.086,0.449,0.304,0.668,0.361,0.979
	c-0.072,0.271-0.144,0.554-0.209,0.824c0.151,0.601,0.312,1.203,0.463,1.799c0.346,1.254,0.44,3.976,1.185,4.731
	c0.67-0.133,1.336-0.274,2.008-0.414c0.071-0.875,0.688-2.403,0.306-3.079c-0.019,0-0.033,0-0.052,0
	c-0.254,0.114-0.514,0.235-0.771,0.356c-0.088-0.053-0.172-0.104-0.256-0.156c-0.004-0.914,0.51-1.901,0.256-2.881
	c-0.153-0.312-0.305-0.617-0.463-0.926c-0.166-0.789,0.285-1.939-0.051-2.213c-1.47-0.736-0.597-1.971-1.082-3.447
	c-0.236-0.723-0.896-1.287-1.181-2.061c-0.244-1.25-0.479-2.5-0.724-3.754c-0.446-1.25-1.073-2.787-1.231-4.428
	C56.598,163.091,56.545,163.091,56.492,163.091z M62.875,180.228c-0.053,0.238-0.104,0.48-0.158,0.715
	c0.039,0.016,0.072,0.031,0.105,0.055c0.066-0.203,0.137-0.414,0.209-0.621C62.975,180.326,62.926,180.275,62.875,180.228z
	 M62.566,182.902c-0.154,0.906-0.312,1.812-0.465,2.723c0.018,0,0.033,0,0.051,0c0.207-0.051,0.414-0.102,0.617-0.147
	c0.066-0.849,0.139-1.685,0.203-2.521C62.838,182.937,62.699,182.921,62.566,182.902z M63.285,182.953
	c-0.049,0.051-0.105,0.104-0.154,0.156c-0.051,0.754-0.1,1.504-0.156,2.258c0.5-0.104,0.996-0.203,1.494-0.305
	c-0.344-0.703-0.686-1.41-1.027-2.109C63.389,182.953,63.338,182.953,63.285,182.953z M63.697,183.003
	c0.307,0.664,0.619,1.336,0.924,2.008c0.072-0.016,0.139-0.031,0.209-0.055c0-0.021,0-0.031,0-0.056
	c-0.328-0.637-0.65-1.271-0.979-1.897C63.803,183.003,63.75,183.003,63.697,183.003z M33.193,183.718
	c-0.178,0.211-0.344,0.418-0.517,0.621c0,0.07,0,0.141,0,0.207c0.38,0.332,0.583,0.688,1.232,0.771c0-0.062,0-0.104,0-0.153
	c-0.134-0.504-0.188-1.043-0.414-1.445C33.396,183.718,33.298,183.718,33.193,183.718z M65.084,185.73
	c0.076,0.227,0.025,0.27,0.26,0.359C65.287,185.863,65.266,185.828,65.084,185.73z M49.496,195.761
	c-0.541,1.246,0.098,3.277-0.205,4.832c-0.256,0.656-0.514,1.305-0.77,1.961c-0.182,0.645-0.28,3.984-0.104,4.367
	c0.292-0.125,0.515-0.254,0.724-0.461c-0.055-0.258-0.107-0.521-0.156-0.771c0.271-0.469,0.547-0.932,0.824-1.396
	c0.518-1.354,1.01-2.625,1.696-3.852c-0.866-0.828-1.106-0.949-1.392-2.422C49.969,197.261,50.077,196.074,49.496,195.761z"/>
<path fill="#FFFFFF" stroke="#000000" stroke-width="0.75" d="M92.703,117.66H88.66c-5.107,0-9.25-4.141-9.25-9.25V69.734
	c0-5.109,4.143-9.248,9.25-9.248h49.604c5.107,0,9.254,4.139,9.254,9.248v38.676c0,5.109-4.146,9.25-9.254,9.25
	c0.002,0-31.021,0-31.021,0l-4.716,15.414L92.703,117.66z"/>
<path fill="#20324A" d="M49.904,55.191c0,0,23.387,0,23.386,0c3.38,0,6.12-2.738,6.12-6.121V28.514c0-3.381-2.74-6.12-6.12-6.12
	H41.375c-3.38,0-6.119,2.739-6.119,6.12V49.07c0,3.383,2.739,6.121,6.119,6.121c-0.001,0,1.443,0,1.443,0l5.951,23.656
	L49.904,55.191z"/>
<path fill="#20324A" d="M65.43,123.042h4.363c3.38,0,6.119-2.738,6.119-6.122V107.5c0-3.379-2.739-6.119-6.119-6.119H54.611
	c-3.381,0-6.119,2.74-6.119,6.119v9.426c0,3.379,2.738,6.117,6.119,6.117h1.47l6.121,7.81L65.43,123.042z"/>
<path fill="#FFFFFF" stroke="#000000" stroke-width="0.75" d="M111.209,137.376c1.854,1.854,1.455,5.729,0.061,7.772
	c-0.254,0.384-0.744,0.324-1.102,0.61c-0.645,0.521-1.625,2.761-1.286,4.283c0.272,1.23,2.541,1.76,3.677,2.207
	c1.547,0.609,2.568,1.441,3,3.188c0.203,0.812,0.062,2.021-0.062,2.761c-0.039,0.877-0.08,1.756-0.121,2.635
	c-0.368,2.102-1.008,3.975-1.774,5.69c-0.43,0.812-0.855,1.638-1.287,2.449c0.186,0.896,0.369,1.799,0.552,2.69
	c0.192,1.228-0.271,2.496-0.12,3.435c0.172,1.104,0.695,2.258,0.92,3.489c0.814,4.578,0.075,10.845-0.611,15.066
	c-0.214,1.312,0.156,4.582-0.432,5.512c-0.457,0.728-1.953,1.049-3.123,1.039c-0.262,0.949-0.032,2.51,0.123,3.312
	c0.381,1.941,0.877,4.805,0.488,7.104c-0.766,4.543-1.729,8.44-2.447,12.862c-0.311,1.88,0.611,2.738,0.916,3.978
	c0.234,0.953-0.125,1.479-0.121,2.52c-0.684,0.418-2.802,0.562-3.244-0.246c-0.188-0.336,0.021-0.521-0.244-0.734
	c-0.389-0.164-0.777-0.324-1.164-0.488c0,0-3.789,0.707-4.896,0.613c-0.551-0.94,0.416-1.688,0.668-2.328
	c0.062-0.448,0.125-0.897,0.188-1.349c0.779-1.448,2.615-2.851,1.896-5.636c-0.322-1.254-1.062-2.332-1.531-3.438
	c-1.271-2.978-2.564-5.922-3.551-9.125c-0.574-1.859-0.686-3.957-1.046-6.125c-0.021-0.854-0.041-1.715-0.06-2.566
	c-0.285-0.477-0.57-0.938-0.856-1.41c-0.043-0.771-0.081-1.551-0.122-2.328c-0.714-3.941-0.1-8.516-0.062-12.488
	c-1.16-0.203-1.92,0.465-2.877,0.547c-0.043-0.02-0.082-0.035-0.123-0.062c-0.539-2.213,0.393-4.818,0.735-6.611
	c0.267-1.75,0.53-3.514,0.797-5.27c0.306-0.367,0.608-0.734,0.916-1.104c0.146-0.49,0.287-0.979,0.433-1.475
	c-0.006-0.002-1.979,0.5-2.938,0.186c-2.111-3.356,1.07-10.379,2.021-13.289c0.508-1.561,0.812-3.349,2.084-4.104
	c2.354-1.404,5.957-0.018,7.896-2.021c0.254-1.562-0.741-2.393-0.979-3.797c-0.258-1.521,0.123-2.957,0.367-4.041
	c0.022-0.633,0.043-1.27,0.063-1.897c0.642-2.084,2.696-3.043,5.084-3.246C109.252,136.677,110.32,136.482,111.209,137.376z
	 M101.718,198.992c-0.084,0.773-0.163,1.551-0.243,2.328c-0.158,0.516-0.746,1.004-0.613,1.715c0.306,1.613,1.283,3.129,1.65,4.898
	c0.383,1.828,0.025,3.965,0.37,5.941c0.284,1.664,0.791,3.059,1.405,4.352c0.391,0.809,0.561,1.312,1.285,1.773
	c-0.242-3.229-0.492-6.449-0.729-9.685c0.021-1.401,0.037-2.812,0.06-4.229c-0.321-1.258-0.649-2.521-0.979-3.789
	c0.062-1.371,0.123-2.736,0.182-4.107C103.309,198.46,102.512,198.726,101.718,198.992z"/>
</svg>
