<?xml version="1.0" encoding="utf-8"?>
<!-- Generator: Adobe Illustrator 14.0.0, SVG Export Plug-In . SVG Version: 6.00 Build 43363)  -->
<!DOCTYPE svg PUBLIC "-//W3C//DTD SVG 1.1//EN" "http://www.w3.org/Graphics/SVG/1.1/DTD/svg11.dtd">
<svg version="1.1" id="Layer_1" xmlns="http://www.w3.org/2000/svg" xmlns:xlink="http://www.w3.org/1999/xlink" x="0px" y="0px"
	 width="180px" height="244.8px" viewBox="0 0 180 244.8" enable-background="new 0 0 180 244.8" xml:space="preserve">
<path fill="#434F5B" d="M146.127,189.664c0.048-0.492,0.195-0.516,0.355-0.848c-0.424-0.047-0.777-0.105-1.066-0.426
	c0.119-1.141,0.236-2.273,0.357-3.41c-0.088-0.426-0.328-0.984-0.215-1.629c0.186-1.035,0.764-1.961,0.992-2.912
	c0.278-1.148-1.879-5.73-2.271-6.812c-0.051,0.023-0.096,0.047-0.141,0.07c-0.107,0.961-0.812,4.629-0.57,5.535
	c0.401,0.969,0.808,1.938,1.207,2.908c0.205,0.59,0.922,2.551,0.425,3.125c-0.179,0.199-0.343,0.312-0.565,0.285
	c-0.144-0.309-0.283-0.617-0.427-0.926c-0.022,0-0.047,0-0.067,0c0.211,1.871,0.426,3.735,0.639,5.604
	c-0.07,0.688-0.145,1.375-0.213,2.061c0.16,0.572,0.334,1.137,0.498,1.703c0.404,2.555-0.973,6.271-1.492,8.305
	c-0.473,0.021-0.942,0.048-1.42,0.07c-0.473,3.586-2.529,5.978-4.115,8.512c-0.489,0.789-1.157,1.47-1.348,2.56
	c1.607,1.285,0.785,1.949,1.203,3.974c0.324,1.561,3.91,7.453,0.354,8.375c-6.077,1.573-3.187-5.961-5.819-7.732
	c-0.029,2.783,0.795,3.447,1.211,5.033c0.045,0.875,0.092,1.754,0.143,2.629c0.224,0.648,1.404,3.285,1.273,3.688
	c-0.979,1.535-6,0.871-7.166,0c-0.109-0.779-0.392-1.072-0.496-1.771c0.117-0.608,0.234-1.229,0.354-1.844
	c-0.097-0.76-0.188-1.518-0.284-2.271c0.098-0.396,0.521-0.732,0.854-0.922c-0.246-0.281-0.344-0.271-0.285-0.713
	c0.379-0.404,0.604-0.465,1.137-0.564c0.044-2.142-0.484-3.369-0.991-5.043c-1.241-4.064-2.379-9.521-0.856-13.979
	c-2.104,0.039-5.584,0.631-6.596-0.637c0.439-2.832,0.603-5.461,0.068-8.449c-0.023-0.805-0.045-1.604-0.068-2.408
	c-1.061,0.025-4.082-3.234-3.763-5.182c0.218-0.853,0.427-1.703,0.644-2.556c0.269-1.272,0.022-2.562,0.209-3.688
	c0.049-2.297,0.097-4.59,0.142-6.883c0.271-1.646,0.901-3.793,0.642-5.396c-1.396-0.781-2.789-1.562-4.188-2.345
	c0.062-1.31,1.176-2.571,1.633-3.69c1.214-2.957,3.132-10.776,5.182-12.418c1.914-1.526,4.467-2.198,6.529-3.616
	c0.871-0.601,1.434-1.703,2.059-2.556c-0.099-1.912-1.574-1.675-2.129-2.979c-0.427-1,0.142-1.468,0-2.414
	c-0.098-0.777-0.19-1.562-0.283-2.34c0.472-2.56,2.832-5.091,6.388-4.188c3.144,0.799,4.187,4.68,3.899,7.807
	c0.023,0.73,0.049,1.469,0.069,2.201c-0.142,0.812-0.94,1.629-0.638,2.41c1.789,3.426,6.281,3.098,8.16,5.604
	c1.955,2.616,1.73,7.526,2.482,11.354c0.25,1.272,1.582,4.719,1.139,5.745c-0.549,0.332-1.092,0.664-1.635,0.994
	c0.285,1.988,0.565,3.976,0.854,5.961c0.459,2.39,0.439,5.425,0.992,7.808c0.234,0.069,0.473,0.142,0.711,0.216
	c0.221,0.924-0.016,1.463-0.643,1.911C149.723,185.73,149.207,189.457,146.127,189.664z M120.865,179.447
	c-0.108,0.906-0.641,2.4-0.145,3.119c0,0.051,0,0.098,0,0.145c0.098-0.067,0.19-0.145,0.28-0.215
	C121.214,181.605,121.386,180.326,120.865,179.447z M146.908,185.265c-0.045,0.473-0.098,0.945-0.145,1.418
	c0.024,0.047,0.047,0.098,0.072,0.141c0.282-0.02,0.566-0.043,0.852-0.066c0-0.141,0-0.286,0-0.426
	c-0.068-0.285-0.141-0.567-0.215-0.854C147.285,185.406,147.098,185.335,146.908,185.265z M120.014,186.617
	c-0.046,0.328-0.098,0.66-0.143,0.988c0.045-0.023,0.097-0.047,0.143-0.07c0.07-0.305,0.146-0.613,0.215-0.918
	C120.156,186.617,120.084,186.617,120.014,186.617z M146.766,187.32c-0.104,0.246-0.171,0.184,0,0.426
	c0.272-0.104,0.366-0.086,0.498-0.352C147.098,187.371,146.934,187.347,146.766,187.32z M121.22,187.675
	c-0.073,0.684-0.239,1.516-0.922,1.633c0.211,0.332,0.427,0.664,0.64,0.992c0-0.043,0-0.09,0-0.141
	C121.199,189.617,121.443,188.25,121.22,187.675z M133.712,201.16c-1.166,2.797-0.562,4.617-0.354,7.523
	c0.074,1.043-0.582,2.422-0.213,3.332c0-0.047,0-0.09,0-0.141c0.771-0.676,1.142-2.574,1.347-3.765
	c-0.021-0.985-0.048-1.985-0.067-2.979c0.241-1.395,0.793-2.561,1.35-3.619C135.082,201.398,134.395,201.277,133.712,201.16z
	 M128.742,221.597c-0.166,0.094-0.332,0.188-0.496,0.285c0.047,0.047,0.097,0.094,0.143,0.141c0.215-0.07,0.426-0.141,0.641-0.211
	c-0.051-0.074-0.098-0.145-0.146-0.215C128.837,221.597,128.789,221.597,128.742,221.597z M128.316,222.234
	c0.068,0.023,0.141,0.051,0.213,0.074C128.457,222.285,128.389,222.257,128.316,222.234z"/>
<path fill="#434F5B" d="M128.882,48.139h9.94c2.922,0,5.291-2.367,5.291-5.291V20.725c0-2.924-2.369-5.291-5.291-5.291h-28.373
	c-2.924,0-5.293,2.367-5.293,5.291v22.123c0,2.924,2.369,5.291,5.293,5.291h9.082l5.104,8.481L128.882,48.139z"/>
<path fill="#434F5B" d="M94.137,196.843c-0.109,0.109-1.521,0.621-1.631,0.691c-0.113,0.075-0.258,0.032-0.258,0.032
	s0.727,1.16,0.762,1.386c0.037,0.219,0.072,0.321,0.02,0.375c-0.055,0.039-0.771,0.309-1.146,0.414
	c-0.377,0.114-0.704,0.104-0.94,0.118c-0.238,0.021-0.213-0.094-0.471,0.07c-0.256,0.18-0.4,0.12-0.604,0.172
	c-0.2,0.039-0.256,0.078-0.256,0.078s0.037,1.37,0.037,1.403c0,0.035,0,0.121-0.239,0.105c-0.24-0.012-0.32-0.035-0.521-0.066
	c-0.201-0.021-0.422-0.18-0.598-0.18c-0.175,0-0.432,0.043-0.613,0.066c-0.183,0.02-0.303-0.023-0.503-0.027
	c-0.2-0.016-0.2-0.039-0.296-0.023c-0.09,0.023-0.576,0.217-0.576,0.217s-0.175,0.125-0.02,0.875
	c0.156,0.759,0.156,0.759,0.156,0.759s0.192,0.836,0.192,1.567c0,0.742,0.095,3.543-0.221,4.933
	c-0.312,1.396-0.696,4.043-0.999,5.11c-0.298,1.074-0.566,2.398-0.943,3.418c-0.377,1.019-1.062,2.675-1.181,3.203
	c-0.117,0.531-0.138,0.543-0.058,0.609c0.084,0.059,0.164-0.012,0.119,0.195c-0.045,0.195,0.012,0.293-0.108,0.305
	c-0.118,0.008-0.236-0.012-0.236-0.012s0.19,0.617,0.201,0.727c0.007,0.109,0.024,0.646,0.024,0.816c0,0.16,0.119,0.73,0.193,1.016
	c0.075,0.286,0.11,0.688,0.208,0.832c0.104,0.152,0.188,0.445,0.195,0.508c0.008,0.058-0.173,0.578-0.213,0.664
	c-0.035,0.086-0.658,1.375-0.861,1.707c-0.2,0.328-0.267,0.688-0.336,0.771c-0.075,0.082-0.415,0.219-0.614,0.254
	c-0.201,0.039-1.125,0.332-1.594,0.357c-0.469,0.03-1.679,0.03-1.926,0.014c-0.248-0.021-1.045-0.104-1.162-0.104
	c-0.118,0-0.318-0.121-0.312-0.174c0.008-0.056,0.082-0.224,0.047-0.312c-0.039-0.082-0.119-0.512-0.185-0.668
	c-0.063-0.155-0.155-0.155-0.073-0.219c0.084-0.065,0.229-0.16,0.229-0.16s-0.128-0.117-0.185-0.188
	c-0.059-0.072-0.139-0.176-0.139-0.305c0-0.125,0-0.246,0.11-0.32c0.108-0.072,0.2-0.104,0.2-0.104s0.021-0.188,0.101-0.229
	c0.085-0.033,0.158-0.043,0.213-0.043c0.056,0-0.106-0.301,0.062-0.457c0.177-0.158,0.319-0.322,0.319-0.322
	s-0.108,0.025-0.274-0.168c-0.161-0.189-0.244-0.273-0.149-0.354c0.099-0.082,0.222-0.224,0.466-0.234
	c0.252-0.016,0.566-0.155,0.678-0.202c0.109-0.06,0.261-0.246,0.285-0.418c0.029-0.16,0.812-1.539,1.008-2.043
	c0.188-0.517,0.174-0.688,0.203-0.906c0.027-0.219-0.084-0.449,0.098-0.611c0.18-0.146,0.205-0.16,0.205-0.229
	c0-0.065-0.139-0.185-0.125-0.254c0.015-0.062,0.193-0.16,0.193-0.16s0.963-1.746,1.019-3.22c0.055-1.461,0.274-3.116,0.261-4.651
	c-0.011-1.539,0.314-4.164,0.469-5.336c0.149-1.168-0.166-2.979-0.166-3.513c0-0.538-0.098-0.909-0.168-1.103
	c-0.063-0.194-0.341-0.991-0.341-0.991s-1.993-0.397-3.601-0.574c-1.608-0.18-3.614-0.401-4.385-0.349
	c-0.769,0.06-1.44-0.021-1.44-0.021s-0.427,0.477-0.347,1.059c0.084,0.578,0.479,2.031,0.744,3.146
	c0.264,1.107,0.77,3.096,0.7,4.182c-0.069,1.082-0.166,2.232-0.221,2.992c-0.054,0.758,0.067,1.594,0.083,3.082
	c0.012,1.479,0.125,2.456,0.148,3.576c0.024,1.135,0.043,1.521,0.182,2c0.136,0.479,0.013,0.271,0.301,0.799
	c0.288,0.52,0.314,0.857,0.314,1.012c0,0.156-0.055,0.293,0.016,0.406c0.07,0.104,0.195,0.115,0.357,0.4
	c0.168,0.297,0.492,0.682,0.492,0.99c0,0.316,0.07,0.441-0.022,0.6c-0.103,0.146-0.103,0.146,0.01,0.238
	c0.11,0.104,0.25,0.06,0.235,0.168c-0.014,0.111,0.138,0-0.08,0.479c-0.223,0.483-0.483,1.211-0.704,1.832
	c-0.218,0.616-0.231,0.905-0.37,0.991c-0.139,0.082-0.318,0.19-0.453,0.199c-0.141,0.017-0.469-0.009-0.826-0.009
	c-0.354,0-0.589,0.039-0.781-0.03c-0.191-0.069-0.508-0.181-0.508-0.181s-0.192-0.108-0.262-0.137
	c-0.072-0.027-0.357-0.178-0.357-0.178s-0.205,0.312-0.592,0.354c-0.386,0.043-0.386,0.131-0.591,0.178
	c-0.205,0.055-0.797,0.168-1.127,0.176c-0.331,0.018-1.428,0.074-2.019,0.086c-0.592,0.018-1.114,0.048-1.445,0.057
	c-0.328,0.017-0.604,0.017-0.836-0.039c-0.232-0.062-0.413-0.354-0.469-0.535c-0.057-0.18-0.19-0.223-0.15-0.401
	c0.04-0.176,0.057-0.25,0.262-0.272c0.204-0.025,0.399-0.082,0.399-0.082l0.028-0.189c0,0,0.121-0.312,0.16-0.383
	c0.041-0.071,0.018-0.303,0.15-0.354c0.141-0.061,0.331-0.195,0.496-0.264s0.346-0.188,0.456-0.25
	c0.108-0.064-0.142-0.189-0.142-0.189s0.25-0.057,0.387-0.086c0.135-0.022,0.381-0.053,0.244-0.135
	c-0.135-0.082-0.176-0.223-0.176-0.223s0.262-0.07,0.33-0.096c0.065-0.025,0.178-0.318,0.178-0.318s0.013-0.121,0.108-0.121
	c0.099,0,0.099,0.039,0.152,0.138c0.053,0.099,0.407,0.112,0.549,0.013c0.138-0.094,0.866-0.961,1.044-1.301
	c0.178-0.346,0.248-0.566,0.618-0.924c0.371-0.357,0.371-0.369,0.552-0.582c0.178-0.201,0.26-0.4,0.26-0.629
	c0-0.225,0.025-0.812,0.025-0.812s0.045-1.694-0.04-2.19c-0.08-0.496-0.619-3.879-0.797-4.565c-0.181-0.685-0.552-2.871-0.673-3.504
	c-0.123-0.634-0.494-2.957-0.483-3.777c0.019-0.822,0.019-2.312-0.108-2.947c-0.121-0.65-0.354-1.521-0.383-1.604
	c-0.029-0.082-0.386-1.193-0.511-1.482c-0.12-0.289-0.397-1.521-0.397-2.564c0-1.049,0.113-1.647,0.113-1.647
	s-0.703-0.234-1.156-0.457c-0.451-0.216-0.824-0.438-0.867-0.492c-0.04-0.06,0.842-1.69,1.213-2.336
	c0.369-0.646,0.961-1.797,1.232-2.324c0.275-0.521,1.73-3.723,2.076-4.577c0.344-0.849,1.293-3.556,1.482-4.449
	c0.191-0.892,0.471-1.908,0.842-2.584c0.37-0.676,0.546-1.142,0.546-1.28c0-0.134,0.069-0.405,0.069-0.405s0.344-0.539,0.344-0.84
	c0-0.303-0.014-0.646-0.04-0.729c-0.028-0.082-0.248,0.069-0.218-0.276c0.023-0.345-0.251-2.582-0.238-2.638
	c0.016-0.056,0.36-0.289,0.428-0.355c0.068-0.066,0.058-0.121,0.058-0.268c0-0.135,0-0.463,0-0.463s0.188-1.031,0.188-1.228
	c0-0.188-0.08-0.438,0-0.545c0.082-0.115,0.209-0.304,0.264-0.373c0.056-0.065,0.097-0.604,0.097-0.604v-0.276
	c0,0-2.172-1.767-3.243-3.255c-1.072-1.48-1.428-2.293-1.839-2.814c-0.413-0.521-0.485-0.58-0.565-0.629
	c-0.078-0.057-0.164-0.082-0.205-0.15c-0.041-0.07-0.041-0.168-0.041-0.168l-0.246-0.19c0,0-0.112-0.065-0.166-0.177
	c-0.055-0.108-0.082-0.17-0.151-0.276c-0.065-0.108-0.229-0.285-0.229-0.285s-0.111-0.346-0.307-0.457
	c-0.189-0.108-0.521-0.204-0.74-0.219c-0.222-0.017-0.467-0.065-0.797-0.121c-0.33-0.06-0.48-0.19-0.717-0.19
	c-0.229,0-0.561-0.031-0.77,0.051c-0.207,0.082-0.592,0.207-0.78,0.223c-0.195,0.014-0.563,0.023-0.619-0.037
	c-0.056-0.074-0.165-0.115-0.194-0.193c-0.023-0.09-0.094-0.428-0.094-0.428l-0.068-0.125l0.016-0.66c0,0-0.413-0.301-0.483-0.387
	c-0.069-0.082-0.175-0.328-0.204-0.451c-0.025-0.123-0.097-0.183-0.025-0.221c0.064-0.044,0.188-0.109,0.188-0.191
	c0-0.08,0.06-0.18,0.072-0.231c0.013-0.056,0.067-0.08,0.123-0.109c0.058-0.026,0.082-0.012,0.026-0.067
	c-0.057-0.058-0.224-0.139-0.301-0.248c-0.086-0.107-0.277-0.387-0.291-0.512c-0.016-0.119,0.069-0.302,0.123-0.354
	c0.059-0.058,0.178-0.134,0.287-0.147c0.11-0.015,0.398-0.025,0.398-0.025l-0.04-0.409c0,0-0.233-0.129-0.315-0.207
	c-0.085-0.086-0.178-0.103-0.178-0.25c0-0.149,0.016-0.328,0.08-0.427c0.07-0.098,0.195-0.274,0.273-0.274
	c0.082,0,0.11-0.015,0.11-0.015s-0.013-0.397-0.013-0.456c0-0.052-0.107-0.095-0.107-0.095l0.024-0.147c0,0,0.741-0.015,1.633,0.056
	c0.896,0.065,1.237,0.108,1.801,0.12c0.563,0.017,0.979,0.066,1.044,0.066c0.07,0,0.127-0.015,0.143,0.1
	c0.013,0.111-0.11,0.14-0.11,0.14s-0.125-0.065-0.142,0.026c-0.012,0.099-0.148,1.537-0.148,1.537s0.512,0.084,0.591,0.11
	c0.085,0.021,0.248,0.109,0.37,0.125c0.126,0.013,0.195-0.086,0.262,0.013c0.069,0.095,0.375,0.562,0.512,0.797
	c0.136,0.233,0.631,0.896,0.892,1.349c0.263,0.449,0.701,0.978,0.769,1.142c0.07,0.165,0.438,0.987,0.758,1.319
	c0.318,0.328,0.975,1.181,1.457,1.578c0.48,0.397,1.018,1.069,1.224,1.137c0.208,0.074,0.315,0.115,0.315,0.115l-0.098-2.199
	c0,0-0.453-0.797-0.468-1.196c-0.01-0.396-0.056-0.836,0.085-1.177c0.137-0.35,0.312-1.051,0.355-1.133
	c0.039-0.08-0.014-1.045,0-1.272c0.016-0.237,0-0.397,0-0.397s-0.741-1.61-0.896-1.938c-0.147-0.33-0.274-0.553-0.301-0.719
	c-0.027-0.162-0.208-0.646-0.208-0.646s-0.221,0.346-0.37,0.471s-0.481,0.59-0.592,0.695c-0.109,0.111-0.354,0.168-0.354,0.168
	s0.122-0.646,0.274-0.797c0.149-0.15,0.592-0.576,0.767-0.717c0.182-0.139,0.348-0.271,0.581-0.592
	c0.23-0.314,0.19-0.166,0.328-0.492c0.138-0.334,0.318-0.826,0.304-1.171c-0.016-0.341-0.056-0.919,0.017-1.015
	c0.063-0.102,0.202-0.412,0.215-0.646c0.017-0.233,0.03-0.677,0.069-0.867c0.041-0.188,0.142-1.664,0.166-1.883
	c0.025-0.22,0.025-0.617,0.039-0.836c0.017-0.22,0.017-0.565,0.099-0.966c0.083-0.397,0.192-0.975,0.192-1.122
	c0-0.154-0.043-0.304,0.023-0.511c0.07-0.207,0.109-0.58,0.109-0.58s-0.109,0.166-0.314,0.33c-0.205,0.166-0.33,0.426-0.438,0.633
	c-0.11,0.207-0.438,1.111-0.618,1.416c-0.181,0.304-0.222,0.593-0.358,0.894c-0.138,0.304-0.289,0.66-0.412,0.923
	c-0.123,0.262-0.222,0.508-0.302,0.604c-0.082,0.092,0.291-0.979,0.315-1.113c0.027-0.142,0.068-0.392,0.068-0.688
	c0-0.307,0.233-1.432,0.536-1.979c0.302-0.552,0.632-1.005,0.688-1.21c0.055-0.209,0.892-1.315,0.836-1.25
	c-0.057,0.065,0.193-0.534,0.304-0.758c0.112-0.224,0.552-0.837,0.866-1.414c0.316-0.575,0.053-0.575,0.604-1.483
	c0.553-0.908,0.741-1.107,0.965-1.273c0.219-0.166,0.188-0.151,0.244-0.194c0.055-0.041,0.387-0.271,0.635-0.285
	c0.246-0.019,0.222-0.114,0.396-0.114c0.182,0,0.331-0.123,0.331-0.123l0.142-0.062c0,0,0.295-0.267,0.725-0.373
	c0.428-0.106,1.012-0.221,1.803,0.089c0.791,0.309,1.727,0.702,2.196,1.196c0.476,0.498,0.641,0.668,0.927,1.461
	c0.285,0.798,0.428,1.235,0.682,1.72c0.25,0.479,0.615,1.043,0.713,1.657c0.1,0.619,0.135,0.979,0.363,1.671
	c0.23,0.689,0.211,0.879,0.275,1.18c0.064,0.293,0.24,0.535,0.316,0.768c0.075,0.236,0.222,0.712,0.272,1.023
	c0.056,0.317,0.155,0.758,0.101,1.057c-0.056,0.295-0.193,0.679-0.306,0.979c-0.11,0.293-0.165,0.539-0.165,0.684
	c0,0.139,0.275,0.375,0.626,0.514c0.353,0.148,0.978,0.52,1.218,0.553c0.242,0.029,0.312-0.135,1.012-0.014
	c0.707,0.121,1.509,0.168,1.935,0.6c0.431,0.426,0.881,1.133,1.072,1.836c0.184,0.697,0.295,0.832,0.358,1.285
	c0.064,0.445,0.012,3.176,0.021,4.193c0.015,1.025,0.138,4.914,0.155,6.105c0.022,1.186-0.121,3.668-0.164,4.625
	c-0.043,0.953-0.473,3.391-0.627,3.869c-0.154,0.484-1.018,3.746-1.236,4.303c-0.219,0.543-0.749,1.793-0.749,1.793
	s0.222,0.809,0.349,1.723c0.131,0.914,0.312,1.541,0.478,2.291s0.108,1.021,0.187,1.393c0.069,0.365,0.932,2.525,0.985,3.021
	c0.055,0.495,1.082,2.957,1.414,3.737c0.325,0.789,1.901,4.181,2.179,4.896C93.861,196.23,94.248,196.726,94.137,196.843z"/>
<path fill="#434F5B" d="M45.074,131.662c2.632-0.027,4.348,1.238,4.938,3.242c0.069,0.688,0.141,1.371,0.206,2.059
	c0.054,0.81,0.104,1.615,0.155,2.414c-0.139,0.793-0.275,1.582-0.414,2.371c-0.2,0.715-0.684,1.226-0.77,2.008
	c0.992,0.338,1.986,0.687,2.979,1.029c1.767,0.6,4.117,0.58,5.099,1.951c0.912,1.283,1.76,4.152,2.106,5.918
	c0.09,0.738,0.172,1.473,0.26,2.211c0.563,1.695,1.127,3.395,1.693,5.092c0.479,1.885,0.963,3.775,1.442,5.656
	c0.498,1.471,0.976,3.359,1.285,4.893c-0.087,0.732-0.173,1.479-0.255,2.209c0.488,1.277,1.222,2.724,0.306,3.854
	c0.074,1.494,0.92,2.16,1.133,3.556c-0.549,0.754-0.606,2.119-1.133,2.881c0.604,1.217,1.203,2.438,1.804,3.652
	c0.377,0.051,3.18,0.155,3.237,0.207c0.256,1.508,0.515,3.016,0.771,4.522c0.465,2.473,0.928,4.94,1.39,7.405
	c0.086,0.863,0.176,1.72,0.258,2.578c0.153,0.779,0.539,4.785,0.515,4.832c-2.106,0.43-4.218,0.857-6.326,1.293
	c-0.375-0.336-0.756-0.656-1.133-0.983c-1.3-0.82-2.603-1.646-3.908-2.47c-0.569-0.672-0.164-2.207-0.771-2.828
	c-0.31,0.104-0.621,0.207-0.924,0.306c-0.328,0.711-0.271,1.668-0.519,2.522c-0.271,0.927-0.83,1.746-1.338,2.47
	c-0.806,0.961-1.613,1.922-2.421,2.883c-0.497,0.379-0.991,0.754-1.487,1.125c-0.062,0.104-0.524,2.539-0.569,2.733
	c-0.02,0-0.035,0-0.053,0c-0.084,0.664,0.571,1.488,0.775,2.004c0.185,0.484,0.716,3.66,0.615,4.22
	c-0.201,1.142-1.533,2.483-3.035,1.75c-1.121-0.552-2.109-2.625-2.361-4.017c-0.3-1.6,0.43-3.233-0.568-4.164
	c-0.018,0-0.033,0-0.054,0c0,0.035,0,0.064,0,0.104c-0.601,1.531,0.313,3.75,0.464,5.246c0.149,1.449-0.854,1.943-0.619,3.238
	c0.25,1.326,1.163,1.982,0.413,3.447c0.486,0.268,0.132,0.531,0.364,1.078c0.436,1.047,1.781,1.703,1.486,3.396
	c-3.286,1.611-5.781,0.482-7.611-1.646c0.027-0.793,0.309-1.531,0.102-2.26c-0.672-0.244-0.494-1.844-0.664-2.576
	c-0.658-2.773-0.451-6.014-0.928-9.1c-0.242-2.354-0.479-4.703-0.725-7.057c0.053-1.646,0.104-3.293,0.158-4.935
	c-0.221-1.185-1.012-2.327-1.289-3.655c0-3.324,0-6.646,0-9.978c-0.002-1.401-0.401-2.461-0.613-3.707
	c-0.068-1.353-0.139-2.711-0.205-4.063c-0.107-0.672-0.322-1.289-0.107-1.795c-1.403-1.965-0.484-5.412-0.717-7.718
	c-0.082-0.812,0.182-2.188-0.359-2.521c-0.25,1.916-0.785,4.115-1.543,5.709c-0.396,0.672-0.789,1.336-1.188,2.004
	c-0.314,0.771,0.458,2.17-0.05,3.035c-0.209,0.102-0.414,0.207-0.614,0.307c-0.222,0.494,1.881,5.551,0.979,6.535
	c-0.396-0.168-0.657-0.344-0.928-0.199c-0.033,0.133-0.068,0.266-0.104,0.406c0.206,0.172,0.411,0.344,0.618,0.516
	c-0.018,0.09-0.032,0.172-0.049,0.254c-2.448,0.59-3.306-1.238-3.811-3.34c-0.217-0.902,0.441-1.68,0.309-2.422
	c-0.101-0.561-0.731-2.555-0.67-2.672c0.108-0.271,0.278-0.244,0.461-0.41c-0.056-3.455-0.74-7.334-0.147-10.807
	c0.244-1.449,0.619-2.797,0.924-4.113c0.12-0.855,0.236-1.717,0.361-2.572c0.425-1.182,0.854-2.369,1.282-3.551
	c0.713-2.592,0.362-5.295,1.754-7.1c0.44-0.576,1.279-0.824,1.9-1.234c1.391-1.098,2.776-2.191,4.165-3.293
	c0.443-0.328,1.493-0.473,1.749-0.98c0.512-0.977,0.241-2.949-0.051-3.906c-0.734-0.239-1.82-1.188-1.54-2.364
	c0.071-0.312,0.369-0.5,0.463-0.718c0-0.551,0-1.102,0-1.647c0.021-1.237,0.414-2.209,0.976-2.933
	C43.1,132.154,43.88,132.13,45.074,131.662z M56.492,163.091c-0.26,0.922,0.512,4.715,0.723,5.766
	c0.438,2.164,0.621,4.074,0.979,6.223c0.156,0.976,0.035,1.961-0.103,2.676c-0.086,0.449,0.304,0.668,0.361,0.979
	c-0.072,0.271-0.144,0.554-0.209,0.824c0.151,0.601,0.312,1.203,0.463,1.799c0.346,1.254,0.44,3.976,1.185,4.731
	c0.67-0.133,1.336-0.274,2.008-0.414c0.071-0.875,0.688-2.403,0.306-3.079c-0.019,0-0.033,0-0.052,0
	c-0.254,0.114-0.514,0.235-0.771,0.356c-0.088-0.051-0.172-0.104-0.256-0.156c-0.004-0.914,0.51-1.901,0.256-2.881
	c-0.153-0.311-0.305-0.617-0.463-0.926c-0.166-0.789,0.285-1.938-0.051-2.211c-1.47-0.738-0.597-1.971-1.082-3.449
	c-0.236-0.721-0.896-1.287-1.181-2.059c-0.244-1.25-0.479-2.5-0.724-3.754c-0.446-1.25-1.073-2.787-1.231-4.426
	C56.598,163.091,56.545,163.091,56.492,163.091z M62.875,180.228c-0.053,0.238-0.104,0.48-0.158,0.715
	c0.039,0.016,0.072,0.031,0.105,0.055c0.066-0.203,0.137-0.414,0.209-0.621C62.975,180.326,62.926,180.275,62.875,180.228z
	 M62.566,182.902c-0.154,0.906-0.312,1.812-0.465,2.723c0.018,0,0.033,0,0.051,0c0.207-0.051,0.414-0.102,0.617-0.149
	c0.066-0.847,0.139-1.683,0.203-2.521C62.838,182.937,62.699,182.921,62.566,182.902z M63.285,182.953
	c-0.049,0.051-0.105,0.104-0.154,0.156c-0.051,0.754-0.1,1.504-0.156,2.258c0.5-0.104,0.996-0.203,1.494-0.305
	c-0.344-0.703-0.686-1.41-1.027-2.109C63.389,182.953,63.338,182.953,63.285,182.953z M63.697,183.003
	c0.307,0.664,0.619,1.336,0.924,2.008c0.072-0.016,0.139-0.031,0.209-0.055c0-0.019,0-0.031,0-0.054
	c-0.328-0.637-0.65-1.271-0.979-1.899C63.803,183.003,63.75,183.003,63.697,183.003z M33.193,183.718
	c-0.178,0.211-0.344,0.418-0.517,0.621c0,0.07,0,0.141,0,0.207c0.38,0.332,0.583,0.688,1.232,0.771c0-0.062,0-0.104,0-0.153
	c-0.134-0.504-0.188-1.043-0.414-1.445C33.396,183.718,33.298,183.718,33.193,183.718z M65.084,185.73
	c0.076,0.227,0.025,0.27,0.26,0.359C65.287,185.863,65.266,185.828,65.084,185.73z M49.496,195.761
	c-0.541,1.246,0.098,3.277-0.205,4.832c-0.256,0.656-0.514,1.305-0.77,1.961c-0.182,0.645-0.28,3.984-0.104,4.367
	c0.292-0.125,0.515-0.254,0.724-0.461c-0.055-0.258-0.107-0.519-0.156-0.771c0.271-0.469,0.547-0.932,0.824-1.396
	c0.518-1.354,1.01-2.625,1.696-3.852c-0.866-0.828-1.106-0.949-1.392-2.422C49.969,197.261,50.077,196.074,49.496,195.761z"/>
<path fill="#FFFFFF" stroke="#000000" stroke-width="0.75" d="M92.703,117.66H88.66c-5.107,0-9.25-4.141-9.25-9.25V69.734
	c0-5.109,4.143-9.248,9.25-9.248h49.604c5.107,0,9.254,4.139,9.254,9.248v38.676c0,5.109-4.146,9.25-9.254,9.25
	c0.002,0-31.021,0-31.021,0l-4.715,15.414L92.703,117.66z"/>
<path fill="#434F5B" d="M49.904,55.191c0,0,23.387,0,23.386,0c3.38,0,6.12-2.738,6.12-6.121V28.514c0-3.381-2.74-6.12-6.12-6.12
	H41.375c-3.38,0-6.119,2.739-6.119,6.12V49.07c0,3.383,2.739,6.121,6.119,6.121c-0.001,0,1.443,0,1.443,0l5.951,23.656
	L49.904,55.191z"/>
<path fill="#434F5B" d="M65.43,123.042h4.363c3.38,0,6.119-2.738,6.119-6.12V107.5c0-3.379-2.739-6.119-6.119-6.119H54.611
	c-3.381,0-6.119,2.74-6.119,6.119v9.426c0,3.379,2.738,6.117,6.119,6.117h1.47l6.121,7.808L65.43,123.042z"/>
<path fill="#FFFFFF" stroke="#000000" stroke-width="0.75" d="M111.209,137.376c1.854,1.854,1.455,5.731,0.061,7.774
	c-0.254,0.382-0.744,0.324-1.102,0.611c-0.645,0.521-1.625,2.76-1.286,4.284c0.272,1.23,2.541,1.759,3.677,2.207
	c1.547,0.609,2.568,1.441,3,3.187c0.202,0.812,0.06,2.021-0.062,2.759c-0.039,0.877-0.08,1.756-0.121,2.635
	c-0.368,2.102-1.008,3.975-1.775,5.692c-0.429,0.813-0.856,1.636-1.287,2.449c0.185,0.896,0.369,1.799,0.551,2.692
	c0.193,1.226-0.269,2.496-0.12,3.433c0.172,1.104,0.696,2.258,0.92,3.491c0.815,4.578,0.075,10.843-0.612,15.066
	c-0.213,1.312,0.157,4.582-0.431,5.512c-0.457,0.726-1.953,1.049-3.123,1.039c-0.261,0.949-0.032,2.51,0.123,3.312
	c0.381,1.942,0.877,4.804,0.489,7.104c-0.765,4.543-1.729,8.44-2.448,12.862c-0.31,1.88,0.612,2.738,0.916,3.978
	c0.235,0.953-0.125,1.479-0.121,2.518c-0.683,0.418-2.802,0.562-3.244-0.246c-0.187-0.336,0.022-0.521-0.245-0.736
	c-0.388-0.164-0.777-0.324-1.164-0.487c0,0-3.789,0.706-4.896,0.612c-0.549-0.94,0.416-1.686,0.668-2.328
	c0.062-0.448,0.125-0.897,0.188-1.348c0.78-1.449,2.616-2.85,1.897-5.635c-0.322-1.254-1.062-2.332-1.531-3.436
	c-1.271-2.978-2.565-5.922-3.551-9.125c-0.574-1.861-0.685-3.957-1.046-6.125c-0.02-0.854-0.041-1.715-0.059-2.568
	c-0.285-0.475-0.57-0.939-0.857-1.41c-0.043-0.771-0.081-1.551-0.122-2.328c-0.714-3.943-0.099-8.516-0.062-12.49
	c-1.16-0.203-1.921,0.465-2.877,0.547c-0.044-0.018-0.082-0.035-0.123-0.061c-0.539-2.213,0.391-4.82,0.735-6.613
	c0.267-1.75,0.53-3.512,0.797-5.268c0.306-0.367,0.608-0.736,0.916-1.104c0.146-0.49,0.287-0.979,0.433-1.474
	c-0.006-0.002-1.98,0.5-2.939,0.185c-2.111-3.357,1.072-10.379,2.021-13.289c0.508-1.56,0.812-3.348,2.084-4.103
	c2.354-1.405,5.957-0.017,7.896-2.022c0.254-1.562-0.742-2.392-0.98-3.797c-0.258-1.521,0.123-2.957,0.367-4.041
	c0.023-0.633,0.043-1.269,0.064-1.898c0.641-2.084,2.697-3.043,5.084-3.246C109.252,136.677,110.32,136.482,111.209,137.376z
	 M101.718,198.992c-0.084,0.773-0.163,1.551-0.243,2.328c-0.158,0.516-0.746,1.004-0.613,1.715c0.304,1.613,1.283,3.129,1.649,4.898
	c0.384,1.828,0.026,3.965,0.371,5.941c0.284,1.664,0.791,3.059,1.405,4.352c0.39,0.809,0.561,1.312,1.285,1.773
	c-0.242-3.229-0.492-6.449-0.729-9.683c0.021-1.403,0.037-2.813,0.06-4.229c-0.323-1.258-0.651-2.522-0.979-3.789
	c0.062-1.371,0.123-2.737,0.182-4.108C103.309,198.46,102.511,198.726,101.718,198.992z"/>
</svg>
