<?xml version="1.0" encoding="utf-8"?>
<!-- Generator: Adobe Illustrator 14.0.0, SVG Export Plug-In . SVG Version: 6.00 Build 43363)  -->
<!DOCTYPE svg PUBLIC "-//W3C//DTD SVG 1.1//EN" "http://www.w3.org/Graphics/SVG/1.1/DTD/svg11.dtd">
<svg version="1.1" id="Layer_1" xmlns="http://www.w3.org/2000/svg" xmlns:xlink="http://www.w3.org/1999/xlink" x="0px" y="0px"
	 width="180px" height="244.8px" viewBox="-18 0 180 244.8" enable-background="new -18 0 180 244.8" xml:space="preserve">
<path fill="#BCBCBC" d="M128.084,189.664c0.048-0.492,0.195-0.516,0.355-0.848c-0.423-0.047-0.777-0.105-1.066-0.426
	c0.119-1.141,0.236-2.273,0.357-3.41c-0.087-0.426-0.328-0.984-0.214-1.629c0.185-1.035,0.763-1.961,0.992-2.912
	c0.278-1.148-1.879-5.73-2.271-6.812c-0.052,0.023-0.097,0.047-0.142,0.07c-0.106,0.961-0.812,4.629-0.569,5.535
	c0.401,0.969,0.807,1.938,1.207,2.908c0.205,0.59,0.922,2.551,0.424,3.125c-0.178,0.199-0.342,0.312-0.565,0.285
	c-0.144-0.309-0.283-0.617-0.427-0.926c-0.022,0-0.047,0-0.067,0c0.211,1.871,0.425,3.736,0.638,5.604
	c-0.07,0.688-0.144,1.375-0.213,2.061c0.161,0.572,0.334,1.137,0.498,1.703c0.405,2.555-0.972,6.27-1.492,8.305
	c-0.472,0.021-0.942,0.047-1.42,0.07c-0.472,3.586-2.529,5.977-4.115,8.512c-0.489,0.789-1.157,1.469-1.348,2.559
	c1.608,1.285,0.786,1.949,1.204,3.973c0.324,1.561,3.91,7.453,0.354,8.375c-6.077,1.574-3.187-5.961-5.819-7.732
	c-0.03,2.783,0.795,3.447,1.211,5.033c0.045,0.875,0.091,1.754,0.142,2.629c0.224,0.648,1.405,3.285,1.274,3.688
	c-0.979,1.535-6,0.871-7.166,0c-0.11-0.78-0.392-1.073-0.496-1.772c0.117-0.608,0.234-1.229,0.354-1.844
	c-0.096-0.759-0.188-1.517-0.284-2.271c0.098-0.397,0.521-0.733,0.853-0.922c-0.246-0.281-0.343-0.272-0.285-0.712
	c0.379-0.405,0.604-0.465,1.137-0.565c0.044-2.142-0.485-3.37-0.991-5.043c-1.242-4.065-2.379-9.521-0.856-13.978
	c-2.104,0.039-5.584,0.63-6.597-0.637c0.44-2.832,0.603-5.461,0.069-8.449c-0.024-0.805-0.045-1.604-0.069-2.409
	c-1.06,0.026-4.082-3.234-3.762-5.181c0.217-0.853,0.426-1.703,0.643-2.556c0.269-1.272,0.023-2.562,0.209-3.688
	c0.05-2.297,0.097-4.59,0.142-6.883c0.271-1.646,0.902-3.793,0.642-5.396c-1.396-0.781-2.789-1.562-4.188-2.345
	c0.062-1.309,1.176-2.571,1.633-3.69c1.214-2.957,3.132-10.776,5.181-12.418c1.914-1.526,4.467-2.198,6.53-3.616
	c0.871-0.601,1.433-1.703,2.058-2.556c-0.098-1.912-1.573-1.675-2.129-2.979c-0.426-1,0.142-1.468,0-2.414
	c-0.097-0.778-0.19-1.562-0.283-2.34c0.472-2.56,2.832-5.091,6.388-4.188c3.144,0.799,4.187,4.68,3.899,7.807
	c0.024,0.731,0.05,1.468,0.07,2.201c-0.142,0.812-0.941,1.629-0.638,2.41c1.789,3.426,6.281,3.098,8.16,5.604
	c1.955,2.616,1.731,7.526,2.483,11.354c0.25,1.272,1.582,4.719,1.138,5.745c-0.548,0.332-1.091,0.664-1.634,0.994
	c0.285,1.988,0.565,3.976,0.853,5.961c0.459,2.39,0.44,5.425,0.992,7.808c0.235,0.069,0.473,0.142,0.711,0.216
	c0.221,0.924-0.015,1.463-0.642,1.911C131.679,185.73,131.164,189.457,128.084,189.664z M102.822,179.447
	c-0.108,0.906-0.64,2.4-0.144,3.119c0,0.051,0,0.098,0,0.145c0.097-0.068,0.19-0.145,0.28-0.215
	C103.171,181.605,103.343,180.326,102.822,179.447z M128.865,185.265c-0.045,0.473-0.097,0.945-0.144,1.418
	c0.024,0.047,0.047,0.098,0.072,0.141c0.282-0.02,0.567-0.043,0.852-0.066c0-0.141,0-0.287,0-0.426
	c-0.069-0.285-0.141-0.568-0.215-0.854C129.242,185.406,129.054,185.335,128.865,185.265z M101.97,186.617
	c-0.045,0.328-0.097,0.66-0.142,0.988c0.045-0.023,0.097-0.047,0.142-0.07c0.071-0.305,0.146-0.613,0.215-0.918
	C102.113,186.617,102.041,186.617,101.97,186.617z M128.722,187.32c-0.104,0.246-0.17,0.184,0,0.426
	c0.273-0.104,0.367-0.086,0.498-0.352C129.054,187.371,128.89,187.347,128.722,187.32z M103.177,187.675
	c-0.074,0.684-0.24,1.516-0.922,1.633c0.211,0.332,0.426,0.664,0.639,0.992c0-0.043,0-0.09,0-0.141
	C103.156,189.617,103.4,188.25,103.177,187.675z M115.669,201.16c-1.166,2.797-0.562,4.617-0.354,7.523
	c0.073,1.043-0.582,2.422-0.214,3.332c0-0.047,0-0.09,0-0.141c0.772-0.676,1.142-2.574,1.347-3.764
	c-0.021-0.986-0.047-1.986-0.067-2.979c0.241-1.395,0.793-2.561,1.35-3.619C117.039,201.398,116.351,201.277,115.669,201.16z
	 M110.699,221.597c-0.166,0.094-0.332,0.188-0.496,0.285c0.047,0.047,0.097,0.094,0.142,0.141c0.215-0.07,0.426-0.141,0.642-0.211
	c-0.052-0.074-0.099-0.145-0.146-0.215C110.794,221.597,110.746,221.597,110.699,221.597z M110.273,222.234
	c0.069,0.023,0.141,0.051,0.213,0.074C110.414,222.285,110.345,222.257,110.273,222.234z"/>
<path fill="#BCBCBC" d="M110.839,48.139h9.94c2.922,0,5.291-2.367,5.291-5.291V20.725c0-2.924-2.369-5.291-5.291-5.291H92.406
	c-2.924,0-5.293,2.367-5.293,5.291v22.123c0,2.924,2.369,5.291,5.293,5.291h9.082l5.104,8.481L110.839,48.139z"/>
<path fill="#BCBCBC" d="M76.094,196.843c-0.109,0.109-1.521,0.621-1.631,0.691c-0.113,0.076-0.258,0.033-0.258,0.033
	s0.727,1.16,0.762,1.385c0.037,0.219,0.072,0.322,0.02,0.375c-0.055,0.039-0.771,0.309-1.146,0.414
	c-0.377,0.115-0.705,0.104-0.941,0.119c-0.238,0.021-0.213-0.094-0.47,0.07c-0.256,0.18-0.401,0.121-0.604,0.172
	c-0.2,0.039-0.255,0.078-0.255,0.078s0.037,1.371,0.037,1.404c0,0.035,0,0.121-0.24,0.105c-0.24-0.012-0.32-0.035-0.521-0.066
	c-0.2-0.021-0.421-0.18-0.597-0.18c-0.175,0-0.431,0.043-0.613,0.066c-0.183,0.02-0.303-0.023-0.503-0.027
	c-0.2-0.016-0.2-0.039-0.296-0.023c-0.09,0.023-0.576,0.217-0.576,0.217s-0.175,0.125-0.02,0.875
	c0.157,0.758,0.157,0.758,0.157,0.758s0.192,0.836,0.192,1.568c0,0.742,0.095,3.543-0.221,4.932
	c-0.312,1.396-0.696,4.043-0.999,5.111c-0.298,1.074-0.566,2.398-0.944,3.418c-0.376,1.018-1.062,2.674-1.18,3.203
	c-0.117,0.531-0.138,0.543-0.058,0.609c0.085,0.059,0.165-0.012,0.119,0.195c-0.045,0.195,0.012,0.293-0.108,0.305
	c-0.118,0.008-0.236-0.012-0.236-0.012s0.19,0.617,0.201,0.727c0.007,0.109,0.024,0.646,0.024,0.816c0,0.16,0.119,0.73,0.194,1.016
	c0.075,0.286,0.11,0.688,0.208,0.832c0.104,0.152,0.188,0.445,0.195,0.508c0.008,0.057-0.173,0.578-0.213,0.664
	c-0.035,0.086-0.658,1.375-0.861,1.707c-0.2,0.328-0.266,0.688-0.336,0.771c-0.075,0.082-0.415,0.219-0.615,0.254
	c-0.201,0.039-1.125,0.332-1.593,0.357c-0.469,0.031-1.679,0.031-1.926,0.014c-0.248-0.021-1.045-0.104-1.162-0.104
	c-0.118,0-0.318-0.121-0.312-0.173c0.008-0.056,0.082-0.224,0.046-0.312c-0.038-0.082-0.118-0.512-0.184-0.668
	c-0.064-0.156-0.155-0.156-0.073-0.219c0.083-0.066,0.229-0.16,0.229-0.16s-0.128-0.117-0.185-0.188
	c-0.058-0.073-0.138-0.176-0.138-0.305c0-0.125,0-0.246,0.11-0.32c0.109-0.073,0.2-0.103,0.2-0.103s0.021-0.188,0.101-0.229
	c0.085-0.034,0.158-0.043,0.213-0.043c0.055,0-0.106-0.301,0.062-0.457c0.176-0.159,0.319-0.323,0.319-0.323
	s-0.109,0.026-0.274-0.168c-0.162-0.188-0.245-0.272-0.15-0.354c0.098-0.082,0.221-0.224,0.466-0.234
	c0.251-0.016,0.566-0.155,0.678-0.202c0.109-0.06,0.26-0.246,0.284-0.418c0.03-0.16,0.812-1.539,1.008-2.043
	c0.189-0.517,0.175-0.688,0.204-0.906c0.027-0.219-0.085-0.449,0.097-0.612c0.18-0.146,0.205-0.16,0.205-0.228
	c0-0.066-0.139-0.185-0.125-0.254c0.015-0.062,0.194-0.16,0.194-0.16s0.962-1.746,1.018-3.22c0.055-1.461,0.274-3.116,0.261-4.651
	c-0.011-1.539,0.315-4.164,0.468-5.336c0.15-1.168-0.165-2.979-0.165-3.513c0-0.538-0.098-0.909-0.168-1.102
	c-0.064-0.195-0.341-0.992-0.341-0.992s-1.993-0.397-3.601-0.574c-1.608-0.18-3.614-0.401-4.384-0.348
	c-0.769,0.059-1.441-0.022-1.441-0.022s-0.426,0.477-0.346,1.059c0.083,0.578,0.479,2.031,0.743,3.146
	c0.264,1.108,0.77,3.095,0.701,4.181c-0.069,1.082-0.166,2.233-0.221,2.992c-0.053,0.758,0.067,1.594,0.083,3.082
	c0.012,1.479,0.125,2.457,0.149,3.577c0.024,1.134,0.043,1.521,0.181,2c0.136,0.478,0.013,0.272,0.301,0.798
	c0.288,0.521,0.315,0.858,0.315,1.012c0,0.156-0.056,0.293,0.015,0.406c0.07,0.104,0.195,0.116,0.358,0.401
	c0.168,0.297,0.492,0.681,0.492,0.991c0,0.316,0.07,0.441-0.023,0.599c-0.102,0.147-0.102,0.147,0.01,0.238
	c0.11,0.103,0.25,0.06,0.235,0.168c-0.014,0.112,0.138,0-0.08,0.479c-0.222,0.483-0.483,1.211-0.704,1.832
	c-0.218,0.616-0.232,0.905-0.37,0.991c-0.138,0.082-0.318,0.19-0.453,0.199c-0.141,0.017-0.469-0.009-0.827-0.009
	c-0.354,0-0.588,0.039-0.78-0.03c-0.192-0.069-0.509-0.181-0.509-0.181s-0.192-0.108-0.261-0.137
	c-0.072-0.026-0.357-0.177-0.357-0.177s-0.205,0.312-0.592,0.354c-0.386,0.043-0.386,0.13-0.591,0.177
	c-0.205,0.055-0.797,0.168-1.127,0.176c-0.331,0.017-1.428,0.074-2.019,0.086c-0.592,0.017-1.114,0.048-1.445,0.056
	c-0.328,0.017-0.604,0.017-0.836-0.039c-0.233-0.062-0.413-0.354-0.469-0.535c-0.056-0.18-0.19-0.223-0.15-0.401
	c0.04-0.176,0.056-0.25,0.261-0.272c0.205-0.026,0.4-0.082,0.4-0.082l0.028-0.19c0,0,0.122-0.312,0.161-0.383
	c0.04-0.071,0.017-0.302,0.15-0.354c0.141-0.06,0.331-0.195,0.496-0.263c0.165-0.069,0.346-0.188,0.456-0.25
	c0.109-0.065-0.141-0.19-0.141-0.19s0.25-0.056,0.386-0.086c0.135-0.022,0.381-0.052,0.245-0.134
	c-0.136-0.082-0.176-0.223-0.176-0.223s0.261-0.07,0.33-0.095c0.065-0.026,0.177-0.319,0.177-0.319s0.013-0.121,0.109-0.121
	c0.098,0,0.099,0.039,0.152,0.138c0.053,0.098,0.408,0.112,0.549,0.012c0.138-0.094,0.866-0.961,1.044-1.301
	c0.178-0.345,0.248-0.565,0.618-0.923c0.371-0.358,0.371-0.37,0.552-0.582c0.178-0.202,0.26-0.401,0.26-0.629
	c0-0.224,0.025-0.812,0.025-0.812s0.045-1.695-0.04-2.191c-0.08-0.496-0.619-3.879-0.797-4.566c-0.18-0.684-0.551-2.871-0.673-3.504
	c-0.123-0.633-0.494-2.957-0.483-3.776c0.019-0.823,0.019-2.312-0.109-2.948c-0.12-0.65-0.354-1.521-0.382-1.604
	c-0.029-0.082-0.386-1.193-0.511-1.482c-0.12-0.289-0.397-1.521-0.397-2.564c0-1.049,0.112-1.648,0.112-1.648
	s-0.702-0.234-1.156-0.457c-0.451-0.215-0.824-0.438-0.867-0.492c-0.04-0.059,0.842-1.691,1.213-2.336
	c0.37-0.645,0.961-1.797,1.233-2.324c0.275-0.52,1.73-3.723,2.076-4.578c0.344-0.848,1.292-3.555,1.482-4.449
	c0.191-0.891,0.471-1.907,0.842-2.584c0.37-0.676,0.546-1.141,0.546-1.28c0-0.134,0.069-0.405,0.069-0.405s0.344-0.539,0.344-0.84
	c0-0.303-0.013-0.646-0.04-0.729c-0.028-0.082-0.248,0.07-0.218-0.276c0.023-0.345-0.251-2.582-0.238-2.638
	c0.016-0.055,0.36-0.289,0.428-0.355s0.057-0.121,0.057-0.268c0-0.135,0-0.463,0-0.463s0.189-1.031,0.189-1.227
	c0-0.189-0.08-0.438,0-0.545c0.082-0.115,0.208-0.303,0.264-0.373c0.055-0.066,0.096-0.605,0.096-0.605v-0.276
	c0,0-2.172-1.767-3.243-3.255c-1.072-1.48-1.428-2.293-1.839-2.814c-0.413-0.521-0.485-0.58-0.565-0.629
	c-0.079-0.057-0.164-0.082-0.205-0.15c-0.042-0.07-0.042-0.168-0.042-0.168l-0.245-0.191c0,0-0.113-0.066-0.166-0.176
	c-0.056-0.109-0.082-0.17-0.152-0.277c-0.065-0.109-0.23-0.285-0.23-0.285s-0.111-0.346-0.306-0.457
	c-0.189-0.109-0.521-0.205-0.741-0.219c-0.221-0.016-0.466-0.066-0.796-0.121c-0.331-0.059-0.48-0.191-0.717-0.191
	c-0.229,0-0.561-0.031-0.769,0.051c-0.208,0.082-0.592,0.207-0.781,0.223c-0.195,0.014-0.563,0.023-0.619-0.037
	c-0.055-0.074-0.165-0.115-0.195-0.193c-0.023-0.09-0.093-0.428-0.093-0.428l-0.069-0.125l0.016-0.66c0,0-0.413-0.301-0.483-0.387
	c-0.069-0.082-0.175-0.328-0.205-0.451c-0.024-0.123-0.096-0.183-0.024-0.221c0.064-0.044,0.188-0.109,0.188-0.191
	c0-0.08,0.059-0.18,0.072-0.232c0.013-0.055,0.067-0.08,0.123-0.109c0.058-0.027,0.082-0.012,0.027-0.068
	c-0.057-0.057-0.224-0.139-0.302-0.248c-0.085-0.107-0.277-0.387-0.29-0.512c-0.016-0.119,0.069-0.301,0.122-0.354
	c0.059-0.058,0.179-0.134,0.288-0.147c0.11-0.015,0.398-0.025,0.398-0.025l-0.04-0.41c0,0-0.233-0.129-0.315-0.207
	c-0.085-0.086-0.178-0.102-0.178-0.25c0-0.15,0.015-0.328,0.08-0.426c0.07-0.098,0.195-0.275,0.274-0.275
	c0.082,0,0.11-0.014,0.11-0.014s-0.013-0.398-0.013-0.457c0-0.051-0.107-0.094-0.107-0.094l0.024-0.148c0,0,0.741-0.014,1.633,0.055
	c0.896,0.066,1.237,0.109,1.801,0.121c0.563,0.016,0.979,0.066,1.044,0.066c0.07,0,0.126-0.014,0.142,0.1
	c0.013,0.111-0.11,0.139-0.11,0.139s-0.125-0.065-0.141,0.027c-0.013,0.098-0.149,1.537-0.149,1.537s0.511,0.084,0.591,0.111
	c0.085,0.021,0.248,0.109,0.37,0.125c0.126,0.012,0.195-0.086,0.261,0.012c0.07,0.094,0.376,0.562,0.512,0.797
	c0.136,0.234,0.631,0.895,0.892,1.348c0.263,0.449,0.701,0.978,0.769,1.142c0.07,0.165,0.438,0.987,0.758,1.319
	c0.317,0.328,0.974,1.181,1.457,1.578c0.48,0.398,1.017,1.07,1.223,1.137c0.208,0.074,0.315,0.115,0.315,0.115l-0.097-2.199
	c0,0-0.453-0.797-0.468-1.196c-0.01-0.396-0.056-0.836,0.085-1.177c0.136-0.35,0.313-1.051,0.355-1.133
	c0.04-0.08-0.014-1.045,0-1.272c0.016-0.237,0-0.397,0-0.397s-0.741-1.611-0.895-1.938c-0.147-0.33-0.275-0.553-0.301-0.719
	c-0.027-0.162-0.208-0.646-0.208-0.646s-0.221,0.345-0.37,0.47c-0.15,0.125-0.481,0.59-0.592,0.696
	c-0.109,0.111-0.355,0.168-0.355,0.168s0.123-0.646,0.275-0.797c0.149-0.151,0.592-0.576,0.767-0.717
	c0.182-0.138,0.347-0.272,0.581-0.591c0.23-0.315,0.19-0.166,0.328-0.493c0.138-0.334,0.318-0.826,0.303-1.171
	c-0.015-0.34-0.055-0.918,0.017-1.014c0.063-0.102,0.202-0.412,0.215-0.646c0.016-0.234,0.03-0.676,0.07-0.867
	c0.04-0.189,0.141-1.664,0.165-1.883c0.026-0.219,0.026-0.617,0.04-0.836c0.016-0.219,0.016-0.566,0.098-0.965
	c0.083-0.398,0.193-0.975,0.193-1.123c0-0.154-0.044-0.303,0.023-0.51c0.07-0.207,0.11-0.58,0.11-0.58s-0.11,0.166-0.315,0.33
	c-0.205,0.166-0.33,0.426-0.438,0.633c-0.11,0.207-0.438,1.111-0.618,1.416c-0.181,0.303-0.221,0.592-0.358,0.893
	c-0.138,0.303-0.29,0.66-0.413,0.922s-0.221,0.508-0.301,0.605c-0.082,0.092,0.291-0.98,0.315-1.113
	c0.027-0.141,0.069-0.391,0.069-0.688c0-0.307,0.233-1.432,0.536-1.979c0.301-0.552,0.631-1.005,0.688-1.21
	c0.055-0.209,0.892-1.316,0.836-1.25s0.194-0.534,0.304-0.758c0.112-0.223,0.551-0.836,0.866-1.414
	c0.316-0.575,0.053-0.575,0.604-1.483c0.552-0.909,0.741-1.108,0.964-1.274c0.219-0.166,0.188-0.151,0.245-0.194
	c0.054-0.041,0.387-0.271,0.635-0.285c0.245-0.019,0.221-0.114,0.396-0.114c0.181,0,0.331-0.123,0.331-0.123l0.141-0.062
	c0,0,0.295-0.266,0.725-0.373c0.428-0.107,1.012-0.221,1.803,0.089c0.791,0.308,1.726,0.702,2.196,1.196
	c0.476,0.498,0.641,0.668,0.927,1.461c0.285,0.798,0.428,1.236,0.681,1.72c0.251,0.479,0.616,1.043,0.714,1.657
	c0.099,0.619,0.134,0.979,0.363,1.671c0.23,0.69,0.21,0.879,0.275,1.179c0.064,0.293,0.24,0.536,0.317,0.768
	c0.075,0.236,0.221,0.712,0.272,1.023c0.056,0.318,0.155,0.758,0.101,1.057c-0.056,0.295-0.194,0.679-0.306,0.979
	c-0.11,0.293-0.165,0.539-0.165,0.683c0,0.139,0.275,0.375,0.626,0.514c0.352,0.148,0.978,0.52,1.217,0.552
	c0.243,0.03,0.312-0.134,1.013-0.013c0.706,0.121,1.508,0.168,1.934,0.599c0.431,0.427,0.881,1.134,1.072,1.837
	c0.184,0.697,0.295,0.831,0.358,1.284c0.065,0.446,0.013,3.177,0.021,4.194c0.015,1.025,0.138,4.914,0.156,6.105
	c0.022,1.186-0.121,3.668-0.164,4.625c-0.043,0.954-0.474,3.391-0.627,3.87c-0.155,0.484-1.018,3.746-1.237,4.302
	c-0.218,0.543-0.749,1.793-0.749,1.793s0.221,0.809,0.349,1.723c0.13,0.914,0.312,1.541,0.477,2.291s0.109,1.021,0.186,1.392
	c0.07,0.366,0.933,2.526,0.986,3.021c0.055,0.496,1.082,2.957,1.414,3.738c0.326,0.789,1.901,4.18,2.179,4.896
	C75.818,196.23,76.205,196.726,76.094,196.843z"/>
<path fill="#BCBCBC" d="M27.031,131.662c2.632-0.027,4.348,1.238,4.938,3.242c0.069,0.688,0.14,1.371,0.206,2.059
	c0.053,0.809,0.104,1.615,0.155,2.414c-0.139,0.793-0.275,1.582-0.414,2.371c-0.2,0.715-0.683,1.225-0.769,2.008
	c0.992,0.338,1.986,0.686,2.979,1.029c1.766,0.6,4.117,0.58,5.098,1.951c0.912,1.283,1.761,4.152,2.107,5.918
	c0.09,0.738,0.172,1.473,0.26,2.211c0.564,1.695,1.127,3.395,1.693,5.092c0.479,1.885,0.963,3.775,1.442,5.656
	c0.498,1.471,0.976,3.359,1.285,4.893c-0.086,0.732-0.172,1.479-0.254,2.209c0.488,1.277,1.221,2.723,0.306,3.854
	c0.073,1.494,0.92,2.16,1.133,3.556c-0.549,0.754-0.607,2.119-1.133,2.881c0.604,1.216,1.202,2.438,1.803,3.652
	c0.377,0.051,3.18,0.155,3.237,0.207c0.257,1.508,0.515,3.016,0.771,4.522c0.465,2.473,0.928,4.94,1.389,7.405
	c0.086,0.863,0.177,1.72,0.259,2.578c0.153,0.78,0.538,4.785,0.514,4.832c-2.107,0.43-4.217,0.858-6.326,1.293
	c-0.375-0.336-0.756-0.656-1.133-0.983c-1.299-0.82-2.603-1.646-3.908-2.47c-0.57-0.672-0.164-2.207-0.77-2.828
	c-0.31,0.104-0.621,0.207-0.925,0.306c-0.327,0.711-0.27,1.668-0.518,2.522c-0.271,0.927-0.83,1.746-1.338,2.47
	c-0.805,0.961-1.613,1.922-2.42,2.883c-0.498,0.379-0.992,0.754-1.488,1.125c-0.061,0.104-0.525,2.539-0.569,2.733
	c-0.02,0-0.035,0-0.053,0c-0.084,0.664,0.571,1.488,0.776,2.004c0.184,0.484,0.715,3.66,0.615,4.22
	c-0.201,1.142-1.533,2.483-3.035,1.75c-1.122-0.552-2.11-2.625-2.362-4.017c-0.3-1.599,0.43-3.233-0.569-4.164
	c-0.017,0-0.032,0-0.053,0c0,0.035,0,0.065,0,0.104c-0.6,1.531,0.313,3.75,0.464,5.246c0.149,1.449-0.854,1.944-0.619,3.238
	c0.249,1.327,1.163,1.983,0.413,3.448c0.486,0.267,0.131,0.531,0.364,1.078c0.436,1.047,1.782,1.703,1.487,3.396
	c-3.287,1.612-5.782,0.483-7.612-1.647c0.028-0.793,0.309-1.531,0.101-2.259c-0.672-0.245-0.493-1.844-0.664-2.577
	c-0.657-2.773-0.451-6.013-0.927-9.099c-0.242-2.353-0.479-4.703-0.725-7.056c0.053-1.647,0.104-3.293,0.158-4.935
	c-0.221-1.184-1.012-2.327-1.288-3.655c0-3.324,0-6.647,0-9.978c-0.003-1.401-0.402-2.461-0.614-3.707
	c-0.069-1.353-0.139-2.711-0.205-4.063c-0.108-0.672-0.322-1.289-0.108-1.795c-1.403-1.965-0.484-5.412-0.716-7.718
	c-0.083-0.812,0.182-2.188-0.36-2.521c-0.25,1.916-0.785,4.115-1.543,5.709c-0.396,0.672-0.789,1.336-1.187,2.004
	c-0.315,0.771,0.458,2.17-0.05,3.035c-0.209,0.102-0.414,0.207-0.614,0.307c-0.222,0.494,1.88,5.551,0.979,6.535
	c-0.396-0.168-0.658-0.344-0.929-0.199c-0.032,0.133-0.068,0.266-0.104,0.406c0.206,0.172,0.411,0.344,0.619,0.516
	c-0.018,0.09-0.033,0.172-0.05,0.254c-2.448,0.59-3.305-1.238-3.81-3.34c-0.217-0.902,0.441-1.68,0.308-2.422
	c-0.1-0.561-0.731-2.555-0.669-2.672c0.108-0.271,0.278-0.244,0.461-0.41c-0.056-3.455-0.74-7.334-0.148-10.807
	c0.244-1.449,0.619-2.797,0.924-4.113c0.12-0.855,0.236-1.717,0.361-2.572c0.425-1.182,0.854-2.369,1.282-3.551
	c0.714-2.592,0.363-5.295,1.755-7.1c0.44-0.576,1.279-0.824,1.9-1.234c1.39-1.098,2.776-2.191,4.165-3.293
	c0.443-0.328,1.493-0.473,1.749-0.98c0.511-0.977,0.241-2.949-0.051-3.906c-0.735-0.24-1.821-1.188-1.54-2.365
	c0.071-0.311,0.369-0.5,0.463-0.717c0-0.551,0-1.102,0-1.648c0.021-1.238,0.414-2.209,0.976-2.932
	C25.057,132.154,25.837,132.13,27.031,131.662z M38.449,163.091c-0.26,0.922,0.512,4.715,0.723,5.766
	c0.437,2.164,0.621,4.074,0.979,6.223c0.155,0.975,0.034,1.961-0.103,2.676c-0.086,0.449,0.303,0.668,0.361,0.979
	c-0.072,0.271-0.144,0.553-0.209,0.824c0.151,0.6,0.311,1.203,0.463,1.799c0.346,1.254,0.441,3.975,1.184,4.732
	c0.67-0.133,1.336-0.275,2.009-0.414c0.071-0.875,0.688-2.404,0.305-3.08c-0.019,0-0.033,0-0.051,0
	c-0.254,0.115-0.515,0.236-0.771,0.357c-0.088-0.051-0.172-0.104-0.256-0.156c-0.004-0.914,0.51-1.902,0.256-2.881
	c-0.154-0.311-0.305-0.617-0.463-0.926c-0.166-0.789,0.285-1.938-0.051-2.211c-1.469-0.738-0.597-1.971-1.082-3.449
	c-0.236-0.721-0.896-1.287-1.18-2.059c-0.244-1.25-0.48-2.5-0.724-3.754c-0.447-1.25-1.074-2.787-1.231-4.426
	C38.554,163.091,38.502,163.091,38.449,163.091z M44.832,180.228c-0.053,0.238-0.104,0.48-0.158,0.715
	c0.039,0.016,0.072,0.031,0.105,0.055c0.067-0.203,0.137-0.414,0.209-0.621C44.931,180.326,44.883,180.275,44.832,180.228z
	 M44.523,182.902c-0.154,0.906-0.312,1.812-0.464,2.723c0.017,0,0.033,0,0.05,0c0.207-0.051,0.414-0.102,0.618-0.15
	c0.066-0.846,0.138-1.682,0.203-2.521C44.795,182.937,44.656,182.921,44.523,182.902z M45.242,182.953
	c-0.049,0.051-0.105,0.104-0.154,0.156c-0.051,0.754-0.1,1.504-0.156,2.258c0.5-0.104,0.996-0.203,1.494-0.305
	c-0.344-0.703-0.686-1.41-1.028-2.109C45.345,182.953,45.295,182.953,45.242,182.953z M45.654,183.003
	c0.307,0.664,0.619,1.336,0.924,2.008c0.072-0.016,0.139-0.031,0.209-0.055c0-0.018,0-0.031,0-0.053
	c-0.328-0.637-0.65-1.271-0.979-1.9C45.76,183.003,45.707,183.003,45.654,183.003z M15.151,183.718
	c-0.179,0.211-0.345,0.418-0.517,0.621c0,0.07,0,0.141,0,0.207c0.38,0.332,0.583,0.688,1.232,0.771c0-0.061,0-0.104,0-0.154
	c-0.134-0.504-0.188-1.043-0.414-1.445C15.354,183.718,15.255,183.718,15.151,183.718z M47.041,185.73
	c0.076,0.227,0.025,0.27,0.26,0.359C47.244,185.863,47.222,185.828,47.041,185.73z M31.453,195.761
	c-0.541,1.246,0.098,3.277-0.205,4.832c-0.256,0.656-0.514,1.305-0.77,1.961c-0.181,0.645-0.28,3.984-0.104,4.367
	c0.292-0.125,0.514-0.254,0.723-0.461c-0.054-0.258-0.107-0.518-0.155-0.771c0.271-0.469,0.547-0.932,0.824-1.396
	c0.517-1.354,1.009-2.625,1.696-3.852c-0.866-0.828-1.107-0.949-1.392-2.422C31.926,197.261,32.034,196.074,31.453,195.761z"/>
<path fill="#FFFFFF" stroke="#000000" stroke-width="0.75" d="M74.66,117.66h-4.043c-5.107,0-9.25-4.141-9.25-9.25V69.734
	c0-5.109,4.143-9.248,9.25-9.248h49.603c5.108,0,9.254,4.139,9.254,9.248v38.676c0,5.109-4.146,9.25-9.254,9.25
	c0.002,0-31.021,0-31.021,0l-4.715,15.414L74.66,117.66z"/>
<path fill="#BCBCBC" d="M31.861,55.191c0,0,23.387,0,23.386,0c3.38,0,6.12-2.738,6.12-6.121V28.514c0-3.381-2.74-6.12-6.12-6.12
	H23.332c-3.38,0-6.119,2.739-6.119,6.12V49.07c0,3.383,2.739,6.121,6.119,6.121c-0.001,0,1.444,0,1.444,0l5.95,23.656L31.861,55.191
	z"/>
<path fill="#BCBCBC" d="M47.387,123.042h4.363c3.38,0,6.119-2.738,6.119-6.119V107.5c0-3.379-2.739-6.119-6.119-6.119H36.569
	c-3.381,0-6.12,2.74-6.12,6.119v9.426c0,3.379,2.739,6.117,6.12,6.117h1.469l6.121,7.807L47.387,123.042z"/>
<path fill="#FFFFFF" stroke="#000000" stroke-width="0.75" d="M93.166,137.376c1.853,1.855,1.455,5.732,0.06,7.775
	c-0.254,0.381-0.743,0.324-1.101,0.611c-0.645,0.521-1.625,2.76-1.286,4.285c0.272,1.23,2.541,1.758,3.676,2.207
	c1.547,0.609,2.569,1.441,3,3.186c0.203,0.812,0.06,2.02-0.062,2.758c-0.039,0.877-0.08,1.756-0.121,2.635
	c-0.368,2.102-1.008,3.975-1.776,5.693c-0.428,0.814-0.856,1.635-1.287,2.449c0.185,0.896,0.369,1.799,0.552,2.693
	c0.192,1.225-0.269,2.496-0.121,3.432c0.172,1.104,0.696,2.258,0.92,3.492c0.815,4.578,0.076,10.842-0.612,15.066
	c-0.213,1.312,0.157,4.582-0.431,5.512c-0.457,0.725-1.953,1.049-3.123,1.039c-0.26,0.949-0.032,2.51,0.123,3.311
	c0.381,1.943,0.877,4.803,0.49,7.104c-0.765,4.543-1.729,8.441-2.449,12.863c-0.31,1.879,0.612,2.738,0.916,3.977
	c0.235,0.953-0.125,1.48-0.121,2.518c-0.683,0.418-2.801,0.562-3.244-0.246c-0.186-0.336,0.023-0.521-0.245-0.736
	c-0.388-0.164-0.777-0.324-1.164-0.488c0,0-3.789,0.707-4.897,0.613c-0.548-0.941,0.416-1.686,0.668-2.328
	c0.062-0.449,0.125-0.898,0.188-1.348c0.78-1.449,2.616-2.85,1.897-5.635c-0.322-1.254-1.062-2.332-1.531-3.436
	c-1.271-2.977-2.566-5.922-3.551-9.125c-0.574-1.861-0.684-3.957-1.045-6.125c-0.02-0.854-0.041-1.715-0.059-2.568
	c-0.285-0.475-0.57-0.939-0.857-1.41c-0.043-0.771-0.082-1.551-0.123-2.328c-0.713-3.943-0.098-8.516-0.062-12.49
	c-1.16-0.203-1.92,0.465-2.877,0.547c-0.043-0.018-0.082-0.035-0.123-0.061c-0.539-2.213,0.391-4.82,0.736-6.613
	c0.266-1.75,0.531-3.512,0.797-5.268c0.305-0.367,0.609-0.736,0.916-1.104c0.146-0.49,0.287-0.979,0.432-1.473
	c-0.006-0.002-1.98,0.5-2.939,0.184c-2.111-3.357,1.072-10.379,2.021-13.289c0.508-1.559,0.813-3.348,2.084-4.102
	c2.354-1.406,5.958-0.016,7.897-2.023c0.254-1.562-0.742-2.391-0.98-3.797c-0.258-1.52,0.123-2.957,0.367-4.041
	c0.023-0.633,0.043-1.268,0.064-1.898c0.641-2.084,2.697-3.043,5.084-3.246C91.209,136.677,92.277,136.482,93.166,137.376z
	 M83.675,198.992c-0.084,0.773-0.164,1.551-0.244,2.328c-0.157,0.516-0.746,1.004-0.612,1.715c0.303,1.613,1.282,3.129,1.649,4.898
	c0.383,1.828,0.026,3.965,0.371,5.941c0.284,1.664,0.791,3.059,1.405,4.352c0.39,0.809,0.56,1.312,1.285,1.773
	c-0.242-3.229-0.492-6.449-0.729-9.682c0.021-1.404,0.037-2.814,0.06-4.229c-0.324-1.258-0.652-2.523-0.979-3.789
	c0.062-1.371,0.123-2.738,0.182-4.109C85.265,198.46,84.468,198.726,83.675,198.992z"/>
</svg>
