<?xml version="1.0" encoding="utf-8"?>
<!-- Generator: Adobe Illustrator 14.0.0, SVG Export Plug-In . SVG Version: 6.00 Build 43363)  -->
<!DOCTYPE svg PUBLIC "-//W3C//DTD SVG 1.1//EN" "http://www.w3.org/Graphics/SVG/1.1/DTD/svg11.dtd">
<svg version="1.1" id="Layer_1" xmlns="http://www.w3.org/2000/svg" xmlns:xlink="http://www.w3.org/1999/xlink" x="0px" y="0px"
	 width="190px" height="190px" viewBox="0 0 190 190" enable-background="new 0 0 190 190" xml:space="preserve">
<rect fill="#CCDD59" width="190" height="190"/>
<g id="Layer_2_3_">
	<path fill="#FFFFFF" d="M93.712,90.934l-6.813-9.675l6.012-12.372H86.16l-3.094,7.497l-4.636-6.701
		c0.993-0.607,1.946-1.275,2.86-2.003c0.919-0.723,1.718-1.522,2.407-2.399c0.683-0.88,1.239-1.852,1.661-2.923
		c0.419-1.067,0.63-2.25,0.63-3.546c0-1.489-0.227-2.824-0.684-4.009c-0.456-1.182-1.088-2.182-1.883-3.001
		c-0.797-0.823-1.748-1.448-2.854-1.893c-1.101-0.436-2.322-0.655-3.65-0.655c-1.368,0-2.655,0.235-3.852,0.716
		c-1.199,0.478-2.227,1.155-3.083,2.031c-0.858,0.878-1.531,1.944-2.026,3.207c-0.495,1.258-0.743,2.672-0.743,4.232
		c0,1.643,0.248,3.159,0.746,4.551c0.494,1.396,1.279,2.857,2.346,4.378c-1.951,1.146-3.579,2.656-4.897,4.526
		c-1.315,1.869-1.973,4.197-1.973,6.984c0,3.819,0.975,6.765,2.918,8.843c1.943,2.081,4.543,3.121,7.787,3.121
		c2.211,0,4.031-0.501,5.468-1.5c1.437-1.005,2.525-2.2,3.29-3.601l2.921,4.188h7.893V90.934z M79.518,81.937
		c-0.343,0.992-0.916,1.919-1.717,2.773c-0.801,0.86-1.811,1.289-3.032,1.289c-1.453,0-2.625-0.58-3.524-1.746
		c-0.894-1.159-1.342-2.754-1.342-4.778c0-1.716,0.36-3.11,1.086-4.18c0.724-1.066,1.504-1.872,2.342-2.405L79.518,81.937z
		 M78.754,63.075c-0.85,1.052-1.842,1.95-2.975,2.718c-0.759-1.065-1.325-2.096-1.704-3.088c-0.38-0.992-0.57-2.08-0.57-3.264
		c0-1.376,0.313-2.539,0.938-3.49c0.622-0.959,1.446-1.434,2.467-1.434c1.024,0,1.796,0.438,2.326,1.314
		c0.528,0.88,0.796,2.002,0.796,3.375C80.031,60.735,79.61,62.022,78.754,63.075z M126.227,90.934l-6.812-9.675l6.008-12.372h-6.746
		l-3.096,7.497l-4.635-6.701c0.992-0.607,1.939-1.275,2.861-2.003c0.918-0.723,1.717-1.522,2.408-2.399
		c0.684-0.88,1.238-1.852,1.658-2.923c0.426-1.067,0.631-2.25,0.631-3.546c0-1.489-0.23-2.824-0.686-4.009
		c-0.451-1.182-1.08-2.182-1.873-3.001c-0.805-0.823-1.748-1.448-2.85-1.893c-1.102-0.436-2.322-0.655-3.656-0.655
		c-1.365,0-2.66,0.235-3.854,0.716c-1.195,0.478-2.219,1.155-3.082,2.032c-0.861,0.881-1.529,1.943-2.029,3.206
		c-0.49,1.255-0.73,2.672-0.73,4.233c0,1.645,0.24,3.16,0.736,4.551c0.492,1.397,1.279,2.858,2.344,4.38
		c-1.951,1.144-3.58,2.656-4.902,4.525c-1.312,1.87-1.971,4.197-1.971,6.984c0,3.82,0.969,6.766,2.92,8.843
		c1.943,2.083,4.539,3.125,7.783,3.125c2.209,0,4.035-0.505,5.467-1.507c1.432-1.001,2.529-2.199,3.293-3.598l2.916,4.188H126.227z
		 M112.031,81.937c-0.338,0.992-0.91,1.919-1.711,2.773c-0.803,0.86-1.809,1.289-3.035,1.289c-1.447,0-2.615-0.58-3.521-1.746
		c-0.9-1.159-1.348-2.754-1.348-4.778c0-1.716,0.363-3.11,1.082-4.18c0.725-1.066,1.506-1.872,2.35-2.405L112.031,81.937z
		 M111.273,63.075c-0.854,1.052-1.848,1.95-2.982,2.718c-0.754-1.065-1.324-2.096-1.699-3.088c-0.383-0.992-0.568-2.08-0.568-3.264
		c0-1.376,0.309-2.539,0.934-3.492c0.629-0.957,1.451-1.433,2.469-1.433c1.023,0,1.797,0.437,2.328,1.314
		c0.527,0.881,0.803,2.003,0.803,3.374C112.547,60.735,112.125,62.022,111.273,63.075z"/>
</g>
<path fill="none" stroke="#FFFFFF" stroke-width="2" d="M127.805,102.59c4.158,0,7.541-3.375,7.541-7.543V46.033
	c0-4.164-3.383-7.542-7.541-7.542H62.194c-4.165,0-7.54,3.375-7.54,7.542v49.016c0,4.17,3.375,7.542,7.54,7.542h46.556
	l16.141,12.819L127.805,102.59z"/>
</svg>
