<?xml version="1.0" encoding="utf-8"?>
<!-- Generator: Adobe Illustrator 14.0.0, SVG Export Plug-In . SVG Version: 6.00 Build 43363)  -->
<!DOCTYPE svg PUBLIC "-//W3C//DTD SVG 1.1//EN" "http://www.w3.org/Graphics/SVG/1.1/DTD/svg11.dtd">
<svg version="1.1" id="Layer_1" xmlns="http://www.w3.org/2000/svg" xmlns:xlink="http://www.w3.org/1999/xlink" x="0px" y="0px"
	 width="190px" height="190px" viewBox="0 0 190 190" enable-background="new 0 0 190 190" xml:space="preserve">
<rect fill="#CCDD59" width="190" height="190"/>
<g id="Layer_2_3_">
	<path fill="#FFFFFF" d="M93.927,74.603l-5.678-8.062l5.01-10.31h-5.626l-2.578,6.247l-3.863-5.584
		c0.827-0.506,1.622-1.063,2.383-1.669c0.766-0.602,1.432-1.269,2.006-2c0.569-0.733,1.033-1.543,1.385-2.435
		c0.349-0.89,0.524-1.875,0.524-2.955c0-1.241-0.188-2.354-0.569-3.341c-0.38-0.984-0.907-1.818-1.569-2.501
		c-0.664-0.686-1.457-1.207-2.378-1.577c-0.917-0.363-1.935-0.546-3.042-0.546c-1.14,0-2.213,0.196-3.21,0.597
		c-0.999,0.397-1.855,0.962-2.569,1.692c-0.715,0.732-1.276,1.621-1.688,2.673c-0.413,1.048-0.62,2.226-0.62,3.527
		c0,1.369,0.207,2.632,0.622,3.792c0.412,1.163,1.066,2.381,1.955,3.649c-1.626,0.955-2.983,2.213-4.081,3.772
		c-1.097,1.557-1.644,3.497-1.644,5.82c0,3.182,0.812,5.637,2.431,7.369c1.62,1.734,3.786,2.601,6.489,2.601
		c1.843,0,3.36-0.418,4.557-1.25c1.197-0.838,2.105-1.834,2.742-3.001l2.434,3.49H93.927L93.927,74.603z M82.098,67.106
		c-0.285,0.826-0.763,1.599-1.43,2.311c-0.668,0.717-1.509,1.074-2.527,1.074c-1.211,0-2.188-0.483-2.937-1.455
		c-0.745-0.966-1.118-2.295-1.118-3.982c0-1.43,0.3-2.592,0.904-3.483c0.604-0.889,1.254-1.56,1.952-2.004L82.098,67.106z
		 M81.462,51.388c-0.708,0.876-1.535,1.625-2.479,2.265c-0.632-0.888-1.104-1.747-1.42-2.574c-0.317-0.826-0.475-1.733-0.475-2.719
		c0-1.147,0.261-2.116,0.782-2.909c0.518-0.799,1.205-1.194,2.056-1.194c0.853,0,1.496,0.364,1.938,1.095
		c0.44,0.733,0.663,1.668,0.663,2.812C82.526,49.438,82.175,50.511,81.462,51.388z M121.021,74.603l-5.675-8.062l5.005-10.31h-5.62
		l-2.581,6.247l-3.862-5.584c0.827-0.506,1.617-1.063,2.385-1.669c0.765-0.602,1.43-1.269,2.006-2
		c0.57-0.733,1.032-1.543,1.382-2.435c0.355-0.89,0.525-1.875,0.525-2.955c0-1.241-0.191-2.354-0.57-3.341
		c-0.377-0.984-0.901-1.818-1.562-2.501c-0.67-0.686-1.456-1.207-2.375-1.577c-0.917-0.363-1.935-0.546-3.046-0.546
		c-1.138,0-2.217,0.196-3.211,0.597c-0.997,0.397-1.85,0.962-2.568,1.693c-0.718,0.734-1.275,1.62-1.692,2.672
		c-0.407,1.046-0.609,2.226-0.609,3.528c0,1.37,0.202,2.633,0.613,3.792c0.41,1.165,1.067,2.382,1.953,3.65
		c-1.624,0.953-2.982,2.213-4.083,3.771c-1.095,1.559-1.643,3.498-1.643,5.82c0,3.184,0.807,5.638,2.433,7.369
		c1.619,1.736,3.783,2.604,6.486,2.604c1.841,0,3.363-0.42,4.556-1.255c1.193-0.834,2.108-1.833,2.744-2.998l2.43,3.49
		L121.021,74.603z M109.194,67.106c-0.283,0.826-0.76,1.599-1.427,2.311c-0.67,0.717-1.507,1.074-2.529,1.074
		c-1.206,0-2.18-0.483-2.935-1.455c-0.75-0.966-1.123-2.295-1.123-3.982c0-1.43,0.303-2.592,0.901-3.483
		c0.605-0.889,1.255-1.56,1.958-2.004L109.194,67.106z M108.56,51.388c-0.711,0.876-1.539,1.625-2.484,2.265
		c-0.629-0.888-1.103-1.747-1.417-2.574c-0.318-0.826-0.474-1.733-0.474-2.719c0-1.147,0.259-2.116,0.78-2.911
		c0.524-0.797,1.208-1.193,2.056-1.193c0.853,0,1.499,0.363,1.941,1.095c0.438,0.734,0.668,1.669,0.668,2.812
		C109.622,49.438,109.271,50.511,108.56,51.388z"/>
</g>
<path fill="none" stroke="#FFFFFF" stroke-width="2" d="M122.338,84.317c3.465,0,6.283-2.813,6.283-6.286V37.186
	c0-3.47-2.818-6.285-6.283-6.285H67.661c-3.47,0-6.283,2.813-6.283,6.285v40.846c0,3.476,2.813,6.286,6.283,6.286h38.798L119.908,95
	L122.338,84.317z"/>
</svg>
