<?xml version="1.0" encoding="utf-8"?>
<!-- Generator: Adobe Illustrator 14.0.0, SVG Export Plug-In . SVG Version: 6.00 Build 43363)  -->
<!DOCTYPE svg PUBLIC "-//W3C//DTD SVG 1.1//EN" "http://www.w3.org/Graphics/SVG/1.1/DTD/svg11.dtd">
<svg version="1.1" xmlns="http://www.w3.org/2000/svg" xmlns:xlink="http://www.w3.org/1999/xlink" x="0px" y="0px" width="300px"
	 height="68px" viewBox="-152.705 -116.249 300 68" enable-background="new -152.705 -116.249 300 68" xml:space="preserve">
<g id="Layer_4">
	<rect x="-147.706" y="-111.915" fill="none" stroke="#CCDD59" stroke-width="3" width="290" height="60"/>
</g>
<g id="Layer_3">
	<path d="M-78.785-60.758v-1.371h-0.03c-0.123,0.462-0.329,0.848-0.616,1.155s-0.693,0.462-1.217,0.462
		c-0.391,0-0.734-0.103-1.031-0.308c-0.299-0.205-0.55-0.491-0.755-0.855s-0.362-0.796-0.47-1.293
		c-0.107-0.498-0.161-1.045-0.161-1.641c0-0.595,0.051-1.14,0.153-1.633c0.103-0.492,0.254-0.916,0.454-1.27
		c0.2-0.354,0.452-0.632,0.755-0.831c0.303-0.201,0.649-0.301,1.039-0.301c0.463,0,0.853,0.141,1.171,0.423s0.533,0.654,0.646,1.117
		h0.031v-5.298h1.016v11.643H-78.785z M-78.785-64.578c0-0.452-0.033-0.873-0.1-1.263c-0.067-0.391-0.169-0.727-0.308-1.009
		c-0.139-0.283-0.312-0.506-0.517-0.671c-0.206-0.163-0.441-0.246-0.708-0.246c-0.277,0-0.516,0.083-0.716,0.246
		c-0.201,0.165-0.368,0.388-0.501,0.671c-0.134,0.282-0.231,0.618-0.293,1.009c-0.062,0.39-0.092,0.811-0.092,1.263
		c0,0.441,0.03,0.854,0.092,1.24c0.062,0.384,0.159,0.721,0.293,1.008c0.133,0.287,0.3,0.514,0.501,0.679
		c0.2,0.164,0.438,0.245,0.716,0.245c0.276,0,0.516-0.081,0.716-0.245c0.2-0.165,0.37-0.392,0.509-0.679s0.24-0.624,0.308-1.008
		C-78.818-63.723-78.785-64.136-78.785-64.578z"/>
	<path d="M-74.873-64.363c0,0.421,0.036,0.809,0.108,1.163c0.072,0.354,0.178,0.662,0.316,0.924c0.14,0.263,0.315,0.468,0.526,0.616
		c0.212,0.149,0.462,0.224,0.751,0.224c0.371,0,0.671-0.113,0.897-0.339s0.402-0.498,0.526-0.816l0.77,0.447
		c-0.185,0.462-0.459,0.85-0.823,1.162c-0.365,0.313-0.829,0.47-1.394,0.47c-0.853,0-1.515-0.359-1.987-1.078
		c-0.472-0.719-0.708-1.709-0.708-2.972c0-0.596,0.062-1.146,0.184-1.648c0.123-0.503,0.3-0.935,0.53-1.293
		c0.23-0.36,0.512-0.64,0.845-0.839c0.332-0.201,0.703-0.301,1.113-0.301c0.45,0,0.831,0.098,1.144,0.292
		c0.312,0.195,0.565,0.462,0.76,0.801s0.335,0.734,0.422,1.187c0.087,0.451,0.131,0.934,0.131,1.447v0.554H-74.873z M-71.778-65.209
		c0-0.77-0.118-1.389-0.355-1.855s-0.608-0.701-1.114-0.701c-0.3,0-0.55,0.091-0.751,0.27c-0.201,0.18-0.366,0.401-0.495,0.662
		c-0.129,0.262-0.222,0.543-0.278,0.84c-0.058,0.298-0.085,0.56-0.085,0.785H-71.778z"/>
	<path d="M-66.002-67.073c-0.134-0.226-0.306-0.408-0.517-0.547c-0.21-0.139-0.464-0.207-0.762-0.207
		c-0.329,0-0.599,0.12-0.809,0.361s-0.315,0.557-0.315,0.946c0,0.412,0.103,0.709,0.308,0.895c0.206,0.185,0.514,0.354,0.925,0.508
		c0.205,0.083,0.41,0.183,0.615,0.3c0.206,0.118,0.388,0.266,0.547,0.439c0.159,0.175,0.29,0.382,0.393,0.624
		c0.103,0.24,0.154,0.53,0.154,0.87c0,0.749-0.203,1.332-0.608,1.748c-0.406,0.415-0.932,0.623-1.578,0.623
		c-0.432,0-0.827-0.101-1.187-0.3c-0.359-0.201-0.656-0.47-0.893-0.81l0.615-0.661c0.175,0.267,0.383,0.484,0.624,0.654
		c0.241,0.169,0.526,0.254,0.855,0.254c0.358,0,0.648-0.131,0.869-0.393c0.221-0.263,0.331-0.608,0.331-1.04
		c0-0.246-0.041-0.454-0.123-0.623c-0.082-0.17-0.189-0.311-0.323-0.425c-0.134-0.112-0.285-0.209-0.454-0.292
		c-0.17-0.081-0.347-0.159-0.531-0.23c-0.195-0.072-0.383-0.159-0.562-0.263c-0.18-0.102-0.342-0.235-0.484-0.399
		c-0.145-0.164-0.26-0.362-0.347-0.593c-0.088-0.231-0.131-0.512-0.131-0.84c0-0.318,0.054-0.61,0.161-0.878
		c0.108-0.267,0.259-0.495,0.454-0.686c0.195-0.188,0.418-0.338,0.67-0.446c0.252-0.107,0.526-0.161,0.824-0.161
		c0.432,0,0.803,0.085,1.116,0.254s0.567,0.387,0.763,0.654L-66.002-67.073z"/>
	<path d="M-62.492-70.738c0,0.216-0.066,0.393-0.2,0.531S-62.985-70-63.169-70c-0.194,0-0.356-0.068-0.484-0.207
		c-0.129-0.139-0.193-0.315-0.193-0.531c0-0.205,0.064-0.38,0.193-0.523c0.128-0.144,0.29-0.216,0.484-0.216
		c0.195,0,0.356,0.072,0.485,0.216C-62.556-71.118-62.492-70.943-62.492-70.738z M-63.677-60.758v-7.639h1.017v7.639H-63.677z"/>
	<path d="M-55.485-60.866c0,0.543-0.043,1.046-0.131,1.509c-0.087,0.462-0.233,0.861-0.438,1.201
		c-0.206,0.338-0.482,0.605-0.832,0.8c-0.349,0.196-0.785,0.294-1.309,0.294c-0.504,0-0.973-0.116-1.409-0.348
		c-0.437-0.23-0.788-0.541-1.055-0.931l0.662-0.709c0.205,0.317,0.464,0.574,0.777,0.77c0.313,0.196,0.665,0.293,1.055,0.293
		c0.339,0,0.619-0.071,0.84-0.215c0.221-0.145,0.393-0.345,0.516-0.601c0.123-0.257,0.21-0.56,0.262-0.909
		c0.051-0.349,0.077-0.734,0.077-1.154v-1.264h-0.03c-0.123,0.462-0.329,0.848-0.616,1.155c-0.288,0.308-0.693,0.462-1.217,0.462
		c-0.391,0-0.734-0.103-1.032-0.308s-0.549-0.491-0.754-0.855s-0.362-0.796-0.47-1.293c-0.108-0.498-0.162-1.045-0.162-1.641
		c0-0.595,0.052-1.14,0.154-1.633c0.103-0.492,0.254-0.916,0.454-1.27c0.2-0.354,0.452-0.632,0.755-0.831
		c0.303-0.201,0.649-0.301,1.039-0.301c0.463,0,0.855,0.141,1.179,0.423s0.541,0.654,0.654,1.117h0.046v-1.294h0.985V-60.866z
		 M-56.47-64.578c0-0.441-0.033-0.857-0.1-1.248c-0.067-0.39-0.17-0.729-0.309-1.017c-0.138-0.286-0.311-0.513-0.516-0.678
		c-0.206-0.163-0.441-0.246-0.709-0.246c-0.276,0-0.516,0.083-0.716,0.246c-0.2,0.165-0.367,0.388-0.5,0.671
		c-0.134,0.282-0.231,0.618-0.293,1.009c-0.062,0.39-0.093,0.811-0.093,1.263c0,0.441,0.031,0.854,0.093,1.24
		c0.062,0.384,0.159,0.721,0.293,1.008c0.133,0.287,0.3,0.514,0.5,0.679c0.2,0.164,0.439,0.245,0.716,0.245
		c0.277,0,0.517-0.081,0.717-0.245c0.2-0.165,0.37-0.389,0.508-0.671c0.139-0.282,0.241-0.616,0.309-1.001
		C-56.503-63.708-56.47-64.126-56.47-64.578z"/>
	<path d="M-49.203-60.758v-4.929c0-0.235-0.013-0.474-0.038-0.716c-0.025-0.241-0.082-0.462-0.169-0.662s-0.211-0.364-0.37-0.492
		c-0.159-0.129-0.366-0.193-0.623-0.193s-0.485,0.069-0.686,0.208s-0.37,0.329-0.508,0.569c-0.139,0.242-0.247,0.519-0.324,0.833
		c-0.077,0.312-0.115,0.639-0.115,0.978v4.404h-1.017v-5.714c0-0.163-0.002-0.341-0.008-0.531c-0.005-0.189-0.01-0.375-0.016-0.554
		c-0.005-0.18-0.01-0.344-0.015-0.493s-0.013-0.265-0.023-0.347h0.986c0.021,0.195,0.035,0.432,0.046,0.709
		c0.01,0.276,0.015,0.539,0.015,0.785h0.031c0.144-0.514,0.38-0.932,0.709-1.255c0.328-0.324,0.738-0.485,1.231-0.485
		c0.411,0,0.741,0.087,0.993,0.262c0.252,0.174,0.444,0.403,0.578,0.686c0.133,0.282,0.223,0.601,0.27,0.954
		c0.046,0.354,0.069,0.706,0.069,1.055v4.929H-49.203z"/>
	<path d="M-45.321-64.363c0,0.421,0.036,0.809,0.108,1.163c0.072,0.354,0.178,0.662,0.316,0.924c0.14,0.263,0.315,0.468,0.526,0.616
		c0.212,0.149,0.462,0.224,0.751,0.224c0.371,0,0.671-0.113,0.897-0.339s0.402-0.498,0.526-0.816l0.77,0.447
		c-0.185,0.462-0.459,0.85-0.823,1.162c-0.365,0.313-0.829,0.47-1.394,0.47c-0.853,0-1.515-0.359-1.987-1.078
		c-0.472-0.719-0.708-1.709-0.708-2.972c0-0.596,0.062-1.146,0.184-1.648c0.123-0.503,0.3-0.935,0.53-1.293
		c0.23-0.36,0.512-0.64,0.845-0.839c0.332-0.201,0.703-0.301,1.113-0.301c0.45,0,0.831,0.098,1.144,0.292
		c0.312,0.195,0.565,0.462,0.76,0.801s0.335,0.734,0.422,1.187c0.087,0.451,0.131,0.934,0.131,1.447v0.554H-45.321z M-42.226-65.209
		c0-0.77-0.118-1.389-0.355-1.855s-0.608-0.701-1.114-0.701c-0.3,0-0.55,0.091-0.751,0.27c-0.201,0.18-0.366,0.401-0.495,0.662
		c-0.129,0.262-0.222,0.543-0.278,0.84c-0.058,0.298-0.085,0.56-0.085,0.785H-42.226z"/>
	<path d="M-37.621-68.181c0.297-0.298,0.636-0.447,1.016-0.447c0.082,0,0.144,0.006,0.185,0.017l-0.03,1.046
		c-0.041-0.01-0.08-0.018-0.115-0.022c-0.036-0.006-0.08-0.008-0.131-0.008c-0.257,0-0.485,0.087-0.686,0.263
		c-0.2,0.174-0.367,0.399-0.501,0.677c-0.133,0.276-0.233,0.593-0.3,0.947s-0.101,0.705-0.101,1.055v3.896H-39.3v-5.714
		c0-0.163-0.002-0.341-0.007-0.531c-0.006-0.189-0.011-0.375-0.016-0.554c-0.005-0.18-0.011-0.344-0.016-0.493
		s-0.013-0.265-0.022-0.347h0.985c0.021,0.195,0.036,0.438,0.046,0.731c0.011,0.293,0.016,0.604,0.016,0.932h0.03
		C-38.14-67.402-37.919-67.884-37.621-68.181z"/>
	<path d="M-26.887-60.758l-0.985-1.494c-0.104,0.236-0.227,0.462-0.37,0.678s-0.313,0.402-0.509,0.562
		c-0.194,0.16-0.418,0.286-0.67,0.378c-0.252,0.093-0.536,0.139-0.854,0.139c-0.76,0-1.373-0.271-1.84-0.816
		c-0.468-0.545-0.701-1.31-0.701-2.295c0-0.39,0.049-0.744,0.146-1.062c0.098-0.318,0.229-0.609,0.393-0.87
		c0.164-0.263,0.359-0.499,0.585-0.709c0.226-0.211,0.473-0.403,0.739-0.577c-0.349-0.524-0.585-0.979-0.708-1.363
		c-0.123-0.386-0.185-0.787-0.185-1.209c0-0.79,0.205-1.414,0.615-1.871c0.411-0.456,0.935-0.686,1.571-0.686
		c0.308,0,0.588,0.057,0.839,0.169c0.252,0.114,0.468,0.273,0.647,0.479s0.32,0.454,0.423,0.746
		c0.104,0.293,0.154,0.613,0.154,0.963c0,0.359-0.057,0.683-0.169,0.97c-0.113,0.288-0.265,0.552-0.455,0.794
		c-0.189,0.24-0.413,0.459-0.67,0.654s-0.523,0.385-0.801,0.569l1.74,2.603l0.955-2.603h1.048l-1.402,3.388l1.694,2.465H-26.887z
		 M-30.492-66.118c-0.174,0.123-0.344,0.26-0.508,0.408c-0.164,0.149-0.308,0.323-0.432,0.522c-0.123,0.201-0.223,0.425-0.3,0.671
		s-0.115,0.523-0.115,0.831c0,0.709,0.156,1.264,0.47,1.663c0.313,0.4,0.716,0.602,1.208,0.602c0.216,0,0.414-0.046,0.594-0.139
		c0.18-0.092,0.344-0.214,0.492-0.362c0.149-0.148,0.277-0.32,0.386-0.517c0.107-0.194,0.197-0.394,0.269-0.601L-30.492-66.118z
		 M-28.582-69.521c0-0.493-0.095-0.881-0.285-1.163s-0.459-0.424-0.809-0.424c-0.349,0-0.634,0.157-0.854,0.47
		c-0.221,0.313-0.331,0.717-0.331,1.21c0,0.4,0.057,0.759,0.17,1.077c0.112,0.319,0.302,0.683,0.569,1.094
		c0.431-0.277,0.796-0.594,1.093-0.946C-28.731-68.558-28.582-68.998-28.582-69.521z"/>
	<path d="M-18.233-60.758c-0.011-0.082-0.019-0.186-0.023-0.309c-0.005-0.122-0.011-0.254-0.016-0.393
		c-0.005-0.138-0.007-0.271-0.007-0.4c0-0.128,0-0.238,0-0.331h-0.031c-0.257,1.089-0.873,1.632-1.848,1.632
		c-0.216,0-0.432-0.041-0.647-0.122c-0.216-0.083-0.41-0.216-0.585-0.4c-0.175-0.186-0.318-0.418-0.432-0.701
		c-0.113-0.282-0.169-0.624-0.169-1.024c0-0.555,0.098-1.001,0.292-1.34c0.195-0.338,0.441-0.605,0.74-0.8
		c0.297-0.195,0.623-0.327,0.978-0.394s0.69-0.1,1.009-0.1h0.6v-0.4c0-0.668-0.122-1.155-0.369-1.464
		c-0.246-0.308-0.58-0.462-1.001-0.462c-0.287,0-0.555,0.078-0.801,0.231C-20.79-67.38-21-67.186-21.174-66.95l-0.539-0.631
		c0.235-0.339,0.544-0.601,0.924-0.786c0.38-0.185,0.76-0.276,1.14-0.276c0.801,0,1.371,0.262,1.709,0.785
		c0.339,0.524,0.508,1.289,0.508,2.294v3.173c0,0.103,0.003,0.23,0.009,0.386c0.005,0.153,0.01,0.31,0.015,0.469
		c0.006,0.159,0.013,0.309,0.023,0.447c0.01,0.139,0.021,0.249,0.031,0.331H-18.233z M-18.357-64.64h-0.615
		c-0.246,0-0.493,0.024-0.739,0.07c-0.247,0.046-0.465,0.133-0.655,0.262c-0.189,0.128-0.346,0.306-0.469,0.531
		s-0.186,0.519-0.186,0.877c0,0.534,0.118,0.92,0.354,1.155c0.236,0.236,0.493,0.354,0.771,0.354c0.287,0,0.531-0.087,0.731-0.261
		c0.2-0.176,0.359-0.396,0.478-0.663c0.117-0.267,0.202-0.56,0.254-0.878c0.051-0.317,0.076-0.626,0.076-0.924V-64.64z"/>
	<path d="M-12.304-67.073c-0.134-0.226-0.306-0.408-0.517-0.547c-0.21-0.139-0.464-0.207-0.762-0.207
		c-0.329,0-0.599,0.12-0.809,0.361c-0.211,0.241-0.315,0.557-0.315,0.946c0,0.412,0.103,0.709,0.308,0.895
		c0.205,0.185,0.514,0.354,0.924,0.508c0.205,0.083,0.411,0.183,0.616,0.3c0.205,0.118,0.388,0.266,0.547,0.439
		c0.159,0.175,0.29,0.382,0.393,0.624c0.103,0.24,0.153,0.53,0.153,0.87c0,0.749-0.202,1.332-0.607,1.748
		c-0.406,0.415-0.932,0.623-1.579,0.623c-0.431,0-0.826-0.101-1.186-0.3c-0.359-0.201-0.657-0.47-0.894-0.81l0.616-0.661
		c0.175,0.267,0.383,0.484,0.624,0.654c0.241,0.169,0.526,0.254,0.854,0.254c0.359,0,0.649-0.131,0.87-0.393
		c0.221-0.263,0.331-0.608,0.331-1.04c0-0.246-0.041-0.454-0.123-0.623c-0.082-0.17-0.189-0.311-0.323-0.425
		c-0.134-0.112-0.285-0.209-0.454-0.292c-0.17-0.081-0.347-0.159-0.532-0.23c-0.194-0.072-0.382-0.159-0.562-0.263
		c-0.18-0.102-0.342-0.235-0.485-0.399s-0.259-0.362-0.346-0.593c-0.088-0.231-0.132-0.512-0.132-0.84
		c0-0.318,0.054-0.61,0.162-0.878c0.108-0.267,0.259-0.495,0.454-0.686c0.195-0.188,0.418-0.338,0.67-0.446
		c0.252-0.107,0.526-0.161,0.824-0.161c0.431,0,0.803,0.085,1.116,0.254s0.567,0.387,0.763,0.654L-12.304-67.073z"/>
	<path d="M-4.711-64.562c0,0.595-0.052,1.14-0.154,1.633c-0.103,0.491-0.257,0.918-0.462,1.278
		c-0.206,0.358-0.457,0.638-0.755,0.839c-0.298,0.199-0.646,0.3-1.047,0.3c-0.462,0-0.851-0.145-1.163-0.432
		c-0.313-0.286-0.531-0.661-0.654-1.124h-0.016v5.006h-1.017v-11.335h0.986v1.37h0.03c0.123-0.472,0.329-0.859,0.616-1.162
		s0.692-0.454,1.217-0.454c0.379,0,0.721,0.103,1.023,0.308s0.557,0.488,0.763,0.847c0.205,0.36,0.362,0.789,0.47,1.286
		C-4.766-65.705-4.711-65.158-4.711-64.562z M-5.759-64.593c0-0.44-0.03-0.854-0.092-1.24c-0.062-0.385-0.16-0.721-0.293-1.009
		c-0.134-0.286-0.301-0.513-0.501-0.678c-0.2-0.163-0.438-0.246-0.716-0.246s-0.517,0.083-0.716,0.246
		c-0.2,0.165-0.37,0.392-0.508,0.678c-0.139,0.288-0.242,0.624-0.309,1.009c-0.066,0.386-0.1,0.8-0.1,1.24
		c0,0.452,0.033,0.873,0.1,1.263c0.066,0.391,0.17,0.727,0.309,1.009c0.138,0.282,0.31,0.506,0.516,0.671
		c0.205,0.164,0.441,0.245,0.708,0.245c0.277,0,0.516-0.081,0.716-0.245c0.2-0.165,0.367-0.389,0.501-0.671
		c0.133-0.282,0.23-0.618,0.293-1.009C-5.79-63.72-5.759-64.141-5.759-64.593z"/>
	<path d="M-1.617-70.738c0,0.216-0.066,0.393-0.2,0.531S-2.11-70-2.294-70c-0.194,0-0.356-0.068-0.484-0.207
		c-0.129-0.139-0.193-0.315-0.193-0.531c0-0.205,0.064-0.38,0.193-0.523c0.128-0.144,0.29-0.216,0.484-0.216
		c0.195,0,0.356,0.072,0.485,0.216C-1.681-71.118-1.617-70.943-1.617-70.738z M-2.802-60.758v-7.639h1.016v7.639H-2.802z"/>
	<path d="M2.326-68.181c0.297-0.298,0.636-0.447,1.016-0.447c0.082,0,0.144,0.006,0.186,0.017l-0.031,1.046
		c-0.041-0.01-0.08-0.018-0.115-0.022c-0.036-0.006-0.08-0.008-0.131-0.008c-0.257,0-0.485,0.087-0.686,0.263
		c-0.2,0.174-0.367,0.399-0.501,0.677c-0.133,0.276-0.233,0.593-0.3,0.947s-0.1,0.705-0.1,1.055v3.896H0.646v-5.714
		c0-0.163-0.002-0.341-0.007-0.531c-0.006-0.189-0.011-0.375-0.016-0.554c-0.005-0.18-0.011-0.344-0.016-0.493
		s-0.013-0.265-0.022-0.347h0.985c0.021,0.195,0.036,0.438,0.046,0.731c0.011,0.293,0.016,0.604,0.016,0.932h0.031
		C1.806-67.402,2.027-67.884,2.326-68.181z"/>
	<path d="M5.99-70.738c0,0.216-0.066,0.393-0.199,0.531C5.657-70.068,5.498-70,5.313-70c-0.195,0-0.356-0.068-0.485-0.207
		c-0.128-0.139-0.192-0.315-0.192-0.531c0-0.205,0.064-0.38,0.192-0.523c0.129-0.144,0.29-0.216,0.485-0.216
		c0.194,0,0.356,0.072,0.484,0.216C5.926-71.118,5.99-70.943,5.99-70.738z M4.805-60.758v-7.639h1.016v7.639H4.805z"/>
	<path d="M12.103-60.758v-4.929c0-0.235-0.013-0.474-0.038-0.716c-0.025-0.241-0.082-0.462-0.169-0.662s-0.211-0.364-0.37-0.492
		c-0.159-0.129-0.366-0.193-0.623-0.193s-0.485,0.069-0.686,0.208s-0.37,0.329-0.508,0.569c-0.139,0.242-0.247,0.519-0.324,0.833
		c-0.077,0.312-0.115,0.639-0.115,0.978v4.404H8.253v-5.714c0-0.163-0.002-0.341-0.008-0.531c-0.005-0.189-0.01-0.375-0.016-0.554
		c-0.005-0.18-0.01-0.344-0.015-0.493s-0.013-0.265-0.023-0.347h0.986c0.021,0.195,0.035,0.432,0.046,0.709
		c0.01,0.276,0.015,0.539,0.015,0.785H9.27c0.144-0.514,0.38-0.932,0.709-1.255c0.328-0.324,0.738-0.485,1.231-0.485
		c0.411,0,0.741,0.087,0.993,0.262c0.252,0.174,0.444,0.403,0.578,0.686c0.133,0.282,0.223,0.601,0.27,0.954
		c0.046,0.354,0.069,0.706,0.069,1.055v4.929H12.103z"/>
	<path d="M20.235-60.866c0,0.543-0.044,1.046-0.131,1.509c-0.087,0.462-0.233,0.861-0.438,1.201c-0.206,0.338-0.483,0.605-0.832,0.8
		c-0.35,0.196-0.785,0.294-1.309,0.294c-0.504,0-0.973-0.116-1.409-0.348c-0.437-0.23-0.788-0.541-1.055-0.931l0.662-0.709
		c0.205,0.317,0.464,0.574,0.777,0.77c0.312,0.196,0.665,0.293,1.055,0.293c0.339,0,0.619-0.071,0.84-0.215
		c0.221-0.145,0.393-0.345,0.516-0.601c0.123-0.257,0.21-0.56,0.262-0.909c0.051-0.349,0.077-0.734,0.077-1.154v-1.264h-0.031
		c-0.123,0.462-0.328,0.848-0.616,1.155c-0.287,0.308-0.692,0.462-1.216,0.462c-0.391,0-0.734-0.103-1.032-0.308
		s-0.549-0.491-0.755-0.855c-0.205-0.364-0.361-0.796-0.469-1.293c-0.108-0.498-0.162-1.045-0.162-1.641
		c0-0.595,0.051-1.14,0.153-1.633c0.104-0.492,0.255-0.916,0.455-1.27c0.2-0.354,0.451-0.632,0.755-0.831
		c0.303-0.201,0.648-0.301,1.039-0.301c0.462,0,0.854,0.141,1.178,0.423c0.324,0.282,0.542,0.654,0.654,1.117h0.047v-1.294h0.985
		V-60.866z M19.25-64.578c0-0.441-0.033-0.857-0.101-1.248c-0.066-0.39-0.169-0.729-0.308-1.017
		c-0.139-0.286-0.311-0.513-0.516-0.678c-0.206-0.163-0.441-0.246-0.709-0.246c-0.277,0-0.516,0.083-0.716,0.246
		c-0.2,0.165-0.367,0.388-0.501,0.671c-0.133,0.282-0.23,0.618-0.292,1.009c-0.062,0.39-0.093,0.811-0.093,1.263
		c0,0.441,0.031,0.854,0.093,1.24c0.062,0.384,0.159,0.721,0.292,1.008c0.134,0.287,0.301,0.514,0.501,0.679
		c0.2,0.164,0.438,0.245,0.716,0.245s0.517-0.081,0.716-0.245c0.201-0.165,0.37-0.389,0.509-0.671s0.241-0.616,0.308-1.001
		C19.216-63.708,19.25-64.126,19.25-64.578z"/>
	<path d="M29.274-60.758v-1.371h-0.03c-0.123,0.462-0.329,0.848-0.616,1.155s-0.692,0.462-1.217,0.462
		c-0.39,0-0.733-0.103-1.031-0.308s-0.55-0.491-0.755-0.855s-0.362-0.796-0.47-1.293c-0.107-0.498-0.161-1.045-0.161-1.641
		c0-0.595,0.051-1.14,0.153-1.633c0.103-0.492,0.254-0.916,0.455-1.27c0.2-0.354,0.451-0.632,0.754-0.831
		c0.303-0.201,0.649-0.301,1.04-0.301c0.462,0,0.852,0.141,1.17,0.423s0.534,0.654,0.647,1.117h0.03v-5.298h1.017v11.643H29.274z
		 M29.274-64.578c0-0.452-0.033-0.873-0.1-1.263c-0.067-0.391-0.169-0.727-0.308-1.009c-0.139-0.283-0.311-0.506-0.517-0.671
		c-0.205-0.163-0.441-0.246-0.708-0.246c-0.277,0-0.516,0.083-0.716,0.246c-0.2,0.165-0.367,0.388-0.501,0.671
		c-0.134,0.282-0.23,0.618-0.293,1.009c-0.061,0.39-0.092,0.811-0.092,1.263c0,0.441,0.031,0.854,0.092,1.24
		c0.062,0.384,0.159,0.721,0.293,1.008s0.301,0.514,0.501,0.679c0.2,0.164,0.438,0.245,0.716,0.245s0.517-0.081,0.716-0.245
		c0.2-0.165,0.37-0.392,0.509-0.679s0.24-0.624,0.308-1.008C29.241-63.723,29.274-64.136,29.274-64.578z"/>
	<path d="M33.186-64.363c0,0.421,0.036,0.809,0.108,1.163c0.072,0.354,0.178,0.662,0.317,0.924c0.139,0.263,0.314,0.468,0.526,0.616
		c0.211,0.149,0.461,0.224,0.751,0.224c0.371,0,0.67-0.113,0.897-0.339c0.227-0.226,0.402-0.498,0.525-0.816l0.771,0.447
		c-0.185,0.462-0.46,0.85-0.824,1.162c-0.364,0.313-0.829,0.47-1.394,0.47c-0.853,0-1.515-0.359-1.987-1.078
		c-0.472-0.719-0.708-1.709-0.708-2.972c0-0.596,0.062-1.146,0.185-1.648s0.299-0.935,0.529-1.293c0.23-0.36,0.513-0.64,0.845-0.839
		c0.332-0.201,0.704-0.301,1.113-0.301c0.45,0,0.832,0.098,1.144,0.292c0.312,0.195,0.565,0.462,0.76,0.801s0.336,0.734,0.423,1.187
		c0.087,0.451,0.13,0.934,0.13,1.447v0.554H33.186z M36.282-65.209c0-0.77-0.119-1.389-0.356-1.855s-0.608-0.701-1.114-0.701
		c-0.3,0-0.55,0.091-0.751,0.27c-0.201,0.18-0.366,0.401-0.495,0.662c-0.129,0.262-0.222,0.543-0.278,0.84
		c-0.057,0.298-0.085,0.56-0.085,0.785H36.282z"/>
	<path d="M41.47-60.758h-1.201l-2.048-7.639h1.078l1.586,6.56h0.031l1.509-6.56h1.048L41.47-60.758z"/>
	<path d="M45.475-64.363c0,0.421,0.035,0.809,0.108,1.163c0.071,0.354,0.178,0.662,0.316,0.924c0.14,0.263,0.314,0.468,0.526,0.616
		c0.212,0.149,0.462,0.224,0.751,0.224c0.371,0,0.67-0.113,0.897-0.339c0.227-0.226,0.402-0.498,0.526-0.816l0.77,0.447
		c-0.185,0.462-0.46,0.85-0.823,1.162c-0.365,0.313-0.83,0.47-1.395,0.47c-0.853,0-1.515-0.359-1.986-1.078
		c-0.473-0.719-0.708-1.709-0.708-2.972c0-0.596,0.062-1.146,0.184-1.648c0.123-0.503,0.3-0.935,0.53-1.293
		c0.23-0.36,0.512-0.64,0.844-0.839c0.333-0.201,0.704-0.301,1.114-0.301c0.45,0,0.831,0.098,1.144,0.292
		c0.312,0.195,0.565,0.462,0.76,0.801s0.335,0.734,0.422,1.187c0.087,0.451,0.131,0.934,0.131,1.447v0.554H45.475z M48.57-65.209
		c0-0.77-0.118-1.389-0.355-1.855c-0.238-0.467-0.609-0.701-1.115-0.701c-0.299,0-0.549,0.091-0.75,0.27
		c-0.201,0.18-0.366,0.401-0.495,0.662c-0.129,0.262-0.222,0.543-0.279,0.84c-0.057,0.298-0.085,0.56-0.085,0.785H48.57z"/>
	<path d="M51.434-60.758v-11.643h1.017v11.643H51.434z"/>
	<path d="M59.689-64.562c0,0.605-0.062,1.154-0.185,1.647c-0.123,0.493-0.299,0.918-0.524,1.278
		c-0.226,0.359-0.506,0.637-0.839,0.831c-0.334,0.194-0.706,0.293-1.116,0.293c-0.411,0-0.78-0.099-1.109-0.293
		s-0.608-0.472-0.839-0.831c-0.231-0.36-0.408-0.785-0.531-1.278c-0.124-0.493-0.185-1.042-0.185-1.647
		c0-0.606,0.059-1.16,0.177-1.663s0.29-0.935,0.516-1.295c0.226-0.358,0.506-0.636,0.839-0.831c0.334-0.194,0.712-0.292,1.133-0.292
		c0.41,0,0.782,0.098,1.116,0.292c0.333,0.195,0.613,0.473,0.839,0.831c0.226,0.36,0.401,0.792,0.524,1.295
		C59.626-65.722,59.689-65.168,59.689-64.562z M58.641-64.585c0-0.451-0.033-0.871-0.1-1.26c-0.067-0.39-0.167-0.725-0.301-1.007
		c-0.133-0.281-0.3-0.503-0.5-0.668c-0.2-0.163-0.438-0.246-0.716-0.246s-0.52,0.083-0.725,0.246
		c-0.205,0.165-0.372,0.387-0.5,0.668c-0.129,0.282-0.226,0.617-0.292,1.007c-0.067,0.389-0.101,0.809-0.101,1.26
		c0,0.45,0.033,0.865,0.101,1.244c0.066,0.38,0.163,0.713,0.292,0.999c0.128,0.287,0.295,0.51,0.5,0.668
		c0.205,0.159,0.447,0.238,0.725,0.238s0.518-0.079,0.724-0.238c0.205-0.158,0.372-0.381,0.5-0.668
		c0.129-0.286,0.226-0.619,0.293-0.999C58.608-63.72,58.641-64.135,58.641-64.585z"/>
	<path d="M66.865-64.562c0,0.595-0.052,1.14-0.154,1.633c-0.103,0.491-0.256,0.918-0.462,1.278
		c-0.205,0.358-0.457,0.638-0.754,0.839c-0.299,0.199-0.647,0.3-1.048,0.3c-0.462,0-0.85-0.145-1.163-0.432
		c-0.312-0.286-0.531-0.661-0.653-1.124h-0.016v5.006h-1.017v-11.335h0.985v1.37h0.031c0.123-0.472,0.328-0.859,0.615-1.162
		c0.288-0.303,0.693-0.454,1.217-0.454c0.38,0,0.722,0.103,1.024,0.308s0.557,0.488,0.762,0.847c0.206,0.36,0.362,0.789,0.471,1.286
		C66.811-65.705,66.865-65.158,66.865-64.562z M65.818-64.593c0-0.44-0.031-0.854-0.093-1.24c-0.062-0.385-0.159-0.721-0.293-1.009
		c-0.134-0.286-0.3-0.513-0.5-0.678c-0.2-0.163-0.439-0.246-0.716-0.246c-0.277,0-0.517,0.083-0.716,0.246
		c-0.201,0.165-0.37,0.392-0.509,0.678c-0.139,0.288-0.241,0.624-0.308,1.009c-0.067,0.386-0.101,0.8-0.101,1.24
		c0,0.452,0.033,0.873,0.101,1.263c0.066,0.391,0.169,0.727,0.308,1.009s0.311,0.506,0.516,0.671
		c0.205,0.164,0.441,0.245,0.709,0.245c0.276,0,0.516-0.081,0.716-0.245c0.2-0.165,0.366-0.389,0.5-0.671s0.231-0.618,0.293-1.009
		C65.787-63.72,65.818-64.141,65.818-64.593z"/>
	<path d="M69.329-64.363c0,0.421,0.036,0.809,0.108,1.163c0.072,0.354,0.178,0.662,0.317,0.924c0.139,0.263,0.314,0.468,0.526,0.616
		c0.211,0.149,0.461,0.224,0.751,0.224c0.371,0,0.67-0.113,0.897-0.339c0.227-0.226,0.402-0.498,0.525-0.816l0.771,0.447
		c-0.185,0.462-0.46,0.85-0.824,1.162c-0.364,0.313-0.829,0.47-1.394,0.47c-0.853,0-1.515-0.359-1.987-1.078
		c-0.472-0.719-0.707-1.709-0.707-2.972c0-0.596,0.061-1.146,0.184-1.648s0.3-0.935,0.529-1.293c0.23-0.36,0.513-0.64,0.845-0.839
		c0.333-0.201,0.704-0.301,1.113-0.301c0.45,0,0.832,0.098,1.144,0.292c0.312,0.195,0.565,0.462,0.76,0.801
		c0.195,0.339,0.336,0.734,0.423,1.187c0.087,0.451,0.13,0.934,0.13,1.447v0.554H69.329z M72.424-65.209
		c0-0.77-0.119-1.389-0.356-1.855s-0.608-0.701-1.114-0.701c-0.299,0-0.55,0.091-0.75,0.27c-0.202,0.18-0.367,0.401-0.496,0.662
		c-0.129,0.262-0.222,0.543-0.278,0.84c-0.057,0.298-0.085,0.56-0.085,0.785H72.424z"/>
	<path d="M77.029-68.181c0.298-0.298,0.637-0.447,1.017-0.447c0.082,0,0.143,0.006,0.185,0.017l-0.031,1.046
		c-0.041-0.01-0.08-0.018-0.115-0.022c-0.036-0.006-0.08-0.008-0.131-0.008c-0.257,0-0.485,0.087-0.686,0.263
		c-0.2,0.174-0.367,0.399-0.5,0.677c-0.134,0.276-0.234,0.593-0.301,0.947s-0.1,0.705-0.1,1.055v3.896H75.35v-5.714
		c0-0.163-0.003-0.341-0.008-0.531c-0.006-0.189-0.011-0.375-0.016-0.554c-0.005-0.18-0.01-0.344-0.015-0.493
		c-0.006-0.149-0.014-0.265-0.023-0.347h0.985c0.021,0.195,0.036,0.438,0.046,0.731c0.011,0.293,0.016,0.604,0.016,0.932h0.031
		C76.51-67.402,76.731-67.884,77.029-68.181z"/>
	<path fill="#CCDD59" d="M-93.568-79.614v-22.15h3.754v22.15H-93.568z"/>
	<path fill="#CCDD59" d="M-84.965-101.764h2.847l-1.812,7.758h-2.503L-84.965-101.764z"/>
	<path fill="#CCDD59" d="M-63.536-79.614l0.062-17.02h-0.094l-4.442,17.02h-2.94l-4.349-17.02h-0.094l0.062,17.02h-3.409v-22.15
		h5.036l4.254,16.203h0.125l4.162-16.203h5.285v22.15H-63.536z"/>
	<path fill="#CCDD59" d="M-35.068-90.657c0,3.504-0.736,6.219-2.206,8.148s-3.634,2.895-6.491,2.895h-5.537v-22.15h5.568
		c2.836,0,4.99,0.975,6.46,2.924C-35.804-96.889-35.068-94.163-35.068-90.657z M-38.824-90.657c0-1.314-0.119-2.463-0.357-3.441
		c-0.242-0.98-0.578-1.793-1.018-2.443c-0.438-0.645-0.959-1.129-1.563-1.451c-0.606-0.324-1.263-0.484-1.972-0.484h-1.783v15.578
		h1.783c0.709,0,1.365-0.16,1.972-0.486c0.604-0.324,1.126-0.809,1.563-1.453c0.439-0.646,0.775-1.457,1.018-2.426
		C-38.943-88.233-38.824-89.364-38.824-90.657z"/>
	<path fill="#CCDD59" d="M-16.516-90.719c0,1.75-0.184,3.342-0.548,4.768c-0.365,1.43-0.893,2.656-1.58,3.678
		c-0.688,1.023-1.528,1.816-2.518,2.379c-0.992,0.561-2.102,0.844-3.332,0.844c-1.252,0-2.367-0.283-3.348-0.844
		c-0.98-0.562-1.814-1.355-2.503-2.379c-0.688-1.021-1.216-2.248-1.579-3.678c-0.366-1.426-0.549-3.018-0.549-4.768
		c0-1.752,0.178-3.34,0.533-4.758c0.354-1.418,0.876-2.637,1.564-3.66c0.688-1.02,1.527-1.809,2.518-2.361
		c0.989-0.553,2.111-0.828,3.363-0.828c1.23,0,2.34,0.275,3.332,0.828c0.989,0.553,1.83,1.342,2.518,2.361
		c0.688,1.023,1.215,2.242,1.58,3.66C-16.7-94.059-16.516-92.471-16.516-90.719z M-20.396-90.719c0-1.129-0.09-2.188-0.266-3.176
		c-0.178-0.992-0.438-1.848-0.783-2.566c-0.344-0.719-0.771-1.287-1.281-1.707c-0.512-0.414-1.102-0.625-1.768-0.625
		c-0.689,0-1.289,0.211-1.799,0.625c-0.512,0.42-0.939,0.988-1.283,1.707s-0.6,1.574-0.768,2.566
		c-0.166,0.988-0.248,2.047-0.248,3.176c0,1.123,0.082,2.184,0.248,3.174c0.168,0.988,0.424,1.852,0.768,2.58
		c0.344,0.73,0.771,1.303,1.283,1.723c0.51,0.418,1.109,0.625,1.799,0.625c0.688,0,1.287-0.207,1.798-0.625
		c0.511-0.42,0.938-0.992,1.282-1.723c0.346-0.729,0.6-1.592,0.768-2.58C-20.478-88.536-20.396-89.596-20.396-90.719z"/>
	<path fill="#CCDD59" d="M-3.848-79.614l-3.44-9.449h-2.096v9.449h-3.629v-22.15h6.318c0.918,0,1.764,0.119,2.535,0.359
		c0.771,0.238,1.434,0.621,1.986,1.141c0.551,0.523,0.985,1.18,1.298,1.971c0.312,0.793,0.47,1.744,0.47,2.85
		c0,0.855-0.109,1.609-0.329,2.266c-0.219,0.658-0.496,1.217-0.829,1.674c-0.334,0.461-0.703,0.828-1.111,1.113
		c-0.406,0.279-0.807,0.473-1.203,0.576l3.973,10.201H-3.848z M-4.097-95.258c0-0.668-0.095-1.219-0.282-1.656
		c-0.188-0.439-0.433-0.783-0.735-1.033c-0.301-0.25-0.641-0.428-1.016-0.529c-0.377-0.105-0.752-0.16-1.127-0.16h-2.127v6.82h2.127
		c0.918,0,1.674-0.285,2.269-0.859C-4.396-93.25-4.097-94.11-4.097-95.258z"/>
	<path fill="#CCDD59" d="M12.639-79.614l-1.096-4.693H5.726l-1.128,4.693H0.844l5.506-22.15h4.787l5.412,22.15H12.639z
		 M8.729-98.229H8.604l-2.41,10.98h4.881L8.729-98.229z"/>
	<path fill="#CCDD59" d="M35.023-79.866c-0.907,0.543-2.051,0.814-3.427,0.814c-1.252,0-2.383-0.291-3.395-0.875
		c-1.011-0.584-1.866-1.393-2.564-2.424c-0.699-1.035-1.242-2.26-1.626-3.68c-0.388-1.416-0.579-2.971-0.579-4.662
		c0-1.688,0.191-3.244,0.579-4.674c0.384-1.428,0.933-2.662,1.644-3.691c0.707-1.033,1.567-1.836,2.579-2.41
		s2.132-0.859,3.362-0.859c1.271,0,2.388,0.234,3.348,0.703c0.959,0.469,1.74,1.143,2.346,2.018l-2.158,2.629
		c-0.855-1.232-1.96-1.848-3.316-1.848c-0.75,0-1.406,0.215-1.971,0.643c-0.562,0.428-1.032,1.008-1.406,1.736
		c-0.376,0.73-0.656,1.59-0.846,2.58c-0.187,0.99-0.281,2.049-0.281,3.174c0,1.107,0.095,2.156,0.281,3.146
		c0.189,0.988,0.47,1.852,0.846,2.58c0.374,0.73,0.848,1.311,1.422,1.738s1.246,0.641,2.019,0.641c0.729,0,1.36-0.189,1.892-0.564
		c0.533-0.375,0.977-0.832,1.33-1.375l2.158,2.533C36.674-81.118,35.929-80.407,35.023-79.866z"/>
	<path fill="#CCDD59" d="M50.274-79.614v-9.824h-6.633v9.824h-3.724v-22.15h3.724v8.979h6.633v-8.979h3.723v22.15H50.274z"/>
	<path fill="#CCDD59" d="M68.104-79.614l-1.094-4.693h-5.82l-1.125,4.693h-3.756l5.507-22.15h4.786l5.412,22.15H68.104z
		 M64.194-98.229h-0.125l-2.408,10.98h4.879L64.194-98.229z"/>
	<path fill="#CCDD59" d="M84.028-79.614l-6.289-15.645h-0.092l0.063,15.645h-3.379v-22.15h4.284l6.227,15.734h0.094l-0.031-15.734
		h3.254v22.15H84.028z"/>
</g>
</svg>
