<?xml version="1.0" encoding="utf-8"?>
<!-- Generator: Adobe Illustrator 14.0.0, SVG Export Plug-In . SVG Version: 6.00 Build 43363)  -->
<!DOCTYPE svg PUBLIC "-//W3C//DTD SVG 1.1//EN" "http://www.w3.org/Graphics/SVG/1.1/DTD/svg11.dtd">
<svg version="1.1" id="Layer_1" xmlns="http://www.w3.org/2000/svg" xmlns:xlink="http://www.w3.org/1999/xlink" x="0px" y="0px"
	 width="300px" height="68px" viewBox="0 0 300 68" enable-background="new 0 0 300 68" xml:space="preserve">
<g id="Layer_4">
	<rect x="17.5" y="3" fill="none" stroke="#CCDD59" stroke-width="3" width="265" height="62"/>
</g>
<path d="M70.103,54.355v-1.439h-0.031c-0.129,0.484-0.346,0.891-0.646,1.213c-0.302,0.322-0.728,0.484-1.278,0.484
	c-0.41,0-0.771-0.107-1.083-0.322c-0.313-0.215-0.577-0.518-0.792-0.898c-0.216-0.381-0.38-0.836-0.493-1.356
	c-0.113-0.522-0.169-1.097-0.169-1.724c0-0.625,0.053-1.196,0.16-1.715c0.108-0.517,0.267-0.961,0.477-1.332
	c0.21-0.373,0.475-0.664,0.793-0.873c0.318-0.211,0.681-0.315,1.091-0.315c0.486,0,0.896,0.147,1.229,0.442
	c0.334,0.297,0.56,0.688,0.678,1.172h0.033V42.13h1.067v12.226H70.103L70.103,54.355z M70.103,50.346
	c0-0.476-0.034-0.918-0.104-1.326c-0.07-0.41-0.178-0.764-0.323-1.062c-0.146-0.296-0.328-0.53-0.543-0.703
	c-0.217-0.172-0.463-0.258-0.743-0.258c-0.291,0-0.542,0.086-0.752,0.258c-0.211,0.173-0.387,0.407-0.526,0.703
	c-0.141,0.298-0.243,0.649-0.308,1.062c-0.065,0.408-0.097,0.852-0.097,1.326c0,0.461,0.031,0.896,0.097,1.301
	c0.064,0.403,0.167,0.758,0.308,1.06c0.14,0.302,0.315,0.54,0.526,0.713c0.21,0.172,0.46,0.257,0.752,0.257
	c0.289,0,0.541-0.085,0.751-0.257c0.21-0.173,0.389-0.411,0.535-0.713s0.252-0.655,0.323-1.06
	C70.068,51.242,70.103,50.809,70.103,50.346z"/>
<path d="M74.21,50.57c0,0.44,0.038,0.85,0.113,1.221c0.076,0.371,0.188,0.695,0.332,0.971c0.147,0.276,0.331,0.492,0.553,0.646
	c0.223,0.156,0.485,0.234,0.789,0.234c0.39,0,0.704-0.117,0.941-0.354s0.422-0.522,0.552-0.856l0.809,0.469
	c-0.194,0.484-0.481,0.894-0.863,1.222c-0.384,0.328-0.871,0.492-1.464,0.492c-0.896,0-1.591-0.376-2.087-1.132
	c-0.495-0.756-0.743-1.795-0.743-3.119c0-0.627,0.065-1.204,0.193-1.731c0.129-0.526,0.314-0.981,0.557-1.356
	c0.241-0.379,0.537-0.674,0.887-0.881c0.349-0.211,0.738-0.316,1.169-0.316c0.473,0,0.872,0.104,1.201,0.309
	c0.327,0.203,0.594,0.482,0.798,0.84c0.205,0.355,0.352,0.771,0.443,1.246c0.091,0.475,0.137,0.98,0.137,1.521v0.581H74.21V50.57z
	 M77.46,49.684c0-0.811-0.124-1.461-0.372-1.947C76.839,47.246,76.449,47,75.918,47c-0.315,0-0.577,0.096-0.789,0.282
	c-0.211,0.188-0.384,0.422-0.52,0.694c-0.136,0.275-0.232,0.57-0.292,0.883c-0.061,0.313-0.089,0.589-0.089,0.824H77.46
	L77.46,49.684z"/>
<path d="M83.525,47.725c-0.142-0.235-0.322-0.429-0.543-0.574c-0.221-0.145-0.487-0.217-0.801-0.217
	c-0.345,0-0.628,0.127-0.849,0.379s-0.331,0.584-0.331,0.992c0,0.434,0.107,0.745,0.323,0.94c0.216,0.194,0.54,0.372,0.972,0.532
	c0.215,0.088,0.43,0.193,0.646,0.315c0.216,0.124,0.407,0.279,0.574,0.462c0.167,0.184,0.305,0.4,0.412,0.654
	c0.108,0.251,0.162,0.557,0.162,0.914c0,0.786-0.213,1.398-0.638,1.835c-0.427,0.435-0.979,0.653-1.657,0.653
	c-0.454,0-0.869-0.105-1.246-0.314c-0.377-0.212-0.689-0.492-0.938-0.852l0.646-0.693c0.185,0.281,0.402,0.509,0.655,0.688
	c0.254,0.178,0.553,0.268,0.898,0.268c0.376,0,0.681-0.139,0.912-0.412c0.232-0.277,0.348-0.639,0.348-1.094
	c0-0.258-0.043-0.477-0.129-0.654c-0.087-0.178-0.198-0.324-0.339-0.443c-0.142-0.119-0.3-0.221-0.478-0.309
	c-0.178-0.084-0.364-0.166-0.558-0.24c-0.204-0.076-0.401-0.168-0.59-0.275c-0.189-0.108-0.359-0.247-0.508-0.42
	c-0.152-0.172-0.273-0.381-0.364-0.623c-0.093-0.242-0.138-0.536-0.138-0.881c0-0.336,0.057-0.642,0.169-0.924
	c0.113-0.279,0.271-0.52,0.477-0.72c0.205-0.196,0.439-0.354,0.703-0.468c0.265-0.113,0.553-0.17,0.865-0.17
	c0.454,0,0.844,0.09,1.172,0.267c0.329,0.179,0.596,0.406,0.802,0.687L83.525,47.725z"/>
<path d="M87.21,43.877c0,0.227-0.069,0.413-0.209,0.559c-0.142,0.145-0.308,0.217-0.501,0.217c-0.204,0-0.374-0.07-0.509-0.217
	c-0.136-0.147-0.202-0.332-0.202-0.559c0-0.215,0.066-0.398,0.202-0.549c0.135-0.152,0.305-0.229,0.509-0.229
	s0.373,0.075,0.509,0.229C87.144,43.479,87.21,43.662,87.21,43.877z M85.966,54.355v-8.021h1.068v8.021H85.966z"/>
<path d="M94.568,54.242c0,0.57-0.046,1.099-0.139,1.585c-0.091,0.483-0.244,0.903-0.46,1.261c-0.216,0.355-0.506,0.637-0.873,0.84
	c-0.366,0.206-0.824,0.311-1.374,0.311c-0.529,0-1.021-0.122-1.479-0.366c-0.459-0.241-0.828-0.567-1.108-0.978l0.695-0.744
	c0.216,0.332,0.487,0.603,0.815,0.808c0.329,0.206,0.698,0.308,1.108,0.308c0.355,0,0.65-0.072,0.882-0.226
	c0.232-0.151,0.413-0.36,0.542-0.63c0.129-0.271,0.221-0.59,0.275-0.955c0.053-0.367,0.08-0.771,0.08-1.212v-1.327h-0.031
	c-0.129,0.484-0.346,0.891-0.646,1.212c-0.303,0.324-0.728,0.485-1.278,0.485c-0.41,0-0.771-0.107-1.084-0.323
	c-0.312-0.215-0.576-0.515-0.791-0.897c-0.216-0.382-0.38-0.834-0.493-1.356c-0.114-0.522-0.17-1.099-0.17-1.724
	s0.054-1.196,0.161-1.715c0.108-0.518,0.267-0.962,0.477-1.332c0.21-0.373,0.475-0.666,0.793-0.873
	c0.318-0.211,0.682-0.316,1.091-0.316c0.486,0,0.897,0.148,1.238,0.443c0.34,0.297,0.568,0.688,0.687,1.174h0.048v-1.359h1.035
	L94.568,54.242L94.568,54.242z M93.533,50.346c0-0.464-0.034-0.9-0.104-1.312c-0.07-0.409-0.179-0.767-0.324-1.067
	c-0.146-0.301-0.327-0.539-0.542-0.712c-0.217-0.172-0.463-0.258-0.744-0.258c-0.29,0-0.542,0.086-0.752,0.258
	c-0.21,0.173-0.386,0.407-0.525,0.703c-0.141,0.298-0.242,0.649-0.308,1.062c-0.064,0.408-0.098,0.852-0.098,1.326
	c0,0.461,0.033,0.896,0.098,1.301c0.065,0.403,0.167,0.758,0.308,1.06c0.14,0.302,0.315,0.54,0.525,0.713
	c0.21,0.172,0.461,0.257,0.752,0.257c0.29,0,0.543-0.085,0.752-0.257c0.21-0.173,0.389-0.408,0.534-0.705
	c0.146-0.296,0.253-0.646,0.324-1.051C93.499,51.258,93.533,50.818,93.533,50.346z"/>
<path d="M101.164,54.355V49.18c0-0.246-0.014-0.498-0.04-0.753c-0.026-0.252-0.086-0.483-0.178-0.694
	c-0.091-0.209-0.222-0.381-0.388-0.518c-0.167-0.135-0.385-0.201-0.654-0.201c-0.271,0-0.51,0.072-0.721,0.219
	c-0.211,0.146-0.389,0.346-0.533,0.597c-0.146,0.255-0.26,0.546-0.34,0.876c-0.081,0.327-0.121,0.671-0.121,1.025v4.625h-1.068v-6
	c0-0.17-0.002-0.358-0.008-0.558c-0.006-0.198-0.011-0.396-0.018-0.583c-0.005-0.188-0.01-0.359-0.015-0.517
	c-0.006-0.157-0.015-0.279-0.025-0.365h1.036c0.022,0.205,0.036,0.454,0.048,0.745c0.011,0.29,0.017,0.564,0.017,0.824h0.032
	c0.151-0.541,0.398-0.979,0.744-1.317c0.345-0.34,0.775-0.51,1.292-0.51c0.433,0,0.778,0.092,1.043,0.274
	c0.265,0.184,0.467,0.424,0.607,0.721s0.233,0.632,0.283,1.002c0.049,0.371,0.072,0.74,0.072,1.107v5.176H101.164L101.164,54.355z"
	/>
<path d="M105.24,50.57c0,0.44,0.037,0.85,0.113,1.221c0.075,0.371,0.187,0.695,0.332,0.971c0.146,0.276,0.33,0.492,0.552,0.646
	c0.223,0.156,0.485,0.234,0.789,0.234c0.39,0,0.704-0.117,0.941-0.354c0.237-0.237,0.423-0.522,0.553-0.856l0.809,0.469
	c-0.194,0.484-0.482,0.894-0.864,1.222c-0.384,0.328-0.871,0.492-1.464,0.492c-0.896,0-1.591-0.376-2.086-1.132
	c-0.496-0.756-0.744-1.795-0.744-3.119c0-0.627,0.065-1.204,0.193-1.731c0.129-0.526,0.315-0.981,0.557-1.356
	c0.241-0.379,0.538-0.674,0.888-0.881c0.348-0.211,0.737-0.316,1.168-0.316c0.473,0,0.873,0.104,1.201,0.309
	c0.328,0.203,0.594,0.482,0.798,0.84c0.205,0.355,0.352,0.771,0.443,1.246c0.091,0.473,0.138,0.98,0.138,1.521v0.581h-4.317V50.57z
	 M108.489,49.684c0-0.811-0.124-1.461-0.372-1.947c-0.249-0.49-0.639-0.736-1.17-0.736c-0.315,0-0.577,0.096-0.788,0.282
	c-0.211,0.188-0.385,0.422-0.521,0.694c-0.135,0.275-0.232,0.57-0.292,0.883c-0.061,0.313-0.089,0.589-0.089,0.824H108.489
	L108.489,49.684z"/>
<path d="M113.325,46.562c0.312-0.313,0.668-0.471,1.066-0.471c0.086,0,0.151,0.008,0.194,0.02l-0.031,1.098
	c-0.043-0.011-0.084-0.02-0.121-0.021c-0.038-0.008-0.084-0.01-0.137-0.01c-0.271,0-0.51,0.092-0.721,0.276
	c-0.21,0.183-0.386,0.419-0.526,0.71c-0.14,0.291-0.245,0.624-0.315,0.995c-0.069,0.37-0.105,0.739-0.105,1.106v4.092h-1.066v-6
	c0-0.17-0.003-0.357-0.008-0.558c-0.006-0.198-0.012-0.394-0.017-0.582c-0.006-0.188-0.012-0.36-0.017-0.518
	c-0.006-0.157-0.014-0.277-0.023-0.364h1.034c0.022,0.204,0.038,0.46,0.048,0.768c0.013,0.309,0.018,0.635,0.018,0.979h0.031
	C112.78,47.38,113.013,46.874,113.325,46.562z"/>
<path d="M124.596,54.355l-1.034-1.568c-0.109,0.247-0.238,0.484-0.389,0.712c-0.149,0.228-0.329,0.422-0.534,0.589
	c-0.204,0.169-0.438,0.303-0.703,0.398c-0.265,0.098-0.563,0.146-0.897,0.146c-0.798,0-1.441-0.284-1.932-0.856
	c-0.491-0.572-0.736-1.375-0.736-2.409c0-0.409,0.052-0.782,0.153-1.115c0.103-0.333,0.24-0.64,0.413-0.913
	c0.172-0.275,0.377-0.523,0.614-0.745c0.237-0.221,0.496-0.422,0.775-0.604c-0.366-0.551-0.614-1.027-0.743-1.432
	c-0.129-0.406-0.194-0.826-0.194-1.27c0-0.83,0.215-1.484,0.646-1.965c0.432-0.479,0.982-0.721,1.649-0.721
	c0.324,0,0.617,0.061,0.882,0.178c0.265,0.119,0.491,0.287,0.679,0.502c0.188,0.218,0.336,0.479,0.444,0.783
	c0.109,0.309,0.161,0.645,0.161,1.012c0,0.377-0.059,0.718-0.177,1.02c-0.118,0.303-0.278,0.579-0.478,0.834
	c-0.199,0.252-0.434,0.481-0.704,0.688c-0.27,0.203-0.549,0.402-0.841,0.598l1.827,2.732l1.003-2.732h1.1l-1.472,3.557l1.778,2.59
	h-1.291L124.596,54.355L124.596,54.355z M120.811,48.729c-0.183,0.129-0.361,0.271-0.533,0.429
	c-0.173,0.155-0.324,0.338-0.454,0.548c-0.129,0.211-0.233,0.445-0.314,0.705c-0.081,0.259-0.121,0.549-0.121,0.871
	c0,0.744,0.164,1.328,0.493,1.748c0.329,0.419,0.752,0.631,1.269,0.631c0.227,0,0.436-0.049,0.624-0.146
	c0.188-0.096,0.361-0.226,0.517-0.38c0.156-0.155,0.291-0.337,0.405-0.543c0.112-0.204,0.207-0.414,0.282-0.631L120.811,48.729z
	 M122.816,45.154c0-0.52-0.101-0.924-0.3-1.223c-0.199-0.295-0.482-0.445-0.849-0.445s-0.666,0.166-0.897,0.496
	c-0.231,0.328-0.348,0.752-0.348,1.271c0,0.419,0.06,0.796,0.179,1.131c0.117,0.334,0.317,0.718,0.598,1.148
	c0.452-0.292,0.835-0.624,1.147-0.994C122.659,46.166,122.816,45.704,122.816,45.154z"/>
<path d="M133.683,54.355c-0.012-0.086-0.021-0.195-0.024-0.324c-0.006-0.129-0.012-0.268-0.017-0.413s-0.007-0.284-0.007-0.42
	c0-0.134,0-0.25,0-0.347h-0.033c-0.27,1.143-0.917,1.713-1.94,1.713c-0.227,0-0.453-0.045-0.68-0.129
	c-0.227-0.088-0.43-0.228-0.614-0.42c-0.184-0.195-0.333-0.438-0.453-0.736c-0.119-0.295-0.178-0.654-0.178-1.073
	c0-0.583,0.104-1.054,0.307-1.407c0.205-0.354,0.464-0.636,0.777-0.841c0.312-0.205,0.654-0.343,1.026-0.413
	c0.373-0.07,0.725-0.105,1.06-0.105h0.63v-0.42c0-0.701-0.128-1.213-0.388-1.537c-0.258-0.323-0.608-0.484-1.051-0.484
	c-0.301,0-0.582,0.082-0.841,0.242c-0.259,0.162-0.479,0.365-0.662,0.613l-0.566-0.662c0.247-0.354,0.571-0.631,0.971-0.824
	c0.398-0.194,0.798-0.29,1.196-0.29c0.841,0,1.44,0.274,1.795,0.823c0.355,0.552,0.533,1.354,0.533,2.41v3.33
	c0,0.108,0.003,0.242,0.01,0.406c0.005,0.159,0.01,0.325,0.016,0.492c0.006,0.167,0.014,0.322,0.024,0.469
	c0.01,0.146,0.021,0.262,0.032,0.348H133.683L133.683,54.355z M133.553,50.279h-0.646c-0.258,0-0.518,0.025-0.775,0.074
	c-0.26,0.047-0.488,0.14-0.688,0.274c-0.198,0.133-0.362,0.32-0.492,0.558c-0.129,0.235-0.195,0.545-0.195,0.922
	c0,0.56,0.124,0.966,0.372,1.211c0.247,0.248,0.518,0.371,0.81,0.371c0.301,0,0.557-0.09,0.768-0.271
	c0.21-0.186,0.377-0.417,0.502-0.697c0.123-0.279,0.212-0.588,0.267-0.921c0.054-0.333,0.08-0.657,0.08-0.972v-0.549H133.553z"/>
<path d="M139.907,47.725c-0.14-0.235-0.32-0.429-0.542-0.574c-0.221-0.146-0.487-0.217-0.8-0.217c-0.346,0-0.63,0.127-0.85,0.379
	c-0.222,0.252-0.331,0.584-0.331,0.992c0,0.434,0.108,0.745,0.323,0.94c0.216,0.194,0.54,0.372,0.971,0.532
	c0.215,0.088,0.432,0.193,0.646,0.315c0.216,0.124,0.407,0.279,0.574,0.462c0.167,0.184,0.305,0.4,0.413,0.654
	c0.107,0.251,0.16,0.557,0.16,0.914c0,0.786-0.212,1.398-0.638,1.835c-0.426,0.435-0.979,0.653-1.657,0.653
	c-0.452,0-0.867-0.105-1.246-0.314c-0.376-0.212-0.689-0.492-0.938-0.852l0.647-0.693c0.184,0.281,0.401,0.509,0.655,0.688
	c0.253,0.178,0.552,0.268,0.896,0.268c0.377,0,0.682-0.139,0.913-0.412c0.232-0.277,0.348-0.639,0.348-1.094
	c0-0.258-0.043-0.477-0.129-0.654c-0.086-0.178-0.198-0.324-0.34-0.443c-0.14-0.119-0.299-0.221-0.477-0.309
	c-0.178-0.084-0.364-0.166-0.558-0.24c-0.204-0.076-0.401-0.168-0.591-0.275c-0.188-0.108-0.359-0.247-0.509-0.42
	c-0.15-0.172-0.272-0.381-0.363-0.623c-0.093-0.242-0.139-0.536-0.139-0.881c0-0.336,0.057-0.642,0.17-0.924
	c0.113-0.279,0.271-0.52,0.477-0.72c0.205-0.196,0.438-0.354,0.703-0.468c0.265-0.113,0.553-0.17,0.865-0.17
	c0.453,0,0.844,0.09,1.173,0.267c0.328,0.179,0.595,0.406,0.801,0.687L139.907,47.725z"/>
<path d="M147.881,50.361c0,0.625-0.055,1.197-0.162,1.715c-0.107,0.515-0.27,0.964-0.485,1.342c-0.216,0.376-0.479,0.67-0.792,0.882
	c-0.313,0.209-0.679,0.313-1.1,0.313c-0.485,0-0.894-0.151-1.222-0.453c-0.328-0.301-0.558-0.693-0.687-1.18h-0.017v5.256h-1.067
	V46.334h1.035v1.439h0.031c0.129-0.496,0.346-0.902,0.646-1.221c0.302-0.318,0.728-0.478,1.278-0.478
	c0.397,0,0.757,0.108,1.074,0.323c0.316,0.216,0.585,0.513,0.801,0.891c0.215,0.377,0.38,0.827,0.493,1.35
	C147.822,49.161,147.881,49.734,147.881,50.361z M146.78,50.329c0-0.462-0.031-0.897-0.097-1.302
	c-0.066-0.405-0.168-0.758-0.308-1.061c-0.141-0.301-0.316-0.537-0.526-0.713c-0.21-0.17-0.46-0.258-0.751-0.258
	c-0.293,0-0.543,0.088-0.753,0.258c-0.209,0.176-0.389,0.412-0.533,0.713c-0.146,0.303-0.254,0.655-0.324,1.061
	c-0.069,0.404-0.105,0.84-0.105,1.302c0,0.474,0.035,0.917,0.105,1.325c0.069,0.412,0.179,0.765,0.324,1.06
	c0.145,0.298,0.326,0.531,0.542,0.706c0.215,0.172,0.463,0.256,0.744,0.256c0.29,0,0.541-0.084,0.751-0.256
	c0.21-0.175,0.386-0.408,0.526-0.706c0.14-0.295,0.241-0.647,0.308-1.06C146.748,51.246,146.78,50.803,146.78,50.329z"/>
<path d="M151.129,43.877c0,0.227-0.068,0.413-0.21,0.559c-0.142,0.145-0.308,0.217-0.5,0.217c-0.204,0-0.374-0.07-0.509-0.217
	c-0.136-0.147-0.203-0.332-0.203-0.559c0-0.215,0.067-0.398,0.203-0.549c0.135-0.152,0.305-0.229,0.509-0.229
	s0.373,0.075,0.508,0.229C151.062,43.479,151.129,43.662,151.129,43.877z M149.885,54.355v-8.021h1.066v8.021H149.885z"/>
<path d="M155.27,46.562c0.312-0.313,0.668-0.471,1.066-0.471c0.086,0,0.15,0.008,0.196,0.02l-0.033,1.098
	c-0.043-0.011-0.084-0.02-0.121-0.021c-0.037-0.008-0.084-0.01-0.138-0.01c-0.27,0-0.508,0.092-0.721,0.276
	c-0.209,0.183-0.386,0.419-0.525,0.71c-0.141,0.291-0.244,0.624-0.314,0.995c-0.07,0.37-0.104,0.739-0.104,1.106v4.092h-1.069v-6
	c0-0.17-0.002-0.357-0.006-0.558c-0.008-0.198-0.014-0.394-0.018-0.582c-0.006-0.188-0.012-0.36-0.019-0.518
	c-0.004-0.157-0.014-0.277-0.022-0.364h1.033c0.022,0.204,0.039,0.46,0.051,0.768c0.011,0.309,0.016,0.635,0.016,0.979h0.033
	C154.723,47.38,154.955,46.874,155.27,46.562z"/>
<path d="M159.117,43.877c0,0.227-0.07,0.413-0.21,0.559s-0.308,0.217-0.501,0.217c-0.205,0-0.374-0.07-0.51-0.217
	c-0.135-0.147-0.203-0.332-0.203-0.559c0-0.215,0.068-0.398,0.203-0.549c0.136-0.152,0.305-0.229,0.51-0.229
	c0.203,0,0.373,0.075,0.508,0.229C159.049,43.479,159.117,43.662,159.117,43.877z M157.873,54.355v-8.021h1.066v8.021H157.873z"/>
<path d="M165.535,54.355V49.18c0-0.246-0.014-0.498-0.039-0.753c-0.027-0.252-0.087-0.483-0.18-0.694
	c-0.09-0.209-0.221-0.381-0.387-0.518c-0.168-0.135-0.386-0.201-0.654-0.201c-0.271,0-0.51,0.072-0.721,0.219
	c-0.211,0.146-0.39,0.346-0.533,0.597c-0.146,0.255-0.26,0.546-0.342,0.876c-0.08,0.327-0.119,0.671-0.119,1.025v4.625h-1.068v-6
	c0-0.17-0.002-0.358-0.008-0.558c-0.006-0.198-0.01-0.396-0.018-0.583c-0.006-0.188-0.011-0.359-0.017-0.517
	c-0.005-0.157-0.013-0.279-0.024-0.365h1.036c0.022,0.205,0.037,0.454,0.049,0.745c0.011,0.29,0.015,0.564,0.015,0.824h0.035
	c0.15-0.541,0.397-0.979,0.744-1.317c0.346-0.34,0.774-0.51,1.293-0.51c0.432,0,0.777,0.092,1.043,0.274
	c0.264,0.184,0.465,0.424,0.604,0.721c0.142,0.297,0.235,0.632,0.284,1.002c0.048,0.371,0.072,0.74,0.072,1.107v5.176H165.535
	L165.535,54.355z"/>
<path d="M174.074,54.242c0,0.57-0.047,1.099-0.139,1.585c-0.092,0.483-0.244,0.903-0.459,1.261c-0.218,0.355-0.509,0.637-0.875,0.84
	c-0.367,0.206-0.824,0.311-1.375,0.311c-0.528,0-1.021-0.122-1.479-0.366c-0.459-0.241-0.827-0.567-1.107-0.978l0.695-0.744
	c0.214,0.332,0.486,0.603,0.814,0.808c0.328,0.206,0.699,0.308,1.108,0.308c0.354,0,0.648-0.072,0.882-0.226
	c0.231-0.151,0.412-0.36,0.541-0.63c0.129-0.271,0.221-0.59,0.275-0.955c0.053-0.367,0.081-0.771,0.081-1.212v-1.327h-0.033
	c-0.128,0.484-0.344,0.891-0.647,1.212c-0.301,0.324-0.726,0.485-1.274,0.485c-0.411,0-0.771-0.107-1.085-0.323
	c-0.312-0.215-0.576-0.515-0.791-0.897c-0.216-0.382-0.38-0.834-0.493-1.356c-0.114-0.522-0.171-1.099-0.171-1.724
	s0.055-1.196,0.161-1.715c0.108-0.518,0.269-0.962,0.478-1.332c0.211-0.373,0.476-0.666,0.793-0.873
	c0.318-0.211,0.68-0.316,1.092-0.316c0.484,0,0.896,0.148,1.236,0.443c0.34,0.297,0.568,0.688,0.688,1.174h0.05v-1.359h1.034V54.242
	L174.074,54.242z M173.04,50.346c0-0.464-0.035-0.9-0.106-1.312c-0.068-0.409-0.178-0.767-0.322-1.067
	c-0.146-0.301-0.326-0.539-0.543-0.712c-0.215-0.172-0.463-0.258-0.743-0.258c-0.291,0-0.542,0.086-0.753,0.258
	c-0.209,0.173-0.385,0.407-0.524,0.703c-0.14,0.298-0.241,0.649-0.308,1.062c-0.065,0.408-0.098,0.852-0.098,1.326
	c0,0.461,0.031,0.896,0.098,1.301c0.064,0.403,0.168,0.758,0.308,1.06s0.315,0.54,0.524,0.713c0.211,0.172,0.461,0.257,0.753,0.257
	c0.291,0,0.542-0.085,0.752-0.257c0.211-0.173,0.388-0.408,0.534-0.705c0.146-0.296,0.252-0.646,0.322-1.051
	S173.04,50.818,173.04,50.346z"/>
<path d="M183.564,54.355v-1.439h-0.031c-0.129,0.484-0.346,0.891-0.646,1.213c-0.302,0.322-0.727,0.484-1.277,0.484
	c-0.41,0-0.771-0.107-1.082-0.322c-0.313-0.215-0.578-0.518-0.793-0.898c-0.217-0.381-0.381-0.836-0.493-1.356
	c-0.113-0.522-0.169-1.097-0.169-1.724c0-0.625,0.053-1.196,0.16-1.715c0.107-0.517,0.267-0.961,0.479-1.332
	c0.209-0.373,0.473-0.664,0.791-0.873c0.318-0.211,0.682-0.315,1.092-0.315c0.485,0,0.896,0.147,1.229,0.442
	c0.335,0.297,0.562,0.688,0.681,1.172h0.031V42.13h1.067v12.226H183.564L183.564,54.355z M183.564,50.346
	c0-0.476-0.035-0.918-0.104-1.326c-0.071-0.41-0.178-0.764-0.323-1.062c-0.146-0.296-0.326-0.53-0.544-0.703
	c-0.215-0.172-0.462-0.258-0.741-0.258c-0.291,0-0.543,0.086-0.754,0.258c-0.209,0.173-0.385,0.407-0.524,0.703
	c-0.142,0.298-0.241,0.649-0.308,1.062c-0.064,0.408-0.098,0.852-0.098,1.326c0,0.461,0.032,0.896,0.098,1.301
	c0.063,0.403,0.166,0.758,0.308,1.06c0.141,0.302,0.315,0.54,0.524,0.713c0.211,0.172,0.461,0.257,0.754,0.257
	c0.291,0,0.543-0.085,0.75-0.257c0.211-0.173,0.391-0.411,0.535-0.713c0.146-0.302,0.252-0.655,0.323-1.06
	C183.529,51.242,183.564,50.809,183.564,50.346z"/>
<path d="M187.673,50.57c0,0.44,0.037,0.85,0.113,1.221c0.075,0.371,0.187,0.695,0.332,0.971c0.146,0.276,0.33,0.492,0.554,0.646
	c0.223,0.156,0.482,0.234,0.787,0.234c0.391,0,0.703-0.117,0.941-0.354c0.24-0.237,0.423-0.522,0.552-0.856l0.81,0.469
	c-0.193,0.484-0.482,0.894-0.865,1.222c-0.381,0.328-0.869,0.492-1.463,0.492c-0.896,0-1.591-0.376-2.086-1.132
	c-0.496-0.756-0.744-1.795-0.744-3.119c0-0.627,0.064-1.204,0.193-1.731c0.13-0.526,0.314-0.981,0.557-1.356
	c0.242-0.379,0.539-0.674,0.889-0.881c0.349-0.211,0.738-0.316,1.168-0.316c0.473,0,0.873,0.104,1.199,0.309
	c0.328,0.203,0.595,0.482,0.8,0.84c0.204,0.355,0.353,0.771,0.444,1.246c0.09,0.475,0.137,0.98,0.137,1.521v0.581h-4.317V50.57z
	 M190.924,49.684c0-0.811-0.126-1.461-0.375-1.947C190.3,47.246,189.91,47,189.379,47c-0.312,0-0.576,0.096-0.787,0.282
	c-0.211,0.188-0.386,0.422-0.521,0.694c-0.135,0.275-0.231,0.57-0.291,0.883c-0.059,0.313-0.088,0.589-0.088,0.824H190.924
	L190.924,49.684z"/>
<path d="M196.37,54.355h-1.261l-2.149-8.021h1.131l1.665,6.889h0.033l1.584-6.889h1.102L196.37,54.355z"/>
<path d="M200.576,50.57c0,0.44,0.035,0.85,0.113,1.221c0.072,0.371,0.187,0.695,0.332,0.971c0.146,0.276,0.328,0.492,0.552,0.646
	c0.224,0.156,0.485,0.234,0.788,0.234c0.39,0,0.705-0.117,0.941-0.354c0.238-0.237,0.424-0.522,0.553-0.856l0.81,0.469
	c-0.194,0.484-0.483,0.894-0.865,1.222c-0.383,0.328-0.87,0.492-1.464,0.492c-0.896,0-1.592-0.376-2.086-1.132
	c-0.496-0.756-0.743-1.795-0.743-3.119c0-0.627,0.063-1.204,0.194-1.731c0.129-0.526,0.312-0.981,0.556-1.356
	c0.241-0.379,0.537-0.674,0.886-0.881c0.352-0.211,0.739-0.316,1.17-0.316c0.474,0,0.873,0.104,1.201,0.309
	c0.327,0.203,0.594,0.482,0.799,0.84c0.203,0.355,0.353,0.771,0.442,1.246c0.091,0.473,0.138,0.98,0.138,1.521v0.581h-4.316V50.57z
	 M203.825,49.684c0-0.811-0.123-1.461-0.372-1.947c-0.25-0.491-0.641-0.736-1.171-0.736c-0.314,0-0.577,0.096-0.787,0.282
	c-0.211,0.188-0.386,0.422-0.521,0.694c-0.137,0.275-0.233,0.57-0.293,0.883c-0.062,0.313-0.09,0.589-0.09,0.824H203.825
	L203.825,49.684z"/>
<path d="M206.833,54.355V42.13h1.067v12.226H206.833L206.833,54.355z"/>
<path d="M215.5,50.361c0,0.636-0.064,1.212-0.193,1.729c-0.13,0.519-0.313,0.964-0.551,1.341c-0.236,0.379-0.531,0.67-0.88,0.875
	c-0.351,0.202-0.742,0.308-1.173,0.308c-0.432,0-0.818-0.104-1.164-0.308c-0.346-0.205-0.639-0.496-0.881-0.875
	c-0.242-0.377-0.43-0.822-0.559-1.341c-0.131-0.518-0.195-1.094-0.195-1.729c0-0.637,0.062-1.219,0.188-1.747
	c0.123-0.526,0.305-0.98,0.542-1.359c0.237-0.375,0.531-0.667,0.882-0.871c0.352-0.204,0.746-0.308,1.189-0.308
	c0.432,0,0.82,0.104,1.171,0.308s0.644,0.496,0.882,0.871c0.236,0.379,0.42,0.833,0.551,1.359
	C215.436,49.145,215.5,49.727,215.5,50.361z M214.4,50.337c0-0.474-0.034-0.914-0.105-1.321c-0.07-0.41-0.175-0.762-0.314-1.06
	c-0.142-0.294-0.315-0.526-0.525-0.701c-0.21-0.17-0.46-0.258-0.751-0.258c-0.293,0-0.547,0.088-0.763,0.258
	c-0.215,0.175-0.392,0.407-0.524,0.701c-0.136,0.298-0.237,0.647-0.308,1.06c-0.069,0.407-0.105,0.849-0.105,1.321
	c0,0.474,0.034,0.909,0.105,1.308c0.07,0.398,0.172,0.748,0.308,1.049c0.134,0.301,0.31,0.535,0.524,0.701
	c0.216,0.168,0.47,0.25,0.763,0.25c0.291,0,0.543-0.082,0.76-0.25c0.216-0.166,0.392-0.4,0.524-0.701
	c0.136-0.301,0.236-0.649,0.308-1.049C214.366,51.246,214.4,50.811,214.4,50.337z"/>
<path d="M223.034,50.361c0,0.625-0.054,1.197-0.16,1.715c-0.108,0.515-0.271,0.964-0.485,1.342c-0.216,0.376-0.479,0.67-0.791,0.882
	c-0.313,0.209-0.68,0.313-1.102,0.313c-0.484,0-0.893-0.151-1.221-0.453c-0.328-0.301-0.559-0.693-0.687-1.18h-0.017v5.256h-1.067
	V46.334h1.033v1.439h0.032c0.13-0.496,0.346-0.902,0.646-1.221c0.303-0.318,0.729-0.478,1.278-0.478
	c0.397,0,0.758,0.108,1.073,0.323c0.318,0.216,0.584,0.513,0.801,0.891c0.218,0.377,0.382,0.827,0.494,1.35
	C222.979,49.161,223.034,49.734,223.034,50.361z M221.936,50.329c0-0.462-0.031-0.897-0.097-1.302s-0.168-0.758-0.308-1.061
	c-0.143-0.301-0.315-0.537-0.525-0.713c-0.211-0.17-0.461-0.258-0.752-0.258s-0.543,0.088-0.752,0.258
	c-0.211,0.176-0.389,0.412-0.534,0.713c-0.146,0.303-0.253,0.655-0.323,1.061c-0.069,0.404-0.105,0.84-0.105,1.302
	c0,0.474,0.034,0.917,0.105,1.325c0.069,0.412,0.179,0.765,0.323,1.06c0.146,0.298,0.326,0.531,0.541,0.706
	c0.216,0.172,0.464,0.256,0.745,0.256c0.29,0,0.541-0.084,0.752-0.256c0.21-0.175,0.385-0.408,0.525-0.706
	c0.14-0.295,0.242-0.647,0.308-1.06C221.902,51.246,221.936,50.803,221.936,50.329z"/>
<path d="M225.623,50.57c0,0.44,0.037,0.85,0.111,1.221c0.076,0.371,0.188,0.695,0.334,0.971c0.146,0.276,0.328,0.492,0.553,0.646
	c0.222,0.156,0.484,0.234,0.788,0.234c0.39,0,0.704-0.117,0.942-0.354c0.237-0.237,0.422-0.522,0.551-0.856l0.81,0.469
	c-0.192,0.484-0.481,0.894-0.864,1.222s-0.871,0.492-1.465,0.492c-0.895,0-1.59-0.376-2.086-1.132
	c-0.495-0.756-0.742-1.795-0.742-3.119c0-0.627,0.064-1.204,0.193-1.731c0.129-0.526,0.314-0.981,0.555-1.356
	c0.242-0.379,0.539-0.674,0.889-0.881c0.35-0.211,0.738-0.316,1.168-0.316c0.473,0,0.875,0.104,1.201,0.309
	c0.328,0.203,0.594,0.482,0.799,0.84c0.205,0.355,0.354,0.771,0.442,1.246c0.093,0.475,0.138,0.98,0.138,1.521v0.581h-4.316V50.57z
	 M228.872,49.684c0-0.811-0.124-1.461-0.374-1.947c-0.248-0.49-0.639-0.736-1.169-0.736c-0.313,0-0.578,0.096-0.788,0.282
	c-0.212,0.188-0.385,0.422-0.521,0.694c-0.136,0.275-0.232,0.57-0.291,0.883c-0.061,0.313-0.09,0.589-0.09,0.824H228.872
	L228.872,49.684z"/>
<path d="M233.707,46.562c0.312-0.313,0.669-0.471,1.068-0.471c0.086,0,0.148,0.008,0.193,0.02l-0.031,1.098
	c-0.043-0.011-0.084-0.02-0.121-0.021c-0.039-0.008-0.084-0.01-0.139-0.01c-0.271,0-0.51,0.092-0.72,0.276
	c-0.211,0.183-0.386,0.419-0.524,0.71c-0.142,0.291-0.246,0.624-0.316,0.995c-0.07,0.37-0.104,0.739-0.104,1.106v4.092h-1.068v-6
	c0-0.17-0.004-0.357-0.01-0.558c-0.006-0.198-0.011-0.394-0.016-0.582c-0.006-0.188-0.012-0.36-0.016-0.518
	c-0.006-0.157-0.016-0.277-0.024-0.364h1.033c0.022,0.204,0.039,0.46,0.049,0.768c0.013,0.309,0.017,0.635,0.017,0.979h0.033
	C233.162,47.38,233.396,46.874,233.707,46.562z"/>
<path fill="#CCDD59" d="M59.138,35.301v-22.15h3.754v22.15H59.138z"/>
<path fill="#CCDD59" d="M67.741,13.151h2.847l-1.812,7.758h-2.503L67.741,13.151z"/>
<path fill="#CCDD59" d="M89.17,35.301l0.062-17.02h-0.094l-4.442,17.02h-2.94l-4.349-17.02h-0.094l0.062,17.02h-3.409v-22.15h5.036
	l4.254,16.203h0.125l4.162-16.203h5.285v22.15H89.17z"/>
<path fill="#CCDD59" d="M117.638,24.258c0,3.504-0.736,6.219-2.206,8.148c-1.47,1.929-3.634,2.895-6.491,2.895h-5.537v-22.15h5.568
	c2.836,0,4.99,0.975,6.46,2.924C116.902,18.026,117.638,20.752,117.638,24.258z M113.882,24.258c0-1.314-0.119-2.463-0.357-3.441
	c-0.242-0.98-0.578-1.793-1.018-2.443c-0.438-0.645-0.959-1.129-1.563-1.451c-0.606-0.324-1.263-0.484-1.972-0.484h-1.783v15.578
	h1.783c0.709,0,1.365-0.16,1.972-0.486c0.604-0.324,1.126-0.809,1.563-1.453c0.439-0.646,0.775-1.457,1.018-2.426
	C113.763,26.682,113.882,25.551,113.882,24.258z"/>
<path fill="#CCDD59" d="M136.19,24.196c0,1.75-0.184,3.342-0.548,4.768c-0.365,1.43-0.893,2.656-1.58,3.678
	c-0.688,1.023-1.528,1.816-2.518,2.379c-0.992,0.561-2.102,0.844-3.332,0.844c-1.252,0-2.367-0.283-3.348-0.844
	c-0.98-0.562-1.814-1.355-2.503-2.379c-0.688-1.021-1.216-2.248-1.579-3.678c-0.366-1.426-0.549-3.018-0.549-4.768
	c0-1.752,0.178-3.34,0.533-4.758c0.354-1.418,0.876-2.637,1.564-3.66c0.688-1.02,1.527-1.809,2.518-2.361
	c0.989-0.553,2.111-0.828,3.363-0.828c1.23,0,2.34,0.275,3.332,0.828c0.989,0.553,1.83,1.342,2.518,2.361
	c0.688,1.023,1.215,2.242,1.58,3.66C136.006,20.856,136.19,22.444,136.19,24.196z M132.31,24.196c0-1.129-0.09-2.188-0.266-3.176
	c-0.178-0.992-0.438-1.848-0.783-2.566c-0.344-0.719-0.771-1.287-1.281-1.707c-0.512-0.414-1.102-0.625-1.768-0.625
	c-0.689,0-1.289,0.211-1.799,0.625c-0.512,0.42-0.939,0.988-1.283,1.707c-0.344,0.719-0.6,1.574-0.768,2.566
	c-0.166,0.988-0.248,2.047-0.248,3.176c0,1.123,0.082,2.184,0.248,3.174c0.168,0.988,0.424,1.852,0.768,2.58
	c0.344,0.73,0.771,1.303,1.283,1.723c0.51,0.418,1.109,0.625,1.799,0.625c0.688,0,1.287-0.207,1.798-0.625
	c0.511-0.42,0.938-0.992,1.282-1.723c0.346-0.729,0.6-1.592,0.768-2.58C132.228,26.379,132.31,25.319,132.31,24.196z"/>
<path fill="#CCDD59" d="M148.858,35.301l-3.44-9.449h-2.096v9.449h-3.629v-22.15h6.318c0.918,0,1.764,0.119,2.535,0.359
	c0.771,0.238,1.434,0.621,1.986,1.141c0.551,0.523,0.985,1.18,1.298,1.971c0.312,0.793,0.47,1.744,0.47,2.85
	c0,0.855-0.108,1.609-0.329,2.266c-0.219,0.658-0.496,1.217-0.828,1.674c-0.334,0.461-0.704,0.828-1.11,1.113
	c-0.406,0.279-0.807,0.473-1.203,0.576l3.974,10.201L148.858,35.301L148.858,35.301z M148.609,19.657
	c0-0.668-0.095-1.219-0.282-1.656c-0.188-0.439-0.433-0.783-0.735-1.033c-0.301-0.25-0.641-0.428-1.016-0.529
	c-0.377-0.105-0.752-0.16-1.127-0.16h-2.127v6.82h2.127c0.918,0,1.674-0.285,2.269-0.859
	C148.31,21.665,148.609,20.805,148.609,19.657z"/>
<path fill="#CCDD59" d="M165.346,35.301l-1.097-4.693h-5.817l-1.127,4.693h-3.755l5.507-22.15h4.787l5.411,22.15H165.346z
	 M161.436,16.686h-0.125l-2.41,10.98h4.882L161.436,16.686z"/>
<path fill="#CCDD59" d="M187.729,35.049c-0.905,0.543-2.051,0.814-3.426,0.814c-1.253,0-2.384-0.291-3.396-0.875
	c-1.011-0.584-1.866-1.394-2.563-2.424c-0.699-1.035-1.242-2.26-1.627-3.68c-0.388-1.416-0.578-2.971-0.578-4.662
	c0-1.688,0.19-3.244,0.578-4.674c0.385-1.428,0.934-2.662,1.645-3.691c0.707-1.033,1.566-1.836,2.578-2.41
	c1.014-0.574,2.134-0.859,3.363-0.859c1.271,0,2.387,0.234,3.348,0.703c0.959,0.469,1.74,1.143,2.347,2.018l-2.158,2.629
	c-0.854-1.232-1.96-1.848-3.315-1.848c-0.75,0-1.405,0.215-1.971,0.643c-0.562,0.428-1.031,1.008-1.406,1.736
	c-0.375,0.73-0.655,1.59-0.847,2.58c-0.188,0.99-0.28,2.049-0.28,3.174c0,1.107,0.096,2.156,0.28,3.146
	c0.189,0.988,0.472,1.852,0.847,2.58c0.375,0.73,0.849,1.311,1.422,1.738c0.574,0.427,1.246,0.641,2.02,0.641
	c0.729,0,1.36-0.189,1.893-0.564c0.533-0.375,0.978-0.832,1.33-1.375l2.158,2.533C189.38,33.797,188.635,34.508,187.729,35.049z"/>
<path fill="#CCDD59" d="M202.98,35.301v-9.824h-6.633v9.824h-3.726v-22.15h3.726v8.979h6.633v-8.979h3.723v22.15H202.98z"/>
<path fill="#CCDD59" d="M220.811,35.301l-1.095-4.693h-5.819l-1.125,4.693h-3.756l5.506-22.15h4.787l5.412,22.15H220.811z
	 M216.9,16.686h-0.125l-2.408,10.98h4.879L216.9,16.686z"/>
<path fill="#CCDD59" d="M236.734,35.301l-6.289-15.645h-0.092l0.062,15.645h-3.379v-22.15h4.282l6.229,15.734h0.096l-0.031-15.734
	h3.254v22.15H236.734z"/>
</svg>
