<?xml version="1.0" encoding="utf-8"?>
<!-- Generator: Adobe Illustrator 14.0.0, SVG Export Plug-In . SVG Version: 6.00 Build 43363)  -->
<!DOCTYPE svg PUBLIC "-//W3C//DTD SVG 1.1//EN" "http://www.w3.org/Graphics/SVG/1.1/DTD/svg11.dtd">
<svg version="1.1" id="Layer_3" xmlns="http://www.w3.org/2000/svg" xmlns:xlink="http://www.w3.org/1999/xlink" x="0px" y="0px"
	 width="57.6px" height="72px" viewBox="25.347 -6.9 57.6 72" enable-background="new 25.347 -6.9 57.6 72" xml:space="preserve">
<path fill="none" stroke="#CCDD59" d="M42.741,43.936c-1.239-2.736-4.398-11.27-4.398-11.27l-0.385-2.83l-0.645-2.19l-1.932-3.857
	l-3.348-9.527c0,0,0.13-2.316,0.645-2.96c0.516-0.646,2.188,0.771,2.188,0.771l4.118,8.88l2.315,2.961
	c0.921,0.896,1.289-0.127,1.289-0.127v-1.675c0,0-2.832-17.124-2.832-18.152c0-1.029,1.935-1.802,1.935-1.802
	c0.514-0.516,1.929,1.417,1.929,1.417l2.06,13.129l1.031,3.479c0.635,1.284,1.544,0.515,1.544,0.515l0.257-1.159l-0.257-5.149
	L47.354,3.576c0,0,0.261-3.348,0.517-4.119c0.258-0.773,1.803-0.516,1.803-0.516l1.804,1.802c1.028,0.646,1.804,18.41,1.804,18.41
	c0.127,0.771,0.643,1.931,1.544,1.801c0.9-0.129,1.287-2.444,1.287-2.444s0-11.071,0-11.973c0-0.9,0.516-5.15,1.158-5.664
	c0.644-0.516,0.387-0.258,2.311,0c1.924,0.258,2.325,5.535,2.325,5.535s-0.774,15.062-0.904,20.094
	c-0.129,5.036,2.188,6.428,2.574,6.428s1.803-1.418,2.317-2.062c0.517-0.645,1.287-3.861,2.024-5.922
	c0.733-2.061,1.962-2.958,1.962-2.958l3.354-1.803c3.736-1.03,3.603,2.959,1.799,4.375c-1.805,1.416-4.764,9.27-4.764,9.27
	c-1.804,7.471-5.404,10.301-5.404,10.301s-3.736,3.725-7.643,4.521c-3.902,0.797-6.121,0.354-8.957,0.076
	C48.265,48.727,43.875,46.444,42.741,43.936z"/>
<path fill="none" stroke="#FFFFFF" stroke-width="1.5" d="M51.63,0.98l0.777,4.889l0.568,7.568l0.303,5.717
	c0.128,0.771,0.644,1.931,1.545,1.801c0.9-0.129,1.287-2.444,1.287-2.444v-7.51l0.207-6.588c0,0,0.332-4.07,1.645-3.826
	c1.311,0.244,2.275,0.606,2.275,0.606S60.96,2,61.229,2.944c0.271,0.945,0.676,2.204,0.653,3.243s-0.476,10.404-0.476,10.404
	l-0.283,5.489l-0.122,4.422c-0.129,5.036,2.188,6.428,2.574,6.428s1.803-1.418,2.317-2.062c0.517-0.645,1.287-3.861,2.024-5.922
	c0.733-2.061,1.962-2.958,1.962-2.958l3.354-1.803c3.736-1.03,3.603,2.959,1.799,4.375c-1.805,1.416-4.764,9.27-4.764,9.27
	c-1.804,7.471-5.404,10.301-5.404,10.301s-3.736,3.725-7.643,4.521c-3.902,0.797-6.121,0.354-8.957,0.076
	c-0.002-0.002-4.392-2.285-5.524-4.793c-1.239-2.736-4.398-11.271-4.398-11.271l-0.385-2.828l-0.646-2.19l-1.931-3.86
	c0,0-0.991-5.632,3.604-2.836l2.314,2.961c0.922,0.897,1.289-0.127,1.289-0.127V22.11l-0.842-3.6c0,0-0.51-5.186,3.932-1.808
	l1.031,3.479c0.635,1.284,1.544,0.515,1.544,0.515l0.257-1.159l-0.257-5.149l-0.649-7.793l-0.235-2.821l0.456-4.158
	C47.826-0.384,48.802-2.898,51.63,0.98z"/>
<text transform="matrix(1 0 0 1 34.3579 62.0122)" fill="#CCDD59" font-family="'PTSans-Narrow'" font-size="14">POCKET</text>
</svg>
