<?xml version="1.0" encoding="utf-8"?>
<!-- Generator: Adobe Illustrator 14.0.0, SVG Export Plug-In . SVG Version: 6.00 Build 43363)  -->
<!DOCTYPE svg PUBLIC "-//W3C//DTD SVG 1.1//EN" "http://www.w3.org/Graphics/SVG/1.1/DTD/svg11.dtd">
<svg version="1.1" id="Layer_1" xmlns="http://www.w3.org/2000/svg" xmlns:xlink="http://www.w3.org/1999/xlink" x="0px" y="0px"
	 width="166.918px" height="58.2px" viewBox="0 0 166.918 58.2" enable-background="new 0 0 166.918 58.2" xml:space="preserve">
<polygon opacity="0.4" fill="#AAD5C4" points="0,58.2 147.5,58.2 166.918,29.1 147.5,0 0,0 "/>
<path fill="#FFFFFF" d="M138.429,51.359h4.946L130.164,6.841h-2.566l-13.212,44.518h4.634l3.494-12.272h12.357L138.429,51.359z
	 M127.444,21.535l1.214-6.742h0.129l1.154,6.615l3.807,13.609h-9.986L127.444,21.535z"/>
<g>
	<text transform="matrix(1 0 0 1 7.5996 51.4341)" fill="#CCDD59" font-family="'PTSans-Narrow'" font-size="14">EDGE</text>
</g>
<path fill="none" stroke="#CCDD59" d="M65.324,49.034c-1.239-2.737-4.398-11.271-4.398-11.271l-0.385-2.828l-0.645-2.19l-1.931-3.86
	l-3.348-9.526c0,0,0.13-2.316,0.645-2.96c0.516-0.646,2.188,0.771,2.188,0.771l4.119,8.88l2.315,2.96
	c0.921,0.896,1.289-0.127,1.289-0.127v-1.675c0,0-2.832-17.124-2.832-18.152c0-1.029,1.934-1.802,1.934-1.802
	c0.514-0.516,1.929,1.417,1.929,1.417l2.06,13.129l1.031,3.479c0.635,1.283,1.544,0.515,1.544,0.515l0.257-1.159l-0.257-5.149
	L69.937,8.674c0,0,0.26-3.348,0.516-4.119c0.258-0.773,1.803-0.516,1.803-0.516l1.803,1.802c1.029,0.646,1.803,18.41,1.803,18.41
	c0.127,0.771,0.643,1.931,1.544,1.801c0.9-0.129,1.287-2.444,1.287-2.444s0-11.071,0-11.973c0-0.9,0.516-5.15,1.158-5.664
	c0.644-0.516,0.387-0.258,2.311,0s2.325,5.535,2.325,5.535s-0.772,15.062-0.902,20.093c-0.129,5.035,2.188,6.429,2.574,6.429
	s1.803-1.418,2.317-2.062c0.517-0.645,1.287-3.863,2.026-5.922c0.735-2.061,1.962-2.959,1.962-2.959l3.354-1.804
	c3.736-1.03,3.602,2.96,1.798,4.376s-4.763,9.27-4.763,9.27c-1.803,7.471-5.405,10.301-5.405,10.301s-3.736,3.724-7.641,4.521
	c-3.903,0.797-6.121,0.355-8.958,0.076C70.848,53.824,66.458,51.542,65.324,49.034z"/>
<path fill="none" stroke="#FFFFFF" d="M83.585,31.599c-0.129,5.035,2.188,6.429,2.574,6.429s1.803-1.418,2.317-2.062
	c0.517-0.645,1.287-3.863,2.026-5.922c0.735-2.061,1.962-2.959,1.962-2.959l3.354-1.804c3.736-1.03,3.602,2.96,1.798,4.376
	s-4.763,9.27-4.763,9.27c-1.803,7.471-5.405,10.301-5.405,10.301s-3.736,3.724-7.641,4.521c-3.903,0.797-6.121,0.355-8.958,0.076
	c-0.001-0.002-4.391-2.283-5.525-4.792c-1.239-2.737-4.398-11.271-4.398-11.271l-0.385-2.828l-0.645-2.19l-1.931-3.86
	c0,0-0.992-5.631,3.604-2.835l2.315,2.96c0.921,0.896,1.289-0.127,1.289-0.127v-1.675l-0.842-3.6c0,0-0.51-5.186,3.933-1.808
	l1.031,3.479c0.635,1.283,1.544,0.515,1.544,0.515l0.257-1.159l-0.257-5.149c0,0,1.493-4.558,4.243-0.808l0.781,5.573
	c0.127,0.771,0.643,1.931,1.544,1.801c0.9-0.129,1.287-2.444,1.287-2.444l1.138-6.411c0,0,1.75-2.52,3-0.645
	c1.25,1.875,1.375,4.125,1.375,4.125l-0.5,6.5L83.585,31.599z"/>
</svg>
