<?xml version="1.0" encoding="utf-8"?>
<!-- Generator: Adobe Illustrator 14.0.0, SVG Export Plug-In . SVG Version: 6.00 Build 43363)  -->
<!DOCTYPE svg PUBLIC "-//W3C//DTD SVG 1.1//EN" "http://www.w3.org/Graphics/SVG/1.1/DTD/svg11.dtd">
<svg version="1.1" id="Layer_5" xmlns="http://www.w3.org/2000/svg" xmlns:xlink="http://www.w3.org/1999/xlink" x="0px" y="0px"
	 width="166.918px" height="58.2px" viewBox="0 0 166.918 58.2" enable-background="new 0 0 166.918 58.2" xml:space="preserve">
<polygon opacity="0.4" fill="#AAD5C4" points="0,58.2 147.5,58.2 166.918,29.1 147.5,0 0,0 "/>
<polygon fill="#FFFFFF" points="115.342,6.685 135.26,6.685 135.26,11.104 120.146,11.104 120.146,26.283 134.043,26.283 
	134.043,30.702 120.146,30.702 120.146,47.096 135.58,47.096 135.58,51.515 115.342,51.515 "/>
<g>
	<text transform="matrix(1 0 0 1 7.5996 51.4575)" fill="#CCDD59" font-family="'PTSans-Narrow'" font-size="14">PINCH</text>
</g>
<path fill="none" stroke="#CCDD59" d="M65.324,48.893c-1.239-2.736-4.398-11.27-4.398-11.27l-0.385-2.829l-0.645-2.19l-1.931-3.859
	l-3.348-9.527c0,0,0.13-2.315,0.645-2.959c0.516-0.646,2.188,0.771,2.188,0.771l4.119,8.88l2.315,2.961
	c0.921,0.896,1.289-0.127,1.289-0.127v-1.676c0,0-2.832-17.123-2.832-18.151s1.934-1.802,1.934-1.802
	c0.514-0.516,1.929,1.417,1.929,1.417l2.06,13.129l1.031,3.479c0.635,1.283,1.544,0.515,1.544,0.515l0.257-1.159l-0.257-5.148
	L69.938,8.534c0,0,0.26-3.348,0.516-4.119c0.258-0.773,1.803-0.516,1.803-0.516l1.803,1.802c1.029,0.646,1.804,18.41,1.804,18.41
	c0.127,0.771,0.643,1.931,1.544,1.801c0.9-0.129,1.287-2.444,1.287-2.444s0-11.07,0-11.973c0-0.9,0.516-5.15,1.158-5.664
	c0.644-0.516,0.387-0.258,2.311,0s2.325,5.535,2.325,5.535s-0.772,15.062-0.902,20.094c-0.129,5.035,2.188,6.428,2.574,6.428
	s1.803-1.418,2.317-2.062c0.517-0.644,1.287-3.862,2.026-5.922c0.735-2.06,1.962-2.959,1.962-2.959l3.354-1.804
	c3.736-1.029,3.602,2.961,1.798,4.377s-4.763,9.27-4.763,9.27c-1.803,7.471-5.405,10.301-5.405,10.301s-3.736,3.723-7.642,4.521
	c-3.902,0.797-6.121,0.354-8.957,0.076C70.848,53.684,66.458,51.402,65.324,48.893z"/>
<path fill="none" stroke="#FFFFFF" d="M87.688,30.729c0.198,2.18,0.413,4.916,0.215,5.718c-0.193,0.801-0.598,1.109-0.935,1.298
	c-0.185,0.104-0.809,0.143-0.809,0.143c-0.386,0-2.703-1.393-2.574-6.428l0.122-4.422l0.283-5.488c0,0,0.455-9.365,0.477-10.405
	s-0.384-2.298-0.654-3.243c-0.27-0.945-0.991-1.752-0.991-1.752s-0.966-0.362-2.276-0.605c-1.312-0.244-1.644,3.826-1.644,3.826
	l-0.208,6.588v7.51c0,0-0.387,2.315-1.287,2.444c-0.901,0.13-1.417-1.03-1.544-1.801l-0.144-2.702
	c-3.174-6.445-4.762,0.302-4.762,0.302l0.139,2.784l-0.257,1.159c0,0-0.909,0.769-1.544-0.515l-1.031-3.479
	c-3.137-3.528-3.684,1.794-3.684,1.794l0.593,3.613v1.676c0,0-0.368,1.023-1.289,0.127l-2.315-2.961
	c-4.596-2.796-3.604,2.836-3.604,2.836l1.931,3.859l0.645,2.19l0.385,2.829c0,0,3.159,8.533,4.398,11.27
	c1.134,2.509,5.523,4.791,5.525,4.793c2.836,0.278,5.055,0.721,8.957-0.076c3.905-0.799,7.642-4.521,7.642-4.521
	s3.603-2.83,5.405-10.301v-0.83v-1.812c-0.092-6.489,0.678-9.272,0.678-9.272c1.039-2.044-0.521-5.719-3.476-3.21l-1.639,3.004
	C88.417,26.667,87.454,28.814,87.688,30.729z"/>
</svg>
