<?xml version="1.0" encoding="utf-8"?>
<!-- Generator: Adobe Illustrator 14.0.0, SVG Export Plug-In . SVG Version: 6.00 Build 43363)  -->
<!DOCTYPE svg PUBLIC "-//W3C//DTD SVG 1.1//EN" "http://www.w3.org/Graphics/SVG/1.1/DTD/svg11.dtd">
<svg version="1.1" id="Layer_2" xmlns="http://www.w3.org/2000/svg" xmlns:xlink="http://www.w3.org/1999/xlink" x="0px" y="0px"
	 width="57.6px" height="72px" viewBox="0 0 57.6 72" enable-background="new 0 0 57.6 72" xml:space="preserve">
<path fill="none" stroke="#CCDD59" d="M17.395,50.792c-1.239-2.736-4.398-11.27-4.398-11.27l-0.385-2.828l-0.646-2.19l-1.931-3.86
	l-3.348-9.526c0,0,0.13-2.316,0.645-2.96c0.515-0.646,2.188,0.771,2.188,0.771l4.118,8.88l2.315,2.96
	c0.921,0.897,1.289-0.127,1.289-0.127v-1.675c0,0-2.832-17.124-2.832-18.152c0-1.029,1.934-1.802,1.934-1.802
	c0.515-0.516,1.93,1.417,1.93,1.417l2.06,13.129l1.031,3.479c0.635,1.283,1.544,0.515,1.544,0.515l0.257-1.159l-0.257-5.149
	l-0.901-10.812c0,0,0.261-3.348,0.517-4.119c0.258-0.773,1.803-0.516,1.803-0.516L26.13,7.6c1.029,0.646,1.805,18.41,1.805,18.41
	c0.127,0.771,0.643,1.931,1.544,1.801c0.899-0.129,1.286-2.444,1.286-2.444s0-11.071,0-11.973c0-0.9,0.517-5.15,1.158-5.664
	c0.645-0.516,0.388-0.258,2.312,0c1.924,0.258,2.325,5.535,2.325,5.535s-0.772,15.062-0.902,20.094
	c-0.129,5.033,2.188,6.428,2.574,6.428c0.386,0,1.803-1.418,2.316-2.062c0.518-0.645,1.287-3.861,2.024-5.922
	c0.734-2.061,1.962-2.958,1.962-2.958l3.354-1.804c3.736-1.03,3.604,2.96,1.8,4.375c-1.806,1.416-4.765,9.269-4.765,9.269
	c-1.804,7.474-5.403,10.304-5.403,10.304s-3.736,3.725-7.643,4.52c-3.901,0.797-6.121,0.355-8.957,0.076
	C22.918,55.583,18.529,53.3,17.395,50.792z"/>
<path fill="none" stroke="#FFFFFF" stroke-width="1.5" d="M18.838,14.023l1.496,9.537l1.031,3.479
	c0.635,1.282,1.544,0.515,1.544,0.515l0.257-1.158l-0.257-5.15l-0.665-7.98c0,0,1.832-6.273,4.919,0.574l0.77,12.171
	c0.128,0.771,0.644,1.932,1.545,1.801c0.899-0.129,1.286-2.444,1.286-2.444s0-11.071,0-11.973c0,0,2.52-8.301,5.794-0.129
	c0,0-0.771,15.062-0.901,20.093c-0.129,5.034,2.188,6.428,2.574,6.428c0.386,0,1.803-1.416,2.315-2.062
	c0.519-0.646,1.287-3.86,2.025-5.922c0.733-2.062,1.962-2.958,1.962-2.958l3.354-1.804c3.736-1.03,3.604,2.96,1.8,4.375
	c-1.806,1.416-4.765,9.269-4.765,9.269c-1.804,7.473-5.403,10.303-5.403,10.303s-3.736,3.725-7.643,4.521
	c-3.902,0.797-6.121,0.355-8.957,0.076c-0.002-0.002-4.392-2.283-5.524-4.791c-1.239-2.738-4.398-11.271-4.398-11.271l-0.385-2.828
	l-0.646-2.188l-1.931-3.86l-2.184-6.214c0,0-1.373-5.921,2.888-2.874l2.899,6.252l2.315,2.961c0.921,0.896,1.289-0.128,1.289-0.128
	v-1.675l-2.234-13.867C15.008,15.102,15.174,9.774,18.838,14.023z"/>
<text transform="matrix(1 0 0 1 12.8967 68.9121)" fill="#CCDD59" font-family="'PTSans-Narrow'" font-size="14">SLOPE</text>
<path fill="none" stroke="#FFFFFF" stroke-width="1.5" d="M-19.85,28.703c-0.129,5.034,2.188,6.429,2.574,6.429
	s1.803-1.417,2.317-2.062c0.517-0.645,1.287-3.862,2.024-5.922c0.734-2.061,1.963-2.959,1.963-2.959l3.354-1.804
	c3.736-1.03,3.602,2.96,1.798,4.376s-4.763,9.271-4.763,9.271c-1.804,7.471-5.405,10.301-5.405,10.301s-3.736,3.725-7.641,4.52
	c-3.903,0.797-6.121,0.355-8.958,0.076c-0.001-0.002-4.392-2.283-5.525-4.791c-1.239-2.738-4.397-11.27-4.397-11.27l-0.386-2.828
	l-0.645-2.189l-1.931-3.86c0,0-0.992-5.632,3.604-2.836l2.315,2.961c0.921,0.896,1.289-0.128,1.289-0.128v-1.675l-0.843-3.601
	c0,0-0.51-5.187,3.934-1.809l1.03,3.479c0.636,1.283,1.545,0.515,1.545,0.515l0.257-1.158l-0.257-5.148c0,0,1.492-4.559,4.242-0.809
	l0.781,5.572c0.127,0.771,0.644,1.932,1.544,1.802s1.287-2.444,1.287-2.444l1.138-6.41c0,0,1.75-2.521,3-0.646
	s1.375,4.125,1.375,4.125l-0.5,6.5L-19.85,28.703z"/>
</svg>
