<?xml version="1.0" encoding="utf-8"?>
<!-- Generator: Adobe Illustrator 14.0.0, SVG Export Plug-In . SVG Version: 6.00 Build 43363)  -->
<!DOCTYPE svg PUBLIC "-//W3C//DTD SVG 1.1//EN" "http://www.w3.org/Graphics/SVG/1.1/DTD/svg11.dtd">
<svg version="1.1" id="Layer_4" xmlns="http://www.w3.org/2000/svg" xmlns:xlink="http://www.w3.org/1999/xlink" x="0px" y="0px"
	 width="166.918px" height="58.2px" viewBox="0 0 166.918 58.2" enable-background="new 0 0 166.918 58.2" xml:space="preserve">
<polygon opacity="0.4" fill="#AAD5C4" points="0,58.199 147.5,58.199 166.918,29.099 147.5,0 0,0 "/>
<path fill="#FFFFFF" d="M115.42,51.046c0.416,0.082,1.012,0.145,1.783,0.188c0.773,0.041,1.607,0.094,2.506,0.156
	c0.896,0.062,1.762,0.104,2.598,0.125c0.834,0.021,1.523,0.031,2.066,0.031c3.297,0,6.043-0.625,8.234-1.879
	c2.191-1.252,3.953-2.92,5.289-5.008s2.285-4.508,2.85-7.264c0.564-2.754,0.846-5.635,0.846-8.641c0-3.338-0.293-6.365-0.877-9.079
	c-0.586-2.713-1.545-5.04-2.881-6.98c-1.336-1.941-3.066-3.434-5.195-4.478c-2.129-1.042-4.719-1.565-7.766-1.565
	c-0.709,0-1.471,0.012-2.285,0.031c-0.812,0.021-1.639,0.043-2.473,0.062c-0.836,0.021-1.658,0.062-2.473,0.125
	c-0.814,0.063-1.557,0.157-2.223,0.282V51.046z M130.854,12.508c1.48,1.023,2.65,2.358,3.506,4.007
	c0.855,1.65,1.449,3.538,1.785,5.666c0.334,2.129,0.5,4.301,0.5,6.512c0,2.506-0.188,4.875-0.562,7.107
	c-0.377,2.232-1.014,4.195-1.91,5.885c-0.898,1.691-2.119,3.037-3.662,4.039c-1.545,1.002-3.467,1.502-5.762,1.502
	c-0.209,0-0.531-0.01-0.971-0.031c-0.438-0.02-0.896-0.041-1.377-0.062c-0.48-0.02-0.939-0.041-1.377-0.062
	c-0.438-0.02-0.742-0.053-0.908-0.094V11.287c0.25-0.042,0.574-0.083,0.971-0.126c0.396-0.041,0.824-0.082,1.283-0.125
	c0.459-0.041,0.93-0.062,1.408-0.062c0.48,0,0.93,0,1.348,0C127.461,10.974,129.371,11.485,130.854,12.508z"/>
<g>
	<text transform="matrix(1 0 0 1 7.6001 51.5425)" fill="#CCDD59" font-family="'PTSans-Narrow'" font-size="14">PALM</text>
</g>
<path fill="none" stroke="#FFFFFF" d="M65.325,48.894c-1.239-2.738-4.398-11.27-4.398-11.27l-0.385-2.83l-0.645-2.189l-1.931-3.861
	l-3.348-9.526c0,0,0.13-2.315,0.645-2.96c0.516-0.646,2.188,0.771,2.188,0.771l4.119,8.879l2.315,2.96
	c0.921,0.896,1.289-0.127,1.289-0.127v-1.674c0,0-2.832-17.125-2.832-18.152c0-1.029,1.934-1.803,1.934-1.803
	c0.514-0.516,1.929,1.418,1.929,1.418l2.06,13.129l1.031,3.479c0.635,1.283,1.544,0.516,1.544,0.516l0.257-1.16l-0.257-5.148
	L69.938,8.533c0,0,0.26-3.348,0.516-4.119c0.258-0.772,1.803-0.516,1.803-0.516l1.803,1.803c1.029,0.646,1.804,18.41,1.804,18.41
	c0.127,0.77,0.643,1.93,1.544,1.801c0.9-0.129,1.287-2.444,1.287-2.444s0-11.071,0-11.974c0-0.899,0.516-5.149,1.158-5.664
	c0.644-0.516,0.387-0.258,2.311,0c1.923,0.258,2.326,5.535,2.326,5.535s-0.773,15.062-0.903,20.095
	c-0.129,5.035,2.188,6.428,2.575,6.428c0.385,0,1.803-1.418,2.316-2.062c0.518-0.645,1.287-3.861,2.027-5.922
	c0.734-2.061,1.961-2.959,1.961-2.959l3.354-1.803c3.736-1.03,3.602,2.959,1.799,4.375c-1.805,1.416-4.764,9.271-4.764,9.271
	c-1.803,7.469-5.404,10.299-5.404,10.299s-3.737,3.725-7.642,4.521c-3.902,0.797-6.121,0.355-8.957,0.076
	C70.848,53.683,66.458,51.402,65.325,48.894z"/>
</svg>
