<?xml version="1.0" encoding="utf-8"?>
<!-- Generator: Adobe Illustrator 14.0.0, SVG Export Plug-In . SVG Version: 6.00 Build 43363)  -->
<!DOCTYPE svg PUBLIC "-//W3C//DTD SVG 1.1//EN" "http://www.w3.org/Graphics/SVG/1.1/DTD/svg11.dtd">
<svg version="1.1" id="Layer_4" xmlns="http://www.w3.org/2000/svg" xmlns:xlink="http://www.w3.org/1999/xlink" x="0px" y="0px"
	 width="57.6px" height="72px" viewBox="25.18 -6.9 57.6 72" enable-background="new 25.18 -6.9 57.6 72" xml:space="preserve">
<path fill="none" stroke="#CCDD59" d="M42.574,43.889c-1.239-2.736-4.397-11.27-4.397-11.27l-0.386-2.828l-0.645-2.189l-1.931-3.859
	l-3.349-9.526c0,0,0.13-2.315,0.646-2.959c0.516-0.646,2.188,0.771,2.188,0.771l4.119,8.881l2.315,2.96
	c0.921,0.896,1.289-0.127,1.289-0.127v-1.676c0,0-2.832-17.124-2.832-18.151c0-1.029,1.934-1.803,1.934-1.803
	c0.514-0.516,1.929,1.417,1.929,1.417l2.061,13.13l1.03,3.479c0.636,1.283,1.545,0.516,1.545,0.516l0.257-1.158l-0.257-5.149
	L47.188,3.534c0,0,0.26-3.349,0.516-4.119c0.258-0.773,1.804-0.517,1.804-0.517l1.803,1.803c1.029,0.646,1.803,18.409,1.803,18.409
	c0.127,0.771,0.644,1.933,1.544,1.802c0.9-0.129,1.287-2.443,1.287-2.443s0-11.071,0-11.974c0-0.899,0.516-5.15,1.158-5.664
	c0.644-0.517,0.387-0.259,2.311,0c1.924,0.258,2.324,5.535,2.324,5.535s-0.771,15.062-0.901,20.093
	c-0.129,5.035,2.188,6.429,2.574,6.429s1.803-1.417,2.317-2.061c0.517-0.646,1.287-3.863,2.024-5.923
	c0.734-2.061,1.963-2.959,1.963-2.959l3.354-1.804c3.736-1.03,3.602,2.96,1.798,4.376s-4.763,9.271-4.763,9.271
	c-1.804,7.471-5.405,10.301-5.405,10.301s-3.736,3.725-7.641,4.52c-3.903,0.797-6.121,0.355-8.958,0.076
	C48.099,48.68,43.708,46.397,42.574,43.889z"/>
<path fill="none" stroke="#FFFFFF" stroke-width="1.5" d="M42.573,43.895c-1.239-2.737-4.398-11.271-4.398-11.271l-0.385-2.83
	l-0.645-2.188l-1.932-3.861l-3.348-9.526c0,0,0.13-2.315,0.645-2.96c0.516-0.646,2.188,0.771,2.188,0.771l4.118,8.879l2.315,2.96
	c0.921,0.896,1.289-0.127,1.289-0.127v-1.674c0,0-2.832-17.125-2.832-18.152c0-1.029,1.935-1.803,1.935-1.803
	c0.514-0.516,1.929,1.418,1.929,1.418l2.06,13.129l1.031,3.479c0.635,1.283,1.544,0.516,1.544,0.516l0.257-1.16l-0.257-5.148
	L47.187,3.534c0,0,0.26-3.348,0.516-4.119c0.258-0.772,1.803-0.516,1.803-0.516l1.803,1.803c1.029,0.646,1.805,18.41,1.805,18.41
	c0.127,0.77,0.643,1.93,1.544,1.801c0.899-0.129,1.286-2.444,1.286-2.444s0-11.071,0-11.974c0-0.899,0.517-5.149,1.158-5.664
	c0.645-0.516,0.388-0.258,2.312,0c1.923,0.258,2.326,5.535,2.326,5.535s-0.773,15.062-0.903,20.094
	c-0.129,5.035,2.188,6.429,2.575,6.429c0.385,0,1.803-1.418,2.315-2.062c0.519-0.646,1.287-3.861,2.026-5.924
	c0.733-2.061,1.961-2.959,1.961-2.959l3.354-1.803c3.736-1.03,3.602,2.959,1.799,4.375c-1.805,1.416-4.764,9.271-4.764,9.271
	c-1.805,7.469-5.404,10.299-5.404,10.299s-3.737,3.726-7.643,4.521c-3.901,0.797-6.121,0.354-8.957,0.076
	C48.097,48.684,43.706,46.403,42.573,43.895z"/>
<text transform="matrix(1 0 0 1 40.1479 62.0122)" fill="#CCDD59" font-family="'PTSans-Narrow'" font-size="14">PALM</text>
</svg>
