<?xml version="1.0" encoding="utf-8"?>
<!-- Generator: Adobe Illustrator 14.0.0, SVG Export Plug-In . SVG Version: 6.00 Build 43363)  -->
<!DOCTYPE svg PUBLIC "-//W3C//DTD SVG 1.1//EN" "http://www.w3.org/Graphics/SVG/1.1/DTD/svg11.dtd">
<svg version="1.1" id="Layer_1" xmlns="http://www.w3.org/2000/svg" xmlns:xlink="http://www.w3.org/1999/xlink" x="0px" y="0px"
	 width="57.475px" height="71.887px" viewBox="0 0 57.475 71.887" enable-background="new 0 0 57.475 71.887" xml:space="preserve">
<text transform="matrix(1 0 0 1 15.6125 68.8552)" fill="#CCDD59" font-family="'PTSans-Narrow'" font-size="14">EDGE</text>
<path fill="none" stroke="#CCDD59" d="M17.332,50.732c-1.239-2.736-4.397-11.27-4.397-11.27l-0.386-2.828l-0.645-2.189l-1.931-3.859
	l-3.349-9.526c0,0,0.13-2.315,0.646-2.959c0.516-0.646,2.187,0.771,2.187,0.771l4.119,8.881l2.315,2.96
	c0.921,0.896,1.289-0.127,1.289-0.127v-1.676c0,0-2.832-17.124-2.832-18.151c0-1.029,1.934-1.803,1.934-1.803
	c0.514-0.516,1.929,1.417,1.929,1.417l2.061,13.13l1.03,3.479c0.636,1.283,1.545,0.516,1.545,0.516l0.257-1.158l-0.257-5.149
	l-0.902-10.812c0,0,0.26-3.349,0.516-4.119c0.258-0.773,1.804-0.517,1.804-0.517l1.803,1.803c1.029,0.646,1.803,18.409,1.803,18.409
	c0.127,0.771,0.644,1.933,1.544,1.802c0.9-0.129,1.287-2.443,1.287-2.443s0-11.071,0-11.974c0-0.899,0.516-5.15,1.158-5.664
	c0.644-0.517,0.387-0.259,2.311,0c1.924,0.258,2.324,5.535,2.324,5.535s-0.771,15.062-0.901,20.093
	c-0.129,5.035,2.188,6.429,2.574,6.429s1.803-1.417,2.317-2.061c0.517-0.646,1.287-3.863,2.024-5.923
	c0.734-2.061,1.963-2.959,1.963-2.959l3.354-1.804c3.736-1.03,3.602,2.96,1.798,4.376s-4.763,9.271-4.763,9.271
	c-1.804,7.471-5.405,10.301-5.405,10.301s-3.736,3.725-7.641,4.52c-3.903,0.797-6.121,0.355-8.958,0.076
	C22.856,55.523,18.466,53.24,17.332,50.732z"/>
<path fill="none" stroke="#FFFFFF" stroke-width="1.5" d="M35.593,33.298c-0.129,5.034,2.188,6.429,2.574,6.429
	s1.803-1.417,2.317-2.062c0.517-0.645,1.287-3.862,2.024-5.922c0.734-2.061,1.963-2.959,1.963-2.959l3.354-1.804
	c3.736-1.03,3.602,2.96,1.798,4.376s-4.763,9.271-4.763,9.271c-1.804,7.471-5.405,10.301-5.405,10.301s-3.736,3.725-7.641,4.52
	c-3.903,0.797-6.121,0.355-8.958,0.076c-0.001-0.002-4.392-2.283-5.525-4.791c-1.239-2.738-4.397-11.27-4.397-11.27l-0.386-2.828
	l-0.645-2.189l-1.931-3.86c0,0-0.992-5.632,3.604-2.836l2.315,2.961c0.921,0.896,1.289-0.128,1.289-0.128v-1.675l-0.843-3.601
	c0,0-0.51-5.187,3.934-1.809l1.03,3.479c0.636,1.283,1.545,0.515,1.545,0.515l0.257-1.158l-0.257-5.148c0,0,1.492-4.559,4.242-0.809
	l0.781,5.572c0.127,0.771,0.644,1.932,1.544,1.802s1.287-2.444,1.287-2.444l1.138-6.41c0,0,1.75-2.521,3-0.646
	s1.375,4.125,1.375,4.125l-0.5,6.5L35.593,33.298z"/>
</svg>
