<?xml version="1.0" encoding="utf-8"?>
<!-- Generator: Adobe Illustrator 14.0.0, SVG Export Plug-In . SVG Version: 6.00 Build 43363)  -->
<!DOCTYPE svg PUBLIC "-//W3C//DTD SVG 1.1//EN" "http://www.w3.org/Graphics/SVG/1.1/DTD/svg11.dtd">
<svg version="1.1" id="Layer_5" xmlns="http://www.w3.org/2000/svg" xmlns:xlink="http://www.w3.org/1999/xlink" x="0px" y="0px"
	 width="57.6px" height="72px" viewBox="25.18 -6.9 57.6 72" enable-background="new 25.18 -6.9 57.6 72" xml:space="preserve">
<path fill="none" stroke="#CCDD59" d="M42.573,43.891c-1.239-2.736-4.398-11.27-4.398-11.27l-0.385-2.83l-0.646-2.189l-1.931-3.859
	l-3.348-9.527c0,0,0.13-2.315,0.646-2.959c0.516-0.646,2.188,0.771,2.188,0.771l4.119,8.88l2.314,2.961
	c0.922,0.896,1.289-0.127,1.289-0.127v-1.676c0,0-2.832-17.123-2.832-18.151s1.934-1.802,1.934-1.802
	c0.515-0.516,1.93,1.417,1.93,1.417l2.061,13.129l1.03,3.479c0.636,1.283,1.544,0.515,1.544,0.515l0.258-1.159l-0.258-5.148
	l-0.9-10.814c0,0,0.26-3.348,0.516-4.119c0.258-0.773,1.803-0.516,1.803-0.516l1.803,1.802c1.029,0.646,1.805,18.41,1.805,18.41
	c0.127,0.771,0.643,1.931,1.544,1.801c0.899-0.129,1.286-2.444,1.286-2.444s0-11.07,0-11.973c0-0.9,0.517-5.15,1.158-5.664
	c0.645-0.516,0.388-0.258,2.312,0s2.325,5.535,2.325,5.535s-0.772,15.062-0.902,20.093c-0.129,5.035,2.188,6.429,2.574,6.429
	c0.386,0,1.803-1.418,2.316-2.062c0.518-0.646,1.287-3.863,2.025-5.924c0.734-2.06,1.962-2.959,1.962-2.959l3.354-1.804
	c3.736-1.029,3.602,2.961,1.798,4.377s-4.763,9.271-4.763,9.271c-1.805,7.471-5.405,10.301-5.405,10.301s-3.736,3.724-7.642,4.521
	c-3.902,0.798-6.121,0.354-8.957,0.076C48.098,48.682,43.707,46.4,42.573,43.891z"/>
<path fill="none" stroke="#FFFFFF" stroke-width="1.5" d="M64.938,25.727c0.197,2.18,0.414,4.916,0.215,5.718
	c-0.192,0.802-0.598,1.109-0.936,1.298c-0.185,0.104-0.809,0.145-0.809,0.145c-0.387,0-2.703-1.395-2.574-6.43l0.122-4.42
	l0.283-5.488c0,0,0.454-9.365,0.477-10.405s-0.384-2.298-0.653-3.243c-0.271-0.945-0.991-1.752-0.991-1.752
	s-0.966-0.362-2.276-0.605C56.482,0.3,56.15,4.37,56.15,4.37l-0.207,6.588v7.51c0,0-0.387,2.315-1.287,2.444
	c-0.901,0.13-1.417-1.03-1.545-1.801l-0.144-2.702c-3.174-6.445-4.762,0.302-4.762,0.302l0.14,2.784l-0.258,1.159
	c0,0-0.908,0.769-1.544-0.515l-1.03-3.479c-3.138-3.528-3.685,1.794-3.685,1.794l0.593,3.613v1.676c0,0-0.367,1.023-1.289,0.127
	l-2.314-2.961c-4.596-2.796-3.604,2.836-3.604,2.836l1.931,3.859l0.646,2.189l0.385,2.828c0,0,3.159,8.533,4.398,11.271
	c1.134,2.509,5.522,4.791,5.524,4.793c2.836,0.277,5.055,0.723,8.957-0.076c3.905-0.799,7.643-4.521,7.643-4.521
	s3.603-2.83,5.404-10.301v-0.83v-1.812c-0.092-6.487,0.679-9.272,0.679-9.272c1.038-2.044-0.521-5.719-3.478-3.21l-1.639,3.004
	C65.666,21.665,64.703,23.812,64.938,25.727z"/>
<text transform="matrix(1 0 0 1 38.4678 62.0122)" fill="#CCDD59" font-family="'PTSans-Narrow'" font-size="14">PINCH</text>
</svg>
