<?xml version="1.0" encoding="utf-8"?>
<!-- Generator: Adobe Illustrator 14.0.0, SVG Export Plug-In . SVG Version: 6.00 Build 43363)  -->
<!DOCTYPE svg PUBLIC "-//W3C//DTD SVG 1.1//EN" "http://www.w3.org/Graphics/SVG/1.1/DTD/svg11.dtd">
<svg version="1.1" id="Layer_2" xmlns="http://www.w3.org/2000/svg" xmlns:xlink="http://www.w3.org/1999/xlink" x="0px" y="0px"
	 width="166.918px" height="58.2px" viewBox="0 0 166.918 58.2" enable-background="new 0 0 166.918 58.2" xml:space="preserve">
<polygon opacity="0.4" fill="#AAD5C4" enable-background="new    " points="0,58.2 147.5,58.2 166.918,29.101 147.5,0 0,0 "/>
<path fill="#FFFFFF" d="M138.836,17.141c0,1.086-0.125,2.171-0.375,3.256c-0.251,1.086-0.648,2.108-1.189,3.068
	c-0.543,0.961-1.222,1.816-2.035,2.567s-1.807,1.315-2.975,1.691v0.25c1.002,0.209,1.961,0.555,2.881,1.033
	c0.918,0.48,1.73,1.148,2.441,2.004c0.709,0.855,1.271,1.9,1.689,3.131s0.627,2.703,0.627,4.414c0,2.254-0.355,4.205-1.064,5.854
	c-0.71,1.65-1.682,2.996-2.911,4.039c-1.231,1.043-2.651,1.815-4.258,2.316s-3.31,0.752-5.103,0.752c-0.586,0-1.265,0-2.035,0
	c-0.773,0-1.598-0.031-2.473-0.096c-0.877-0.062-1.744-0.146-2.601-0.25c-0.854-0.104-1.64-0.26-2.349-0.469V7.561
	c1.252-0.25,2.726-0.459,4.414-0.626c1.691-0.167,3.518-0.25,5.479-0.25c1.419,0,2.838,0.136,4.258,0.407
	c1.419,0.272,2.692,0.783,3.82,1.534c1.127,0.751,2.034,1.806,2.724,3.162S138.836,14.929,138.836,17.141z M124.373,26.658
	c0.584,0,1.252-0.021,2.004-0.062c0.75-0.041,1.377-0.104,1.878-0.188c1.544-0.626,2.869-1.638,3.976-3.037
	c1.105-1.398,1.66-3.12,1.66-5.166c0-1.377-0.188-2.536-0.563-3.475s-0.888-1.68-1.534-2.223c-0.646-0.542-1.409-0.928-2.285-1.158
	c-0.876-0.229-1.795-0.345-2.755-0.345c-1.086,0-2.065,0.032-2.942,0.094s-1.545,0.136-2.004,0.219v15.34L124.373,26.658
	L124.373,26.658z M126.939,47.195c1.127,0,2.17-0.178,3.131-0.532c0.959-0.354,1.805-0.887,2.535-1.597
	c0.729-0.709,1.305-1.575,1.723-2.599c0.416-1.022,0.626-2.223,0.626-3.602c0-1.711-0.261-3.1-0.782-4.164
	c-0.523-1.063-1.201-1.888-2.035-2.473c-0.836-0.584-1.785-0.98-2.85-1.189s-2.16-0.312-3.287-0.312h-4.193v16.026
	c0.25,0.086,0.572,0.147,0.969,0.188c0.396,0.042,0.836,0.084,1.315,0.126c0.479,0.041,0.972,0.072,1.472,0.094
	C126.062,47.185,126.521,47.195,126.939,47.195z"/>
<g>
	<text transform="matrix(1 0 0 1 7.5996 51.3599)" fill="#CCDD59" font-family="'PTSans-Narrow'" font-size="14">SLOPE</text>
</g>
<path fill="none" stroke="#CCDD59" d="M65.324,49.034c-1.239-2.736-4.398-11.271-4.398-11.271l-0.385-2.828l-0.645-2.19l-1.931-3.86
	l-3.348-9.526c0,0,0.13-2.316,0.645-2.96c0.516-0.646,2.188,0.771,2.188,0.771l4.119,8.88l2.315,2.96
	c0.921,0.897,1.289-0.127,1.289-0.127v-1.675c0,0-2.832-17.124-2.832-18.152c0-1.029,1.934-1.802,1.934-1.802
	c0.514-0.516,1.929,1.417,1.929,1.417l2.06,13.129l1.031,3.479c0.635,1.283,1.544,0.515,1.544,0.515l0.257-1.159l-0.257-5.149
	L69.938,8.674c0,0,0.26-3.348,0.516-4.119c0.258-0.773,1.803-0.516,1.803-0.516l1.803,1.802c1.029,0.646,1.804,18.41,1.804,18.41
	c0.127,0.771,0.643,1.931,1.544,1.801c0.9-0.129,1.287-2.444,1.287-2.444s0-11.071,0-11.973c0-0.9,0.516-5.15,1.158-5.664
	c0.644-0.516,0.387-0.258,2.311,0c1.924,0.258,2.325,5.535,2.325,5.535s-0.772,15.062-0.902,20.093
	c-0.129,5.034,2.188,6.429,2.574,6.429s1.803-1.418,2.317-2.062c0.517-0.645,1.287-3.862,2.025-5.922
	c0.735-2.061,1.962-2.958,1.962-2.958l3.354-1.804c3.736-1.03,3.602,2.96,1.798,4.375c-1.804,1.416-4.763,9.27-4.763,9.27
	c-1.804,7.472-5.405,10.302-5.405,10.302s-3.736,3.724-7.642,4.521c-3.902,0.797-6.121,0.355-8.957,0.076
	C70.848,53.825,66.458,51.542,65.324,49.034z"/>
<path fill="none" stroke="#FFFFFF" d="M66.768,12.263l1.496,9.537l1.031,3.479c0.635,1.283,1.544,0.515,1.544,0.515l0.257-1.159
	l-0.257-5.149l-0.665-7.98c0,0,1.832-6.273,4.919,0.574l0.77,12.171c0.127,0.771,0.643,1.931,1.544,1.801
	c0.9-0.129,1.287-2.444,1.287-2.444s0-11.071,0-11.973c0,0,2.519-8.301,5.794-0.129c0,0-0.772,15.062-0.902,20.093
	c-0.129,5.034,2.188,6.429,2.574,6.429c0.386,0,1.803-1.418,2.316-2.062c0.518-0.645,1.287-3.862,2.026-5.922
	c0.735-2.061,1.962-2.958,1.962-2.958l3.354-1.804c3.736-1.03,3.603,2.96,1.799,4.375c-1.805,1.416-4.764,9.27-4.764,9.27
	c-1.803,7.472-5.404,10.302-5.404,10.302s-3.736,3.724-7.642,4.521c-3.902,0.797-6.121,0.355-8.957,0.076
	c-0.002-0.002-4.392-2.283-5.525-4.791c-1.239-2.738-4.398-11.271-4.398-11.271l-0.385-2.828l-0.645-2.189l-1.931-3.861
	l-2.184-6.213c0,0-1.373-5.921,2.888-2.874l2.9,6.252l2.315,2.96c0.921,0.896,1.289-0.127,1.289-0.127v-1.675L62.94,13.342
	C62.939,13.343,63.105,8.014,66.768,12.263z"/>
</svg>
