<?xml version="1.0" encoding="utf-8"?>
<!-- Generator: Adobe Illustrator 14.0.0, SVG Export Plug-In . SVG Version: 6.00 Build 43363)  -->
<!DOCTYPE svg PUBLIC "-//W3C//DTD SVG 1.1//EN" "http://www.w3.org/Graphics/SVG/1.1/DTD/svg11.dtd">
<svg version="1.1" id="Layer_3" xmlns="http://www.w3.org/2000/svg" xmlns:xlink="http://www.w3.org/1999/xlink" x="0px" y="0px"
	 width="166.918px" height="58.2px" viewBox="0 0 166.918 58.2" enable-background="new 0 0 166.918 58.2" xml:space="preserve">
<polygon opacity="0.4" fill="#AAD5C4" points="0,58.2 147.5,58.2 166.918,29.101 147.5,0 0,0 "/>
<path fill="#FFFFFF" d="M140.307,45.442c-0.793,0.543-1.752,1.013-2.879,1.409s-2.401,0.594-3.82,0.594
	c-3.465,0-6.24-1.533-8.327-4.602s-3.13-7.648-3.13-13.743c0-3.381,0.291-6.24,0.876-8.578c0.584-2.337,1.378-4.226,2.38-5.666
	c1.002-1.44,2.148-2.483,3.443-3.131c1.293-0.646,2.67-0.97,4.133-0.97c1.46,0,2.754,0.125,3.881,0.375s2.107,0.605,2.943,1.064
	l1.127-4.258c-0.961-0.417-2.098-0.772-3.412-1.064c-1.315-0.292-2.975-0.438-4.979-0.438c-1.962,0-3.871,0.397-5.729,1.189
	c-1.857,0.793-3.496,2.088-4.915,3.882c-1.419,1.795-2.558,4.132-3.412,7.013c-0.856,2.88-1.284,6.408-1.284,10.582
	c0,4.049,0.376,7.514,1.127,10.394c0.752,2.88,1.806,5.229,3.162,7.044s2.975,3.142,4.853,3.976s3.923,1.252,6.136,1.252
	c1.754,0,3.422-0.188,5.01-0.562c1.586-0.377,2.9-1.002,3.944-1.879L140.307,45.442z"/>
<g>
	<text transform="matrix(1 0 0 1 7.5996 51.6323)" fill="#CCDD59" font-family="'PTSans-Narrow'" font-size="14">POCKET</text>
</g>
<path fill="none" stroke="#CCDD59" d="M65.324,49.034c-1.239-2.736-4.398-11.27-4.398-11.27l-0.385-2.829l-0.645-2.19l-1.931-3.859
	l-3.348-9.527c0,0,0.13-2.316,0.645-2.96c0.516-0.646,2.188,0.771,2.188,0.771l4.119,8.88l2.315,2.961
	c0.921,0.896,1.289-0.127,1.289-0.127v-1.675c0,0-2.832-17.124-2.832-18.152c0-1.029,1.934-1.802,1.934-1.802
	c0.514-0.516,1.929,1.417,1.929,1.417l2.06,13.129l1.031,3.479c0.635,1.284,1.544,0.515,1.544,0.515l0.257-1.159l-0.257-5.149
	L69.938,8.674c0,0,0.26-3.348,0.516-4.119c0.258-0.773,1.803-0.516,1.803-0.516l1.803,1.802c1.029,0.646,1.804,18.41,1.804,18.41
	c0.127,0.771,0.643,1.931,1.544,1.801c0.9-0.129,1.287-2.444,1.287-2.444s0-11.071,0-11.973c0-0.9,0.516-5.15,1.158-5.664
	c0.644-0.516,0.387-0.258,2.311,0s2.325,5.535,2.325,5.535S83.715,26.568,83.585,31.6c-0.129,5.035,2.188,6.428,2.574,6.428
	s1.803-1.418,2.317-2.062c0.517-0.644,1.287-3.862,2.026-5.922c0.735-2.061,1.962-2.959,1.962-2.959l3.354-1.803
	c3.736-1.03,3.602,2.959,1.798,4.376c-1.804,1.416-4.763,9.27-4.763,9.27c-1.803,7.471-5.405,10.301-5.405,10.301
	s-3.736,3.723-7.642,4.521c-3.902,0.797-6.121,0.354-8.957,0.076C70.848,53.825,66.458,51.542,65.324,49.034z"/>
<path fill="none" stroke="#FFFFFF" d="M74.213,6.078l0.777,4.889l0.568,7.568l0.304,5.717c0.127,0.771,0.643,1.931,1.544,1.801
	c0.9-0.129,1.287-2.444,1.287-2.444v-7.51l0.208-6.588c0,0,0.332-4.07,1.644-3.826c1.311,0.244,2.276,0.606,2.276,0.606
	s0.722,0.807,0.991,1.751c0.271,0.945,0.676,2.204,0.654,3.243S83.99,21.689,83.99,21.689l-0.283,5.489L83.585,31.6
	c-0.129,5.035,2.188,6.428,2.574,6.428s1.803-1.418,2.317-2.062c0.517-0.644,1.287-3.862,2.026-5.922
	c0.735-2.061,1.962-2.959,1.962-2.959l3.354-1.803c3.736-1.03,3.602,2.959,1.798,4.376c-1.804,1.416-4.763,9.27-4.763,9.27
	c-1.803,7.471-5.405,10.301-5.405,10.301s-3.736,3.723-7.642,4.521c-3.902,0.797-6.121,0.354-8.957,0.076
	c-0.002-0.002-4.392-2.284-5.525-4.793c-1.239-2.736-4.398-11.27-4.398-11.27l-0.385-2.829l-0.645-2.19l-1.931-3.859
	c0,0-0.992-5.632,3.604-2.836l2.315,2.961c0.921,0.896,1.289-0.127,1.289-0.127v-1.675l-0.842-3.6c0,0-0.51-5.186,3.932-1.808
	l1.031,3.479c0.635,1.284,1.544,0.515,1.544,0.515l0.257-1.159l-0.257-5.149l-0.649-7.793l-0.236-2.821l0.456-4.158
	C70.409,4.714,71.385,2.2,74.213,6.078z"/>
</svg>
