<?xml version="1.0" encoding="utf-8"?>
<!-- Generator: Adobe Illustrator 14.0.0, SVG Export Plug-In . SVG Version: 6.00 Build 43363)  -->
<!DOCTYPE svg PUBLIC "-//W3C//DTD SVG 1.1//EN" "http://www.w3.org/Graphics/SVG/1.1/DTD/svg11.dtd">
<svg version="1.1" id="Layer_6" xmlns="http://www.w3.org/2000/svg" xmlns:xlink="http://www.w3.org/1999/xlink" x="0px" y="0px"
	 width="144px" height="244.8px" viewBox="-7.2 0 144 244.8" enable-background="new -7.2 0 144 244.8" xml:space="preserve">
<path fill="#BCBCBC" d="M74.013,163.648H55.758c0,0,0.171-2.266,0.171-2.841c0-0.578,2.877-32.507,2.877-32.507
	s0.332-2.852-1.215-5.172c-1.548-2.322-3.427-4.752-3.427-4.752s-3.096-2.432-4.643-8.845c0,0-2.542-6.742-4.091-7.958
	c-1.548-1.217-1.665-4.642,1.543-3.758l2.878,1.548c0,0,1.055,0.771,1.688,2.541c0.634,1.769,1.296,4.532,1.738,5.085
	c0.444,0.551,1.66,1.769,1.99,1.769c0.333,0,2.322-1.195,2.212-5.519c-0.112-4.319-0.775-17.251-0.775-17.251
	s0.345-4.532,1.996-4.753c1.653-0.221,1.432-0.442,1.983,0c0.551,0.441,0.995,4.09,0.995,4.863c0,0.774,0,10.28,0,10.28
	s0.332,1.989,1.105,2.1c0.772,0.111,1.217-0.885,1.326-1.546l0.806-1.299l0.941-0.744h0.693c0,0,1.042,0.347,1.141,0.744
	c0.101,0.397,0.509,1.629,0.509,1.629l0.222,0.995c0,0,0.779,0.66,1.326-0.441c0,0,0.769-1.093,1.414-0.943
	c0.642,0.147,1.337,0.445,1.337,0.445l0.785,0.893v0.843v0.42v1.438c0,0,0.315,0.878,1.106,0.108c0,0,0.733-0.33,1.181-0.231
	c0.446,0.101,1.041,0.347,1.041,0.347l0.892,0.744l0.312,1.04v1.306l-0.552,1.881l-0.33,2.431c0,0-1.991,8.844-3.317,11.054
	c-1.325,2.212-1.657,3.759-1.657,3.759l-0.488,4.951l1.783,23.893l0.771,11.357L74.013,163.648z"/>
<rect x="25.049" y="36.353" fill="#FFFFFF" stroke="#000000" stroke-width="0.75" width="79.501" height="44.955"/>
<path fill="#FFFFFF" stroke="#000000" stroke-width="0.75" d="M25.049,14.911h79.501v17.381H25.049V14.911z M43.549,21.601
	c-1.104,0-2,0.896-2,2s0.896,2,2,2c1.104,0,2-0.896,2-2S44.653,21.601,43.549,21.601z M86.05,21.601c-1.105,0-2,0.896-2,2
	s0.895,2,2,2c1.104,0,2-0.896,2-2S87.155,21.601,86.05,21.601z"/>
<g>
	<path d="M61.391,75.731H45.839v-1.536c0.606-0.736,1.303-1.664,2.088-2.784c0.784-1.12,1.6-2.344,2.448-3.672
		c0.848-1.327,1.68-2.736,2.496-4.224c0.815-1.488,1.543-3,2.184-4.536c0.64-1.536,1.16-3.056,1.561-4.56
		c0.399-1.504,0.6-2.944,0.6-4.32c0-1.632-0.368-2.944-1.104-3.936c-0.736-0.992-1.841-1.488-3.312-1.488
		c-0.929,0-1.833,0.176-2.712,0.528c-0.881,0.353-1.642,0.784-2.28,1.296l-1.344-2.496c0.896-0.768,1.959-1.368,3.191-1.8
		c1.231-0.432,2.536-0.648,3.912-0.648c2.368,0,4.167,0.73,5.4,2.19c1.231,1.461,1.848,3.379,1.848,5.754
		c0,1.766-0.264,3.611-0.792,5.538c-0.527,1.926-1.199,3.827-2.016,5.705s-1.721,3.684-2.712,5.417
		c-0.993,1.733-1.968,3.273-2.928,4.621l-1.969,2.118v0.144l2.544-0.432h8.448V75.731z"/>
	<path d="M81.935,42.131v3.312h-9.12v9.84l1.634-0.144c2.56,0.032,4.574,0.912,6.048,2.64c1.472,1.728,2.224,4.208,2.256,7.44
		c-0.032,1.792-0.297,3.376-0.792,4.752c-0.497,1.376-1.176,2.536-2.04,3.48c-0.864,0.944-1.872,1.656-3.024,2.136
		c-1.15,0.48-2.384,0.72-3.694,0.72c-2.208,0-3.984-0.296-5.328-0.885l0.862-3.003c0.576,0.288,1.217,0.488,1.922,0.6
		c0.702,0.112,1.52,0.168,2.446,0.168c1.824,0,3.305-0.668,4.44-2.005c1.136-1.336,1.72-3.212,1.752-5.628
		c-0.032-2.479-0.616-4.315-1.752-5.507c-1.137-1.192-2.712-1.788-4.729-1.788l-3.168,0.24V42.131H81.935z"/>
</g>
<path fill="#FFFFFF" stroke="#000000" stroke-width="0.75" d="M112.591,228.728c0,0.641-0.523,1.16-1.164,1.16H18.173
	c-0.646,0-1.164-0.52-1.164-1.16v-64.074c0-0.645,0.52-1.164,1.164-1.164h93.254c0.641,0,1.164,0.52,1.164,1.164V228.728z"/>
<path fill="#BCBCBC" d="M87.903,226.474c0,0.641-0.52,1.162-1.159,1.162H67.021c-0.641,0-1.162-0.521-1.162-1.162V209.49
	c0-0.645,0.521-1.164,1.162-1.164h19.724c0.641,0,1.159,0.521,1.159,1.164L87.903,226.474L87.903,226.474z"/>
<path fill="#BCBCBC" d="M64.644,205.568c0,0.648-0.521,1.168-1.162,1.168H43.763c-0.645,0-1.164-0.52-1.164-1.168v-15.387
	c0-0.646,0.521-1.166,1.164-1.166h19.719c0.642,0,1.162,0.52,1.162,1.166V205.568L64.644,205.568z"/>
<path fill="#BCBCBC" d="M110.052,185.802c0,0.639-0.52,1.16-1.164,1.16H20.499c-0.644,0-1.162-0.521-1.162-1.16v-18.824
	c0-0.643,0.52-1.164,1.162-1.164h88.389c0.646,0,1.164,0.521,1.164,1.164V185.802z"/>
<path fill="#BCBCBC" d="M41.38,226.474c0,0.641-0.521,1.162-1.16,1.162H20.499c-0.644,0-1.162-0.521-1.162-1.162V209.49
	c0-0.645,0.52-1.164,1.162-1.164H40.22c0.641,0,1.16,0.521,1.16,1.164V226.474z"/>
<path fill="#BCBCBC" d="M64.644,226.474c0,0.641-0.521,1.162-1.162,1.162H43.763c-0.645,0-1.164-0.521-1.164-1.162V209.49
	c0-0.645,0.521-1.164,1.164-1.164h19.719c0.642,0,1.162,0.521,1.162,1.164V226.474L64.644,226.474z"/>
<path fill="#BCBCBC" d="M41.38,205.568c0,0.648-0.521,1.168-1.16,1.168H20.499c-0.644,0-1.162-0.52-1.162-1.168v-15.387
	c0-0.646,0.52-1.166,1.162-1.166H40.22c0.641,0,1.16,0.52,1.16,1.166V205.568z"/>
<path fill="#BCBCBC" d="M87.903,205.568c0,0.648-0.52,1.168-1.159,1.168H67.021c-0.641,0-1.162-0.52-1.162-1.168v-15.387
	c0-0.646,0.521-1.166,1.162-1.166h19.724c0.641,0,1.159,0.52,1.159,1.166L87.903,205.568L87.903,205.568z"/>
<path fill="#BCBCBC" d="M110.052,226.474c0,0.641-0.52,1.162-1.164,1.162H91.282c-0.646,0-1.164-0.521-1.164-1.162v-36.293
	c0-0.646,0.52-1.166,1.164-1.166h17.604c0.646,0,1.164,0.52,1.164,1.166L110.052,226.474L110.052,226.474z"/>
</svg>
