<?xml version="1.0" encoding="utf-8"?>
<!-- Generator: Adobe Illustrator 14.0.0, SVG Export Plug-In . SVG Version: 6.00 Build 43363)  -->
<!DOCTYPE svg PUBLIC "-//W3C//DTD SVG 1.1//EN" "http://www.w3.org/Graphics/SVG/1.1/DTD/svg11.dtd">
<svg version="1.1" id="Layer_6" xmlns="http://www.w3.org/2000/svg" xmlns:xlink="http://www.w3.org/1999/xlink" x="0px" y="0px"
	 width="200px" height="244.8px" viewBox="0 0 200 244.8" enable-background="new 0 0 200 244.8" xml:space="preserve">
<path fill="#CBEFDE" d="M109.213,163.648H90.957c0,0,0.171-2.266,0.171-2.841c0-0.578,2.877-32.507,2.877-32.507
	s0.332-2.852-1.215-5.172c-1.548-2.322-3.427-4.752-3.427-4.752s-3.096-2.432-4.643-8.845c0,0-2.543-6.742-4.092-7.958
	c-1.548-1.217-1.665-4.642,1.543-3.758l2.878,1.548c0,0,1.056,0.771,1.688,2.541c0.634,1.769,1.296,4.532,1.738,5.085
	c0.443,0.551,1.66,1.769,1.989,1.769c0.333,0,2.322-1.195,2.212-5.519c-0.111-4.319-0.775-17.251-0.775-17.251
	s0.346-4.532,1.996-4.753c1.653-0.221,1.433-0.442,1.983,0c0.552,0.441,0.995,4.09,0.995,4.863c0,0.774,0,10.28,0,10.28
	s0.332,1.989,1.105,2.1c0.771,0.111,1.217-0.885,1.326-1.546l0.805-1.299l0.941-0.744h0.691c0,0,1.042,0.347,1.143,0.744
	c0.104,0.397,0.51,1.629,0.51,1.629l0.224,0.995c0,0,0.776,0.66,1.323-0.441c0,0,0.771-1.093,1.414-0.943
	c0.645,0.147,1.34,0.445,1.34,0.445l0.783,0.893v0.843v0.42v1.438c0,0,0.312,0.878,1.104,0.108c0,0,0.731-0.33,1.185-0.231
	c0.442,0.101,1.041,0.347,1.041,0.347l0.893,0.744l0.312,1.04v1.306l-0.552,1.881l-0.33,2.431c0,0-1.991,8.844-3.315,11.054
	c-1.323,2.212-1.655,3.759-1.655,3.759l-0.488,4.951l1.783,23.893l0.771,11.357L109.213,163.648z"/>
<rect x="60.248" y="36.353" fill="#FFFFFF" stroke="#000000" stroke-width="0.75" width="79.5" height="44.955"/>
<path fill="#FFFFFF" stroke="#000000" stroke-width="0.75" d="M60.248,14.911h79.5v17.381h-79.5V14.911z M78.748,21.601
	c-1.104,0-2,0.896-2,2s0.896,2,2,2s2-0.896,2-2S79.854,21.601,78.748,21.601z M121.248,21.601c-1.104,0-2,0.896-2,2s0.896,2,2,2
	c1.105,0,2-0.896,2-2S122.354,21.601,121.248,21.601z"/>
<g>
	<path d="M96.591,75.731H81.039v-1.536c0.605-0.736,1.303-1.664,2.088-2.784c0.784-1.12,1.6-2.344,2.448-3.672
		c0.848-1.327,1.68-2.736,2.495-4.224c0.816-1.488,1.543-3,2.185-4.536c0.64-1.536,1.16-3.056,1.562-4.56
		c0.398-1.504,0.6-2.944,0.6-4.32c0-1.632-0.368-2.944-1.104-3.936c-0.736-0.992-1.842-1.488-3.312-1.488
		c-0.93,0-1.833,0.176-2.712,0.528c-0.881,0.353-1.642,0.784-2.28,1.296l-1.344-2.496c0.896-0.768,1.959-1.368,3.191-1.8
		c1.23-0.432,2.535-0.648,3.912-0.648c2.367,0,4.166,0.73,5.399,2.19c1.231,1.461,1.849,3.379,1.849,5.754
		c0,1.766-0.265,3.611-0.793,5.538c-0.527,1.926-1.199,3.827-2.016,5.705s-1.721,3.684-2.712,5.417
		c-0.993,1.733-1.968,3.273-2.929,4.621l-1.969,2.118v0.144l2.545-0.432h8.447L96.591,75.731L96.591,75.731z"/>
	<path d="M117.135,42.131v3.312h-9.121v9.84l1.635-0.144c2.562,0.032,4.574,0.912,6.052,2.64c1.471,1.728,2.223,4.208,2.256,7.44
		c-0.033,1.792-0.297,3.376-0.793,4.752s-1.179,2.536-2.039,3.48c-0.864,0.944-1.872,1.656-3.021,2.136
		c-1.149,0.48-2.387,0.72-3.693,0.72c-2.209,0-3.984-0.296-5.328-0.885l0.861-3.003c0.576,0.288,1.217,0.488,1.922,0.6
		c0.703,0.112,1.521,0.168,2.447,0.168c1.82,0,3.305-0.668,4.438-2.005c1.137-1.336,1.721-3.212,1.752-5.628
		c-0.031-2.479-0.615-4.315-1.752-5.507c-1.139-1.192-2.712-1.788-4.729-1.788l-3.168,0.24V42.131H117.135z"/>
</g>
<path fill="#FFFFFF" stroke="#000000" stroke-width="0.75" d="M147.789,228.728c0,0.641-0.521,1.16-1.164,1.16H53.373
	c-0.646,0-1.164-0.52-1.164-1.16v-64.074c0-0.645,0.52-1.164,1.164-1.164h93.254c0.643,0,1.164,0.52,1.164,1.164v64.074H147.789z"/>
<path fill="#CBEFDE" d="M123.102,226.474c0,0.641-0.52,1.162-1.158,1.162h-19.723c-0.642,0-1.162-0.521-1.162-1.162V209.49
	c0-0.645,0.521-1.164,1.162-1.164h19.725c0.644,0,1.158,0.521,1.158,1.164L123.102,226.474L123.102,226.474z"/>
<path fill="#CBEFDE" d="M99.844,205.568c0,0.648-0.521,1.168-1.162,1.168H78.963c-0.645,0-1.164-0.52-1.164-1.168v-15.387
	c0-0.646,0.521-1.166,1.164-1.166h19.719c0.643,0,1.162,0.52,1.162,1.166V205.568L99.844,205.568z"/>
<path fill="#CBEFDE" d="M145.25,185.802c0,0.639-0.52,1.16-1.162,1.16h-88.39c-0.644,0-1.162-0.521-1.162-1.16v-18.824
	c0-0.643,0.521-1.164,1.162-1.164h88.39c0.646,0,1.162,0.521,1.162,1.164V185.802z"/>
<path fill="#CBEFDE" d="M76.58,226.474c0,0.641-0.521,1.162-1.16,1.162H55.699c-0.645,0-1.162-0.521-1.162-1.162V209.49
	c0-0.645,0.52-1.164,1.162-1.164H75.42c0.641,0,1.16,0.521,1.16,1.164V226.474z"/>
<path fill="#CBEFDE" d="M99.844,226.474c0,0.641-0.521,1.162-1.162,1.162H78.963c-0.645,0-1.164-0.521-1.164-1.162V209.49
	c0-0.645,0.521-1.164,1.164-1.164h19.719c0.643,0,1.162,0.521,1.162,1.164V226.474L99.844,226.474z"/>
<path fill="#CBEFDE" d="M76.58,205.568c0,0.648-0.521,1.168-1.16,1.168H55.699c-0.645,0-1.162-0.52-1.162-1.168v-15.387
	c0-0.646,0.52-1.166,1.162-1.166H75.42c0.641,0,1.16,0.52,1.16,1.166V205.568z"/>
<path fill="#CBEFDE" d="M123.102,205.568c0,0.648-0.52,1.168-1.158,1.168h-19.723c-0.642,0-1.162-0.52-1.162-1.168v-15.387
	c0-0.646,0.521-1.166,1.162-1.166h19.725c0.644,0,1.158,0.52,1.158,1.166L123.102,205.568L123.102,205.568z"/>
<path fill="#CBEFDE" d="M145.25,226.474c0,0.641-0.52,1.162-1.162,1.162h-17.605c-0.646,0-1.164-0.521-1.164-1.162v-36.293
	c0-0.646,0.521-1.166,1.164-1.166h17.604c0.646,0,1.162,0.52,1.162,1.166L145.25,226.474L145.25,226.474z"/>
</svg>
