<?xml version="1.0" encoding="utf-8"?>
<!-- Generator: Adobe Illustrator 14.0.0, SVG Export Plug-In . SVG Version: 6.00 Build 43363)  -->
<!DOCTYPE svg PUBLIC "-//W3C//DTD SVG 1.1//EN" "http://www.w3.org/Graphics/SVG/1.1/DTD/svg11.dtd">
<svg version="1.1" id="Layer_6" xmlns="http://www.w3.org/2000/svg" xmlns:xlink="http://www.w3.org/1999/xlink" x="0px" y="0px"
	 width="180px" height="244.8px" viewBox="-18 0 180 244.8" enable-background="new -18 0 180 244.8" xml:space="preserve">
<path fill="#BCBCBC" d="M84.527,163.648H66.271c0,0,0.171-2.266,0.171-2.841c0-0.578,2.877-32.507,2.877-32.507
	s0.332-2.852-1.215-5.172c-1.548-2.322-3.427-4.752-3.427-4.752s-3.096-2.432-4.643-8.845c0,0-2.542-6.742-4.091-7.958
	c-1.548-1.217-1.665-4.642,1.543-3.758l2.878,1.548c0,0,1.055,0.771,1.688,2.541c0.634,1.769,1.296,4.532,1.738,5.085
	c0.444,0.551,1.66,1.769,1.99,1.769c0.333,0,2.322-1.195,2.212-5.519c-0.112-4.319-0.775-17.251-0.775-17.251
	s0.345-4.532,1.996-4.753c1.653-0.221,1.432-0.442,1.983,0c0.551,0.441,0.995,4.09,0.995,4.863c0,0.774,0,10.28,0,10.28
	s0.332,1.989,1.105,2.1c0.771,0.111,1.217-0.885,1.326-1.546l0.806-1.299l0.94-0.744h0.693c0,0,1.042,0.347,1.141,0.744
	c0.102,0.397,0.51,1.629,0.51,1.629l0.222,0.995c0,0,0.779,0.66,1.326-0.441c0,0,0.769-1.093,1.414-0.943
	c0.642,0.147,1.337,0.445,1.337,0.445l0.785,0.893v0.843v0.42v1.438c0,0,0.314,0.878,1.105,0.108c0,0,0.733-0.33,1.182-0.231
	c0.445,0.101,1.041,0.347,1.041,0.347l0.892,0.744l0.312,1.04v1.306l-0.551,1.881l-0.33,2.431c0,0-1.992,8.844-3.317,11.054
	c-1.325,2.212-1.657,3.759-1.657,3.759l-0.488,4.951l1.783,23.893l0.771,11.357L84.527,163.648z"/>
<rect x="35.562" y="36.353" fill="#FFFFFF" stroke="#000000" stroke-width="0.75" width="79.501" height="44.955"/>
<path fill="#FFFFFF" stroke="#000000" stroke-width="0.75" d="M35.562,14.911h79.501v17.381H35.562V14.911z M54.062,21.601
	c-1.104,0-2,0.896-2,2s0.896,2,2,2s2-0.896,2-2S55.167,21.601,54.062,21.601z M96.563,21.601c-1.104,0-2,0.896-2,2s0.896,2,2,2
	s2-0.896,2-2S97.668,21.601,96.563,21.601z"/>
<g>
	<path d="M71.905,75.731H56.353v-1.536c0.606-0.736,1.303-1.664,2.088-2.784c0.784-1.12,1.6-2.344,2.448-3.672
		c0.848-1.327,1.68-2.736,2.496-4.224c0.815-1.488,1.543-3,2.184-4.536c0.64-1.536,1.16-3.056,1.561-4.56
		c0.399-1.504,0.6-2.944,0.6-4.32c0-1.632-0.368-2.944-1.104-3.936c-0.736-0.992-1.841-1.488-3.312-1.488
		c-0.929,0-1.833,0.176-2.712,0.528c-0.881,0.353-1.642,0.784-2.28,1.296l-1.344-2.496c0.896-0.768,1.959-1.368,3.191-1.8
		c1.231-0.432,2.536-0.648,3.912-0.648c2.368,0,4.167,0.73,5.4,2.19c1.231,1.461,1.848,3.379,1.848,5.754
		c0,1.766-0.264,3.611-0.792,5.538c-0.527,1.926-1.199,3.827-2.016,5.705c-0.817,1.878-1.721,3.684-2.712,5.417
		c-0.993,1.733-1.968,3.273-2.928,4.621l-1.969,2.118v0.144l2.544-0.432h8.448L71.905,75.731L71.905,75.731z"/>
	<path d="M92.449,42.131v3.312h-9.121v9.84l1.635-0.144c2.56,0.032,4.574,0.912,6.048,2.64c1.472,1.728,2.224,4.208,2.256,7.44
		c-0.032,1.792-0.297,3.376-0.792,4.752c-0.497,1.376-1.176,2.536-2.04,3.48c-0.864,0.944-1.872,1.656-3.024,2.136
		c-1.149,0.48-2.383,0.72-3.693,0.72c-2.208,0-3.984-0.296-5.328-0.885l0.861-3.003c0.576,0.288,1.218,0.488,1.923,0.6
		c0.702,0.112,1.521,0.168,2.446,0.168c1.824,0,3.305-0.668,4.439-2.005c1.137-1.336,1.721-3.212,1.752-5.628
		c-0.031-2.479-0.615-4.315-1.752-5.507c-1.137-1.192-2.712-1.788-4.729-1.788l-3.168,0.24V42.131H92.449z"/>
</g>
<path fill="#FFFFFF" stroke="#000000" stroke-width="0.75" d="M123.104,228.728c0,0.641-0.522,1.16-1.164,1.16H28.687
	c-0.646,0-1.164-0.52-1.164-1.16v-64.074c0-0.645,0.52-1.164,1.164-1.164h93.254c0.642,0,1.164,0.52,1.164,1.164V228.728z"/>
<path fill="#BCBCBC" d="M98.416,226.474c0,0.641-0.52,1.162-1.158,1.162H77.535c-0.642,0-1.162-0.521-1.162-1.162V209.49
	c0-0.645,0.521-1.164,1.162-1.164h19.724c0.642,0,1.159,0.521,1.159,1.164L98.416,226.474L98.416,226.474z"/>
<path fill="#BCBCBC" d="M75.158,205.568c0,0.648-0.521,1.168-1.162,1.168H54.277c-0.645,0-1.164-0.52-1.164-1.168v-15.387
	c0-0.646,0.521-1.166,1.164-1.166h19.719c0.642,0,1.162,0.52,1.162,1.166V205.568L75.158,205.568z"/>
<path fill="#BCBCBC" d="M120.565,185.802c0,0.639-0.52,1.16-1.163,1.16h-88.39c-0.644,0-1.162-0.521-1.162-1.16v-18.824
	c0-0.643,0.52-1.164,1.162-1.164h88.39c0.646,0,1.163,0.521,1.163,1.164V185.802z"/>
<path fill="#BCBCBC" d="M51.894,226.474c0,0.641-0.521,1.162-1.16,1.162H31.013c-0.644,0-1.162-0.521-1.162-1.162V209.49
	c0-0.645,0.52-1.164,1.162-1.164h19.721c0.641,0,1.16,0.521,1.16,1.164V226.474z"/>
<path fill="#BCBCBC" d="M75.158,226.474c0,0.641-0.521,1.162-1.162,1.162H54.277c-0.645,0-1.164-0.521-1.164-1.162V209.49
	c0-0.645,0.521-1.164,1.164-1.164h19.719c0.642,0,1.162,0.521,1.162,1.164V226.474L75.158,226.474z"/>
<path fill="#BCBCBC" d="M51.894,205.568c0,0.648-0.521,1.168-1.16,1.168H31.013c-0.644,0-1.162-0.52-1.162-1.168v-15.387
	c0-0.646,0.52-1.166,1.162-1.166h19.721c0.641,0,1.16,0.52,1.16,1.166V205.568z"/>
<path fill="#BCBCBC" d="M98.416,205.568c0,0.648-0.52,1.168-1.158,1.168H77.535c-0.642,0-1.162-0.52-1.162-1.168v-15.387
	c0-0.646,0.521-1.166,1.162-1.166h19.724c0.642,0,1.159,0.52,1.159,1.166L98.416,205.568L98.416,205.568z"/>
<path fill="#BCBCBC" d="M120.565,226.474c0,0.641-0.52,1.162-1.163,1.162h-17.606c-0.646,0-1.164-0.521-1.164-1.162v-36.293
	c0-0.646,0.521-1.166,1.164-1.166H119.4c0.646,0,1.163,0.52,1.163,1.166L120.565,226.474L120.565,226.474z"/>
</svg>
