<?xml version="1.0" encoding="utf-8"?>
<!-- Generator: Adobe Illustrator 14.0.0, SVG Export Plug-In . SVG Version: 6.00 Build 43363)  -->
<!DOCTYPE svg PUBLIC "-//W3C//DTD SVG 1.1//EN" "http://www.w3.org/Graphics/SVG/1.1/DTD/svg11.dtd">
<svg version="1.1" id="Layer_1" xmlns="http://www.w3.org/2000/svg" xmlns:xlink="http://www.w3.org/1999/xlink" x="0px" y="0px"
	 width="86.4px" height="86.4px" viewBox="0 0 86.4 86.4" enable-background="new 0 0 86.4 86.4" xml:space="preserve">
<path fill="#AAD5C4" d="M43.198,72.749L25.923,39.448c-1.058-2.462-1.646-5.19-1.646-8.066c0-10.896,8.476-19.729,18.926-19.729
	c10.455,0,18.926,8.833,18.926,19.729c0,2.729-0.521,5.322-1.479,7.688L43.198,72.749z M43.2,22.728
	c-2.759,0-4.996,2.23-4.996,4.995c0,2.758,2.238,4.987,4.996,4.987c2.76,0,4.994-2.23,4.994-4.987
	C48.194,24.965,45.961,22.728,43.2,22.728z"/>
</svg>
