<?xml version="1.0" encoding="utf-8"?>
<!-- Generator: Adobe Illustrator 14.0.0, SVG Export Plug-In . SVG Version: 6.00 Build 43363)  -->
<!DOCTYPE svg PUBLIC "-//W3C//DTD SVG 1.1//EN" "http://www.w3.org/Graphics/SVG/1.1/DTD/svg11.dtd">
<svg version="1.1" id="Layer_1" xmlns="http://www.w3.org/2000/svg" xmlns:xlink="http://www.w3.org/1999/xlink" x="0px" y="0px"
	 width="125.004px" height="120px" viewBox="0 0 125.004 120" enable-background="new 0 0 125.004 120" xml:space="preserve">
<g id="Layer_1_1_" display="none">
	
		<text transform="matrix(1 0 0 1 22.0269 157.9336)" display="inline" fill="#659099" font-family="'PTSans-NarrowBold'" font-size="63.7596">DORA CHAN</text>
	<g id="Layer_2_4_" display="inline">
		<g id="Layer_2_5_">
			<path d="M158.645,73.926l-9.033-12.832l7.973-16.403h-8.955l-4.1,9.94l-6.146-8.883c1.316-0.808,2.582-1.695,3.793-2.657
				c1.216-0.958,2.277-2.022,3.189-3.188c0.908-1.163,1.643-2.452,2.201-3.871c0.557-1.417,0.834-2.987,0.834-4.709
				c0-1.972-0.303-3.743-0.906-5.314c-0.604-1.567-1.438-2.894-2.496-3.985c-1.062-1.088-2.322-1.922-3.783-2.504
				c-1.461-0.58-3.079-0.873-4.842-0.873c-1.813,0-3.521,0.317-5.108,0.951c-1.589,0.634-2.949,1.531-4.086,2.695
				c-1.136,1.165-2.029,2.581-2.687,4.25c-0.654,1.669-0.986,3.542-0.986,5.618c0,2.176,0.328,4.188,0.988,6.032
				c0.654,1.85,1.693,3.788,3.111,5.808c-2.584,1.519-4.744,3.521-6.49,6c-1.748,2.48-2.617,5.568-2.617,9.259
				c0,5.064,1.291,8.973,3.869,11.729c2.582,2.76,6.023,4.139,10.324,4.139c2.934,0,5.35-0.664,7.25-1.992
				c1.896-1.329,3.348-2.918,4.359-4.772l3.873,5.553L158.645,73.926z M139.825,61.999c-0.455,1.317-1.216,2.543-2.275,3.678
				c-1.064,1.142-2.402,1.709-4.023,1.709c-1.926,0-3.479-0.77-4.67-2.315c-1.188-1.543-1.781-3.654-1.781-6.336
				c0-2.275,0.479-4.125,1.439-5.543c0.961-1.413,2-2.479,3.109-3.188L139.825,61.999z M138.812,36.987
				c-1.127,1.392-2.442,2.59-3.946,3.604c-1.007-1.414-1.759-2.778-2.261-4.095c-0.5-1.315-0.752-2.759-0.752-4.328
				c0-1.823,0.414-3.366,1.242-4.629c0.825-1.266,1.918-1.898,3.272-1.898c1.354,0,2.383,0.58,3.084,1.745
				c0.701,1.166,1.055,2.655,1.055,4.476C140.508,33.888,139.943,35.594,138.812,36.987z M201.758,73.926l-9.033-12.832
				l7.971-16.403h-8.949l-4.104,9.94l-6.146-8.883c1.312-0.808,2.574-1.695,3.795-2.657c1.215-0.958,2.273-2.022,3.188-3.188
				c0.914-1.163,1.646-2.452,2.203-3.871c0.562-1.417,0.836-2.987,0.836-4.709c0-1.972-0.306-3.743-0.91-5.314
				c-0.604-1.567-1.438-2.894-2.491-3.985c-1.062-1.088-2.318-1.922-3.779-2.504c-1.461-0.58-3.078-0.873-4.844-0.873
				c-1.812,0-3.521,0.317-5.105,0.951c-1.588,0.634-2.949,1.531-4.086,2.695c-1.137,1.165-2.025,2.581-2.688,4.25
				c-0.652,1.669-0.98,3.542-0.98,5.618c0,2.176,0.328,4.188,0.984,6.032c0.651,1.85,1.692,3.788,3.108,5.808
				c-2.58,1.519-4.744,3.521-6.492,6c-1.741,2.48-2.614,5.568-2.614,9.259c0,5.064,1.291,8.973,3.873,11.729
				c2.58,2.76,6.021,4.139,10.319,4.139c2.931,0,5.354-0.664,7.25-1.992c1.896-1.329,3.354-2.918,4.362-4.772l3.875,5.553
				L201.758,73.926z M182.938,61.999c-0.451,1.317-1.211,2.543-2.271,3.678c-1.062,1.142-2.396,1.709-4.021,1.709
				c-1.924,0-3.479-0.77-4.666-2.315c-1.19-1.543-1.785-3.654-1.785-6.336c0-2.275,0.479-4.125,1.438-5.543
				c0.961-1.413,2-2.479,3.115-3.188L182.938,61.999z M181.93,36.987c-1.129,1.392-2.445,2.59-3.951,3.604
				c-1.004-1.414-1.758-2.778-2.26-4.095c-0.5-1.315-0.75-2.759-0.75-4.328c0-1.823,0.412-3.366,1.238-4.629
				c0.83-1.266,1.922-1.898,3.274-1.898s2.384,0.58,3.082,1.745c0.701,1.166,1.058,2.655,1.058,4.476
				C183.622,33.888,183.059,35.594,181.93,36.987z"/>
		</g>
		<path fill="none" stroke="#000000" stroke-width="3" d="M203.098,83.695c6.914,0,12.521-5.604,12.521-12.521V22.598
			c0-6.914-5.604-12.52-12.521-12.52h-86.195c-6.916,0-12.521,5.606-12.521,12.52v48.576c0,6.916,5.604,12.521,12.521,12.521h64.311
			l20.548,16.994L203.098,83.695z"/>
	</g>
	
		<text transform="matrix(1 0 0 1 63.9185 194.0234)" display="inline" fill="#CCDD59" font-family="'PTSans-Narrow'" font-size="36">WEB DESIGNER</text>
	<text transform="matrix(1 0 0 1 92.9771 210.0234)" display="inline" font-family="'PTSans-Narrow'" font-size="14">ASPIRATIONAL DEVELOPER</text>
	<g id="Layer_3_2_" display="inline">
		<line fill="none" stroke="#000000" stroke-width="1.4" x1="294.967" y1="162.562" x2="24.967" y2="162.562"/>
	</g>
</g>
<g id="Layer_2_3_">
	<path d="M60.584,80.852L50.425,66.421l8.966-18.448H49.32l-4.611,11.179l-6.912-9.989c1.48-0.908,2.904-1.906,4.265-2.988
		c1.368-1.077,2.561-2.273,3.587-3.584c1.022-1.308,1.847-2.758,2.477-4.354c0.625-1.594,0.938-3.359,0.938-5.295
		c0-2.219-0.341-4.21-1.021-5.977c-0.68-1.761-1.618-3.254-2.807-4.48c-1.194-1.224-2.612-2.162-4.255-2.816
		c-1.643-0.652-3.463-0.981-5.445-0.981c-2.04,0-3.96,0.355-5.745,1.069c-1.787,0.712-3.317,1.721-4.595,3.03
		c-1.277,1.311-2.282,2.903-3.021,4.78c-0.735,1.876-1.109,3.983-1.109,6.318c0,2.446,0.369,4.709,1.111,6.782
		c0.736,2.082,1.905,4.261,3.5,6.533c-2.906,1.708-5.337,3.96-7.3,6.747c-1.966,2.79-2.943,6.262-2.943,10.414
		c0,5.695,1.452,10.09,4.352,13.189c2.903,3.104,6.773,4.656,11.61,4.656c3.299,0,6.017-0.748,8.153-2.24
		c2.133-1.494,3.765-3.282,4.904-5.369l4.354,6.244L60.584,80.852z M39.418,67.437c-0.51,1.48-1.366,2.859-2.559,4.137
		c-1.196,1.283-2.702,1.922-4.524,1.922c-2.165,0-3.912-0.865-5.251-2.604c-1.334-1.732-2.004-4.108-2.004-7.124
		c0-2.56,0.538-4.64,1.62-6.234c1.081-1.588,2.249-2.789,3.498-3.585L39.418,67.437z M38.281,39.31
		c-1.267,1.565-2.748,2.912-4.437,4.052c-1.134-1.59-1.978-3.124-2.543-4.605c-0.562-1.479-0.846-3.103-0.846-4.867
		c0-2.05,0.467-3.785,1.398-5.206c0.928-1.424,2.157-2.134,3.68-2.134s2.68,0.652,3.468,1.961c0.789,1.311,1.187,2.986,1.187,5.034
		C40.187,35.823,39.553,37.743,38.281,39.31z M109.071,80.852l-10.16-14.431l8.963-18.448H97.809l-4.615,11.179l-6.912-9.989
		c1.478-0.908,2.896-1.906,4.269-2.988c1.366-1.077,2.558-2.273,3.586-3.584c1.026-1.308,1.851-2.758,2.478-4.354
		c0.631-1.594,0.94-3.359,0.94-5.295c0-2.219-0.345-4.21-1.024-5.977c-0.679-1.761-1.617-3.254-2.802-4.48
		c-1.194-1.224-2.606-2.162-4.249-2.816c-1.645-0.652-3.462-0.981-5.447-0.981c-2.037,0-3.961,0.355-5.742,1.069
		c-1.784,0.712-3.317,1.721-4.594,3.03c-1.279,1.311-2.281,2.903-3.025,4.78c-0.731,1.876-1.1,3.983-1.1,6.318
		c0,2.446,0.368,4.709,1.106,6.782c0.733,2.082,1.903,4.261,3.498,6.533c-2.902,1.708-5.336,3.96-7.302,6.747
		c-1.959,2.79-2.941,6.262-2.941,10.414c0,5.695,1.452,10.09,4.355,13.189c2.901,3.104,6.77,4.656,11.605,4.656
		c3.295,0,6.021-0.748,8.153-2.24c2.133-1.494,3.774-3.282,4.907-5.369l4.356,6.244L109.071,80.852z M87.903,67.437
		c-0.508,1.48-1.361,2.859-2.553,4.137c-1.193,1.283-2.697,1.922-4.521,1.922c-2.164,0-3.912-0.865-5.248-2.604
		c-1.34-1.732-2.008-4.108-2.008-7.124c0-2.56,0.539-4.64,1.616-6.234c1.082-1.588,2.249-2.789,3.507-3.585L87.903,67.437z
		 M86.77,39.31c-1.271,1.565-2.751,2.912-4.443,4.052c-1.129-1.59-1.978-3.124-2.541-4.605c-0.562-1.479-0.844-3.103-0.844-4.867
		c0-2.05,0.463-3.785,1.395-5.206c0.934-1.424,2.158-2.134,3.681-2.134c1.521,0,2.681,0.652,3.466,1.961
		c0.789,1.311,1.189,2.986,1.189,5.034C88.672,35.823,88.04,37.743,86.77,39.31z"/>
</g>
<g id="Layer_2_2_" display="none">
	<path display="inline" fill="none" stroke="#000000" stroke-width="3" d="M203.098,83.695c6.914,0,12.521-5.604,12.521-12.521
		V22.598c0-6.914-5.604-12.52-12.521-12.52h-86.195c-6.916,0-12.521,5.606-12.521,12.52v48.576c0,6.916,5.604,12.521,12.521,12.521
		h64.311l20.548,16.994L203.098,83.695z"/>
</g>
<path fill="none" stroke="#000000" stroke-width="3" d="M111.421,98.236c6.208,0,11.245-5.034,11.245-11.246V13.895
	c0-6.211-5.037-11.246-11.245-11.246H13.582c-6.211,0-11.245,5.034-11.245,11.246v73.097c0,6.213,5.034,11.246,11.246,11.246H83.01
	l24.062,19.114L111.421,98.236z"/>
</svg>
