<?xml version="1.0" encoding="utf-8"?>
<!-- Generator: Adobe Illustrator 14.0.0, SVG Export Plug-In . SVG Version: 6.00 Build 43363)  -->
<!DOCTYPE svg PUBLIC "-//W3C//DTD SVG 1.1//EN" "http://www.w3.org/Graphics/SVG/1.1/DTD/svg11.dtd">
<svg version="1.1" id="Layer_1" xmlns="http://www.w3.org/2000/svg" xmlns:xlink="http://www.w3.org/1999/xlink" x="0px" y="0px"
	 width="300px" height="140px" viewBox="0 0 300 140" enable-background="new 0 0 300 140" xml:space="preserve">
<g id="Layer_3">
	<g>
		<path fill="#659099" d="M46.185,135.914h-8.257l-5.864-31.832h-0.12l-5.864,31.832h-8.256L9.746,93.553h7.301l5.443,32.91h0.24
			l5.686-32.91h7.539l5.862,32.91h0.121l5.444-32.91h6.942L46.185,135.914z"/>
		<path fill="#659099" d="M59.35,135.914V93.553h18.967v6.344H66.231v11.248h11.188v5.865H66.231v12.506h12.685v6.402L59.35,135.914
			L59.35,135.914z"/>
		<path fill="#659099" d="M109.909,124.067c0,2.235-0.369,4.099-1.107,5.595c-0.737,1.495-1.675,2.714-2.812,3.652
			c-1.136,0.936-2.414,1.605-3.828,2.002c-1.417,0.399-2.805,0.602-4.159,0.602H85.437V93.553h11.25
			c1.234,0,2.552,0.148,3.948,0.449c1.396,0.297,2.671,0.837,3.829,1.611c1.157,0.779,2.114,1.857,2.872,3.234
			c0.757,1.375,1.136,3.16,1.136,5.355c0,2.633-0.558,4.705-1.676,6.225c-1.118,1.514-2.413,2.572-3.89,3.17v0.121
			c0.798,0.197,1.605,0.533,2.424,1.016c0.818,0.48,1.564,1.146,2.244,2.003c0.679,0.856,1.236,1.895,1.676,3.11
			C109.691,121.064,109.909,122.473,109.909,124.067z M102.012,105.338c0-1.076-0.169-1.984-0.505-2.722
			c-0.336-0.735-0.771-1.338-1.308-1.797c-0.535-0.456-1.161-0.786-1.874-0.986c-0.715-0.198-1.447-0.299-2.199-0.299H92.2v11.788
			h4.044c0.713,0,1.418-0.107,2.112-0.33c0.693-0.217,1.308-0.567,1.843-1.047c0.536-0.479,0.972-1.095,1.308-1.854
			C101.843,107.333,102.012,106.414,102.012,105.338z M103.029,123.47c0-1.237-0.199-2.284-0.596-3.142
			c-0.397-0.859-0.912-1.557-1.548-2.098c-0.635-0.535-1.328-0.924-2.082-1.164c-0.752-0.239-1.508-0.361-2.261-0.361H92.2v13.226
			h4.522c0.873,0,1.685-0.128,2.439-0.39c0.752-0.258,1.417-0.658,1.993-1.197c0.574-0.537,1.031-1.207,1.369-2.004
			C102.86,125.545,103.029,124.587,103.029,123.47z"/>
		<path fill="#659099" d="M155.383,114.793c0,6.703-1.404,11.896-4.216,15.586c-2.812,3.689-6.951,5.535-12.416,5.535h-10.59V93.553
			h10.649c5.425,0,9.544,1.862,12.356,5.595C153.979,102.877,155.383,108.092,155.383,114.793z M148.206,114.793
			c0-2.514-0.23-4.707-0.69-6.582c-0.458-1.877-1.106-3.43-1.943-4.669c-0.838-1.235-1.835-2.165-2.993-2.781
			c-1.158-0.618-2.413-0.931-3.77-0.931h-3.411v29.8h3.411c1.356,0,2.612-0.312,3.77-0.93c1.158-0.618,2.156-1.546,2.993-2.784
			s1.484-2.781,1.943-4.636C147.975,119.429,148.206,117.266,148.206,114.793z"/>
		<path fill="#659099" d="M162.205,135.914V93.553h18.969v6.344h-12.086v11.248h11.188v5.865h-11.188v12.506h12.686v6.402
			L162.205,135.914L162.205,135.914z"/>
		<path fill="#659099" d="M204.93,101.748c-1.557-1.877-3.512-2.811-5.865-2.811c-0.68,0-1.338,0.105-1.975,0.328
			c-0.641,0.219-1.218,0.568-1.734,1.048c-0.518,0.479-0.926,1.097-1.227,1.854c-0.299,0.759-0.451,1.657-0.451,2.694
			c0,1.793,0.537,3.18,1.614,4.157c1.08,0.978,2.492,1.906,4.253,2.784c1.036,0.518,2.093,1.117,3.169,1.796
			c1.078,0.679,2.054,1.495,2.935,2.452c0.875,0.959,1.595,2.097,2.153,3.413c0.557,1.317,0.839,2.87,0.839,4.667
			c0,2.078-0.332,3.905-0.989,5.506c-0.655,1.596-1.534,2.943-2.632,4.037c-1.096,1.099-2.385,1.926-3.858,2.482
			c-1.478,0.559-3.031,0.837-4.665,0.837c-2.356,0-4.531-0.455-6.523-1.374c-1.996-0.918-3.588-2.074-4.787-3.468l3.892-5.266
			c0.915,1.117,2.021,1.995,3.319,2.632c1.295,0.637,2.623,0.959,3.979,0.959c1.517,0,2.773-0.52,3.773-1.559
			c0.994-1.037,1.493-2.49,1.493-4.37c0-1.835-0.6-3.29-1.8-4.368c-1.195-1.078-2.711-2.074-4.544-2.99
			c-1.161-0.559-2.241-1.176-3.265-1.855c-1.012-0.678-1.914-1.484-2.691-2.424c-0.775-0.936-1.399-2.034-1.855-3.291
			c-0.457-1.258-0.69-2.762-0.69-4.519c0-2.196,0.347-4.079,1.05-5.653c0.699-1.576,1.615-2.882,2.752-3.917
			c1.136-1.042,2.424-1.805,3.859-2.307c1.438-0.499,2.895-0.751,4.369-0.751c2.156,0,4.08,0.351,5.775,1.05
			c1.692,0.7,3.12,1.724,4.278,3.082L204.93,101.748z"/>
		<path fill="#659099" d="M215.16,135.914V93.553h7.182v42.364h-7.182V135.914z"/>
		<path fill="#659099" d="M251.568,135.854c-1.771,0.642-3.898,0.959-6.369,0.959c-2.515,0-4.77-0.527-6.762-1.584
			c-1.996-1.059-3.682-2.564-5.059-4.519c-1.375-1.956-2.43-4.286-3.172-7.003c-0.735-2.709-1.104-5.719-1.104-9.033
			c0-3.23,0.356-6.203,1.076-8.918c0.721-2.711,1.756-5.054,3.111-7.029c1.356-1.974,2.991-3.51,4.907-4.606
			c1.914-1.098,4.068-1.647,6.459-1.647c2.515,0,4.69,0.451,6.524,1.347c1.833,0.897,3.333,2.165,4.49,3.802l-4.13,5.025
			c-1.596-2.314-3.75-3.473-6.465-3.473c-1.477,0-2.761,0.422-3.859,1.258c-1.092,0.84-2.001,1.967-2.717,3.385
			c-0.723,1.412-1.257,3.061-1.617,4.932c-0.361,1.879-0.537,3.855-0.537,5.926c0,2.155,0.179,4.18,0.537,6.072
			c0.36,1.896,0.895,3.551,1.617,4.968c0.716,1.416,1.625,2.522,2.717,3.319c1.099,0.802,2.402,1.199,3.922,1.199
			c0.962,0,1.822-0.109,2.6-0.33c0.779-0.219,1.41-0.508,1.887-0.869v-10.947h-5.148v-6.228h11.67v21.48
			C254.871,134.379,253.346,135.218,251.568,135.854z"/>
		<path fill="#659099" d="M282.356,135.914l-12.028-29.918h-0.18l0.119,29.918h-6.463V93.553h8.199l11.908,30.098h0.18
			l-0.061-30.098h6.221v42.364h-7.896V135.914L282.356,135.914z"/>
	</g>
</g>
<g id="Layer_4">
	<path fill="#1E1E1E" d="M135.563,76.912l-4.675-6.704c-1.224,2.241-2.979,4.16-5.271,5.765c-2.291,1.603-5.21,2.404-8.753,2.404
		c-5.194,0-9.35-1.663-12.468-4.995c-3.115-3.329-4.675-8.049-4.675-14.162c0-4.459,1.055-8.188,3.163-11.184
		c2.109-2.991,4.721-5.408,7.837-7.241c-1.712-2.441-2.964-4.78-3.758-7.013c-0.797-2.229-1.192-4.658-1.192-7.287
		c0-2.505,0.396-4.767,1.188-6.782c0.793-2.018,1.874-3.727,3.245-5.134c1.371-1.405,3.016-2.489,4.934-3.254
		c1.919-0.764,3.976-1.146,6.17-1.146c2.131,0,4.079,0.352,5.846,1.054c1.767,0.703,3.291,1.712,4.57,3.025
		c1.278,1.314,2.285,2.918,3.015,4.812c0.73,1.896,1.097,4.033,1.097,6.416c0,2.078-0.337,3.973-1.008,5.684
		c-0.673,1.712-1.559,3.27-2.658,4.675c-1.101,1.406-2.384,2.69-3.851,3.85c-1.466,1.161-2.994,2.231-4.583,3.208l7.424,10.726
		l4.95-12.008h10.815l-9.625,19.808l10.909,15.496L135.563,76.912z M115.581,48.037c-1.345,0.856-2.599,2.142-3.759,3.851
		c-1.162,1.712-1.741,3.941-1.741,6.691c0,3.238,0.718,5.79,2.154,7.653c1.435,1.865,3.314,2.796,5.637,2.796
		c1.955,0,3.575-0.688,4.858-2.062c1.284-1.375,2.201-2.854,2.749-4.445L115.581,48.037z M126.305,26.13
		c0-2.199-0.425-4-1.271-5.407c-0.847-1.405-2.089-2.107-3.725-2.107s-2.954,0.765-3.953,2.291c-1.001,1.528-1.5,3.392-1.5,5.592
		c0,1.895,0.302,3.636,0.908,5.225c0.605,1.591,1.515,3.239,2.727,4.95c1.815-1.223,3.405-2.673,4.768-4.354
		C125.623,30.638,126.305,28.575,126.305,26.13z"/>
	<path fill="#1E1E1E" d="M187.629,76.912l-4.676-6.704c-1.225,2.241-2.98,4.16-5.271,5.765c-2.291,1.603-5.211,2.404-8.754,2.404
		c-5.195,0-9.348-1.663-12.465-4.995c-3.117-3.329-4.676-8.049-4.676-14.162c0-4.459,1.053-8.188,3.16-11.184
		c2.109-2.991,4.723-5.408,7.838-7.241c-1.711-2.441-2.965-4.78-3.758-7.013c-0.797-2.229-1.191-4.658-1.191-7.287
		c0-2.505,0.393-4.767,1.188-6.782c0.791-2.018,1.873-3.727,3.242-5.134c1.371-1.405,3.016-2.489,4.934-3.254
		c1.92-0.764,3.977-1.146,6.168-1.146c2.131,0,4.08,0.352,5.846,1.054c1.768,0.703,3.289,1.712,4.57,3.025
		c1.277,1.314,2.283,2.918,3.014,4.812c0.73,1.896,1.098,4.033,1.098,6.416c0,2.078-0.34,3.973-1.01,5.684
		c-0.672,1.712-1.557,3.27-2.66,4.675c-1.098,1.406-2.381,2.69-3.848,3.85c-1.467,1.161-2.994,2.231-4.582,3.208l7.424,10.726
		l4.951-12.008h10.814l-9.625,19.808l10.908,15.496L187.629,76.912z M167.645,48.037c-1.346,0.856-2.6,2.142-3.76,3.851
		c-1.16,1.712-1.74,3.941-1.74,6.691c0,3.238,0.719,5.79,2.154,7.653c1.434,1.865,3.314,2.796,5.637,2.796
		c1.955,0,3.574-0.688,4.857-2.062c1.283-1.375,2.201-2.854,2.75-4.445L167.645,48.037z M178.369,26.13c0-2.199-0.424-4-1.273-5.407
		c-0.848-1.405-2.088-2.107-3.725-2.107c-1.635,0-2.951,0.765-3.953,2.291c-1,1.528-1.5,3.392-1.5,5.592
		c0,1.895,0.303,3.636,0.908,5.225c0.607,1.591,1.516,3.239,2.727,4.95c1.816-1.223,3.408-2.673,4.77-4.354
		C177.688,30.638,178.369,28.575,178.369,26.13z"/>
</g>
</svg>
