<?xml version="1.0" encoding="utf-8"?>
<!-- Generator: Adobe Illustrator 14.0.0, SVG Export Plug-In . SVG Version: 6.00 Build 43363)  -->
<!DOCTYPE svg PUBLIC "-//W3C//DTD SVG 1.1//EN" "http://www.w3.org/Graphics/SVG/1.1/DTD/svg11.dtd">
<svg version="1.1" id="Layer_1" xmlns="http://www.w3.org/2000/svg" xmlns:xlink="http://www.w3.org/1999/xlink" x="0px" y="0px"
	 width="320px" height="225.125px" viewBox="0 0 320 225.125" enable-background="new 0 0 320 225.125" xml:space="preserve">
<g id="Layer_1_2_">
	<g id="Layer_1_1_" display="none">
		
			<text transform="matrix(1 0 0 1 22.0269 157.9336)" display="inline" fill="#659099" font-family="'PTSans-NarrowBold'" font-size="63.7596">DORA CHAN</text>
		<g id="Layer_2_4_" display="inline">
			<g id="Layer_2_5_">
				<path d="M158.644,73.926l-9.033-12.832l7.973-16.403h-8.955l-4.1,9.94l-6.147-8.883c1.317-0.808,2.582-1.695,3.793-2.657
					c1.216-0.958,2.277-2.022,3.19-3.188c0.909-1.163,1.643-2.452,2.202-3.871c0.556-1.417,0.834-2.987,0.834-4.709
					c0-1.972-0.303-3.743-0.908-5.314c-0.604-1.567-1.438-2.894-2.495-3.985c-1.062-1.088-2.323-1.922-3.784-2.504
					c-1.461-0.58-3.079-0.873-4.842-0.873c-1.814,0-3.521,0.317-5.108,0.951c-1.589,0.634-2.95,1.531-4.086,2.695
					c-1.136,1.165-2.029,2.581-2.686,4.25c-0.655,1.669-0.986,3.542-0.986,5.618c0,2.176,0.328,4.188,0.988,6.032
					c0.654,1.85,1.694,3.788,3.112,5.808c-2.584,1.519-4.745,3.521-6.491,6c-1.749,2.48-2.618,5.568-2.618,9.259
					c0,5.064,1.291,8.972,3.869,11.729c2.583,2.76,6.024,4.138,10.325,4.138c2.933,0,5.35-0.663,7.25-1.991
					c1.896-1.33,3.348-2.918,4.36-4.774l3.873,5.552L158.644,73.926z M139.824,61.999c-0.454,1.318-1.215,2.542-2.275,3.678
					c-1.064,1.14-2.403,1.708-4.024,1.708c-1.925,0-3.479-0.769-4.669-2.316c-1.187-1.542-1.782-3.654-1.782-6.336
					c0-2.276,0.478-4.125,1.44-5.543c0.961-1.413,2-2.479,3.11-3.188L139.824,61.999z M138.812,36.987
					c-1.127,1.392-2.443,2.59-3.946,3.604c-1.007-1.414-1.758-2.778-2.261-4.095c-0.499-1.315-0.752-2.759-0.752-4.328
					c0-1.823,0.415-3.366,1.243-4.629c0.825-1.266,1.918-1.898,3.272-1.898s2.383,0.58,3.084,1.745
					c0.702,1.166,1.055,2.655,1.055,4.476C140.508,33.888,139.943,35.594,138.812,36.987z M201.759,73.926l-9.034-12.832
					l7.971-16.403h-8.951l-4.104,9.94l-6.146-8.883c1.314-0.808,2.576-1.695,3.795-2.657c1.215-0.958,2.275-2.022,3.188-3.188
					c0.914-1.163,1.646-2.452,2.203-3.871c0.562-1.417,0.836-2.987,0.836-4.709c0-1.972-0.305-3.743-0.91-5.314
					c-0.604-1.567-1.438-2.894-2.492-3.985c-1.062-1.088-2.318-1.922-3.779-2.504c-1.461-0.58-3.078-0.873-4.844-0.873
					c-1.812,0-3.521,0.317-5.106,0.951c-1.587,0.634-2.95,1.531-4.086,2.695c-1.136,1.165-2.026,2.581-2.688,4.25
					c-0.652,1.669-0.979,3.542-0.979,5.618c0,2.176,0.327,4.188,0.983,6.032c0.654,1.85,1.695,3.788,3.111,5.808
					c-2.58,1.519-4.744,3.521-6.492,6c-1.744,2.48-2.616,5.568-2.616,9.259c0,5.064,1.29,8.972,3.872,11.729
					c2.582,2.76,6.021,4.138,10.322,4.138c2.928,0,5.353-0.663,7.25-1.991c1.896-1.33,3.354-2.918,4.363-4.774l3.874,5.552
					L201.759,73.926z M182.938,61.999c-0.451,1.318-1.211,2.542-2.271,3.678c-1.062,1.14-2.397,1.708-4.021,1.708
					c-1.924,0-3.479-0.769-4.666-2.316c-1.191-1.542-1.785-3.654-1.785-6.336c0-2.276,0.479-4.125,1.438-5.543
					c0.961-1.413,2-2.479,3.116-3.188L182.938,61.999z M181.93,36.987c-1.129,1.392-2.445,2.59-3.951,3.604
					c-1.004-1.414-1.758-2.778-2.26-4.095c-0.5-1.315-0.75-2.759-0.75-4.328c0-1.823,0.412-3.366,1.239-4.629
					c0.83-1.266,1.921-1.898,3.274-1.898c1.353,0,2.383,0.58,3.082,1.745c0.701,1.166,1.057,2.655,1.057,4.476
					C183.621,33.888,183.059,35.594,181.93,36.987z"/>
			</g>
			<path fill="none" stroke="#000000" stroke-width="3" d="M203.098,83.695c6.914,0,12.521-5.605,12.521-12.52V22.598
				c0-6.914-5.604-12.52-12.521-12.52h-86.196c-6.915,0-12.52,5.606-12.52,12.52v48.577c0,6.915,5.605,12.52,12.52,12.52h64.31
				l20.548,16.994L203.098,83.695z"/>
		</g>
		
			<text transform="matrix(1 0 0 1 63.918 194.0234)" display="inline" fill="#CCDD59" font-family="'PTSans-Narrow'" font-size="36">WEB DESIGNER</text>
		<text transform="matrix(1 0 0 1 92.9766 210.0234)" display="inline" font-family="'PTSans-Narrow'" font-size="14">ASPIRATIONAL DEVELOPER</text>
		<g id="Layer_3_2_" display="inline">
			<line fill="none" stroke="#000000" stroke-width="1.4" x1="294.968" y1="162.562" x2="24.967" y2="162.562"/>
		</g>
	</g>
	<path d="M78.229,208.805v-1.512h-0.033c-0.135,0.508-0.361,0.936-0.678,1.271c-0.315,0.336-0.764,0.509-1.342,0.509
		c-0.431,0-0.811-0.11-1.138-0.339c-0.329-0.229-0.604-0.545-0.831-0.941c-0.227-0.4-0.398-0.879-0.52-1.424
		c-0.117-0.549-0.176-1.152-0.176-1.812c0-0.654,0.055-1.256,0.168-1.801c0.11-0.543,0.279-1.01,0.5-1.396
		c0.221-0.395,0.5-0.691,0.832-0.916c0.334-0.225,0.717-0.332,1.146-0.332c0.511,0,0.938,0.152,1.29,0.471
		c0.351,0.312,0.588,0.725,0.711,1.229h0.033v-5.843h1.121v12.839h-1.086v0.002h0.003V208.805z M78.229,204.596
		c0-0.5-0.035-0.965-0.107-1.395c-0.073-0.432-0.188-0.803-0.342-1.113c-0.151-0.312-0.344-0.559-0.568-0.738
		c-0.229-0.182-0.484-0.271-0.777-0.271c-0.308,0-0.57,0.092-0.789,0.271c-0.224,0.188-0.406,0.43-0.555,0.738
		c-0.146,0.312-0.256,0.682-0.322,1.113c-0.067,0.43-0.104,0.896-0.104,1.395c0,0.482,0.031,0.939,0.104,1.365
		c0.066,0.424,0.176,0.795,0.322,1.112c0.146,0.315,0.331,0.565,0.555,0.747c0.219,0.184,0.48,0.271,0.789,0.271
		c0.303,0,0.566-0.09,0.789-0.271c0.219-0.182,0.405-0.432,0.561-0.747c0.152-0.317,0.266-0.688,0.34-1.112
		C78.192,205.535,78.229,205.082,78.229,204.596z"/>
	<path d="M82.544,204.83c0,0.463,0.039,0.895,0.119,1.281c0.079,0.391,0.195,0.729,0.348,1.021c0.154,0.289,0.35,0.519,0.581,0.679
		c0.234,0.164,0.511,0.246,0.829,0.246c0.409,0,0.738-0.123,0.987-0.371c0.247-0.25,0.44-0.55,0.577-0.896l0.851,0.492
		c-0.203,0.508-0.504,0.938-0.903,1.278c-0.402,0.349-0.914,0.521-1.537,0.521c-0.941,0-1.672-0.396-2.192-1.188
		c-0.519-0.795-0.779-1.888-0.779-3.271c0-0.658,0.067-1.269,0.203-1.813c0.136-0.554,0.329-1.029,0.585-1.427
		c0.252-0.396,0.562-0.709,0.932-0.926c0.366-0.226,0.774-0.332,1.229-0.332c0.496,0,0.915,0.104,1.261,0.319
		c0.344,0.218,0.624,0.511,0.838,0.886c0.217,0.375,0.368,0.812,0.467,1.312c0.096,0.5,0.144,1.025,0.144,1.601v0.606H82.55v-0.012
		h-0.006V204.83z M85.956,203.9c0-0.854-0.131-1.535-0.393-2.047c-0.261-0.52-0.67-0.771-1.229-0.771
		c-0.33,0-0.604,0.104-0.828,0.297c-0.222,0.197-0.4,0.441-0.546,0.729c-0.144,0.287-0.243,0.604-0.308,0.933
		c-0.063,0.321-0.094,0.612-0.094,0.858L85.956,203.9L85.956,203.9z"/>
	<path d="M92.324,201.844c-0.149-0.246-0.341-0.451-0.57-0.604c-0.229-0.151-0.511-0.229-0.841-0.229
		c-0.363,0-0.659,0.134-0.893,0.396c-0.232,0.266-0.348,0.612-0.348,1.041c0,0.456,0.111,0.782,0.338,0.987
		c0.229,0.205,0.567,0.392,1.021,0.562c0.226,0.092,0.451,0.201,0.678,0.328c0.227,0.131,0.428,0.293,0.604,0.485
		c0.176,0.188,0.319,0.42,0.435,0.688c0.112,0.266,0.169,0.586,0.169,0.959c0,0.824-0.225,1.467-0.669,1.928
		c-0.449,0.457-1.028,0.688-1.741,0.688c-0.477,0-0.912-0.108-1.308-0.33c-0.396-0.224-0.726-0.517-0.984-0.896l0.681-0.729
		c0.191,0.297,0.422,0.532,0.687,0.723c0.267,0.188,0.58,0.281,0.942,0.281c0.396,0,0.717-0.146,0.959-0.435
		c0.244-0.291,0.365-0.67,0.365-1.146c0-0.271-0.048-0.5-0.138-0.688c-0.091-0.188-0.207-0.346-0.354-0.471
		c-0.148-0.125-0.314-0.229-0.502-0.318s-0.381-0.176-0.586-0.252c-0.216-0.08-0.42-0.182-0.619-0.289
		c-0.199-0.112-0.377-0.26-0.533-0.439c-0.159-0.182-0.287-0.396-0.383-0.65c-0.099-0.254-0.146-0.562-0.146-0.928
		c0-0.354,0.062-0.674,0.179-0.972c0.116-0.293,0.282-0.546,0.5-0.757c0.215-0.204,0.461-0.37,0.737-0.488
		c0.276-0.119,0.581-0.182,0.908-0.182c0.478,0,0.886,0.098,1.229,0.275c0.346,0.188,0.627,0.432,0.842,0.727L92.324,201.844z"/>
	<path d="M96.192,197.803c0,0.236-0.071,0.438-0.219,0.586c-0.148,0.152-0.324,0.229-0.527,0.229c-0.213,0-0.393-0.07-0.532-0.229
		c-0.146-0.152-0.213-0.35-0.213-0.586c0-0.227,0.067-0.418,0.213-0.576c0.144-0.158,0.319-0.238,0.532-0.238
		c0.217,0,0.393,0.078,0.535,0.238C96.124,197.385,96.192,197.576,96.192,197.803z M94.89,208.805v-8.422h1.12v8.422H94.89z"/>
	<path d="M103.919,208.686c0,0.604-0.048,1.154-0.146,1.664c-0.097,0.508-0.256,0.949-0.481,1.324
		c-0.228,0.373-0.532,0.668-0.917,0.881c-0.387,0.219-0.865,0.328-1.441,0.328c-0.557,0-1.072-0.129-1.554-0.387
		c-0.481-0.252-0.869-0.596-1.165-1.025l0.729-0.781c0.229,0.354,0.514,0.641,0.856,0.854c0.345,0.218,0.731,0.322,1.163,0.322
		c0.372,0,0.684-0.076,0.926-0.236c0.243-0.155,0.436-0.379,0.569-0.659c0.136-0.283,0.231-0.619,0.289-1.005
		c0.056-0.387,0.084-0.812,0.084-1.271v-1.396h-0.032c-0.136,0.512-0.363,0.938-0.679,1.271c-0.318,0.342-0.767,0.511-1.343,0.511
		c-0.43,0-0.811-0.11-1.137-0.339c-0.328-0.229-0.605-0.541-0.832-0.939c-0.229-0.4-0.398-0.878-0.52-1.425
		c-0.119-0.55-0.18-1.151-0.18-1.812c0-0.655,0.059-1.256,0.17-1.799c0.113-0.545,0.279-1.019,0.5-1.397
		c0.223-0.394,0.498-0.699,0.834-0.916c0.334-0.224,0.716-0.334,1.146-0.334c0.511,0,0.942,0.155,1.302,0.467
		c0.355,0.312,0.596,0.724,0.721,1.229h0.052v-1.426h1.086V208.686L103.919,208.686z M102.832,204.596
		c0-0.486-0.034-0.945-0.106-1.377c-0.074-0.432-0.188-0.807-0.343-1.121c-0.151-0.312-0.343-0.562-0.567-0.748
		c-0.229-0.18-0.485-0.271-0.78-0.271c-0.306,0-0.569,0.092-0.79,0.271c-0.221,0.188-0.405,0.43-0.551,0.738
		c-0.148,0.312-0.254,0.682-0.324,1.113c-0.067,0.43-0.104,0.896-0.104,1.395c0,0.482,0.034,0.939,0.104,1.365
		c0.068,0.424,0.176,0.795,0.324,1.112c0.146,0.315,0.33,0.565,0.551,0.747c0.221,0.184,0.484,0.271,0.79,0.271
		c0.304,0,0.569-0.09,0.788-0.271c0.222-0.182,0.41-0.43,0.562-0.738c0.154-0.312,0.267-0.682,0.341-1.104
		C102.798,205.553,102.832,205.092,102.832,204.596z"/>
	<path d="M110.845,208.805v-5.436c0-0.26-0.015-0.521-0.041-0.791c-0.025-0.266-0.09-0.51-0.188-0.729
		c-0.096-0.226-0.231-0.397-0.406-0.543c-0.175-0.146-0.404-0.217-0.688-0.217c-0.285,0-0.535,0.075-0.756,0.229
		c-0.224,0.152-0.408,0.361-0.562,0.63c-0.153,0.271-0.271,0.569-0.355,0.92c-0.084,0.346-0.127,0.705-0.127,1.071v4.854h-1.121
		v-6.299c0-0.185-0.002-0.375-0.01-0.586c-0.007-0.209-0.012-0.416-0.02-0.61c-0.008-0.193-0.012-0.38-0.018-0.544
		c-0.006-0.165-0.016-0.293-0.025-0.383h1.09c0.021,0.215,0.035,0.479,0.05,0.776c0.013,0.31,0.019,0.599,0.019,0.865h0.033
		c0.158-0.563,0.418-1.024,0.781-1.387c0.359-0.354,0.812-0.531,1.355-0.531c0.455,0,0.815,0.096,1.096,0.286
		c0.277,0.191,0.488,0.443,0.638,0.759c0.149,0.312,0.244,0.664,0.3,1.055c0.051,0.392,0.073,0.773,0.073,1.16v5.438h-1.118V208.805
		z"/>
	<path d="M115.125,204.83c0,0.463,0.039,0.895,0.119,1.281c0.077,0.391,0.194,0.729,0.349,1.021
		c0.153,0.289,0.348,0.519,0.579,0.679c0.233,0.164,0.511,0.246,0.828,0.246c0.409,0,0.737-0.123,0.985-0.371
		c0.252-0.25,0.445-0.55,0.582-0.896l0.852,0.492c-0.205,0.508-0.507,0.938-0.908,1.278c-0.4,0.349-0.912,0.521-1.535,0.521
		c-0.94,0-1.672-0.396-2.189-1.188c-0.521-0.795-0.781-1.888-0.781-3.271c0-0.658,0.066-1.269,0.202-1.813
		c0.137-0.556,0.331-1.029,0.585-1.427c0.253-0.396,0.564-0.709,0.934-0.926c0.365-0.226,0.773-0.332,1.228-0.332
		c0.496,0,0.916,0.104,1.261,0.319c0.346,0.218,0.624,0.511,0.838,0.886c0.217,0.375,0.369,0.812,0.467,1.312
		c0.094,0.494,0.146,1.025,0.146,1.601v0.606h-4.533v-0.012h-0.006v-0.004L115.125,204.83L115.125,204.83z M118.536,203.9
		c0-0.854-0.131-1.535-0.393-2.047c-0.261-0.52-0.67-0.771-1.229-0.771c-0.33,0-0.604,0.104-0.826,0.297
		c-0.222,0.197-0.404,0.441-0.548,0.729c-0.142,0.289-0.244,0.604-0.308,0.934c-0.064,0.327-0.092,0.615-0.092,0.859H118.536
		L118.536,203.9z"/>
	<path d="M123.614,200.623c0.326-0.33,0.701-0.496,1.117-0.496c0.093,0,0.16,0.012,0.205,0.021l-0.033,1.146
		c-0.045-0.012-0.088-0.021-0.127-0.021c-0.039-0.01-0.088-0.014-0.145-0.014c-0.283,0-0.535,0.1-0.756,0.291
		c-0.223,0.189-0.406,0.438-0.555,0.742c-0.146,0.312-0.256,0.656-0.33,1.046c-0.071,0.394-0.11,0.776-0.11,1.161v4.298h-1.118v-6.3
		c0-0.18-0.004-0.375-0.009-0.586c-0.007-0.207-0.015-0.414-0.019-0.607c-0.006-0.195-0.012-0.38-0.02-0.546
		c-0.006-0.163-0.014-0.288-0.023-0.384h1.088c0.021,0.216,0.039,0.479,0.05,0.812c0.014,0.319,0.021,0.666,0.021,1.021h0.03
		C123.042,201.48,123.287,200.949,123.614,200.623z"/>
	<path d="M135.449,208.805l-1.087-1.646c-0.114,0.262-0.25,0.51-0.407,0.748c-0.157,0.237-0.347,0.44-0.562,0.618
		c-0.215,0.177-0.461,0.312-0.738,0.418c-0.277,0.104-0.592,0.146-0.941,0.146c-0.837,0-1.513-0.297-2.027-0.896
		c-0.516-0.604-0.772-1.441-0.772-2.527c0-0.432,0.056-0.816,0.161-1.17c0.107-0.354,0.252-0.674,0.434-0.961
		c0.182-0.287,0.396-0.547,0.645-0.779c0.25-0.229,0.521-0.439,0.813-0.635c-0.384-0.578-0.644-1.078-0.778-1.504
		c-0.136-0.432-0.205-0.867-0.205-1.334c0-0.871,0.228-1.562,0.68-2.062c0.451-0.502,1.031-0.761,1.73-0.761
		c0.34,0,0.646,0.062,0.926,0.188c0.279,0.125,0.518,0.302,0.716,0.521c0.194,0.229,0.353,0.506,0.465,0.819
		c0.114,0.321,0.17,0.681,0.17,1.062c0,0.396-0.062,0.756-0.187,1.067c-0.125,0.313-0.293,0.604-0.504,0.877
		c-0.209,0.269-0.455,0.504-0.737,0.726c-0.283,0.215-0.576,0.424-0.884,0.629l1.918,2.867l1.055-2.867h1.152l-1.545,3.729
		l1.867,2.726h-1.354H135.449L135.449,208.805z M131.476,202.896c-0.19,0.137-0.377,0.285-0.561,0.451
		c-0.184,0.156-0.34,0.354-0.479,0.568c-0.136,0.229-0.244,0.473-0.33,0.74c-0.084,0.271-0.127,0.57-0.127,0.912
		c0,0.777,0.174,1.396,0.52,1.836c0.345,0.438,0.79,0.658,1.332,0.658c0.238,0,0.459-0.053,0.654-0.146
		c0.197-0.104,0.379-0.23,0.543-0.396c0.164-0.162,0.308-0.354,0.427-0.568c0.116-0.213,0.217-0.438,0.296-0.66L131.476,202.896z
		 M133.58,199.143c0-0.545-0.106-0.969-0.313-1.281c-0.209-0.312-0.507-0.469-0.893-0.469c-0.387,0-0.699,0.174-0.941,0.521
		c-0.242,0.344-0.365,0.789-0.365,1.334c0,0.438,0.062,0.836,0.188,1.188c0.123,0.354,0.332,0.754,0.628,1.205
		c0.476-0.307,0.878-0.654,1.205-1.043C133.416,200.207,133.58,199.721,133.58,199.143z"/>
	<path d="M144.989,208.805c-0.014-0.09-0.021-0.205-0.023-0.34c-0.007-0.137-0.014-0.281-0.02-0.438
		c-0.006-0.15-0.008-0.299-0.008-0.438c0-0.141,0-0.264,0-0.364h-0.035c-0.282,1.2-0.963,1.801-2.035,1.801
		c-0.238,0-0.479-0.049-0.715-0.137c-0.237-0.093-0.45-0.238-0.646-0.438c-0.192-0.205-0.351-0.463-0.476-0.771
		c-0.125-0.312-0.188-0.688-0.188-1.129c0-0.611,0.109-1.105,0.323-1.479c0.215-0.37,0.484-0.666,0.814-0.885
		c0.326-0.215,0.688-0.356,1.078-0.438c0.392-0.069,0.76-0.106,1.111-0.106h0.661v-0.438c0-0.733-0.134-1.271-0.407-1.615
		c-0.271-0.338-0.639-0.506-1.104-0.506c-0.316,0-0.61,0.086-0.883,0.254c-0.271,0.168-0.504,0.386-0.694,0.646l-0.595-0.69
		c0.26-0.371,0.6-0.662,1.02-0.862c0.418-0.201,0.839-0.308,1.256-0.308c0.883,0,1.514,0.287,1.887,0.86
		c0.371,0.58,0.56,1.427,0.56,2.526v3.496c0,0.115,0.003,0.259,0.012,0.431c0.004,0.166,0.011,0.342,0.017,0.521
		c0.008,0.178,0.016,0.34,0.024,0.487c0.009,0.154,0.021,0.272,0.033,0.365L144.989,208.805L144.989,208.805z M144.854,204.525
		h-0.679c-0.271,0-0.544,0.021-0.812,0.076c-0.273,0.051-0.514,0.146-0.725,0.287c-0.207,0.141-0.381,0.338-0.517,0.588
		c-0.136,0.246-0.205,0.566-0.205,0.969c0,0.588,0.13,1.016,0.392,1.271c0.26,0.263,0.545,0.392,0.852,0.392
		c0.314,0,0.584-0.094,0.806-0.279c0.222-0.194,0.396-0.438,0.527-0.729c0.129-0.297,0.224-0.617,0.28-0.971
		s0.084-0.688,0.084-1.021v-0.575h-0.004L144.854,204.525L144.854,204.525z"/>
	<path d="M151.524,201.844c-0.146-0.246-0.336-0.451-0.568-0.604c-0.23-0.151-0.512-0.229-0.842-0.229
		c-0.362,0-0.659,0.134-0.893,0.396c-0.232,0.266-0.347,0.612-0.347,1.041c0,0.456,0.112,0.782,0.338,0.987
		c0.228,0.205,0.567,0.392,1.021,0.562c0.228,0.092,0.453,0.201,0.68,0.328c0.229,0.131,0.428,0.293,0.604,0.485
		c0.176,0.188,0.319,0.42,0.435,0.688c0.112,0.266,0.169,0.586,0.169,0.959c0,0.824-0.223,1.467-0.67,1.928
		c-0.447,0.457-1.028,0.688-1.741,0.688c-0.474,0-0.909-0.108-1.308-0.33c-0.396-0.224-0.725-0.517-0.985-0.896l0.681-0.729
		c0.192,0.297,0.422,0.532,0.688,0.723c0.265,0.188,0.578,0.281,0.939,0.281c0.396,0,0.717-0.146,0.959-0.435
		c0.242-0.291,0.363-0.67,0.363-1.146c0-0.271-0.045-0.5-0.135-0.688c-0.092-0.188-0.207-0.346-0.355-0.471
		c-0.147-0.125-0.313-0.229-0.5-0.318c-0.188-0.09-0.385-0.176-0.589-0.252c-0.213-0.08-0.42-0.182-0.618-0.289
		c-0.199-0.112-0.377-0.26-0.535-0.439c-0.158-0.182-0.285-0.396-0.381-0.65c-0.099-0.254-0.146-0.562-0.146-0.928
		c0-0.354,0.061-0.674,0.179-0.972c0.119-0.293,0.285-0.546,0.5-0.757c0.216-0.204,0.461-0.37,0.738-0.488
		c0.278-0.119,0.581-0.182,0.909-0.182c0.476,0,0.886,0.098,1.229,0.275c0.347,0.188,0.624,0.432,0.843,0.727L151.524,201.844z"/>
	<path d="M159.897,204.611c0,0.656-0.059,1.258-0.17,1.801c-0.113,0.541-0.283,1.014-0.51,1.408
		c-0.227,0.396-0.503,0.705-0.832,0.928c-0.328,0.221-0.712,0.328-1.154,0.328c-0.51,0-0.938-0.158-1.281-0.477
		c-0.346-0.314-0.588-0.729-0.723-1.238h-0.02v5.521h-1.119v-12.5h1.087v1.513h0.032c0.136-0.521,0.363-0.947,0.678-1.281
		c0.317-0.334,0.766-0.502,1.344-0.502c0.416,0,0.795,0.111,1.127,0.344s0.613,0.533,0.842,0.938
		c0.227,0.396,0.396,0.865,0.518,1.42C159.836,203.35,159.897,203.953,159.897,204.611z M158.742,204.576
		c0-0.484-0.032-0.941-0.103-1.365c-0.071-0.426-0.178-0.795-0.324-1.113c-0.146-0.312-0.332-0.562-0.553-0.748
		c-0.221-0.18-0.482-0.271-0.787-0.271c-0.309,0-0.57,0.094-0.791,0.271c-0.221,0.188-0.408,0.438-0.561,0.748
		c-0.154,0.318-0.268,0.688-0.341,1.113c-0.071,0.424-0.11,0.881-0.11,1.365c0,0.498,0.036,0.965,0.11,1.395
		c0.073,0.438,0.188,0.805,0.341,1.111c0.15,0.312,0.342,0.559,0.568,0.74c0.226,0.181,0.484,0.27,0.781,0.27
		c0.305,0,0.566-0.088,0.787-0.27c0.223-0.188,0.405-0.432,0.553-0.74c0.146-0.311,0.254-0.682,0.323-1.111
		C158.708,205.541,158.742,205.074,158.742,204.576z"/>
	<path d="M163.311,197.803c0,0.236-0.072,0.438-0.222,0.586c-0.147,0.152-0.321,0.229-0.522,0.229c-0.217,0-0.396-0.07-0.529-0.229
		c-0.146-0.152-0.221-0.35-0.221-0.586c0-0.227,0.07-0.418,0.221-0.576c0.143-0.158,0.312-0.238,0.529-0.238
		c0.213,0,0.396,0.078,0.533,0.238C163.236,197.385,163.311,197.576,163.311,197.803z M162.002,208.805v-8.422h1.119v8.422H162.002z
		"/>
	<path d="M167.652,200.623c0.328-0.33,0.701-0.496,1.121-0.496c0.09,0,0.158,0.012,0.207,0.021l-0.035,1.146
		c-0.045-0.012-0.088-0.021-0.127-0.021c-0.039-0.01-0.088-0.014-0.146-0.014c-0.281,0-0.531,0.1-0.757,0.291
		c-0.222,0.189-0.406,0.438-0.554,0.742c-0.146,0.312-0.256,0.656-0.328,1.046c-0.074,0.394-0.108,0.776-0.108,1.161v4.298h-1.12
		v-6.3c0-0.18-0.004-0.375-0.008-0.586c-0.009-0.207-0.02-0.414-0.021-0.607c-0.006-0.195-0.012-0.38-0.021-0.546
		c-0.004-0.163-0.015-0.288-0.022-0.384h1.086c0.021,0.216,0.041,0.479,0.059,0.812c0.02,0.319,0.021,0.666,0.021,1.021h0.031
		C167.081,201.48,167.325,200.949,167.652,200.623z"/>
	<path d="M171.693,197.803c0,0.236-0.071,0.438-0.219,0.586c-0.146,0.154-0.324,0.229-0.525,0.229c-0.219,0-0.395-0.07-0.535-0.229
		c-0.145-0.152-0.214-0.35-0.214-0.586c0-0.227,0.069-0.418,0.214-0.576c0.146-0.158,0.316-0.238,0.535-0.238
		c0.213,0,0.392,0.078,0.531,0.238C171.624,197.385,171.693,197.576,171.693,197.803z M170.393,208.805v-8.422h1.116v8.422H170.393z
		"/>
	<path d="M178.438,208.805v-5.436c0-0.26-0.018-0.521-0.041-0.791c-0.023-0.266-0.094-0.51-0.188-0.729
		c-0.096-0.226-0.23-0.397-0.406-0.543c-0.177-0.146-0.404-0.217-0.688-0.217c-0.282,0-0.532,0.075-0.756,0.229
		c-0.228,0.152-0.41,0.361-0.562,0.63c-0.15,0.271-0.271,0.569-0.355,0.92c-0.084,0.346-0.125,0.705-0.125,1.071v4.854h-1.123
		v-6.299c0-0.185-0.002-0.375-0.008-0.586c-0.009-0.209-0.013-0.416-0.021-0.61c-0.007-0.193-0.015-0.38-0.021-0.544
		c-0.008-0.165-0.021-0.293-0.023-0.383h1.087c0.021,0.215,0.039,0.479,0.054,0.776c0.014,0.31,0.021,0.599,0.021,0.865h0.034
		c0.156-0.563,0.416-1.024,0.781-1.387c0.359-0.354,0.812-0.531,1.354-0.531c0.452,0,0.813,0.096,1.095,0.286
		c0.277,0.191,0.488,0.443,0.637,0.759c0.146,0.312,0.244,0.664,0.297,1.055c0.055,0.392,0.076,0.773,0.076,1.16v5.438h-1.117v0.005
		h-0.002V208.805L178.438,208.805z"/>
	<path d="M187.398,208.686c0,0.604-0.049,1.154-0.146,1.664c-0.1,0.508-0.257,0.949-0.48,1.324
		c-0.229,0.373-0.535,0.668-0.918,0.881c-0.388,0.219-0.865,0.328-1.438,0.328c-0.561,0-1.072-0.129-1.559-0.387
		c-0.479-0.252-0.865-0.596-1.162-1.025l0.729-0.781c0.228,0.354,0.513,0.641,0.854,0.854c0.348,0.218,0.734,0.322,1.166,0.322
		c0.371,0,0.681-0.076,0.927-0.236c0.241-0.155,0.435-0.379,0.565-0.659c0.135-0.283,0.229-0.619,0.289-1.005
		c0.057-0.387,0.086-0.812,0.086-1.271v-1.396h-0.035c-0.135,0.512-0.357,0.938-0.68,1.271c-0.314,0.342-0.768,0.511-1.344,0.511
		c-0.431,0-0.812-0.11-1.139-0.339c-0.328-0.229-0.604-0.541-0.83-0.939c-0.229-0.4-0.396-0.878-0.521-1.425
		c-0.119-0.55-0.183-1.151-0.183-1.812c0-0.655,0.062-1.256,0.168-1.799c0.112-0.545,0.283-1.019,0.504-1.397
		c0.224-0.394,0.497-0.699,0.831-0.916c0.335-0.224,0.719-0.334,1.146-0.334c0.512,0,0.938,0.155,1.301,0.467
		c0.354,0.312,0.597,0.724,0.723,1.229h0.057v-1.426h1.084v8.299h0.002v-0.004H187.398z M186.312,204.596
		c0-0.486-0.037-0.945-0.109-1.377c-0.07-0.432-0.188-0.807-0.342-1.121c-0.148-0.312-0.34-0.562-0.567-0.748
		c-0.228-0.18-0.483-0.271-0.776-0.271c-0.309,0-0.562,0.092-0.791,0.271c-0.223,0.188-0.398,0.43-0.553,0.738
		c-0.146,0.312-0.252,0.682-0.32,1.113c-0.062,0.43-0.104,0.896-0.104,1.395c0,0.482,0.032,0.939,0.104,1.365
		c0.063,0.424,0.184,0.795,0.32,1.112c0.146,0.315,0.33,0.565,0.553,0.747c0.229,0.184,0.482,0.271,0.791,0.271
		c0.311,0,0.567-0.09,0.789-0.271c0.223-0.182,0.406-0.43,0.562-0.738c0.152-0.312,0.265-0.682,0.339-1.104
		C186.273,205.553,186.312,205.092,186.312,204.596z"/>
	<path d="M197.363,208.805v-1.512h-0.031c-0.137,0.508-0.361,0.936-0.682,1.271c-0.312,0.338-0.762,0.509-1.34,0.509
		c-0.436,0-0.812-0.11-1.144-0.339c-0.321-0.229-0.604-0.545-0.832-0.941c-0.229-0.4-0.396-0.879-0.521-1.424
		c-0.115-0.549-0.18-1.152-0.18-1.812c0-0.654,0.062-1.256,0.166-1.801c0.111-0.543,0.279-1.01,0.506-1.396
		c0.225-0.395,0.496-0.691,0.83-0.916c0.332-0.225,0.717-0.332,1.146-0.332c0.509,0,0.939,0.152,1.289,0.471
		c0.354,0.312,0.592,0.725,0.717,1.229h0.033v-5.843h1.119v12.839h-1.09v0.002h0.006v-0.002h0.004v-0.002H197.363z M197.363,204.596
		c0-0.5-0.035-0.965-0.106-1.395c-0.073-0.432-0.188-0.803-0.341-1.113c-0.148-0.312-0.346-0.559-0.568-0.738
		c-0.228-0.182-0.479-0.271-0.779-0.271c-0.307,0-0.563,0.092-0.791,0.271c-0.219,0.188-0.397,0.43-0.549,0.738
		c-0.146,0.312-0.252,0.682-0.324,1.113c-0.062,0.43-0.104,0.896-0.104,1.395c0,0.482,0.035,0.939,0.104,1.365
		c0.064,0.424,0.181,0.795,0.324,1.112c0.146,0.315,0.33,0.565,0.549,0.747c0.228,0.184,0.481,0.271,0.791,0.271
		c0.312,0,0.568-0.09,0.789-0.271c0.227-0.182,0.412-0.432,0.562-0.747c0.153-0.317,0.266-0.688,0.342-1.112
		C197.328,205.535,197.363,205.082,197.363,204.596z"/>
	<path d="M201.682,204.83c0,0.463,0.037,0.895,0.117,1.281c0.078,0.391,0.195,0.729,0.352,1.021c0.149,0.289,0.353,0.519,0.58,0.679
		c0.231,0.164,0.506,0.246,0.826,0.246c0.408,0,0.736-0.123,0.986-0.371c0.252-0.25,0.443-0.55,0.58-0.896l0.852,0.492
		c-0.203,0.508-0.509,0.938-0.908,1.278c-0.396,0.349-0.912,0.521-1.537,0.521c-0.938,0-1.668-0.396-2.188-1.188
		c-0.521-0.795-0.779-1.888-0.779-3.271c0-0.658,0.065-1.269,0.201-1.813c0.139-0.556,0.33-1.029,0.586-1.427
		c0.254-0.396,0.564-0.709,0.938-0.926c0.36-0.226,0.771-0.332,1.228-0.332c0.496,0,0.916,0.104,1.26,0.319
		c0.349,0.218,0.625,0.511,0.845,0.886c0.215,0.375,0.366,0.812,0.465,1.312s0.146,1.025,0.146,1.601v0.606h-4.533v-0.012h-0.006
		v-0.004L201.682,204.83L201.682,204.83z M205.093,203.9c0-0.854-0.132-1.535-0.394-2.047c-0.264-0.52-0.674-0.771-1.229-0.771
		c-0.326,0-0.604,0.104-0.826,0.297c-0.229,0.197-0.402,0.441-0.547,0.729c-0.146,0.289-0.242,0.604-0.312,0.933
		c-0.062,0.321-0.1,0.612-0.1,0.858L205.093,203.9L205.093,203.9z"/>
	<path d="M210.812,208.805h-1.324l-2.258-8.422h1.188l1.747,7.229h0.035l1.661-7.229h1.156L210.812,208.805z"/>
	<path d="M215.229,204.83c0,0.463,0.037,0.895,0.119,1.281c0.073,0.391,0.194,0.729,0.348,1.021c0.154,0.289,0.353,0.519,0.58,0.679
		c0.232,0.164,0.517,0.246,0.826,0.246c0.41,0,0.739-0.123,0.988-0.371c0.25-0.25,0.444-0.55,0.58-0.896l0.852,0.492
		c-0.205,0.508-0.508,0.938-0.901,1.278c-0.399,0.349-0.914,0.521-1.537,0.521c-0.938,0-1.672-0.396-2.188-1.188
		c-0.521-0.795-0.777-1.888-0.777-3.271c0-0.658,0.062-1.269,0.201-1.813c0.138-0.556,0.328-1.029,0.584-1.427
		c0.253-0.396,0.562-0.709,0.934-0.926c0.37-0.226,0.773-0.332,1.229-0.332c0.496,0,0.916,0.104,1.264,0.319
		c0.346,0.218,0.622,0.511,0.839,0.886c0.215,0.375,0.37,0.812,0.467,1.312c0.099,0.494,0.146,1.025,0.146,1.601v0.606h-4.53v-0.01
		h-0.005v-0.004h-0.004v-0.002L215.229,204.83L215.229,204.83z M218.643,203.9c0-0.854-0.131-1.535-0.395-2.047
		c-0.266-0.52-0.673-0.771-1.229-0.771c-0.33,0-0.605,0.104-0.826,0.297c-0.223,0.197-0.405,0.441-0.549,0.729
		c-0.146,0.289-0.244,0.604-0.312,0.934c-0.062,0.327-0.096,0.615-0.096,0.859H218.643L218.643,203.9z"/>
	<path d="M221.798,208.805v-12.838h1.12v12.838H221.798L221.798,208.805z"/>
	<path d="M230.896,204.611c0,0.668-0.065,1.271-0.203,1.812c-0.135,0.545-0.326,1.017-0.576,1.408
		c-0.248,0.396-0.561,0.703-0.926,0.92c-0.367,0.211-0.776,0.322-1.229,0.322s-0.856-0.109-1.226-0.322
		c-0.359-0.217-0.67-0.521-0.924-0.92c-0.254-0.396-0.451-0.863-0.586-1.408c-0.145-0.543-0.205-1.146-0.205-1.812
		c0-0.668,0.062-1.279,0.189-1.834c0.135-0.555,0.32-1.029,0.57-1.428c0.246-0.396,0.562-0.699,0.925-0.916
		c0.371-0.213,0.783-0.322,1.249-0.322c0.453,0,0.855,0.104,1.229,0.322c0.366,0.217,0.676,0.521,0.926,0.916
		c0.246,0.396,0.438,0.873,0.576,1.428C230.83,203.334,230.896,203.945,230.896,204.611z M229.743,204.586
		c0-0.498-0.035-0.961-0.111-1.391c-0.071-0.43-0.183-0.799-0.33-1.109c-0.146-0.311-0.327-0.554-0.55-0.736
		c-0.223-0.178-0.48-0.271-0.789-0.271c-0.311,0-0.572,0.094-0.802,0.271c-0.228,0.188-0.41,0.43-0.552,0.736
		c-0.146,0.312-0.248,0.68-0.322,1.109c-0.071,0.43-0.107,0.895-0.107,1.391s0.034,0.953,0.107,1.371
		c0.072,0.42,0.184,0.787,0.322,1.104c0.143,0.316,0.326,0.562,0.552,0.736c0.229,0.176,0.491,0.262,0.802,0.262
		c0.309,0,0.57-0.086,0.799-0.262c0.229-0.176,0.411-0.42,0.551-0.736c0.146-0.312,0.248-0.682,0.321-1.104
		C229.708,205.541,229.743,205.084,229.743,204.586z"/>
	<path d="M238.812,204.611c0,0.656-0.062,1.258-0.168,1.801c-0.115,0.541-0.285,1.014-0.52,1.408
		c-0.229,0.396-0.503,0.705-0.831,0.928c-0.319,0.221-0.714,0.328-1.147,0.328c-0.518,0-0.938-0.158-1.283-0.477
		c-0.344-0.314-0.586-0.729-0.721-1.238h-0.021v5.521h-1.119v-12.5h1.085v1.513h0.032c0.138-0.521,0.363-0.947,0.679-1.281
		c0.317-0.334,0.769-0.502,1.347-0.502c0.416,0,0.795,0.111,1.125,0.344c0.334,0.229,0.611,0.533,0.842,0.938
		c0.229,0.396,0.398,0.865,0.521,1.42C238.75,203.35,238.812,203.953,238.812,204.611z M237.652,204.576
		c0-0.484-0.03-0.941-0.104-1.365c-0.065-0.426-0.177-0.795-0.319-1.113c-0.146-0.312-0.33-0.562-0.557-0.748
		c-0.222-0.18-0.48-0.271-0.788-0.271c-0.307,0-0.567,0.094-0.786,0.271c-0.227,0.188-0.408,0.438-0.562,0.748
		c-0.154,0.318-0.271,0.688-0.345,1.113c-0.067,0.424-0.104,0.881-0.104,1.365c0,0.498,0.034,0.965,0.104,1.395
		c0.074,0.438,0.188,0.805,0.345,1.111c0.149,0.312,0.342,0.559,0.563,0.74c0.229,0.182,0.481,0.27,0.776,0.27
		c0.312,0,0.565-0.088,0.79-0.27c0.227-0.188,0.402-0.432,0.557-0.74c0.146-0.311,0.254-0.682,0.319-1.111
		C237.62,205.541,237.652,205.074,237.652,204.576z"/>
	<path d="M241.523,204.83c0,0.463,0.039,0.895,0.117,1.281c0.08,0.391,0.191,0.729,0.354,1.021c0.152,0.289,0.345,0.519,0.58,0.679
		c0.232,0.164,0.509,0.246,0.826,0.246c0.408,0,0.738-0.123,0.988-0.371c0.248-0.25,0.438-0.55,0.572-0.896l0.854,0.492
		c-0.198,0.508-0.506,0.938-0.904,1.278c-0.398,0.349-0.914,0.521-1.538,0.521c-0.938,0-1.669-0.396-2.188-1.188
		c-0.521-0.795-0.774-1.888-0.774-3.271c0-0.658,0.062-1.269,0.198-1.813c0.14-0.556,0.33-1.029,0.582-1.427
		c0.254-0.396,0.562-0.709,0.938-0.926c0.369-0.226,0.771-0.332,1.229-0.332c0.498,0,0.918,0.104,1.265,0.319
		c0.345,0.218,0.622,0.511,0.839,0.886c0.215,0.375,0.373,0.812,0.465,1.312c0.1,0.5,0.146,1.025,0.146,1.601v0.606h-4.525v-0.01
		h-0.007v-0.004h-0.007v-0.002L241.523,204.83L241.523,204.83z M244.938,203.9c0-0.854-0.131-1.535-0.394-2.047
		c-0.261-0.52-0.671-0.771-1.228-0.771c-0.33,0-0.606,0.104-0.828,0.297c-0.221,0.197-0.403,0.441-0.547,0.729
		c-0.146,0.289-0.242,0.604-0.312,0.934c-0.062,0.328-0.095,0.615-0.095,0.859H244.938L244.938,203.9z"/>
	<path d="M250.018,200.623c0.325-0.33,0.701-0.496,1.121-0.496c0.09,0,0.154,0.012,0.201,0.021l-0.031,1.146
		c-0.045-0.012-0.09-0.021-0.127-0.021c-0.041-0.01-0.09-0.014-0.146-0.014c-0.285,0-0.535,0.1-0.759,0.291
		c-0.223,0.189-0.404,0.438-0.551,0.742c-0.146,0.312-0.264,0.656-0.332,1.046c-0.074,0.394-0.105,0.776-0.105,1.161v4.298h-1.122
		v-6.3c0-0.18-0.004-0.375-0.012-0.586c-0.007-0.207-0.013-0.414-0.017-0.607c-0.014-0.195-0.02-0.38-0.021-0.546
		c-0.008-0.163-0.02-0.288-0.023-0.384h1.086c0.021,0.216,0.041,0.479,0.051,0.812c0.021,0.319,0.021,0.666,0.021,1.021h0.035
		C249.439,201.48,249.688,200.949,250.018,200.623z"/>
	<g id="Layer_3">
		<g>
			<path fill="#659099" d="M50.997,156.926h-8.67l-6.157-33.424h-0.127l-6.155,33.424h-8.67l-8.482-44.479h7.666l5.716,34.555h0.252
				l5.97-34.555h7.916l6.155,34.555h0.127l5.716-34.555h7.29L50.997,156.926z"/>
			<path fill="#659099" d="M64.819,156.926v-44.479h19.914v6.661H72.045v11.812h11.747v6.158H72.045v13.131h13.317v6.725
				L64.819,156.926L64.819,156.926z"/>
			<path fill="#659099" d="M117.905,144.486c0,2.346-0.387,4.305-1.161,5.875c-0.772,1.562-1.761,2.85-2.952,3.836
				c-1.191,0.979-2.534,1.686-4.021,2.104c-1.485,0.416-2.943,0.633-4.367,0.633H92.211V112.45h11.812
				c1.295,0,2.681,0.153,4.146,0.472c1.466,0.312,2.807,0.879,4.021,1.689c1.215,0.818,2.221,1.949,3.017,3.396
				c0.795,1.441,1.192,3.313,1.192,5.619c0,2.767-0.586,4.938-1.762,6.537c-1.173,1.592-2.531,2.698-4.084,3.33v0.125
				c0.84,0.207,1.688,0.562,2.547,1.063c0.857,0.502,1.643,1.199,2.354,2.104c0.713,0.896,1.298,1.988,1.76,3.27
				C117.678,141.332,117.905,142.811,117.905,144.486z M109.614,124.82c0-1.129-0.178-2.082-0.529-2.855
				c-0.354-0.771-0.811-1.404-1.373-1.889c-0.562-0.479-1.22-0.824-1.968-1.035c-0.751-0.207-1.521-0.312-2.312-0.312h-4.121v12.377
				h4.246c0.748,0,1.488-0.105,2.217-0.348c0.729-0.229,1.373-0.596,1.938-1.1s1.021-1.15,1.373-1.947
				C109.438,126.914,109.614,125.949,109.614,124.82z M110.685,143.861c0-1.303-0.209-2.398-0.627-3.301
				c-0.416-0.902-0.957-1.642-1.625-2.203c-0.666-0.562-1.396-0.978-2.187-1.229c-0.79-0.252-1.584-0.379-2.375-0.379h-4.56v13.894
				h4.748c0.916,0,1.771-0.141,2.562-0.408c0.79-0.271,1.487-0.689,2.093-1.258c0.604-0.562,1.083-1.271,1.438-2.104
				C110.505,146.037,110.685,145.031,110.685,143.861z"/>
			<path fill="#659099" d="M165.652,134.748c0,7.037-1.479,12.49-4.428,16.365c-2.958,3.873-7.306,5.812-13.042,5.812h-11.119
				v-44.478h11.183c5.694,0,10.021,1.955,12.979,5.875C164.182,122.236,165.652,127.713,165.652,134.748z M158.119,134.748
				c0-2.641-0.242-4.941-0.726-6.91c-0.48-1.973-1.162-3.602-2.041-4.902c-0.881-1.297-1.928-2.271-3.143-2.92
				c-1.217-0.646-2.534-0.979-3.959-0.979h-3.582v31.289h3.582c1.424,0,2.742-0.326,3.959-0.979
				c1.215-0.646,2.264-1.623,3.143-2.928c0.879-1.302,1.56-2.923,2.041-4.863C157.876,139.617,158.119,137.346,158.119,134.748z"/>
			<path fill="#659099" d="M172.814,156.926v-44.479h19.918v6.661h-12.688v11.812h11.746v6.158h-11.746v13.131h13.315v6.725
				L172.814,156.926L172.814,156.926z"/>
			<path fill="#659099" d="M217.68,121.051c-1.636-1.971-3.688-2.951-6.158-2.951c-0.713,0-1.398,0.109-2.066,0.346
				c-0.678,0.229-1.277,0.602-1.819,1.104c-0.544,0.502-0.974,1.15-1.284,1.945c-0.312,0.797-0.479,1.737-0.479,2.825
				c0,1.884,0.562,3.341,1.688,4.361c1.135,1.024,2.615,2.002,4.467,2.926c1.094,0.545,2.197,1.175,3.326,1.888
				c1.133,0.715,2.154,1.565,3.082,2.571c0.918,1.011,1.676,2.201,2.262,3.584c0.589,1.386,0.888,3.019,0.888,4.896
				c0,2.188-0.354,4.104-1.038,5.778c-0.688,1.678-1.604,3.093-2.771,4.237c-1.146,1.147-2.504,2.021-4.049,2.604
				c-1.557,0.586-3.186,0.879-4.896,0.879c-2.478,0-4.761-0.479-6.851-1.438c-2.103-0.965-3.771-2.182-5.023-3.646l4.086-5.528
				c0.961,1.178,2.122,2.102,3.482,2.771c1.354,0.668,2.754,1.008,4.181,1.008c1.594,0,2.911-0.549,3.962-1.639
				c1.044-1.096,1.564-2.615,1.564-4.596c0-1.928-0.631-3.447-1.896-4.586c-1.253-1.133-2.846-2.179-4.771-3.142
				c-1.217-0.589-2.354-1.233-3.428-1.944c-1.062-0.716-2.012-1.561-2.826-2.547c-0.812-0.979-1.471-2.136-1.938-3.453
				c-0.479-1.316-0.729-2.896-0.729-4.744c0-2.312,0.359-4.279,1.104-5.938c0.729-1.652,1.688-3.021,2.892-4.109
				c1.191-1.098,2.551-1.896,4.059-2.424c1.509-0.525,3.039-0.791,4.586-0.791c2.268,0,4.285,0.369,6.062,1.104
				c1.771,0.729,3.271,1.811,4.489,3.234L217.68,121.051z"/>
			<path fill="#659099" d="M228.421,156.926v-44.479h7.54v44.479H228.421L228.421,156.926z"/>
			<path fill="#659099" d="M266.646,156.863c-1.857,0.674-4.101,1.006-6.688,1.006c-2.646,0-5.009-0.551-7.104-1.662
				c-2.097-1.111-3.858-2.688-5.312-4.744c-1.44-2.055-2.551-4.5-3.33-7.354c-0.771-2.853-1.155-6.006-1.155-9.484
				c0-3.393,0.373-6.514,1.129-9.363c0.758-2.848,1.844-5.309,3.271-7.381c1.422-2.072,3.141-3.688,5.146-4.834
				c2.01-1.154,4.271-1.729,6.776-1.729c2.646,0,4.931,0.473,6.854,1.412c1.926,0.938,3.498,2.271,4.717,3.993l-4.34,5.272
				c-1.676-2.435-3.938-3.646-6.785-3.646c-1.553,0-2.898,0.44-4.055,1.317c-1.146,0.888-2.104,2.062-2.854,3.56
				c-0.759,1.479-1.315,3.215-1.692,5.182c-0.384,1.975-0.562,4.047-0.562,6.223c0,2.266,0.188,4.391,0.562,6.377
				c0.377,1.988,0.938,3.729,1.692,5.219c0.752,1.482,1.707,2.646,2.854,3.48c1.149,0.844,2.521,1.264,4.117,1.264
				c1.012,0,1.914-0.115,2.729-0.352c0.812-0.229,1.479-0.531,1.979-0.912v-11.496H259.2v-6.539h12.253v22.557
				C270.117,155.312,268.518,156.195,266.646,156.863z"/>
			<path fill="#659099" d="M298.979,156.926l-12.629-31.414h-0.188l0.125,31.414H279.5v-44.479h8.605l12.504,31.603h0.188
				l-0.062-31.603h6.532v44.479h-8.29v-0.001L298.979,156.926L298.979,156.926z"/>
		</g>
	</g>
	<g id="Layer_2">
		<path fill="#CCDD59" d="M102.778,180.229c0,3.685-0.771,6.528-2.314,8.562c-1.544,2.021-3.814,3.039-6.814,3.039h-5.813v-23.263
			h5.847c2.979,0,5.239,1.022,6.783,3.067C102.006,173.684,102.778,176.546,102.778,180.229z M98.835,180.229
			c0-1.381-0.124-2.588-0.374-3.608c-0.254-1.027-0.606-1.888-1.067-2.562c-0.461-0.682-1.009-1.188-1.644-1.521
			c-0.638-0.346-1.325-0.514-2.069-0.514H91.81v16.355h1.871c0.744,0,1.434-0.17,2.069-0.514c0.635-0.34,1.185-0.85,1.644-1.523
			c0.461-0.68,0.812-1.527,1.067-2.547C98.711,182.771,98.835,181.585,98.835,180.229z"/>
		<path fill="#CCDD59" d="M122.259,180.161c0,1.838-0.191,3.51-0.574,5.008c-0.385,1.502-0.938,2.789-1.658,3.86
			c-0.725,1.074-1.604,1.906-2.646,2.498c-1.042,0.591-2.207,0.888-3.499,0.888c-1.312,0-2.484-0.297-3.516-0.888
			c-1.029-0.59-1.904-1.424-2.629-2.498c-0.723-1.071-1.275-2.357-1.656-3.86c-0.387-1.497-0.577-3.17-0.577-5.008
			c0-1.841,0.188-3.509,0.562-4.996c0.371-1.487,0.92-2.771,1.643-3.845c0.723-1.067,1.604-1.896,2.645-2.479
			c1.037-0.58,2.217-0.868,3.53-0.868c1.291,0,2.457,0.288,3.499,0.868c1.038,0.582,1.921,1.41,2.645,2.479
			c0.724,1.074,1.274,2.354,1.658,3.845C122.065,176.652,122.259,178.32,122.259,180.161z M118.187,180.161
			c0-1.187-0.096-2.297-0.279-3.334c-0.188-1.041-0.461-1.938-0.822-2.692c-0.359-0.757-0.809-1.354-1.346-1.793
			c-0.537-0.438-1.156-0.654-1.855-0.654c-0.724,0-1.354,0.228-1.889,0.654c-0.538,0.438-0.986,1.036-1.348,1.793
			c-0.36,0.754-0.631,1.651-0.809,2.692c-0.174,1.037-0.26,2.147-0.26,3.334c0,1.181,0.086,2.295,0.26,3.334
			c0.178,1.034,0.446,1.942,0.809,2.709c0.359,0.767,0.81,1.366,1.348,1.81c0.535,0.438,1.164,0.655,1.889,0.655
			c0.723,0,1.352-0.217,1.889-0.655c0.537-0.438,0.984-1.041,1.348-1.81c0.361-0.769,0.63-1.675,0.807-2.709
			C118.101,182.454,118.187,181.341,118.187,180.161z"/>
		<path fill="#CCDD59" d="M135.562,191.82l-3.611-9.922h-2.201v9.922h-3.811v-23.256h6.635c0.964,0,1.852,0.125,2.66,0.377
			c0.811,0.25,1.506,0.646,2.086,1.195c0.578,0.551,1.035,1.235,1.363,2.065c0.326,0.834,0.491,1.832,0.491,2.989
			c0,0.896-0.112,1.688-0.346,2.384c-0.229,0.688-0.521,1.271-0.869,1.758c-0.353,0.479-0.737,0.869-1.165,1.168
			c-0.427,0.293-0.85,0.496-1.263,0.604l4.173,10.711h-4.142V191.82L135.562,191.82z M135.299,175.396c0-0.701-0.1-1.28-0.296-1.737
			c-0.195-0.464-0.455-0.822-0.771-1.086c-0.314-0.265-0.672-0.447-1.065-0.556c-0.396-0.108-0.789-0.168-1.183-0.168h-2.234v7.155
			h2.234c0.963,0,1.756-0.301,2.381-0.897C134.985,177.505,135.299,176.602,135.299,175.396z"/>
		<path fill="#CCDD59" d="M152.873,191.82l-1.149-4.928h-6.109l-1.182,4.928h-3.943l5.781-23.258h5.025l5.684,23.258H152.873z
			 M148.769,172.275h-0.133l-2.529,11.529h5.127L148.769,172.275z"/>
		<path fill="#CCDD59" d="M176.375,191.559c-0.949,0.569-2.15,0.854-3.6,0.854c-1.314,0-2.504-0.308-3.564-0.918
			c-1.061-0.612-1.957-1.468-2.688-2.545c-0.733-1.086-1.312-2.373-1.709-3.865c-0.408-1.483-0.606-3.118-0.606-4.896
			c0-1.771,0.198-3.404,0.606-4.906c0.396-1.498,0.979-2.797,1.728-3.875c0.741-1.084,1.646-1.93,2.707-2.529
			c1.063-0.604,2.241-0.9,3.53-0.9c1.336,0,2.509,0.246,3.517,0.736c1.009,0.492,1.828,1.199,2.465,2.117l-2.266,2.764
			c-0.896-1.294-2.06-1.938-3.479-1.938c-0.787,0-1.478,0.229-2.068,0.678c-0.592,0.447-1.084,1.062-1.477,1.816
			c-0.396,0.771-0.688,1.675-0.892,2.709c-0.197,1.041-0.293,2.152-0.293,3.332c0,1.164,0.1,2.271,0.293,3.312
			c0.198,1.035,0.495,1.938,0.892,2.709c0.393,0.771,0.889,1.375,1.491,1.824c0.604,0.441,1.31,0.672,2.121,0.672
			c0.765,0,1.428-0.193,1.985-0.593c0.562-0.396,1.021-0.875,1.396-1.442l2.269,2.66
			C178.105,190.243,177.326,190.989,176.375,191.559z"/>
		<path fill="#CCDD59" d="M192.393,191.82v-10.313h-6.967v10.313h-3.912v-23.256h3.912v9.429h6.967v-9.429h3.906v23.259h-3.906
			V191.82z"/>
		<path fill="#CCDD59" d="M211.109,191.82l-1.148-4.928h-6.107l-1.184,4.928h-3.941l5.779-23.258h5.027l5.682,23.258H211.109z
			 M207.006,172.275h-0.131l-2.527,11.529h5.121L207.006,172.275z"/>
		<path fill="#CCDD59" d="M227.832,191.82l-6.604-16.426h-0.104l0.062,16.426h-3.549v-23.256h4.498l6.537,16.521h0.104l-0.03-16.521
			h3.416v23.259h-4.334L227.832,191.82L227.832,191.82z"/>
	</g>
	<g id="Layer_3_1_">
		<line fill="none" stroke="#000000" stroke-width="1.4" x1="307.267" y1="162.562" x2="12.736" y2="162.562"/>
	</g>
	<g id="Layer_2_3_">
		<path d="M158.644,75.926l-9.033-12.832l7.973-16.403h-8.955l-4.1,9.94l-6.147-8.883c1.317-0.808,2.582-1.695,3.793-2.657
			c1.216-0.958,2.277-2.022,3.19-3.188c0.909-1.163,1.643-2.452,2.202-3.871c0.556-1.417,0.834-2.987,0.834-4.709
			c0-1.972-0.303-3.743-0.908-5.314c-0.604-1.567-1.438-2.894-2.495-3.985c-1.062-1.088-2.323-1.922-3.784-2.504
			c-1.461-0.58-3.079-0.873-4.842-0.873c-1.814,0-3.521,0.317-5.108,0.951c-1.589,0.634-2.95,1.531-4.086,2.695
			c-1.136,1.165-2.029,2.581-2.686,4.25c-0.655,1.669-0.986,3.542-0.986,5.618c0,2.176,0.328,4.188,0.988,6.032
			c0.654,1.85,1.694,3.788,3.112,5.808c-2.584,1.519-4.745,3.521-6.491,6c-1.749,2.48-2.618,5.568-2.618,9.259
			c0,5.064,1.291,8.972,3.869,11.729c2.583,2.76,6.024,4.138,10.325,4.138c2.933,0,5.35-0.663,7.25-1.991
			c1.896-1.33,3.348-2.918,4.36-4.774l3.873,5.552L158.644,75.926z M139.824,63.999c-0.454,1.318-1.215,2.542-2.275,3.678
			c-1.064,1.14-2.403,1.708-4.024,1.708c-1.925,0-3.479-0.769-4.669-2.316c-1.187-1.542-1.782-3.654-1.782-6.336
			c0-2.276,0.478-4.125,1.44-5.543c0.961-1.413,2-2.479,3.11-3.188L139.824,63.999z M138.812,38.987
			c-1.127,1.392-2.443,2.59-3.946,3.604c-1.007-1.414-1.758-2.778-2.261-4.095c-0.499-1.315-0.752-2.759-0.752-4.328
			c0-1.823,0.415-3.366,1.243-4.629c0.825-1.266,1.918-1.898,3.272-1.898s2.383,0.58,3.084,1.745
			c0.702,1.166,1.055,2.655,1.055,4.476C140.508,35.888,139.943,37.594,138.812,38.987z M201.759,75.926l-9.034-12.832l7.971-16.403
			h-8.951l-4.104,9.94l-6.146-8.883c1.314-0.808,2.576-1.695,3.795-2.657c1.215-0.958,2.275-2.022,3.188-3.188
			c0.914-1.163,1.646-2.452,2.203-3.871c0.562-1.417,0.836-2.987,0.836-4.709c0-1.972-0.305-3.743-0.91-5.314
			c-0.604-1.567-1.438-2.894-2.492-3.985c-1.062-1.088-2.318-1.922-3.779-2.504c-1.461-0.58-3.078-0.873-4.844-0.873
			c-1.812,0-3.521,0.317-5.106,0.951c-1.587,0.634-2.95,1.531-4.086,2.695c-1.136,1.165-2.026,2.581-2.688,4.25
			c-0.652,1.669-0.979,3.542-0.979,5.618c0,2.176,0.327,4.188,0.983,6.032c0.654,1.85,1.695,3.788,3.111,5.808
			c-2.58,1.519-4.744,3.521-6.492,6c-1.744,2.48-2.616,5.568-2.616,9.259c0,5.064,1.29,8.972,3.872,11.729
			c2.582,2.76,6.021,4.138,10.322,4.138c2.928,0,5.353-0.663,7.25-1.991c1.896-1.33,3.354-2.918,4.363-4.774l3.874,5.552
			L201.759,75.926z M182.938,63.999c-0.451,1.318-1.211,2.542-2.271,3.678c-1.062,1.14-2.397,1.708-4.021,1.708
			c-1.924,0-3.479-0.769-4.666-2.316c-1.191-1.542-1.785-3.654-1.785-6.336c0-2.276,0.479-4.125,1.438-5.543
			c0.961-1.413,2-2.479,3.116-3.188L182.938,63.999z M181.93,38.987c-1.129,1.392-2.445,2.59-3.951,3.604
			c-1.004-1.414-1.758-2.778-2.26-4.095c-0.5-1.315-0.75-2.759-0.75-4.328c0-1.823,0.412-3.366,1.239-4.629
			c0.83-1.266,1.921-1.898,3.274-1.898c1.353,0,2.383,0.58,3.082,1.745c0.701,1.166,1.057,2.655,1.057,4.476
			C183.621,35.888,183.059,37.594,181.93,38.987z"/>
	</g>
</g>
<g id="Layer_2_2_" display="none">
	<path display="inline" fill="none" stroke="#000000" stroke-width="3" d="M203.098,83.695c6.914,0,12.521-5.605,12.521-12.52
		V22.598c0-6.914-5.604-12.52-12.521-12.52h-86.196c-6.915,0-12.52,5.606-12.52,12.52v48.577c0,6.915,5.605,12.52,12.52,12.52h64.31
		l20.548,16.994L203.098,83.695z"/>
</g>
<g id="Layer_3_3_">
	<rect x="102.5" y="9.647" fill="none" stroke="#000000" stroke-width="3" width="115" height="80"/>
</g>
</svg>
