<?xml version="1.0" encoding="utf-8"?>
<!-- Generator: Adobe Illustrator 14.0.0, SVG Export Plug-In . SVG Version: 6.00 Build 43363)  -->
<!DOCTYPE svg PUBLIC "-//W3C//DTD SVG 1.1//EN" "http://www.w3.org/Graphics/SVG/1.1/DTD/svg11.dtd">
<svg version="1.1" id="Layer_1" xmlns="http://www.w3.org/2000/svg" xmlns:xlink="http://www.w3.org/1999/xlink" x="0px" y="0px"
	 width="300px" height="140px" viewBox="0 0 300 140" enable-background="new 0 0 300 140" xml:space="preserve">
<g id="Layer_3">
	<g>
		<path fill="#659099" d="M40.721,136.029H32.03l-6.173-33.508h-0.126l-6.173,33.508h-8.691L2.364,91.438h7.685l5.73,34.642h0.252
			l5.985-34.642h7.936l6.171,34.642h0.127l5.731-34.642h7.307L40.721,136.029z"/>
		<path fill="#659099" d="M54.579,136.029V91.438h19.965v6.677H61.822v11.84h11.777v6.174H61.822v13.165h13.353v6.739
			L54.579,136.029L54.579,136.029z"/>
		<path fill="#659099" d="M107.799,123.559c0,2.353-0.388,4.314-1.165,5.889c-0.776,1.574-1.763,2.857-2.96,3.844
			c-1.196,0.986-2.541,1.691-4.03,2.109c-1.491,0.42-2.952,0.632-4.378,0.632H82.039V91.438h11.842c1.299,0,2.686,0.156,4.156,0.473
			c1.47,0.312,2.812,0.881,4.031,1.697c1.217,0.82,2.225,1.955,3.023,3.404c0.797,1.447,1.196,3.327,1.196,5.637
			c0,2.771-0.588,4.953-1.764,6.552c-1.177,1.594-2.54,2.707-4.095,3.337v0.127c0.84,0.208,1.69,0.562,2.552,1.07
			c0.861,0.505,1.646,1.207,2.362,2.108c0.714,0.902,1.301,1.994,1.764,3.273C107.57,120.398,107.799,121.88,107.799,123.559z
			 M99.486,103.843c0-1.133-0.178-2.089-0.532-2.864c-0.354-0.774-0.812-1.408-1.377-1.892c-0.563-0.479-1.222-0.827-1.972-1.038
			c-0.753-0.209-1.523-0.314-2.315-0.314h-4.133v12.408h4.257c0.751,0,1.493-0.113,2.223-0.347c0.73-0.229,1.377-0.598,1.94-1.103
			c0.564-0.504,1.023-1.152,1.377-1.952C99.308,105.943,99.486,104.977,99.486,103.843z M100.557,122.93
			c0-1.303-0.21-2.404-0.627-3.307c-0.418-0.904-0.96-1.639-1.629-2.208c-0.669-0.563-1.398-0.974-2.192-1.226
			c-0.792-0.252-1.587-0.381-2.38-0.381h-4.572v13.922h4.761c0.919,0,1.774-0.135,2.568-0.41c0.792-0.271,1.492-0.692,2.098-1.26
			c0.604-0.565,1.085-1.271,1.441-2.109C100.379,125.113,100.557,124.105,100.557,122.93z"/>
		<path fill="#659099" d="M155.666,113.796c0,7.056-1.479,12.522-4.438,16.406c-2.96,3.884-7.317,5.827-13.069,5.827h-11.147V91.438
			h11.21c5.711,0,10.047,1.961,13.006,5.889C154.188,101.253,155.666,106.742,155.666,113.796z M148.111,113.796
			c0-2.646-0.243-4.954-0.726-6.928c-0.482-1.976-1.165-3.611-2.046-4.915c-0.882-1.301-1.932-2.278-3.15-2.928
			c-1.219-0.651-2.54-0.979-3.968-0.979h-3.59v31.368h3.59c1.428,0,2.749-0.328,3.968-0.978c1.219-0.651,2.269-1.627,3.15-2.931
			c0.881-1.304,1.563-2.928,2.046-4.88C147.868,118.676,148.111,116.398,148.111,113.796z"/>
		<path fill="#659099" d="M162.848,136.029V91.438h19.967v6.677h-12.723v11.84h11.777v6.174h-11.777v13.165h13.354v6.739
			L162.848,136.029L162.848,136.029z"/>
		<path fill="#659099" d="M207.82,100.064c-1.639-1.975-3.696-2.959-6.174-2.959c-0.715,0-1.408,0.112-2.078,0.347
			c-0.674,0.229-1.282,0.598-1.826,1.103c-0.544,0.504-0.975,1.154-1.291,1.951c-0.314,0.799-0.475,1.744-0.475,2.836
			c0,1.887,0.566,3.348,1.7,4.376c1.136,1.028,2.623,2.007,4.476,2.931c1.091,0.545,2.203,1.175,3.336,1.89
			c1.135,0.715,2.162,1.575,3.089,2.581c0.922,1.01,1.679,2.207,2.267,3.593c0.586,1.386,0.883,3.021,0.883,4.912
			c0,2.187-0.349,4.112-1.041,5.796c-0.69,1.68-1.615,3.098-2.771,4.25c-1.153,1.156-2.511,2.027-4.062,2.613
			c-1.554,0.588-3.19,0.881-4.91,0.881c-2.48,0-4.77-0.48-6.867-1.447c-2.102-0.965-3.776-2.183-5.039-3.65l4.097-5.543
			c0.964,1.176,2.128,2.1,3.494,2.771c1.362,0.67,2.761,1.008,4.188,1.008c1.596,0,2.918-0.546,3.971-1.639
			c1.047-1.093,1.572-2.622,1.572-4.601c0-1.931-0.631-3.463-1.894-4.598c-1.259-1.135-2.854-2.183-4.784-3.148
			c-1.221-0.588-2.359-1.237-3.436-1.953c-1.066-0.713-2.014-1.562-2.833-2.551c-0.817-0.985-1.472-2.141-1.952-3.465
			c-0.482-1.324-0.727-2.906-0.727-4.755c0-2.312,0.365-4.294,1.104-5.952c0.736-1.658,1.701-3.033,2.898-4.123
			c1.195-1.096,2.551-1.899,4.062-2.427c1.514-0.526,3.047-0.79,4.6-0.79c2.268,0,4.295,0.368,6.078,1.104
			c1.782,0.736,3.285,1.815,4.504,3.244L207.82,100.064z"/>
		<path fill="#659099" d="M218.589,136.029V91.438h7.56v44.594h-7.56V136.029z"/>
		<path fill="#659099" d="M256.914,135.966c-1.865,0.675-4.104,1.009-6.705,1.009c-2.646,0-5.02-0.556-7.117-1.668
			c-2.102-1.113-3.875-2.699-5.324-4.756c-1.447-2.059-2.559-4.512-3.34-7.371c-0.773-2.853-1.162-6.021-1.162-9.509
			c0-3.401,0.375-6.53,1.133-9.387c0.758-2.854,1.848-5.32,3.275-7.399c1.428-2.078,3.148-3.695,5.166-4.85
			c2.014-1.155,4.282-1.734,6.799-1.734c2.646,0,4.936,0.475,6.867,1.418c1.93,0.945,3.508,2.278,4.727,4.002l-4.348,5.289
			c-1.68-2.436-3.947-3.654-6.805-3.654c-1.555,0-2.906,0.443-4.062,1.324c-1.15,0.883-2.107,2.07-2.861,3.561
			c-0.76,1.488-1.322,3.223-1.702,5.193c-0.38,1.976-0.565,4.057-0.565,6.237c0,2.269,0.188,4.399,0.565,6.392
			c0.38,1.996,0.942,3.738,1.702,5.229c0.754,1.49,1.711,2.655,2.861,3.494c1.156,0.844,2.529,1.262,4.129,1.262
			c1.011,0,1.918-0.114,2.736-0.348c0.82-0.229,1.483-0.534,1.985-0.914v-11.524h-5.419v-6.555h12.283v22.611
			C260.391,134.413,258.785,135.296,256.914,135.966z"/>
		<path fill="#659099" d="M289.322,136.029l-12.661-31.493h-0.188l0.125,31.493h-6.803V91.438h8.631l12.534,31.682h0.188
			l-0.062-31.682h6.548v44.594h-8.312V136.029z"/>
	</g>
</g>
<g id="Layer_4">
	<path d="M136.875,73.945l-4.25-6.094c-1.112,2.037-2.708,3.782-4.792,5.241c-2.083,1.456-4.736,2.186-7.957,2.186
		c-4.722,0-8.5-1.512-11.334-4.541c-2.832-3.027-4.25-7.318-4.25-12.875c0-4.054,0.959-7.444,2.875-10.167
		c1.918-2.72,4.292-4.917,7.125-6.583c-1.556-2.22-2.695-4.346-3.416-6.375c-0.725-2.027-1.084-4.235-1.084-6.625
		c0-2.277,0.36-4.333,1.079-6.166c0.721-1.834,1.704-3.388,2.95-4.667c1.247-1.277,2.742-2.263,4.485-2.958
		c1.745-0.694,3.615-1.042,5.609-1.042c1.937,0,3.709,0.319,5.315,0.958c1.606,0.639,2.991,1.556,4.155,2.75
		c1.162,1.195,2.077,2.653,2.74,4.375c0.664,1.723,0.997,3.667,0.997,5.833c0,1.889-0.306,3.611-0.916,5.167
		c-0.612,1.556-1.417,2.972-2.417,4.25c-1,1.278-2.167,2.445-3.5,3.499c-1.333,1.056-2.722,2.029-4.167,2.917l6.749,9.75l4.5-10.916
		h9.833l-8.75,18.007l9.917,14.087L136.875,73.945z M118.709,47.696c-1.222,0.778-2.362,1.946-3.417,3.5
		c-1.056,1.556-1.583,3.583-1.583,6.083c0,2.944,0.653,5.264,1.959,6.958c1.304,1.695,3.013,2.542,5.124,2.542
		c1.778,0,3.25-0.626,4.417-1.875c1.167-1.25,2.001-2.596,2.499-4.042L118.709,47.696z M128.459,27.78c0-2-0.386-3.637-1.156-4.916
		c-0.77-1.277-1.899-1.916-3.386-1.916s-2.685,0.695-3.594,2.083c-0.91,1.39-1.363,3.083-1.363,5.083
		c0,1.723,0.274,3.306,0.825,4.75c0.551,1.446,1.377,2.945,2.479,4.5c1.65-1.111,3.096-2.43,4.334-3.958
		C127.839,31.878,128.459,30.003,128.459,27.78z"/>
	<path d="M184.207,73.945l-4.25-6.094c-1.113,2.037-2.709,3.782-4.793,5.241c-2.082,1.456-4.736,2.186-7.957,2.186
		c-4.723,0-8.499-1.512-11.332-4.541c-2.834-3.027-4.251-7.318-4.251-12.875c0-4.054,0.957-7.444,2.874-10.167
		c1.917-2.72,4.293-4.917,7.125-6.583c-1.557-2.22-2.695-4.346-3.417-6.375c-0.724-2.027-1.083-4.235-1.083-6.625
		c0-2.277,0.357-4.333,1.08-6.166c0.719-1.834,1.703-3.388,2.947-4.667c1.246-1.277,2.742-2.263,4.485-2.958
		c1.746-0.694,3.615-1.042,5.607-1.042c1.937,0,3.709,0.319,5.315,0.958c1.606,0.639,2.99,1.556,4.154,2.75
		c1.162,1.195,2.076,2.653,2.74,4.375c0.664,1.723,0.998,3.667,0.998,5.833c0,1.889-0.309,3.611-0.918,5.167
		c-0.611,1.556-1.415,2.972-2.417,4.25c-0.999,1.278-2.165,2.445-3.499,3.499c-1.333,1.056-2.723,2.029-4.166,2.917l6.75,9.75
		l4.5-10.916h9.832l-8.75,18.007l9.916,14.087L184.207,73.945z M166.041,47.696c-1.225,0.778-2.363,1.946-3.418,3.5
		c-1.055,1.556-1.582,3.583-1.582,6.083c0,2.944,0.652,5.264,1.957,6.958c1.305,1.695,3.014,2.542,5.125,2.542
		c1.777,0,3.249-0.626,4.416-1.875c1.166-1.25,2-2.596,2.5-4.042L166.041,47.696z M175.789,27.78c0-2-0.385-3.637-1.156-4.916
		c-0.771-1.277-1.898-1.916-3.387-1.916c-1.486,0-2.684,0.695-3.594,2.083c-0.908,1.39-1.363,3.083-1.363,5.083
		c0,1.723,0.275,3.306,0.826,4.75c0.551,1.446,1.377,2.945,2.479,4.5c1.65-1.111,3.098-2.43,4.336-3.958
		C175.17,31.878,175.789,30.003,175.789,27.78z"/>
</g>
</svg>
