<?xml version="1.0" encoding="utf-8"?>
<!-- Generator: Adobe Illustrator 14.0.0, SVG Export Plug-In . SVG Version: 6.00 Build 43363)  -->
<!DOCTYPE svg PUBLIC "-//W3C//DTD SVG 1.1//EN" "http://www.w3.org/Graphics/SVG/1.1/DTD/svg11.dtd">
<svg version="1.1" id="Layer_1" xmlns="http://www.w3.org/2000/svg" xmlns:xlink="http://www.w3.org/1999/xlink" x="0px" y="0px"
	 width="102px" height="96px" viewBox="-24.499 -22.75 102 96" enable-background="new -24.499 -22.75 102 96" xml:space="preserve"
	>
<g id="Layer_1_1_" display="none">
	
		<text transform="matrix(1 0 0 1 22.0269 157.9336)" display="inline" fill="#659099" font-family="'PTSans-NarrowBold'" font-size="63.7596">DORA CHAN</text>
	<g id="Layer_2_4_" display="inline">
		<g id="Layer_2_5_">
			<path d="M158.646,73.926l-9.033-12.832l7.976-16.402h-8.955l-4.103,9.939l-6.146-8.883c1.316-0.809,2.582-1.695,3.794-2.657
				c1.217-0.958,2.276-2.022,3.188-3.188c0.905-1.16,1.643-2.449,2.198-3.868c0.56-1.417,0.834-2.987,0.834-4.709
				c0-1.974-0.303-3.743-0.903-5.314c-0.604-1.567-1.438-2.894-2.496-3.985c-1.062-1.088-2.321-1.922-3.783-2.504
				c-1.461-0.58-3.077-0.873-4.842-0.873c-1.812,0-3.521,0.317-5.106,0.951c-1.59,0.634-2.949,1.531-4.086,2.695
				c-1.138,1.165-2.029,2.581-2.688,4.25c-0.654,1.669-0.986,3.542-0.986,5.618c0,2.176,0.328,4.188,0.988,6.03
				c0.65,1.852,1.689,3.787,3.107,5.81c-2.584,1.521-4.744,3.521-6.486,6c-1.748,2.479-2.617,5.565-2.617,9.259
				c0,5.064,1.291,8.975,3.869,11.729c2.582,2.76,6.021,4.139,10.32,4.139c2.938,0,5.354-0.664,7.25-1.991
				c1.896-1.328,3.352-2.918,4.359-4.771l3.873,5.553L158.646,73.926z M139.825,61.999c-0.455,1.317-1.217,2.543-2.275,3.678
				c-1.062,1.142-2.4,1.709-4.021,1.709c-1.926,0-3.479-0.77-4.67-2.315c-1.188-1.543-1.779-3.65-1.779-6.334
				c0-2.273,0.479-4.125,1.438-5.543c0.961-1.414,2-2.479,3.107-3.188L139.825,61.999z M138.812,36.986
				c-1.127,1.393-2.439,2.591-3.943,3.604c-1.01-1.414-1.762-2.777-2.264-4.095c-0.5-1.313-0.752-2.761-0.752-4.328
				c0-1.823,0.414-3.366,1.242-4.629c0.824-1.267,1.918-1.898,3.271-1.898c1.353,0,2.383,0.58,3.084,1.745
				c0.701,1.166,1.055,2.655,1.055,4.477C140.508,33.889,139.942,35.594,138.812,36.986z M201.758,73.926l-9.032-12.832
				l7.971-16.402h-8.946l-4.104,9.939l-6.146-8.883c1.312-0.809,2.571-1.695,3.795-2.657c1.215-0.958,2.271-2.022,3.188-3.188
				c0.914-1.16,1.646-2.449,2.203-3.868c0.562-1.417,0.836-2.987,0.836-4.709c0-1.974-0.309-3.743-0.91-5.314
				c-0.604-1.567-1.438-2.894-2.49-3.985c-1.062-1.088-2.318-1.922-3.779-2.504c-1.461-0.58-3.076-0.873-4.844-0.873
				c-1.812,0-3.521,0.317-5.104,0.951c-1.59,0.634-2.949,1.531-4.086,2.695c-1.14,1.165-2.025,2.581-2.688,4.25
				c-0.652,1.669-0.979,3.542-0.979,5.618c0,2.176,0.327,4.188,0.983,6.03c0.649,1.852,1.69,3.787,3.106,5.81
				c-2.58,1.521-4.744,3.521-6.492,6c-1.739,2.479-2.612,5.565-2.612,9.259c0,5.064,1.291,8.975,3.873,11.729
				c2.58,2.76,6.021,4.139,10.317,4.139c2.933,0,5.354-0.664,7.25-1.991c1.896-1.328,3.354-2.918,4.36-4.771l3.875,5.553
				L201.758,73.926z M182.938,61.999c-0.451,1.317-1.211,2.543-2.271,3.678c-1.062,1.142-2.396,1.709-4.021,1.709
				c-1.924,0-3.479-0.77-4.666-2.315c-1.188-1.543-1.785-3.65-1.785-6.334c0-2.273,0.479-4.125,1.438-5.543
				c0.962-1.414,2-2.479,3.115-3.188L182.938,61.999z M181.931,36.986c-1.13,1.393-2.445,2.591-3.951,3.604
				c-1.004-1.414-1.758-2.777-2.261-4.095c-0.5-1.313-0.75-2.761-0.75-4.328c0-1.823,0.412-3.366,1.238-4.629
				c0.83-1.267,1.922-1.898,3.272-1.898c1.354,0,2.386,0.58,3.082,1.745c0.701,1.166,1.06,2.655,1.06,4.477
				C183.622,33.889,183.06,35.594,181.931,36.986z"/>
		</g>
		<path fill="none" stroke="#000000" stroke-width="3" d="M203.099,83.695c6.914,0,12.521-5.604,12.521-12.521V22.598
			c0-6.914-5.604-12.52-12.521-12.52h-86.195c-6.916,0-12.521,5.606-12.521,12.52v48.576c0,6.916,5.604,12.521,12.521,12.521h64.312
			l20.549,16.994L203.099,83.695z"/>
	</g>
	<text transform="matrix(1 0 0 1 63.918 194.0234)" display="inline" fill="#CCDD59" font-family="'PTSans-Narrow'" font-size="36">WEB DESIGNER</text>
	<text transform="matrix(1 0 0 1 92.9766 210.0234)" display="inline" font-family="'PTSans-Narrow'" font-size="14">ASPIRATIONAL DEVELOPER</text>
	<g id="Layer_3_2_" display="inline">
		<line fill="none" stroke="#000000" stroke-width="1.4" x1="294.967" y1="162.562" x2="24.967" y2="162.562"/>
	</g>
</g>
<g id="Layer_2_3_">
	<path d="M24.967,41.457l-8.126-11.545l7.172-14.758h-8.056l-3.688,8.942l-5.531-7.992c1.184-0.726,2.324-1.526,3.412-2.39
		c1.096-0.862,2.048-1.818,2.869-2.868c0.818-1.046,1.479-2.206,1.982-3.482c0.5-1.275,0.75-2.688,0.75-4.235
		c0-1.776-0.271-3.368-0.816-4.782c-0.544-1.41-1.294-2.604-2.245-3.584c-0.956-0.98-2.089-1.73-3.404-2.254
		C7.973-8.014,6.515-8.276,4.929-8.276c-1.63,0-3.168,0.284-4.596,0.854c-1.43,0.57-2.654,1.377-3.676,2.425
		C-4.365-3.95-5.169-2.676-5.759-1.174S-6.647,2.014-6.647,3.88c0,1.958,0.295,3.768,0.889,5.426c0.59,1.666,1.525,3.41,2.8,5.226
		c-2.324,1.368-4.27,3.168-5.84,5.398c-1.572,2.229-2.356,5.008-2.356,8.332c0,4.555,1.162,8.07,3.482,10.549
		c2.322,2.484,5.418,3.727,9.288,3.727c2.64,0,4.813-0.6,6.523-1.793c1.708-1.195,3.013-2.623,3.925-4.295l3.481,4.996
		L24.967,41.457z M8.033,30.725c-0.406,1.184-1.092,2.287-2.046,3.311c-0.958,1.025-2.16,1.537-3.62,1.537
		c-1.732,0-3.128-0.691-4.202-2.082c-1.066-1.385-1.602-3.287-1.602-5.701c0-2.047,0.43-3.711,1.294-4.987
		c0.865-1.272,1.798-2.232,2.798-2.868L8.033,30.725z M7.123,8.222c-1.012,1.252-2.198,2.33-3.548,3.242
		c-0.906-1.272-1.582-2.5-2.034-3.685C1.089,6.596,0.863,5.298,0.863,3.886c0-1.641,0.374-3.028,1.12-4.164
		c0.741-1.141,1.724-1.708,2.943-1.708c1.221,0,2.145,0.522,2.776,1.567c0.63,1.049,0.95,2.389,0.95,4.028
		C8.649,5.432,8.143,6.968,7.123,8.222z M63.755,41.457L55.63,29.912l7.168-14.758h-8.047l-3.695,8.942l-5.531-7.992
		c1.184-0.726,2.316-1.526,3.414-2.39c1.094-0.862,2.047-1.818,2.873-2.868C52.63,9.8,53.29,8.64,53.79,7.364
		c0.508-1.275,0.754-2.688,0.754-4.235c0-1.776-0.277-3.368-0.82-4.782c-0.541-1.41-1.291-2.604-2.236-3.584
		c-0.959-0.98-2.084-1.73-3.398-2.254c-1.314-0.522-2.77-0.784-4.357-0.784c-1.631,0-3.176,0.284-4.598,0.854
		c-1.43,0.57-2.65,1.377-3.676,2.425s-1.824,2.321-2.422,3.823c-0.582,1.502-0.875,3.188-0.875,5.055
		c0,1.958,0.293,3.768,0.879,5.426c0.59,1.666,1.527,3.41,2.797,5.226c-2.322,1.368-4.268,3.168-5.842,5.398
		c-1.566,2.229-2.354,5.008-2.354,8.332c0,4.555,1.16,8.07,3.484,10.549c2.32,2.484,5.414,3.727,9.285,3.727
		c2.633,0,4.816-0.6,6.521-1.793c1.709-1.195,3.021-2.623,3.928-4.295l3.482,4.996L63.755,41.457z M46.823,30.725
		c-0.406,1.184-1.09,2.287-2.041,3.311c-0.959,1.025-2.16,1.537-3.623,1.537c-1.73,0-3.123-0.691-4.201-2.082
		c-1.074-1.385-1.609-3.287-1.609-5.701c0-2.047,0.434-3.711,1.293-4.987c0.867-1.272,1.795-2.232,2.805-2.868L46.823,30.725z
		 M45.915,8.222c-1.018,1.252-2.203,2.33-3.555,3.242c-0.902-1.272-1.582-2.5-2.033-3.685c-0.451-1.184-0.676-2.481-0.676-3.894
		c0-1.641,0.373-3.028,1.117-4.164c0.748-1.141,1.727-1.708,2.943-1.708c1.219,0,2.148,0.522,2.779,1.567
		c0.627,1.049,0.955,2.389,0.955,4.028C47.438,5.432,46.931,6.968,45.915,8.222z"/>
</g>
<g id="Layer_2_2_" display="none">
	<path display="inline" fill="none" stroke="#000000" stroke-width="3" d="M203.099,83.695c6.914,0,12.521-5.604,12.521-12.521
		V22.598c0-6.914-5.604-12.52-12.521-12.52h-86.195c-6.916,0-12.521,5.606-12.521,12.52v48.576c0,6.916,5.604,12.521,12.521,12.521
		h64.312l20.549,16.994L203.099,83.695z"/>
</g>
<path fill="none" stroke="#000000" stroke-width="2" d="M65.638,55.363c4.961,0,8.996-4.027,8.996-8.996V-12.11
	c0-4.968-4.035-8.996-8.996-8.996h-78.272c-4.968,0-8.996,4.028-8.996,8.996v58.477c0,4.973,4.028,8.996,8.996,8.996h55.542
	l19.25,15.291L65.638,55.363z"/>
</svg>
