<?xml version="1.0" encoding="utf-8"?>
<!-- Generator: Adobe Illustrator 14.0.0, SVG Export Plug-In . SVG Version: 6.00 Build 43363)  -->
<!DOCTYPE svg PUBLIC "-//W3C//DTD SVG 1.1//EN" "http://www.w3.org/Graphics/SVG/1.1/DTD/svg11.dtd">
<svg version="1.1" xmlns="http://www.w3.org/2000/svg" xmlns:xlink="http://www.w3.org/1999/xlink" x="0px" y="0px" width="320px"
	 height="224px" viewBox="0 0.396 320 224" enable-background="new 0 0.396 320 224" xml:space="preserve">
<g id="Layer_1">
	<path d="M78.229,206.805v-1.512h-0.033c-0.135,0.508-0.361,0.936-0.678,1.272c-0.315,0.336-0.764,0.508-1.342,0.508
		c-0.431,0-0.811-0.11-1.138-0.338c-0.329-0.228-0.604-0.545-0.831-0.942c-0.227-0.4-0.398-0.879-0.52-1.424
		c-0.117-0.548-0.176-1.152-0.176-1.812c0-0.655,0.055-1.256,0.168-1.801c0.11-0.543,0.279-1.01,0.5-1.397
		c0.221-0.394,0.5-0.696,0.832-0.916c0.334-0.224,0.717-0.332,1.146-0.332c0.511,0,0.938,0.153,1.29,0.466
		c0.351,0.312,0.588,0.723,0.711,1.229h0.033v-5.84h1.121v12.837h-1.086v0.002L78.229,206.805L78.229,206.805z M78.229,202.596
		c0-0.5-0.035-0.965-0.107-1.395c-0.073-0.431-0.188-0.802-0.342-1.113c-0.151-0.312-0.344-0.558-0.568-0.738
		c-0.229-0.182-0.484-0.271-0.777-0.271c-0.308,0-0.57,0.092-0.789,0.271c-0.224,0.184-0.406,0.43-0.555,0.738
		c-0.146,0.312-0.256,0.682-0.322,1.113c-0.067,0.43-0.104,0.896-0.104,1.395c0,0.482,0.031,0.939,0.104,1.365
		c0.066,0.424,0.176,0.795,0.322,1.112c0.146,0.315,0.331,0.565,0.555,0.748c0.219,0.183,0.48,0.271,0.789,0.271
		c0.303,0,0.566-0.09,0.789-0.271c0.219-0.183,0.405-0.433,0.561-0.748c0.152-0.317,0.266-0.688,0.34-1.112
		C78.192,203.535,78.229,203.082,78.229,202.596z"/>
	<path d="M82.544,202.83c0,0.463,0.039,0.894,0.119,1.281c0.079,0.391,0.195,0.729,0.348,1.021c0.154,0.289,0.35,0.518,0.581,0.678
		c0.234,0.164,0.511,0.246,0.829,0.246c0.409,0,0.738-0.123,0.987-0.371c0.247-0.25,0.44-0.549,0.577-0.898l0.851,0.492
		c-0.203,0.508-0.504,0.938-0.903,1.281c-0.402,0.346-0.914,0.52-1.537,0.52c-0.941,0-1.672-0.396-2.192-1.188
		c-0.519-0.795-0.779-1.885-0.779-3.273c0-0.658,0.067-1.266,0.203-1.816c0.136-0.551,0.329-1.029,0.585-1.424
		c0.252-0.398,0.562-0.709,0.932-0.926c0.366-0.222,0.774-0.332,1.229-0.332c0.496,0,0.915,0.107,1.261,0.323
		c0.344,0.214,0.624,0.507,0.838,0.882c0.217,0.375,0.368,0.812,0.467,1.311c0.096,0.5,0.144,1.027,0.144,1.598v0.609H82.55v-0.01
		h-0.006V202.83z M85.956,201.9c0-0.852-0.131-1.535-0.393-2.047c-0.261-0.514-0.67-0.771-1.229-0.771
		c-0.33,0-0.604,0.103-0.828,0.297c-0.222,0.197-0.4,0.442-0.546,0.729c-0.144,0.287-0.243,0.599-0.308,0.927
		c-0.063,0.327-0.094,0.618-0.094,0.864L85.956,201.9L85.956,201.9z"/>
	<path d="M92.324,199.844c-0.149-0.246-0.341-0.451-0.57-0.604c-0.229-0.151-0.511-0.229-0.841-0.229
		c-0.363,0-0.659,0.134-0.893,0.396c-0.232,0.266-0.348,0.613-0.348,1.041c0,0.457,0.111,0.783,0.338,0.988
		c0.229,0.204,0.567,0.391,1.021,0.561c0.226,0.092,0.451,0.201,0.678,0.328c0.227,0.131,0.428,0.293,0.604,0.486
		c0.176,0.191,0.319,0.42,0.435,0.688c0.112,0.265,0.169,0.586,0.169,0.959c0,0.824-0.225,1.467-0.669,1.928
		c-0.449,0.457-1.028,0.687-1.741,0.687c-0.477,0-0.912-0.108-1.308-0.33c-0.396-0.223-0.726-0.516-0.984-0.895l0.681-0.729
		c0.191,0.297,0.422,0.533,0.687,0.723c0.267,0.188,0.58,0.281,0.942,0.281c0.396,0,0.717-0.146,0.959-0.434
		c0.244-0.291,0.365-0.67,0.365-1.146c0-0.271-0.048-0.5-0.138-0.688c-0.091-0.188-0.207-0.341-0.354-0.466
		c-0.148-0.125-0.314-0.231-0.502-0.323c-0.188-0.089-0.381-0.175-0.586-0.252c-0.216-0.08-0.42-0.177-0.619-0.289
		c-0.199-0.113-0.377-0.259-0.533-0.44c-0.159-0.181-0.287-0.398-0.383-0.652c-0.099-0.254-0.146-0.562-0.146-0.926
		c0-0.354,0.062-0.674,0.179-0.972c0.116-0.293,0.282-0.545,0.5-0.756c0.215-0.205,0.461-0.371,0.737-0.489
		c0.276-0.119,0.581-0.181,0.908-0.181c0.478,0,0.886,0.097,1.229,0.28c0.346,0.188,0.627,0.427,0.842,0.722L92.324,199.844z"/>
	<path d="M96.192,195.803c0,0.236-0.071,0.436-0.219,0.586c-0.148,0.152-0.324,0.229-0.527,0.229c-0.213,0-0.393-0.07-0.532-0.229
		c-0.146-0.152-0.213-0.35-0.213-0.586c0-0.227,0.067-0.418,0.213-0.576c0.144-0.158,0.319-0.238,0.532-0.238
		c0.217,0,0.393,0.078,0.535,0.238C96.124,195.385,96.192,195.576,96.192,195.803z M94.89,206.805v-8.422h1.12v8.422H94.89z"/>
	<path d="M103.919,206.686c0,0.6-0.048,1.154-0.146,1.664c-0.097,0.508-0.256,0.949-0.481,1.324
		c-0.228,0.373-0.532,0.668-0.917,0.881c-0.387,0.219-0.865,0.328-1.441,0.328c-0.557,0-1.072-0.129-1.554-0.387
		c-0.481-0.252-0.869-0.595-1.165-1.025l0.729-0.781c0.229,0.35,0.514,0.635,0.856,0.852c0.345,0.217,0.731,0.322,1.163,0.322
		c0.372,0,0.684-0.076,0.926-0.236c0.243-0.158,0.436-0.379,0.569-0.66c0.136-0.285,0.231-0.621,0.289-1.004
		c0.056-0.387,0.084-0.811,0.084-1.271v-1.396h-0.032c-0.136,0.509-0.363,0.938-0.679,1.272c-0.318,0.34-0.767,0.509-1.343,0.509
		c-0.43,0-0.811-0.111-1.137-0.339c-0.328-0.228-0.605-0.541-0.832-0.94c-0.229-0.4-0.398-0.877-0.52-1.424
		c-0.119-0.55-0.18-1.153-0.18-1.812c0-0.656,0.059-1.256,0.17-1.799c0.113-0.545,0.279-1.014,0.5-1.398
		c0.223-0.393,0.498-0.699,0.834-0.916c0.334-0.223,0.716-0.334,1.146-0.334c0.511,0,0.942,0.156,1.302,0.467
		c0.355,0.312,0.596,0.723,0.721,1.23h0.052v-1.426h1.086V206.686L103.919,206.686z M102.832,202.596
		c0-0.486-0.034-0.945-0.106-1.377c-0.074-0.432-0.188-0.807-0.343-1.121c-0.151-0.314-0.343-0.564-0.567-0.748
		c-0.229-0.18-0.485-0.271-0.78-0.271c-0.306,0-0.569,0.092-0.79,0.271c-0.221,0.184-0.405,0.43-0.551,0.738
		c-0.148,0.312-0.254,0.682-0.324,1.113c-0.067,0.43-0.104,0.896-0.104,1.395c0,0.482,0.034,0.939,0.104,1.365
		c0.068,0.424,0.176,0.795,0.324,1.112c0.146,0.315,0.33,0.565,0.551,0.748c0.221,0.183,0.484,0.271,0.79,0.271
		c0.304,0,0.569-0.09,0.788-0.271c0.222-0.183,0.41-0.431,0.562-0.739c0.154-0.312,0.267-0.681,0.341-1.104
		C102.798,203.553,102.832,203.092,102.832,202.596z"/>
	<path d="M110.845,206.805v-5.436c0-0.259-0.015-0.521-0.041-0.791c-0.025-0.265-0.09-0.509-0.188-0.729
		c-0.096-0.22-0.231-0.397-0.406-0.543c-0.175-0.142-0.404-0.211-0.688-0.211c-0.285,0-0.535,0.075-0.756,0.229
		c-0.224,0.154-0.408,0.363-0.562,0.628c-0.153,0.27-0.271,0.573-0.355,0.92c-0.084,0.346-0.127,0.705-0.127,1.075v4.854h-1.121
		v-6.299c0-0.182-0.002-0.375-0.01-0.586c-0.007-0.209-0.012-0.416-0.02-0.611c-0.008-0.196-0.012-0.379-0.018-0.543
		c-0.006-0.166-0.016-0.293-0.025-0.383h1.09c0.021,0.215,0.035,0.478,0.05,0.779c0.013,0.307,0.019,0.596,0.019,0.865h0.033
		c0.158-0.566,0.418-1.027,0.781-1.385c0.359-0.355,0.812-0.533,1.355-0.533c0.455,0,0.815,0.096,1.096,0.287
		c0.277,0.193,0.488,0.445,0.638,0.758c0.149,0.312,0.244,0.664,0.3,1.053c0.051,0.391,0.073,0.775,0.073,1.162v5.436h-1.118
		V206.805z"/>
	<path d="M115.125,202.83c0,0.463,0.039,0.894,0.119,1.281c0.077,0.391,0.194,0.729,0.349,1.021
		c0.153,0.289,0.348,0.518,0.579,0.678c0.233,0.164,0.511,0.246,0.828,0.246c0.409,0,0.737-0.123,0.985-0.371
		c0.252-0.25,0.445-0.549,0.582-0.898l0.852,0.492c-0.205,0.508-0.507,0.938-0.908,1.281c-0.4,0.346-0.912,0.52-1.535,0.52
		c-0.94,0-1.672-0.396-2.189-1.188c-0.521-0.795-0.781-1.885-0.781-3.273c0-0.658,0.066-1.266,0.202-1.816
		c0.137-0.553,0.331-1.029,0.585-1.424c0.253-0.398,0.564-0.709,0.934-0.926c0.365-0.222,0.773-0.332,1.228-0.332
		c0.496,0,0.916,0.107,1.261,0.323c0.346,0.214,0.624,0.507,0.838,0.882c0.217,0.375,0.369,0.812,0.467,1.311
		c0.094,0.496,0.146,1.027,0.146,1.598v0.609h-4.533v-0.01h-0.006v-0.004H115.125z M118.536,201.9c0-0.852-0.131-1.535-0.393-2.047
		c-0.261-0.514-0.67-0.771-1.229-0.771c-0.33,0-0.604,0.104-0.826,0.297c-0.222,0.197-0.404,0.442-0.548,0.729
		c-0.142,0.289-0.244,0.6-0.308,0.928s-0.092,0.619-0.092,0.865H118.536L118.536,201.9z"/>
	<path d="M123.614,198.623c0.326-0.33,0.701-0.496,1.117-0.496c0.093,0,0.16,0.011,0.205,0.021l-0.033,1.15
		c-0.045-0.012-0.088-0.021-0.127-0.021c-0.039-0.009-0.088-0.011-0.145-0.011c-0.283,0-0.535,0.097-0.756,0.291
		c-0.223,0.19-0.406,0.438-0.555,0.743c-0.146,0.309-0.256,0.656-0.33,1.046c-0.071,0.39-0.11,0.776-0.11,1.161v4.298h-1.118v-6.302
		c0-0.178-0.004-0.375-0.009-0.586c-0.007-0.207-0.015-0.414-0.019-0.61c-0.006-0.196-0.012-0.377-0.02-0.543
		c-0.006-0.166-0.014-0.291-0.023-0.384h1.088c0.021,0.216,0.039,0.481,0.05,0.809c0.014,0.323,0.021,0.666,0.021,1.025h0.03
		C123.042,199.48,123.287,198.949,123.614,198.623z"/>
	<path d="M135.449,206.805l-1.087-1.646c-0.114,0.262-0.25,0.51-0.407,0.748c-0.157,0.238-0.347,0.441-0.562,0.619
		c-0.215,0.176-0.461,0.316-0.738,0.418c-0.277,0.104-0.592,0.15-0.941,0.15c-0.837,0-1.513-0.297-2.027-0.896
		c-0.516-0.602-0.772-1.443-0.772-2.529c0-0.43,0.056-0.82,0.161-1.17c0.107-0.352,0.252-0.674,0.434-0.961
		c0.182-0.287,0.396-0.547,0.645-0.779c0.25-0.231,0.521-0.442,0.813-0.635c-0.384-0.578-0.644-1.078-0.778-1.504
		c-0.136-0.428-0.205-0.867-0.205-1.334c0-0.871,0.228-1.559,0.68-2.062c0.451-0.502,1.031-0.758,1.73-0.758
		c0.34,0,0.646,0.064,0.926,0.188c0.279,0.125,0.518,0.301,0.716,0.525c0.194,0.229,0.353,0.504,0.465,0.82
		c0.114,0.325,0.17,0.68,0.17,1.063c0,0.396-0.062,0.754-0.187,1.069c-0.125,0.316-0.293,0.605-0.504,0.877
		c-0.209,0.265-0.455,0.504-0.737,0.722c-0.283,0.215-0.576,0.424-0.884,0.629l1.918,2.869l1.055-2.869h1.152l-1.545,3.733
		l1.867,2.722h-1.354L135.449,206.805L135.449,206.805z M131.476,200.896c-0.19,0.137-0.377,0.285-0.561,0.451
		c-0.184,0.162-0.34,0.354-0.479,0.574c-0.136,0.223-0.244,0.467-0.33,0.74c-0.084,0.271-0.127,0.575-0.127,0.914
		c0,0.78,0.174,1.395,0.52,1.834c0.345,0.439,0.79,0.663,1.332,0.663c0.238,0,0.459-0.053,0.654-0.151
		c0.197-0.103,0.379-0.236,0.543-0.398s0.308-0.354,0.427-0.57c0.116-0.213,0.217-0.436,0.296-0.66L131.476,200.896z
		 M133.58,197.143c0-0.545-0.106-0.969-0.313-1.281c-0.209-0.312-0.507-0.469-0.893-0.469c-0.387,0-0.699,0.174-0.941,0.521
		c-0.242,0.344-0.365,0.789-0.365,1.334c0,0.438,0.062,0.836,0.188,1.188c0.123,0.352,0.332,0.754,0.628,1.205
		c0.476-0.307,0.878-0.654,1.205-1.043C133.416,198.207,133.58,197.721,133.58,197.143z"/>
	<path d="M144.989,206.805c-0.014-0.09-0.021-0.205-0.023-0.34c-0.007-0.137-0.014-0.281-0.02-0.437
		c-0.006-0.151-0.008-0.299-0.008-0.438c0-0.141,0-0.264,0-0.365h-0.035c-0.282,1.201-0.963,1.801-2.035,1.801
		c-0.238,0-0.479-0.049-0.715-0.137c-0.237-0.092-0.45-0.238-0.646-0.439c-0.192-0.205-0.351-0.461-0.476-0.771
		c-0.125-0.312-0.188-0.688-0.188-1.127c0-0.612,0.109-1.106,0.323-1.479c0.215-0.37,0.484-0.666,0.814-0.883
		c0.326-0.215,0.688-0.358,1.078-0.435c0.392-0.073,0.76-0.11,1.111-0.11h0.661v-0.438c0-0.735-0.134-1.272-0.407-1.615
		c-0.271-0.338-0.639-0.506-1.104-0.506c-0.316,0-0.61,0.086-0.883,0.254c-0.271,0.168-0.504,0.384-0.694,0.645l-0.595-0.695
		c0.26-0.371,0.6-0.662,1.02-0.863c0.418-0.204,0.839-0.307,1.256-0.307c0.883,0,1.514,0.287,1.887,0.865
		c0.371,0.579,0.56,1.422,0.56,2.527v3.496c0,0.115,0.003,0.257,0.012,0.429c0.004,0.166,0.011,0.343,0.017,0.517
		c0.008,0.178,0.016,0.34,0.024,0.492c0.009,0.153,0.021,0.273,0.033,0.364L144.989,206.805L144.989,206.805z M144.854,202.525
		h-0.679c-0.271,0-0.544,0.025-0.812,0.076c-0.273,0.051-0.514,0.146-0.725,0.287c-0.207,0.141-0.381,0.338-0.517,0.588
		c-0.136,0.246-0.205,0.572-0.205,0.969c0,0.588,0.13,1.016,0.392,1.271c0.26,0.263,0.545,0.392,0.852,0.392
		c0.314,0,0.584-0.095,0.806-0.285c0.222-0.194,0.396-0.438,0.527-0.729c0.129-0.295,0.224-0.619,0.28-0.969
		c0.056-0.351,0.084-0.689,0.084-1.021v-0.576h-0.004L144.854,202.525L144.854,202.525z"/>
	<path d="M151.524,199.844c-0.146-0.246-0.336-0.451-0.568-0.604c-0.23-0.151-0.512-0.229-0.842-0.229
		c-0.362,0-0.659,0.134-0.893,0.396c-0.232,0.266-0.347,0.613-0.347,1.041c0,0.457,0.112,0.783,0.338,0.988
		c0.228,0.204,0.567,0.391,1.021,0.561c0.228,0.092,0.453,0.201,0.68,0.328c0.229,0.131,0.428,0.293,0.604,0.486
		c0.176,0.191,0.319,0.42,0.435,0.688c0.112,0.265,0.169,0.586,0.169,0.959c0,0.824-0.223,1.467-0.67,1.928
		c-0.447,0.457-1.028,0.687-1.741,0.687c-0.474,0-0.909-0.108-1.308-0.33c-0.396-0.223-0.725-0.516-0.985-0.895l0.681-0.729
		c0.192,0.297,0.422,0.533,0.688,0.723c0.265,0.188,0.578,0.281,0.939,0.281c0.396,0,0.717-0.146,0.959-0.434
		c0.242-0.291,0.363-0.67,0.363-1.146c0-0.271-0.045-0.5-0.135-0.688c-0.092-0.188-0.207-0.341-0.355-0.466
		c-0.147-0.125-0.313-0.231-0.5-0.323c-0.188-0.089-0.385-0.175-0.589-0.252c-0.213-0.08-0.42-0.177-0.618-0.289
		c-0.199-0.113-0.377-0.259-0.535-0.44c-0.158-0.181-0.285-0.398-0.381-0.652c-0.099-0.254-0.146-0.562-0.146-0.926
		c0-0.354,0.061-0.674,0.179-0.972c0.119-0.293,0.285-0.545,0.5-0.756c0.216-0.205,0.461-0.371,0.738-0.489
		c0.278-0.119,0.581-0.181,0.909-0.181c0.476,0,0.886,0.097,1.229,0.28c0.347,0.188,0.624,0.427,0.843,0.722L151.524,199.844z"/>
	<path d="M159.897,202.611c0,0.656-0.059,1.258-0.17,1.801c-0.113,0.541-0.283,1.014-0.51,1.408
		c-0.227,0.396-0.503,0.705-0.832,0.928c-0.328,0.221-0.712,0.328-1.154,0.328c-0.51,0-0.938-0.158-1.281-0.477
		c-0.346-0.314-0.588-0.729-0.723-1.238h-0.02v5.521h-1.119v-12.5h1.087v1.513h0.032c0.136-0.521,0.363-0.947,0.678-1.281
		c0.317-0.334,0.766-0.502,1.344-0.502c0.416,0,0.795,0.111,1.127,0.338c0.332,0.229,0.613,0.539,0.842,0.938
		c0.227,0.396,0.396,0.868,0.518,1.42C159.836,201.35,159.897,201.953,159.897,202.611z M158.742,202.576
		c0-0.484-0.032-0.941-0.103-1.365c-0.071-0.426-0.178-0.795-0.324-1.114c-0.146-0.314-0.332-0.562-0.553-0.748
		c-0.221-0.179-0.482-0.271-0.787-0.271c-0.309,0-0.57,0.094-0.791,0.271c-0.221,0.188-0.408,0.434-0.561,0.748
		c-0.154,0.319-0.268,0.688-0.341,1.114c-0.071,0.424-0.11,0.881-0.11,1.365c0,0.498,0.036,0.965,0.11,1.394
		c0.073,0.434,0.188,0.805,0.341,1.112c0.15,0.312,0.342,0.558,0.568,0.74c0.226,0.182,0.484,0.27,0.781,0.27
		c0.305,0,0.566-0.088,0.787-0.27c0.223-0.185,0.405-0.431,0.553-0.74c0.146-0.311,0.254-0.682,0.323-1.112
		C158.708,203.541,158.742,203.074,158.742,202.576z"/>
	<path d="M163.311,195.803c0,0.236-0.072,0.436-0.222,0.586c-0.147,0.152-0.321,0.229-0.522,0.229c-0.217,0-0.396-0.07-0.535-0.229
		c-0.145-0.152-0.215-0.35-0.215-0.586c0-0.227,0.07-0.418,0.215-0.576c0.142-0.158,0.318-0.238,0.535-0.238
		c0.213,0,0.392,0.078,0.533,0.238C163.236,195.385,163.311,195.576,163.311,195.803z M162.002,206.805v-8.422h1.119v8.422H162.002z
		"/>
	<path d="M167.652,198.623c0.328-0.33,0.701-0.496,1.121-0.496c0.09,0,0.158,0.011,0.207,0.021l-0.035,1.15
		c-0.045-0.012-0.088-0.021-0.127-0.021c-0.039-0.009-0.088-0.011-0.146-0.011c-0.282,0-0.532,0.097-0.757,0.291
		c-0.221,0.19-0.406,0.438-0.553,0.743c-0.146,0.309-0.256,0.656-0.329,1.046c-0.074,0.39-0.108,0.776-0.108,1.161v4.298h-1.121
		v-6.302c0-0.178-0.003-0.375-0.007-0.586c-0.009-0.207-0.019-0.414-0.021-0.61c-0.006-0.196-0.012-0.377-0.021-0.543
		c-0.004-0.166-0.015-0.291-0.022-0.384h1.086c0.021,0.216,0.041,0.481,0.053,0.809c0.014,0.323,0.02,0.666,0.02,1.025h0.034
		C167.081,199.48,167.325,198.949,167.652,198.623z"/>
	<path d="M171.693,195.803c0,0.236-0.071,0.436-0.219,0.586c-0.146,0.154-0.324,0.229-0.525,0.229c-0.219,0-0.395-0.07-0.535-0.229
		c-0.145-0.152-0.214-0.35-0.214-0.586c0-0.227,0.069-0.418,0.214-0.576c0.146-0.158,0.316-0.238,0.535-0.238
		c0.213,0,0.392,0.078,0.531,0.238C171.624,195.385,171.693,195.576,171.693,195.803z M170.393,206.805v-8.422h1.116v8.422H170.393z
		"/>
	<path d="M178.438,206.805v-5.436c0-0.259-0.018-0.521-0.041-0.791c-0.029-0.265-0.094-0.509-0.188-0.729
		c-0.095-0.22-0.231-0.397-0.406-0.543c-0.177-0.142-0.405-0.211-0.688-0.211c-0.282,0-0.532,0.075-0.756,0.229
		c-0.222,0.154-0.41,0.363-0.561,0.628c-0.152,0.27-0.271,0.573-0.357,0.92c-0.084,0.346-0.125,0.705-0.125,1.075v4.854h-1.123
		v-6.299c0-0.182-0.002-0.375-0.008-0.586c-0.007-0.209-0.011-0.416-0.019-0.611c-0.007-0.196-0.013-0.379-0.019-0.543
		c-0.008-0.166-0.018-0.293-0.025-0.383h1.087c0.022,0.215,0.039,0.478,0.052,0.779c0.014,0.307,0.018,0.596,0.018,0.865h0.037
		c0.156-0.566,0.416-1.027,0.781-1.385c0.361-0.355,0.812-0.533,1.356-0.533c0.452,0,0.815,0.096,1.095,0.287
		c0.277,0.193,0.488,0.445,0.635,0.758c0.148,0.312,0.245,0.664,0.297,1.053c0.051,0.391,0.076,0.775,0.076,1.162v5.436h-1.117
		V206.805L178.438,206.805z"/>
	<path d="M187.398,206.686c0,0.6-0.049,1.154-0.146,1.664c-0.099,0.508-0.257,0.949-0.481,1.324
		c-0.229,0.373-0.535,0.668-0.918,0.881c-0.387,0.219-0.865,0.328-1.442,0.328c-0.556,0-1.072-0.129-1.554-0.387
		c-0.48-0.252-0.868-0.595-1.162-1.025l0.729-0.781c0.226,0.35,0.511,0.635,0.854,0.852c0.347,0.217,0.734,0.322,1.166,0.322
		c0.371,0,0.68-0.076,0.926-0.236c0.242-0.158,0.434-0.379,0.566-0.66c0.135-0.285,0.23-0.621,0.289-1.004
		c0.056-0.387,0.086-0.811,0.086-1.271v-1.396h-0.035c-0.135,0.509-0.358,0.938-0.68,1.272c-0.315,0.34-0.763,0.509-1.339,0.509
		c-0.431,0-0.811-0.111-1.139-0.339s-0.604-0.541-0.83-0.94c-0.229-0.4-0.399-0.877-0.521-1.424c-0.119-0.55-0.18-1.153-0.18-1.812
		c0-0.656,0.059-1.256,0.168-1.799c0.113-0.545,0.283-1.014,0.504-1.398c0.221-0.393,0.497-0.699,0.831-0.916
		c0.335-0.223,0.716-0.334,1.146-0.334c0.51,0,0.941,0.156,1.299,0.467c0.355,0.312,0.597,0.723,0.723,1.23h0.055v-1.426h1.084
		V206.686L187.398,206.686z M186.312,202.596c0-0.486-0.037-0.945-0.109-1.377c-0.07-0.432-0.188-0.807-0.342-1.121
		c-0.148-0.314-0.34-0.564-0.567-0.748c-0.228-0.18-0.483-0.271-0.776-0.271c-0.309,0-0.568,0.092-0.791,0.271
		c-0.223,0.184-0.404,0.43-0.553,0.738c-0.146,0.312-0.252,0.682-0.32,1.113c-0.068,0.43-0.104,0.896-0.104,1.395
		c0,0.482,0.032,0.939,0.104,1.365c0.063,0.424,0.178,0.795,0.32,1.112c0.146,0.315,0.33,0.565,0.553,0.748s0.482,0.271,0.791,0.271
		c0.305,0,0.567-0.09,0.789-0.271c0.223-0.183,0.406-0.431,0.561-0.739c0.154-0.312,0.265-0.681,0.339-1.104
		C186.273,203.553,186.312,203.092,186.312,202.596z"/>
	<path d="M197.363,206.805v-1.512h-0.031c-0.137,0.508-0.361,0.936-0.682,1.272c-0.312,0.338-0.762,0.508-1.34,0.508
		c-0.43,0-0.81-0.11-1.138-0.338c-0.327-0.228-0.604-0.545-0.832-0.942c-0.228-0.4-0.399-0.879-0.517-1.424
		c-0.119-0.548-0.178-1.152-0.178-1.812c0-0.655,0.057-1.256,0.166-1.801c0.111-0.543,0.279-1.01,0.506-1.397
		c0.219-0.394,0.496-0.696,0.83-0.916c0.332-0.224,0.716-0.332,1.146-0.332c0.509,0,0.94,0.153,1.29,0.466
		c0.354,0.312,0.591,0.723,0.716,1.229h0.033v-5.84h1.119v12.837h-1.089V206.805L197.363,206.805z M197.363,202.596
		c0-0.5-0.035-0.965-0.106-1.395c-0.073-0.431-0.188-0.802-0.341-1.113c-0.148-0.312-0.346-0.558-0.568-0.738
		c-0.228-0.182-0.484-0.271-0.779-0.271c-0.308,0-0.569,0.092-0.791,0.271c-0.219,0.184-0.403,0.43-0.549,0.738
		c-0.149,0.312-0.252,0.682-0.324,1.113c-0.065,0.43-0.104,0.896-0.104,1.395c0,0.482,0.035,0.939,0.104,1.365
		c0.064,0.424,0.175,0.795,0.324,1.112c0.146,0.315,0.33,0.565,0.549,0.748c0.222,0.183,0.481,0.271,0.791,0.271
		c0.307,0,0.568-0.09,0.789-0.271c0.221-0.183,0.412-0.433,0.562-0.748c0.153-0.317,0.265-0.688,0.341-1.112
		C197.328,203.535,197.363,203.082,197.363,202.596z"/>
	<path d="M201.682,202.83c0,0.463,0.037,0.894,0.117,1.281c0.078,0.391,0.195,0.729,0.352,1.021c0.149,0.289,0.347,0.518,0.58,0.678
		c0.231,0.164,0.506,0.246,0.826,0.246c0.408,0,0.736-0.123,0.986-0.371c0.252-0.25,0.443-0.549,0.58-0.898l0.852,0.492
		c-0.203,0.508-0.509,0.938-0.908,1.281c-0.399,0.346-0.912,0.52-1.537,0.52c-0.938,0-1.668-0.396-2.188-1.188
		c-0.521-0.795-0.78-1.885-0.78-3.273c0-0.658,0.066-1.266,0.201-1.816c0.139-0.553,0.331-1.029,0.586-1.424
		c0.254-0.398,0.565-0.709,0.938-0.926c0.361-0.222,0.771-0.332,1.226-0.332c0.497,0,0.917,0.107,1.261,0.323
		c0.344,0.214,0.625,0.507,0.84,0.882s0.371,0.812,0.465,1.311c0.096,0.5,0.146,1.027,0.146,1.598v0.609h-4.533v-0.01h-0.006v-0.004
		H201.682z M205.093,201.9c0-0.852-0.132-1.535-0.394-2.047c-0.264-0.514-0.674-0.771-1.229-0.771c-0.326,0-0.604,0.103-0.826,0.297
		c-0.223,0.197-0.402,0.442-0.547,0.729c-0.144,0.287-0.242,0.599-0.308,0.927c-0.062,0.327-0.095,0.618-0.095,0.864L205.093,201.9
		L205.093,201.9z"/>
	<path d="M210.812,206.805h-1.324l-2.258-8.422h1.188l1.747,7.229h0.035l1.662-7.229h1.156L210.812,206.805z"/>
	<path d="M215.229,202.83c0,0.463,0.037,0.894,0.119,1.281c0.073,0.391,0.194,0.729,0.348,1.021c0.154,0.289,0.347,0.518,0.58,0.678
		c0.232,0.164,0.511,0.246,0.826,0.246c0.41,0,0.739-0.123,0.988-0.371c0.25-0.25,0.444-0.549,0.58-0.898l0.852,0.492
		c-0.205,0.508-0.508,0.938-0.907,1.281c-0.401,0.346-0.914,0.52-1.537,0.52c-0.94,0-1.672-0.396-2.188-1.188
		c-0.521-0.795-0.779-1.885-0.779-3.273c0-0.658,0.063-1.266,0.203-1.816c0.135-0.553,0.328-1.029,0.584-1.424
		c0.252-0.398,0.562-0.709,0.931-0.926c0.37-0.222,0.776-0.332,1.229-0.332c0.496,0,0.916,0.107,1.262,0.323
		c0.345,0.214,0.623,0.507,0.838,0.882s0.371,0.812,0.467,1.311c0.095,0.496,0.145,1.027,0.145,1.598v0.609h-4.531v-0.008h-0.004
		v-0.004h-0.004V202.83z M218.643,201.9c0-0.852-0.131-1.535-0.395-2.047c-0.266-0.514-0.673-0.771-1.229-0.771
		c-0.33,0-0.605,0.104-0.826,0.297c-0.223,0.197-0.405,0.442-0.549,0.729c-0.145,0.289-0.244,0.6-0.309,0.928
		s-0.094,0.619-0.094,0.865H218.643L218.643,201.9z"/>
	<path d="M221.798,206.805v-12.838h1.12v12.838H221.798L221.798,206.805z"/>
	<path d="M230.896,202.611c0,0.668-0.065,1.271-0.203,1.814c-0.135,0.545-0.326,1.014-0.576,1.408
		c-0.248,0.396-0.561,0.703-0.926,0.92c-0.367,0.211-0.776,0.322-1.229,0.322s-0.856-0.109-1.226-0.322
		c-0.359-0.217-0.67-0.521-0.924-0.92c-0.254-0.396-0.451-0.863-0.586-1.408c-0.139-0.543-0.205-1.148-0.205-1.814
		c0-0.668,0.064-1.279,0.195-1.834c0.129-0.555,0.32-1.029,0.57-1.428c0.248-0.395,0.559-0.699,0.925-0.916
		c0.371-0.213,0.783-0.322,1.249-0.322c0.453,0,0.861,0.109,1.23,0.322c0.367,0.217,0.675,0.521,0.925,0.916
		c0.247,0.396,0.44,0.873,0.577,1.428C230.83,201.334,230.896,201.945,230.896,202.611z M229.743,202.586
		c0-0.498-0.035-0.961-0.111-1.39c-0.071-0.431-0.183-0.799-0.33-1.11c-0.146-0.31-0.327-0.554-0.55-0.736
		c-0.223-0.178-0.48-0.271-0.789-0.271c-0.311,0-0.572,0.094-0.802,0.271c-0.228,0.186-0.41,0.43-0.552,0.736
		c-0.143,0.312-0.248,0.68-0.322,1.11c-0.071,0.429-0.107,0.894-0.107,1.39s0.034,0.953,0.107,1.371
		c0.072,0.42,0.184,0.787,0.322,1.104c0.143,0.316,0.326,0.562,0.552,0.736c0.229,0.176,0.491,0.262,0.802,0.262
		c0.309,0,0.57-0.086,0.799-0.262s0.411-0.42,0.551-0.736c0.145-0.314,0.248-0.682,0.321-1.104
		C229.708,203.541,229.743,203.084,229.743,202.586z"/>
	<path d="M238.812,202.611c0,0.656-0.061,1.258-0.168,1.801c-0.115,0.541-0.285,1.014-0.514,1.408
		c-0.229,0.396-0.503,0.705-0.831,0.928c-0.325,0.221-0.714,0.328-1.153,0.328c-0.512,0-0.938-0.158-1.283-0.477
		c-0.344-0.314-0.586-0.729-0.721-1.238h-0.021v5.521h-1.119v-12.5h1.085v1.513h0.032c0.138-0.521,0.363-0.947,0.679-1.281
		c0.317-0.334,0.769-0.502,1.347-0.502c0.416,0,0.795,0.111,1.125,0.338c0.334,0.229,0.611,0.539,0.842,0.938
		c0.229,0.396,0.398,0.868,0.519,1.42C238.75,201.35,238.812,201.953,238.812,202.611z M237.652,202.576
		c0-0.484-0.03-0.941-0.101-1.365c-0.069-0.426-0.177-0.795-0.323-1.114c-0.147-0.314-0.33-0.562-0.553-0.748
		c-0.222-0.179-0.484-0.271-0.789-0.271c-0.306,0-0.57,0.094-0.789,0.271c-0.223,0.188-0.408,0.434-0.561,0.748
		c-0.154,0.319-0.268,0.688-0.342,1.114c-0.07,0.424-0.107,0.881-0.107,1.365c0,0.498,0.034,0.965,0.107,1.394
		c0.074,0.434,0.188,0.805,0.342,1.112c0.152,0.312,0.342,0.558,0.566,0.74c0.227,0.182,0.484,0.27,0.779,0.27
		c0.309,0,0.568-0.088,0.79-0.27c0.224-0.185,0.404-0.431,0.554-0.74c0.146-0.311,0.254-0.682,0.322-1.112
		C237.62,203.541,237.652,203.074,237.652,202.576z"/>
	<path d="M241.523,202.83c0,0.463,0.039,0.894,0.117,1.281c0.08,0.391,0.197,0.729,0.354,1.021c0.152,0.289,0.345,0.518,0.58,0.678
		c0.232,0.164,0.509,0.246,0.826,0.246c0.408,0,0.738-0.123,0.988-0.371c0.248-0.25,0.443-0.549,0.578-0.898l0.852,0.492
		c-0.2,0.508-0.506,0.938-0.906,1.281c-0.4,0.346-0.914,0.52-1.538,0.52c-0.938,0-1.669-0.396-2.188-1.188
		c-0.521-0.795-0.778-1.885-0.778-3.273c0-0.658,0.065-1.266,0.202-1.816c0.136-0.553,0.33-1.029,0.582-1.424
		c0.254-0.398,0.564-0.709,0.934-0.926c0.369-0.222,0.773-0.332,1.229-0.332c0.498,0,0.918,0.107,1.263,0.323
		c0.345,0.214,0.622,0.507,0.839,0.882c0.215,0.375,0.373,0.812,0.465,1.311c0.098,0.5,0.145,1.027,0.145,1.598v0.609h-4.528v-0.008
		h-0.007v-0.004h-0.006V202.83z M244.938,201.9c0-0.852-0.131-1.535-0.394-2.047c-0.261-0.514-0.671-0.771-1.228-0.771
		c-0.33,0-0.606,0.104-0.828,0.297c-0.221,0.197-0.403,0.442-0.547,0.729c-0.145,0.289-0.242,0.6-0.309,0.928
		c-0.062,0.328-0.095,0.619-0.095,0.865H244.938L244.938,201.9z"/>
	<path d="M250.018,198.623c0.325-0.33,0.701-0.496,1.121-0.496c0.09,0,0.154,0.011,0.201,0.021l-0.031,1.15
		c-0.045-0.012-0.09-0.021-0.127-0.021c-0.041-0.009-0.09-0.011-0.146-0.011c-0.285,0-0.535,0.097-0.758,0.291
		c-0.223,0.19-0.405,0.438-0.551,0.743c-0.147,0.309-0.259,0.656-0.332,1.046c-0.074,0.39-0.106,0.776-0.106,1.161v4.298h-1.122
		v-6.302c0-0.178-0.004-0.375-0.012-0.586c-0.006-0.207-0.012-0.414-0.016-0.61c-0.009-0.196-0.015-0.377-0.021-0.543
		c-0.007-0.166-0.019-0.291-0.024-0.384h1.086c0.021,0.216,0.041,0.481,0.051,0.809c0.017,0.323,0.021,0.666,0.021,1.025h0.035
		C249.439,199.48,249.688,198.949,250.018,198.623z"/>
	<g id="Layer_3">
		<g>
			<path fill="#659099" d="M50.997,153.926h-8.67l-6.157-33.424h-0.127l-6.155,33.424h-8.67l-8.482-44.479h7.666l5.716,34.555h0.252
				l5.97-34.555h7.916l6.155,34.555h0.127l5.716-34.555h7.29L50.997,153.926z"/>
			<path fill="#659099" d="M64.819,153.926v-44.479h19.914v6.66H72.045v11.812h11.747v6.158H72.045v13.131h13.317v6.723
				L64.819,153.926L64.819,153.926z"/>
			<path fill="#659099" d="M117.905,141.486c0,2.346-0.387,4.305-1.161,5.875c-0.772,1.567-1.761,2.85-2.952,3.836
				c-1.191,0.979-2.534,1.686-4.021,2.104c-1.485,0.416-2.943,0.632-4.367,0.632H92.211V109.45h11.812
				c1.295,0,2.681,0.154,4.146,0.472c1.466,0.312,2.807,0.879,4.021,1.69c1.215,0.818,2.221,1.949,3.017,3.396
				c0.795,1.441,1.192,3.314,1.192,5.619c0,2.766-0.586,4.94-1.762,6.537c-1.173,1.592-2.531,2.699-4.084,3.33v0.125
				c0.84,0.207,1.688,0.561,2.547,1.065c0.857,0.502,1.643,1.203,2.354,2.104c0.713,0.896,1.298,1.99,1.76,3.268
				C117.678,138.332,117.905,139.811,117.905,141.486z M109.614,121.82c0-1.129-0.178-2.082-0.529-2.855
				c-0.354-0.771-0.811-1.405-1.373-1.889c-0.562-0.479-1.22-0.824-1.968-1.035c-0.751-0.207-1.521-0.312-2.312-0.312h-4.121v12.377
				h4.246c0.748,0,1.488-0.111,2.217-0.348c0.729-0.229,1.373-0.596,1.938-1.1s1.021-1.15,1.373-1.947
				C109.438,123.914,109.614,122.949,109.614,121.82z M110.685,140.861c0-1.303-0.209-2.398-0.627-3.301
				c-0.416-0.902-0.957-1.636-1.625-2.203c-0.666-0.562-1.396-0.972-2.187-1.224c-0.79-0.252-1.584-0.379-2.375-0.379h-4.56v13.888
				h4.748c0.916,0,1.771-0.135,2.562-0.408c0.79-0.271,1.487-0.689,2.093-1.258c0.604-0.562,1.083-1.27,1.438-2.104
				C110.505,143.037,110.685,142.031,110.685,140.861z"/>
			<path fill="#659099" d="M165.652,131.748c0,7.037-1.477,12.49-4.428,16.365c-2.953,3.873-7.3,5.812-13.037,5.812h-11.119v-44.478
				h11.183c5.694,0,10.021,1.955,12.977,5.875C164.182,119.236,165.652,124.713,165.652,131.748z M158.119,131.748
				c0-2.64-0.242-4.941-0.726-6.91c-0.48-1.973-1.162-3.602-2.041-4.902c-0.881-1.297-1.928-2.271-3.143-2.92
				c-1.217-0.646-2.534-0.979-3.959-0.979h-3.582v31.289h3.582c1.424,0,2.742-0.326,3.959-0.979
				c1.215-0.646,2.264-1.623,3.143-2.922c0.879-1.302,1.56-2.923,2.041-4.869C157.876,136.617,158.119,134.346,158.119,131.748z"/>
			<path fill="#659099" d="M172.814,153.926v-44.479h19.918v6.66h-12.688v11.812h11.746v6.158h-11.746v13.131h13.316v6.723
				L172.814,153.926L172.814,153.926z"/>
			<path fill="#659099" d="M217.68,118.051c-1.636-1.971-3.688-2.951-6.158-2.951c-0.713,0-1.404,0.109-2.072,0.346
				c-0.672,0.229-1.277,0.596-1.819,1.102c-0.544,0.502-0.974,1.15-1.288,1.945c-0.312,0.797-0.475,1.739-0.475,2.828
				c0,1.881,0.562,3.338,1.693,4.36c1.135,1.028,2.615,2.002,4.467,2.926c1.088,0.546,2.197,1.173,3.326,1.886
				c1.133,0.715,2.154,1.567,3.082,2.573c0.918,1.009,1.676,2.201,2.262,3.584c0.584,1.384,0.882,3.017,0.882,4.9
				c0,2.184-0.351,4.103-1.038,5.778c-0.688,1.678-1.607,3.093-2.766,4.24c-1.149,1.15-2.504,2.021-4.049,2.604
				c-1.557,0.586-3.186,0.879-4.897,0.879c-2.476,0-4.759-0.479-6.849-1.44c-2.099-0.964-3.771-2.181-5.025-3.644l4.086-5.529
				c0.961,1.175,2.122,2.097,3.484,2.767c1.357,0.668,2.754,1.008,4.179,1.008c1.594,0,2.911-0.549,3.962-1.639
				c1.044-1.091,1.566-2.615,1.566-4.591c0-1.928-0.631-3.452-1.895-4.586c-1.253-1.133-2.846-2.178-4.771-3.141
				c-1.217-0.589-2.353-1.234-3.428-1.945c-1.062-0.715-2.011-1.56-2.826-2.547c-0.812-0.979-1.47-2.135-1.943-3.453
				c-0.479-1.321-0.727-2.899-0.727-4.744c0-2.311,0.361-4.284,1.104-5.938c0.732-1.654,1.693-3.024,2.89-4.111
				c1.193-1.096,2.548-1.896,4.056-2.422s3.039-0.791,4.586-0.791c2.267,0,4.285,0.369,6.062,1.104
				c1.773,0.731,3.273,1.811,4.49,3.236L217.68,118.051z"/>
			<path fill="#659099" d="M228.421,153.926v-44.479h7.54v44.48L228.421,153.926L228.421,153.926z"/>
			<path fill="#659099" d="M266.646,153.863c-1.857,0.674-4.095,1.006-6.688,1.006c-2.645,0-5.009-0.551-7.104-1.662
				c-2.097-1.111-3.864-2.688-5.312-4.744c-1.441-2.055-2.551-4.5-3.33-7.354c-0.771-2.847-1.156-6.006-1.156-9.484
				c0-3.393,0.373-6.514,1.129-9.363c0.758-2.848,1.844-5.309,3.269-7.381c1.422-2.072,3.139-3.687,5.149-4.834
				c2.011-1.154,4.271-1.729,6.779-1.729c2.645,0,4.928,0.473,6.854,1.412c1.925,0.941,3.498,2.273,4.716,3.992l-4.338,5.276
				c-1.677-2.432-3.938-3.647-6.787-3.647c-1.552,0-2.899,0.445-4.054,1.322c-1.146,0.883-2.104,2.063-2.854,3.555
				c-0.759,1.481-1.317,3.215-1.694,5.181c-0.382,1.975-0.563,4.047-0.563,6.223c0,2.264,0.188,4.389,0.563,6.377
				c0.377,1.988,0.938,3.729,1.694,5.217c0.752,1.484,1.707,2.646,2.854,3.482c1.154,0.844,2.521,1.262,4.117,1.262
				c1.012,0,1.914-0.115,2.729-0.35c0.814-0.229,1.479-0.531,1.98-0.912v-11.496H259.2v-6.539h12.253v22.555
				C270.117,152.312,268.518,153.195,266.646,153.863z"/>
			<path fill="#659099" d="M298.979,153.926l-12.629-31.414h-0.188l0.125,31.414H279.5v-44.479h8.605l12.504,31.603h0.188
				l-0.062-31.603h6.532v44.48h-8.29v-0.001H298.979L298.979,153.926z"/>
		</g>
	</g>
	<g id="Layer_2">
		<path fill="#CCDD59" d="M102.778,180.228c0,3.68-0.771,6.529-2.314,8.557c-1.544,2.023-3.814,3.039-6.814,3.039h-5.813v-23.258
			h5.847c2.979,0,5.239,1.023,6.783,3.068C102.006,173.683,102.778,176.546,102.778,180.228z M98.835,180.228
			c0-1.381-0.124-2.588-0.374-3.613c-0.254-1.027-0.606-1.883-1.067-2.562s-1.009-1.188-1.644-1.521
			c-0.638-0.341-1.325-0.509-2.069-0.509H91.81v16.356h1.871c0.744,0,1.434-0.17,2.069-0.514c0.635-0.34,1.185-0.85,1.644-1.523
			c0.461-0.68,0.812-1.528,1.067-2.547C98.711,182.772,98.835,181.585,98.835,180.228z"/>
		<path fill="#CCDD59" d="M122.259,180.161c0,1.838-0.191,3.51-0.574,5.008c-0.385,1.502-0.938,2.789-1.658,3.861
			c-0.725,1.074-1.604,1.906-2.646,2.498c-1.042,0.59-2.207,0.887-3.499,0.887c-1.312,0-2.484-0.297-3.516-0.887
			c-1.029-0.59-1.904-1.424-2.629-2.498c-0.723-1.072-1.275-2.358-1.656-3.861c-0.387-1.497-0.577-3.17-0.577-5.008
			c0-1.84,0.188-3.508,0.562-4.996c0.371-1.487,0.92-2.77,1.643-3.844c0.723-1.068,1.604-1.897,2.645-2.479
			c1.037-0.58,2.217-0.869,3.53-0.869c1.291,0,2.457,0.289,3.499,0.869c1.038,0.582,1.921,1.41,2.645,2.479
			c0.724,1.074,1.274,2.354,1.658,3.844C122.065,176.653,122.259,178.321,122.259,180.161z M118.187,180.161
			c0-1.186-0.096-2.297-0.279-3.334c-0.188-1.041-0.461-1.938-0.822-2.692c-0.359-0.757-0.809-1.354-1.346-1.793
			c-0.537-0.437-1.156-0.654-1.855-0.654c-0.724,0-1.354,0.222-1.889,0.654c-0.538,0.438-0.986,1.036-1.348,1.793
			c-0.36,0.754-0.631,1.651-0.809,2.692c-0.174,1.037-0.26,2.148-0.26,3.334c0,1.181,0.086,2.295,0.26,3.334
			c0.178,1.035,0.446,1.943,0.809,2.709c0.359,0.767,0.81,1.367,1.348,1.81c0.535,0.438,1.164,0.655,1.889,0.655
			c0.723,0,1.352-0.217,1.889-0.655s0.984-1.041,1.348-1.81c0.361-0.768,0.63-1.674,0.807-2.709
			C118.101,182.454,118.187,181.341,118.187,180.161z"/>
		<path fill="#CCDD59" d="M135.562,191.821l-3.611-9.922h-2.201v9.922h-3.811v-23.256h6.635c0.964,0,1.852,0.125,2.66,0.377
			c0.811,0.25,1.506,0.65,2.086,1.195c0.578,0.551,1.035,1.24,1.363,2.07c0.326,0.834,0.491,1.832,0.491,2.992
			c0,0.897-0.112,1.688-0.346,2.381c-0.229,0.688-0.521,1.276-0.869,1.758c-0.353,0.482-0.737,0.869-1.165,1.168
			c-0.427,0.293-0.85,0.496-1.263,0.604l4.173,10.711H135.562L135.562,191.821z M135.299,175.397c0-0.701-0.1-1.281-0.296-1.738
			c-0.195-0.463-0.455-0.822-0.771-1.086c-0.314-0.264-0.672-0.447-1.065-0.555c-0.396-0.109-0.789-0.168-1.183-0.168h-2.234v7.16
			h2.234c0.963,0,1.756-0.301,2.381-0.902C134.985,177.505,135.299,176.601,135.299,175.397z"/>
		<path fill="#CCDD59" d="M152.873,191.821l-1.149-4.928h-6.109l-1.182,4.928h-3.943l5.781-23.258h5.025l5.684,23.258H152.873z
			 M148.769,172.276h-0.133l-2.529,11.528h5.127L148.769,172.276z"/>
		<path fill="#CCDD59" d="M176.375,191.558c-0.949,0.57-2.15,0.854-3.6,0.854c-1.314,0-2.504-0.306-3.564-0.918
			s-1.957-1.466-2.688-2.545c-0.733-1.086-1.307-2.373-1.709-3.865c-0.408-1.484-0.606-3.118-0.606-4.896
			c0-1.771,0.198-3.405,0.606-4.907c0.402-1.498,0.979-2.796,1.728-3.875c0.741-1.084,1.646-1.929,2.707-2.529
			c1.063-0.604,2.241-0.9,3.53-0.9c1.336,0,2.509,0.245,3.517,0.736c1.009,0.492,1.828,1.199,2.465,2.117l-2.266,2.763
			c-0.896-1.293-2.06-1.94-3.479-1.94c-0.787,0-1.478,0.227-2.068,0.676c-0.592,0.449-1.084,1.062-1.477,1.822
			c-0.396,0.768-0.688,1.67-0.892,2.709c-0.197,1.041-0.293,2.151-0.293,3.332c0,1.164,0.1,2.266,0.293,3.307
			c0.198,1.035,0.495,1.941,0.892,2.709c0.393,0.767,0.889,1.375,1.491,1.824c0.604,0.447,1.31,0.672,2.121,0.672
			c0.765,0,1.428-0.197,1.985-0.592c0.562-0.396,1.025-0.875,1.396-1.443l2.269,2.66
			C178.105,190.243,177.326,190.989,176.375,191.558z"/>
		<path fill="#CCDD59" d="M192.393,191.821v-10.314h-6.967v10.314h-3.912v-23.257h3.912v9.429h6.967v-9.429h3.906v23.259h-3.906
			V191.821z"/>
		<path fill="#CCDD59" d="M211.109,191.821l-1.148-4.928h-6.107l-1.184,4.928h-3.941l5.779-23.258h5.027l5.682,23.258H211.109z
			 M207.006,172.276h-0.131l-2.527,11.528h5.121L207.006,172.276z"/>
		<path fill="#CCDD59" d="M227.832,191.821l-6.604-16.426h-0.1l0.062,16.426h-3.549v-23.256h4.498l6.539,16.521h0.104l-0.033-16.521
			h3.416v23.258h-4.334V191.821z"/>
	</g>
</g>
<g id="Layer_2_2_">
	<g id="Layer_2_3_">
		<path d="M158.815,83.124L151.6,72.875l6.368-13.102h-7.153l-3.274,7.94l-4.91-7.095c1.052-0.646,2.061-1.354,3.03-2.122
			c0.971-0.765,1.819-1.615,2.548-2.546c0.726-0.93,1.312-1.96,1.758-3.092c0.444-1.132,0.666-2.386,0.666-3.761
			c0-1.576-0.241-2.99-0.725-4.244c-0.482-1.252-1.149-2.312-1.993-3.183c-0.848-0.869-1.856-1.536-3.023-2.001
			c-1.168-0.463-2.459-0.697-3.867-0.697c-1.449,0-2.812,0.254-4.08,0.76c-1.27,0.506-2.357,1.222-3.264,2.153
			c-0.907,0.93-1.621,2.061-2.146,3.395c-0.523,1.333-0.787,2.829-0.787,4.486c0,1.739,0.262,3.346,0.789,4.819
			c0.523,1.477,1.354,3.025,2.486,4.638c-2.063,1.213-3.79,2.812-5.185,4.791c-1.396,1.981-2.091,4.448-2.091,7.396
			c0,4.045,1.031,7.166,3.091,9.368c2.062,2.204,4.812,3.304,8.247,3.304c2.343,0,4.273-0.529,5.791-1.59
			c1.515-1.062,2.675-2.331,3.483-3.813l3.094,4.435L158.815,83.124z M143.783,73.597c-0.363,1.053-0.971,2.031-1.817,2.939
			c-0.85,0.91-1.92,1.364-3.215,1.364c-1.537,0-2.778-0.615-3.729-1.85c-0.948-1.231-1.424-2.919-1.424-5.062
			c0-1.818,0.382-3.294,1.151-4.427c0.767-1.13,1.597-1.98,2.485-2.547L143.783,73.597z M142.975,53.62
			c-0.9,1.112-1.952,2.07-3.152,2.879c-0.804-1.131-1.404-2.22-1.806-3.271c-0.399-1.051-0.601-2.203-0.601-3.457
			c0-1.456,0.331-2.688,0.992-3.698c0.659-1.011,1.532-1.516,2.614-1.516c1.081,0,1.903,0.463,2.463,1.394
			c0.561,0.931,0.842,2.121,0.842,3.574C144.33,51.144,143.879,52.507,142.975,53.62z M193.252,83.124l-7.215-10.249l6.365-13.102
			h-7.152l-3.275,7.94l-4.91-7.095c1.051-0.646,2.059-1.354,3.031-2.122c0.971-0.765,1.818-1.615,2.545-2.546
			c0.73-0.93,1.314-1.96,1.76-3.092s0.668-2.386,0.668-3.761c0-1.576-0.244-2.99-0.727-4.244c-0.486-1.252-1.148-2.312-1.992-3.183
			c-0.848-0.869-1.855-1.536-3.021-2.001c-1.168-0.463-2.459-0.697-3.867-0.697c-1.449,0-2.811,0.254-4.08,0.76
			c-1.268,0.506-2.359,1.222-3.264,2.153c-0.906,0.93-1.621,2.061-2.145,3.395c-0.525,1.333-0.785,2.829-0.785,4.486
			c0,1.739,0.26,3.346,0.787,4.819c0.523,1.477,1.355,3.025,2.486,4.638c-2.061,1.213-3.789,2.812-5.186,4.791
			c-1.393,1.981-2.09,4.448-2.09,7.396c0,4.045,1.031,7.166,3.094,9.368c2.062,2.204,4.809,3.304,8.244,3.304
			c2.34,0,4.273-0.529,5.791-1.59c1.516-1.062,2.676-2.331,3.486-3.813l3.094,4.435L193.252,83.124z M178.219,73.597
			c-0.361,1.053-0.969,2.031-1.816,2.939c-0.85,0.91-1.918,1.364-3.215,1.364c-1.535,0-2.779-0.615-3.727-1.85
			c-0.951-1.231-1.426-2.919-1.426-5.062c0-1.818,0.385-3.294,1.15-4.427c0.768-1.13,1.598-1.98,2.49-2.547L178.219,73.597z
			 M177.414,53.62c-0.902,1.112-1.953,2.07-3.156,2.879c-0.801-1.131-1.402-2.22-1.805-3.271c-0.4-1.051-0.6-2.203-0.6-3.457
			c0-1.456,0.33-2.688,0.99-3.698c0.664-1.011,1.535-1.516,2.615-1.516c1.084,0,1.904,0.463,2.463,1.394
			c0.562,0.931,0.844,2.121,0.844,3.574C178.766,51.144,178.316,52.507,177.414,53.62z"/>
	</g>
	<rect x="115.576" y="32.129" fill="none" stroke="#000000" stroke-width="3" width="88.848" height="58.8"/>
</g>
<g id="Layer_3_1_">
	<line fill="none" stroke="#000000" x1="306.247" y1="161.562" x2="13.688" y2="161.562"/>
</g>
</svg>
