<?xml version="1.0" encoding="utf-8"?>
<!-- Generator: Adobe Illustrator 14.0.0, SVG Export Plug-In . SVG Version: 6.00 Build 43363)  -->
<!DOCTYPE svg PUBLIC "-//W3C//DTD SVG 1.1//EN" "http://www.w3.org/Graphics/SVG/1.1/DTD/svg11.dtd">
<svg version="1.1" id="Layer_1" xmlns="http://www.w3.org/2000/svg" xmlns:xlink="http://www.w3.org/1999/xlink" x="0px" y="0px"
	 width="408px" height="408px" viewBox="0 0 408 408" enable-background="new 0 0 408 408" xml:space="preserve">
<g>
	<g>
		<defs>
			<polyline id="SVGID_1_" points="386,20 20,20 20,386 386,386 386,20 			"/>
		</defs>
		<clipPath id="SVGID_2_">
			<use xlink:href="#SVGID_1_"  overflow="visible"/>
		</clipPath>
		<g clip-path="url(#SVGID_2_)">
			<image overflow="visible" width="974" height="835" xlink:href="1DEB5723.jpg"  transform="matrix(0.24 0 0 0.24 19.52 19.52)">
			</image>
		</g>
		<g transform="matrix(1 0 0 1 -1.525879e-05 0)" clip-path="url(#SVGID_2_)">
			
				<image overflow="visible" width="557" height="1390" xlink:href="1DEB5721.jpg"  transform="matrix(0.24 0 0 0.24 252.7998 19.52)">
			</image>
		</g>
		<g clip-path="url(#SVGID_2_)">
			
				<image overflow="visible" width="974" height="696" xlink:href="1DEB5727.jpg"  transform="matrix(0.24 0 0 0.24 19.52 219.4404)">
			</image>
		</g>
		<g transform="matrix(1 0 0 1 -1.525879e-05 0)" clip-path="url(#SVGID_2_)">
			
				<image overflow="visible" width="557" height="141" xlink:href="1DEB5720.jpg"  transform="matrix(0.24 0 0 0.24 252.7998 352.6406)">
			</image>
		</g>
	</g>
</g>
</svg>
