<?xml version="1.0" encoding="utf-8"?>
<!-- Generator: Adobe Illustrator 14.0.0, SVG Export Plug-In . SVG Version: 6.00 Build 43363)  -->
<!DOCTYPE svg PUBLIC "-//W3C//DTD SVG 1.1//EN" "http://www.w3.org/Graphics/SVG/1.1/DTD/svg11.dtd">
<svg version="1.1" id="Layer_1" xmlns="http://www.w3.org/2000/svg" xmlns:xlink="http://www.w3.org/1999/xlink" x="0px" y="0px"
	 width="180px" height="50px" viewBox="0 0 180 50" enable-background="new 0 0 180 50" xml:space="preserve">
<g id="Layer_1_2_">
	<g id="Layer_1_1_" display="none">
		
			<text transform="matrix(1 0 0 1 22.0269 157.9336)" display="inline" fill="#659099" font-family="'PTSans-NarrowBold'" font-size="63.7596">DORA CHAN</text>
		<g id="Layer_2_4_" display="inline">
			<g id="Layer_2_5_">
				<path d="M158.646,73.926l-9.033-12.832l7.974-16.402h-8.955l-4.101,9.939l-6.146-8.883c1.316-0.809,2.582-1.695,3.793-2.657
					c1.217-0.958,2.277-2.022,3.189-3.188c0.906-1.161,1.643-2.45,2.199-3.869c0.559-1.417,0.834-2.987,0.834-4.709
					c0-1.973-0.303-3.743-0.904-5.314c-0.604-1.567-1.438-2.894-2.496-3.985c-1.062-1.088-2.322-1.922-3.783-2.504
					c-1.461-0.58-3.078-0.873-4.842-0.873c-1.812,0-3.521,0.317-5.107,0.951c-1.59,0.634-2.949,1.531-4.086,2.695
					c-1.137,1.165-2.029,2.581-2.688,4.25c-0.654,1.669-0.986,3.542-0.986,5.618c0,2.176,0.328,4.188,0.988,6.031
					c0.652,1.851,1.691,3.787,3.109,5.809c-2.584,1.52-4.744,3.521-6.488,6c-1.748,2.479-2.617,5.566-2.617,9.259
					c0,5.064,1.291,8.974,3.869,11.729c2.582,2.76,6.021,4.139,10.322,4.139c2.936,0,5.352-0.664,7.25-1.992
					c1.896-1.328,3.35-2.918,4.358-4.771l3.873,5.553L158.646,73.926z M139.825,61.999c-0.455,1.317-1.218,2.543-2.275,3.678
					c-1.062,1.142-2.399,1.709-4.021,1.709c-1.926,0-3.479-0.77-4.67-2.315c-1.188-1.543-1.781-3.651-1.781-6.334
					c0-2.274,0.479-4.125,1.439-5.543c0.961-1.414,2-2.479,3.106-3.188L139.825,61.999z M138.812,36.986
					c-1.127,1.393-2.441,2.591-3.945,3.604c-1.008-1.414-1.76-2.777-2.262-4.095c-0.5-1.313-0.752-2.761-0.752-4.328
					c0-1.823,0.414-3.366,1.242-4.629c0.823-1.267,1.918-1.897,3.271-1.897s2.383,0.579,3.084,1.744
					c0.7,1.166,1.055,2.655,1.055,4.477C140.508,33.889,139.941,35.594,138.812,36.986z M201.758,73.926l-9.031-12.832l7.971-16.402
					h-8.948l-4.104,9.939l-6.146-8.883c1.312-0.809,2.573-1.695,3.795-2.657c1.215-0.958,2.272-2.022,3.188-3.188
					c0.914-1.161,1.646-2.45,2.203-3.869c0.562-1.417,0.836-2.987,0.836-4.709c0-1.973-0.309-3.743-0.91-5.314
					c-0.604-1.567-1.438-2.894-2.491-3.985c-1.062-1.088-2.318-1.922-3.779-2.504c-1.461-0.58-3.077-0.873-4.844-0.873
					c-1.812,0-3.521,0.317-5.104,0.951c-1.588,0.634-2.949,1.531-4.086,2.695c-1.138,1.165-2.024,2.581-2.688,4.25
					c-0.652,1.669-0.98,3.542-0.98,5.618c0,2.176,0.328,4.188,0.984,6.031c0.65,1.851,1.691,3.787,3.107,5.809
					c-2.58,1.52-4.744,3.521-6.492,6c-1.74,2.479-2.613,5.566-2.613,9.259c0,5.064,1.291,8.974,3.873,11.729
					c2.58,2.76,6.021,4.139,10.318,4.139c2.932,0,5.354-0.664,7.25-1.992c1.896-1.328,3.354-2.918,4.36-4.771l3.875,5.553
					L201.758,73.926z M182.938,61.999c-0.451,1.317-1.211,2.543-2.271,3.678c-1.062,1.142-2.396,1.709-4.021,1.709
					c-1.924,0-3.479-0.77-4.666-2.315c-1.189-1.543-1.785-3.651-1.785-6.334c0-2.274,0.479-4.125,1.438-5.543
					c0.963-1.414,2-2.479,3.115-3.188L182.938,61.999z M181.932,36.986c-1.131,1.393-2.445,2.591-3.951,3.604
					c-1.004-1.414-1.758-2.777-2.262-4.095c-0.5-1.313-0.75-2.761-0.75-4.328c0-1.823,0.412-3.366,1.238-4.629
					c0.83-1.267,1.922-1.897,3.271-1.897c1.354,0,2.387,0.579,3.082,1.744c0.701,1.166,1.061,2.655,1.061,4.477
					C183.622,33.889,183.061,35.594,181.932,36.986z"/>
			</g>
			<path fill="none" stroke="#000000" stroke-width="3" d="M203.1,83.695c6.914,0,12.521-5.604,12.521-12.521V22.598
				c0-6.914-5.604-12.52-12.521-12.52h-86.195c-6.916,0-12.521,5.606-12.521,12.52v48.576c0,6.916,5.604,12.521,12.521,12.521
				h64.312l20.548,16.994L203.1,83.695z"/>
		</g>
		
			<text transform="matrix(1 0 0 1 63.918 194.0234)" display="inline" fill="#CCDD59" font-family="'PTSans-Narrow'" font-size="36">WEB DESIGNER</text>
		<text transform="matrix(1 0 0 1 92.9766 210.0234)" display="inline" font-family="'PTSans-Narrow'" font-size="14">ASPIRATIONAL DEVELOPER</text>
		<g id="Layer_3_2_" display="inline">
			<line fill="none" stroke="#000000" stroke-width="1.4" x1="294.967" y1="162.562" x2="24.967" y2="162.562"/>
		</g>
	</g>
	<g id="Layer_2_2_" display="none">
		<path display="inline" fill="none" stroke="#000000" stroke-width="3" d="M203.1,83.695c6.914,0,12.521-5.604,12.521-12.521
			V22.598c0-6.914-5.604-12.52-12.521-12.52h-86.195c-6.916,0-12.521,5.606-12.521,12.52v48.576c0,6.916,5.604,12.521,12.521,12.521
			h64.312l20.548,16.994L203.1,83.695z"/>
	</g>
</g>
<g enable-background="new    ">
	<path d="M17.914,37.063c0.69,0.415,1.51,0.769,2.459,1.062c0.95,0.293,1.924,0.439,2.926,0.439c1.139,0,2.106-0.286,2.9-0.86
		c0.794-0.571,1.19-1.501,1.19-2.786c0-1.076-0.241-1.961-0.725-2.656c-0.483-0.693-1.096-1.32-1.838-1.875
		c-0.742-0.556-1.546-1.066-2.408-1.531c-0.863-0.464-1.667-1.023-2.408-1.676c-0.743-0.655-1.355-1.427-1.838-2.321
		c-0.484-0.896-0.726-2.03-0.726-3.407c0-2.202,0.596-3.861,1.787-4.979c1.19-1.118,2.874-1.679,5.049-1.679
		c1.415,0,2.642,0.13,3.677,0.389c1.035,0.26,1.934,0.613,2.693,1.062l-0.984,3.108c-0.656-0.346-1.416-0.63-2.279-0.855
		c-0.862-0.223-1.744-0.337-2.641-0.337c-1.242,0-2.149,0.261-2.718,0.776c-0.57,0.52-0.854,1.331-0.854,2.434
		c0,0.865,0.242,1.6,0.725,2.202c0.483,0.604,1.096,1.157,1.838,1.657c0.742,0.502,1.545,1.01,2.408,1.526
		c0.861,0.519,1.666,1.132,2.408,1.839c0.742,0.708,1.354,1.555,1.839,2.538c0.483,0.984,0.724,2.218,0.724,3.702
		c0,0.967-0.155,1.881-0.465,2.744c-0.311,0.864-0.786,1.614-1.424,2.253c-0.64,0.64-1.434,1.149-2.383,1.528s-2.062,0.57-3.34,0.57
		c-1.52,0-2.832-0.147-3.936-0.441c-1.105-0.293-2.038-0.682-2.797-1.165L17.914,37.063z"/>
	<path d="M51.315,39.548c-0.828,0.761-1.882,1.346-3.158,1.761c-1.277,0.415-2.625,0.622-4.039,0.622
		c-1.624,0-3.03-0.321-4.221-0.957c-1.191-0.639-2.176-1.555-2.952-2.746s-1.347-2.615-1.709-4.273
		c-0.362-1.656-0.544-3.521-0.544-5.592c0-4.419,0.811-7.785,2.436-10.1c1.621-2.312,3.917-3.469,6.887-3.469
		c0.967,0,1.924,0.121,2.873,0.362c0.949,0.242,1.804,0.724,2.564,1.45c0.759,0.726,1.371,1.744,1.838,3.055
		c0.466,1.313,0.699,3.021,0.699,5.128c0,0.587-0.026,1.218-0.078,1.892c-0.051,0.673-0.112,1.369-0.182,2.095H38.576
		c0,1.485,0.121,2.832,0.362,4.04c0.24,1.209,0.621,2.235,1.139,3.083c0.519,0.845,1.182,1.501,1.994,1.967
		c0.811,0.467,1.82,0.7,3.029,0.7c0.932,0,1.855-0.174,2.771-0.52c0.914-0.344,1.612-0.759,2.097-1.242L51.315,39.548z
		 M48.416,25.669c0.068-2.589-0.294-4.487-1.088-5.696c-0.794-1.208-1.881-1.812-3.263-1.812c-1.589,0-2.849,0.604-3.781,1.812
		c-0.932,1.209-1.484,3.106-1.656,5.696H48.416z"/>
	<path d="M72.289,39.548c-0.827,0.761-1.882,1.346-3.159,1.761c-1.276,0.415-2.624,0.622-4.038,0.622
		c-1.623,0-3.03-0.321-4.221-0.957c-1.19-0.639-2.175-1.555-2.952-2.746s-1.346-2.615-1.709-4.273
		c-0.361-1.656-0.543-3.521-0.543-5.592c0-4.419,0.811-7.785,2.434-10.1c1.622-2.312,3.918-3.469,6.887-3.469
		c0.967,0,1.924,0.121,2.875,0.362c0.949,0.242,1.803,0.724,2.563,1.45c0.759,0.726,1.372,1.744,1.839,3.055
		c0.465,1.313,0.697,3.021,0.697,5.128c0,0.587-0.024,1.218-0.076,1.892c-0.053,0.673-0.113,1.369-0.182,2.095H59.551
		c0,1.485,0.12,2.832,0.362,4.04c0.242,1.209,0.621,2.235,1.14,3.083c0.519,0.845,1.182,1.501,1.995,1.967
		c0.811,0.467,1.82,0.7,3.029,0.7c0.932,0,1.855-0.174,2.771-0.52c0.914-0.344,1.612-0.759,2.096-1.242L72.289,39.548z
		 M69.39,25.669c0.068-2.589-0.295-4.487-1.087-5.696c-0.795-1.208-1.882-1.812-3.263-1.812c-1.588,0-2.849,0.604-3.78,1.812
		c-0.933,1.209-1.485,3.106-1.657,5.696H69.39z"/>
	<path d="M105.484,32.401c0,1.762,0.018,3.357,0.051,4.791c0.035,1.434,0.156,2.84,0.363,4.221h-2.537l-0.83-3.108h-0.206
		c-0.483,1.035-1.243,1.899-2.277,2.589c-1.037,0.691-2.28,1.037-3.729,1.037c-2.795,0-4.877-1.088-6.24-3.264
		c-1.363-2.175-2.045-5.593-2.045-10.254c0-4.419,0.836-7.768,2.512-10.047c1.674-2.278,3.979-3.416,6.914-3.416
		c1,0,1.795,0.059,2.381,0.18c0.588,0.122,1.226,0.32,1.916,0.596V5.06h3.729V32.401L105.484,32.401z M101.756,19.507
		c-0.484-0.414-1.027-0.717-1.631-0.906c-0.604-0.189-1.407-0.284-2.409-0.284c-1.829,0-3.255,0.828-4.272,2.485
		c-1.019,1.657-1.527,4.212-1.527,7.664c0,1.521,0.096,2.893,0.285,4.117s0.484,2.287,0.881,3.186
		c0.396,0.896,0.914,1.588,1.553,2.071s1.424,0.726,2.357,0.726c2.485,0,4.073-1.467,4.764-4.402V19.507z"/>
	<path d="M110.455,28.362c0-4.66,0.805-8.086,2.408-10.279c1.605-2.191,3.893-3.289,6.862-3.289c3.175,0,5.515,1.123,7.017,3.366
		c1.502,2.245,2.254,5.646,2.254,10.202c0,4.695-0.812,8.13-2.436,10.305c-1.622,2.176-3.9,3.264-6.835,3.264
		c-3.177,0-5.515-1.123-7.017-3.365C111.207,36.32,110.455,32.919,110.455,28.362z M114.339,28.362c0,1.52,0.095,2.901,0.286,4.145
		c0.188,1.242,0.5,2.312,0.932,3.211c0.432,0.897,0.992,1.596,1.683,2.097s1.519,0.751,2.485,0.751c1.795,0,3.141-0.804,4.039-2.408
		c0.898-1.605,1.348-4.203,1.348-7.795c0-1.483-0.097-2.856-0.285-4.117c-0.189-1.258-0.502-2.338-0.933-3.235
		c-0.432-0.898-0.993-1.597-1.683-2.097c-0.691-0.502-1.52-0.751-2.486-0.751c-1.762,0-3.1,0.81-4.014,2.433
		C114.796,22.218,114.339,24.807,114.339,28.362z"/>
	<path d="M133.966,15.416h2.64l0.674,2.744h0.155c0.483-1,1.114-1.786,1.891-2.355s1.716-0.854,2.822-0.854
		c0.794,0,1.69,0.154,2.692,0.466l-0.724,3.78c-0.898-0.311-1.692-0.467-2.383-0.467c-1.106,0-2.003,0.32-2.692,0.958
		c-0.692,0.64-1.14,1.494-1.346,2.565v19.056h-3.729V15.416L133.966,15.416z"/>
	<path d="M147.896,16.97c1.001-0.622,2.218-1.105,3.651-1.451c1.434-0.344,2.943-0.518,4.531-0.518c1.45,0,2.615,0.217,3.496,0.647
		c0.88,0.433,1.57,1.02,2.07,1.761c0.502,0.743,0.829,1.59,0.984,2.539s0.232,1.941,0.232,2.978c0,2.07-0.044,4.091-0.133,6.06
		c-0.088,1.969-0.133,3.832-0.133,5.592c0,1.312,0.045,2.53,0.133,3.652c0.089,1.123,0.254,2.184,0.496,3.185h-2.92l-0.905-3.057
		h-0.204c-0.516,0.899-1.27,1.675-2.264,2.331c-0.993,0.655-2.33,0.984-4.009,0.984c-1.851,0-3.368-0.646-4.55-1.942
		c-1.181-1.294-1.772-3.081-1.772-5.358c0-1.484,0.247-2.728,0.745-3.729c0.496-1.001,1.198-1.813,2.105-2.433
		c0.906-0.623,1.984-1.062,3.236-1.323c1.25-0.259,2.645-0.387,4.186-0.387c0.342,0,0.684,0,1.025,0
		c0.343,0,0.703,0.017,1.081,0.052c0.101-1.07,0.153-2.021,0.153-2.85c0-1.967-0.291-3.348-0.871-4.143
		c-0.583-0.793-1.645-1.19-3.184-1.19c-0.959,0-2,0.147-3.129,0.439c-1.131,0.294-2.07,0.667-2.823,1.112L147.896,16.97z
		 M159.029,29.501c-0.341-0.033-0.682-0.059-1.023-0.076c-0.342-0.02-0.684-0.027-1.024-0.027c-0.818,0-1.618,0.07-2.405,0.208
		c-0.783,0.138-1.482,0.382-2.096,0.726c-0.615,0.345-1.102,0.811-1.459,1.397c-0.358,0.587-0.537,1.331-0.537,2.228
		c0,1.38,0.332,2.452,0.997,3.211c0.665,0.76,1.526,1.14,2.584,1.14c1.432,0,2.54-0.345,3.325-1.036
		c0.785-0.69,1.33-1.449,1.638-2.278L159.029,29.501L159.029,29.501z"/>
</g>
</svg>
