<?xml version="1.0" encoding="utf-8"?>
<!-- Generator: Adobe Illustrator 14.0.0, SVG Export Plug-In . SVG Version: 6.00 Build 43363)  -->
<!DOCTYPE svg PUBLIC "-//W3C//DTD SVG 1.1//EN" "http://www.w3.org/Graphics/SVG/1.1/DTD/svg11.dtd">
<svg version="1.1" id="Layer_1" xmlns="http://www.w3.org/2000/svg" xmlns:xlink="http://www.w3.org/1999/xlink" x="0px" y="0px"
	 width="180px" height="120px" viewBox="0 0 180 120" enable-background="new 0 0 180 120" xml:space="preserve">
<g id="Layer_1_1_" display="none">
	<g display="inline">
		<g>
			<path fill="#508F7C" d="M50.547,44.114c1.916,15.719,2.64,31.505,2.667,47.333c0.003,1.541,5.799,0.518,5.796-1.553
				c-0.027-15.83-0.751-31.617-2.667-47.333C56.137,40.868,50.306,42.134,50.547,44.114L50.547,44.114z"/>
		</g>
	</g>
	<g display="inline">
		<g>
			<path fill="#508F7C" d="M54.649,74.009c5.879-1.161,11.929-0.573,17.877-0.532c3.329,0.024,4.431-4.25,0.505-4.276
				c-6.547-0.05-12.987-0.479-19.456,0.8C49.907,70.725,51.055,74.719,54.649,74.009L54.649,74.009z"/>
		</g>
	</g>
	<g display="inline">
		<g>
			<path fill="#508F7C" d="M67.88,44.114c4.723,15.065,2.738,31.146,2.667,46.667c-0.006,1.449,5.787,0.465,5.796-1.553
				c0.071-15.521,2.056-31.604-2.667-46.667C73.125,40.804,67.357,42.444,67.88,44.114L67.88,44.114z"/>
		</g>
	</g>
	<g display="inline">
		<g>
			<path fill="#508F7C" d="M78.354,84.449c4.752,0.451,14.75-0.076,14.789-6.932c0.03-5.235-5.564-6.461-9.584-5.027
				c-6.926,2.471-8.005,11.238-2.621,15.56c5.854,4.698,14.728,4.632,21.008,0.949c3.388-1.985-1.641-3.176-3.668-1.988
				c-6.533,3.831-19.916-3.165-13.261-10.965c1.156-1.354,1.123-0.596,0.079-0.75c0.311,0.046,0.611,0.218,0.854,0.413
				c0.791,0.634,1.164,1.523,1.349,2.49c0.693,3.624-4.819,2.881-6.761,2.695C78.136,80.665,74.434,84.076,78.354,84.449
				L78.354,84.449z"/>
		</g>
	</g>
	<g display="inline">
		<g>
			<path fill="#508F7C" d="M102.547,42.78c2.7,16.72,3.331,33.833,1.334,50.667c-0.099,0.832,5.581,0.26,5.796-1.553
				c1.997-16.834,1.365-33.949-1.334-50.667C108.137,39.952,102.298,41.239,102.547,42.78L102.547,42.78z"/>
		</g>
	</g>
	<g display="inline">
		<g>
			<path fill="#508F7C" d="M111.214,45.447c5.25,15.062,5.327,31.135,5.329,46.903c0,2.504,5.805,1.282,5.805-0.69
				c-0.002-16.05,0.008-32.431-5.338-47.763C116.273,41.784,110.518,43.45,111.214,45.447L111.214,45.447z"/>
		</g>
	</g>
	<g display="inline">
		<g>
			<path fill="#508F7C" d="M132.988,71.557c-9.199,3.303-8.41,17.436,1.889,18.043c12.191,0.726,13.266-15.896,4.219-20.957
				c-1.574-0.882-6.938,1.436-4.634,2.725c2.692,1.507,4.013,4.388,4.662,7.281c0.339,1.514,0.638,7.729-1.956,7.806
				c-5.596,0.164-6.717-10.95-1.934-12.667c0.646-0.23,2.479-1.327,1.574-2.229C135.881,70.637,134.014,71.189,132.988,71.557
				L132.988,71.557z"/>
		</g>
	</g>
	<g display="inline">
		<g>
			<path fill="#508F7C" d="M149.214,90.779c-0.026,2.187-0.515,4.184-2.378,5.496c-1.105,0.779,0.982,0.838,1.329,0.803
				c1.356-0.141,2.767-0.555,3.89-1.346c2.219-1.563,2.924-3.891,2.955-6.506C155.02,88.477,149.232,89.225,149.214,90.779
				L149.214,90.779z"/>
		</g>
	</g>
	<g display="inline">
		<g>
			<path fill="#508F7C" d="M159.881,73.447c1.378,5.988,3.074,11.9,6,17.332c0.812,1.509,4.238,0.383,5.176-0.473
				c3.322-3.033,4.969-6.593,6.604-10.73c-1.862,0.499-3.728,0.998-5.591,1.498c2.604,3.426,4.756,7.115,8,10
				c1.34,1.188,4.861-0.07,5.591-1.498c3.29-6.454,3.993-13.645,5.332-20.667c0.354-1.869-5.437-0.858-5.763,0.856
				c-1.336,7.021-2.041,14.211-5.332,20.666c1.863-0.498,3.729-0.998,5.588-1.498c-3.243-2.886-5.391-6.574-8-10
				c-1.021-1.338-5.07,0.191-5.588,1.498c-1.354,3.414-2.604,6.723-5.396,9.27c1.727-0.158,3.45-0.315,5.175-0.473
				c-2.926-5.437-4.62-11.348-6-17.334C165.287,70.201,159.475,71.678,159.881,73.447L159.881,73.447z"/>
		</g>
	</g>
	<g display="inline">
		<g>
			<path fill="#508F7C" d="M195.818,70.311c-7.444,5.119-10.324,23.231,3.18,20.273c8.791-1.925,12.21-17.766,3.441-21.9
				c-1.562-0.729-6.896,1.584-4.656,2.643c4.898,2.311,5.219,13.816,0.711,16.695c-0.529,0.338-2.688-2.386-2.936-2.902
				c-0.75-1.578-0.604-3.479-0.328-5.143c0.543-3.338,2.342-6.998,5.174-8.942c1.014-0.697,0.604-1.647-0.487-1.819
				C198.48,68.986,196.986,69.507,195.818,70.311L195.818,70.311z"/>
		</g>
	</g>
	<g display="inline">
		<g>
			<path fill="#508F7C" d="M208.548,70.114c0.095,6.472,1.238,12.862,1.334,19.333c0.021,1.498,5.696,0.406,5.779-1.199
				c0.233-4.54-4.955-18.229,1.997-18.855c2.658-0.24,4.953-3.144,0.906-2.775c-4.354,0.392-9.193,2.023-10.164,6.792
				c-1.053,5.155,1.765,10.487,1.496,15.688c1.928-0.4,3.854-0.802,5.771-1.199c-0.095-6.474-1.229-12.861-1.334-19.334
				C214.32,67.073,208.518,68.1,208.548,70.114L208.548,70.114z"/>
		</g>
	</g>
	<g display="inline">
		<g>
			<path fill="#508F7C" d="M227.9,41.106c-1.373,16.941-3.32,34.089-0.688,51.007c0.247,1.592,6.08,0.275,5.795-1.553
				c-2.6-16.703-0.708-33.601,0.647-50.329C233.816,38.268,228.033,39.478,227.9,41.106L227.9,41.106z"/>
		</g>
	</g>
	<g display="inline">
		<g>
			<path fill="#508F7C" d="M256.343,73.229c-1.571-9.89-13.002-6.082-17.2-0.041c-5.74,8.256,1.322,17.266,10.778,15.067
				c8.58-1.993,8.569-13.844,8.769-20.741c0.27-8.99-0.562-18.039-1.681-26.953c-0.159-1.275-5.999-0.076-5.795,1.553
				c1.534,12.251,3.132,25.543,0.577,37.735c-0.462,2.205-1.229,5.231-3.127,6.678c1.07-0.814,1.814-0.147,0.332-0.553
				c-0.947-0.26-1.816-0.771-2.667-1.244c-1.831-1.021-3.037-2.674-3.597-4.66c-0.863-3.064,0.896-6.432,2.841-8.678
				c2.907-3.358,4.393-0.271,4.975,3.389C250.757,76.098,256.596,74.812,256.343,73.229L256.343,73.229z"/>
		</g>
	</g>
	<g display="inline">
		<g>
			<path fill="#508F7C" d="M264.548,43.447c0.093,12.72,1.901,25.319,2.666,38c0.07,1.166,5.897,0.137,5.795-1.553
				c-0.764-12.684-2.573-25.283-2.666-38C270.335,40.812,264.535,41.704,264.548,43.447L264.548,43.447z"/>
		</g>
	</g>
	<g display="inline">
		<g>
			<path fill="#508F7C" d="M267.174,89.553c0.051,0.771,0.184,1.461,0.754,2.031c0.689,0.688,1.524,1.145,2.521,1.209
				c1.402,0.092,3.117-0.396,3.771-1.781c0.598-1.268-0.529-2.382-1.773-2.464c-0.271-0.024-0.18,0.002,0.275,0.082
				c0.348,0.196,0.405,0.224,0.189,0.082c0.234,0.25,0.271,0.283,0.122,0.103c-0.062-0.072-0.104-0.151-0.146-0.234
				c0.082,0.168,0.163,0.336,0.244,0.505c-0.061-0.13-0.098-0.248-0.119-0.39c0.019,0.188,0.021,0.373,0.038,0.562
				c-0.003-0.044-0.011-0.089-0.013-0.133c-0.042-0.63-0.146-1.081-0.704-1.466c-0.563-0.396-1.308-0.509-1.979-0.457
				c-0.772,0.057-1.561,0.327-2.184,0.8C267.771,88.311,267.136,88.965,267.174,89.553L267.174,89.553z"/>
		</g>
	</g>
	<g display="inline">
		<g>
			<path fill="#508F7C" d="M80.538,106.323c-0.661,17.825-1.357,35.669-4,53.333c-0.369,2.464,5.496,1.475,5.814-0.654
				c2.643-17.664,3.339-35.508,4-53.333C86.448,103.096,80.616,104.229,80.538,106.323L80.538,106.323z"/>
		</g>
	</g>
	<g display="inline">
		<g>
			<path fill="#508F7C" d="M86.547,124.105c1.091,2.271,2.103,5.229,1.383,7.771c-0.254,0.896,1.906,0.462,2.274,0.392
				c0.713-0.137,3.166-0.58,3.422-1.479c0.784-2.771-0.081-5.723-1.284-8.229C91.732,121.277,86.178,123.333,86.547,124.105
				L86.547,124.105z"/>
		</g>
	</g>
	<g display="inline">
		<g>
			<path fill="#508F7C" d="M96.54,136.331c0.054,5.962,0.679,11.854,1.341,17.774c1.932-0.521,3.864-1.035,5.796-1.562
				c-0.569-3.379-0.877-7.236,0.993-10.299c0.663-1.082-1.579-0.438-0.675,0.41c0.56,0.521,0.899,1.257,1.211,1.936
				c0.88,1.905,1.122,4.111,1.342,6.182c0.235,2.205,5.406,0.537,5.804-1.109c0.854-3.518,1.293-9.837,4.938-11.703
				c-1.286-0.045-2.571-0.089-3.854-0.133c2.981,4.686,2.553,10.306,3.115,15.611c0.225,2.082,6.043,0.77,5.799-1.562
				c-0.613-5.737-0.328-11.332-3.551-16.387c-0.664-1.044-3.021-0.562-3.854-0.14c-6.004,3.075-6.938,8.896-8.398,14.971
				c1.936-0.37,3.869-0.74,5.803-1.11c-0.559-5.231-2.39-11.771-8.947-10.188c-6.447,1.562-6.365,9.992-5.51,15.078
				c0.361,2.146,6.045,0.709,5.791-1.558c-0.627-5.617-1.271-11.229-1.326-16.896C102.327,133.096,96.521,134.302,96.54,136.331
				L96.54,136.331z"/>
		</g>
	</g>
	<g display="inline">
		<g>
			<path fill="#508F7C" d="M148.547,119.771c0.71,14.311,2.045,28.562,4.667,42.666c0.271,1.457,6.103,0.092,5.796-1.562
				c-2.621-14.096-3.957-28.354-4.667-42.666C154.279,116.936,148.458,117.971,148.547,119.771L148.547,119.771z"/>
		</g>
	</g>
	<g display="inline">
		<g>
			<path fill="#508F7C" d="M148.527,121.213c5.686-1.094,11.373-2.57,17.203-2.361c7.104,0.254,10.547,5.656,11.479,12.162
				c1.937,13.334-13.505,22.926-22.927,29.035c-3.307,2.141,1.688,3.157,3.646,1.895c11.578-7.508,27.188-17.883,24.896-33.762
				c-2.562-17.683-23.208-12.365-35.136-10.07C144.105,118.803,145.027,121.887,148.527,121.213L148.527,121.213z"/>
		</g>
	</g>
	<g display="inline">
		<g>
			<path fill="#508F7C" d="M189.091,136.545c-3.581,1.582-6.139,4.697-5.374,8.768c0.827,4.405,5.648,5.897,9.549,5.562
				c3.729-0.326,7.94-2.117,7.889-6.368c-0.047-3.733-3.354-6.896-6.672-8.002c-1.217-0.405-2.976,0.187-4.06,0.712
				c-0.581,0.286-1.919,1.198-0.682,1.614c2.304,0.771,4.021,2.542,5.015,4.729c0.416,0.91,0.596,1.9,0.607,2.896
				c0.007,0.546-0.176,1.062-0.389,1.549c-0.406,0.938-1.104,0.562,0.229,0.441c-5.924,0.521-8.008-8.682-2.736-10.999
				c0.536-0.237,1.961-1.271,0.682-1.614C191.834,135.482,190.279,136.021,189.091,136.545L189.091,136.545z"/>
		</g>
	</g>
	<g display="inline">
		<g>
			<path fill="#508F7C" d="M203.882,135.105c0.666,6.666,1.332,13.334,2,20c1.933-0.521,3.863-1.035,5.795-1.562
				c-2.294-7.341-1.223-13.938,6.83-16.415c3.423-1.051,2.677-4.021-0.791-2.942c-4.435,1.354-8.653,3.344-11.327,7.289
				c-2.723,4.017-1.854,9.312-0.507,13.631c0.649,2.08,6.007,0.562,5.795-1.562c-0.667-6.667-1.334-13.333-2-20
				C209.48,131.593,203.658,132.873,203.882,135.105L203.882,135.105z"/>
		</g>
	</g>
	<g display="inline">
		<g>
			<path fill="#508F7C" d="M237.145,131.666c-4.766-0.762-10.709-0.191-13.326,4.473c-1.813,3.247-0.652,7.422,1.06,10.438
				c1.832,3.225,5.476,5.198,9.058,3.396c5.104-2.574,4.61-10.52,4.447-15.229c-1.938,0.344-3.883,0.688-5.818,1.027
				c0.688,4.535,2.094,8.791,4.896,12.47c1.506,1.968,7.052-0.229,5.313-2.484c-2.604-3.415-3.785-7.331-4.431-11.53
				c-0.36-2.358-5.899-1.156-5.823,1.027c0.114,3.309,0.604,9.45-1.625,11.885c0.153-0.17,0.854-0.496,1.631-0.479
				c-0.096-0.008,0.113,0.094-0.354-0.208c-0.656-0.427-1.427-1.445-1.979-2.361c-1.176-1.965-1.711-4.499-1.158-6.731
				c0.258-1.049,0.91-1.49,1.367-1.709c0.834-0.396,3.146-0.229,4.682,0.021C237.786,136.091,241.034,132.288,237.145,131.666
				L237.145,131.666z"/>
		</g>
	</g>
	<g display="inline">
		<g>
			<path fill="#508F7C" d="M247.882,148.438c0.468,0.965,0.658,1.938,0.658,2.896c0.001,1.322,1.474,1.491,2.536,1.368
				c0.768-0.091,1.537-0.343,2.191-0.757c0.354-0.229,1.082-0.771,1.082-1.283c0-1.371-0.067-2.525-0.684-3.773
				c-0.564-1.188-2.229-1.062-3.312-0.771c-0.691,0.188-1.396,0.506-1.929,1.004C248.152,147.379,247.664,147.99,247.882,148.438
				L247.882,148.438z"/>
		</g>
	</g>
</g>
<path fill="#FFFFFF" d="M42.004,28.292h-9.692V8.162h2.156v18.146h7.535L42.004,28.292L42.004,28.292z"/>
<path fill="#FFFFFF" d="M44.248,8.162h8.944v1.983h-6.787v6.816h6.241v1.984h-6.241v7.362h6.931v1.985h-9.088V8.162z"/>
<path fill="#FFFFFF" d="M67.195,10.145h-4.947v18.147h-2.157V10.145h-4.946V8.162h12.051L67.195,10.145L67.195,10.145z"/>
<path fill="#FFFFFF" d="M68.49,9.34c0-0.439,0.123-0.785,0.375-1.034c0.248-0.25,0.564-0.375,0.947-0.375
	c0.461,0,0.834,0.16,1.122,0.475c0.287,0.316,0.431,0.8,0.431,1.452c0,0.615-0.077,1.15-0.229,1.61
	c-0.154,0.459-0.34,0.848-0.562,1.165c-0.221,0.316-0.455,0.576-0.705,0.776c-0.248,0.202-0.459,0.351-0.631,0.446l-0.664-0.862
	c0.327-0.21,0.609-0.512,0.849-0.906c0.239-0.393,0.35-0.849,0.33-1.367c-0.345,0.057-0.643-0.037-0.891-0.287
	C68.612,10.185,68.49,9.82,68.49,9.34z"/>
<path fill="#FFFFFF" d="M73.953,25.617c0.364,0.25,0.877,0.484,1.538,0.704c0.661,0.222,1.414,0.332,2.257,0.332
	c1.074,0,1.946-0.264,2.617-0.791c0.67-0.527,1.007-1.357,1.007-2.487c0-0.749-0.193-1.401-0.577-1.957
	c-0.383-0.554-0.861-1.069-1.438-1.538c-0.575-0.47-1.192-0.929-1.856-1.38c-0.66-0.45-1.279-0.95-1.854-1.495
	c-0.576-0.546-1.056-1.175-1.439-1.885c-0.383-0.708-0.574-1.561-0.574-2.559c0-1.611,0.483-2.804,1.452-3.581
	c0.967-0.774,2.229-1.164,3.781-1.164c0.958,0,1.812,0.086,2.56,0.258c0.749,0.172,1.354,0.394,1.812,0.661l-0.691,1.898
	c-0.345-0.21-0.839-0.402-1.481-0.575C80.424,9.885,79.681,9.8,78.838,9.8c-1.036,0-1.803,0.253-2.301,0.761
	c-0.5,0.507-0.748,1.146-0.748,1.912c0,0.672,0.192,1.265,0.576,1.783c0.383,0.519,0.861,1.006,1.437,1.466
	c0.575,0.462,1.193,0.925,1.856,1.396c0.662,0.47,1.28,0.993,1.856,1.567c0.576,0.575,1.055,1.226,1.439,1.956
	c0.384,0.729,0.575,1.592,0.575,2.587c0,1.688-0.5,3.01-1.496,3.969c-0.997,0.959-2.405,1.438-4.227,1.438
	c-1.15,0-2.094-0.106-2.832-0.318c-0.738-0.209-1.329-0.449-1.769-0.718L73.953,25.617z"/>
<path fill="#FFFFFF" d="M104.982,15.064l0.258-3.048h-0.115l-0.92,2.847l-4.057,8.742H99.43l-4.254-8.742l-0.893-2.847h-0.114
	l0.402,3.048v13.229H92.5V8.162h1.812l4.859,9.893l0.72,2.358h0.056l0.691-2.387l4.6-9.864h1.896v20.13h-2.156V15.064H104.982z"/>
<path fill="#FFFFFF" d="M118.533,22.655h-5.678l-1.605,5.637h-2.127l6.068-20.447h1.18l6.066,20.447h-2.27L118.533,22.655z
	 M113.43,20.788h4.586l-1.746-6.252l-0.531-3.038h-0.059l-0.557,3.096L113.43,20.788z"/>
<path fill="#FFFFFF" d="M127.613,18.976h-1.033v9.317h-2.156V8.162h2.156v9.374l1.006-0.402l5.232-8.972h2.475l-5.264,8.685
	l-1.008,0.919l1.181,1.15l5.837,9.375h-2.73L127.613,18.976z"/>
<path fill="#FFFFFF" d="M138.6,8.162h8.944v1.983h-6.787v6.816h6.241v1.984h-6.241v7.362h6.931v1.985h-9.089L138.6,8.162
	L138.6,8.162z"/>
<path fill="#FFFFFF" d="M31.963,34.263h1.619v15.12h-1.619V34.263z"/>
<path fill="#FFFFFF" d="M36.671,34.263c0.23-0.044,0.486-0.076,0.768-0.097c0.281-0.021,0.564-0.036,0.852-0.043
	c0.289-0.007,0.574-0.015,0.854-0.021c0.28-0.007,0.543-0.012,0.789-0.012c1.05,0,1.943,0.18,2.679,0.541
	c0.733,0.36,1.331,0.875,1.792,1.544c0.462,0.669,0.792,1.473,0.994,2.409s0.302,1.979,0.302,3.131c0,1.037-0.097,2.03-0.291,2.981
	c-0.196,0.95-0.522,1.786-0.983,2.506c-0.46,0.719-1.069,1.295-1.825,1.728c-0.756,0.431-1.703,0.647-2.841,0.647
	c-0.187,0-0.424-0.003-0.713-0.01c-0.288-0.008-0.586-0.021-0.896-0.044c-0.31-0.021-0.598-0.039-0.863-0.053
	c-0.268-0.014-0.473-0.037-0.617-0.064V34.263L36.671,34.263z M40.019,35.581c-0.144,0-0.299,0-0.464,0
	c-0.167,0-0.328,0.008-0.486,0.021c-0.159,0.015-0.307,0.028-0.443,0.042c-0.136,0.015-0.248,0.03-0.335,0.044V48
	c0.058,0.015,0.162,0.026,0.313,0.034c0.151,0.007,0.31,0.014,0.475,0.021c0.167,0.007,0.324,0.015,0.476,0.021
	c0.151,0.007,0.263,0.011,0.333,0.011c0.793,0,1.456-0.172,1.988-0.518c0.533-0.345,0.954-0.808,1.264-1.392
	c0.309-0.583,0.529-1.261,0.658-2.03c0.13-0.77,0.194-1.588,0.194-2.452c0-0.763-0.058-1.512-0.172-2.246
	c-0.116-0.734-0.32-1.385-0.617-1.955c-0.295-0.569-0.698-1.031-1.209-1.382C41.484,35.756,40.825,35.581,40.019,35.581z"/>
<path fill="#FFFFFF" d="M48.012,34.263h6.717v1.491h-5.098v5.119h4.688v1.49h-4.688v5.53h5.207v1.49h-6.826V34.263z"/>
<path fill="#FFFFFF" d="M63.07,45.149h-4.264L57.6,49.383h-1.597l4.557-15.357h0.885l4.557,15.357h-1.706L63.07,45.149z
	 M59.236,43.745h3.445l-1.313-4.694l-0.398-2.283h-0.045l-0.418,2.327L59.236,43.745z"/>
<path fill="#FFFFFF" d="M67.385,47.375c0.273,0.186,0.658,0.363,1.155,0.529c0.497,0.166,1.062,0.248,1.696,0.248
	c0.806,0,1.461-0.197,1.966-0.594c0.504-0.395,0.756-1.018,0.756-1.868c0-0.561-0.144-1.05-0.432-1.467
	c-0.288-0.418-0.649-0.803-1.081-1.156c-0.431-0.353-0.895-0.697-1.393-1.036c-0.497-0.338-0.961-0.713-1.393-1.124
	c-0.432-0.41-0.792-0.881-1.08-1.415c-0.288-0.532-0.432-1.173-0.432-1.922c0-1.21,0.364-2.106,1.091-2.689s1.673-0.875,2.841-0.875
	c0.719,0,1.361,0.063,1.921,0.194c0.562,0.13,1.016,0.295,1.362,0.497l-0.519,1.426c-0.259-0.159-0.63-0.302-1.111-0.432
	c-0.483-0.13-1.041-0.195-1.674-0.195c-0.778,0-1.354,0.191-1.728,0.573c-0.375,0.381-0.562,0.86-0.562,1.436
	c0,0.505,0.144,0.952,0.432,1.34c0.287,0.388,0.647,0.756,1.079,1.102c0.432,0.345,0.896,0.694,1.394,1.047
	c0.496,0.354,0.96,0.745,1.393,1.177c0.432,0.432,0.792,0.922,1.08,1.469s0.431,1.195,0.431,1.944c0,1.268-0.375,2.261-1.123,2.981
	c-0.75,0.719-1.808,1.079-3.175,1.079c-0.864,0-1.573-0.08-2.126-0.238c-0.556-0.158-0.998-0.337-1.33-0.54L67.385,47.375z"/>
<path fill="#FFFFFF" d="M89.224,48.8c-0.36,0.302-0.814,0.518-1.362,0.647c-0.547,0.13-1.123,0.195-1.728,0.195
	c-0.766,0-1.471-0.144-2.118-0.432c-0.649-0.286-1.208-0.745-1.674-1.371c-0.467-0.625-0.833-1.436-1.091-2.43
	s-0.388-2.189-0.388-3.585c0-1.44,0.147-2.658,0.44-3.651c0.295-0.994,0.69-1.8,1.178-2.419c0.491-0.619,1.055-1.066,1.697-1.339
	c0.641-0.273,1.299-0.41,1.976-0.41c0.692,0,1.263,0.05,1.717,0.151c0.454,0.101,0.846,0.224,1.178,0.366l-0.391,1.47
	c-0.286-0.159-0.625-0.281-1.014-0.368c-0.389-0.086-0.836-0.13-1.339-0.13c-0.505,0-0.979,0.112-1.425,0.336
	c-0.447,0.223-0.843,0.582-1.187,1.079c-0.346,0.498-0.619,1.149-0.821,1.955c-0.204,0.807-0.303,1.792-0.303,2.96
	c0,2.102,0.359,3.682,1.08,4.74c0.72,1.059,1.677,1.588,2.872,1.588c0.489,0,0.928-0.069,1.319-0.206
	c0.389-0.135,0.719-0.297,0.994-0.485L89.224,48.8z"/>
<path fill="#FFFFFF" d="M90.281,41.824c0-2.563,0.41-4.508,1.23-5.832c0.82-1.325,2.074-1.987,3.758-1.987
	c0.908,0,1.68,0.183,2.311,0.551c0.633,0.367,1.148,0.889,1.547,1.565c0.395,0.677,0.688,1.498,0.873,2.462
	c0.188,0.965,0.281,2.045,0.281,3.241c0,2.562-0.414,4.506-1.242,5.832c-0.829,1.324-2.083,1.986-3.77,1.986
	c-0.893,0-1.655-0.183-2.288-0.55c-0.635-0.367-1.152-0.889-1.557-1.566c-0.401-0.677-0.693-1.498-0.876-2.463
	C90.371,44.098,90.281,43.019,90.281,41.824z M91.988,41.824c0,0.848,0.06,1.656,0.183,2.419c0.122,0.763,0.313,1.432,0.573,2.009
	c0.258,0.577,0.596,1.037,1.014,1.381c0.419,0.347,0.922,0.519,1.512,0.519c1.082,0,1.902-0.519,2.463-1.556
	c0.562-1.035,0.842-2.626,0.842-4.771c0-0.835-0.059-1.635-0.181-2.398c-0.124-0.764-0.314-1.438-0.575-2.02
	c-0.258-0.583-0.598-1.048-1.014-1.394c-0.418-0.346-0.93-0.519-1.535-0.519c-1.064,0-1.879,0.519-2.439,1.556
	C92.268,38.086,91.988,39.677,91.988,41.824z"/>
<path fill="#FFFFFF" d="M111.968,39.447l0.193-2.29h-0.087l-0.691,2.139l-3.047,6.566h-0.541l-3.196-6.566l-0.669-2.139h-0.087
	l0.303,2.29v9.937h-1.556v-15.12h1.36l3.651,7.431l0.541,1.771h0.042l0.519-1.792l3.456-7.409h1.426v15.12h-1.621v-9.938H111.968z"
	/>
<path fill="#FFFFFF" d="M116.352,34.263h6.719v1.491h-5.098v5.119h4.686v1.49h-4.686v5.53h5.205v1.49h-6.826V34.263z"/>
<path fill="#FFFFFF" d="M137.605,35.753h-3.715v13.629h-1.62V35.753h-3.714v-1.491h9.049V35.753L137.605,35.753z"/>
<path fill="#FFFFFF" d="M138.037,41.824c0-2.563,0.412-4.508,1.232-5.832c0.819-1.326,2.072-1.987,3.759-1.987
	c0.907,0,1.677,0.183,2.31,0.551c0.635,0.367,1.149,0.889,1.545,1.565c0.396,0.677,0.688,1.498,0.875,2.462
	c0.188,0.965,0.28,2.045,0.28,3.241c0,2.562-0.413,4.506-1.241,5.832c-0.828,1.324-2.083,1.986-3.769,1.986
	c-0.894,0-1.656-0.183-2.29-0.55c-0.633-0.367-1.152-0.889-1.557-1.566c-0.402-0.677-0.693-1.498-0.875-2.463
	C138.127,44.098,138.037,43.019,138.037,41.824z M139.744,41.824c0,0.848,0.061,1.656,0.184,2.419
	c0.123,0.763,0.314,1.432,0.572,2.009c0.259,0.577,0.598,1.037,1.017,1.381c0.417,0.347,0.921,0.519,1.512,0.519
	c1.079,0,1.899-0.519,2.461-1.556c0.562-1.035,0.844-2.626,0.844-4.771c0-0.835-0.062-1.635-0.185-2.398
	c-0.121-0.764-0.312-1.438-0.571-2.02c-0.261-0.583-0.598-1.048-1.017-1.394c-0.418-0.346-0.928-0.519-1.532-0.519
	c-1.067,0-1.88,0.519-2.442,1.556C140.025,38.086,139.744,39.677,139.744,41.824z"/>
<path fill="#FFFFFF" d="M60.022,112.185H31.28V52.485h6.395v53.815h22.347V112.185L60.022,112.185z"/>
<path fill="#FFFFFF" d="M67.954,52.485h6.395v59.699h-6.395V52.485z"/>
<path fill="#FFFFFF" d="M86.545,52.485h26.523v5.886H92.941v21.063h18.764v5.887H92.941v26.863h-6.396L86.545,52.485L86.545,52.485z
	"/>
<path fill="#FFFFFF" d="M121.768,52.485h26.525v5.886h-20.129v20.211h18.508v5.885h-18.508v21.834h20.558v5.884H121.77
	L121.768,52.485L121.768,52.485z"/>
</svg>
