<?xml version="1.0" encoding="utf-8"?>
<!-- Generator: Adobe Illustrator 14.0.0, SVG Export Plug-In . SVG Version: 6.00 Build 43363)  -->
<!DOCTYPE svg PUBLIC "-//W3C//DTD SVG 1.1//EN" "http://www.w3.org/Graphics/SVG/1.1/DTD/svg11.dtd">
<svg version="1.1" id="Layer_2_1_" xmlns="http://www.w3.org/2000/svg" xmlns:xlink="http://www.w3.org/1999/xlink" x="0px" y="0px"
	 width="200px" height="100px" viewBox="0 0 200 100" enable-background="new 0 0 200 100" xml:space="preserve">
<g>
	<path fill="#FFFFFF" d="M46.833,90.985v-7.667h-6.183v7.667h-1.598V74.829h1.598v7.073h6.183v-7.073h1.597v16.155L46.833,90.985
		L46.833,90.985z"/>
	<path fill="#FFFFFF" d="M52.125,90.985V74.829h6.503v1.415h-4.95v5.658h4.633v1.371h-4.633v6.277h5.18v1.435H52.125L52.125,90.985z
		"/>
	<path fill="#FFFFFF" d="M61.663,90.985V74.829h1.599v14.669h4.609v1.486L61.663,90.985L61.663,90.985z"/>
	<path fill="#FFFFFF" d="M69.81,90.985V74.829h1.597v14.669h4.612v1.486L69.81,90.985L69.81,90.985z"/>
	<path fill="#FFFFFF" d="M87.268,82.887c0,1.26-0.123,2.414-0.366,3.455c-0.244,1.043-0.593,1.938-1.05,2.684
		c-0.457,0.742-1.012,1.319-1.665,1.732c-0.654,0.41-1.401,0.617-2.237,0.617s-1.586-0.207-2.248-0.617
		c-0.661-0.413-1.225-0.987-1.688-1.732c-0.465-0.746-0.817-1.642-1.061-2.684c-0.247-1.041-0.363-2.193-0.363-3.455
		c0-1.25,0.117-2.397,0.352-3.438c0.237-1.042,0.58-1.934,1.039-2.672c0.456-0.737,1.015-1.311,1.676-1.721
		c0.662-0.412,1.427-0.615,2.294-0.615c0.837,0,1.583,0.203,2.236,0.615c0.655,0.41,1.211,0.983,1.666,1.721
		c0.457,0.739,0.807,1.629,1.049,2.672C87.145,80.489,87.268,81.635,87.268,82.887z M85.601,82.887c0-0.979-0.079-1.887-0.228-2.74
		c-0.152-0.852-0.386-1.59-0.698-2.215c-0.314-0.623-0.696-1.119-1.151-1.482c-0.456-0.369-0.98-0.55-1.576-0.55
		c-0.622,0-1.168,0.181-1.632,0.55c-0.463,0.363-0.849,0.861-1.15,1.482c-0.305,0.623-0.533,1.362-0.684,2.215
		c-0.152,0.852-0.227,1.762-0.227,2.74c0,0.971,0.075,1.883,0.227,2.736c0.151,0.854,0.38,1.601,0.684,2.237
		c0.302,0.637,0.687,1.142,1.15,1.503c0.464,0.365,1.01,0.549,1.632,0.549c0.609,0,1.141-0.184,1.596-0.549
		c0.458-0.363,0.836-0.866,1.141-1.503c0.304-0.637,0.534-1.383,0.687-2.237C85.523,84.77,85.601,83.856,85.601,82.887z"/>
	<path fill="#FFFFFF" d="M89.344,93.975H88.11l1.325-5.66h1.506L89.344,93.975z"/>
	<path fill="#FFFFFF" d="M108.625,90.985h-2.102l-2.649-13.829h-0.042l-2.621,13.829H99.11l-3.17-16.156h1.617l2.647,14.128h0.047
		l2.691-14.128h1.918l2.738,14.128h0.047l2.621-14.128h1.549L108.625,90.985z"/>
	<path fill="#FFFFFF" d="M124.003,82.887c0,1.26-0.117,2.414-0.363,3.455c-0.242,1.043-0.593,1.938-1.05,2.684
		c-0.455,0.742-1.012,1.319-1.664,1.732c-0.653,0.41-1.4,0.617-2.238,0.617c-0.836,0-1.584-0.207-2.248-0.617
		c-0.662-0.413-1.223-0.987-1.689-1.732c-0.463-0.746-0.816-1.642-1.059-2.684c-0.246-1.041-0.367-2.193-0.367-3.455
		c0-1.25,0.117-2.397,0.351-3.438c0.239-1.042,0.583-1.934,1.039-2.672c0.46-0.737,1.019-1.311,1.681-1.721s1.426-0.615,2.291-0.615
		c0.838,0,1.583,0.203,2.236,0.615c0.656,0.41,1.213,0.983,1.666,1.721c0.457,0.739,0.809,1.629,1.049,2.672
		C123.885,80.489,124.003,81.635,124.003,82.887z M122.338,82.887c0-0.979-0.074-1.887-0.226-2.74
		c-0.151-0.852-0.384-1.59-0.696-2.215c-0.312-0.623-0.697-1.119-1.152-1.482c-0.456-0.369-0.979-0.55-1.576-0.55
		c-0.621,0-1.166,0.181-1.631,0.55c-0.461,0.363-0.85,0.861-1.15,1.482c-0.303,0.623-0.533,1.362-0.685,2.215
		c-0.153,0.852-0.229,1.762-0.229,2.74c0,0.971,0.076,1.883,0.229,2.736c0.151,0.854,0.382,1.601,0.685,2.237
		c0.301,0.637,0.689,1.142,1.15,1.503c0.465,0.365,1.01,0.549,1.631,0.549c0.608,0,1.141-0.184,1.6-0.549
		c0.457-0.363,0.834-0.866,1.139-1.503c0.307-0.637,0.535-1.383,0.687-2.237C122.264,84.77,122.338,83.856,122.338,82.887z"/>
	<path fill="#FFFFFF" d="M133.588,90.985l-2.92-7.484h-2.078v7.484h-1.574V74.829h3.881c0.531,0,1.044,0.073,1.539,0.216
		c0.494,0.144,0.934,0.386,1.324,0.721c0.387,0.333,0.699,0.779,0.935,1.324c0.237,0.549,0.353,1.217,0.353,2.009
		c0,0.681-0.088,1.271-0.262,1.767c-0.173,0.495-0.402,0.91-0.684,1.244c-0.281,0.336-0.594,0.594-0.938,0.778
		c-0.34,0.181-0.684,0.294-1.016,0.341l3.15,7.757H133.588L133.588,90.985z M133.498,79.174c0-0.572-0.081-1.057-0.24-1.443
		c-0.158-0.385-0.375-0.693-0.639-0.92c-0.266-0.227-0.572-0.384-0.914-0.479c-0.34-0.089-0.697-0.135-1.059-0.135h-2.057v6.047
		h2.124c0.866,0,1.547-0.268,2.044-0.806C133.25,80.899,133.498,80.146,133.498,79.174z"/>
	<path fill="#FFFFFF" d="M137.878,90.985V74.829h1.599v14.669h4.607v1.486L137.878,90.985L137.878,90.985z"/>
	<path fill="#FFFFFF" d="M155.355,82.928c0,1.323-0.137,2.487-0.407,3.495c-0.276,1.003-0.672,1.843-1.188,2.519
		c-0.516,0.68-1.137,1.186-1.859,1.528s-1.525,0.515-2.406,0.515h-3.469V74.829h3.49c0.883,0,1.684,0.171,2.408,0.515
		c0.721,0.338,1.338,0.855,1.849,1.539c0.509,0.684,0.901,1.532,1.176,2.543C155.219,80.435,155.355,81.604,155.355,82.928z
		 M153.784,82.928c0-1.143-0.112-2.142-0.333-2.984c-0.221-0.85-0.525-1.548-0.912-2.099c-0.389-0.55-0.845-0.96-1.368-1.234
		c-0.53-0.276-1.093-0.413-1.702-0.413H147.6v13.418h1.869c0.611,0,1.176-0.141,1.703-0.415c0.523-0.273,0.979-0.69,1.369-1.239
		c0.385-0.543,0.689-1.238,0.912-2.08C153.672,85.043,153.784,84.057,153.784,82.928z"/>
	<path fill="#FFFFFF" d="M160.948,90.002c0,0.316-0.103,0.589-0.31,0.811c-0.205,0.223-0.459,0.334-0.762,0.334
		c-0.305,0-0.559-0.109-0.757-0.334c-0.196-0.219-0.292-0.492-0.292-0.811c0-0.32,0.096-0.588,0.292-0.811
		c0.198-0.219,0.452-0.334,0.757-0.334c0.303,0,0.557,0.115,0.762,0.334C160.846,89.414,160.948,89.684,160.948,90.002z
		 M159.12,86.17V74.829h1.508V86.17H159.12z"/>
</g>
</svg>
