<?xml version="1.0" encoding="utf-8"?>
<!-- Generator: Adobe Illustrator 14.0.0, SVG Export Plug-In . SVG Version: 6.00 Build 43363)  -->
<!DOCTYPE svg PUBLIC "-//W3C//DTD SVG 1.1//EN" "http://www.w3.org/Graphics/SVG/1.1/DTD/svg11.dtd">
<svg version="1.1" id="Layer_1" xmlns="http://www.w3.org/2000/svg" xmlns:xlink="http://www.w3.org/1999/xlink" x="0px" y="0px"
	 width="320px" height="200px" viewBox="0 0 320 200" enable-background="new 0 0 320 200" xml:space="preserve">
<g id="Layer_1_1_">
	<g>
		<g>
			<path d="M50.547,44.114c1.916,15.719,2.64,31.505,2.667,47.333c0.003,1.541,5.799,0.518,5.796-1.553
				c-0.027-15.829-0.751-31.615-2.667-47.333C56.137,40.868,50.306,42.134,50.547,44.114L50.547,44.114z"/>
		</g>
	</g>
	<g>
		<g>
			<path d="M54.649,74.009c5.879-1.162,11.929-0.574,17.877-0.532c3.329,0.024,4.431-4.251,0.505-4.279
				c-6.547-0.047-12.987-0.477-19.456,0.801C49.907,70.724,51.055,74.719,54.649,74.009L54.649,74.009z"/>
		</g>
	</g>
	<g>
		<g>
			<path d="M67.88,44.114c4.723,15.066,2.738,31.148,2.667,46.667c-0.006,1.45,5.787,0.465,5.796-1.553
				c0.071-15.519,2.056-31.601-2.667-46.667C73.125,40.804,67.357,42.444,67.88,44.114L67.88,44.114z"/>
		</g>
	</g>
	<g>
		<g>
			<path d="M78.354,84.449c4.752,0.452,14.75-0.076,14.789-6.931c0.03-5.236-5.566-6.462-9.586-5.028
				c-6.926,2.471-8.005,11.238-2.621,15.56c5.854,4.698,14.728,4.631,21.01,0.949c3.386-1.985-1.642-3.176-3.668-1.988
				c-6.535,3.831-19.916-3.165-13.263-10.965c1.156-1.355,1.123-0.596,0.079-0.75c0.311,0.046,0.611,0.218,0.854,0.413
				c0.791,0.634,1.164,1.524,1.349,2.49c0.693,3.624-4.819,2.881-6.761,2.696C78.136,80.665,74.434,84.076,78.354,84.449
				L78.354,84.449z"/>
		</g>
	</g>
	<g>
		<g>
			<path d="M102.547,42.78c2.7,16.72,3.331,33.833,1.334,50.667c-0.099,0.833,5.581,0.26,5.796-1.553
				c1.997-16.834,1.365-33.947-1.334-50.667C108.137,39.952,102.298,41.239,102.547,42.78L102.547,42.78z"/>
		</g>
	</g>
	<g>
		<g>
			<path d="M111.214,45.447c5.25,15.062,5.327,31.135,5.329,46.903c0,2.504,5.804,1.282,5.804-0.693
				c-0.002-16.048,0.008-32.43-5.337-47.763C116.274,41.784,110.518,43.45,111.214,45.447L111.214,45.447z"/>
		</g>
	</g>
	<g>
		<g>
			<path d="M132.988,71.557c-9.199,3.302-8.41,17.433,1.889,18.043c12.192,0.723,13.265-15.897,4.219-20.958
				c-1.574-0.881-6.938,1.434-4.634,2.723c2.693,1.507,4.012,4.388,4.662,7.283c0.339,1.512,0.637,7.728-1.956,7.804
				c-5.596,0.164-6.717-10.95-1.933-12.667c0.647-0.232,2.479-1.327,1.573-2.227C135.881,70.637,134.013,71.189,132.988,71.557
				L132.988,71.557z"/>
		</g>
	</g>
	<g>
		<g>
			<path d="M149.214,90.78c-0.026,2.186-0.515,4.183-2.378,5.495c-1.105,0.779,0.983,0.838,1.329,0.803
				c1.357-0.141,2.767-0.555,3.889-1.346c2.219-1.563,2.924-3.888,2.956-6.505C155.019,88.476,149.233,89.224,149.214,90.78
				L149.214,90.78z"/>
		</g>
	</g>
	<g>
		<g>
			<path d="M159.881,73.447c1.378,5.989,3.074,11.9,6,17.333c0.812,1.508,4.238,0.382,5.176-0.473
				c3.322-3.033,4.969-6.591,6.603-10.731c-1.862,0.499-3.726,0.998-5.589,1.498c2.607,3.426,4.754,7.116,8,10
				c1.338,1.188,4.861-0.07,5.589-1.498c3.29-6.454,3.995-13.644,5.332-20.667c0.356-1.869-5.435-0.858-5.761,0.856
				c-1.336,7.023-2.041,14.212-5.332,20.667c1.863-0.499,3.727-0.998,5.588-1.498c-3.245-2.884-5.391-6.574-8-10
				c-1.02-1.339-5.072,0.193-5.588,1.498c-1.348,3.414-2.606,6.722-5.396,9.269c1.725-0.158,3.45-0.315,5.175-0.473
				c-2.926-5.434-4.622-11.345-6-17.333C165.287,70.201,159.475,71.678,159.881,73.447L159.881,73.447z"/>
		</g>
	</g>
	<g>
		<g>
			<path d="M195.818,70.311c-7.444,5.118-10.324,23.231,3.18,20.273c8.791-1.925,12.21-17.765,3.441-21.9
				c-1.554-0.732-6.896,1.584-4.656,2.64c4.898,2.311,5.219,13.819,0.711,16.697c-0.529,0.338-2.688-2.385-2.936-2.904
				c-0.75-1.578-0.601-3.479-0.328-5.141c0.543-3.338,2.342-6.998,5.174-8.944c1.014-0.697,0.605-1.647-0.487-1.819
				C198.48,68.986,196.986,69.507,195.818,70.311L195.818,70.311z"/>
		</g>
	</g>
	<g>
		<g>
			<path d="M208.548,70.114c0.095,6.472,1.238,12.862,1.334,19.333c0.021,1.499,5.696,0.406,5.779-1.199
				c0.233-4.54-4.955-18.228,1.997-18.855c2.658-0.24,4.953-3.144,0.906-2.778c-4.346,0.392-9.193,2.026-10.164,6.792
				c-1.053,5.157,1.765,10.489,1.496,15.688c1.928-0.4,3.854-0.8,5.779-1.199c-0.095-6.472-1.238-12.862-1.334-19.333
				C214.32,67.073,208.518,68.1,208.548,70.114L208.548,70.114z"/>
		</g>
	</g>
	<g>
		<g>
			<path d="M227.9,41.106c-1.373,16.941-3.32,34.09-0.688,51.007c0.247,1.592,6.08,0.276,5.795-1.553
				c-2.6-16.703-0.708-33.598,0.648-50.326C233.816,38.268,228.033,39.478,227.9,41.106L227.9,41.106z"/>
		</g>
	</g>
	<g>
		<g>
			<path d="M256.343,73.228c-1.571-9.889-13.002-6.081-17.2-0.041c-5.74,8.257,1.322,17.264,10.778,15.068
				c8.58-1.993,8.569-13.844,8.769-20.741c0.26-8.991-0.562-18.039-1.681-26.953c-0.159-1.275-5.999-0.076-5.795,1.553
				c1.534,12.251,3.132,25.543,0.577,37.735c-0.462,2.206-1.229,5.234-3.127,6.678c1.07-0.814,1.814-0.147,0.332-0.552
				c-0.947-0.258-1.816-0.771-2.667-1.245c-1.831-1.019-3.037-2.673-3.597-4.659c-0.863-3.065,0.897-6.433,2.841-8.678
				c2.907-3.359,4.393-0.271,4.975,3.388C250.757,76.098,256.596,74.812,256.343,73.228L256.343,73.228z"/>
		</g>
	</g>
	<g>
		<g>
			<path d="M264.548,43.447c0.093,12.72,1.901,25.319,2.666,38c0.07,1.166,5.897,0.137,5.795-1.553
				c-0.764-12.681-2.573-25.281-2.666-38C270.335,40.812,264.535,41.704,264.548,43.447L264.548,43.447z"/>
		</g>
	</g>
	<g>
		<g>
			<path d="M267.174,89.553c0.051,0.769,0.184,1.461,0.754,2.031c0.689,0.688,1.524,1.144,2.52,1.209
				c1.404,0.092,3.119-0.397,3.771-1.781c0.598-1.268-0.529-2.382-1.773-2.464c-0.271-0.024-0.18,0.002,0.275,0.082
				c0.348,0.196,0.414,0.223,0.198,0.082c0.239,0.25,0.279,0.283,0.122,0.102c-0.059-0.074-0.105-0.153-0.148-0.236
				c0.082,0.168,0.164,0.336,0.246,0.505c-0.057-0.13-0.094-0.248-0.121-0.388c0.015,0.187,0.026,0.374,0.039,0.561
				c-0.002-0.044-0.006-0.089-0.008-0.133c-0.042-0.63-0.15-1.081-0.705-1.466c-0.568-0.394-1.305-0.507-1.979-0.457
				c-0.775,0.057-1.556,0.33-2.179,0.8C267.771,88.311,267.136,88.965,267.174,89.553L267.174,89.553z"/>
		</g>
	</g>
	<g>
		<g>
			<path d="M80.538,106.323c-0.661,17.825-1.357,35.669-4,53.333c-0.369,2.464,5.496,1.475,5.814-0.654
				c2.643-17.664,3.339-35.508,4-53.333C86.448,103.096,80.616,104.229,80.538,106.323L80.538,106.323z"/>
		</g>
	</g>
	<g>
		<g>
			<path d="M86.547,124.105c1.091,2.279,2.103,5.231,1.383,7.771c-0.254,0.896,1.906,0.462,2.274,0.392
				c0.713-0.137,3.166-0.58,3.422-1.484c0.784-2.766-0.081-5.717-1.284-8.229C91.733,121.277,86.178,123.333,86.547,124.105
				L86.547,124.105z"/>
		</g>
	</g>
	<g>
		<g>
			<path d="M96.54,136.331c0.054,5.962,0.679,11.854,1.341,17.774c1.932-0.519,3.864-1.035,5.796-1.554
				c-0.569-3.379-0.877-7.245,0.993-10.299c0.663-1.082-1.579-0.431-0.675,0.411c0.559,0.521,0.899,1.256,1.211,1.932
				c0.88,1.908,1.122,4.114,1.342,6.176c0.235,2.205,5.406,0.537,5.803-1.11c0.848-3.517,1.294-9.837,4.935-11.703
				c-1.286-0.045-2.571-0.089-3.856-0.133c2.984,4.685,2.552,10.306,3.118,15.612c0.222,2.082,6.043,0.769,5.796-1.553
				c-0.614-5.746-0.329-11.332-3.548-16.387c-0.664-1.043-3.018-0.562-3.856-0.133c-6.004,3.078-6.936,8.896-8.399,14.965
				c1.935-0.371,3.869-0.741,5.803-1.111c-0.559-5.24-2.39-11.777-8.947-10.191c-6.453,1.562-6.371,9.992-5.515,15.078
				c0.362,2.147,6.049,0.709,5.796-1.553c-0.628-5.621-1.275-11.229-1.326-16.893C102.327,133.096,96.521,134.302,96.54,136.331
				L96.54,136.331z"/>
		</g>
	</g>
	<g>
		<g>
			<path d="M148.547,119.771c0.71,14.311,2.045,28.57,4.667,42.666c0.271,1.457,6.102,0.092,5.796-1.553
				c-2.622-14.096-3.957-28.355-4.667-42.666C154.279,116.936,148.458,117.971,148.547,119.771L148.547,119.771z"/>
		</g>
	</g>
	<g>
		<g>
			<path d="M148.528,121.213c5.685-1.094,11.372-2.57,17.203-2.361c7.111,0.254,10.547,5.656,11.487,12.162
				c1.929,13.334-13.505,22.926-22.927,29.035c-3.3,2.141,1.696,3.157,3.643,1.895c11.58-7.508,27.19-17.883,24.896-33.762
				c-2.557-17.683-23.208-12.365-35.132-10.07C144.105,118.803,145.028,121.887,148.528,121.213L148.528,121.213z"/>
		</g>
	</g>
	<g>
		<g>
			<path d="M189.091,136.545c-3.581,1.582-6.139,4.697-5.374,8.768c0.827,4.405,5.648,5.897,9.549,5.558
				c3.724-0.326,7.94-2.117,7.889-6.368c-0.047-3.738-3.363-6.891-6.672-8.002c-1.217-0.408-2.976,0.182-4.06,0.712
				c-0.581,0.286-1.919,1.198-0.682,1.614c2.304,0.773,4.021,2.542,5.015,4.726c0.416,0.913,0.596,1.909,0.607,2.905
				c0.007,0.546-0.176,1.057-0.389,1.549c-0.406,0.938-1.104,0.559,0.229,0.441c-5.924,0.519-8.008-8.672-2.736-10.999
				c0.536-0.237,1.961-1.274,0.682-1.614C191.834,135.482,190.279,136.021,189.091,136.545L189.091,136.545z"/>
		</g>
	</g>
	<g>
		<g>
			<path d="M203.882,135.105c0.666,6.666,1.332,13.334,2,20c1.933-0.519,3.863-1.035,5.795-1.554
				c-2.294-7.341-1.223-13.94,6.83-16.415c3.423-1.051,2.677-4.017-0.791-2.951c-4.435,1.362-8.653,3.344-11.327,7.289
				c-2.723,4.016-1.854,9.32-0.507,13.631c0.649,2.08,6.007,0.562,5.795-1.554c-0.667-6.667-1.334-13.333-2-20
				C209.48,131.593,203.658,132.873,203.882,135.105L203.882,135.105z"/>
		</g>
	</g>
	<g>
		<g>
			<path d="M237.145,131.666c-4.766-0.762-10.709-0.191-13.326,4.473c-1.823,3.247-0.662,7.422,1.05,10.434
				c1.832,3.225,5.471,5.203,9.054,3.398c5.107-2.574,4.614-10.519,4.451-15.229c-1.941,0.344-3.883,0.688-5.824,1.03
				c0.694,4.535,2.09,8.791,4.901,12.467c1.506,1.968,7.051-0.229,5.323-2.484c-2.612-3.415-3.785-7.331-4.431-11.533
				c-0.36-2.363-5.899-1.156-5.823,1.03c0.114,3.306,0.596,9.45-1.625,11.883c0.153-0.168,0.848-0.497,1.631-0.478
				c-0.096-0.004,0.113,0.094-0.357-0.208c-0.659-0.423-1.427-1.445-1.977-2.361c-1.176-1.965-1.711-4.499-1.161-6.735
				c0.258-1.049,0.913-1.494,1.37-1.709c0.834-0.393,3.15-0.229,4.679,0.017C237.786,136.091,241.034,132.288,237.145,131.666
				L237.145,131.666z"/>
		</g>
	</g>
	<g>
		<g>
			<path d="M247.882,148.438c0.468,0.965,0.658,1.938,0.658,2.895c0.001,1.322,1.474,1.491,2.536,1.368
				c0.768-0.089,1.537-0.341,2.191-0.755c0.361-0.23,1.082-0.771,1.082-1.285c0-1.371-0.067-2.525-0.674-3.774
				c-0.574-1.188-2.232-1.065-3.312-0.776c-0.696,0.188-1.396,0.506-1.928,1.004C248.152,147.379,247.664,147.99,247.882,148.438
				L247.882,148.438z"/>
		</g>
	</g>
</g>
<g id="Layer_2" display="none">
	<g display="inline">
		<g>
			<path fill="#508F7C" d="M35.883,57.952C31.143,71.214,24.6,83.819,22.39,97.861c-0.478,3.04,5.457,2.337,5.886-0.39
				c2.146-13.634,8.572-25.88,13.174-38.758C42.604,55.487,36.795,55.4,35.883,57.952L35.883,57.952z"/>
		</g>
	</g>
	<g display="inline">
		<g>
			<path fill="#508F7C" d="M36.388,51.185c0.845,15.982,5.928,31.076,9.381,46.591c0.636,2.855,6.438,1.33,5.796-1.553
				c-3.359-15.091-8.465-29.862-9.286-45.409C42.11,47.632,36.242,48.422,36.388,51.185L36.388,51.185z"/>
		</g>
	</g>
	<g display="inline">
		<g>
			<path fill="#508F7C" d="M25.557,80.563c5.884,1.839,11.859,2.064,17.98,2.067c1.306,0.001,3.033-0.434,3.827-1.577
				c0.782-1.126-0.658-1.685-1.566-1.686c-5.705-0.003-11.199-0.218-16.687-1.933C27.296,76.869,22.307,79.548,25.557,80.563
				L25.557,80.563z"/>
		</g>
	</g>
	<g display="inline">
		<g>
			<path fill="#508F7C" d="M51.102,77.109c1.267,6.842,1.4,13.825,2.667,20.667c0.185,0.999,5.801-0.244,5.796-1.553
				c-0.01-2.625-0.013-5.235,0.224-7.852c0.143-1.575,0.447-3.119,0.904-4.633c0.218-0.721,0.548-1.388,0.897-2.051
				c0.125-0.196,0.25-0.392,0.375-0.588c0.754-0.852,0.854-0.979,0.303-0.38c5.291,0.92,3.895,13.924,4.834,17.724
				c0.27,1.09,6.08-0.406,5.796-1.553c-1.578-6.376,0.855-20.78-9.986-18.288c-4.217,0.97-6.858,2.725-8.145,6.99
				c-1.177,3.902-1.012,8.154-0.998,12.184c1.932-0.518,3.864-1.035,5.796-1.553c-1.267-6.842-1.4-13.825-2.667-20.667
				C56.71,74.544,50.871,75.862,51.102,77.109L51.102,77.109z"/>
		</g>
	</g>
	<g display="inline">
		<g>
			<path fill="#508F7C" d="M93.725,84.923c-3.193-7.563-10.949-7.591-15.894-1.417c-4.223,5.271-4.538,14.742,3.993,15.118
				c10.63,0.468,12.487-8.252,12.57-17.09c0.101-10.759-2.766-21.274-2.926-31.978c-0.025-1.67-5.828-0.588-5.796,1.553
				c0.201,13.395,5.31,27.22,1.998,40.568c-0.755,3.045-1.806,4.773-4.943,3.344c-2.182-0.994-2.234-4.069-1.925-6.035
				c0.369-2.341,1.551-4.749,3.229-6.425c0.824-0.822,0.286-0.765,1.101-0.235c1.42,0.922,2.168,2.659,2.797,4.149
				C88.738,88.391,94.431,86.594,93.725,84.923L93.725,84.923z"/>
		</g>
	</g>
	<g display="inline">
		<g>
			<path fill="#508F7C" d="M146.458,84.923c-3.193-7.563-10.948-7.591-15.894-1.417c-4.223,5.271-4.538,14.742,3.993,15.118
				c10.63,0.468,12.487-8.252,12.57-17.09c0.101-10.759-2.766-21.274-2.926-31.978c-0.025-1.67-5.828-0.588-5.796,1.553
				c0.201,13.395,5.31,27.22,1.998,40.568c-0.755,3.045-1.806,4.773-4.943,3.344c-2.182-0.994-2.234-4.069-1.925-6.035
				c0.368-2.341,1.55-4.749,3.229-6.425c0.823-0.822,0.286-0.765,1.1-0.235c1.42,0.922,2.168,2.659,2.797,4.149
				C141.471,88.391,147.164,86.594,146.458,84.923L146.458,84.923z"/>
		</g>
	</g>
	<g display="inline">
		<g>
			<path fill="#508F7C" d="M115.769,53.776c0.057,14.8,1.327,29.56,4.667,44c0.347,1.5,6.162,0.03,5.796-1.553
				c-3.34-14.44-4.61-29.2-4.667-44C121.56,51.005,115.762,51.932,115.769,53.776L115.769,53.776z"/>
		</g>
	</g>
	<g display="inline">
		<g>
			<path fill="#508F7C" d="M121.769,61.776c0.51,1.602,0.633,3.128,0.634,4.797c0.001,1.433,1.407,1.915,2.655,1.812
				c1.096-0.09,3.207-0.881,3.207-2.292c-0.001-2.007-0.087-3.945-0.699-5.87C126.743,57.642,120.961,59.237,121.769,61.776
				L121.769,61.776z"/>
		</g>
	</g>
	<g display="inline">
		<g>
			<path fill="#508F7C" d="M167.77,47.776c2.518,16.668,1.312,33.453-0.023,50.168c-0.221,2.765,5.654,1.792,5.842-0.556
				c1.36-17.045,2.544-34.172-0.023-51.166C173.201,43.821,167.387,45.242,167.77,47.776L167.77,47.776z"/>
		</g>
	</g>
	<g display="inline">
		<g>
			<path fill="#508F7C" d="M177.77,79.109c0.621,6.68,0.775,13.389,2,20c0.479,2.596,6.289,1.119,5.795-1.553
				c-1.224-6.612-1.379-13.32-2-20C183.326,75.001,177.516,76.391,177.77,79.109L177.77,79.109z"/>
		</g>
	</g>
	<g display="inline">
		<g>
			<path fill="#508F7C" d="M182.877,60.658c2.186,0,6.165-3.317,2.246-3.317C182.938,57.341,178.958,60.658,182.877,60.658
				L182.877,60.658z"/>
		</g>
	</g>
	<g display="inline">
		<g>
			<path fill="#508F7C" d="M190.415,45.949c0.094,9.898,1.509,19.699,1.933,29.578c0.357,8.406-2.392,16.748,0.756,24.916
				c0.912,2.37,6.66,0.696,5.795-1.553c-3.174-8.241-0.428-17.234-0.793-25.791c-0.396-9.26-1.765-18.438-1.853-27.716
				C196.227,42.588,190.395,43.663,190.415,45.949L190.415,45.949z"/>
		</g>
	</g>
	<g display="inline">
		<g>
			<path fill="#508F7C" d="M210.191,77.153c-5.715,2.31-10.549,6.163-15.986,8.997c-0.57,0.297-1.623,1.302-0.896,1.98
				c5.026,4.699,11.996,6.8,18.385,8.932c1.355,0.453,2.883,0.192,4.103-0.546c0.651-0.395,1.879-1.79,0.513-2.246
				c-6.045-2.018-12.855-3.954-17.615-8.402c-0.299,0.66-0.598,1.32-0.896,1.98c4.996-2.604,9.438-6.218,14.682-8.336
				C216.234,77.994,212.791,76.103,210.191,77.153L210.191,77.153z"/>
		</g>
	</g>
	<g display="inline">
		<g>
			<path fill="#508F7C" d="M218.312,88.093c6.679-0.398,12.821-5.341,11.252-12.536c-0.227-1.037-1.771-1.026-2.543-0.983
				c-7.887,0.438-11.221,7.378-9.029,14.461c2.845,9.198,14.212,8.925,21.773,6.909c3.512-0.936,2.646-4.157-0.863-3.222
				c-5.137,1.37-11.111,1.528-14.312-3.42c-1.719-2.658-2.971-10.949,1.723-11.209c-0.848-0.328-1.694-0.656-2.543-0.983
				c0.776,3.559-0.703,7.223-4.748,7.464C216.025,84.751,214.316,88.331,218.312,88.093L218.312,88.093z"/>
		</g>
	</g>
	<g display="inline">
		<g>
			<path fill="#508F7C" d="M247.046,66.801c9.427-0.058,18.705-0.964,27.884-3.151c3.598-0.857,2.564-4.58-1-3.73
				c-8.664,2.064-17.416,2.817-26.308,2.871C244.398,62.81,243.1,66.825,247.046,66.801L247.046,66.801z"/>
		</g>
	</g>
	<g display="inline">
		<g>
			<path fill="#508F7C" d="M255.713,52.315c-0.029,15.726-0.691,31.506,1.52,47.128c0.312,2.208,6.131,0.825,5.795-1.553
				c-2.168-15.32-1.521-30.785-1.493-46.206C261.538,49.036,255.717,50.185,255.713,52.315L255.713,52.315z"/>
		</g>
	</g>
	<g display="inline">
		<g>
			<path fill="#508F7C" d="M278.514,75.601c-5.053,2.523-8.927,7.425-8.4,13.305c0.555,6.198,8.347,8.15,13.396,6.819
				c5.415-1.427,8.328-5.096,8.708-10.658c0.35-5.135-2.216-10.866-7.386-12.431c-1.39-0.421-6.565,1.786-4.735,2.34
				c6.773,2.051,8.31,13.145,3.959,18.033c-1.488,1.673-4.802-0.435-6.099-1.514c-1.438-1.195-1.953-3.082-2.112-4.857
				c-0.359-4.036,2.562-8.367,6.053-10.111C285.344,74.805,279.961,74.878,278.514,75.601L278.514,75.601z"/>
		</g>
	</g>
	<g display="inline">
		<g>
			<path fill="#508F7C" d="M11.769,128.441c1.335,8.322,2.001,16.834,5.333,24.668c0.94,2.209,4.826,1.634,5.674-0.424
				c1.904-4.621,3.429-9.381,5.333-14c-1.809,0.312-3.618,0.623-5.426,0.935c4.184,4.116,8.587,7.976,13.089,11.739
				c1.586,1.326,4.81,0.061,5.167-1.903c1.131-6.217,0.114-12.41,0-18.666c-0.056-3.092-5.925-2.233-5.877,0.42
				c0.114,6.256,1.131,12.449,0,18.666c1.722-0.635,3.444-1.269,5.167-1.903c-4.2-3.513-8.341-7.084-12.245-10.927
				c-1.432-1.41-4.592-1.089-5.426,0.935c-1.904,4.621-3.429,9.381-5.333,14c1.892-0.142,3.783-0.281,5.674-0.424
				c-3.333-7.832-3.999-16.346-5.333-24.666C17.125,124.15,11.316,125.624,11.769,128.441L11.769,128.441z"/>
		</g>
	</g>
	<g display="inline">
		<g>
			<path fill="#508F7C" d="M53.806,129.684c-5.413,0.688-10.035,4.199-11.246,9.646c-1.314,5.914,3.221,9.452,8.577,10.145
				c4.611,0.594,10.05-1.55,10.838-6.531c0.719-4.545-1.505-9.743-4.597-12.998c-1.186-1.247-6.634,0.838-5.425,2.109
				c2.139,2.252,3.388,5.137,4.042,8.145c0.296,1.361,0.363,2.77,0.146,4.145c-0.103,0.65-0.351,1.258-0.638,1.844
				c-0.161,0.258-0.352,0.49-0.573,0.696c0.587-0.12,0.543-0.165-0.131-0.136c-3.921-0.237-6.471-2.989-6.634-6.805
				c-0.111-2.606,1.758-7.252,4.696-7.627C55.422,131.991,57.862,129.168,53.806,129.684L53.806,129.684z"/>
		</g>
	</g>
	<g display="inline">
		<g>
			<path fill="#508F7C" d="M62.402,129.902c0.104,8.271,1.346,16.396,2.7,24.539c0.413,2.482,5.727,1.219,5.83-1.012
				c0.379-8.266-3.561-21.199,7.585-23.17c3.674-0.648,2.541-4.488-1.033-3.855c-5.333,0.943-10.411,3.65-11.906,9.229
				c-1.589,5.929-0.231,12.22-0.509,18.269c1.943-0.338,3.886-0.674,5.83-1.012c-1.294-7.785-2.534-15.553-2.632-23.461
				C68.228,126.441,62.371,127.38,62.402,129.902L62.402,129.902z"/>
		</g>
	</g>
	<g display="inline">
		<g>
			<path fill="#508F7C" d="M80.436,117.109c1.38,11.828,3.838,23.543,3.974,35.488c0.033,2.871,5.875,1.846,5.848-0.529
				c-0.14-12.297-2.606-24.336-4.026-36.512C85.946,113.107,80.131,114.5,80.436,117.109L80.436,117.109z"/>
		</g>
	</g>
	<g display="inline">
		<g>
			<path fill="#508F7C" d="M92.247,130.831c-1.96,2.524-4.111,5.058-5.68,7.853c-0.724,1.289,0.633,2.252,1.757,2.398
				c6.421,0.841,11.975,4.393,17.998,6.518c2.439,0.86,6.815-2.646,3.356-3.867c-6.503-2.295-12.392-5.904-19.334-6.813
				c0.585,0.8,1.171,1.601,1.757,2.399c1.362-2.428,3.282-4.621,4.986-6.816C99.344,129.596,93.845,128.771,92.247,130.831
				L92.247,130.831z"/>
		</g>
	</g>
	<g display="inline">
		<g>
			<path fill="#508F7C" d="M123.391,131.195c0.086,8.697,1.567,18.102,9.954,22.49c1.544,0.81,3.657-0.291,4.438-1.641
				c2.211-3.82,2.525-8.47,4.994-12.123c-1.696,0.126-3.393,0.253-5.089,0.379c3.67,5.036,7.754,9.625,12.425,13.752
				c1.459,1.29,4.225,0.197,5.004-1.341c3.078-6.075,3.487-12.673,4.825-19.242c0.607-2.979-5.336-2.305-5.885,0.392
				c-1.257,6.171-1.614,12.38-4.507,18.092c1.668-0.447,3.336-0.895,5.004-1.342c-4.38-3.869-8.137-8.197-11.575-12.913
				c-1.104-1.515-4.11-1.07-5.089,0.379c-2.75,4.069-3.231,8.987-5.674,13.209c1.479-0.548,2.959-1.095,4.438-1.642
				c-6.536-3.42-7.313-12.312-7.378-18.841C129.245,127.659,123.364,128.464,123.391,131.195L123.391,131.195z"/>
		</g>
	</g>
	<g display="inline">
		<g>
			<path fill="#508F7C" d="M166.792,131.452c-0.625,6.763-0.688,13.537-0.688,20.323c-0.002,1.297,5.795,0.354,5.795-1.553
				c0.002-6.568,0.037-13.129,0.643-19.676C172.712,128.691,166.938,129.885,166.792,131.452L166.792,131.452z"/>
		</g>
	</g>
	<g display="inline">
		<g>
			<path fill="#508F7C" d="M172.783,134.494c6.72-0.094,13.289-1.307,19.953-2.021c1.285-0.138,2.89-0.478,3.883-1.373
				c0.98-0.884-0.864-0.959-1.355-0.906c-6.238,0.67-12.423,1.893-18.711,1.979c-1.396,0.021-2.898,0.359-4.098,1.099
				C171.553,133.825,171.652,134.51,172.783,134.494L172.783,134.494z"/>
		</g>
	</g>
	<g display="inline">
		<g>
			<path fill="#508F7C" d="M180.104,115.775c0.062,12.238,1.268,24.431,1.334,36.666c0.006,1.35,5.806,0.379,5.795-1.553
				c-0.065-12.236-1.271-24.43-1.334-36.666C185.891,112.876,180.093,113.846,180.104,115.775L180.104,115.775z"/>
		</g>
	</g>
	<g display="inline">
		<g>
			<path fill="#508F7C" d="M195.438,117.775c0.098,12.568,1.943,24.961,4,37.334c0.237,1.438,5.604,0.091,5.768-1.242
				c0.344-2.827-0.005-5.738-0.031-8.576c-0.021-2.15,0.122-4.284,0.51-6.4c0.115-0.627,1.565-4.539,1.539-4.545
				c3.213,0.769,4.5,8.135,5.141,10.67c0.957,3.775,1.511,7.639,2.406,11.428c0.355,1.505,6.168,0.021,5.795-1.553
				c-1.64-6.934-2.051-25.086-12.771-22.898c-11.13,2.27-7.349,14.734-8.329,22.808c1.924-0.413,3.846-0.827,5.768-1.241
				c-2.055-12.373-3.901-24.766-4-37.334C201.223,115,195.422,115.936,195.438,117.775L195.438,117.775z"/>
		</g>
	</g>
	<g display="inline">
		<g>
			<path fill="#508F7C" d="M230.665,136.55c5.364,4.894,8.724,11.336,12.666,17.333c1.28,1.947,6.86-0.117,5.338-2.434
				c-3.942-5.996-7.301-12.439-12.666-17.333C234.254,132.521,228.782,134.833,230.665,136.55L230.665,136.55z"/>
		</g>
	</g>
	<g display="inline">
		<g>
			<path fill="#508F7C" d="M248.398,130.891c-2.699,17.728-7.238,35.082-10.668,52.668c-0.56,2.869,5.367,2.123,5.869-0.449
				c3.43-17.586,7.969-34.941,10.668-52.668C254.714,127.52,248.794,128.299,248.398,130.891L248.398,130.891z"/>
		</g>
	</g>
	<g display="inline">
		<g>
			<path fill="#508F7C" d="M260.255,132.529c-5.497,7.355-3.182,23.318,8.865,19.496c5.151-1.635,10.937-7.148,7.647-12.83
				c-2.711-4.685-8.625-7.852-13.748-9.098c-1.428-0.349-3.082-0.048-4.098,1.098c-0.83,0.937-0.605,2.383,0.725,2.707
				c5.181,1.261,18.211,8.752,9.014,13.982c-3.049,1.734-4.637-1.539-5.264-4.102c-0.762-3.106-0.262-7.049,1.681-9.647
				C267.271,131.2,261.783,130.482,260.255,132.529L260.255,132.529z"/>
		</g>
	</g>
	<g display="inline">
		<g>
			<path fill="#508F7C" d="M281.104,131.441c0.299,4.85-1.01,9.762-0.059,14.566c0.946,4.778,5.816,5.922,10.021,5.753
				c4.369-0.175,8.854-2.312,10.766-6.351c2.005-4.233,1.172-9.771,0.398-14.188c-0.201-1.152-6.039,0.151-5.795,1.553
				c0.834,4.771,2.306,20.186-6.693,15.815c-5.809-2.819-2.54-13.782-2.846-18.702C286.837,128.898,281.006,129.889,281.104,131.441
				L281.104,131.441z"/>
		</g>
	</g>
	<g display="inline">
		<g>
			<path fill="#508F7C" d="M306.428,150.998c0,0.666,0,1.333,0,2c0,0.529,0.111,0.863,0.616,1.13
				c0.577,0.304,1.293,0.329,1.925,0.257c0.768-0.088,1.538-0.339,2.19-0.757c0.366-0.233,1.081-0.774,1.081-1.294
				c0-0.666,0-1.333,0-2c0-0.529-0.111-0.863-0.616-1.13c-0.577-0.304-1.293-0.329-1.925-0.257c-0.768,0.088-1.538,0.339-2.19,0.757
				C307.143,149.938,306.428,150.479,306.428,150.998L306.428,150.998z"/>
		</g>
	</g>
</g>
</svg>
