<?xml version="1.0" encoding="utf-8"?>
<!-- Generator: Adobe Illustrator 14.0.0, SVG Export Plug-In . SVG Version: 6.00 Build 43363)  -->
<!DOCTYPE svg PUBLIC "-//W3C//DTD SVG 1.1//EN" "http://www.w3.org/Graphics/SVG/1.1/DTD/svg11.dtd">
<svg version="1.1" id="Layer_1" xmlns="http://www.w3.org/2000/svg" xmlns:xlink="http://www.w3.org/1999/xlink" x="0px" y="0px"
	 width="200px" height="230px" viewBox="0 0 200 230" enable-background="new 0 0 200 230" xml:space="preserve">
<g id="Layer_1_1_" display="none">
	<g display="inline">
		<g>
			<path fill="#508F7C" d="M50.547,44.114c1.916,15.719,2.64,31.505,2.667,47.333c0.003,1.541,5.799,0.518,5.796-1.553
				c-0.027-15.829-0.751-31.615-2.667-47.333C56.137,40.868,50.306,42.134,50.547,44.114L50.547,44.114z"/>
		</g>
	</g>
	<g display="inline">
		<g>
			<path fill="#508F7C" d="M54.649,74.009c5.879-1.162,11.929-0.574,17.877-0.532c3.329,0.024,4.431-4.251,0.505-4.279
				c-6.547-0.047-12.987-0.477-19.456,0.801C49.907,70.724,51.055,74.719,54.649,74.009L54.649,74.009z"/>
		</g>
	</g>
	<g display="inline">
		<g>
			<path fill="#508F7C" d="M67.88,44.114c4.723,15.066,2.738,31.148,2.667,46.667c-0.006,1.45,5.787,0.465,5.796-1.553
				c0.071-15.519,2.056-31.601-2.667-46.667C73.125,40.804,67.357,42.444,67.88,44.114L67.88,44.114z"/>
		</g>
	</g>
	<g display="inline">
		<g>
			<path fill="#508F7C" d="M78.354,84.449c4.752,0.452,14.75-0.076,14.789-6.931c0.03-5.236-5.566-6.462-9.586-5.028
				c-6.926,2.471-8.005,11.238-2.621,15.56c5.854,4.698,14.728,4.631,21.009,0.949c3.387-1.985-1.641-3.176-3.667-1.988
				c-6.535,3.831-19.916-3.165-13.263-10.965c1.156-1.355,1.123-0.596,0.079-0.75c0.311,0.046,0.611,0.218,0.854,0.413
				c0.791,0.634,1.164,1.524,1.349,2.49c0.693,3.624-4.819,2.881-6.761,2.696C78.136,80.665,74.434,84.076,78.354,84.449
				L78.354,84.449z"/>
		</g>
	</g>
	<g display="inline">
		<g>
			<path fill="#508F7C" d="M102.547,42.78c2.7,16.72,3.331,33.833,1.334,50.667c-0.099,0.833,5.581,0.26,5.796-1.553
				c1.997-16.834,1.365-33.947-1.334-50.667C108.137,39.952,102.298,41.239,102.547,42.78L102.547,42.78z"/>
		</g>
	</g>
	<g display="inline">
		<g>
			<path fill="#508F7C" d="M111.214,45.447c5.25,15.062,5.327,31.135,5.329,46.903c0,2.504,5.805,1.282,5.805-0.693
				c-0.002-16.048,0.008-32.43-5.338-47.763C116.273,41.784,110.518,43.45,111.214,45.447L111.214,45.447z"/>
		</g>
	</g>
	<g display="inline">
		<g>
			<path fill="#508F7C" d="M132.988,71.557c-9.199,3.302-8.41,17.433,1.889,18.043c12.191,0.723,13.266-15.897,4.219-20.958
				c-1.574-0.881-6.938,1.434-4.634,2.723c2.692,1.507,4.013,4.388,4.662,7.283c0.339,1.512,0.638,7.728-1.956,7.804
				c-5.596,0.164-6.717-10.95-1.934-12.667c0.646-0.232,2.479-1.327,1.574-2.227C135.881,70.637,134.014,71.189,132.988,71.557
				L132.988,71.557z"/>
		</g>
	</g>
	<g display="inline">
		<g>
			<path fill="#508F7C" d="M149.214,90.78c-0.026,2.186-0.515,4.183-2.378,5.495c-1.105,0.779,0.982,0.838,1.329,0.803
				c1.356-0.141,2.767-0.555,3.89-1.346c2.219-1.563,2.924-3.888,2.955-6.505C155.02,88.476,149.232,89.224,149.214,90.78
				L149.214,90.78z"/>
		</g>
	</g>
	<g display="inline">
		<g>
			<path fill="#508F7C" d="M159.881,73.447c1.378,5.989,3.074,11.9,6,17.333c0.812,1.508,4.238,0.382,5.176-0.473
				c3.322-3.033,4.969-6.591,6.604-10.731c-1.862,0.499-3.728,0.998-5.591,1.498c2.605,3.426,4.756,7.116,8,10
				c1.34,1.188,4.861-0.07,5.591-1.498c3.29-6.454,3.993-13.644,5.332-20.667c0.354-1.869-5.437-0.858-5.763,0.856
				c-1.336,7.023-2.041,14.212-5.332,20.667c1.863-0.499,3.729-0.998,5.588-1.498c-3.243-2.884-5.391-6.574-8-10
				c-1.021-1.339-5.07,0.193-5.588,1.498c-1.35,3.414-2.604,6.722-5.396,9.269c1.727-0.158,3.45-0.315,5.175-0.473
				c-2.926-5.434-4.62-11.345-6-17.333C165.287,70.201,159.475,71.678,159.881,73.447L159.881,73.447z"/>
		</g>
	</g>
	<g display="inline">
		<g>
			<path fill="#508F7C" d="M195.818,70.311c-7.444,5.118-10.324,23.231,3.18,20.273c8.791-1.925,12.21-17.765,3.441-21.9
				c-1.558-0.732-6.896,1.584-4.656,2.64c4.898,2.311,5.219,13.819,0.711,16.697c-0.529,0.338-2.688-2.385-2.936-2.904
				c-0.75-1.578-0.604-3.479-0.328-5.141c0.543-3.338,2.342-6.998,5.174-8.944c1.014-0.697,0.604-1.647-0.487-1.819
				C198.48,68.986,196.986,69.507,195.818,70.311L195.818,70.311z"/>
		</g>
	</g>
	<g display="inline">
		<g>
			<path fill="#508F7C" d="M208.548,70.114c0.095,6.472,1.238,12.862,1.334,19.333c0.021,1.499,5.696,0.406,5.779-1.199
				c0.233-4.54-4.955-18.228,1.997-18.855c2.658-0.24,4.953-3.144,0.906-2.778c-4.35,0.392-9.193,2.026-10.164,6.792
				c-1.053,5.157,1.765,10.489,1.496,15.688c1.928-0.4,3.854-0.8,5.775-1.199c-0.095-6.472-1.234-12.862-1.334-19.333
				C214.32,67.073,208.518,68.1,208.548,70.114L208.548,70.114z"/>
		</g>
	</g>
	<g display="inline">
		<g>
			<path fill="#508F7C" d="M227.9,41.106c-1.373,16.941-3.32,34.09-0.688,51.007c0.247,1.592,6.08,0.276,5.795-1.553
				c-2.6-16.703-0.708-33.598,0.647-50.326C233.816,38.268,228.033,39.478,227.9,41.106L227.9,41.106z"/>
		</g>
	</g>
	<g display="inline">
		<g>
			<path fill="#508F7C" d="M256.343,73.228c-1.571-9.889-13.002-6.081-17.2-0.041c-5.74,8.257,1.322,17.264,10.778,15.068
				c8.58-1.993,8.569-13.844,8.769-20.741c0.264-8.991-0.562-18.039-1.681-26.953c-0.159-1.275-5.999-0.076-5.795,1.553
				c1.534,12.251,3.132,25.543,0.577,37.735c-0.462,2.206-1.229,5.234-3.127,6.678c1.07-0.814,1.814-0.147,0.332-0.552
				c-0.947-0.258-1.816-0.771-2.667-1.245c-1.831-1.019-3.037-2.673-3.597-4.659c-0.863-3.065,0.896-6.433,2.841-8.678
				c2.907-3.359,4.393-0.271,4.975,3.388C250.757,76.098,256.596,74.812,256.343,73.228L256.343,73.228z"/>
		</g>
	</g>
	<g display="inline">
		<g>
			<path fill="#508F7C" d="M264.548,43.447c0.093,12.72,1.901,25.319,2.666,38c0.07,1.166,5.897,0.137,5.795-1.553
				c-0.764-12.681-2.573-25.281-2.666-38C270.335,40.812,264.535,41.704,264.548,43.447L264.548,43.447z"/>
		</g>
	</g>
	<g display="inline">
		<g>
			<path fill="#508F7C" d="M267.174,89.553c0.051,0.769,0.184,1.461,0.754,2.031c0.689,0.688,1.524,1.144,2.521,1.209
				c1.402,0.092,3.117-0.397,3.771-1.781c0.598-1.268-0.529-2.382-1.773-2.464c-0.271-0.024-0.18,0.002,0.275,0.082
				c0.348,0.196,0.411,0.223,0.195,0.082c0.239,0.25,0.277,0.283,0.122,0.102c-0.062-0.074-0.104-0.153-0.146-0.236
				c0.082,0.168,0.164,0.336,0.246,0.505c-0.06-0.13-0.097-0.248-0.121-0.388c0.016,0.187,0.023,0.374,0.039,0.561
				c-0.002-0.044-0.009-0.089-0.011-0.133c-0.042-0.63-0.147-1.081-0.704-1.466c-0.566-0.394-1.306-0.507-1.979-0.457
				c-0.775,0.057-1.559,0.33-2.182,0.8C267.771,88.311,267.136,88.965,267.174,89.553L267.174,89.553z"/>
		</g>
	</g>
	<g display="inline">
		<g>
			<path fill="#508F7C" d="M80.538,106.323c-0.661,17.825-1.357,35.669-4,53.333c-0.369,2.464,5.496,1.475,5.814-0.654
				c2.643-17.664,3.339-35.508,4-53.333C86.448,103.096,80.616,104.229,80.538,106.323L80.538,106.323z"/>
		</g>
	</g>
	<g display="inline">
		<g>
			<path fill="#508F7C" d="M86.547,124.105c1.091,2.275,2.103,5.229,1.383,7.771c-0.254,0.896,1.906,0.462,2.274,0.392
				c0.713-0.137,3.166-0.58,3.422-1.48c0.784-2.77-0.081-5.721-1.284-8.229C91.733,121.277,86.178,123.333,86.547,124.105
				L86.547,124.105z"/>
		</g>
	</g>
	<g display="inline">
		<g>
			<path fill="#508F7C" d="M96.54,136.331c0.054,5.962,0.679,11.854,1.341,17.774c1.932-0.521,3.864-1.035,5.796-1.558
				c-0.569-3.379-0.877-7.241,0.993-10.299c0.663-1.082-1.579-0.435-0.675,0.411c0.56,0.521,0.899,1.256,1.211,1.935
				c0.88,1.905,1.122,4.111,1.342,6.177c0.235,2.205,5.406,0.537,5.804-1.11c0.85-3.517,1.293-9.837,4.937-11.703
				c-1.286-0.045-2.571-0.089-3.854-0.133c2.982,4.685,2.553,10.306,3.116,15.612c0.224,2.082,6.043,0.769,5.798-1.557
				c-0.613-5.742-0.328-11.332-3.55-16.387c-0.664-1.043-3.021-0.562-3.854-0.135c-6.004,3.076-6.938,8.896-8.398,14.967
				c1.936-0.371,3.869-0.741,5.803-1.111c-0.559-5.236-2.39-11.773-8.947-10.188c-6.453,1.562-6.371,9.992-5.515,15.078
				c0.362,2.146,6.05,0.709,5.796-1.556c-0.627-5.618-1.275-11.229-1.326-16.894C102.327,133.096,96.521,134.302,96.54,136.331
				L96.54,136.331z"/>
		</g>
	</g>
	<g display="inline">
		<g>
			<path fill="#508F7C" d="M148.547,119.771c0.71,14.311,2.045,28.566,4.667,42.666c0.271,1.457,6.103,0.092,5.796-1.557
				c-2.621-14.096-3.957-28.354-4.667-42.666C154.279,116.936,148.458,117.971,148.547,119.771L148.547,119.771z"/>
		</g>
	</g>
	<g display="inline">
		<g>
			<path fill="#508F7C" d="M148.527,121.213c5.686-1.094,11.373-2.57,17.203-2.361c7.109,0.254,10.547,5.656,11.485,12.162
				c1.931,13.334-13.505,22.926-22.927,29.035c-3.301,2.141,1.693,3.157,3.645,1.895c11.58-7.508,27.188-17.883,24.896-33.762
				c-2.558-17.683-23.208-12.365-35.132-10.07C144.105,118.803,145.027,121.887,148.527,121.213L148.527,121.213z"/>
		</g>
	</g>
	<g display="inline">
		<g>
			<path fill="#508F7C" d="M189.091,136.545c-3.581,1.582-6.139,4.697-5.374,8.768c0.827,4.405,5.648,5.897,9.549,5.562
				c3.728-0.326,7.94-2.117,7.889-6.368c-0.047-3.734-3.359-6.895-6.672-8.002c-1.217-0.406-2.976,0.186-4.06,0.712
				c-0.581,0.286-1.919,1.198-0.682,1.614c2.304,0.771,4.021,2.542,5.015,4.729c0.416,0.91,0.596,1.906,0.607,2.902
				c0.007,0.546-0.176,1.061-0.389,1.549c-0.406,0.938-1.104,0.562,0.229,0.441c-5.924,0.52-8.008-8.676-2.736-10.999
				c0.536-0.237,1.961-1.274,0.682-1.614C191.834,135.482,190.279,136.021,189.091,136.545L189.091,136.545z"/>
		</g>
	</g>
	<g display="inline">
		<g>
			<path fill="#508F7C" d="M203.882,135.105c0.666,6.666,1.332,13.334,2,20c1.933-0.521,3.863-1.035,5.795-1.558
				c-2.294-7.341-1.223-13.938,6.83-16.415c3.423-1.051,2.677-4.017-0.791-2.947c-4.435,1.358-8.653,3.344-11.327,7.289
				c-2.723,4.016-1.854,9.316-0.507,13.631c0.649,2.08,6.007,0.562,5.795-1.558c-0.667-6.667-1.334-13.333-2-20
				C209.48,131.593,203.658,132.873,203.882,135.105L203.882,135.105z"/>
		</g>
	</g>
	<g display="inline">
		<g>
			<path fill="#508F7C" d="M237.145,131.666c-4.766-0.762-10.709-0.191-13.326,4.473c-1.819,3.247-0.658,7.422,1.054,10.438
				c1.832,3.225,5.471,5.199,9.054,3.396c5.104-2.574,4.614-10.52,4.451-15.229c-1.938,0.344-3.883,0.688-5.824,1.028
				c0.694,4.535,2.094,8.791,4.901,12.469c1.506,1.968,7.051-0.229,5.319-2.484c-2.608-3.415-3.785-7.331-4.431-11.531
				c-0.36-2.363-5.899-1.156-5.823,1.028c0.114,3.308,0.6,9.45-1.625,11.884c0.153-0.169,0.852-0.496,1.631-0.479
				c-0.096-0.006,0.113,0.094-0.354-0.208c-0.656-0.425-1.427-1.445-1.979-2.361c-1.176-1.965-1.711-4.499-1.158-6.733
				c0.258-1.049,0.91-1.494,1.367-1.709c0.834-0.395,3.149-0.229,4.682,0.019C237.786,136.091,241.034,132.288,237.145,131.666
				L237.145,131.666z"/>
		</g>
	</g>
	<g display="inline">
		<g>
			<path fill="#508F7C" d="M247.882,148.438c0.468,0.965,0.658,1.938,0.658,2.896c0.001,1.322,1.474,1.491,2.536,1.368
				c0.768-0.091,1.537-0.343,2.191-0.757c0.357-0.229,1.082-0.771,1.082-1.283c0-1.371-0.067-2.525-0.678-3.773
				c-0.57-1.188-2.229-1.062-3.312-0.773c-0.694,0.188-1.396,0.506-1.928,1.004C248.152,147.379,247.664,147.99,247.882,148.438
				L247.882,148.438z"/>
		</g>
	</g>
</g>
<path fill="#FFFFFF" d="M36.668,176.646l-1.123-4.623h-5.694l-1.175,4.623h-1.854l4.701-18.489h2.481l4.57,18.489H36.668z
	 M32.776,159.8h-0.104l-2.56,10.761h5.171L32.776,159.8z"/>
<path fill="#FFFFFF" d="M49.105,176.646l-6.432-15.383h-0.078v15.383H40.87v-18.489h2.272l6.397,15.383h0.078v-15.383h1.672v18.489
	H49.105z"/>
<path fill="#FFFFFF" d="M66.204,167.427c0,1.515-0.155,2.847-0.47,3.995c-0.312,1.148-0.768,2.111-1.357,2.887
	c-0.593,0.773-1.303,1.357-2.129,1.75c-0.826,0.395-1.746,0.588-2.756,0.588h-3.97v-18.489h3.996c1.01,0,1.928,0.194,2.755,0.589
	c0.826,0.391,1.531,0.979,2.115,1.762s1.031,1.756,1.346,2.912C66.049,164.577,66.204,165.912,66.204,167.427z M64.402,167.427
	c0-1.312-0.127-2.45-0.379-3.421c-0.252-0.969-0.602-1.77-1.045-2.396c-0.443-0.629-0.967-1.101-1.566-1.414
	c-0.6-0.312-1.25-0.473-1.945-0.473h-2.142v15.355h2.142c0.695,0,1.346-0.158,1.945-0.473c0.599-0.315,1.123-0.785,1.566-1.416
	c0.443-0.629,0.793-1.424,1.045-2.385C64.275,169.848,64.402,168.721,64.402,167.427z"/>
<path fill="#FFFFFF" d="M74.483,176.646v-18.489h1.828v18.489H74.483z"/>
<path fill="#FFFFFF" d="M80.883,164.371h-1.307l1.098-6.215h1.541L80.883,164.371z"/>
<path fill="#FFFFFF" d="M96.16,167.427c0,1.515-0.156,2.847-0.47,3.995c-0.313,1.148-0.767,2.111-1.358,2.887
	c-0.591,0.774-1.302,1.357-2.128,1.75c-0.827,0.395-1.745,0.588-2.756,0.588h-3.97v-18.489h3.996c1.01,0,1.928,0.194,2.755,0.589
	c0.827,0.391,1.532,0.979,2.116,1.762c0.582,0.783,1.031,1.756,1.345,2.912C96.004,164.577,96.16,165.912,96.16,167.427z
	 M94.358,167.427c0-1.312-0.127-2.45-0.379-3.421c-0.252-0.969-0.601-1.77-1.046-2.396c-0.442-0.629-0.965-1.101-1.565-1.414
	c-0.6-0.312-1.25-0.473-1.946-0.473h-2.141v15.355h2.141c0.696,0,1.347-0.158,1.946-0.473c0.601-0.314,1.123-0.785,1.565-1.416
	c0.445-0.629,0.794-1.424,1.046-2.385C94.231,169.848,94.358,168.721,94.358,167.427z"/>
<path fill="#FFFFFF" d="M104.438,176.646v-18.489h1.828v16.793h5.274v1.696H104.438z"/>
<path fill="#FFFFFF" d="M113.762,176.646v-18.489h1.828v18.489H113.762z"/>
<path fill="#FFFFFF" d="M127.812,176.646l-6.164-9.479h-0.025v9.479h-1.803v-18.489h1.803v8.305h0.025l5.797-8.305h2.117
	l-6.217,8.538l6.658,9.951H127.812z"/>
<path fill="#FFFFFF" d="M132.409,176.646v-18.489h7.442v1.618h-5.666v6.478h5.301v1.565h-5.301V175h5.928v1.646H132.409
	L132.409,176.646z"/>
<path fill="#FFFFFF" d="M150.77,159.723v16.924h-1.803v-16.924h-3.553v-1.564h8.932v1.564H150.77z"/>
<path fill="#FFFFFF" d="M167.59,167.373c0,1.445-0.141,2.766-0.418,3.957s-0.68,2.215-1.201,3.068
	c-0.521,0.853-1.158,1.516-1.906,1.982c-0.748,0.473-1.604,0.705-2.561,0.705s-1.814-0.232-2.572-0.705
	c-0.758-0.471-1.399-1.131-1.934-1.982c-0.531-0.854-0.936-1.877-1.214-3.068s-0.418-2.512-0.418-3.957
	c0-1.428,0.136-2.737,0.403-3.932c0.271-1.191,0.666-2.211,1.188-3.057c0.521-0.844,1.161-1.502,1.92-1.973
	c0.756-0.471,1.631-0.705,2.625-0.705c0.957,0,1.812,0.234,2.561,0.705s1.385,1.129,1.904,1.973
	c0.521,0.846,0.926,1.863,1.201,3.057C167.448,164.636,167.59,165.945,167.59,167.373z M165.682,167.373
	c0-1.112-0.088-2.158-0.262-3.133c-0.174-0.977-0.438-1.82-0.797-2.535c-0.355-0.713-0.796-1.278-1.318-1.696
	c-0.521-0.419-1.123-0.628-1.801-0.628c-0.716,0-1.338,0.209-1.869,0.628c-0.529,0.418-0.971,0.983-1.316,1.696
	c-0.35,0.715-0.607,1.561-0.782,2.535c-0.177,0.975-0.263,2.021-0.263,3.133c0,1.115,0.086,2.16,0.263,3.136
	c0.175,0.976,0.437,1.827,0.782,2.56c0.349,0.731,0.787,1.309,1.316,1.725c0.531,0.418,1.153,0.627,1.869,0.627
	c0.695,0,1.307-0.209,1.828-0.627c0.521-0.416,0.956-0.991,1.305-1.725c0.35-0.729,0.609-1.584,0.783-2.56
	S165.682,168.49,165.682,167.373z"/>
<path fill="#FFFFFF" d="M34.904,201.391h-2.402l-3.03-15.826H29.42l-3.004,15.826h-2.402l-3.63-18.49h1.854l3.03,16.166h0.052
	l3.082-16.166h2.193l3.135,16.166h0.052l3.004-16.166h1.775L34.904,201.391z"/>
<path fill="#FFFFFF" d="M52.508,192.119c0,1.445-0.141,2.766-0.418,3.957c-0.278,1.193-0.68,2.217-1.201,3.068
	c-0.522,0.854-1.158,1.516-1.906,1.982c-0.749,0.473-1.604,0.705-2.561,0.705s-1.814-0.232-2.572-0.705
	c-0.758-0.469-1.401-1.131-1.934-1.982c-0.531-0.854-0.936-1.875-1.214-3.068c-0.279-1.191-0.418-2.512-0.418-3.957
	c0-1.428,0.135-2.736,0.404-3.93c0.271-1.193,0.666-2.211,1.188-3.059c0.521-0.844,1.161-1.502,1.92-1.971
	c0.756-0.473,1.631-0.705,2.625-0.705c0.957,0,1.811,0.232,2.56,0.705c0.748,0.469,1.384,1.127,1.905,1.971
	c0.522,0.848,0.924,1.863,1.201,3.059C52.367,189.381,52.508,190.691,52.508,192.119z M50.6,192.119
	c0-1.113-0.088-2.158-0.262-3.133c-0.174-0.978-0.438-1.82-0.797-2.533c-0.355-0.715-0.796-1.279-1.318-1.697
	c-0.521-0.418-1.123-0.627-1.801-0.627c-0.715,0-1.338,0.209-1.869,0.627c-0.53,0.418-0.971,0.982-1.317,1.697
	c-0.349,0.713-0.608,1.559-0.783,2.533c-0.175,0.974-0.262,2.02-0.262,3.133c0,1.115,0.087,2.16,0.262,3.135
	c0.175,0.977,0.435,1.828,0.783,2.561c0.348,0.731,0.787,1.309,1.317,1.727c0.531,0.418,1.154,0.627,1.869,0.627
	c0.695,0,1.306-0.209,1.828-0.627c0.521-0.418,0.957-0.992,1.305-1.727c0.349-0.729,0.609-1.584,0.783-2.561
	C50.512,194.279,50.6,193.234,50.6,192.119z"/>
<path fill="#FFFFFF" d="M63.475,201.391l-3.342-8.564h-2.377v8.564h-1.803V182.9h4.44c0.608,0,1.196,0.082,1.763,0.248
	c0.564,0.166,1.07,0.438,1.516,0.822c0.443,0.383,0.801,0.889,1.069,1.516c0.271,0.627,0.405,1.393,0.405,2.299
	c0,0.783-0.102,1.457-0.301,2.023c-0.2,0.564-0.461,1.041-0.783,1.424s-0.68,0.678-1.07,0.887c-0.393,0.209-0.779,0.34-1.162,0.395
	l3.604,8.879L63.475,201.391L63.475,201.391z M63.371,187.875c0-0.658-0.091-1.209-0.273-1.65c-0.184-0.441-0.428-0.793-0.73-1.055
	c-0.305-0.26-0.652-0.441-1.045-0.547c-0.393-0.104-0.797-0.156-1.215-0.156h-2.35v6.922h2.429c0.991,0,1.771-0.309,2.337-0.924
	S63.371,188.986,63.371,187.875z"/>
<path fill="#FFFFFF" d="M76.379,201.391l-6.164-9.479H70.19v9.479h-1.803V182.9h1.803v8.305h0.025l5.797-8.305h2.117l-6.217,8.539
	l6.659,9.951H76.379L76.379,201.391z"/>
<path fill="#FFFFFF" d="M98.028,201.391h-2.401l-3.031-15.826h-0.051l-3.004,15.826h-2.402l-3.631-18.49h1.854l3.03,16.166h0.052
	l3.082-16.166h2.192l3.136,16.166h0.052L99.91,182.9h1.775L98.028,201.391z"/>
<path fill="#FFFFFF" d="M104.191,201.391V182.9h1.828v18.49H104.191L104.191,201.391z"/>
<path fill="#FFFFFF" d="M113.488,184.467v16.924h-1.803v-16.924h-3.553V182.9h8.934v1.564L113.488,184.467L113.488,184.467z"/>
<path fill="#FFFFFF" d="M128.088,201.391v-8.773h-7.078v8.773h-1.828V182.9h1.828v8.096h7.078V182.9h1.828v18.49H128.088
	L128.088,201.391z"/>
<path fill="#FFFFFF" d="M142.607,193.791v7.6h-1.773v-7.6l-4.598-10.893h1.984l3.5,9.012l3.576-9.012h1.959L142.607,193.791z"/>
<path fill="#FFFFFF" d="M160.5,192.119c0,1.445-0.141,2.766-0.418,3.957c-0.279,1.193-0.68,2.217-1.201,3.068
	c-0.521,0.854-1.158,1.516-1.906,1.982c-0.75,0.473-1.604,0.705-2.561,0.705s-1.814-0.232-2.572-0.705
	c-0.758-0.469-1.4-1.131-1.934-1.982c-0.531-0.854-0.936-1.875-1.215-3.068c-0.277-1.191-0.418-2.512-0.418-3.957
	c0-1.428,0.136-2.736,0.404-3.93c0.271-1.193,0.664-2.211,1.188-3.059c0.521-0.844,1.162-1.502,1.92-1.971
	c0.757-0.473,1.632-0.705,2.625-0.705c0.957,0,1.812,0.232,2.561,0.705c0.748,0.469,1.385,1.127,1.905,1.971
	c0.522,0.848,0.924,1.863,1.201,3.059C160.359,189.381,160.5,190.691,160.5,192.119z M158.592,192.119
	c0-1.113-0.088-2.158-0.262-3.133c-0.174-0.978-0.439-1.82-0.797-2.533c-0.355-0.715-0.797-1.279-1.318-1.697
	s-1.123-0.627-1.802-0.627c-0.715,0-1.337,0.209-1.868,0.627s-0.971,0.982-1.316,1.697c-0.35,0.713-0.608,1.559-0.783,2.533
	c-0.176,0.975-0.264,2.02-0.264,3.133c0,1.115,0.088,2.16,0.264,3.135c0.175,0.977,0.436,1.828,0.783,2.561
	c0.349,0.73,0.785,1.309,1.316,1.727s1.153,0.627,1.868,0.627c0.696,0,1.306-0.209,1.828-0.627s0.957-0.992,1.306-1.727
	c0.35-0.729,0.609-1.584,0.783-2.561C158.504,194.279,158.592,193.234,158.592,192.119z"/>
<path fill="#FFFFFF" d="M174.014,197.617c-0.182,0.846-0.479,1.58-0.887,2.207c-0.41,0.627-0.955,1.119-1.634,1.477
	c-0.679,0.358-1.515,0.535-2.507,0.535c-0.993,0-1.824-0.18-2.494-0.535c-0.672-0.355-1.211-0.85-1.619-1.477
	c-0.41-0.627-0.701-1.361-0.875-2.207c-0.175-0.844-0.262-1.744-0.262-2.703V182.9h1.828v11.779c0,0.678,0.047,1.35,0.145,2.01
	c0.096,0.662,0.271,1.25,0.521,1.764c0.252,0.515,0.602,0.928,1.045,1.24c0.441,0.312,1.021,0.471,1.736,0.471
	c0.693,0,1.271-0.156,1.725-0.471c0.451-0.312,0.805-0.729,1.059-1.24c0.252-0.514,0.426-1.098,0.521-1.75
	c0.095-0.651,0.145-1.328,0.145-2.021v-11.779h1.827v12.016C174.289,195.873,174.197,196.773,174.014,197.617z"/>
<path fill="#FFFFFF" d="M179.616,200.268c0,0.385-0.116,0.697-0.353,0.941c-0.234,0.242-0.527,0.365-0.875,0.365
	c-0.352,0-0.639-0.123-0.861-0.365c-0.229-0.244-0.34-0.559-0.34-0.941c0-0.348,0.111-0.65,0.34-0.914
	c0.227-0.261,0.514-0.391,0.861-0.391c0.346,0,0.641,0.13,0.875,0.391C179.5,199.615,179.616,199.92,179.616,200.268z"/>
</svg>
