<?xml version="1.0" encoding="utf-8"?>
<!-- Generator: Adobe Illustrator 14.0.0, SVG Export Plug-In . SVG Version: 6.00 Build 43363)  -->
<!DOCTYPE svg PUBLIC "-//W3C//DTD SVG 1.1//EN" "http://www.w3.org/Graphics/SVG/1.1/DTD/svg11.dtd">
<svg version="1.1" id="Layer_2_1_" xmlns="http://www.w3.org/2000/svg" xmlns:xlink="http://www.w3.org/1999/xlink" x="0px" y="0px"
	 width="200px" height="100px" viewBox="0 0 200 100" enable-background="new 0 0 200 100" xml:space="preserve">
<g>
	<path fill="#FFFFFF" d="M30.884,80.321v-9.966h-8.038v9.966h-2.078V59.319h2.078v9.195h8.038v-9.195h2.076v21.002H30.884
		L30.884,80.321z"/>
	<path fill="#FFFFFF" d="M37.763,80.321V59.319h8.454v1.84h-6.435v7.355h6.022v1.782h-6.022v8.159h6.733v1.865H37.763L37.763,80.321
		z"/>
	<path fill="#FFFFFF" d="M50.162,80.321V59.319h2.079v19.069h5.991v1.933H50.162L50.162,80.321z"/>
	<path fill="#FFFFFF" d="M60.754,80.321V59.319h2.076v19.069h5.995v1.933H60.754L60.754,80.321z"/>
	<path fill="#FFFFFF" d="M83.449,69.794c0,1.638-0.16,3.139-0.477,4.492c-0.316,1.354-0.771,2.519-1.364,3.488
		c-0.595,0.965-1.316,1.717-2.165,2.252c-0.85,0.532-1.821,0.803-2.907,0.803c-1.088,0-2.062-0.271-2.923-0.803
		c-0.859-0.535-1.593-1.283-2.194-2.252c-0.605-0.971-1.062-2.135-1.38-3.488c-0.32-1.354-0.472-2.853-0.472-4.492
		c0-1.625,0.152-3.115,0.457-4.469c0.309-1.354,0.755-2.515,1.352-3.475c0.593-0.958,1.319-1.705,2.179-2.236
		c0.86-0.535,1.854-0.8,2.982-0.8c1.088,0,2.058,0.265,2.906,0.8c0.852,0.531,1.574,1.277,2.166,2.236
		c0.594,0.96,1.049,2.118,1.363,3.475C83.289,66.678,83.449,68.167,83.449,69.794z M81.282,69.794c0-1.271-0.104-2.452-0.297-3.562
		c-0.197-1.105-0.502-2.066-0.907-2.879c-0.408-0.81-0.905-1.455-1.497-1.926c-0.593-0.48-1.273-0.715-2.048-0.715
		c-0.809,0-1.52,0.234-2.122,0.715c-0.602,0.471-1.104,1.118-1.495,1.926c-0.396,0.811-0.693,1.771-0.889,2.879
		c-0.198,1.108-0.296,2.293-0.296,3.562c0,1.262,0.098,2.447,0.296,3.558c0.195,1.109,0.493,2.082,0.889,2.907
		c0.393,0.829,0.894,1.484,1.495,1.955c0.603,0.475,1.313,0.713,2.122,0.713c0.791,0,1.482-0.238,2.074-0.713
		c0.596-0.473,1.087-1.126,1.483-1.955c0.396-0.828,0.694-1.798,0.894-2.907C81.181,72.241,81.282,71.054,81.282,69.794z"/>
	<path fill="#FFFFFF" d="M86.147,84.208h-1.604l1.723-7.357h1.958L86.147,84.208z"/>
	<path fill="#FFFFFF" d="M111.213,80.321h-2.732l-3.443-17.977h-0.055l-3.407,17.977h-2.731l-4.12-21.002h2.102l3.441,18.366h0.062
		l3.497-18.366h2.492l3.561,18.366h0.062l3.406-18.366h2.014L111.213,80.321z"/>
	<path fill="#FFFFFF" d="M131.204,69.794c0,1.638-0.151,3.139-0.472,4.492c-0.314,1.354-0.771,2.519-1.365,3.488
		c-0.592,0.965-1.315,1.717-2.163,2.252c-0.849,0.532-1.82,0.803-2.91,0.803c-1.087,0-2.06-0.271-2.922-0.803
		c-0.86-0.535-1.59-1.283-2.195-2.252c-0.602-0.971-1.061-2.135-1.378-3.488c-0.318-1.354-0.476-2.853-0.476-4.492
		c0-1.625,0.151-3.115,0.456-4.469c0.311-1.354,0.758-2.515,1.351-3.475c0.599-0.958,1.325-1.705,2.187-2.236
		c0.86-0.533,1.854-0.8,2.979-0.8c1.09,0,2.057,0.265,2.906,0.8c0.854,0.531,1.578,1.277,2.166,2.236
		c0.594,0.96,1.052,2.118,1.363,3.475C131.051,66.678,131.204,68.167,131.204,69.794z M129.04,69.794
		c0-1.271-0.097-2.452-0.295-3.562c-0.195-1.105-0.498-2.066-0.904-2.879c-0.405-0.81-0.905-1.455-1.498-1.926
		c-0.591-0.48-1.271-0.715-2.049-0.715c-0.808,0-1.517,0.234-2.12,0.715c-0.599,0.471-1.104,1.118-1.494,1.926
		c-0.395,0.811-0.693,1.771-0.89,2.879c-0.201,1.108-0.299,2.293-0.299,3.562c0,1.262,0.098,2.447,0.299,3.558
		c0.194,1.109,0.495,2.082,0.89,2.907c0.391,0.829,0.896,1.484,1.494,1.955c0.604,0.475,1.312,0.713,2.12,0.713
		c0.791,0,1.483-0.238,2.081-0.713c0.594-0.473,1.084-1.126,1.48-1.955c0.398-0.828,0.694-1.798,0.893-2.907
		C128.943,72.241,129.04,71.054,129.04,69.794z"/>
	<path fill="#FFFFFF" d="M143.665,80.321l-3.796-9.729h-2.702v9.729h-2.046V59.319h5.045c0.689,0,1.357,0.096,2.001,0.28
		c0.642,0.188,1.215,0.503,1.722,0.938c0.502,0.434,0.908,1.013,1.217,1.721c0.307,0.714,0.457,1.582,0.457,2.613
		c0,0.884-0.113,1.65-0.34,2.296c-0.225,0.645-0.522,1.183-0.891,1.616c-0.365,0.438-0.771,0.772-1.219,1.014
		c-0.441,0.232-0.889,0.381-1.32,0.441l4.096,10.084h-2.224V80.321L143.665,80.321z M143.548,64.968
		c0-0.744-0.104-1.374-0.312-1.877c-0.205-0.5-0.487-0.9-0.83-1.195c-0.346-0.295-0.744-0.499-1.188-0.621
		c-0.44-0.117-0.905-0.177-1.376-0.177h-2.675v7.86h2.761c1.127,0,2.012-0.348,2.657-1.049
		C143.227,67.208,143.548,66.231,143.548,64.968z"/>
	<path fill="#FFFFFF" d="M149.241,80.321V59.319h2.079v19.069h5.988v1.933H149.241L149.241,80.321z"/>
	<path fill="#FFFFFF" d="M171.963,69.848c0,1.72-0.18,3.233-0.529,4.543c-0.358,1.306-0.875,2.396-1.545,3.274
		c-0.671,0.885-1.479,1.543-2.418,1.988c-0.937,0.443-1.98,0.668-3.127,0.668h-4.511V59.319h4.538c1.146,0,2.189,0.223,3.13,0.67
		c0.938,0.438,1.739,1.111,2.405,2c0.66,0.89,1.17,1.991,1.527,3.307C171.785,66.608,171.963,68.126,171.963,69.848z M169.92,69.848
		c0-1.485-0.146-2.784-0.434-3.88c-0.286-1.104-0.684-2.012-1.187-2.727c-0.505-0.717-1.099-1.25-1.778-1.605
		c-0.688-0.359-1.42-0.537-2.213-0.537h-2.43v17.443h2.43c0.795,0,1.528-0.184,2.215-0.539c0.681-0.355,1.271-0.897,1.779-1.611
		c0.5-0.706,0.896-1.607,1.187-2.704C169.773,72.598,169.92,71.315,169.92,69.848z"/>
	<path fill="#FFFFFF" d="M179.232,79.044c0,0.41-0.133,0.766-0.401,1.054c-0.267,0.291-0.597,0.435-0.992,0.435
		c-0.397,0-0.728-0.142-0.983-0.435c-0.256-0.284-0.379-0.64-0.379-1.054c0-0.416,0.123-0.766,0.379-1.055
		c0.256-0.283,0.586-0.435,0.983-0.435c0.396,0,0.726,0.149,0.992,0.435C179.1,78.28,179.232,78.63,179.232,79.044z M176.855,74.062
		V59.319h1.961v14.743H176.855z"/>
</g>
</svg>
