<?xml version="1.0" encoding="utf-8"?>
<!-- Generator: Adobe Illustrator 14.0.0, SVG Export Plug-In . SVG Version: 6.00 Build 43363)  -->
<!DOCTYPE svg PUBLIC "-//W3C//DTD SVG 1.1//EN" "http://www.w3.org/Graphics/SVG/1.1/DTD/svg11.dtd">
<svg version="1.1" xmlns="http://www.w3.org/2000/svg" xmlns:xlink="http://www.w3.org/1999/xlink" x="0px" y="0px" width="180px"
	 height="120px" viewBox="10 -10 180 120" enable-background="new 10 -10 180 120" xml:space="preserve">
<g id="Layer_1">
	<g id="Layer_1_1_" display="none">
		<g display="inline">
			<g>
				<path fill="#508F7C" d="M50.547,44.114c1.916,15.719,2.64,31.505,2.667,47.333c0.003,1.541,5.799,0.518,5.796-1.553
					c-0.027-15.83-0.751-31.615-2.667-47.333C56.137,40.868,50.306,42.134,50.547,44.114L50.547,44.114z"/>
			</g>
		</g>
		<g display="inline">
			<g>
				<path fill="#508F7C" d="M54.649,74.009c5.879-1.161,11.929-0.573,17.877-0.532c3.329,0.024,4.431-4.25,0.505-4.278
					c-6.547-0.048-12.987-0.478-19.456,0.801C49.907,70.725,51.055,74.719,54.649,74.009L54.649,74.009z"/>
			</g>
		</g>
		<g display="inline">
			<g>
				<path fill="#508F7C" d="M67.88,44.114c4.723,15.065,2.738,31.147,2.667,46.667c-0.006,1.449,5.787,0.465,5.796-1.553
					c0.071-15.52,2.056-31.602-2.667-46.667C73.125,40.804,67.357,42.444,67.88,44.114L67.88,44.114z"/>
			</g>
		</g>
		<g display="inline">
			<g>
				<path fill="#508F7C" d="M78.354,84.449c4.752,0.451,14.75-0.076,14.789-6.932c0.03-5.235-5.566-6.461-9.586-5.027
					c-6.926,2.471-8.005,11.238-2.621,15.56c5.854,4.698,14.728,4.632,21.009,0.949c3.387-1.985-1.641-3.176-3.667-1.988
					c-6.535,3.831-19.916-3.165-13.263-10.965c1.156-1.354,1.123-0.596,0.079-0.75c0.311,0.046,0.611,0.218,0.854,0.413
					c0.791,0.634,1.164,1.523,1.349,2.49c0.693,3.624-4.819,2.881-6.761,2.695C78.136,80.665,74.434,84.076,78.354,84.449
					L78.354,84.449z"/>
			</g>
		</g>
		<g display="inline">
			<g>
				<path fill="#508F7C" d="M102.547,42.78c2.7,16.72,3.331,33.833,1.334,50.667c-0.099,0.832,5.581,0.26,5.796-1.553
					c1.997-16.834,1.365-33.947-1.334-50.667C108.137,39.952,102.298,41.239,102.547,42.78L102.547,42.78z"/>
			</g>
		</g>
		<g display="inline">
			<g>
				<path fill="#508F7C" d="M111.214,45.447c5.25,15.062,5.327,31.135,5.329,46.903c0,2.504,5.805,1.282,5.805-0.692
					c-0.002-16.048,0.008-32.431-5.338-47.763C116.273,41.784,110.518,43.45,111.214,45.447L111.214,45.447z"/>
			</g>
		</g>
		<g display="inline">
			<g>
				<path fill="#508F7C" d="M132.988,71.557c-9.199,3.303-8.41,17.434,1.889,18.043c12.191,0.724,13.266-15.896,4.219-20.957
					c-1.574-0.882-6.938,1.434-4.634,2.723c2.692,1.507,4.013,4.388,4.662,7.283c0.339,1.512,0.638,7.728-1.956,7.804
					c-5.596,0.164-6.717-10.95-1.934-12.667c0.646-0.232,2.479-1.327,1.574-2.227C135.881,70.637,134.014,71.189,132.988,71.557
					L132.988,71.557z"/>
			</g>
		</g>
		<g display="inline">
			<g>
				<path fill="#508F7C" d="M149.214,90.779c-0.026,2.187-0.515,4.184-2.378,5.496c-1.105,0.779,0.982,0.838,1.329,0.803
					c1.356-0.141,2.767-0.555,3.89-1.346c2.219-1.563,2.924-3.889,2.955-6.506C155.02,88.477,149.232,89.225,149.214,90.779
					L149.214,90.779z"/>
			</g>
		</g>
		<g display="inline">
			<g>
				<path fill="#508F7C" d="M159.881,73.447c1.378,5.988,3.074,11.9,6,17.332c0.812,1.509,4.238,0.383,5.176-0.473
					c3.322-3.033,4.969-6.591,6.604-10.73c-1.862,0.499-3.728,0.998-5.591,1.498c2.604,3.426,4.756,7.115,8,10
					c1.34,1.188,4.861-0.07,5.591-1.498c3.29-6.454,3.993-13.645,5.332-20.667c0.354-1.869-5.437-0.858-5.763,0.856
					c-1.336,7.022-2.041,14.211-5.332,20.666c1.863-0.498,3.729-0.998,5.588-1.498c-3.243-2.884-5.391-6.574-8-10
					c-1.021-1.338-5.07,0.193-5.588,1.498c-1.354,3.414-2.604,6.723-5.396,9.27c1.727-0.158,3.45-0.315,5.175-0.473
					c-2.926-5.435-4.62-11.346-6-17.334C165.287,70.201,159.475,71.678,159.881,73.447L159.881,73.447z"/>
			</g>
		</g>
		<g display="inline">
			<g>
				<path fill="#508F7C" d="M195.818,70.311c-7.444,5.119-10.324,23.231,3.18,20.273c8.791-1.925,12.21-17.766,3.441-21.9
					c-1.562-0.731-6.896,1.584-4.656,2.641c4.898,2.311,5.219,13.818,0.711,16.697c-0.529,0.338-2.688-2.386-2.936-2.904
					c-0.75-1.578-0.604-3.479-0.328-5.141c0.543-3.338,2.342-6.998,5.174-8.944c1.014-0.697,0.604-1.647-0.487-1.819
					C198.48,68.986,196.986,69.507,195.818,70.311L195.818,70.311z"/>
			</g>
		</g>
		<g display="inline">
			<g>
				<path fill="#508F7C" d="M208.548,70.114c0.095,6.472,1.238,12.862,1.334,19.333c0.021,1.498,5.696,0.406,5.779-1.199
					c0.233-4.54-4.955-18.229,1.997-18.855c2.658-0.24,4.953-3.144,0.906-2.777c-4.354,0.392-9.193,2.025-10.164,6.792
					c-1.053,5.157,1.765,10.489,1.496,15.688c1.928-0.4,3.854-0.801,5.771-1.199c-0.095-6.473-1.23-12.862-1.334-19.334
					C214.32,67.073,208.518,68.1,208.548,70.114L208.548,70.114z"/>
			</g>
		</g>
		<g display="inline">
			<g>
				<path fill="#508F7C" d="M227.9,41.106c-1.373,16.941-3.32,34.089-0.688,51.007c0.247,1.592,6.08,0.275,5.795-1.553
					c-2.6-16.703-0.708-33.599,0.647-50.327C233.816,38.268,228.033,39.478,227.9,41.106L227.9,41.106z"/>
			</g>
		</g>
		<g display="inline">
			<g>
				<path fill="#508F7C" d="M256.343,73.229c-1.571-9.89-13.002-6.082-17.2-0.041c-5.74,8.256,1.322,17.264,10.778,15.067
					c8.58-1.993,8.569-13.844,8.769-20.741c0.268-8.99-0.562-18.039-1.681-26.953c-0.159-1.275-5.999-0.076-5.795,1.553
					c1.534,12.251,3.132,25.543,0.577,37.735c-0.462,2.205-1.229,5.233-3.127,6.678c1.07-0.814,1.814-0.147,0.332-0.553
					c-0.947-0.258-1.816-0.771-2.667-1.244c-1.831-1.02-3.037-2.674-3.597-4.66c-0.863-3.064,0.896-6.432,2.841-8.678
					c2.907-3.358,4.393-0.271,4.975,3.389C250.757,76.098,256.596,74.812,256.343,73.229L256.343,73.229z"/>
			</g>
		</g>
		<g display="inline">
			<g>
				<path fill="#508F7C" d="M264.548,43.447c0.093,12.72,1.901,25.319,2.666,38c0.07,1.166,5.897,0.137,5.795-1.553
					c-0.764-12.682-2.573-25.281-2.666-38C270.335,40.812,264.535,41.704,264.548,43.447L264.548,43.447z"/>
			</g>
		</g>
		<g display="inline">
			<g>
				<path fill="#508F7C" d="M267.174,89.553c0.051,0.77,0.184,1.461,0.754,2.031c0.689,0.688,1.524,1.145,2.521,1.209
					c1.402,0.092,3.117-0.396,3.771-1.781c0.598-1.268-0.529-2.382-1.773-2.464c-0.271-0.024-0.18,0.002,0.275,0.082
					c0.348,0.196,0.407,0.224,0.191,0.082c0.236,0.25,0.273,0.283,0.122,0.103c-0.062-0.074-0.104-0.153-0.146-0.236
					c0.082,0.168,0.164,0.336,0.245,0.505c-0.061-0.13-0.098-0.248-0.12-0.388c0.018,0.187,0.021,0.373,0.039,0.561
					c-0.003-0.044-0.011-0.089-0.013-0.133c-0.042-0.63-0.146-1.081-0.704-1.466c-0.564-0.394-1.306-0.507-1.979-0.457
					c-0.773,0.057-1.56,0.329-2.183,0.8C267.771,88.311,267.136,88.965,267.174,89.553L267.174,89.553z"/>
			</g>
		</g>
		<g display="inline">
			<g>
				<path fill="#508F7C" d="M80.538,106.323c-0.661,17.825-1.357,35.669-4,53.333c-0.369,2.464,5.496,1.475,5.814-0.654
					c2.643-17.664,3.339-35.508,4-53.333C86.448,103.096,80.616,104.229,80.538,106.323L80.538,106.323z"/>
			</g>
		</g>
		<g display="inline">
			<g>
				<path fill="#508F7C" d="M86.547,124.105c1.091,2.271,2.103,5.229,1.383,7.771c-0.254,0.896,1.906,0.462,2.274,0.392
					c0.713-0.137,3.166-0.58,3.422-1.479c0.784-2.771-0.081-5.723-1.284-8.229C91.733,121.277,86.178,123.333,86.547,124.105
					L86.547,124.105z"/>
			</g>
		</g>
		<g display="inline">
			<g>
				<path fill="#508F7C" d="M96.54,136.331c0.054,5.962,0.679,11.854,1.341,17.774c1.932-0.521,3.864-1.035,5.796-1.562
					c-0.569-3.379-0.877-7.237,0.993-10.299c0.663-1.082-1.579-0.438-0.675,0.411c0.56,0.521,0.899,1.256,1.211,1.935
					c0.88,1.905,1.122,4.111,1.342,6.181c0.235,2.205,5.406,0.537,5.804-1.11c0.854-3.517,1.293-9.837,4.938-11.703
					c-1.286-0.045-2.571-0.089-3.854-0.133c2.981,4.685,2.553,10.306,3.115,15.612c0.225,2.082,6.043,0.769,5.799-1.561
					c-0.613-5.738-0.328-11.332-3.551-16.387c-0.664-1.043-3.021-0.562-3.854-0.139c-6.004,3.076-6.938,8.896-8.398,14.971
					c1.936-0.371,3.869-0.741,5.803-1.111c-0.559-5.232-2.39-11.771-8.947-10.188c-6.449,1.562-6.367,9.992-5.511,15.078
					c0.362,2.146,6.046,0.709,5.792-1.558c-0.627-5.617-1.271-11.229-1.326-16.896C102.327,133.096,96.521,134.302,96.54,136.331
					L96.54,136.331z"/>
			</g>
		</g>
		<g display="inline">
			<g>
				<path fill="#508F7C" d="M148.547,119.771c0.71,14.311,2.045,28.562,4.667,42.666c0.271,1.457,6.103,0.092,5.796-1.561
					c-2.621-14.096-3.957-28.354-4.667-42.666C154.279,116.936,148.458,117.971,148.547,119.771L148.547,119.771z"/>
			</g>
		</g>
		<g display="inline">
			<g>
				<path fill="#508F7C" d="M148.527,121.213c5.686-1.094,11.373-2.57,17.203-2.361c7.105,0.254,10.547,5.656,11.481,12.162
					c1.935,13.334-13.505,22.926-22.927,29.035c-3.305,2.141,1.689,3.157,3.646,1.895c11.579-7.508,27.188-17.883,24.896-33.762
					c-2.56-17.683-23.208-12.365-35.134-10.07C144.105,118.803,145.027,121.887,148.527,121.213L148.527,121.213z"/>
			</g>
		</g>
		<g display="inline">
			<g>
				<path fill="#508F7C" d="M189.091,136.545c-3.581,1.582-6.139,4.697-5.374,8.768c0.827,4.405,5.648,5.897,9.549,5.562
					c3.729-0.326,7.94-2.117,7.889-6.368c-0.047-3.733-3.355-6.896-6.672-8.002c-1.217-0.405-2.976,0.187-4.06,0.712
					c-0.581,0.286-1.919,1.198-0.682,1.614c2.304,0.771,4.021,2.542,5.015,4.729c0.416,0.91,0.596,1.902,0.607,2.898
					c0.007,0.546-0.176,1.062-0.389,1.549c-0.406,0.938-1.104,0.562,0.229,0.441c-5.924,0.521-8.008-8.68-2.736-10.999
					c0.536-0.237,1.961-1.271,0.682-1.614C191.834,135.482,190.279,136.021,189.091,136.545L189.091,136.545z"/>
			</g>
		</g>
		<g display="inline">
			<g>
				<path fill="#508F7C" d="M203.882,135.105c0.666,6.666,1.332,13.334,2,20c1.933-0.521,3.863-1.035,5.795-1.562
					c-2.294-7.341-1.223-13.938,6.83-16.415c3.423-1.051,2.677-4.02-0.791-2.943c-4.435,1.354-8.653,3.344-11.327,7.289
					c-2.723,4.016-1.854,9.312-0.507,13.631c0.649,2.08,6.007,0.562,5.795-1.562c-0.667-6.667-1.334-13.333-2-20
					C209.48,131.593,203.658,132.873,203.882,135.105L203.882,135.105z"/>
			</g>
		</g>
		<g display="inline">
			<g>
				<path fill="#508F7C" d="M237.145,131.666c-4.766-0.762-10.709-0.191-13.326,4.473c-1.815,3.247-0.654,7.422,1.058,10.438
					c1.832,3.225,5.474,5.198,9.056,3.396c5.104-2.574,4.612-10.52,4.449-15.229c-1.938,0.344-3.883,0.688-5.82,1.027
					c0.69,4.535,2.094,8.791,4.897,12.47c1.506,1.968,7.051-0.229,5.315-2.484c-2.604-3.415-3.785-7.331-4.431-11.53
					c-0.36-2.36-5.899-1.156-5.823,1.027c0.114,3.309,0.604,9.45-1.625,11.885c0.153-0.17,0.854-0.496,1.631-0.479
					c-0.096-0.008,0.113,0.094-0.354-0.208c-0.656-0.427-1.427-1.445-1.979-2.361c-1.176-1.965-1.711-4.499-1.158-6.731
					c0.258-1.049,0.91-1.492,1.367-1.709c0.834-0.396,3.146-0.229,4.682,0.021C237.786,136.091,241.034,132.288,237.145,131.666
					L237.145,131.666z"/>
			</g>
		</g>
		<g display="inline">
			<g>
				<path fill="#508F7C" d="M247.882,148.438c0.468,0.965,0.658,1.938,0.658,2.896c0.001,1.322,1.474,1.491,2.536,1.368
					c0.768-0.091,1.537-0.343,2.191-0.757c0.354-0.229,1.082-0.771,1.082-1.283c0-1.371-0.067-2.525-0.682-3.773
					c-0.566-1.188-2.229-1.062-3.312-0.771c-0.692,0.188-1.396,0.506-1.928,1.004C248.152,147.379,247.664,147.99,247.882,148.438
					L247.882,148.438z"/>
			</g>
		</g>
	</g>
	<path fill="#FFFFFF" d="M46.671,14.423H35.903V-7.944h2.396v20.162h8.372V14.423z"/>
	<path fill="#FFFFFF" d="M49.164-7.944h9.937v2.204H51.56v7.573h6.934v2.205H51.56v8.18h7.701v2.205H49.164V-7.944z"/>
	<path fill="#FFFFFF" d="M74.661-5.74h-5.496v20.163h-2.397V-5.74h-5.496v-2.204h13.389V-5.74z"/>
	<path fill="#FFFFFF" d="M76.099-6.635c0-0.489,0.138-0.872,0.416-1.149C76.791-8.061,77.143-8.2,77.569-8.2
		c0.511,0,0.926,0.177,1.246,0.528c0.319,0.351,0.479,0.889,0.479,1.613c0,0.683-0.085,1.278-0.255,1.789
		c-0.171,0.511-0.378,0.942-0.624,1.294c-0.245,0.351-0.506,0.64-0.783,0.863c-0.277,0.224-0.511,0.389-0.703,0.495l-0.735-0.958
		c0.362-0.234,0.676-0.569,0.943-1.007c0.266-0.437,0.389-0.943,0.367-1.519c-0.383,0.063-0.714-0.041-0.99-0.319
		C76.237-5.696,76.099-6.102,76.099-6.635z"/>
	<path fill="#FFFFFF" d="M82.17,11.451c0.404,0.278,0.975,0.538,1.709,0.782c0.735,0.246,1.571,0.368,2.508,0.368
		c1.193,0,2.162-0.293,2.908-0.878c0.745-0.586,1.119-1.508,1.119-2.764c0-0.832-0.214-1.556-0.64-2.174
		c-0.426-0.616-0.958-1.188-1.597-1.709c-0.639-0.522-1.326-1.033-2.062-1.534c-0.734-0.5-1.421-1.055-2.061-1.661
		c-0.639-0.607-1.172-1.306-1.598-2.094C82.031-1,81.818-1.947,81.818-3.056c0-1.79,0.538-3.115,1.613-3.979
		c1.076-0.861,2.477-1.293,4.202-1.293c1.065,0,2.013,0.096,2.844,0.287c0.831,0.191,1.503,0.437,2.013,0.734l-0.768,2.109
		c-0.382-0.234-0.931-0.447-1.645-0.639s-1.54-0.287-2.476-0.287c-1.151,0-2.003,0.282-2.556,0.846
		c-0.555,0.564-0.831,1.273-0.831,2.125c0,0.746,0.213,1.405,0.639,1.981c0.426,0.576,0.958,1.118,1.597,1.629
		c0.639,0.513,1.326,1.028,2.062,1.55c0.735,0.522,1.422,1.103,2.061,1.742c0.64,0.639,1.172,1.362,1.599,2.173
		c0.425,0.81,0.638,1.769,0.638,2.875c0,1.875-0.554,3.345-1.661,4.41c-1.108,1.065-2.673,1.598-4.697,1.598
		c-1.278,0-2.327-0.118-3.147-0.353c-0.82-0.233-1.476-0.499-1.965-0.798L82.17,11.451z"/>
	<path fill="#FFFFFF" d="M116.647-0.275l0.286-3.387h-0.128l-1.021,3.163l-4.507,9.714h-0.798l-4.729-9.714l-0.991-3.163h-0.127
		l0.447,3.387v14.698h-2.301V-7.944h2.013l5.4,10.992l0.799,2.62h0.062l0.768-2.652l5.112-10.96h2.108v22.367h-2.395V-0.275z"/>
	<path fill="#FFFFFF" d="M131.703,8.16h-6.308l-1.783,6.263h-2.365l6.743-22.719h1.311l6.741,22.719h-2.523L131.703,8.16z
		 M126.032,6.084h5.097l-1.942-6.946l-0.589-3.375h-0.066l-0.619,3.44L126.032,6.084z"/>
	<path fill="#FFFFFF" d="M141.793,4.071h-1.149v10.352h-2.397V-7.944h2.397V2.472l1.118-0.447l5.814-9.969h2.749l-5.849,9.65
		l-1.118,1.021l1.311,1.278l6.486,10.417h-3.035L141.793,4.071z"/>
	<path fill="#FFFFFF" d="M153.999-7.944h9.938v2.204h-7.54v7.573h6.934v2.205h-6.934v8.18h7.701v2.205h-10.099V-7.944z"/>
</g>
<g id="Layer_2">
	<path fill="#FFFFFF" d="M35.513,21.057h1.8v16.8h-1.8V21.057z"/>
	<path fill="#FFFFFF" d="M40.745,21.057c0.256-0.049,0.54-0.084,0.852-0.108s0.627-0.04,0.948-0.048
		c0.32-0.008,0.636-0.016,0.948-0.023s0.604-0.013,0.876-0.013c1.167,0,2.16,0.2,2.976,0.601c0.816,0.4,1.479,0.972,1.992,1.716
		c0.512,0.743,0.88,1.636,1.104,2.676s0.336,2.2,0.336,3.479c0,1.152-0.108,2.256-0.324,3.312c-0.216,1.056-0.58,1.984-1.092,2.785
		c-0.512,0.799-1.188,1.439-2.028,1.92c-0.84,0.479-1.892,0.719-3.156,0.719c-0.208,0-0.472-0.004-0.792-0.012
		c-0.32-0.008-0.652-0.023-0.996-0.049c-0.344-0.023-0.664-0.043-0.96-0.059c-0.296-0.016-0.524-0.041-0.684-0.072V21.057z
		 M44.465,22.521c-0.16,0-0.332,0-0.516,0c-0.185,0-0.364,0.009-0.54,0.024c-0.176,0.016-0.34,0.031-0.492,0.047
		c-0.152,0.017-0.276,0.033-0.372,0.049V36.32c0.064,0.016,0.18,0.029,0.348,0.037s0.344,0.016,0.528,0.023
		c0.184,0.008,0.36,0.016,0.528,0.023c0.168,0.008,0.292,0.012,0.372,0.012c0.88,0,1.616-0.191,2.208-0.576
		c0.592-0.383,1.06-0.898,1.404-1.547c0.344-0.648,0.588-1.4,0.732-2.255c0.144-0.856,0.216-1.765,0.216-2.725
		c0-0.848-0.064-1.68-0.192-2.496c-0.128-0.816-0.356-1.539-0.684-2.172c-0.328-0.632-0.776-1.145-1.344-1.536
		C46.093,22.717,45.361,22.521,44.465,22.521z"/>
	<path fill="#FFFFFF" d="M53.345,21.057h7.464v1.656h-5.664v5.688h5.208v1.656h-5.208v6.144h5.784v1.656h-7.584V21.057z"/>
	<path fill="#FFFFFF" d="M70.077,33.153H65.34L64,37.857h-1.776l5.064-17.064h0.984l5.064,17.064H71.44L70.077,33.153z
		 M65.818,31.592h3.828l-1.459-5.216l-0.442-2.536h-0.049l-0.465,2.585L65.818,31.592z"/>
	<path fill="#FFFFFF" d="M74.872,35.625c0.304,0.207,0.732,0.404,1.284,0.588c0.552,0.184,1.18,0.275,1.884,0.275
		c0.896,0,1.624-0.219,2.184-0.66c0.56-0.439,0.84-1.131,0.84-2.076c0-0.623-0.16-1.167-0.48-1.63c-0.32-0.465-0.72-0.893-1.2-1.285
		c-0.48-0.392-0.996-0.775-1.548-1.151c-0.552-0.376-1.068-0.792-1.548-1.248s-0.88-0.979-1.2-1.572
		c-0.32-0.592-0.48-1.304-0.48-2.136c0-1.344,0.404-2.34,1.212-2.988s1.86-0.972,3.156-0.972c0.8,0,1.512,0.071,2.136,0.216
		c0.624,0.145,1.128,0.328,1.512,0.553l-0.576,1.584c-0.288-0.177-0.7-0.336-1.236-0.48s-1.156-0.217-1.86-0.217
		c-0.864,0-1.504,0.213-1.92,0.637c-0.417,0.424-0.624,0.956-0.624,1.596c0,0.561,0.16,1.057,0.48,1.488
		c0.32,0.432,0.72,0.84,1.2,1.225c0.48,0.383,0.996,0.771,1.548,1.163c0.552,0.393,1.068,0.828,1.548,1.308
		c0.48,0.48,0.88,1.025,1.2,1.633c0.32,0.607,0.48,1.328,0.48,2.16c0,1.408-0.417,2.512-1.248,3.312
		c-0.833,0.799-2.008,1.199-3.528,1.199c-0.96,0-1.748-0.088-2.364-0.264c-0.616-0.176-1.108-0.375-1.476-0.6L74.872,35.625z"/>
	<path fill="#FFFFFF" d="M99.136,37.209c-0.4,0.336-0.904,0.576-1.512,0.719c-0.609,0.145-1.248,0.217-1.92,0.217
		c-0.85,0-1.633-0.16-2.353-0.48c-0.72-0.318-1.341-0.828-1.86-1.523s-0.924-1.596-1.212-2.7c-0.288-1.104-0.432-2.432-0.432-3.983
		c0-1.6,0.164-2.953,0.491-4.057c0.328-1.104,0.765-2,1.309-2.688s1.172-1.184,1.884-1.488c0.712-0.304,1.444-0.456,2.196-0.456
		c0.768,0,1.404,0.056,1.908,0.168s0.939,0.248,1.308,0.407l-0.433,1.633c-0.319-0.176-0.695-0.312-1.127-0.408
		s-0.929-0.145-1.488-0.145c-0.561,0-1.088,0.125-1.584,0.373s-0.936,0.647-1.32,1.199c-0.384,0.553-0.688,1.276-0.912,2.172
		c-0.225,0.896-0.336,1.992-0.336,3.289c0,2.336,0.4,4.091,1.2,5.267s1.864,1.764,3.192,1.764c0.543,0,1.031-0.076,1.464-0.229
		c0.432-0.15,0.8-0.33,1.104-0.539L99.136,37.209z"/>
	<path fill="#FFFFFF" d="M100.312,29.458c0-2.848,0.456-5.008,1.368-6.48s2.305-2.208,4.176-2.208c1.008,0,1.865,0.204,2.568,0.612
		s1.275,0.988,1.717,1.74c0.439,0.752,0.764,1.664,0.971,2.735c0.209,1.072,0.312,2.272,0.312,3.601c0,2.848-0.459,5.007-1.379,6.48
		c-0.922,1.471-2.316,2.207-4.189,2.207c-0.992,0-1.84-0.203-2.543-0.611c-0.705-0.408-1.281-0.988-1.729-1.74
		s-0.771-1.664-0.973-2.736C100.412,31.985,100.312,30.786,100.312,29.458z M102.209,29.458c0,0.943,0.066,1.84,0.203,2.688
		c0.135,0.848,0.348,1.591,0.637,2.232c0.287,0.641,0.662,1.152,1.127,1.535c0.465,0.385,1.023,0.576,1.68,0.576
		c1.201,0,2.113-0.576,2.736-1.729c0.625-1.15,0.936-2.918,0.936-5.302c0-0.928-0.068-1.816-0.203-2.664
		c-0.137-0.849-0.348-1.597-0.637-2.244c-0.287-0.648-0.664-1.164-1.127-1.549c-0.465-0.384-1.033-0.576-1.705-0.576
		c-1.184,0-2.088,0.576-2.711,1.729C102.52,25.305,102.209,27.073,102.209,29.458z"/>
	<path fill="#FFFFFF" d="M124.408,26.817l0.215-2.544h-0.096l-0.768,2.376l-3.385,7.296h-0.6l-3.551-7.296l-0.744-2.376h-0.096
		l0.336,2.544v11.041h-1.729v-16.8h1.512l4.057,8.256l0.6,1.968h0.047l0.576-1.991l3.84-8.232h1.584v16.8h-1.799V26.817z"/>
	<path fill="#FFFFFF" d="M129.279,21.057h7.465v1.656h-5.664v5.688h5.207v1.656h-5.207v6.144h5.783v1.656h-7.584V21.057z"/>
	<path fill="#FFFFFF" d="M152.895,22.713h-4.127v15.144h-1.801V22.713h-4.127v-1.656h10.055V22.713z"/>
	<path fill="#FFFFFF" d="M153.375,29.458c0-2.848,0.457-5.008,1.369-6.48c0.91-1.473,2.303-2.208,4.176-2.208
		c1.008,0,1.863,0.204,2.566,0.612c0.705,0.408,1.277,0.988,1.717,1.74s0.764,1.664,0.973,2.735
		c0.207,1.072,0.311,2.272,0.311,3.601c0,2.848-0.459,5.007-1.379,6.48c-0.92,1.471-2.316,2.207-4.188,2.207
		c-0.992,0-1.84-0.203-2.545-0.611c-0.703-0.408-1.279-0.988-1.729-1.74c-0.447-0.752-0.771-1.664-0.971-2.736
		C153.475,31.985,153.375,30.786,153.375,29.458z M155.271,29.458c0,0.943,0.068,1.84,0.203,2.688
		c0.137,0.848,0.35,1.591,0.637,2.232s0.664,1.152,1.129,1.535c0.463,0.385,1.023,0.576,1.68,0.576c1.199,0,2.111-0.576,2.734-1.729
		c0.625-1.15,0.938-2.918,0.938-5.302c0-0.928-0.068-1.816-0.205-2.664c-0.135-0.849-0.348-1.597-0.635-2.244
		c-0.289-0.648-0.664-1.164-1.129-1.549c-0.465-0.384-1.031-0.576-1.703-0.576c-1.186,0-2.088,0.576-2.713,1.729
		C155.584,25.305,155.271,27.073,155.271,29.458z"/>
</g>
<g id="Layer_3">
	<path fill="#FFFFFF" d="M66.691,107.637H34.756V41.304h7.106V101.1h24.83V107.637z"/>
	<path fill="#FFFFFF" d="M75.504,41.304h7.106v66.333h-7.106V41.304z"/>
	<path fill="#FFFFFF" d="M96.161,41.304h29.47v6.54h-22.363v23.404h20.848v6.541h-20.848v29.848h-7.107V41.304z"/>
	<path fill="#FFFFFF" d="M135.297,41.304h29.473v6.54h-22.365v22.457h20.564v6.539h-20.564v24.26h22.84v6.537h-29.947V41.304z"/>
</g>
</svg>
