<?xml version="1.0" encoding="utf-8"?>
<!-- Generator: Adobe Illustrator 14.0.0, SVG Export Plug-In . SVG Version: 6.00 Build 43363)  -->
<!DOCTYPE svg PUBLIC "-//W3C//DTD SVG 1.1//EN" "http://www.w3.org/Graphics/SVG/1.1/DTD/svg11.dtd">
<svg version="1.1" id="Layer_2_1_" xmlns="http://www.w3.org/2000/svg" xmlns:xlink="http://www.w3.org/1999/xlink" x="0px" y="0px"
	 width="200px" height="26.45px" viewBox="60 25 200 26.45" enable-background="new 60 25 200 26.45" xml:space="preserve">
<g>
	<path fill="#20324A" d="M104.618,45.204v-7.986h-6.441v7.986h-1.665V28.375h1.665v7.368h6.441v-7.368h1.663v16.829H104.618z"/>
	<path fill="#20324A" d="M110.132,45.204V28.375h6.774v1.475h-5.157v5.893h4.826v1.427h-4.826v6.539h5.395v1.495H110.132z"/>
	<path fill="#20324A" d="M120.067,45.204V28.375h1.665v15.282h4.801v1.547H120.067z"/>
	<path fill="#20324A" d="M128.553,45.204V28.375h1.663v15.282h4.803v1.547H128.553z"/>
	<path fill="#20324A" d="M146.738,36.768c0,1.314-0.128,2.515-0.381,3.6c-0.253,1.086-0.618,2.017-1.093,2.794
		c-0.476,0.776-1.054,1.375-1.735,1.805c-0.681,0.427-1.458,0.643-2.33,0.643c-0.871,0-1.653-0.215-2.34-0.643
		c-0.69-0.43-1.277-1.028-1.759-1.805c-0.485-0.777-0.852-1.708-1.106-2.794c-0.255-1.085-0.379-2.286-0.379-3.6
		c0-1.301,0.123-2.497,0.367-3.58c0.247-1.085,0.605-2.013,1.082-2.783c0.475-0.767,1.057-1.365,1.747-1.793
		c0.689-0.428,1.487-0.639,2.389-0.639c0.872,0,1.649,0.211,2.33,0.639c0.682,0.428,1.26,1.026,1.735,1.793
		c0.476,0.77,0.84,1.697,1.093,2.783C146.61,34.271,146.738,35.466,146.738,36.768z M145.002,36.768
		c0-1.018-0.081-1.965-0.238-2.854c-0.159-0.886-0.402-1.656-0.726-2.304c-0.327-0.65-0.725-1.167-1.2-1.544
		c-0.475-0.385-1.021-0.573-1.641-0.573c-0.649,0-1.216,0.188-1.7,0.573c-0.483,0.377-0.884,0.895-1.199,1.544
		c-0.318,0.648-0.555,1.418-0.713,2.304c-0.158,0.889-0.238,1.836-0.238,2.854c0,1.012,0.08,1.962,0.238,2.849
		c0.158,0.892,0.396,1.669,0.713,2.333c0.315,0.663,0.716,1.187,1.199,1.566c0.483,0.38,1.051,0.571,1.7,0.571
		c0.634,0,1.188-0.191,1.663-0.571c0.476-0.379,0.871-0.903,1.189-1.566c0.316-0.665,0.555-1.441,0.714-2.333
		C144.922,38.73,145.002,37.779,145.002,36.768z"/>
	<path fill="#20324A" d="M148.9,48.319h-1.285l1.38-5.897h1.57L148.9,48.319z"/>
	<path fill="#20324A" d="M168.984,45.204h-2.186l-2.76-14.405h-0.043l-2.734,14.405h-2.187l-3.303-16.829h1.685l2.758,14.717h0.047
		l2.805-14.717h1.998l2.852,14.717h0.049l2.731-14.717h1.614L168.984,45.204z"/>
	<path fill="#20324A" d="M185.005,36.768c0,1.314-0.124,2.515-0.38,3.6c-0.252,1.086-0.617,2.017-1.093,2.794
		c-0.475,0.776-1.055,1.375-1.735,1.805c-0.68,0.427-1.458,0.643-2.33,0.643c-0.871,0-1.65-0.215-2.342-0.643
		c-0.689-0.43-1.274-1.028-1.76-1.805c-0.482-0.777-0.851-1.708-1.104-2.794c-0.254-1.085-0.38-2.286-0.38-3.6
		c0-1.301,0.123-2.497,0.365-3.58c0.248-1.085,0.608-2.013,1.083-2.783c0.479-0.767,1.061-1.365,1.75-1.793
		c0.687-0.428,1.485-0.639,2.387-0.639c0.872,0,1.65,0.211,2.33,0.639c0.681,0.428,1.261,1.026,1.735,1.793
		c0.476,0.77,0.841,1.697,1.093,2.783C184.881,34.271,185.005,35.466,185.005,36.768z M183.27,36.768
		c0-1.018-0.078-1.965-0.236-2.854c-0.158-0.886-0.401-1.656-0.725-2.304c-0.326-0.65-0.727-1.167-1.202-1.544
		c-0.474-0.385-1.019-0.573-1.64-0.573c-0.649,0-1.215,0.188-1.7,0.573c-0.481,0.377-0.883,0.895-1.199,1.544
		c-0.316,0.648-0.554,1.418-0.712,2.304c-0.16,0.889-0.24,1.836-0.24,2.854c0,1.012,0.08,1.962,0.24,2.849
		c0.158,0.892,0.396,1.669,0.712,2.333c0.316,0.663,0.718,1.187,1.199,1.566c0.485,0.38,1.051,0.571,1.7,0.571
		c0.633,0,1.188-0.191,1.666-0.571c0.475-0.379,0.869-0.903,1.186-1.566c0.318-0.665,0.557-1.441,0.715-2.333
		C183.191,38.73,183.27,37.779,183.27,36.768z"/>
	<path fill="#20324A" d="M194.988,45.204l-3.041-7.796h-2.164v7.796h-1.641V28.375h4.041c0.555,0,1.088,0.077,1.605,0.225
		c0.515,0.149,0.972,0.402,1.378,0.75c0.404,0.348,0.729,0.811,0.974,1.38c0.246,0.571,0.369,1.266,0.369,2.092
		c0,0.71-0.092,1.324-0.272,1.841c-0.183,0.515-0.42,0.948-0.714,1.295c-0.293,0.349-0.618,0.618-0.975,0.81
		c-0.355,0.187-0.711,0.306-1.059,0.355l3.281,8.081H194.988z M194.894,32.902c0-0.596-0.083-1.101-0.249-1.503
		c-0.166-0.403-0.39-0.722-0.666-0.96c-0.277-0.236-0.595-0.4-0.951-0.498c-0.356-0.092-0.726-0.14-1.104-0.14h-2.141V36.1h2.211
		c0.902,0,1.611-0.28,2.129-0.84C194.635,34.699,194.894,33.914,194.894,32.902z"/>
	<path fill="#20324A" d="M199.458,45.204V28.375h1.663v15.282h4.802v1.547H199.458z"/>
	<path fill="#20324A" d="M217.664,36.813c0,1.378-0.145,2.591-0.426,3.638c-0.287,1.045-0.699,1.92-1.238,2.625
		c-0.537,0.707-1.183,1.236-1.937,1.593c-0.753,0.356-1.589,0.535-2.507,0.535h-3.613V28.375h3.637c0.92,0,1.754,0.178,2.508,0.536
		c0.752,0.354,1.395,0.892,1.926,1.604c0.53,0.712,0.938,1.597,1.225,2.649C217.52,34.216,217.664,35.433,217.664,36.813z
		 M216.025,36.813c0-1.191-0.114-2.232-0.346-3.111c-0.229-0.883-0.546-1.611-0.949-2.185c-0.405-0.573-0.881-1-1.426-1.286
		c-0.549-0.287-1.138-0.43-1.772-0.43h-1.948v13.977h1.948c0.635,0,1.224-0.144,1.772-0.431c0.545-0.285,1.021-0.717,1.426-1.29
		c0.403-0.567,0.72-1.292,0.949-2.167C215.911,39.015,216.025,37.988,216.025,36.813z"/>
	<path fill="#20324A" d="M223.488,44.181c0,0.331-0.106,0.614-0.321,0.844c-0.214,0.233-0.479,0.347-0.796,0.347
		s-0.58-0.114-0.786-0.347c-0.206-0.23-0.306-0.513-0.306-0.844c0-0.333,0.1-0.613,0.306-0.842c0.206-0.229,0.47-0.348,0.786-0.348
		s0.582,0.119,0.796,0.348C223.382,43.568,223.488,43.849,223.488,44.181z M221.585,40.19V28.375h1.569V40.19H221.585z"/>
</g>
</svg>
