<?xml version="1.0" encoding="utf-8"?>
<!-- Generator: Adobe Illustrator 14.0.0, SVG Export Plug-In . SVG Version: 6.00 Build 43363)  -->
<!DOCTYPE svg PUBLIC "-//W3C//DTD SVG 1.1//EN" "http://www.w3.org/Graphics/SVG/1.1/DTD/svg11.dtd">
<svg version="1.1" id="Layer_5" xmlns="http://www.w3.org/2000/svg" xmlns:xlink="http://www.w3.org/1999/xlink" x="0px" y="0px"
	 width="1000px" height="470px" viewBox="0 0 1000 470" enable-background="new 0 0 1000 470" xml:space="preserve">
<circle fill="none" stroke="#FFFFFF" stroke-width="0.75" cx="377.157" cy="267.57" r="10.481"/>
<circle fill="none" stroke="#FFFFFF" stroke-width="0.75" cx="488.188" cy="237.351" r="10.48"/>
<path fill="none" stroke="#FFFFFF" stroke-width="0.75" d="M577.246,240.996c5.788,0,10.48-4.689,10.48-10.48
	c0-5.787-4.692-10.48-10.48-10.48s-10.48,4.693-10.48,10.48C566.766,236.307,571.458,240.996,577.246,240.996z"/>
<path fill="none" stroke="#FFFFFF" stroke-width="0.75" d="M418.775,237.424c0,5.791,4.692,10.48,10.48,10.48
	s10.481-4.689,10.481-10.48c0-5.787-4.693-10.48-10.481-10.48S418.775,231.637,418.775,237.424z"/>
<path fill="none" stroke="#FFFFFF" stroke-width="0.75" d="M242.668,367.92c5.788,0,10.48,4.689,10.48,10.48
	c0,5.787-4.692,10.479-10.48,10.479c-5.787,0-10.479-4.691-10.479-10.479C232.189,372.609,236.881,367.92,242.668,367.92z"/>
<path fill="none" stroke="#FFFFFF" stroke-width="0.75" d="M190.914,398.454c5.788,0,10.48,4.688,10.48,10.479
	c0,5.787-4.692,10.479-10.48,10.479c-5.787,0-10.479-4.691-10.479-10.479C180.436,403.143,185.127,398.454,190.914,398.454z"/>
<path fill="none" stroke="#FFFFFF" stroke-width="0.75" d="M138.671,428.361c5.788,0,10.48,4.688,10.48,10.479
	c0,5.787-4.692,10.479-10.48,10.479c-5.787,0-10.479-4.691-10.479-10.479C128.193,433.05,132.884,428.361,138.671,428.361z"/>
<path fill="none" stroke="#FFFFFF" stroke-width="0.75" d="M640.176,200.37c0-5.791-4.692-10.48-10.48-10.48
	s-10.481,4.689-10.481,10.48c0,5.787,4.693,10.479,10.481,10.479S640.176,206.157,640.176,200.37z"/>
<path fill="none" stroke="#FFFFFF" stroke-width="0.75" d="M736.949,200.398c0,5.79,4.688,10.481,10.479,10.481
	c5.786,0,10.479-4.691,10.479-10.481c0-5.789-4.693-10.481-10.479-10.481C741.639,189.917,736.949,194.61,736.949,200.398z"/>
<circle fill="none" stroke="#FFFFFF" stroke-width="0.75" cx="688.494" cy="200.398" r="10.48"/>
<circle fill="none" stroke="#FFFFFF" stroke-width="0.75" cx="910.562" cy="81.195" r="10.481"/>
<circle fill="none" stroke="#FFFFFF" stroke-width="0.75" cx="910.65" cy="20.957" r="10.481"/>
<path fill="none" stroke="#FFFFFF" stroke-width="0.75" d="M862.107,81.196c0-5.791-4.691-10.482-10.48-10.482
	c-5.787,0-10.479,4.691-10.479,10.482c0,5.785,4.69,10.481,10.479,10.481C857.416,91.677,862.107,86.981,862.107,81.196z"/>
<circle fill="none" stroke="#FFFFFF" stroke-width="0.75" cx="324.918" cy="297.479" r="10.48"/>
<path fill="none" stroke="#FFFFFF" stroke-width="0.75" d="M528.814,289.45c0-5.787-4.693-10.479-10.48-10.479
	c-5.792,0-10.48,4.692-10.48,10.479c0,5.789,4.689,10.481,10.48,10.481C524.121,299.932,528.814,295.239,528.814,289.45z"/>
<circle fill="none" stroke="#FFFFFF" stroke-width="0.75" cx="577.247" cy="289.45" r="10.481"/>
<path fill="none" stroke="#FFFFFF" stroke-width="0.75" d="M262.334,326.301c0-5.791,4.693-10.482,10.48-10.482
	c5.789,0,10.481,4.691,10.481,10.482c0,5.785-4.692,10.48-10.481,10.48C267.027,336.782,262.334,332.086,262.334,326.301z"/>
<circle fill="none" stroke="#FFFFFF" stroke-width="0.75" cx="799.527" cy="170.254" r="10.481"/>
<circle fill="none" stroke="#FFFFFF" stroke-width="0.75" cx="799.527" cy="111.341" r="10.481"/>
<g>
	<circle opacity="0.85" fill="none" stroke="#FFFFFF" stroke-width="0.5" cx="377.108" cy="267.664" r="7.487"/>
	<circle opacity="0.85" fill="none" stroke="#FFFFFF" stroke-width="0.5" cx="488.141" cy="237.444" r="7.486"/>
	<path opacity="0.85" fill="none" stroke="#FFFFFF" stroke-width="0.5" d="M577.198,238.094c4.135,0,7.486-3.349,7.486-7.485
		c0-4.133-3.352-7.484-7.486-7.484s-7.486,3.352-7.486,7.484C569.712,234.745,573.063,238.094,577.198,238.094z"/>
	<path opacity="0.85" fill="none" stroke="#FFFFFF" stroke-width="0.5" d="M421.723,237.518c0,4.137,3.352,7.484,7.486,7.484
		c4.133,0,7.486-3.348,7.486-7.484c0-4.134-3.354-7.485-7.486-7.485C425.074,230.032,421.723,233.384,421.723,237.518z"/>
	<path opacity="0.85" fill="none" stroke="#FFFFFF" stroke-width="0.5" d="M242.619,371.008c4.135,0,7.488,3.35,7.488,7.486
		c0,4.133-3.354,7.484-7.488,7.484c-4.133,0-7.484-3.352-7.484-7.484C235.135,374.357,238.486,371.008,242.619,371.008z"/>
	<circle opacity="0.85" fill="none" stroke="#FFFFFF" stroke-width="0.5" cx="629.646" cy="200.463" r="7.487"/>
	<circle opacity="0.85" fill="none" stroke="#FFFFFF" stroke-width="0.5" cx="747.381" cy="200.492" r="7.485"/>
	<circle opacity="0.85" fill="none" stroke="#FFFFFF" stroke-width="0.5" cx="688.446" cy="200.492" r="7.486"/>
	<path opacity="0.85" fill="none" stroke="#FFFFFF" stroke-width="0.5" d="M918.001,81.289c0-4.134-3.354-7.484-7.484-7.484
		c-4.137,0-7.488,3.351-7.488,7.484c0,4.135,3.352,7.487,7.488,7.487C914.647,88.776,918.001,85.423,918.001,81.289z"/>
	<circle opacity="0.85" fill="none" stroke="#FFFFFF" stroke-width="0.5" cx="910.603" cy="21.051" r="7.486"/>
	<circle opacity="0.85" fill="none" stroke="#FFFFFF" stroke-width="0.5" cx="851.58" cy="81.289" r="7.485"/>
	<circle opacity="0.85" fill="none" stroke="#FFFFFF" stroke-width="0.5" cx="324.869" cy="297.572" r="7.486"/>
	<circle opacity="0.85" fill="none" stroke="#FFFFFF" stroke-width="0.5" cx="518.286" cy="289.543" r="7.486"/>
	<circle opacity="0.85" fill="none" stroke="#FFFFFF" stroke-width="0.5" cx="577.198" cy="289.543" r="7.486"/>
	<circle opacity="0.85" fill="none" stroke="#FFFFFF" stroke-width="0.5" cx="272.767" cy="326.395" r="7.487"/>
	<circle opacity="0.85" fill="none" stroke="#FFFFFF" stroke-width="0.5" cx="190.867" cy="409.027" r="7.485"/>
	<path opacity="0.85" fill="none" stroke="#FFFFFF" stroke-width="0.5" d="M131.14,438.934c0,4.135,3.353,7.488,7.486,7.488
		s7.486-3.354,7.486-7.488c0-4.133-3.353-7.486-7.486-7.486S131.14,434.801,131.14,438.934z"/>
	<circle opacity="0.85" fill="none" stroke="#FFFFFF" stroke-width="0.5" cx="799.479" cy="170.347" r="7.487"/>
	<circle opacity="0.85" fill="none" stroke="#FFFFFF" stroke-width="0.5" cx="799.479" cy="111.434" r="7.487"/>
</g>
</svg>
