<?xml version="1.0" encoding="utf-8"?>
<!-- Generator: Adobe Illustrator 14.0.0, SVG Export Plug-In . SVG Version: 6.00 Build 43363)  -->
<!DOCTYPE svg PUBLIC "-//W3C//DTD SVG 1.1//EN" "http://www.w3.org/Graphics/SVG/1.1/DTD/svg11.dtd">
<svg version="1.1" id="Layer_1" xmlns="http://www.w3.org/2000/svg" xmlns:xlink="http://www.w3.org/1999/xlink" x="0px" y="0px"
	 width="1000px" height="470px" viewBox="0 0 1000 470" enable-background="new 0 0 1000 470" xml:space="preserve">
<circle opacity="0.85" fill="none" stroke="#FFFFFF" stroke-width="0.75" enable-background="new    " cx="308.752" cy="66.362" r="7.486"/>
<circle opacity="0.85" fill="none" stroke="#FFFFFF" stroke-width="0.75" enable-background="new    " cx="377.157" cy="267.57" r="7.487"/>
<line opacity="0.85" fill="none" stroke="#FFFFFF" stroke-width="0.75" enable-background="new    " x1="525.941" y1="289.45" x2="569.902" y2="289.45"/>
<line opacity="0.85" fill="none" stroke="#FFFFFF" stroke-width="0.75" enable-background="new    " x1="331.537" y1="293.968" x2="370.68" y2="271.32"/>
<circle opacity="0.85" fill="none" stroke="#FFFFFF" stroke-width="0.75" enable-background="new    " cx="488.189" cy="237.351" r="7.486"/>
<circle opacity="0.85" fill="none" stroke="#FFFFFF" stroke-width="0.75" enable-background="new    " cx="488.189" cy="178.417" r="7.486"/>
<line opacity="0.85" fill="none" stroke="#FFFFFF" stroke-width="0.75" enable-background="new    " x1="514.586" y1="282.971" x2="491.938" y2="243.829"/>
<path opacity="0.85" fill="none" stroke="#FFFFFF" stroke-width="0.75" enable-background="new    " d="M347.012,164.022
	c4.137,0,7.487-3.352,7.487-7.485c0-4.136-3.353-7.488-7.487-7.488c-4.132,0-7.482,3.352-7.482,7.488
	C339.527,160.67,342.88,164.022,347.012,164.022z"/>
<circle opacity="0.85" fill="none" stroke="#FFFFFF" stroke-width="0.75" enable-background="new    " cx="377.158" cy="208.636" r="7.487"/>
<line opacity="0.85" fill="none" stroke="#FFFFFF" stroke-width="0.75" enable-background="new    " x1="325.711" y1="208.635" x2="369.672" y2="208.635"/>
<line opacity="0.85" fill="none" stroke="#FFFFFF" stroke-width="0.75" enable-background="new    " x1="350.762" y1="163.016" x2="373.41" y2="202.156"/>
<circle opacity="0.85" fill="none" stroke="#FFFFFF" stroke-width="0.75" enable-background="new    " cx="607.391" cy="400.484" r="7.487"/>
<circle opacity="0.85" fill="none" stroke="#FFFFFF" stroke-width="0.75" enable-background="new    " cx="555.292" cy="430.629" r="7.487"/>
<line opacity="0.85" fill="none" stroke="#FFFFFF" stroke-width="0.75" enable-background="new    " x1="600.912" y1="404.233" x2="561.771" y2="426.881"/>
<circle opacity="0.85" fill="none" stroke="#FFFFFF" stroke-width="0.75" enable-background="new    " cx="577.246" cy="230.515" r="7.486"/>
<circle opacity="0.85" fill="none" stroke="#FFFFFF" stroke-width="0.75" enable-background="new    " cx="607.392" cy="341.55" r="7.485"/>
<line opacity="0.85" fill="none" stroke="#FFFFFF" stroke-width="0.75" enable-background="new    " x1="577.246" y1="238.001" x2="577.246" y2="281.964"/>
<line opacity="0.85" fill="none" stroke="#FFFFFF" stroke-width="0.75" enable-background="new    " x1="607.392" y1="349.035" x2="607.392" y2="392.998"/>
<line opacity="0.85" fill="none" stroke="#FFFFFF" stroke-width="0.75" enable-background="new    " x1="580.994" y1="295.928" x2="603.644" y2="335.07"/>
<circle opacity="0.85" fill="none" stroke="#FFFFFF" stroke-width="0.75" enable-background="new    " cx="266.126" cy="178.358" r="7.485"/>
<line opacity="0.85" fill="none" stroke="#FFFFFF" stroke-width="0.75" enable-background="new    " x1="272.604" y1="182.107" x2="311.746" y2="204.756"/>
<circle opacity="0.85" fill="none" stroke="#FFFFFF" stroke-width="0.75" enable-background="new    " cx="429.257" cy="237.424" r="7.487"/>
<line opacity="0.85" fill="none" stroke="#FFFFFF" stroke-width="0.75" enable-background="new    " x1="480.705" y1="237.424" x2="436.744" y2="237.424"/>
<circle opacity="0.85" fill="none" stroke="#FFFFFF" stroke-width="0.75" enable-background="new    " cx="272.815" cy="267.367" r="7.487"/>
<line opacity="0.85" fill="none" stroke="#FFFFFF" stroke-width="0.75" enable-background="new    " x1="318.436" y1="293.764" x2="279.295" y2="271.115"/>
<circle opacity="0.85" fill="none" stroke="#FFFFFF" stroke-width="0.75" enable-background="new    " cx="242.668" cy="378.4" r="7.485"/>
<line opacity="0.85" fill="none" stroke="#FFFFFF" stroke-width="0.75" enable-background="new    " x1="246.418" y1="371.921" x2="269.066" y2="332.779"/>
<line opacity="0.85" fill="none" stroke="#FFFFFF" stroke-width="0.75" enable-background="new    " x1="318.363" y1="301.132" x2="279.368" y2="322.68"/>
<line opacity="0.85" fill="none" stroke="#FFFFFF" stroke-width="0.75" enable-background="new    " x1="422.777" y1="241.174" x2="383.637" y2="263.823"/>
<line opacity="0.85" fill="none" stroke="#FFFFFF" stroke-width="0.75" enable-background="new    " x1="422.703" y1="233.804" x2="383.709" y2="212.257"/>
<circle opacity="0.85" fill="none" stroke="#FFFFFF" stroke-width="0.75" enable-background="new    " cx="607.318" cy="459.415" r="7.487"/>
<line opacity="0.85" fill="none" stroke="#FFFFFF" stroke-width="0.75" enable-background="new    " x1="607.317" y1="407.969" x2="607.317" y2="451.93"/>
<circle opacity="0.85" fill="none" stroke="#FFFFFF" stroke-width="0.75" enable-background="new    " cx="629.695" cy="200.37" r="7.487"/>
<line opacity="0.85" fill="none" stroke="#FFFFFF" stroke-width="0.75" enable-background="new    " x1="584.074" y1="226.765" x2="623.215" y2="204.118"/>
<circle opacity="0.85" fill="none" stroke="#FFFFFF" stroke-width="0.75" enable-background="new    " cx="577.668" cy="171.584" r="7.487"/>
<line opacity="0.85" fill="none" stroke="#FFFFFF" stroke-width="0.75" enable-background="new    " x1="577.668" y1="223.03" x2="577.668" y2="179.069"/>
<circle opacity="0.85" fill="none" stroke="#FFFFFF" stroke-width="0.75" enable-background="new    " cx="405.549" cy="437.982" r="7.486"/>
<circle opacity="0.85" fill="none" stroke="#FFFFFF" stroke-width="0.75" enable-background="new    " cx="405.549" cy="379.047" r="7.485"/>
<line opacity="0.85" fill="none" stroke="#FFFFFF" stroke-width="0.75" enable-background="new    " x1="405.549" y1="430.496" x2="405.549" y2="386.533"/>
<circle opacity="0.85" fill="none" stroke="#FFFFFF" stroke-width="0.75" enable-background="new    " cx="360.854" cy="95.149" r="7.486"/>
<circle opacity="0.85" fill="none" stroke="#FFFFFF" stroke-width="0.75" enable-background="new    " cx="308.752" cy="125.296" r="7.486"/>
<line opacity="0.85" fill="none" stroke="#FFFFFF" stroke-width="0.75" enable-background="new    " x1="354.373" y1="98.899" x2="315.232" y2="121.546"/>
<circle opacity="0.85" fill="none" stroke="#FFFFFF" stroke-width="0.75" enable-background="new    " cx="212.465" cy="325.959" r="7.486"/>
<line opacity="0.85" fill="none" stroke="#FFFFFF" stroke-width="0.75" enable-background="new    " x1="216.215" y1="332.786" x2="238.863" y2="371.928"/>
<circle opacity="0.85" fill="none" stroke="#FFFFFF" stroke-width="0.75" enable-background="new    " cx="777.648" cy="311.43" r="7.486"/>
<line opacity="0.85" fill="none" stroke="#FFFFFF" stroke-width="0.75" enable-background="new    " x1="799.527" y1="162.646" x2="799.527" y2="118.685"/>
<line opacity="0.85" fill="none" stroke="#FFFFFF" stroke-width="0.75" enable-background="new    " x1="804.047" y1="357.052" x2="781.398" y2="317.911"/>
<circle opacity="0.85" fill="none" stroke="#FFFFFF" stroke-width="0.75" enable-background="new    " cx="747.429" cy="200.398" r="7.485"/>
<circle opacity="0.85" fill="none" stroke="#FFFFFF" stroke-width="0.75" enable-background="new    " cx="688.495" cy="200.398" r="7.486"/>
<line opacity="0.85" fill="none" stroke="#FFFFFF" stroke-width="0.75" enable-background="new    " x1="739.943" y1="200.398" x2="695.98" y2="200.398"/>
<line opacity="0.85" fill="none" stroke="#FFFFFF" stroke-width="0.75" enable-background="new    " x1="681.009" y1="200.398" x2="637.046" y2="200.398"/>
<line opacity="0.85" fill="none" stroke="#FFFFFF" stroke-width="0.75" enable-background="new    " x1="793.049" y1="174.001" x2="753.907" y2="196.651"/>
<circle opacity="0.85" fill="none" stroke="#FFFFFF" stroke-width="0.75" enable-background="new    " cx="666.614" cy="341.575" r="7.487"/>
<circle opacity="0.85" fill="none" stroke="#FFFFFF" stroke-width="0.75" enable-background="new    " cx="718.713" cy="311.43" r="7.487"/>
<line opacity="0.85" fill="none" stroke="#FFFFFF" stroke-width="0.75" enable-background="new    " x1="718.714" y1="362.876" x2="718.714" y2="318.916"/>
<line opacity="0.85" fill="none" stroke="#FFFFFF" stroke-width="0.75" enable-background="new    " x1="673.094" y1="337.827" x2="712.234" y2="315.178"/>
<circle opacity="0.85" fill="none" stroke="#FFFFFF" stroke-width="0.75" enable-background="new    " cx="910.562" cy="81.195" r="7.486"/>
<circle opacity="0.85" fill="none" stroke="#FFFFFF" stroke-width="0.75" enable-background="new    " cx="910.65" cy="20.958" r="7.486"/>
<line opacity="0.85" fill="none" stroke="#FFFFFF" stroke-width="0.75" enable-background="new    " x1="917.408" y1="17.694" x2="947.988" y2="0"/>
<circle opacity="0.85" fill="none" stroke="#FFFFFF" stroke-width="0.75" enable-background="new    " cx="467.083" cy="320.995" r="7.487"/>
<line opacity="0.85" fill="none" stroke="#FFFFFF" stroke-width="0.75" enable-background="new    " x1="473.562" y1="317.246" x2="512.704" y2="294.598"/>
<circle opacity="0.85" fill="none" stroke="#FFFFFF" stroke-width="0.75" enable-background="new    " cx="940.708" cy="133.296" r="7.487"/>
<line opacity="0.85" fill="none" stroke="#FFFFFF" stroke-width="0.75" enable-background="new    " x1="914.312" y1="87.675" x2="936.959" y2="126.816"/>
<circle opacity="0.85" fill="none" stroke="#FFFFFF" stroke-width="0.75" enable-background="new    " cx="740.594" cy="111.341" r="7.486"/>
<circle opacity="0.85" fill="none" stroke="#FFFFFF" stroke-width="0.75" enable-background="new    " cx="851.628" cy="81.196" r="7.485"/>
<line opacity="0.85" fill="none" stroke="#FFFFFF" stroke-width="0.75" enable-background="new    " x1="748.08" y1="111.341" x2="792.042" y2="111.341"/>
<line opacity="0.85" fill="none" stroke="#FFFFFF" stroke-width="0.75" enable-background="new    " x1="859.113" y1="81.196" x2="903.076" y2="81.196"/>
<line opacity="0.85" fill="none" stroke="#FFFFFF" stroke-width="0.75" enable-background="new    " x1="806.006" y1="107.593" x2="845.149" y2="84.943"/>
<circle opacity="0.85" fill="none" stroke="#FFFFFF" stroke-width="0.75" enable-background="new    " cx="688.436" cy="422.464" r="7.486"/>
<line opacity="0.85" fill="none" stroke="#FFFFFF" stroke-width="0.75" enable-background="new    " x1="692.185" y1="415.985" x2="714.834" y2="376.842"/>
<circle opacity="0.85" fill="none" stroke="#FFFFFF" stroke-width="0.75" enable-background="new    " cx="747.502" cy="259.331" r="7.485"/>
<line opacity="0.85" fill="none" stroke="#FFFFFF" stroke-width="0.75" enable-background="new    " x1="747.502" y1="207.885" x2="747.502" y2="251.846"/>
<circle opacity="0.85" fill="none" stroke="#FFFFFF" stroke-width="0.75" enable-background="new    " cx="777.445" cy="415.772" r="7.487"/>
<line opacity="0.85" fill="none" stroke="#FFFFFF" stroke-width="0.75" enable-background="new    " x1="803.842" y1="370.152" x2="781.193" y2="409.293"/>
<circle opacity="0.85" fill="none" stroke="#FFFFFF" stroke-width="0.75" enable-background="new    " cx="888.479" cy="445.918" r="7.486"/>
<line opacity="0.85" fill="none" stroke="#FFFFFF" stroke-width="0.75" enable-background="new    " x1="881.999" y1="442.17" x2="842.857" y2="419.522"/>
<line opacity="0.85" fill="none" stroke="#FFFFFF" stroke-width="0.75" enable-background="new    " x1="811.211" y1="370.225" x2="832.758" y2="409.221"/>
<line opacity="0.85" fill="none" stroke="#FFFFFF" stroke-width="0.75" enable-background="new    " x1="751.252" y1="265.811" x2="773.9" y2="304.952"/>
<line opacity="0.85" fill="none" stroke="#FFFFFF" stroke-width="0.75" enable-background="new    " x1="743.882" y1="265.884" x2="722.335" y2="304.879"/>
<circle opacity="0.85" fill="none" stroke="#FFFFFF" stroke-width="0.75" enable-background="new    " cx="710.448" cy="58.893" r="7.487"/>
<line opacity="0.85" fill="none" stroke="#FFFFFF" stroke-width="0.75" enable-background="new    " x1="736.844" y1="104.513" x2="714.196" y2="65.372"/>
<circle opacity="0.85" fill="none" stroke="#FFFFFF" stroke-width="0.75" enable-background="new    " cx="681.662" cy="110.919" r="7.487"/>
<circle opacity="0.85" fill="none" stroke="#FFFFFF" stroke-width="0.75" enable-background="new    " cx="977.211" cy="278.829" r="7.486"/>
<line opacity="0.85" fill="none" stroke="#FFFFFF" stroke-width="0.75" enable-background="new    " x1="980.961" y1="272.002" x2="1000" y2="239.098"/>
<line opacity="0.85" fill="none" stroke="#FFFFFF" stroke-width="0.75" enable-background="new    " x1="984.697" y1="278.407" x2="1000" y2="278.407"/>
<circle opacity="0.85" fill="none" stroke="#FFFFFF" stroke-width="0.75" enable-background="new    " cx="324.918" cy="297.479" r="7.486"/>
<circle opacity="0.85" fill="none" stroke="#FFFFFF" stroke-width="0.75" enable-background="new    " cx="518.334" cy="289.45" r="7.487"/>
<line opacity="0.85" fill="none" stroke="#FFFFFF" stroke-width="0.75" enable-background="new    " x1="503.844" y1="430.629" x2="547.805" y2="430.629"/>
<circle opacity="0.85" fill="none" stroke="#FFFFFF" stroke-width="0.75" enable-background="new    " cx="496.236" cy="430.629" r="7.487"/>
<circle opacity="0.85" fill="none" stroke="#FFFFFF" stroke-width="0.75" enable-background="new    " cx="949.98" cy="332.129" r="7.484"/>
<line opacity="0.85" fill="none" stroke="#FFFFFF" stroke-width="0.75" enable-background="new    " x1="976.378" y1="377.75" x2="953.73" y2="338.607"/>
<circle opacity="0.85" fill="none" stroke="#FFFFFF" stroke-width="0.75" enable-background="new    " cx="928.875" cy="415.773" r="7.487"/>
<line opacity="0.85" fill="none" stroke="#FFFFFF" stroke-width="0.75" enable-background="new    " x1="935.354" y1="412.025" x2="974.496" y2="389.376"/>
<circle opacity="0.85" fill="none" stroke="#FFFFFF" stroke-width="0.75" enable-background="new    " cx="980.125" cy="384.228" r="7.487"/>
<circle opacity="0.85" fill="none" stroke="#FFFFFF" stroke-width="0.75" enable-background="new    " cx="767.983" cy="60.091" r="7.485"/>
<line opacity="0.85" fill="none" stroke="#FFFFFF" stroke-width="0.75" enable-background="new    " x1="813.604" y1="33.693" x2="774.461" y2="56.341"/>
<line opacity="0.85" fill="none" stroke="#FFFFFF" stroke-width="0.75" enable-background="new    " x1="847.879" y1="74.717" x2="825.23" y2="35.575"/>
<circle opacity="0.85" fill="none" stroke="#FFFFFF" stroke-width="0.75" enable-background="new    " cx="820.082" cy="29.946" r="7.487"/>
<circle opacity="0.85" fill="none" stroke="#FFFFFF" stroke-width="0.75" enable-background="new    " cx="318.225" cy="208.636" r="7.487"/>
<circle opacity="0.85" fill="none" stroke="#FFFFFF" stroke-width="0.75" enable-background="new    " cx="577.247" cy="289.45" r="7.487"/>
<circle opacity="0.85" fill="none" stroke="#FFFFFF" stroke-width="0.75" enable-background="new    " cx="272.815" cy="326.301" r="7.487"/>
<circle opacity="0.85" fill="none" stroke="#FFFFFF" stroke-width="0.75" enable-background="new    " cx="547.521" cy="119.482" r="7.486"/>
<line opacity="0.85" fill="none" stroke="#FFFFFF" stroke-width="0.75" enable-background="new    " x1="521.125" y1="73.862" x2="543.771" y2="113.005"/>
<line opacity="0.85" fill="none" stroke="#FFFFFF" stroke-width="0.75" enable-background="new    " x1="573.919" y1="165.103" x2="551.27" y2="125.962"/>
<circle opacity="0.85" fill="none" stroke="#FFFFFF" stroke-width="0.75" enable-background="new    " cx="517.614" cy="67.244" r="7.486"/>
<circle opacity="0.85" fill="none" stroke="#FFFFFF" stroke-width="0.75" enable-background="new    " cx="389.499" cy="42.952" r="7.486"/>
<circle opacity="0.85" fill="none" stroke="#FFFFFF" stroke-width="0.75" enable-background="new    " cx="500.535" cy="12.807" r="7.487"/>
<circle opacity="0.85" fill="none" stroke="#FFFFFF" stroke-width="0.75" enable-background="new    " cx="448.433" cy="42.954" r="7.487"/>
<line opacity="0.85" fill="none" stroke="#FFFFFF" stroke-width="0.75" enable-background="new    " x1="494.054" y1="16.556" x2="454.915" y2="39.204"/>
<line opacity="0.85" fill="none" stroke="#FFFFFF" stroke-width="0.75" enable-background="new    " x1="415.896" y1="88.572" x2="393.247" y2="49.43"/>
<line opacity="0.85" fill="none" stroke="#FFFFFF" stroke-width="0.75" enable-background="new    " x1="423.265" y1="88.499" x2="444.812" y2="49.502"/>
<circle opacity="0.85" fill="none" stroke="#FFFFFF" stroke-width="0.75" enable-background="new    " cx="419.894" cy="95.167" r="7.486"/>
<circle opacity="0.85" fill="none" stroke="#FFFFFF" stroke-width="0.75" enable-background="new    " cx="190.915" cy="408.933" r="7.485"/>
<line opacity="0.85" fill="none" stroke="#FFFFFF" stroke-width="0.75" enable-background="new    " x1="236.538" y1="382.536" x2="197.395" y2="405.185"/>
<circle opacity="0.85" fill="none" stroke="#FFFFFF" stroke-width="0.75" enable-background="new    " cx="138.674" cy="438.84" r="7.486"/>
<line opacity="0.85" fill="none" stroke="#FFFFFF" stroke-width="0.75" enable-background="new    " x1="184.294" y1="412.444" x2="145.152" y2="435.091"/>
<line opacity="0.85" fill="none" stroke="#FFFFFF" stroke-width="0.75" enable-background="new    " x1="138.672" y1="446.328" x2="138.672" y2="470"/>
<circle opacity="0.85" fill="none" stroke="#FFFFFF" stroke-width="0.75" enable-background="new    " cx="807.557" cy="363.67" r="7.486"/>
<circle opacity="0.85" fill="none" stroke="#FFFFFF" stroke-width="0.75" enable-background="new    " cx="799.527" cy="170.254" r="7.487"/>
<path opacity="0.85" fill="none" stroke="#FFFFFF" stroke-width="0.75" enable-background="new    " d="M726.2,370.365
	c0-4.137-3.354-7.488-7.486-7.488c-4.135,0-7.487,3.354-7.487,7.488c0,4.133,3.354,7.484,7.487,7.484S726.2,374.498,726.2,370.365z"
	/>
<circle opacity="0.85" fill="none" stroke="#FFFFFF" stroke-width="0.75" enable-background="new    " cx="643.523" cy="77.439" r="7.486"/>
<circle opacity="0.85" fill="none" stroke="#FFFFFF" stroke-width="0.75" enable-background="new    " cx="673.668" cy="25.339" r="7.486"/>
<line opacity="0.85" fill="none" stroke="#FFFFFF" stroke-width="0.75" enable-background="new    " x1="622.222" y1="25.339" x2="666.183" y2="25.339"/>
<line opacity="0.85" fill="none" stroke="#FFFFFF" stroke-width="0.75" enable-background="new    " x1="647.271" y1="70.96" x2="669.92" y2="31.819"/>
<circle opacity="0.85" fill="none" stroke="#FFFFFF" stroke-width="0.75" enable-background="new    " cx="562.634" cy="55.618" r="7.486"/>
<line opacity="0.85" fill="none" stroke="#FFFFFF" stroke-width="0.75" enable-background="new    " x1="569.113" y1="51.869" x2="608.256" y2="29.219"/>
<line opacity="0.85" fill="none" stroke="#FFFFFF" stroke-width="0.75" enable-background="new    " x1="719.214" y1="0.171" x2="680.219" y2="21.718"/>
<path opacity="0.85" fill="none" stroke="#FFFFFF" stroke-width="0.75" enable-background="new    " d="M614.733,17.853
	c4.136,0,7.486,3.352,7.486,7.486c0,4.134-3.353,7.486-7.486,7.486c-4.135,0-7.485-3.352-7.485-7.486
	C607.248,21.205,610.601,17.853,614.733,17.853z"/>
<circle opacity="0.85" fill="none" stroke="#FFFFFF" stroke-width="0.75" enable-background="new    " cx="324.662" cy="459.803" r="7.486"/>
<circle opacity="0.85" fill="none" stroke="#FFFFFF" stroke-width="0.75" enable-background="new    " cx="294.518" cy="407.704" r="7.486"/>
<line opacity="0.85" fill="none" stroke="#FFFFFF" stroke-width="0.75" enable-background="new    " x1="345.963" y1="407.704" x2="302.002" y2="407.704"/>
<line opacity="0.85" fill="none" stroke="#FFFFFF" stroke-width="0.75" enable-background="new    " x1="320.912" y1="453.324" x2="298.265" y2="414.182"/>
<line opacity="0.85" fill="none" stroke="#FFFFFF" stroke-width="0.75" enable-background="new    " x1="399.072" y1="434.233" x2="359.929" y2="411.583"/>
<line opacity="0.85" fill="none" stroke="#FFFFFF" stroke-width="0.75" enable-background="new    " x1="248.971" y1="382.536" x2="287.966" y2="404.083"/>
<path opacity="0.85" fill="none" stroke="#FFFFFF" stroke-width="0.75" enable-background="new    " d="M353.451,400.217
	c-4.137,0-7.488,3.354-7.488,7.486s3.354,7.486,7.488,7.486c4.133,0,7.482-3.354,7.482-7.486S357.584,400.217,353.451,400.217z"/>
<circle opacity="0.85" fill="none" stroke="#FFFFFF" stroke-width="0.75" enable-background="new    " cx="895.63" cy="197.173" r="7.486"/>
<circle opacity="0.85" fill="none" stroke="#FFFFFF" stroke-width="0.75" enable-background="new    " cx="925.775" cy="249.273" r="7.487"/>
<line opacity="0.85" fill="none" stroke="#FFFFFF" stroke-width="0.75" enable-background="new    " x1="874.329" y1="249.273" x2="918.291" y2="249.273"/>
<line opacity="0.85" fill="none" stroke="#FFFFFF" stroke-width="0.75" enable-background="new    " x1="899.38" y1="203.654" x2="922.027" y2="242.794"/>
<circle opacity="0.85" fill="none" stroke="#FFFFFF" stroke-width="0.75" enable-background="new    " cx="814.742" cy="218.996" r="7.485"/>
<line opacity="0.85" fill="none" stroke="#FFFFFF" stroke-width="0.75" enable-background="new    " x1="821.22" y1="222.744" x2="860.364" y2="245.395"/>
<line opacity="0.85" fill="none" stroke="#FFFFFF" stroke-width="0.75" enable-background="new    " x1="971.322" y1="274.441" x2="932.326" y2="252.895"/>
<path opacity="0.85" fill="none" stroke="#FFFFFF" stroke-width="0.75" enable-background="new    " d="M866.841,256.76
	c4.138,0,7.488-3.352,7.488-7.486c0-4.133-3.354-7.485-7.488-7.485c-4.133,0-7.482,3.353-7.482,7.485
	C859.357,253.409,862.708,256.76,866.841,256.76z"/>
<circle opacity="0.85" fill="none" stroke="#FFFFFF" stroke-width="0.75" enable-background="new    " cx="799.527" cy="111.341" r="7.487"/>
<circle opacity="0.85" fill="none" stroke="#FFFFFF" stroke-width="0.75" enable-background="new    " cx="836.379" cy="415.772" r="7.487"/>
<line opacity="0.85" fill="none" stroke="#FFFFFF" stroke-width="0.75" enable-background="new    " x1="910.65" y1="28.443" x2="910.564" y2="73.711"/>
<line opacity="0.85" fill="none" stroke="#FFFFFF" stroke-width="0.75" enable-background="new    " x1="488.189" y1="229.865" x2="488.189" y2="185.902"/>
<line opacity="0.85" fill="none" stroke="#FFFFFF" stroke-width="0.75" enable-background="new    " x1="308.754" y1="73.848" x2="308.754" y2="117.81"/>
<line opacity="0.85" fill="none" stroke="#FFFFFF" stroke-width="0.75" enable-background="new    " x1="368.34" y1="95.149" x2="412.407" y2="95.149"/>
<line fill="none" stroke="#FFFFFF" stroke-width="0.75" x1="689.146" y1="110.919" x2="733.108" y2="110.919"/>
<line fill="none" stroke="#FFFFFF" stroke-width="0.75" x1="820.082" y1="22.459" x2="820.082" y2="0.171"/>
<line fill="none" stroke="#FFFFFF" stroke-width="0.75" x1="987.612" y1="384.229" x2="1000" y2="384.229"/>
<g id="Layer_7" display="none">
	<circle display="inline" fill="none" stroke="#CCDD59" cx="377.156" cy="267.571" r="5.24"/>
	<circle display="inline" fill="none" stroke="#CCDD59" cx="488.189" cy="237.351" r="5.24"/>
	<circle display="inline" fill="none" stroke="#CCDD59" cx="577.246" cy="230.515" r="5.24"/>
	<circle display="inline" fill="none" stroke="#CCDD59" cx="429.258" cy="237.424" r="5.24"/>
	<path display="inline" fill="none" stroke="#CCDD59" d="M242.668,373.161c2.895,0,5.242,2.344,5.242,5.239
		c0,2.894-2.348,5.238-5.242,5.238c-2.893,0-5.238-2.347-5.238-5.238C237.43,375.504,239.775,373.161,242.668,373.161z"/>
	<path display="inline" fill="none" stroke="#CCDD59" d="M190.913,403.694c2.895,0,5.242,2.344,5.242,5.238
		s-2.348,5.238-5.242,5.238c-2.893,0-5.238-2.346-5.238-5.238C185.675,406.038,188.021,403.694,190.913,403.694z"/>
	<path display="inline" fill="none" stroke="#CCDD59" d="M138.67,433.601c2.895,0,5.242,2.346,5.242,5.24s-2.348,5.238-5.242,5.238
		c-2.893,0-5.238-2.346-5.238-5.238C133.432,435.945,135.778,433.601,138.67,433.601z"/>
	<circle display="inline" fill="none" stroke="#CCDD59" cx="629.695" cy="200.37" r="5.241"/>
	<circle display="inline" fill="none" stroke="#CCDD59" cx="747.429" cy="200.398" r="5.24"/>
	<circle display="inline" fill="none" stroke="#CCDD59" cx="688.494" cy="200.398" r="5.24"/>
	<circle display="inline" fill="none" stroke="#CCDD59" cx="910.562" cy="81.196" r="5.24"/>
	<circle display="inline" fill="none" stroke="#CCDD59" cx="851.628" cy="81.196" r="5.239"/>
	<circle display="inline" fill="none" stroke="#CCDD59" cx="324.918" cy="297.479" r="5.24"/>
	<circle display="inline" fill="none" stroke="#CCDD59" cx="518.334" cy="289.45" r="5.24"/>
	<circle display="inline" fill="none" stroke="#CCDD59" cx="577.247" cy="289.45" r="5.241"/>
	<circle display="inline" fill="none" stroke="#CCDD59" cx="272.815" cy="326.301" r="5.241"/>
	<circle display="inline" fill="none" stroke="#CCDD59" cx="799.527" cy="170.254" r="5.24"/>
	<circle display="inline" fill="none" stroke="#CCDD59" cx="799.527" cy="111.341" r="5.24"/>
	<circle display="inline" fill="none" stroke="#CCDD59" cx="910.65" cy="20.958" r="5.24"/>
</g>
<g id="Layer_5" display="none">
	<circle display="inline" fill="none" stroke="#FFFFFF" stroke-width="0.75" cx="377.157" cy="267.57" r="10.481"/>
	<circle display="inline" fill="none" stroke="#FFFFFF" stroke-width="0.75" cx="488.188" cy="237.351" r="10.48"/>
	<path display="inline" fill="none" stroke="#FFFFFF" stroke-width="0.75" d="M577.246,240.996c5.788,0,10.479-4.689,10.479-10.48
		c0-5.787-4.691-10.48-10.479-10.48s-10.48,4.693-10.48,10.48C566.766,236.307,571.458,240.996,577.246,240.996z"/>
	<path display="inline" fill="none" stroke="#FFFFFF" stroke-width="0.75" d="M418.775,237.424c0,5.791,4.691,10.48,10.479,10.48
		s10.481-4.689,10.481-10.48c0-5.787-4.693-10.48-10.481-10.48S418.775,231.637,418.775,237.424z"/>
	<path display="inline" fill="none" stroke="#FFFFFF" stroke-width="0.75" d="M242.668,367.92c5.788,0,10.48,4.689,10.48,10.48
		c0,5.787-4.692,10.479-10.48,10.479c-5.787,0-10.479-4.691-10.479-10.479C232.189,372.609,236.881,367.92,242.668,367.92z"/>
	<path display="inline" fill="none" stroke="#FFFFFF" stroke-width="0.75" d="M190.914,398.454c5.788,0,10.48,4.688,10.48,10.479
		c0,5.787-4.692,10.479-10.48,10.479c-5.787,0-10.479-4.691-10.479-10.479C180.436,403.143,185.127,398.454,190.914,398.454z"/>
	<path display="inline" fill="none" stroke="#FFFFFF" stroke-width="0.75" d="M138.671,428.361c5.788,0,10.48,4.688,10.48,10.479
		c0,5.787-4.692,10.479-10.48,10.479c-5.787,0-10.479-4.691-10.479-10.479C128.193,433.05,132.884,428.361,138.671,428.361z"/>
	<path display="inline" fill="none" stroke="#FFFFFF" stroke-width="0.75" d="M640.176,200.37c0-5.791-4.691-10.48-10.479-10.48
		s-10.481,4.689-10.481,10.48c0,5.787,4.693,10.479,10.481,10.479S640.176,206.157,640.176,200.37z"/>
	<path display="inline" fill="none" stroke="#FFFFFF" stroke-width="0.75" d="M736.949,200.398c0,5.79,4.688,10.481,10.479,10.481
		c5.786,0,10.479-4.691,10.479-10.481c0-5.789-4.693-10.481-10.479-10.481C741.639,189.917,736.949,194.61,736.949,200.398z"/>
	<circle display="inline" fill="none" stroke="#FFFFFF" stroke-width="0.75" cx="688.494" cy="200.398" r="10.48"/>
	<circle display="inline" fill="none" stroke="#FFFFFF" stroke-width="0.75" cx="910.562" cy="81.195" r="10.481"/>
	<circle display="inline" fill="none" stroke="#FFFFFF" stroke-width="0.75" cx="910.65" cy="20.957" r="10.481"/>
	<path display="inline" fill="none" stroke="#FFFFFF" stroke-width="0.75" d="M862.107,81.196c0-5.791-4.691-10.482-10.48-10.482
		c-5.787,0-10.479,4.691-10.479,10.482c0,5.785,4.689,10.481,10.479,10.481S862.107,86.981,862.107,81.196z"/>
	<circle display="inline" fill="none" stroke="#FFFFFF" stroke-width="0.75" cx="324.918" cy="297.479" r="10.48"/>
	<path display="inline" fill="none" stroke="#FFFFFF" stroke-width="0.75" d="M528.814,289.45c0-5.787-4.693-10.479-10.48-10.479
		c-5.792,0-10.479,4.692-10.479,10.479c0,5.789,4.688,10.481,10.479,10.481C524.121,299.932,528.814,295.239,528.814,289.45z"/>
	<circle display="inline" fill="none" stroke="#FFFFFF" stroke-width="0.75" cx="577.247" cy="289.45" r="10.481"/>
	<path display="inline" fill="none" stroke="#FFFFFF" stroke-width="0.75" d="M262.334,326.301c0-5.791,4.693-10.482,10.48-10.482
		c5.789,0,10.481,4.691,10.481,10.482c0,5.785-4.692,10.48-10.481,10.48C267.027,336.782,262.334,332.086,262.334,326.301z"/>
	<circle display="inline" fill="none" stroke="#FFFFFF" stroke-width="0.75" cx="799.527" cy="170.254" r="10.481"/>
	<circle display="inline" fill="none" stroke="#FFFFFF" stroke-width="0.75" cx="799.527" cy="111.341" r="10.481"/>
</g>
<g id="Layer_9" display="none">
	
		<circle display="inline" opacity="0.15" fill="none" stroke="#CCDD59" stroke-width="8" enable-background="new    " cx="377.158" cy="267.569" r="14.674"/>
	
		<circle display="inline" opacity="0.15" fill="none" stroke="#CCDD59" stroke-width="8" enable-background="new    " cx="488.188" cy="237.351" r="14.673"/>
	<path display="inline" opacity="0.15" fill="none" stroke="#CCDD59" stroke-width="8" enable-background="new    " d="
		M577.246,245.188c8.104,0,14.674-6.562,14.674-14.67c0-8.101-6.57-14.672-14.674-14.672c-8.104,0-14.673,6.571-14.673,14.672
		C562.573,238.624,569.143,245.188,577.246,245.188z"/>
	<path display="inline" opacity="0.15" fill="none" stroke="#CCDD59" stroke-width="8" enable-background="new    " d="
		M414.582,237.424c0,8.108,6.57,14.672,14.675,14.672s14.673-6.562,14.673-14.672c0-8.101-6.568-14.672-14.673-14.672
		S414.582,229.323,414.582,237.424z"/>
	<path display="inline" opacity="0.15" fill="none" stroke="#CCDD59" stroke-width="8" enable-background="new    " d="
		M242.668,363.729c8.104,0,14.674,6.566,14.674,14.674c0,8.102-6.57,14.672-14.674,14.672s-14.67-6.57-14.67-14.672
		C227.998,370.295,234.564,363.729,242.668,363.729z"/>
	<path display="inline" opacity="0.15" fill="none" stroke="#CCDD59" stroke-width="8" enable-background="new    " d="
		M190.913,394.261c8.104,0,14.674,6.566,14.674,14.674c0,8.102-6.57,14.672-14.674,14.672s-14.67-6.57-14.67-14.672
		C176.243,400.828,182.81,394.261,190.913,394.261z"/>
	<path display="inline" opacity="0.15" fill="none" stroke="#CCDD59" stroke-width="8" enable-background="new    " d="
		M138.67,424.168c8.104,0,14.674,6.566,14.674,14.674c0,8.102-6.57,14.67-14.674,14.67S124,446.942,124,438.842
		C124,430.735,130.567,424.168,138.67,424.168z"/>
	<path display="inline" opacity="0.15" fill="none" stroke="#CCDD59" stroke-width="8" enable-background="new    " d="
		M644.369,200.37c0-8.107-6.57-14.671-14.675-14.671s-14.673,6.564-14.673,14.671c0,8.102,6.568,14.67,14.673,14.67
		S644.369,208.472,644.369,200.37z"/>
	<path display="inline" opacity="0.15" fill="none" stroke="#CCDD59" stroke-width="8" enable-background="new    " d="
		M732.758,200.398c0,8.106,6.564,14.673,14.673,14.673c8.103,0,14.671-6.567,14.671-14.673c0-8.104-6.568-14.673-14.671-14.673
		C739.322,185.725,732.758,192.295,732.758,200.398z"/>
	
		<circle display="inline" opacity="0.15" fill="none" stroke="#CCDD59" stroke-width="8" enable-background="new    " cx="688.494" cy="200.398" r="14.672"/>
	
		<circle display="inline" opacity="0.15" fill="none" stroke="#CCDD59" stroke-width="8" enable-background="new    " cx="910.562" cy="81.196" r="14.674"/>
	
		<circle display="inline" opacity="0.15" fill="none" stroke="#CCDD59" stroke-width="8" enable-background="new    " cx="910.65" cy="20.957" r="14.674"/>
	<path display="inline" opacity="0.15" fill="none" stroke="#CCDD59" stroke-width="8" enable-background="new    " d="
		M866.299,81.196c0-8.108-6.566-14.675-14.672-14.675c-8.104,0-14.67,6.567-14.67,14.675c0,8.098,6.566,14.673,14.67,14.673
		C859.731,95.869,866.299,89.294,866.299,81.196z"/>
	
		<circle display="inline" opacity="0.15" fill="none" stroke="#CCDD59" stroke-width="8" enable-background="new    " cx="324.92" cy="297.479" r="14.672"/>
	<path display="inline" opacity="0.15" fill="none" stroke="#CCDD59" stroke-width="8" enable-background="new    " d="
		M533.007,289.45c0-8.101-6.571-14.671-14.673-14.671c-8.108,0-14.674,6.57-14.674,14.671c0,8.104,6.563,14.674,14.674,14.674
		C526.436,304.124,533.007,297.555,533.007,289.45z"/>
	
		<circle display="inline" opacity="0.15" fill="none" stroke="#CCDD59" stroke-width="8" enable-background="new    " cx="577.247" cy="289.45" r="14.673"/>
	<path display="inline" opacity="0.15" fill="none" stroke="#CCDD59" stroke-width="8" enable-background="new    " d="
		M258.142,326.301c0-8.107,6.571-14.675,14.673-14.675c8.105,0,14.674,6.567,14.674,14.675c0,8.1-6.568,14.674-14.674,14.674
		C264.713,340.975,258.142,334.4,258.142,326.301z"/>
	
		<circle display="inline" opacity="0.15" fill="none" stroke="#CCDD59" stroke-width="8" enable-background="new    " cx="799.527" cy="170.254" r="14.673"/>
	
		<circle display="inline" opacity="0.15" fill="none" stroke="#CCDD59" stroke-width="8" enable-background="new    " cx="799.527" cy="111.341" r="14.673"/>
</g>
</svg>
