<?xml version="1.0" encoding="utf-8"?>
<!-- Generator: Adobe Illustrator 14.0.0, SVG Export Plug-In . SVG Version: 6.00 Build 43363)  -->
<!DOCTYPE svg PUBLIC "-//W3C//DTD SVG 1.1//EN" "http://www.w3.org/Graphics/SVG/1.1/DTD/svg11.dtd">
<svg version="1.1" id="Layer_7" xmlns="http://www.w3.org/2000/svg" xmlns:xlink="http://www.w3.org/1999/xlink" x="0px" y="0px"
	 width="1000px" height="470px" viewBox="0 0 1000 470" enable-background="new 0 0 1000 470" xml:space="preserve">
<circle fill="none" stroke="#CCDD59" cx="377.156" cy="267.571" r="5.24"/>
<circle fill="none" stroke="#CCDD59" cx="488.189" cy="237.351" r="5.24"/>
<circle fill="none" stroke="#CCDD59" cx="577.246" cy="230.515" r="5.24"/>
<circle fill="none" stroke="#CCDD59" cx="429.258" cy="237.424" r="5.24"/>
<path fill="none" stroke="#CCDD59" d="M242.668,373.161c2.895,0,5.242,2.344,5.242,5.24c0,2.893-2.348,5.238-5.242,5.238
	c-2.893,0-5.238-2.346-5.238-5.238C237.43,375.504,239.775,373.161,242.668,373.161z"/>
<path fill="none" stroke="#CCDD59" d="M190.913,403.694c2.895,0,5.242,2.344,5.242,5.24c0,2.893-2.348,5.238-5.242,5.238
	c-2.893,0-5.238-2.346-5.238-5.238C185.675,406.038,188.021,403.694,190.913,403.694z"/>
<path fill="none" stroke="#CCDD59" d="M138.67,433.601c2.895,0,5.242,2.344,5.242,5.24c0,2.893-2.348,5.238-5.242,5.238
	c-2.893,0-5.238-2.346-5.238-5.238C133.432,435.945,135.778,433.601,138.67,433.601z"/>
<circle fill="none" stroke="#CCDD59" cx="629.695" cy="200.37" r="5.241"/>
<circle fill="none" stroke="#CCDD59" cx="747.429" cy="200.398" r="5.24"/>
<circle fill="none" stroke="#CCDD59" cx="688.494" cy="200.398" r="5.24"/>
<circle fill="none" stroke="#CCDD59" cx="910.562" cy="81.196" r="5.24"/>
<circle fill="none" stroke="#CCDD59" cx="851.628" cy="81.196" r="5.239"/>
<circle fill="none" stroke="#CCDD59" cx="324.918" cy="297.479" r="5.24"/>
<circle fill="none" stroke="#CCDD59" cx="518.334" cy="289.45" r="5.24"/>
<circle fill="none" stroke="#CCDD59" cx="577.247" cy="289.45" r="5.241"/>
<circle fill="none" stroke="#CCDD59" cx="272.815" cy="326.301" r="5.241"/>
<circle fill="none" stroke="#CCDD59" cx="799.527" cy="170.254" r="5.24"/>
<circle fill="none" stroke="#CCDD59" cx="799.527" cy="111.341" r="5.24"/>
<circle fill="none" stroke="#CCDD59" cx="910.65" cy="20.958" r="5.24"/>
</svg>
