<?xml version="1.0" encoding="utf-8"?>
<!-- Generator: Adobe Illustrator 14.0.0, SVG Export Plug-In . SVG Version: 6.00 Build 43363)  -->
<!DOCTYPE svg PUBLIC "-//W3C//DTD SVG 1.1//EN" "http://www.w3.org/Graphics/SVG/1.1/DTD/svg11.dtd">
<svg version="1.1" id="Layer_5" xmlns="http://www.w3.org/2000/svg" xmlns:xlink="http://www.w3.org/1999/xlink" x="0px" y="0px"
	 width="1000px" height="470px" viewBox="0 0 1000 470" enable-background="new 0 0 1000 470" xml:space="preserve">
<circle fill="none" stroke="#FFFFFF" stroke-width="0.75" cx="377.157" cy="267.57" r="10.481"/>
<circle fill="none" stroke="#FFFFFF" stroke-width="0.75" cx="488.188" cy="237.351" r="10.48"/>
<path fill="none" stroke="#FFFFFF" stroke-width="0.75" d="M577.246,240.996c5.788,0,10.481-4.689,10.481-10.48
	c0-5.787-4.693-10.48-10.481-10.48s-10.48,4.693-10.48,10.48C566.766,236.307,571.458,240.996,577.246,240.996z"/>
<path fill="none" stroke="#FFFFFF" stroke-width="0.75" d="M418.775,237.424c0,5.791,4.693,10.48,10.481,10.48
	s10.481-4.689,10.481-10.48c0-5.787-4.693-10.48-10.481-10.48S418.775,231.637,418.775,237.424z"/>
<path fill="none" stroke="#FFFFFF" stroke-width="0.75" d="M242.668,367.92c5.788,0,10.48,4.689,10.48,10.48
	c0,5.787-4.692,10.479-10.48,10.479c-5.787,0-10.479-4.691-10.479-10.479C232.189,372.61,236.881,367.92,242.668,367.92z"/>
<path fill="none" stroke="#FFFFFF" stroke-width="0.75" d="M190.914,398.454c5.788,0,10.48,4.689,10.48,10.48
	c0,5.787-4.692,10.479-10.48,10.479c-5.787,0-10.479-4.691-10.479-10.479C180.436,403.143,185.127,398.454,190.914,398.454z"/>
<path fill="none" stroke="#FFFFFF" stroke-width="0.75" d="M138.671,428.361c5.788,0,10.48,4.689,10.48,10.48
	c0,5.787-4.692,10.479-10.48,10.479c-5.787,0-10.479-4.691-10.479-10.479C128.193,433.05,132.884,428.361,138.671,428.361z"/>
<path fill="none" stroke="#FFFFFF" stroke-width="0.75" d="M640.176,200.37c0-5.791-4.693-10.48-10.481-10.48
	s-10.481,4.689-10.481,10.48c0,5.787,4.693,10.479,10.481,10.479S640.176,206.157,640.176,200.37z"/>
<path fill="none" stroke="#FFFFFF" stroke-width="0.75" d="M736.949,200.398c0,5.79,4.689,10.481,10.48,10.481
	c5.786,0,10.479-4.691,10.479-10.481c0-5.789-4.693-10.481-10.479-10.481C741.639,189.917,736.949,194.61,736.949,200.398z"/>
<circle fill="none" stroke="#FFFFFF" stroke-width="0.75" cx="688.494" cy="200.398" r="10.48"/>
<circle fill="none" stroke="#FFFFFF" stroke-width="0.75" cx="910.562" cy="81.195" r="10.481"/>
<circle fill="none" stroke="#FFFFFF" stroke-width="0.75" cx="910.65" cy="20.957" r="10.481"/>
<path fill="none" stroke="#FFFFFF" stroke-width="0.75" d="M862.107,81.196c0-5.791-4.691-10.482-10.48-10.482
	c-5.787,0-10.479,4.691-10.479,10.482c0,5.785,4.691,10.481,10.479,10.481C857.416,91.677,862.107,86.981,862.107,81.196z"/>
<circle fill="none" stroke="#FFFFFF" stroke-width="0.75" cx="324.918" cy="297.479" r="10.48"/>
<path fill="none" stroke="#FFFFFF" stroke-width="0.75" d="M528.814,289.45c0-5.787-4.693-10.48-10.48-10.48
	c-5.792,0-10.481,4.693-10.481,10.48c0,5.789,4.69,10.481,10.481,10.481C524.121,299.931,528.814,295.239,528.814,289.45z"/>
<circle fill="none" stroke="#FFFFFF" stroke-width="0.75" cx="577.247" cy="289.45" r="10.481"/>
<path fill="none" stroke="#FFFFFF" stroke-width="0.75" d="M262.334,326.301c0-5.791,4.693-10.482,10.48-10.482
	c5.789,0,10.481,4.691,10.481,10.482c0,5.785-4.692,10.48-10.481,10.48C267.027,336.782,262.334,332.086,262.334,326.301z"/>
<circle fill="none" stroke="#FFFFFF" stroke-width="0.75" cx="799.527" cy="170.254" r="10.481"/>
<circle fill="none" stroke="#FFFFFF" stroke-width="0.75" cx="799.527" cy="111.341" r="10.481"/>
</svg>
