<?xml version="1.0" encoding="utf-8"?>
<!-- Generator: Adobe Illustrator 14.0.0, SVG Export Plug-In . SVG Version: 6.00 Build 43363)  -->
<!DOCTYPE svg PUBLIC "-//W3C//DTD SVG 1.1//EN" "http://www.w3.org/Graphics/SVG/1.1/DTD/svg11.dtd">
<svg version="1.1" xmlns="http://www.w3.org/2000/svg" xmlns:xlink="http://www.w3.org/1999/xlink" x="0px" y="0px" width="1000px"
	 height="470px" viewBox="0 0 1000 470" enable-background="new 0 0 1000 470" xml:space="preserve">
<g id="Layer_5">
	<circle fill="none" stroke="#FFFFFF" stroke-width="0.75" cx="622.843" cy="267.57" r="10.481"/>
	<circle fill="none" stroke="#FFFFFF" stroke-width="0.75" cx="511.812" cy="237.351" r="10.48"/>
	<path fill="none" stroke="#FFFFFF" stroke-width="0.75" d="M422.753,240.996c-5.788,0-10.481-4.689-10.481-10.48
		c0-5.787,4.693-10.48,10.481-10.48c5.789,0,10.481,4.693,10.481,10.48C433.234,236.307,428.542,240.996,422.753,240.996z"/>
	<path fill="none" stroke="#FFFFFF" stroke-width="0.75" d="M581.225,237.424c0,5.791-4.693,10.48-10.481,10.48
		s-10.481-4.689-10.481-10.48c0-5.787,4.693-10.48,10.481-10.48S581.225,231.637,581.225,237.424z"/>
	<path fill="none" stroke="#FFFFFF" stroke-width="0.75" d="M757.332,367.92c-5.788,0-10.48,4.689-10.48,10.48
		c0,5.787,4.692,10.479,10.48,10.479c5.787,0,10.479-4.691,10.479-10.479C767.811,372.61,763.119,367.92,757.332,367.92z"/>
	<path fill="none" stroke="#FFFFFF" stroke-width="0.75" d="M359.824,200.37c0-5.791,4.693-10.48,10.482-10.48
		c5.788,0,10.481,4.689,10.481,10.48c0,5.787-4.693,10.479-10.481,10.479C364.517,210.849,359.824,206.157,359.824,200.37z"/>
	<path fill="none" stroke="#FFFFFF" stroke-width="0.75" d="M798.016,325.959c0,5.788-4.688,10.48-10.48,10.48
		c-5.787,0-10.48-4.692-10.48-10.48c0-5.789,4.693-10.481,10.48-10.481C793.327,315.478,798.016,320.17,798.016,325.959z"/>
	<path fill="none" stroke="#FFFFFF" stroke-width="0.75" d="M909.049,356.104c0,5.791-4.69,10.48-10.479,10.48
		c-5.789,0-10.479-4.689-10.479-10.48c0-5.786,4.689-10.481,10.479-10.481C904.358,345.623,909.049,350.318,909.049,356.104z"/>
	<path fill="none" stroke="#FFFFFF" stroke-width="0.75" d="M961.289,386.012c0,5.791-4.69,10.48-10.479,10.48
		c-5.789,0-10.479-4.689-10.479-10.48c0-5.786,4.689-10.481,10.479-10.481C956.599,375.531,961.289,380.226,961.289,386.012z"/>
	<path fill="none" stroke="#FFFFFF" stroke-width="0.75" d="M263.051,200.398c0,5.79-4.69,10.481-10.481,10.481
		c-5.786,0-10.479-4.691-10.479-10.481c0-5.789,4.693-10.481,10.479-10.481C258.361,189.917,263.051,194.61,263.051,200.398z"/>
	<circle fill="none" stroke="#FFFFFF" stroke-width="0.75" cx="311.506" cy="200.398" r="10.48"/>
	<circle fill="none" stroke="#FFFFFF" stroke-width="0.75" cx="89.438" cy="81.195" r="10.481"/>
	<circle fill="none" stroke="#FFFFFF" stroke-width="0.75" cx="37.338" cy="51.05" r="10.481"/>
	<path fill="none" stroke="#FFFFFF" stroke-width="0.75" d="M137.893,81.196c0-5.791,4.692-10.482,10.48-10.482
		c5.788,0,10.478,4.691,10.478,10.482c0,5.785-4.69,10.481-10.478,10.481C142.584,91.677,137.893,86.981,137.893,81.196z"/>
	<circle fill="none" stroke="#FFFFFF" stroke-width="0.75" cx="675.082" cy="297.479" r="10.48"/>
	<circle fill="none" stroke="#FFFFFF" stroke-width="0.75" cx="481.667" cy="289.45" r="10.481"/>
	<circle fill="none" stroke="#FFFFFF" stroke-width="0.75" cx="422.753" cy="289.45" r="10.481"/>
	<path fill="none" stroke="#FFFFFF" stroke-width="0.75" d="M737.666,326.301c0-5.791-4.693-10.482-10.48-10.482
		c-5.789,0-10.481,4.691-10.481,10.482c0,5.785,4.692,10.48,10.481,10.48C732.973,336.782,737.666,332.086,737.666,326.301z"/>
	<circle fill="none" stroke="#FFFFFF" stroke-width="0.75" cx="846.471" cy="325.959" r="10.481"/>
	<circle fill="none" stroke="#FFFFFF" stroke-width="0.75" cx="200.473" cy="170.254" r="10.481"/>
	<circle fill="none" stroke="#FFFFFF" stroke-width="0.75" cx="200.472" cy="111.341" r="10.481"/>
</g>
<g id="Layer_6">
	<circle fill="none" stroke="#FFFFFF" stroke-width="0.25" cx="622.842" cy="267.569" r="14.674"/>
	<circle fill="none" stroke="#FFFFFF" stroke-width="0.25" cx="511.812" cy="237.351" r="14.673"/>
	<path fill="none" stroke="#FFFFFF" stroke-width="0.25" d="M422.753,245.188c-8.103,0-14.673-6.564-14.673-14.672
		c0-8.101,6.571-14.672,14.673-14.672c8.104,0,14.673,6.571,14.673,14.672C437.427,238.624,430.858,245.188,422.753,245.188z"/>
	<path fill="none" stroke="#FFFFFF" stroke-width="0.25" d="M585.418,237.424c0,8.108-6.57,14.672-14.675,14.672
		c-8.103,0-14.673-6.564-14.673-14.672c0-8.101,6.57-14.672,14.673-14.672C578.848,222.752,585.418,229.323,585.418,237.424z"/>
	<path fill="none" stroke="#FFFFFF" stroke-width="0.25" d="M757.332,363.729c-8.104,0-14.674,6.566-14.674,14.674
		c0,8.1,6.57,14.67,14.674,14.67s14.67-6.57,14.67-14.67C772.002,370.295,765.436,363.729,757.332,363.729z"/>
	<path fill="none" stroke="#FFFFFF" stroke-width="0.25" d="M355.631,200.37c0-8.107,6.571-14.671,14.675-14.671
		c8.103,0,14.673,6.564,14.673,14.671c0,8.102-6.57,14.67-14.673,14.67C362.202,215.04,355.631,208.472,355.631,200.37z"/>
	<path fill="none" stroke="#FFFFFF" stroke-width="0.25" d="M802.207,325.959c0,8.104-6.563,14.673-14.672,14.673
		c-8.102,0-14.673-6.569-14.673-14.673s6.571-14.674,14.673-14.674C795.644,311.286,802.207,317.856,802.207,325.959z"/>
	<path fill="none" stroke="#FFFFFF" stroke-width="0.25" d="M913.24,356.104c0,8.107-6.566,14.673-14.67,14.673
		s-14.67-6.565-14.67-14.673c0-8.1,6.566-14.674,14.67-14.674S913.24,348.004,913.24,356.104z"/>
	<path fill="none" stroke="#FFFFFF" stroke-width="0.25" d="M965.482,386.012c0,8.107-6.566,14.673-14.67,14.673
		s-14.67-6.565-14.67-14.673c0-8.1,6.566-14.674,14.67-14.674S965.482,377.913,965.482,386.012z"/>
	<path fill="none" stroke="#FFFFFF" stroke-width="0.25" d="M267.243,200.398c0,8.106-6.565,14.673-14.673,14.673
		c-8.1,0-14.671-6.567-14.671-14.673c0-8.104,6.571-14.673,14.671-14.673C260.677,185.725,267.243,192.295,267.243,200.398z"/>
	<circle fill="none" stroke="#FFFFFF" stroke-width="0.25" cx="311.506" cy="200.398" r="14.672"/>
	<circle fill="none" stroke="#FFFFFF" stroke-width="0.25" cx="89.438" cy="81.196" r="14.674"/>
	<circle fill="none" stroke="#FFFFFF" stroke-width="0.25" cx="37.338" cy="51.051" r="14.674"/>
	<path fill="none" stroke="#FFFFFF" stroke-width="0.25" d="M133.701,81.196c0-8.108,6.568-14.675,14.672-14.675
		c8.103,0,14.669,6.567,14.669,14.675c0,8.098-6.566,14.673-14.669,14.673C140.27,95.87,133.701,89.294,133.701,81.196z"/>
	<circle fill="none" stroke="#FFFFFF" stroke-width="0.25" cx="675.08" cy="297.479" r="14.672"/>
	<path fill="none" stroke="#FFFFFF" stroke-width="0.25" d="M466.993,289.45c0-8.101,6.571-14.671,14.673-14.671
		c8.108,0,14.673,6.57,14.673,14.671c0,8.105-6.565,14.674-14.673,14.674C473.564,304.124,466.993,297.555,466.993,289.45z"/>
	<circle fill="none" stroke="#FFFFFF" stroke-width="0.25" cx="422.753" cy="289.45" r="14.673"/>
	<path fill="none" stroke="#FFFFFF" stroke-width="0.25" d="M741.858,326.301c0-8.107-6.571-14.675-14.673-14.675
		c-8.105,0-14.674,6.567-14.674,14.675c0,8.099,6.568,14.674,14.674,14.674C735.287,340.975,741.858,334.4,741.858,326.301z"/>
	<circle fill="none" stroke="#FFFFFF" stroke-width="0.25" cx="846.471" cy="325.959" r="14.673"/>
	<circle fill="none" stroke="#FFFFFF" stroke-width="0.25" cx="200.473" cy="170.254" r="14.673"/>
	<circle fill="none" stroke="#FFFFFF" stroke-width="0.25" cx="200.472" cy="111.341" r="14.673"/>
</g>
</svg>
