<?xml version="1.0" encoding="utf-8"?>
<!-- Generator: Adobe Illustrator 14.0.0, SVG Export Plug-In . SVG Version: 6.00 Build 43363)  -->
<!DOCTYPE svg PUBLIC "-//W3C//DTD SVG 1.1//EN" "http://www.w3.org/Graphics/SVG/1.1/DTD/svg11.dtd">
<svg version="1.1" id="Layer_1" xmlns="http://www.w3.org/2000/svg" xmlns:xlink="http://www.w3.org/1999/xlink" x="0px" y="0px"
	 width="50px" height="470px" viewBox="475 0 50 470" enable-background="new 475 0 50 470" xml:space="preserve">
<path fill="none" stroke="#CCDD59" d="M489.774,168.965c-1.238-2.734-4.396-11.271-4.396-11.271l-0.387-2.828l-0.645-2.189
	l-1.932-3.859l-3.348-9.525c0,0,0.129-2.316,0.645-2.961s2.188,0.77,2.188,0.77l4.119,8.881l2.314,2.959
	c0.922,0.896,1.289-0.127,1.289-0.127v-1.676c0,0-2.832-17.123-2.832-18.15c0-1.029,1.934-1.803,1.934-1.803
	c0.516-0.516,1.93,1.418,1.93,1.418l2.061,13.129l1.031,3.479c0.635,1.283,1.545,0.516,1.545,0.516l0.256-1.16l-0.256-5.148
	l-0.902-10.812c0,0,0.262-3.348,0.518-4.119c0.258-0.773,1.803-0.516,1.803-0.516l1.803,1.803
	c1.029,0.645,1.805,18.408,1.805,18.408c0.127,0.771,0.644,1.932,1.543,1.803c0.899-0.129,1.287-2.445,1.287-2.445s0-11.07,0-11.973
	c0-0.9,0.519-5.15,1.157-5.664c0.646-0.516,0.388-0.258,2.312,0c1.927,0.258,2.326,5.535,2.326,5.535s-0.771,15.062-0.901,20.094
	c-0.129,5.033,2.188,6.428,2.573,6.428s1.804-1.418,2.315-2.062c0.519-0.645,1.287-3.859,2.023-5.92
	c0.734-2.062,1.963-2.959,1.963-2.959l3.354-1.805c3.735-1.029,3.604,2.961,1.799,4.375c-1.805,1.416-4.764,9.27-4.764,9.27
	c-1.806,7.471-5.406,10.301-5.406,10.301s-3.733,3.725-7.644,4.52c-3.899,0.799-6.121,0.355-8.957,0.076
	C495.297,173.756,490.909,171.473,489.774,168.965z"/>
<path fill="none" stroke="#FFFFFF" stroke-width="1.5" d="M491.217,132.195l1.496,9.537l1.031,3.479
	c0.635,1.283,1.545,0.516,1.545,0.516l0.256-1.158l-0.256-5.15l-0.666-7.979c0,0,1.832-6.273,4.92,0.572l0.77,12.172
	c0.127,0.771,0.646,1.932,1.545,1.801c0.897-0.129,1.285-2.443,1.285-2.443s0-11.072,0-11.973c0,0,2.521-8.303,5.795-0.129
	c0,0-0.771,15.061-0.899,20.092c-0.132,5.033,2.188,6.428,2.571,6.428c0.388,0,1.806-1.416,2.315-2.062
	c0.519-0.645,1.287-3.859,2.023-5.92c0.734-2.062,1.963-2.959,1.963-2.959l3.354-1.805c3.735-1.029,3.604,2.961,1.801,4.375
	c-1.808,1.416-4.767,9.27-4.767,9.27c-1.801,7.473-5.401,10.303-5.401,10.303s-3.735,3.725-7.644,4.52
	c-3.901,0.799-6.121,0.355-8.957,0.076c-0.002-0.002-4.393-2.283-5.525-4.791c-1.238-2.736-4.396-11.271-4.396-11.271l-0.387-2.828
	l-0.645-2.188l-1.932-3.859l-2.184-6.215c0,0-1.373-5.92,2.887-2.873l2.9,6.252l2.314,2.961c0.922,0.895,1.289-0.129,1.289-0.129
	v-1.676l-2.234-13.865C487.387,133.275,487.553,127.947,491.217,132.195z"/>
<text transform="matrix(1 0 0 1 479.6855 188.0273)" fill="#AAD5C4" font-family="'PTSans-Narrow'" font-size="11">[B] SLOPE</text>
<path fill="none" stroke="#CCDD59" d="M489.776,248.064c-1.239-2.734-4.398-11.271-4.398-11.271l-0.385-2.83l-0.646-2.189
	l-1.932-3.857l-3.348-9.525c0,0,0.13-2.316,0.645-2.961c0.516-0.646,2.188,0.771,2.188,0.771l4.117,8.879l2.315,2.961
	c0.921,0.896,1.289-0.127,1.289-0.127v-1.674c0,0-2.832-17.125-2.832-18.152c0-1.029,1.935-1.803,1.935-1.803
	c0.515-0.516,1.93,1.418,1.93,1.418l2.06,13.129l1.031,3.479c0.635,1.283,1.544,0.516,1.544,0.516l0.257-1.16l-0.257-5.148
	l-0.901-10.814c0,0,0.262-3.348,0.518-4.119c0.258-0.771,1.803-0.516,1.803-0.516l1.804,1.803c1.028,0.646,1.805,18.41,1.805,18.41
	c0.127,0.77,0.643,1.93,1.544,1.801c0.899-0.129,1.286-2.445,1.286-2.445s0-11.07,0-11.973c0-0.898,0.518-5.148,1.158-5.664
	c0.645-0.516,0.388-0.258,2.312,0c1.924,0.258,2.324,5.535,2.324,5.535s-0.773,15.062-0.904,20.094
	c-0.129,5.037,2.188,6.431,2.574,6.431c0.387,0,1.803-1.418,2.316-2.062c0.518-0.645,1.287-3.861,2.023-5.922
	c0.732-2.062,1.961-2.959,1.961-2.959l3.354-1.803c3.735-1.029,3.604,2.959,1.801,4.375c-1.808,1.416-4.767,9.27-4.767,9.27
	c-1.803,7.473-5.401,10.303-5.401,10.303s-3.735,3.725-7.644,4.521c-3.902,0.797-6.122,0.354-8.958,0.075
	C495.299,252.855,490.911,250.572,489.776,248.064z"/>
<path fill="none" stroke="#FFFFFF" stroke-width="1.5" d="M498.666,205.109l0.777,4.889l0.567,7.568l0.303,5.717
	c0.128,0.771,0.645,1.932,1.546,1.801c0.899-0.129,1.286-2.443,1.286-2.443v-7.51l0.207-6.588c0,0,0.332-4.07,1.646-3.826
	c1.311,0.244,2.273,0.605,2.273,0.605s0.725,0.807,0.992,1.752c0.271,0.945,0.676,2.203,0.652,3.242
	c-0.022,1.039-0.477,10.404-0.477,10.404l-0.282,5.488l-0.122,4.422c-0.129,5.037,2.188,6.431,2.574,6.431
	c0.387,0,1.803-1.418,2.316-2.062c0.518-0.645,1.287-3.861,2.023-5.922c0.732-2.062,1.961-2.959,1.961-2.959l3.354-1.803
	c3.735-1.029,3.604,2.959,1.799,4.375s-4.765,9.27-4.765,9.27c-1.803,7.472-5.402,10.302-5.402,10.302s-3.734,3.725-7.643,4.521
	c-3.902,0.797-6.122,0.354-8.958,0.075c-0.002-0.002-4.392-2.284-5.524-4.793c-1.238-2.735-4.397-11.271-4.397-11.271l-0.385-2.828
	l-0.646-2.189l-1.931-3.859c0,0-0.991-5.633,3.604-2.836l2.314,2.961c0.922,0.896,1.289-0.127,1.289-0.127v-1.674l-0.842-3.602
	c0,0-0.511-5.186,3.932-1.807l1.031,3.479c0.635,1.283,1.544,0.516,1.544,0.516l0.257-1.16l-0.257-5.148l-0.649-7.793l-0.234-2.82
	l0.456-4.158C494.861,203.746,495.837,201.232,498.666,205.109z"/>
<text transform="matrix(1 0 0 1 476.7046 267.0625)" fill="#AAD5C4" font-family="'PTSans-Narrow'" font-size="11">[C] POCKET</text>
<text transform="matrix(1 0 0 1 481.8579 108.4609)" fill="#AAD5C4" font-family="'PTSans-Narrow'" font-size="11">[A] EDGE</text>
<path fill="none" stroke="#CCDD59" d="M489.776,89.943c-1.24-2.736-4.398-11.27-4.398-11.27l-0.385-2.828l-0.646-2.189l-1.93-3.859
	l-3.35-9.525c0,0,0.131-2.314,0.646-2.959c0.516-0.646,2.188,0.771,2.188,0.771l4.119,8.881l2.314,2.959
	c0.92,0.896,1.289-0.127,1.289-0.127v-1.676c0,0-2.832-17.123-2.832-18.15c0-1.029,1.934-1.803,1.934-1.803
	c0.514-0.518,1.93,1.416,1.93,1.416l2.061,13.131l1.029,3.479c0.637,1.283,1.545,0.516,1.545,0.516l0.258-1.158l-0.258-5.148
	l-0.903-10.814c0,0,0.262-3.35,0.518-4.119c0.258-0.773,1.803-0.516,1.803-0.516l1.803,1.803c1.029,0.645,1.805,18.408,1.805,18.408
	c0.127,0.771,0.643,1.934,1.543,1.803c0.9-0.129,1.287-2.443,1.287-2.443s0-11.07,0-11.975c0-0.898,0.516-5.15,1.158-5.664
	c0.645-0.516,0.387-0.258,2.311,0c1.924,0.258,2.324,5.535,2.324,5.535s-0.771,15.062-0.9,20.094
	c-0.129,5.035,2.188,6.428,2.574,6.428c0.385,0,1.803-1.416,2.316-2.061c0.518-0.646,1.287-3.863,2.023-5.922
	c0.733-2.062,1.963-2.959,1.963-2.959l3.354-1.805c3.733-1.029,3.603,2.959,1.797,4.375c-1.806,1.416-4.765,9.271-4.765,9.271
	c-1.801,7.471-5.403,10.302-5.403,10.302s-3.735,3.727-7.642,4.521c-3.901,0.797-6.121,0.354-8.958,0.074
	C495.299,94.734,490.909,92.451,489.776,89.943z"/>
<path fill="none" stroke="#FFFFFF" stroke-width="1.5" d="M508.037,72.51c-0.13,5.033,2.188,6.428,2.573,6.428
	s1.804-1.416,2.315-2.061c0.519-0.646,1.287-3.863,2.025-5.922c0.734-2.062,1.963-2.959,1.963-2.959l3.354-1.805
	c3.735-1.029,3.603,2.959,1.799,4.375c-1.806,1.416-4.765,9.271-4.765,9.271c-1.803,7.472-5.403,10.302-5.403,10.302
	s-3.735,3.725-7.644,4.521c-3.901,0.797-6.121,0.354-8.957,0.074c-0.002-0.002-4.393-2.281-5.525-4.791
	c-1.238-2.736-4.396-11.27-4.396-11.27l-0.387-2.828l-0.645-2.189l-1.932-3.859c0,0-0.992-5.631,3.605-2.836l2.314,2.961
	c0.92,0.896,1.289-0.127,1.289-0.127v-1.676l-0.844-3.602c0,0-0.51-5.186,3.934-1.809l1.031,3.479
	c0.635,1.283,1.545,0.516,1.545,0.516l0.256-1.158l-0.256-5.148c0,0,1.492-4.559,4.242-0.809l0.781,5.572
	c0.127,0.771,0.644,1.932,1.543,1.803c0.899-0.131,1.287-2.445,1.287-2.445l1.139-6.41c0,0,1.75-2.52,3-0.645
	s1.375,4.125,1.375,4.125l-0.5,6.5L508.037,72.51z"/>
<text transform="matrix(1 0 0 1 481.0161 346.1152)" fill="#AAD5C4" font-family="'PTSans-Narrow'" font-size="11">[D] PALM</text>
<path fill="none" stroke="#FFFFFF" stroke-width="1.5" d="M489.776,327.077c-1.24-2.736-4.398-11.271-4.398-11.271l-0.385-2.828
	l-0.646-2.188l-1.93-3.858l-3.35-9.527c0,0,0.131-2.313,0.646-2.959s2.188,0.771,2.188,0.771l4.119,8.882l2.314,2.961
	c0.922,0.896,1.289-0.127,1.289-0.127v-1.677c0,0-2.832-17.125-2.832-18.151s1.934-1.804,1.934-1.804
	c0.516-0.516,1.93,1.418,1.93,1.418l2.061,13.13l1.031,3.479c0.635,1.28,1.545,0.516,1.545,0.516l0.256-1.157l-0.256-5.147
	l-0.902-10.813c0,0,0.26-3.351,0.516-4.119c0.258-0.772,1.805-0.519,1.805-0.519l1.803,1.804c1.029,0.646,1.803,18.409,1.803,18.409
	c0.127,0.771,0.646,1.933,1.545,1.802c0.897-0.129,1.285-2.442,1.285-2.442s0-11.07,0-11.974c0-0.897,0.519-5.149,1.158-5.664
	c0.645-0.519,0.389-0.261,2.312,0c1.924,0.258,2.322,5.535,2.322,5.535s-0.77,15.062-0.9,20.092
	c-0.129,5.035,2.188,6.431,2.574,6.431c0.387,0,1.803-1.416,2.316-2.062c0.518-0.646,1.287-3.863,2.025-5.925
	c0.731-2.061,1.963-2.959,1.963-2.959l3.354-1.803c3.736-1.031,3.602,2.959,1.799,4.375c-1.805,1.416-4.764,9.271-4.764,9.271
	c-1.805,7.471-5.404,10.301-5.404,10.301s-3.736,3.727-7.643,4.521c-3.902,0.797-6.122,0.354-8.958,0.076
	C495.299,331.868,490.909,329.585,489.776,327.077z"/>
<text transform="matrix(1 0 0 1 480.2246 425.0859)" fill="#AAD5C4" font-family="'PTSans-Narrow'" font-size="11">[E] PINCH</text>
<path fill="none" stroke="#CCDD59" d="M489.774,406.052c-1.238-2.734-4.398-11.27-4.398-11.27l-0.385-2.83l-0.646-2.188l-1.93-3.858
	l-3.348-9.527c0,0,0.131-2.313,0.646-2.959s2.188,0.771,2.188,0.771l4.117,8.881l2.314,2.962c0.922,0.895,1.289-0.128,1.289-0.128
	v-1.678c0,0-2.832-17.121-2.832-18.149c0-1.027,1.934-1.802,1.934-1.802c0.516-0.517,1.932,1.416,1.932,1.416l2.061,13.129
	l1.029,3.479c0.637,1.281,1.545,0.515,1.545,0.515l0.258-1.157l-0.258-5.148l-0.9-10.813c0,0,0.26-3.348,0.516-4.118
	c0.258-0.771,1.803-0.517,1.803-0.517l1.803,1.803c1.029,0.646,1.807,18.41,1.807,18.41c0.127,0.771,0.644,1.931,1.543,1.802
	c0.897-0.13,1.285-2.445,1.285-2.445s0-11.067,0-11.973c0-0.9,0.519-5.15,1.158-5.664c0.646-0.517,0.389-0.259,2.312,0
	c1.924,0.258,2.326,5.534,2.326,5.534s-0.773,15.062-0.902,20.095c-0.129,5.035,2.188,6.428,2.574,6.428
	c0.385,0,1.803-1.418,2.314-2.062c0.52-0.646,1.287-3.862,2.025-5.926c0.733-2.06,1.963-2.959,1.963-2.959l3.354-1.804
	c3.736-1.028,3.602,2.961,1.799,4.377c-1.805,1.416-4.764,9.271-4.764,9.271c-1.805,7.471-5.404,10.301-5.404,10.301
	s-3.736,3.725-7.643,4.521c-3.902,0.799-6.121,0.354-8.958,0.076C495.299,410.843,490.909,408.562,489.774,406.052z"/>
<path fill="none" stroke="#FFFFFF" stroke-width="1.5" d="M512.14,387.889c0.196,2.18,0.413,4.916,0.215,5.717
	c-0.19,0.804-0.599,1.108-0.937,1.3c-0.186,0.104-0.809,0.145-0.809,0.145c-0.389,0-2.703-1.395-2.574-6.43l0.121-4.42l0.283-5.488
	c0,0,0.453-9.362,0.477-10.403c0.023-1.039-0.383-2.297-0.651-3.242c-0.271-0.944-0.992-1.752-0.992-1.752s-0.965-0.362-2.274-0.604
	c-1.314-0.246-1.646,3.824-1.646,3.824l-0.207,6.588v7.51c0,0-0.387,2.315-1.287,2.445c-0.9,0.129-1.416-1.031-1.545-1.802
	l-0.143-2.703c-3.174-6.444-4.762,0.304-4.762,0.304l0.139,2.783l-0.258,1.159c0,0-0.908,0.769-1.543-0.517l-1.031-3.479
	c-3.137-3.529-3.684,1.793-3.684,1.793l0.592,3.612v1.676c0,0-0.367,1.023-1.289,0.128l-2.314-2.962
	c-4.596-2.795-3.604,2.837-3.604,2.837l1.932,3.858l0.646,2.188l0.385,2.828c0,0,3.158,8.533,4.398,11.271
	c1.133,2.508,5.521,4.791,5.523,4.793c2.836,0.275,5.055,0.725,8.957-0.074c3.904-0.801,7.644-4.521,7.644-4.521
	s3.604-2.83,5.403-10.301v-0.83v-1.812c-0.092-6.486,0.679-9.271,0.679-9.271c1.039-2.045-0.521-5.72-3.478-3.211l-1.639,3.004
	C512.869,383.825,511.905,385.973,512.14,387.889z"/>
</svg>
