<?xml version="1.0" encoding="utf-8"?>
<!-- Generator: Adobe Illustrator 14.0.0, SVG Export Plug-In . SVG Version: 6.00 Build 43363)  -->
<!DOCTYPE svg PUBLIC "-//W3C//DTD SVG 1.1//EN" "http://www.w3.org/Graphics/SVG/1.1/DTD/svg11.dtd">
<svg version="1.1" id="Layer_9" xmlns="http://www.w3.org/2000/svg" xmlns:xlink="http://www.w3.org/1999/xlink" x="0px" y="0px"
	 width="1000px" height="470px" viewBox="0 0 1000 470" enable-background="new 0 0 1000 470" xml:space="preserve">
<circle opacity="0.15" fill="none" stroke="#CCDD59" stroke-width="8" cx="377.158" cy="267.569" r="14.674"/>
<circle opacity="0.15" fill="none" stroke="#CCDD59" stroke-width="8" cx="488.188" cy="237.351" r="14.673"/>
<path opacity="0.15" fill="none" stroke="#CCDD59" stroke-width="8" d="M577.246,245.188c8.104,0,14.674-6.564,14.674-14.672
	c0-8.101-6.57-14.672-14.674-14.672s-14.673,6.571-14.673,14.672C562.573,238.624,569.143,245.188,577.246,245.188z"/>
<path opacity="0.15" fill="none" stroke="#CCDD59" stroke-width="8" d="M414.582,237.424c0,8.108,6.57,14.672,14.675,14.672
	c8.103,0,14.673-6.564,14.673-14.672c0-8.101-6.57-14.672-14.673-14.672C421.152,222.752,414.582,229.323,414.582,237.424z"/>
<path opacity="0.15" fill="none" stroke="#CCDD59" stroke-width="8" d="M242.668,363.729c8.104,0,14.674,6.566,14.674,14.674
	c0,8.1-6.57,14.67-14.674,14.67s-14.67-6.57-14.67-14.67C227.998,370.295,234.564,363.729,242.668,363.729z"/>
<path opacity="0.15" fill="none" stroke="#CCDD59" stroke-width="8" d="M190.913,394.261c8.104,0,14.674,6.566,14.674,14.674
	c0,8.1-6.57,14.67-14.674,14.67s-14.67-6.57-14.67-14.67C176.243,400.828,182.81,394.261,190.913,394.261z"/>
<path opacity="0.15" fill="none" stroke="#CCDD59" stroke-width="8" d="M138.67,424.168c8.104,0,14.674,6.566,14.674,14.674
	c0,8.1-6.57,14.67-14.674,14.67s-14.67-6.57-14.67-14.67C124,430.735,130.567,424.168,138.67,424.168z"/>
<path opacity="0.15" fill="none" stroke="#CCDD59" stroke-width="8" d="M644.369,200.37c0-8.107-6.57-14.671-14.675-14.671
	c-8.103,0-14.673,6.564-14.673,14.671c0,8.102,6.57,14.67,14.673,14.67C637.799,215.04,644.369,208.472,644.369,200.37z"/>
<path opacity="0.15" fill="none" stroke="#CCDD59" stroke-width="8" d="M732.758,200.398c0,8.106,6.564,14.673,14.673,14.673
	c8.101,0,14.671-6.567,14.671-14.673c0-8.104-6.57-14.673-14.671-14.673C739.322,185.725,732.758,192.295,732.758,200.398z"/>
<circle opacity="0.15" fill="none" stroke="#CCDD59" stroke-width="8" cx="688.494" cy="200.398" r="14.672"/>
<circle opacity="0.15" fill="none" stroke="#CCDD59" stroke-width="8" cx="910.562" cy="81.196" r="14.674"/>
<circle opacity="0.15" fill="none" stroke="#CCDD59" stroke-width="8" cx="910.65" cy="20.957" r="14.674"/>
<path opacity="0.15" fill="none" stroke="#CCDD59" stroke-width="8" d="M866.299,81.196c0-8.108-6.568-14.675-14.672-14.675
	s-14.67,6.567-14.67,14.675c0,8.098,6.566,14.673,14.67,14.673S866.299,89.294,866.299,81.196z"/>
<circle opacity="0.15" fill="none" stroke="#CCDD59" stroke-width="8" cx="324.92" cy="297.479" r="14.672"/>
<path opacity="0.15" fill="none" stroke="#CCDD59" stroke-width="8" d="M533.007,289.45c0-8.101-6.571-14.671-14.673-14.671
	c-8.108,0-14.674,6.57-14.674,14.671c0,8.105,6.565,14.674,14.674,14.674C526.436,304.124,533.007,297.555,533.007,289.45z"/>
<circle opacity="0.15" fill="none" stroke="#CCDD59" stroke-width="8" cx="577.247" cy="289.45" r="14.673"/>
<path opacity="0.15" fill="none" stroke="#CCDD59" stroke-width="8" d="M258.142,326.301c0-8.107,6.571-14.675,14.673-14.675
	c8.105,0,14.674,6.567,14.674,14.675c0,8.099-6.568,14.674-14.674,14.674C264.713,340.975,258.142,334.4,258.142,326.301z"/>
<circle opacity="0.15" fill="none" stroke="#CCDD59" stroke-width="8" cx="799.527" cy="170.254" r="14.673"/>
<circle opacity="0.15" fill="none" stroke="#CCDD59" stroke-width="8" cx="799.527" cy="111.341" r="14.673"/>
</svg>
