<?xml version="1.0" encoding="utf-8"?>
<!-- Generator: Adobe Illustrator 14.0.0, SVG Export Plug-In . SVG Version: 6.00 Build 43363)  -->
<!DOCTYPE svg PUBLIC "-//W3C//DTD SVG 1.1//EN" "http://www.w3.org/Graphics/SVG/1.1/DTD/svg11.dtd">
<svg version="1.1" id="Layer_1" xmlns="http://www.w3.org/2000/svg" xmlns:xlink="http://www.w3.org/1999/xlink" x="0px" y="0px"
	 width="1000px" height="470px" viewBox="0 0 1000 470" enable-background="new 0 0 1000 470" xml:space="preserve">
<path fill="none" stroke="#CCDD59" d="M37.875,168.965c-1.238-2.734-4.396-11.271-4.396-11.271l-0.387-2.828l-0.645-2.189
	l-1.932-3.859l-3.348-9.525c0,0,0.129-2.316,0.645-2.961s2.188,0.77,2.188,0.77l4.119,8.881l2.314,2.959
	c0.922,0.896,1.289-0.127,1.289-0.127v-1.676c0,0-2.832-17.123-2.832-18.15c0-1.029,1.934-1.803,1.934-1.803
	c0.516-0.516,1.93,1.418,1.93,1.418l2.061,13.129l1.031,3.479c0.635,1.283,1.545,0.516,1.545,0.516l0.256-1.16l-0.256-5.148
	l-0.902-10.812c0,0,0.262-3.348,0.518-4.119c0.258-0.773,1.803-0.516,1.803-0.516l1.803,1.803
	c1.029,0.645,1.805,18.408,1.805,18.408c0.127,0.771,0.643,1.932,1.543,1.803c0.9-0.129,1.287-2.445,1.287-2.445s0-11.07,0-11.973
	c0-0.9,0.518-5.15,1.158-5.664c0.645-0.516,0.387-0.258,2.311,0c1.926,0.258,2.326,5.535,2.326,5.535s-0.771,15.062-0.902,20.094
	c-0.129,5.033,2.188,6.428,2.574,6.428c0.386,0,1.803-1.418,2.316-2.062c0.518-0.645,1.287-3.859,2.023-5.92
	c0.734-2.062,1.963-2.959,1.963-2.959l3.354-1.805c3.736-1.029,3.604,2.961,1.799,4.375c-1.805,1.416-4.764,9.27-4.764,9.27
	C63.6,166.332,60,169.162,60,169.162s-3.734,3.725-7.643,4.52c-3.9,0.799-6.121,0.355-8.957,0.076
	C43.398,173.756,39.01,171.473,37.875,168.965z"/>
<path fill="none" stroke="#FFFFFF" stroke-width="1.5" d="M39.318,132.195l1.496,9.537l1.031,3.479
	c0.635,1.283,1.545,0.516,1.545,0.516l0.256-1.158l-0.256-5.15l-0.666-7.979c0,0,1.832-6.273,4.92,0.572l0.77,12.172
	c0.127,0.771,0.645,1.932,1.545,1.801c0.898-0.129,1.285-2.443,1.285-2.443s0-11.072,0-11.973c0,0,2.521-8.303,5.795-0.129
	c0,0-0.771,15.061-0.9,20.092c-0.131,5.033,2.188,6.428,2.572,6.428c0.387,0,1.805-1.416,2.316-2.062
	c0.518-0.645,1.287-3.859,2.023-5.92c0.734-2.062,1.963-2.959,1.963-2.959l3.354-1.805c3.736-1.029,3.605,2.961,1.801,4.375
	c-1.807,1.416-4.766,9.27-4.766,9.27C63.6,166.332,60,169.162,60,169.162s-3.736,3.725-7.643,4.52
	c-3.902,0.799-6.121,0.355-8.957,0.076c-0.002-0.002-4.393-2.283-5.525-4.791c-1.238-2.736-4.396-11.271-4.396-11.271l-0.387-2.828
	l-0.645-2.188l-1.932-3.859l-2.184-6.215c0,0-1.373-5.92,2.887-2.873l2.9,6.252l2.314,2.961c0.922,0.895,1.289-0.129,1.289-0.129
	v-1.676l-2.234-13.865C35.488,133.275,35.654,127.947,39.318,132.195z"/>
<text transform="matrix(1 0 0 1 27.7861 188.0273)" fill="#AAD5C4" font-family="'PTSans-Narrow'" font-size="11">[B] SLOPE</text>
<path fill="none" stroke="#CCDD59" d="M37.877,248.064c-1.239-2.734-4.398-11.271-4.398-11.271l-0.385-2.83l-0.646-2.189
	l-1.932-3.857l-3.348-9.525c0,0,0.13-2.316,0.645-2.961c0.516-0.646,2.188,0.771,2.188,0.771l4.117,8.879l2.315,2.961
	c0.921,0.896,1.289-0.127,1.289-0.127v-1.674c0,0-2.832-17.125-2.832-18.152c0-1.029,1.935-1.803,1.935-1.803
	c0.515-0.516,1.93,1.418,1.93,1.418l2.06,13.129l1.031,3.479c0.635,1.283,1.544,0.516,1.544,0.516l0.257-1.16l-0.257-5.148
	l-0.901-10.814c0,0,0.262-3.348,0.518-4.119c0.258-0.771,1.803-0.516,1.803-0.516l1.804,1.803c1.028,0.646,1.805,18.41,1.805,18.41
	c0.127,0.77,0.643,1.93,1.544,1.801c0.899-0.129,1.286-2.445,1.286-2.445s0-11.07,0-11.973c0-0.898,0.517-5.148,1.158-5.664
	c0.645-0.516,0.388-0.258,2.312,0c1.924,0.258,2.325,5.535,2.325,5.535s-0.774,15.062-0.904,20.094
	c-0.129,5.037,2.188,6.43,2.574,6.43c0.386,0,1.803-1.418,2.316-2.062c0.518-0.645,1.287-3.861,2.024-5.922
	c0.732-2.062,1.961-2.959,1.961-2.959l3.354-1.803c3.736-1.029,3.604,2.959,1.801,4.375c-1.807,1.416-4.766,9.27-4.766,9.27
	c-1.803,7.472-5.402,10.302-5.402,10.302s-3.736,3.725-7.644,4.521c-3.902,0.797-6.121,0.354-8.957,0.075
	C43.4,252.855,39.011,250.572,37.877,248.064z"/>
<path fill="none" stroke="#FFFFFF" stroke-width="1.5" d="M46.766,205.109l0.777,4.889l0.567,7.568l0.303,5.717
	c0.128,0.771,0.645,1.932,1.546,1.801c0.899-0.129,1.286-2.443,1.286-2.443v-7.51l0.207-6.588c0,0,0.332-4.07,1.646-3.826
	c1.311,0.244,2.274,0.605,2.274,0.605s0.724,0.807,0.992,1.752c0.271,0.945,0.676,2.203,0.653,3.242S56.54,220.72,56.54,220.72
	l-0.282,5.488l-0.122,4.422c-0.129,5.037,2.188,6.431,2.574,6.431c0.386,0,1.803-1.418,2.316-2.062
	c0.518-0.645,1.287-3.861,2.024-5.922c0.732-2.062,1.961-2.959,1.961-2.959l3.354-1.803c3.736-1.029,3.604,2.959,1.799,4.375
	s-4.764,9.27-4.764,9.27c-1.803,7.471-5.403,10.301-5.403,10.301s-3.735,3.725-7.643,4.521c-3.902,0.797-6.121,0.354-8.957,0.076
	c-0.002-0.002-4.392-2.285-5.524-4.793c-1.238-2.736-4.397-11.271-4.397-11.271l-0.385-2.828l-0.646-2.189l-1.931-3.859
	c0,0-0.991-5.633,3.604-2.836l2.314,2.961c0.922,0.896,1.289-0.127,1.289-0.127v-1.674l-0.842-3.602c0,0-0.511-5.186,3.932-1.807
	l1.031,3.479c0.635,1.283,1.544,0.516,1.544,0.516l0.257-1.16l-0.257-5.148l-0.649-7.793l-0.234-2.82l0.456-4.158
	C42.962,203.746,43.938,201.232,46.766,205.109z"/>
<text transform="matrix(1 0 0 1 24.8052 267.0625)" fill="#AAD5C4" font-family="'PTSans-Narrow'" font-size="11">[C] POCKET</text>
<text transform="matrix(1 0 0 1 29.9585 108.4609)" fill="#AAD5C4" font-family="'PTSans-Narrow'" font-size="11">[A] EDGE</text>
<path fill="none" stroke="#CCDD59" d="M37.877,89.943c-1.24-2.736-4.398-11.27-4.398-11.27l-0.385-2.828l-0.646-2.189l-1.93-3.859
	l-3.35-9.525c0,0,0.131-2.314,0.646-2.959c0.516-0.646,2.188,0.771,2.188,0.771l4.119,8.881l2.314,2.959
	c0.92,0.896,1.289-0.127,1.289-0.127v-1.676c0,0-2.832-17.123-2.832-18.15c0-1.029,1.934-1.803,1.934-1.803
	c0.514-0.518,1.93,1.416,1.93,1.416l2.061,13.131l1.029,3.479c0.637,1.283,1.545,0.516,1.545,0.516l0.258-1.158l-0.258-5.148
	L42.488,49.59c0,0,0.262-3.35,0.518-4.119c0.258-0.773,1.803-0.516,1.803-0.516l1.803,1.803c1.029,0.645,1.805,18.408,1.805,18.408
	c0.127,0.771,0.643,1.934,1.543,1.803c0.9-0.129,1.287-2.443,1.287-2.443s0-11.07,0-11.975c0-0.898,0.516-5.15,1.158-5.664
	c0.645-0.516,0.387-0.258,2.311,0c1.924,0.258,2.324,5.535,2.324,5.535s-0.771,15.062-0.9,20.094
	c-0.129,5.035,2.188,6.428,2.574,6.428c0.385,0,1.803-1.416,2.316-2.061c0.518-0.646,1.287-3.863,2.023-5.922
	c0.734-2.062,1.963-2.959,1.963-2.959l3.355-1.805c3.734-1.029,3.602,2.959,1.797,4.375c-1.805,1.416-4.764,9.271-4.764,9.271
	C63.602,87.314,60,90.145,60,90.145s-3.736,3.727-7.641,4.521c-3.902,0.797-6.121,0.354-8.959,0.074
	C43.4,94.734,39.01,92.451,37.877,89.943z"/>
<path fill="none" stroke="#FFFFFF" stroke-width="1.5" d="M56.137,72.51c-0.129,5.033,2.188,6.428,2.574,6.428
	c0.386,0,1.803-1.416,2.316-2.061c0.518-0.646,1.287-3.863,2.025-5.922c0.734-2.062,1.963-2.959,1.963-2.959l3.354-1.805
	c3.736-1.029,3.602,2.959,1.799,4.375c-1.805,1.416-4.764,9.271-4.764,9.271C63.6,87.309,60,90.139,60,90.139
	s-3.736,3.725-7.643,4.521c-3.902,0.797-6.121,0.354-8.957,0.074c-0.002-0.002-4.393-2.281-5.525-4.791
	c-1.238-2.736-4.396-11.27-4.396-11.27l-0.387-2.828l-0.645-2.189l-1.932-3.859c0,0-0.992-5.631,3.605-2.836l2.314,2.961
	c0.92,0.896,1.289-0.127,1.289-0.127v-1.676l-0.844-3.602c0,0-0.51-5.186,3.934-1.809l1.031,3.479
	c0.635,1.283,1.545,0.516,1.545,0.516l0.256-1.158l-0.256-5.148c0,0,1.492-4.559,4.242-0.809l0.781,5.572
	c0.127,0.771,0.643,1.932,1.543,1.803c0.9-0.131,1.287-2.445,1.287-2.445l1.139-6.41c0,0,1.75-2.52,3-0.645s1.375,4.125,1.375,4.125
	l-0.5,6.5L56.137,72.51z"/>
<text transform="matrix(1 0 0 1 29.1167 346.1152)" fill="#AAD5C4" font-family="'PTSans-Narrow'" font-size="11">[D] PALM</text>
<path fill="none" stroke="#FFFFFF" stroke-width="1.5" d="M37.877,327.077c-1.24-2.736-4.398-11.271-4.398-11.271l-0.385-2.828
	l-0.646-2.188l-1.93-3.859l-3.35-9.527c0,0,0.131-2.313,0.646-2.959c0.515-0.645,2.188,0.771,2.188,0.771l4.119,8.881l2.314,2.961
	c0.922,0.896,1.289-0.127,1.289-0.127v-1.676c0,0-2.832-17.125-2.832-18.152c0-1.026,1.934-1.803,1.934-1.803
	c0.516-0.516,1.93,1.418,1.93,1.418l2.061,13.129l1.031,3.48c0.635,1.281,1.545,0.516,1.545,0.516l0.256-1.158l-0.256-5.147
	l-0.902-10.813c0,0,0.26-3.351,0.516-4.119c0.258-0.773,1.805-0.519,1.805-0.519l1.803,1.804c1.029,0.646,1.803,18.409,1.803,18.409
	c0.127,0.771,0.645,1.933,1.545,1.802c0.898-0.129,1.285-2.443,1.285-2.443s0-11.07,0-11.973c0-0.898,0.518-5.15,1.158-5.664
	c0.645-0.519,0.389-0.261,2.312,0c1.924,0.258,2.322,5.535,2.322,5.535s-0.77,15.062-0.9,20.092c-0.129,5.035,2.188,6.43,2.574,6.43
	c0.386,0,1.803-1.416,2.316-2.061c0.518-0.646,1.287-3.863,2.025-5.925c0.732-2.061,1.963-2.959,1.963-2.959l3.354-1.803
	c3.736-1.031,3.602,2.959,1.799,4.375c-1.805,1.416-4.764,9.271-4.764,9.271c-1.805,7.471-5.404,10.301-5.404,10.301
	s-3.736,3.726-7.643,4.521c-3.902,0.797-6.121,0.354-8.957,0.076C43.4,331.868,39.01,329.585,37.877,327.077z"/>
<text transform="matrix(1 0 0 1 28.3252 425.0859)" fill="#AAD5C4" font-family="'PTSans-Narrow'" font-size="11">[E] PINCH</text>
<path fill="none" stroke="#CCDD59" d="M37.875,406.052c-1.238-2.735-4.398-11.27-4.398-11.27l-0.385-2.83l-0.646-2.188l-1.93-3.859
	l-3.348-9.527c0,0,0.131-2.314,0.646-2.959s2.188,0.771,2.188,0.771l4.117,8.881l2.314,2.961c0.922,0.895,1.289-0.127,1.289-0.127
	v-1.678c0,0-2.832-17.121-2.832-18.15c0-1.027,1.934-1.801,1.934-1.801c0.516-0.517,1.932,1.416,1.932,1.416l2.061,13.129
	l1.029,3.479c0.637,1.281,1.545,0.515,1.545,0.515l0.258-1.158l-0.258-5.148l-0.9-10.814c0,0,0.26-3.348,0.516-4.118
	c0.258-0.771,1.803-0.517,1.803-0.517l1.803,1.803c1.029,0.646,1.807,18.41,1.807,18.41c0.127,0.771,0.643,1.931,1.543,1.802
	c0.898-0.13,1.285-2.445,1.285-2.445s0-11.067,0-11.973c0-0.9,0.518-5.15,1.158-5.664c0.646-0.517,0.389-0.259,2.312,0
	c1.923,0.258,2.326,5.534,2.326,5.534s-0.773,15.062-0.902,20.095c-0.129,5.035,2.188,6.428,2.574,6.428
	c0.385,0,1.803-1.418,2.314-2.062c0.52-0.646,1.287-3.862,2.025-5.926c0.734-2.059,1.963-2.959,1.963-2.959l3.354-1.803
	c3.736-1.029,3.602,2.961,1.799,4.377c-1.805,1.416-4.764,9.271-4.764,9.271c-1.805,7.471-5.404,10.301-5.404,10.301
	s-3.736,3.725-7.643,4.521c-3.902,0.798-6.121,0.354-8.957,0.076C43.4,410.843,39.01,408.562,37.875,406.052z"/>
<path fill="none" stroke="#FFFFFF" stroke-width="1.5" d="M60.24,387.889c0.197,2.18,0.414,4.916,0.215,5.717
	c-0.191,0.803-0.598,1.108-0.936,1.299c-0.186,0.104-0.809,0.145-0.809,0.145c-0.389,0-2.703-1.395-2.574-6.43l0.121-4.42
	l0.283-5.488c0,0,0.453-9.363,0.477-10.404c0.023-1.039-0.383-2.297-0.652-3.242c-0.271-0.944-0.992-1.752-0.992-1.752
	s-0.965-0.362-2.275-0.604c-1.314-0.246-1.646,3.824-1.646,3.824l-0.207,6.588v7.51c0,0-0.387,2.315-1.287,2.445
	c-0.9,0.129-1.416-1.031-1.545-1.802l-0.143-2.703c-3.174-6.444-4.762,0.304-4.762,0.304l0.139,2.783l-0.258,1.159
	c0,0-0.908,0.769-1.543-0.516l-1.031-3.479c-3.137-3.529-3.684,1.793-3.684,1.793l0.592,3.613v1.676c0,0-0.367,1.023-1.289,0.127
	l-2.314-2.961c-4.596-2.795-3.604,2.836-3.604,2.836l1.932,3.859l0.646,2.188l0.385,2.828c0,0,3.158,8.533,4.398,11.271
	c1.133,2.508,5.521,4.791,5.523,4.793c2.836,0.275,5.055,0.724,8.957-0.075c3.904-0.8,7.643-4.521,7.643-4.521
	s3.604-2.83,5.404-10.301v-0.83v-1.812c-0.092-6.486,0.678-9.271,0.678-9.271c1.039-2.045-0.52-5.719-3.477-3.211l-1.639,3.004
	C60.969,383.825,60.006,385.973,60.24,387.889z"/>
<g id="Layer_5">
	<text transform="matrix(1 0 0 1 188.4189 433.4316)" fill="#AAD5C4" font-family="'PTSans-Narrow'" font-size="12">A</text>
	<text transform="matrix(1 0 0 1 321.9077 322.0312)" fill="#AAD5C4" font-family="'PTSans-Narrow'" font-size="12">A</text>
	<text transform="matrix(1 0 0 1 573.9824 312.9482)" fill="#AAD5C4" font-family="'PTSans-Narrow'" font-size="12">A</text>
	<text transform="matrix(1 0 0 1 626.791 224.6758)" fill="#AAD5C4" font-family="'PTSans-Narrow'" font-size="12">A</text>
	<text transform="matrix(1 0 0 1 796.1289 193.8086)" fill="#AAD5C4" font-family="'PTSans-Narrow'" font-size="12">A</text>
	<text transform="matrix(1 0 0 1 907.7324 104.8555)" fill="#AAD5C4" font-family="'PTSans-Narrow'" font-size="12">A</text>
	<text transform="matrix(1 0 0 1 907.7324 45.2695)" fill="#AAD5C4" font-family="'PTSans-Narrow'" font-size="12">A</text>
	<text transform="matrix(1 0 0 1 239.7905 402.3203)" fill="#AAD5C4" font-family="'PTSans-Narrow'" font-size="12">B</text>
	<text transform="matrix(1 0 0 1 425.791 260.6562)" fill="#AAD5C4" font-family="'PTSans-Narrow'" font-size="12">B</text>
	<text transform="matrix(1 0 0 1 848.2051 104.8555)" fill="#AAD5C4" font-family="'PTSans-Narrow'" font-size="12">B</text>
	<text transform="matrix(1 0 0 1 269.4541 349.9062)" fill="#AAD5C4" font-family="'PTSans-Narrow'" font-size="12">C</text>
	<text transform="matrix(1 0 0 1 373.8047 290.875)" fill="#AAD5C4" font-family="'PTSans-Narrow'" font-size="12">C</text>
	<text transform="matrix(1 0 0 1 574.0723 254.7676)" fill="#AAD5C4" font-family="'PTSans-Narrow'" font-size="12">C</text>
	<text transform="matrix(1 0 0 1 796.2188 134.7852)" fill="#AAD5C4" font-family="'PTSans-Narrow'" font-size="12">C</text>
	<text transform="matrix(1 0 0 1 485.0063 261.1191)" fill="#AAD5C4" font-family="'PTSans-Narrow'" font-size="12">D</text>
	<text transform="matrix(1 0 0 1 685.2441 224.6758)" fill="#AAD5C4" font-family="'PTSans-Narrow'" font-size="12">D</text>
	<text transform="matrix(1 0 0 1 136.4771 462.5391)" fill="#AAD5C4" font-family="'PTSans-Narrow'" font-size="12">E</text>
	<text transform="matrix(1 0 0 1 515.4814 312.917)" fill="#AAD5C4" font-family="'PTSans-Narrow'" font-size="12">E</text>
	<text transform="matrix(1 0 0 1 744.8438 224.6758)" fill="#AAD5C4" font-family="'PTSans-Narrow'" font-size="12">E</text>
</g>
</svg>
