<?xml version="1.0" encoding="utf-8"?>
<!-- Generator: Adobe Illustrator 14.0.0, SVG Export Plug-In . SVG Version: 6.00 Build 43363)  -->
<!DOCTYPE svg PUBLIC "-//W3C//DTD SVG 1.1//EN" "http://www.w3.org/Graphics/SVG/1.1/DTD/svg11.dtd">
<svg version="1.1" id="Layer_7" xmlns="http://www.w3.org/2000/svg" xmlns:xlink="http://www.w3.org/1999/xlink" x="0px" y="0px"
	 width="1000px" height="470px" viewBox="0 0 1000 470" enable-background="new 0 0 1000 470" xml:space="preserve">
<circle fill="#CCDD59" cx="377.156" cy="267.571" r="4.716"/>
<circle fill="#CCDD59" cx="488.189" cy="237.351" r="4.716"/>
<circle fill="#CCDD59" cx="577.246" cy="230.515" r="4.716"/>
<circle fill="#CCDD59" cx="429.258" cy="237.424" r="4.716"/>
<path fill="#CCDD59" d="M242.668,373.686c2.605,0,4.718,2.109,4.718,4.715c0,2.604-2.113,4.715-4.718,4.715
	c-2.604,0-4.714-2.111-4.714-4.715C237.954,375.793,240.064,373.686,242.668,373.686z"/>
<path fill="#CCDD59" d="M190.913,404.219c2.606,0,4.718,2.109,4.718,4.715c0,2.604-2.113,4.715-4.718,4.715
	c-2.604,0-4.714-2.111-4.714-4.715C186.199,406.328,188.311,404.219,190.913,404.219z"/>
<path fill="#CCDD59" d="M138.67,434.125c2.605,0,4.718,2.109,4.718,4.716c0,2.604-2.113,4.714-4.718,4.714
	c-2.604,0-4.714-2.111-4.714-4.714C133.957,436.234,136.067,434.125,138.67,434.125z"/>
<circle fill="#CCDD59" cx="629.695" cy="200.37" r="4.717"/>
<circle fill="#CCDD59" cx="747.429" cy="200.398" r="4.716"/>
<circle fill="#CCDD59" cx="688.494" cy="200.398" r="4.716"/>
<circle fill="#CCDD59" cx="910.562" cy="81.196" r="4.716"/>
<circle fill="#CCDD59" cx="851.628" cy="81.196" r="4.715"/>
<circle fill="#CCDD59" cx="324.918" cy="297.479" r="4.716"/>
<circle fill="#CCDD59" cx="518.334" cy="289.45" r="4.716"/>
<circle fill="#CCDD59" cx="577.247" cy="289.45" r="4.718"/>
<circle fill="#CCDD59" cx="272.815" cy="326.301" r="4.717"/>
<circle fill="#CCDD59" cx="799.527" cy="170.254" r="4.716"/>
<circle fill="#CCDD59" cx="799.527" cy="111.341" r="4.716"/>
<circle fill="#CCDD59" cx="910.65" cy="20.958" r="4.716"/>
</svg>
