<?xml version="1.0" encoding="utf-8"?>
<!-- Generator: Adobe Illustrator 14.0.0, SVG Export Plug-In . SVG Version: 6.00 Build 43363)  -->
<!DOCTYPE svg PUBLIC "-//W3C//DTD SVG 1.1//EN" "http://www.w3.org/Graphics/SVG/1.1/DTD/svg11.dtd">
<svg version="1.1" id="Layer_7" xmlns="http://www.w3.org/2000/svg" xmlns:xlink="http://www.w3.org/1999/xlink" x="0px" y="0px"
	 width="1000px" height="470px" viewBox="0 0 1000 470" enable-background="new 0 0 1000 470" xml:space="preserve">
<circle fill="#686868" cx="622.844" cy="267.571" r="5.24"/>
<circle fill="#686868" cx="511.811" cy="237.351" r="5.24"/>
<circle fill="#686868" cx="422.753" cy="230.515" r="5.24"/>
<circle fill="#686868" cx="570.742" cy="237.424" r="5.24"/>
<path fill="#686868" d="M757.332,373.161c-2.895,0-5.242,2.344-5.242,5.24c0,2.893,2.348,5.238,5.242,5.238
	c2.893,0,5.238-2.346,5.238-5.238C762.57,375.504,760.225,373.161,757.332,373.161z"/>
<circle fill="#686868" cx="370.305" cy="200.37" r="5.24"/>
<circle fill="#686868" cx="787.535" cy="325.959" r="5.24"/>
<circle fill="#686868" cx="898.57" cy="356.104" r="5.24"/>
<circle fill="#686868" cx="252.571" cy="200.398" r="5.24"/>
<circle fill="#686868" cx="311.506" cy="200.398" r="5.24"/>
<circle fill="#686868" cx="89.438" cy="81.196" r="5.24"/>
<circle fill="#686868" cx="148.372" cy="81.196" r="5.24"/>
<circle fill="#686868" cx="675.082" cy="297.479" r="5.24"/>
<circle fill="#686868" cx="481.666" cy="289.45" r="5.24"/>
<circle fill="#686868" cx="422.753" cy="289.45" r="5.24"/>
<circle fill="#686868" cx="727.185" cy="326.301" r="5.241"/>
<circle fill="#686868" cx="846.471" cy="325.959" r="5.24"/>
<circle fill="#686868" cx="200.472" cy="170.254" r="5.24"/>
<circle fill="#686868" cx="200.472" cy="111.341" r="5.24"/>
<circle fill="#686868" cx="37.338" cy="51.051" r="5.24"/>
<circle fill="#686868" cx="950.811" cy="386.011" r="5.24"/>
</svg>
