<?xml version="1.0" encoding="utf-8"?>
<!-- Generator: Adobe Illustrator 14.0.0, SVG Export Plug-In . SVG Version: 6.00 Build 43363)  -->
<!DOCTYPE svg PUBLIC "-//W3C//DTD SVG 1.1//EN" "http://www.w3.org/Graphics/SVG/1.1/DTD/svg11.dtd">
<svg version="1.1" id="Layer_9" xmlns="http://www.w3.org/2000/svg" xmlns:xlink="http://www.w3.org/1999/xlink" x="0px" y="0px"
	 width="1000px" height="470px" viewBox="0 0 1000 470" enable-background="new 0 0 1000 470" xml:space="preserve">
<circle opacity="0.5" fill="none" stroke="#CCDD59" stroke-width="16" enable-background="new    " cx="377.158" cy="267.569" r="14.674"/>
<circle opacity="0.5" fill="none" stroke="#CCDD59" stroke-width="16" enable-background="new    " cx="488.188" cy="237.351" r="14.673"/>
<path opacity="0.5" fill="none" stroke="#CCDD59" stroke-width="16" enable-background="new    " d="M577.246,245.188
	c8.104,0,14.674-6.562,14.674-14.67c0-8.101-6.57-14.672-14.674-14.672c-8.104,0-14.673,6.571-14.673,14.672
	C562.573,238.624,569.143,245.188,577.246,245.188z"/>
<path opacity="0.5" fill="none" stroke="#CCDD59" stroke-width="16" enable-background="new    " d="M414.582,237.424
	c0,8.108,6.57,14.672,14.675,14.672s14.673-6.562,14.673-14.672c0-8.101-6.568-14.672-14.673-14.672
	S414.582,229.323,414.582,237.424z"/>
<path opacity="0.5" fill="none" stroke="#CCDD59" stroke-width="16" enable-background="new    " d="M242.668,363.729
	c8.104,0,14.674,6.566,14.674,14.674c0,8.102-6.57,14.672-14.674,14.672s-14.67-6.57-14.67-14.672
	C227.998,370.295,234.564,363.729,242.668,363.729z"/>
<path opacity="0.5" fill="none" stroke="#CCDD59" stroke-width="16" enable-background="new    " d="M190.913,394.261
	c8.104,0,14.674,6.566,14.674,14.674c0,8.102-6.57,14.672-14.674,14.672s-14.67-6.57-14.67-14.672
	C176.243,400.828,182.81,394.261,190.913,394.261z"/>
<path opacity="0.5" fill="none" stroke="#CCDD59" stroke-width="16" enable-background="new    " d="M138.67,424.168
	c8.104,0,14.674,6.566,14.674,14.674c0,8.102-6.57,14.67-14.674,14.67S124,446.942,124,438.842
	C124,430.735,130.567,424.168,138.67,424.168z"/>
<path opacity="0.5" fill="none" stroke="#CCDD59" stroke-width="16" enable-background="new    " d="M644.369,200.37
	c0-8.107-6.57-14.671-14.675-14.671s-14.673,6.564-14.673,14.671c0,8.102,6.568,14.67,14.673,14.67S644.369,208.472,644.369,200.37z
	"/>
<path opacity="0.5" fill="none" stroke="#CCDD59" stroke-width="16" enable-background="new    " d="M732.758,200.398
	c0,8.106,6.564,14.673,14.673,14.673c8.103,0,14.671-6.567,14.671-14.673c0-8.104-6.568-14.673-14.671-14.673
	C739.322,185.725,732.758,192.295,732.758,200.398z"/>
<circle opacity="0.5" fill="none" stroke="#CCDD59" stroke-width="16" enable-background="new    " cx="688.494" cy="200.398" r="14.672"/>
<circle opacity="0.5" fill="none" stroke="#CCDD59" stroke-width="16" enable-background="new    " cx="910.562" cy="81.196" r="14.674"/>
<circle opacity="0.5" fill="none" stroke="#CCDD59" stroke-width="16" enable-background="new    " cx="910.65" cy="20.957" r="14.674"/>
<path opacity="0.5" fill="none" stroke="#CCDD59" stroke-width="16" enable-background="new    " d="M866.299,81.196
	c0-8.108-6.566-14.675-14.672-14.675c-8.104,0-14.67,6.567-14.67,14.675c0,8.098,6.566,14.673,14.67,14.673
	C859.731,95.869,866.299,89.294,866.299,81.196z"/>
<circle opacity="0.5" fill="none" stroke="#CCDD59" stroke-width="16" enable-background="new    " cx="324.92" cy="297.479" r="14.672"/>
<path opacity="0.5" fill="none" stroke="#CCDD59" stroke-width="16" enable-background="new    " d="M533.007,289.45
	c0-8.101-6.571-14.671-14.673-14.671c-8.108,0-14.674,6.57-14.674,14.671c0,8.104,6.563,14.674,14.674,14.674
	C526.436,304.124,533.007,297.555,533.007,289.45z"/>
<circle opacity="0.5" fill="none" stroke="#CCDD59" stroke-width="16" enable-background="new    " cx="577.247" cy="289.45" r="14.673"/>
<path opacity="0.5" fill="none" stroke="#CCDD59" stroke-width="16" enable-background="new    " d="M258.142,326.301
	c0-8.107,6.571-14.675,14.673-14.675c8.105,0,14.674,6.567,14.674,14.675c0,8.1-6.568,14.674-14.674,14.674
	C264.713,340.975,258.142,334.4,258.142,326.301z"/>
<circle opacity="0.5" fill="none" stroke="#CCDD59" stroke-width="16" enable-background="new    " cx="799.527" cy="170.254" r="14.673"/>
<circle opacity="0.5" fill="none" stroke="#CCDD59" stroke-width="16" enable-background="new    " cx="799.527" cy="111.341" r="14.673"/>
</svg>
