<?xml version="1.0" encoding="utf-8"?>
<!-- Generator: Adobe Illustrator 14.0.0, SVG Export Plug-In . SVG Version: 6.00 Build 43363)  -->
<!DOCTYPE svg PUBLIC "-//W3C//DTD SVG 1.1//EN" "http://www.w3.org/Graphics/SVG/1.1/DTD/svg11.dtd">
<svg version="1.1" id="Layer_1" xmlns="http://www.w3.org/2000/svg" xmlns:xlink="http://www.w3.org/1999/xlink" x="0px" y="0px"
	 width="1000px" height="470px" viewBox="0 0 1000 470" enable-background="new 0 0 1000 470" xml:space="preserve">
<g id="Layer_5">
	<text transform="matrix(1 0 0 1 188.4189 433.4316)" fill="#AAD5C4" font-family="'PTSans-Narrow'" font-size="12">A</text>
	<text transform="matrix(1 0 0 1 321.9077 322.0312)" fill="#AAD5C4" font-family="'PTSans-Narrow'" font-size="12">A</text>
	<text transform="matrix(1 0 0 1 573.9824 312.9482)" fill="#AAD5C4" font-family="'PTSans-Narrow'" font-size="12">A</text>
	<text transform="matrix(1 0 0 1 626.791 224.6758)" fill="#AAD5C4" font-family="'PTSans-Narrow'" font-size="12">A</text>
	<text transform="matrix(1 0 0 1 796.1289 193.8086)" fill="#AAD5C4" font-family="'PTSans-Narrow'" font-size="12">A</text>
	<text transform="matrix(1 0 0 1 907.7324 104.8555)" fill="#AAD5C4" font-family="'PTSans-Narrow'" font-size="12">A</text>
	<text transform="matrix(1 0 0 1 907.7324 45.2695)" fill="#AAD5C4" font-family="'PTSans-Narrow'" font-size="12">A</text>
	<text transform="matrix(1 0 0 1 239.7905 402.3203)" fill="#AAD5C4" font-family="'PTSans-Narrow'" font-size="12">B</text>
	<text transform="matrix(1 0 0 1 425.791 260.6562)" fill="#AAD5C4" font-family="'PTSans-Narrow'" font-size="12">B</text>
	<text transform="matrix(1 0 0 1 848.2051 104.8555)" fill="#AAD5C4" font-family="'PTSans-Narrow'" font-size="12">B</text>
	<text transform="matrix(1 0 0 1 269.4541 349.9062)" fill="#AAD5C4" font-family="'PTSans-Narrow'" font-size="12">C</text>
	<text transform="matrix(1 0 0 1 373.8047 290.875)" fill="#AAD5C4" font-family="'PTSans-Narrow'" font-size="12">C</text>
	<text transform="matrix(1 0 0 1 574.0723 254.7676)" fill="#AAD5C4" font-family="'PTSans-Narrow'" font-size="12">C</text>
	<text transform="matrix(1 0 0 1 796.2188 134.7852)" fill="#AAD5C4" font-family="'PTSans-Narrow'" font-size="12">C</text>
	<text transform="matrix(1 0 0 1 485.0063 261.1191)" fill="#AAD5C4" font-family="'PTSans-Narrow'" font-size="12">D</text>
	<text transform="matrix(1 0 0 1 685.2441 224.6758)" fill="#AAD5C4" font-family="'PTSans-Narrow'" font-size="12">D</text>
	<text transform="matrix(1 0 0 1 136.4771 462.5391)" fill="#AAD5C4" font-family="'PTSans-Narrow'" font-size="12">E</text>
	<text transform="matrix(1 0 0 1 515.4814 312.917)" fill="#AAD5C4" font-family="'PTSans-Narrow'" font-size="12">E</text>
	<text transform="matrix(1 0 0 1 744.8438 224.6758)" fill="#AAD5C4" font-family="'PTSans-Narrow'" font-size="12">E</text>
</g>
</svg>
