<?xml version="1.0" encoding="utf-8"?>
<!-- Generator: Adobe Illustrator 14.0.0, SVG Export Plug-In . SVG Version: 6.00 Build 43363)  -->
<!DOCTYPE svg PUBLIC "-//W3C//DTD SVG 1.1//EN" "http://www.w3.org/Graphics/SVG/1.1/DTD/svg11.dtd">
<svg version="1.1" xmlns="http://www.w3.org/2000/svg" xmlns:xlink="http://www.w3.org/1999/xlink" x="0px" y="0px" width="1000px"
	 height="470px" viewBox="0 0 1000 470" enable-background="new 0 0 1000 470" xml:space="preserve">
<g id="Layer_14">
	<circle fill="none" stroke="#CCDD59" cx="635.389" cy="398.122" r="5.24"/>
	<path fill="none" stroke="#CCDD59" stroke-width="0.75" d="M420.023,406.282c-1.238-2.734-4.396-11.271-4.396-11.271l-0.387-2.828
		l-0.645-2.189l-1.932-3.859l-3.348-9.525c0,0,0.129-2.316,0.645-2.961s2.188,0.771,2.188,0.771l4.119,8.881l2.314,2.959
		c0.922,0.896,1.289-0.127,1.289-0.127v-1.676c0,0-2.832-17.123-2.832-18.15c0-1.029,1.934-1.803,1.934-1.803
		c0.516-0.516,1.93,1.418,1.93,1.418l2.061,13.129l1.031,3.479c0.635,1.283,1.545,0.516,1.545,0.516l0.256-1.16l-0.256-5.148
		l-0.902-10.812c0,0,0.262-3.348,0.518-4.119c0.258-0.773,1.803-0.516,1.803-0.516l1.803,1.803
		c1.029,0.645,1.805,18.408,1.805,18.408c0.127,0.771,0.643,1.932,1.543,1.803s1.287-2.445,1.287-2.445s0-11.07,0-11.973
		c0-0.9,0.518-5.15,1.158-5.664c0.645-0.516,0.387-0.258,2.311,0c1.926,0.258,2.326,5.535,2.326,5.535s-0.771,15.062-0.902,20.094
		c-0.129,5.033,2.188,6.428,2.574,6.428s1.803-1.418,2.316-2.062c0.518-0.645,1.287-3.859,2.023-5.92
		c0.734-2.062,1.963-2.959,1.963-2.959l3.354-1.805c3.736-1.029,3.604,2.961,1.799,4.375c-1.805,1.416-4.764,9.27-4.764,9.27
		c-1.805,7.475-5.404,10.305-5.404,10.305s-3.734,3.725-7.643,4.52c-3.9,0.799-6.121,0.355-8.957,0.076
		C425.547,411.073,421.158,408.79,420.023,406.282z"/>
	<path fill="none" stroke="#FFFFFF" stroke-width="0.75" d="M421.467,369.512l1.496,9.537l1.031,3.479
		c0.635,1.283,1.545,0.516,1.545,0.516l0.256-1.158l-0.256-5.15l-0.666-7.979c0,0,1.832-6.273,4.92,0.572l0.77,12.172
		c0.127,0.771,0.645,1.932,1.545,1.801c0.898-0.129,1.285-2.443,1.285-2.443s0-11.072,0-11.973c0,0,2.521-8.303,5.795-0.129
		c0,0-0.771,15.061-0.9,20.092c-0.131,5.033,2.188,6.428,2.572,6.428c0.387,0,1.805-1.416,2.316-2.062
		c0.518-0.645,1.287-3.859,2.023-5.92c0.734-2.062,1.963-2.959,1.963-2.959l3.354-1.805c3.736-1.029,3.605,2.961,1.801,4.375
		c-1.807,1.416-4.766,9.27-4.766,9.27c-1.803,7.475-5.402,10.305-5.402,10.305s-3.736,3.725-7.643,4.52
		c-3.902,0.799-6.121,0.355-8.957,0.076c-0.002-0.002-4.393-2.283-5.525-4.791c-1.238-2.736-4.396-11.271-4.396-11.271l-0.387-2.828
		l-0.645-2.188l-1.932-3.859l-2.184-6.215c0,0-1.373-5.92,2.887-2.873l2.9,6.252l2.314,2.961c0.922,0.895,1.289-0.129,1.289-0.129
		v-1.676l-2.234-13.865C417.637,370.592,417.803,365.264,421.467,369.512z"/>
	<text transform="matrix(1 0 0 1 415.5259 424.4019)" fill="#CCDD59" font-family="'PTSans-Narrow'" font-size="14">SLOPE</text>
	<path fill="none" stroke="#CCDD59" stroke-width="0.75" d="M488.589,406.346c-1.239-2.734-4.398-11.27-4.398-11.27l-0.385-2.83
		l-0.646-2.189l-1.932-3.857l-3.348-9.525c0,0,0.13-2.316,0.645-2.961c0.516-0.646,2.188,0.771,2.188,0.771l4.117,8.879l2.315,2.961
		c0.921,0.896,1.289-0.127,1.289-0.127v-1.674c0,0-2.832-17.125-2.832-18.152c0-1.029,1.935-1.803,1.935-1.803
		c0.515-0.516,1.93,1.418,1.93,1.418l2.06,13.129l1.031,3.479c0.635,1.283,1.544,0.516,1.544,0.516l0.257-1.16l-0.257-5.148
		l-0.901-10.814c0,0,0.262-3.348,0.518-4.119c0.258-0.771,1.803-0.516,1.803-0.516l1.804,1.803c1.028,0.646,1.805,18.41,1.805,18.41
		c0.127,0.77,0.643,1.93,1.544,1.801c0.899-0.129,1.286-2.445,1.286-2.445s0-11.07,0-11.973c0-0.898,0.517-5.148,1.158-5.664
		c0.645-0.516,0.388-0.258,2.312,0s2.325,5.535,2.325,5.535s-0.774,15.062-0.904,20.094c-0.129,5.037,2.188,6.43,2.574,6.43
		c0.386,0,1.803-1.418,2.316-2.062c0.518-0.645,1.287-3.861,2.024-5.922c0.732-2.062,1.961-2.959,1.961-2.959l3.354-1.803
		c3.736-1.029,3.604,2.959,1.801,4.375c-1.807,1.416-4.766,9.27-4.766,9.27c-1.803,7.471-5.402,10.301-5.402,10.301
		s-3.736,3.725-7.644,4.521c-3.902,0.797-6.121,0.354-8.957,0.076C494.112,411.137,489.723,408.854,488.589,406.346z"/>
	<path fill="none" stroke="#FFFFFF" stroke-width="0.75" d="M497.478,363.391l0.777,4.889l0.567,7.568l0.303,5.717
		c0.128,0.771,0.645,1.932,1.546,1.801c0.899-0.129,1.286-2.443,1.286-2.443v-7.51l0.207-6.588c0,0,0.332-4.07,1.646-3.826
		c1.311,0.244,2.274,0.605,2.274,0.605s0.724,0.807,0.992,1.752c0.271,0.945,0.676,2.203,0.653,3.242
		c-0.023,1.039-0.477,10.404-0.477,10.404l-0.282,5.488l-0.122,4.422c-0.129,5.037,2.188,6.43,2.574,6.43
		c0.386,0,1.803-1.418,2.316-2.062c0.518-0.645,1.287-3.861,2.024-5.922c0.732-2.062,1.961-2.959,1.961-2.959l3.354-1.803
		c3.736-1.029,3.604,2.959,1.799,4.375s-4.764,9.27-4.764,9.27c-1.803,7.471-5.403,10.301-5.403,10.301s-3.735,3.725-7.643,4.521
		c-3.902,0.797-6.121,0.354-8.957,0.076c-0.002-0.002-4.392-2.285-5.524-4.793c-1.238-2.736-4.397-11.271-4.397-11.271l-0.385-2.828
		l-0.646-2.189l-1.931-3.859c0,0-0.991-5.633,3.604-2.836l2.314,2.961c0.922,0.896,1.289-0.127,1.289-0.127v-1.674l-0.842-3.602
		c0,0-0.511-5.186,3.932-1.807l1.031,3.479c0.635,1.283,1.544,0.516,1.544,0.516l0.257-1.16l-0.257-5.148l-0.649-7.793l-0.234-2.82
		l0.456-4.158C493.674,362.028,494.649,359.514,497.478,363.391z"/>
	<text transform="matrix(1 0 0 1 480.2056 424.4224)" fill="#CCDD59" font-family="'PTSans-Narrow'" font-size="14">POCKET</text>
	<circle fill="none" stroke="#CCDD59" cx="429.619" cy="398.092" r="5.24"/>
	<text transform="matrix(1 0 0 1 349.6772 424.9507)" fill="#CCDD59" font-family="'PTSans-Narrow'" font-size="14">EDGE</text>
	<path fill="none" stroke="#CCDD59" stroke-width="0.75" d="M351.397,406.827c-1.24-2.736-4.398-11.27-4.398-11.27l-0.385-2.828
		l-0.646-2.189l-1.93-3.859l-3.35-9.525c0,0,0.131-2.314,0.646-2.959c0.516-0.646,2.188,0.771,2.188,0.771l4.119,8.881l2.314,2.959
		c0.92,0.896,1.289-0.127,1.289-0.127v-1.676c0,0-2.832-17.123-2.832-18.15c0-1.029,1.934-1.803,1.934-1.803
		c0.514-0.518,1.93,1.416,1.93,1.416l2.061,13.131l1.029,3.479c0.637,1.283,1.545,0.516,1.545,0.516l0.258-1.158l-0.258-5.148
		l-0.902-10.812c0,0,0.262-3.35,0.518-4.119c0.258-0.773,1.803-0.516,1.803-0.516l1.803,1.803
		c1.029,0.645,1.805,18.408,1.805,18.408c0.127,0.771,0.643,1.934,1.543,1.803c0.9-0.129,1.287-2.443,1.287-2.443s0-11.07,0-11.975
		c0-0.898,0.516-5.15,1.158-5.664c0.645-0.516,0.387-0.258,2.311,0s2.324,5.535,2.324,5.535s-0.771,15.062-0.9,20.094
		c-0.129,5.035,2.188,6.428,2.574,6.428c0.385,0,1.803-1.416,2.316-2.061c0.518-0.646,1.287-3.863,2.023-5.922
		c0.734-2.062,1.963-2.959,1.963-2.959l3.355-1.805c3.734-1.029,3.602,2.959,1.797,4.375s-4.764,9.271-4.764,9.271
		c-1.803,7.471-5.404,10.301-5.404,10.301s-3.736,3.727-7.641,4.521c-3.902,0.797-6.121,0.354-8.959,0.074
		C356.921,411.618,352.53,409.334,351.397,406.827z"/>
	<path fill="none" stroke="#FFFFFF" stroke-width="0.75" d="M369.657,389.393c-0.129,5.033,2.188,6.428,2.574,6.428
		s1.803-1.416,2.316-2.061c0.518-0.646,1.287-3.863,2.025-5.922c0.734-2.062,1.963-2.959,1.963-2.959l3.354-1.805
		c3.736-1.029,3.602,2.959,1.799,4.375c-1.805,1.416-4.764,9.271-4.764,9.271c-1.805,7.471-5.404,10.301-5.404,10.301
		s-3.736,3.725-7.643,4.521c-3.902,0.797-6.121,0.354-8.957,0.074c-0.002-0.002-4.393-2.281-5.525-4.791
		c-1.238-2.736-4.396-11.27-4.396-11.27l-0.387-2.828l-0.645-2.189l-1.932-3.859c0,0-0.992-5.631,3.605-2.836l2.314,2.961
		c0.92,0.896,1.289-0.127,1.289-0.127v-1.676l-0.844-3.602c0,0-0.51-5.186,3.934-1.809l1.031,3.479
		c0.635,1.283,1.545,0.516,1.545,0.516l0.256-1.158l-0.256-5.148c0,0,1.492-4.559,4.242-0.809l0.781,5.572
		c0.127,0.771,0.643,1.932,1.543,1.803c0.9-0.131,1.287-2.445,1.287-2.445l1.139-6.41c0,0,1.75-2.52,3-0.645
		s1.375,4.125,1.375,4.125l-0.5,6.5L369.657,389.393z"/>
	<circle fill="none" stroke="#CCDD59" cx="360.991" cy="398.706" r="5.24"/>
	<circle fill="none" stroke="#CCDD59" cx="498.247" cy="398.092" r="5.24"/>
	<circle fill="none" stroke="#CCDD59" cx="566.875" cy="398.092" r="5.24"/>
	<path fill="none" stroke="#FFFFFF" stroke-width="0.75" d="M557.324,406.307c-1.24-2.736-4.398-11.27-4.398-11.27l-0.385-2.828
		l-0.646-2.188l-1.93-3.859l-3.35-9.527c0,0,0.131-2.314,0.646-2.959s2.188,0.771,2.188,0.771l4.119,8.881l2.314,2.961
		c0.922,0.896,1.289-0.127,1.289-0.127v-1.676c0,0-2.832-17.125-2.832-18.152s1.934-1.803,1.934-1.803
		c0.516-0.516,1.93,1.418,1.93,1.418l2.061,13.129l1.031,3.48c0.635,1.281,1.545,0.516,1.545,0.516l0.256-1.158l-0.256-5.148
		l-0.902-10.814c0,0,0.26-3.35,0.516-4.119c0.258-0.773,1.805-0.518,1.805-0.518l1.803,1.803c1.029,0.646,1.803,18.41,1.803,18.41
		c0.127,0.77,0.645,1.932,1.545,1.801c0.898-0.129,1.285-2.443,1.285-2.443s0-11.07,0-11.973c0-0.898,0.518-5.15,1.158-5.664
		c0.645-0.518,0.389-0.26,2.312,0c1.924,0.258,2.322,5.535,2.322,5.535s-0.77,15.062-0.9,20.092c-0.129,5.035,2.188,6.43,2.574,6.43
		s1.803-1.416,2.316-2.061c0.518-0.646,1.287-3.863,2.025-5.924c0.732-2.061,1.963-2.959,1.963-2.959l3.354-1.803
		c3.736-1.031,3.602,2.959,1.799,4.375c-1.805,1.416-4.764,9.271-4.764,9.271c-1.805,7.471-5.404,10.301-5.404,10.301
		s-3.736,3.725-7.643,4.52c-3.902,0.797-6.121,0.355-8.957,0.076C562.848,411.098,558.457,408.815,557.324,406.307z"/>
	<text transform="matrix(1 0 0 1 554.8984 424.4302)" fill="#CCDD59" font-family="'PTSans-Narrow'" font-size="14">PALM</text>
	<path fill="none" stroke="#CCDD59" stroke-width="0.75" d="M625.791,406.311c-1.238-2.736-4.398-11.27-4.398-11.27l-0.385-2.83
		l-0.646-2.189l-1.93-3.859l-3.348-9.527c0,0,0.131-2.314,0.646-2.959s2.188,0.771,2.188,0.771l4.117,8.881l2.314,2.961
		c0.922,0.895,1.289-0.127,1.289-0.127v-1.678c0,0-2.832-17.121-2.832-18.15c0-1.027,1.934-1.801,1.934-1.801
		c0.516-0.516,1.932,1.416,1.932,1.416l2.061,13.129l1.029,3.48c0.637,1.281,1.545,0.514,1.545,0.514l0.258-1.158l-0.258-5.148
		l-0.9-10.814c0,0,0.26-3.348,0.516-4.119c0.258-0.771,1.803-0.516,1.803-0.516l1.803,1.803c1.029,0.646,1.807,18.41,1.807,18.41
		c0.127,0.77,0.643,1.93,1.543,1.801c0.898-0.129,1.285-2.445,1.285-2.445s0-11.068,0-11.973c0-0.9,0.518-5.15,1.158-5.664
		c0.646-0.516,0.389-0.258,2.312,0s2.326,5.535,2.326,5.535s-0.773,15.062-0.902,20.094c-0.129,5.035,2.188,6.428,2.574,6.428
		c0.385,0,1.803-1.418,2.314-2.061c0.52-0.646,1.287-3.863,2.025-5.926c0.734-2.059,1.963-2.959,1.963-2.959l3.354-1.803
		c3.736-1.029,3.602,2.961,1.799,4.377c-1.805,1.416-4.764,9.271-4.764,9.271c-1.805,7.471-5.404,10.301-5.404,10.301
		s-3.736,3.725-7.643,4.521c-3.902,0.797-6.121,0.354-8.957,0.076C631.316,411.102,626.926,408.821,625.791,406.311z"/>
	<path fill="none" stroke="#FFFFFF" stroke-width="0.75" d="M648.156,388.147c0.197,2.18,0.414,4.916,0.215,5.717
		c-0.191,0.803-0.598,1.109-0.936,1.299c-0.186,0.104-0.809,0.145-0.809,0.145c-0.389,0-2.703-1.395-2.574-6.43l0.121-4.42
		l0.283-5.488c0,0,0.453-9.363,0.477-10.404c0.023-1.039-0.383-2.297-0.652-3.242c-0.271-0.945-0.992-1.752-0.992-1.752
		s-0.965-0.363-2.275-0.605c-1.314-0.246-1.646,3.824-1.646,3.824l-0.207,6.588v7.51c0,0-0.387,2.316-1.287,2.445
		s-1.416-1.031-1.545-1.801l-0.143-2.703c-3.174-6.445-4.762,0.303-4.762,0.303l0.139,2.783l-0.258,1.16
		c0,0-0.908,0.768-1.543-0.516l-1.031-3.479c-3.137-3.529-3.684,1.793-3.684,1.793l0.592,3.613v1.676c0,0-0.367,1.023-1.289,0.127
		l-2.314-2.961c-4.596-2.795-3.604,2.836-3.604,2.836l1.932,3.859l0.646,2.189l0.385,2.828c0,0,3.158,8.533,4.398,11.271
		c1.133,2.508,5.521,4.791,5.523,4.793c2.836,0.275,5.055,0.723,8.957-0.076c3.904-0.799,7.643-4.521,7.643-4.521
		s3.604-2.83,5.404-10.301v-0.83v-1.812c-0.092-6.486,0.678-9.271,0.678-9.271c1.039-2.045-0.52-5.719-3.477-3.211l-1.639,3.004
		C648.885,384.084,647.922,386.231,648.156,388.147z"/>
	<text transform="matrix(1 0 0 1 621.6875 424.4312)" fill="#CCDD59" font-family="'PTSans-Narrow'" font-size="14">PINCH</text>
</g>
<g id="A">
	<text transform="matrix(1 0 0 1 187.0576 433.2271)" fill="#AAD5C4" font-family="'PTSans-Narrow'" font-size="18">A</text>
	<text transform="matrix(1 0 0 1 320.5464 321.8267)" fill="#AAD5C4" font-family="'PTSans-Narrow'" font-size="18">A</text>
	<text transform="matrix(1 0 0 1 572.6211 312.7437)" fill="#AAD5C4" font-family="'PTSans-Narrow'" font-size="18">A</text>
	<text transform="matrix(1 0 0 1 625.4297 224.4712)" fill="#AAD5C4" font-family="'PTSans-Narrow'" font-size="18">A</text>
	<text transform="matrix(1 0 0 1 794.7676 193.604)" fill="#AAD5C4" font-family="'PTSans-Narrow'" font-size="18">A</text>
	<text transform="matrix(1 0 0 1 906.3711 104.6509)" fill="#AAD5C4" font-family="'PTSans-Narrow'" font-size="18">A</text>
	<text transform="matrix(1 0 0 1 906.3711 45.0649)" fill="#AAD5C4" font-family="'PTSans-Narrow'" font-size="18">A</text>
</g>
<g id="B">
	<text transform="matrix(1 0 0 1 238.4355 402.1157)" fill="#AAD5C4" font-family="'PTSans-Narrow'" font-size="18">B</text>
	<text transform="matrix(1 0 0 1 424.436 260.4517)" fill="#AAD5C4" font-family="'PTSans-Narrow'" font-size="18">B</text>
	<text transform="matrix(1 0 0 1 846.8496 104.6509)" fill="#AAD5C4" font-family="'PTSans-Narrow'" font-size="18">B</text>
</g>
<g id="C">
	<text transform="matrix(1 0 0 1 268.1377 349.7017)" fill="#AAD5C4" font-family="'PTSans-Narrow'" font-size="18">C</text>
	<text transform="matrix(1 0 0 1 372.4883 290.6709)" fill="#AAD5C4" font-family="'PTSans-Narrow'" font-size="18">C</text>
	<text transform="matrix(1 0 0 1 572.7559 254.563)" fill="#AAD5C4" font-family="'PTSans-Narrow'" font-size="18">C</text>
	<text transform="matrix(1 0 0 1 794.9023 134.5806)" fill="#AAD5C4" font-family="'PTSans-Narrow'" font-size="18">C</text>
</g>
<g id="D">
	<text transform="matrix(1 0 0 1 483.4888 260.9146)" fill="#AAD5C4" font-family="'PTSans-Narrow'" font-size="18">D</text>
	<text transform="matrix(1 0 0 1 683.7266 224.4712)" fill="#AAD5C4" font-family="'PTSans-Narrow'" font-size="18">D</text>
</g>
<g id="E">
	<text transform="matrix(1 0 0 1 135.2476 462.3345)" fill="#AAD5C4" font-family="'PTSans-Narrow'" font-size="18">E</text>
	<text transform="matrix(1 0 0 1 514.252 312.7124)" fill="#AAD5C4" font-family="'PTSans-Narrow'" font-size="18">E</text>
	<text transform="matrix(1 0 0 1 743.6143 224.4712)" fill="#AAD5C4" font-family="'PTSans-Narrow'" font-size="18">E</text>
</g>
</svg>
