<?xml version="1.0" encoding="utf-8"?>
<!-- Generator: Adobe Illustrator 14.0.0, SVG Export Plug-In . SVG Version: 6.00 Build 43363)  -->
<!DOCTYPE svg PUBLIC "-//W3C//DTD SVG 1.1//EN" "http://www.w3.org/Graphics/SVG/1.1/DTD/svg11.dtd">
<svg version="1.1" id="Layer_6" xmlns="http://www.w3.org/2000/svg" xmlns:xlink="http://www.w3.org/1999/xlink" x="0px" y="0px"
	 width="1000px" height="470px" viewBox="0 0 1000 470" enable-background="new 0 0 1000 470" xml:space="preserve">
<text transform="matrix(1 0 0 1 134.3638 465)" fill="#AAD5C4" font-family="'PTSans-Narrow'" font-size="18">E</text>
<text transform="matrix(1 0 0 1 186.1079 435.8926)" fill="#AAD5C4" font-family="'PTSans-Narrow'" font-size="18">A</text>
<text transform="matrix(1 0 0 1 238.4888 406.0488)" fill="#AAD5C4" font-family="'PTSans-Narrow'" font-size="18">B</text>
<text transform="matrix(1 0 0 1 268.2104 353.6348)" fill="#AAD5C4" font-family="'PTSans-Narrow'" font-size="18">C</text>
<text transform="matrix(1 0 0 1 320.5967 325.0361)" fill="#AAD5C4" font-family="'PTSans-Narrow'" font-size="18">A</text>
<text transform="matrix(1 0 0 1 372.561 294.6045)" fill="#AAD5C4" font-family="'PTSans-Narrow'" font-size="18">C</text>
<text transform="matrix(1 0 0 1 424.4893 264.3857)" fill="#AAD5C4" font-family="'PTSans-Narrow'" font-size="18">B</text>
<text transform="matrix(1 0 0 1 483.4614 264.8486)" fill="#AAD5C4" font-family="'PTSans-Narrow'" font-size="18">D</text>
<text transform="matrix(1 0 0 1 514.3691 316.6455)" fill="#AAD5C4" font-family="'PTSans-Narrow'" font-size="18">E</text>
<text transform="matrix(1 0 0 1 572.6719 316.6758)" fill="#AAD5C4" font-family="'PTSans-Narrow'" font-size="18">A</text>
<text transform="matrix(1 0 0 1 572.8301 258.4961)" fill="#AAD5C4" font-family="'PTSans-Narrow'" font-size="18">C</text>
<text transform="matrix(1 0 0 1 625.4805 228.4043)" fill="#AAD5C4" font-family="'PTSans-Narrow'" font-size="18">A</text>
<text transform="matrix(1 0 0 1 683.6992 228.4043)" fill="#AAD5C4" font-family="'PTSans-Narrow'" font-size="18">D</text>
<text transform="matrix(1 0 0 1 743.7305 228.4043)" fill="#AAD5C4" font-family="'PTSans-Narrow'" font-size="18">E</text>
<text transform="matrix(1 0 0 1 794.8184 197.5371)" fill="#AAD5C4" font-family="'PTSans-Narrow'" font-size="18">A</text>
<text transform="matrix(1 0 0 1 794.9746 138.5127)" fill="#AAD5C4" font-family="'PTSans-Narrow'" font-size="18">C</text>
<text transform="matrix(1 0 0 1 846.9023 108.583)" fill="#AAD5C4" font-family="'PTSans-Narrow'" font-size="18">B</text>
<text transform="matrix(1 0 0 1 906.4219 108.583)" fill="#AAD5C4" font-family="'PTSans-Narrow'" font-size="18">A</text>
<text transform="matrix(1 0 0 1 906.4219 48.999)" fill="#AAD5C4" font-family="'PTSans-Narrow'" font-size="18">A</text>
</svg>
