<?xml version="1.0" encoding="utf-8"?>
<!-- Generator: Adobe Illustrator 14.0.0, SVG Export Plug-In . SVG Version: 6.00 Build 43363)  -->
<!DOCTYPE svg PUBLIC "-//W3C//DTD SVG 1.1//EN" "http://www.w3.org/Graphics/SVG/1.1/DTD/svg11.dtd">
<svg version="1.1" xmlns="http://www.w3.org/2000/svg" xmlns:xlink="http://www.w3.org/1999/xlink" x="0px" y="0px" width="155px"
	 height="40px" viewBox="22.5 30 155 40" enable-background="new 22.5 30 155 40" xml:space="preserve">
<g id="Layer_2_1_">
	<path fill="#FFFFFF" d="M48.326,40.908c0.565-0.159,1.167-0.265,1.802-0.317c0.637-0.053,1.264-0.08,1.883-0.08
		c0.706,0,1.404,0.08,2.094,0.239c0.689,0.159,1.312,0.451,1.868,0.875c0.557,0.424,1.007,1.007,1.352,1.749
		c0.344,0.742,0.517,1.688,0.517,2.836c0,1.113-0.164,2.059-0.49,2.836c-0.328,0.777-0.76,1.41-1.299,1.894
		c-0.539,0.488-1.157,0.84-1.855,1.06c-0.698,0.223-1.417,0.333-2.16,0.333c-0.071,0-0.186,0-0.345,0
		c-0.158,0-0.327-0.005-0.503-0.014c-0.177-0.009-0.35-0.021-0.517-0.039c-0.168-0.018-0.288-0.037-0.358-0.055v7.052h-1.987V40.908
		z M52.116,42.34c-0.354,0-0.694,0.013-1.021,0.04c-0.327,0.027-0.587,0.067-0.782,0.12v7.898c0.071,0.036,0.181,0.059,0.332,0.066
		c0.15,0.01,0.305,0.018,0.464,0.027c0.159,0.009,0.313,0.012,0.464,0.012c0.149,0,0.26,0,0.331,0c0.495,0,0.972-0.061,1.431-0.185
		s0.866-0.349,1.22-0.676c0.353-0.327,0.64-0.769,0.861-1.326c0.221-0.556,0.332-1.259,0.332-2.107c0-0.742-0.102-1.36-0.306-1.855
		c-0.203-0.495-0.468-0.893-0.794-1.192c-0.327-0.301-0.711-0.513-1.153-0.637C53.052,42.402,52.593,42.34,52.116,42.34z"/>
	<path fill="#FFFFFF" d="M59.379,50c0-3.146,0.503-5.531,1.51-7.157c1.007-1.625,2.544-2.438,4.612-2.438
		c1.113,0,2.058,0.226,2.836,0.676c0.777,0.451,1.409,1.091,1.895,1.921c0.486,0.831,0.843,1.838,1.074,3.021
		c0.229,1.185,0.345,2.509,0.345,3.977c0,3.145-0.508,5.53-1.524,7.155c-1.016,1.627-2.558,2.439-4.625,2.439
		c-1.096,0-2.033-0.225-2.81-0.676c-0.778-0.451-1.414-1.091-1.908-1.922c-0.495-0.83-0.853-1.838-1.074-3.021
		C59.489,52.792,59.379,51.467,59.379,50z M61.473,50c0,1.042,0.075,2.032,0.225,2.967c0.15,0.938,0.384,1.76,0.703,2.465
		c0.318,0.708,0.733,1.273,1.246,1.697s1.131,0.636,1.855,0.636c1.325,0,2.332-0.636,3.021-1.907
		c0.689-1.273,1.034-3.226,1.034-5.858c0-1.025-0.076-2.006-0.226-2.943c-0.15-0.937-0.384-1.763-0.702-2.479
		c-0.318-0.715-0.733-1.285-1.246-1.709c-0.513-0.424-1.14-0.636-1.882-0.636c-1.308,0-2.306,0.636-2.995,1.909
		C61.817,45.415,61.473,47.367,61.473,50z"/>
	<path fill="#FFFFFF" d="M74.486,40.908c0.583-0.141,1.224-0.242,1.922-0.305c0.698-0.061,1.338-0.093,1.922-0.093
		c0.689,0,1.342,0.084,1.961,0.252c0.619,0.167,1.158,0.45,1.617,0.848c0.459,0.397,0.826,0.918,1.1,1.563
		c0.274,0.646,0.412,1.454,0.412,2.426c0,1.466-0.305,2.641-0.915,3.525c-0.61,0.884-1.418,1.477-2.425,1.776l1.007,0.98
		l3.658,7.396h-2.306l-3.976-8.086l-1.989-0.396v8.481h-1.988V40.908z M76.474,49.47h1.591c1.007,0,1.803-0.309,2.385-0.928
		c0.583-0.618,0.875-1.563,0.875-2.835c0-0.972-0.243-1.776-0.729-2.412c-0.486-0.637-1.206-0.955-2.16-0.955
		c-0.354,0-0.72,0.013-1.1,0.04c-0.38,0.027-0.667,0.067-0.862,0.12V49.47z"/>
	<path fill="#FFFFFF" d="M95.744,42.552h-4.559v16.726h-1.987V42.552h-4.56v-1.829h11.106V42.552z"/>
	<path fill="#FFFFFF" d="M97.812,40.723h8.243v1.829h-6.256V49.1h5.833v1.827h-5.833v8.351h-1.987V40.723z"/>
	<path fill="#FFFFFF" d="M108.201,50c0-3.146,0.504-5.531,1.512-7.157c1.007-1.625,2.543-2.438,4.61-2.438
		c1.114,0,2.06,0.226,2.837,0.676c0.777,0.451,1.41,1.091,1.895,1.921c0.486,0.831,0.844,1.838,1.074,3.021
		c0.23,1.185,0.346,2.509,0.346,3.977c0,3.145-0.51,5.53-1.525,7.155c-1.016,1.627-2.558,2.439-4.626,2.439
		c-1.095,0-2.031-0.225-2.81-0.676c-0.776-0.451-1.412-1.091-1.908-1.922c-0.494-0.83-0.853-1.838-1.072-3.021
		C108.312,52.792,108.201,51.467,108.201,50z M110.297,50c0,1.042,0.073,2.032,0.224,2.967c0.149,0.938,0.384,1.76,0.702,2.465
		c0.318,0.708,0.732,1.273,1.246,1.697c0.513,0.424,1.131,0.636,1.854,0.636c1.325,0,2.333-0.636,3.022-1.907
		c0.689-1.273,1.035-3.226,1.035-5.858c0-1.025-0.076-2.006-0.227-2.943c-0.149-0.937-0.384-1.763-0.702-2.479
		c-0.319-0.715-0.735-1.285-1.246-1.709c-0.513-0.424-1.14-0.636-1.883-0.636c-1.308,0-2.304,0.636-2.993,1.909
		S110.297,47.367,110.297,50z"/>
	<path fill="#FFFFFF" d="M132.242,59.277h-8.934V40.723h1.988v16.725h6.945V59.277z"/>
	<path fill="#FFFFFF" d="M134.707,40.723h1.988v18.554h-1.988V40.723z"/>
	<path fill="#FFFFFF" d="M139.93,50c0-3.146,0.502-5.531,1.51-7.157c1.006-1.625,2.543-2.438,4.612-2.438
		c1.112,0,2.058,0.226,2.835,0.676c0.777,0.451,1.408,1.091,1.896,1.921c0.485,0.831,0.844,1.838,1.073,3.021
		c0.229,1.185,0.346,2.509,0.346,3.977c0,3.145-0.508,5.53-1.524,7.155c-1.017,1.627-2.558,2.439-4.625,2.439
		c-1.097,0-2.034-0.225-2.811-0.676c-0.778-0.451-1.413-1.091-1.907-1.922c-0.496-0.83-0.854-1.838-1.074-3.021
		C140.039,52.792,139.93,51.467,139.93,50z M142.021,50c0,1.042,0.075,2.032,0.225,2.967c0.151,0.938,0.385,1.76,0.705,2.465
		c0.317,0.708,0.73,1.273,1.244,1.697c0.512,0.424,1.131,0.636,1.856,0.636c1.325,0,2.333-0.636,3.022-1.907
		c0.687-1.273,1.031-3.226,1.031-5.858c0-1.025-0.076-2.006-0.225-2.943c-0.15-0.937-0.384-1.763-0.701-2.479
		c-0.32-0.715-0.734-1.285-1.245-1.709c-0.513-0.424-1.142-0.636-1.883-0.636c-1.31,0-2.308,0.636-2.997,1.909
		C142.367,45.415,142.021,47.367,142.021,50z"/>
</g>
<g id="Layer_3">
	<rect x="25.832" y="34" fill="none" stroke="#FFFFFF" stroke-width="2" width="148" height="32"/>
</g>
</svg>
