<?xml version="1.0" encoding="utf-8"?>
<!-- Generator: Adobe Illustrator 14.0.0, SVG Export Plug-In . SVG Version: 6.00 Build 43363)  -->
<!DOCTYPE svg PUBLIC "-//W3C//DTD SVG 1.1//EN" "http://www.w3.org/Graphics/SVG/1.1/DTD/svg11.dtd">
<svg version="1.1" id="Layer_4" xmlns="http://www.w3.org/2000/svg" xmlns:xlink="http://www.w3.org/1999/xlink" x="0px" y="0px"
	 width="144px" height="244.8px" viewBox="-7.2 0 144 244.8" enable-background="new -7.2 0 144 244.8" xml:space="preserve">
<rect x="69.624" y="135.626" fill="#FFFFFF" stroke="#000000" stroke-width="0.75" width="17.576" height="90.854"/>
<rect x="15.325" y="155.101" fill="#BCBCBC" width="17.575" height="71.381"/>
<rect x="42.401" y="178.376" fill="#BCBCBC" width="17.574" height="48.104"/>
<rect x="96.7" y="164.126" fill="#BCBCBC" width="17.575" height="62.354"/>
<text transform="matrix(1 0 0 1 16.8499 155.1011)" fill="#BCBCBC" font-family="'PTSans-Narrow'" font-size="22.8">%</text>
<text transform="matrix(1 0 0 1 43.926 178.3765)" fill="#BCBCBC" font-family="'PTSans-Narrow'" font-size="22.8">%</text>
<text transform="matrix(1 0 0 1 71.1516 135.7222)" font-family="'PTSans-Narrow'" font-size="22.8">%</text>
<text transform="matrix(1 0 0 1 98.2258 164.1284)" fill="#BCBCBC" font-family="'PTSans-Narrow'" font-size="22.8">%</text>
<path fill="#BCBCBC" d="M110.683,64.201c0,25.34-20.541,45.883-45.883,45.883c-25.341,0-45.885-20.543-45.885-45.883
	c0-25.344,20.544-45.883,45.885-45.883C90.142,18.318,110.683,38.857,110.683,64.201z M42.284,64.345
	c0,12.367,10.025,22.393,22.391,22.393c12.368,0,22.391-10.025,22.391-22.393c0-12.363-10.022-22.391-22.391-22.391
	C52.31,41.955,42.284,51.982,42.284,64.345z"/>
<path fill="none" stroke="#000000" stroke-width="0.5" d="M64.799,167.634"/>
<path fill="#FFFFFF" stroke="#000000" stroke-width="0.75" d="M49.116,48.263c-4.047,4.047-6.551,9.637-6.551,15.809
	c0,12.352,10.012,22.363,22.361,22.363c3.759,0,7.302-0.928,10.412-2.566c2-1.051,3.82-2.402,5.402-3.984l16.717,0.613l0.01,16.109
	c-3.26,3.258-7.004,6.031-11.115,8.197c-6.397,3.373-13.688,5.279-21.425,5.279c-25.411,0-46.013-20.598-46.013-46.012
	c0-12.621,5.08-24.055,13.309-32.367L32.06,47.646L49.116,48.263z"/>
</svg>
