<?xml version="1.0" encoding="utf-8"?>
<!-- Generator: Adobe Illustrator 14.0.0, SVG Export Plug-In . SVG Version: 6.00 Build 43363)  -->
<!DOCTYPE svg PUBLIC "-//W3C//DTD SVG 1.1//EN" "http://www.w3.org/Graphics/SVG/1.1/DTD/svg11.dtd">
<svg version="1.1" id="Layer_1" xmlns="http://www.w3.org/2000/svg" xmlns:xlink="http://www.w3.org/1999/xlink" x="0px" y="0px"
	 width="612px" height="792px" viewBox="0 0 612 792" enable-background="new 0 0 612 792" xml:space="preserve">
<g id="Layer_8">
</g>
<g id="Layer_6">
	<path fill="#CCDD59" d="M576.116,631c0,6.627-5.372,12-12,12H206c-6.627,0-12-5.373-12-12v-63c0-6.627,5.373-12,12-12h358.116
		c6.628,0,12,5.373,12,12V631L576.116,631z"/>
</g>
<g id="Text">
	<text transform="matrix(1 0 0 1 278.8604 200.4268)" font-family="'GillSans'" font-size="11">University of Michigan. Ann Arbor, MI</text>
	<text transform="matrix(1 0 0 1 278.8604 212.4268)" font-family="'GillSans-LightItalic'" font-size="10">Taubman College of Architecture &amp; Urban Planning</text>
	<text transform="matrix(1 0 0 1 278.8604 224.4268)" font-family="'GillSans-Light'" font-size="10">M. Arch &amp; M. Urban Planning | 2009 - 2012</text>
	<text transform="matrix(1 0 0 1 278.8604 246.1973)" font-family="'GillSans'" font-size="11">University of California. Berkeley, CA</text>
	<text transform="matrix(1 0 0 1 278.8604 258.1973)" font-family="'GillSans-LightItalic'" font-size="10">College of Environmental Design</text>
	<text transform="matrix(1 0 0 1 278.8604 270.1973)" font-family="'GillSans-Light'" font-size="10">B.A. Degree &amp; Minor in City Planning | 2002 - 2006</text>
	<text transform="matrix(1 0 0 1 279 292.6611)" font-family="'GillSans'" font-size="11">Feldman Architecture</text>
	<text transform="matrix(1 0 0 1 279 304.6611)" font-family="'GillSans-LightItalic'" font-size="10">Designer/Revit Specialist | </text>
	<text transform="matrix(1 0 0 1 376.6113 304.6611)" font-family="'GillSans-Light'" font-size="10">May 2012 - August 2013</text>
	<text transform="matrix(1 0 0 1 279 316.0615)" font-family="'GillSans-Light'" font-size="9.5" letter-spacing="27"> </text>
	<text transform="matrix(1 0 0 1 315 316.0615)" fill="#636363" font-family="'GillSans-Light'" font-size="9.5">Developed schematic designs, generated flexible component library </text>
	
		<text transform="matrix(1 0 0 1 279 327.4619)" fill="#636363" font-family="'GillSans-Light'" font-size="9.5" letter-spacing="27"> </text>
	<text transform="matrix(1 0 0 1 315 327.4619)" fill="#636363" font-family="'GillSans-Light'" font-size="9.5">for project use, coordinated with consultants, prepared construction </text>
	
		<text transform="matrix(1 0 0 1 279 338.8613)" fill="#636363" font-family="'GillSans-Light'" font-size="9.5" letter-spacing="27"> </text>
	<text transform="matrix(1 0 0 1 315 338.8613)" fill="#636363" font-family="'GillSans-Light'" font-size="9.5">documents, and designed layouts for client presentations</text>
	<text transform="matrix(1 0 0 1 279 360.4023)" font-family="'GillSans'" font-size="11">The Ecology Center</text>
	<text transform="matrix(1 0 0 1 279 372.4023)" font-family="'GillSans-LightItalic'" font-size="10">LEED Consultant | </text>
	<text transform="matrix(1 0 0 1 350.3535 372.4023)" font-family="'GillSans-Light'" font-size="10">January 2011 - September 2011</text>
	<text transform="matrix(1 0 0 1 279 383.8027)" font-family="'GillSans-Light'" font-size="9.5" letter-spacing="27"> </text>
	<text transform="matrix(1 0 0 1 315 383.8027)" fill="#636363" font-family="'GillSans-Light'" font-size="9.5">Coordinated LEED(ID+C) documentation for Gold Certification</text>
	<text transform="matrix(1 0 0 1 279 453.1699)" font-family="'GillSans'" font-size="11">Stoecker &amp; Northway</text>
	<text transform="matrix(1 0 0 1 279 465.1699)" font-family="'GillSans-LightItalic'" font-size="10">Architectural Intern/Designer | </text>
	<text transform="matrix(1 0 0 1 392.0137 465.1699)" font-family="'GillSans-Light'" font-size="10">June 2006 - July 2009</text>
	<text transform="matrix(1 0 0 1 279 476.5703)" font-family="'GillSans-Light'" font-size="9.5" letter-spacing="27"> </text>
	<text transform="matrix(1 0 0 1 315 476.5703)" fill="#636363" font-family="'GillSans-Light'" font-size="9.5">Prepared construction documents for permit submittals, schematic </text>
	
		<text transform="matrix(1 0 0 1 279 487.9707)" fill="#636363" font-family="'GillSans-Light'" font-size="9.5" letter-spacing="27"> </text>
	<text transform="matrix(1 0 0 1 315 487.9707)" fill="#636363" font-family="'GillSans-Light'" font-size="9.5">designs, design development, presentation layouts for preliminary &amp; </text>
	
		<text transform="matrix(1 0 0 1 279 499.3711)" fill="#636363" font-family="'GillSans-Light'" font-size="9.5" letter-spacing="27"> </text>
	<text transform="matrix(1 0 0 1 315 499.3711)" fill="#636363" font-family="'GillSans-Light'" font-size="9.5">final board review, construction administration and project management</text>
	<text transform="matrix(1 0 0 1 583.1699 499.3711)" font-family="'GillSans-Light'" font-size="9.5"> </text>
	<text transform="matrix(1 0 0 1 278.7207 520.5645)" font-family="'GillSans'" font-size="11">MBH Architects</text>
	<text transform="matrix(1 0 0 1 278.7207 532.5645)" font-family="'GillSans-LightItalic'" font-size="10">Librarian | </text>
	<text transform="matrix(1 0 0 1 318.4766 532.5645)" font-family="'GillSans-Light'" font-size="10">June 2003 - December 2003</text>
	<text transform="matrix(1 0 0 1 278.7207 543.9629)" font-family="'GillSans-Light'" font-size="9.5" letter-spacing="27"> </text>
	<text transform="matrix(1 0 0 1 314.7207 543.9629)" fill="#636363" font-family="'GillSans-Light'" font-size="9.5">Organized and maintained material database</text>
	<text transform="matrix(1 0 0 1 278.8604 663.7832)" font-family="'GillSans-LightItalic'" font-size="10">Threshold Studio Honoree Award | Annual Student Show | 2011</text>
	<text transform="matrix(1 0 0 1 278.8604 675.7832)" font-family="'GillSans-LightItalic'" font-size="10">Lorch Scholar | Taubman Scholarship | 2009 - 2012</text>
	<text transform="matrix(1 0 0 1 278.8604 687.7832)" font-family="'GillSans-LightItalic'" font-size="10">Architecture Alumni Scholarship | 2010 - 2011</text>
	<text transform="matrix(1 0 0 1 278.8604 699.7832)" font-family="'GillSans-LightItalic'" font-size="10">Graduate Honoree | Annual Student Show | 2010 | 2011</text>
	<text transform="matrix(1 0 0 1 278.8604 711.7832)" font-family="'GillSans-LightItalic'" font-size="10">Best Project | Raymond Watson Award | 2003</text>
	<text transform="matrix(1 0 0 1 279 407.1699)" font-family="'GillSans'" font-size="11">UM Ross School of Business</text>
	<text transform="matrix(1 0 0 1 405.0762 407.1699)" font-family="'GillSans-Light'" font-size="9.5" letter-spacing="9"> </text>
	<text transform="matrix(1 0 0 1 279 419.1699)" font-family="'GillSans-LightItalic'" font-size="10">Consultant | </text>
	<text transform="matrix(1 0 0 1 326.2305 419.1699)" font-family="'GillSans-Light'" font-size="10">May 2010 - July 2010</text>
	
		<text transform="matrix(1 0 0 1 279 430.5684)" fill="#636363" font-family="'GillSans-Light'" font-size="9.5" letter-spacing="27"> </text>
	<text transform="matrix(1 0 0 1 315 430.5684)" fill="#636363" font-family="'GillSans-Light'" font-size="9.5">Facilitated a Business Improvement District Plan for Dupont Circle</text>
	<text transform="matrix(1 0 0 1 390.9727 572.8223)" font-family="'GillSans-Light'" font-size="10">Rhino</text>
	<text transform="matrix(1 0 0 1 390.9727 584.8223)" font-family="'GillSans-Light'" font-size="10">Revit </text>
	<text transform="matrix(1 0 0 1 390.9727 596.8223)" font-family="'GillSans-Light'" font-size="10">AutoCAD</text>
	<text transform="matrix(1 0 0 1 390.9727 608.8223)" font-family="'GillSans-Light'" font-size="10">Sketchup Pro</text>
	<text transform="matrix(1 0 0 1 390.9727 620.8223)" font-family="'GillSans-Light'" font-size="10">Vray</text>
	<text transform="matrix(1 0 0 1 390.9727 632.8223)" font-family="'GillSans-Light'" font-size="10">GIS</text>
	<text transform="matrix(1 0 0 1 278.8604 572.8223)" font-family="'GillSans-Light'" font-size="10">Adobe Illustrator </text>
	<text transform="matrix(1 0 0 1 278.8604 584.8223)" font-family="'GillSans-Light'" font-size="10">Adobe Photoshop</text>
	<text transform="matrix(1 0 0 1 278.8604 596.8223)" font-family="'GillSans-Light'" font-size="10">Adobe Indesign</text>
	<text transform="matrix(1 0 0 1 278.8604 608.8223)" font-family="'GillSans-Light'" font-size="10">Adobe Premiere Pro</text>
	<text transform="matrix(1 0 0 1 278.8604 620.8223)" font-family="'GillSans-Light'" font-size="10">Adobe Acrobat Pro</text>
	<text transform="matrix(1 0 0 1 278.8604 632.8223)" font-family="'GillSans-Light'" font-size="10">Social Media</text>
	<text transform="matrix(1 0 0 1 477.6992 572.8223)" font-family="'GillSans-Light'" font-size="10">HTML5 </text>
	<text transform="matrix(1 0 0 1 477.6992 584.8223)" font-family="'GillSans-Light'" font-size="10">CSS</text>
	<text transform="matrix(1 0 0 1 477.6992 596.8223)" font-family="'GillSans-Light'" font-size="10">JQuery</text>
	<text transform="matrix(1 0 0 1 477.6992 608.8223)" font-family="'GillSans-Light'" font-size="10">3D Studio Max</text>
	<text transform="matrix(1 0 0 1 477.6992 620.8223)" font-family="'GillSans-Light'" font-size="10">Ecotect</text>
	<text transform="matrix(1 0 0 1 477.6992 632.8223)" font-family="'GillSans-Light'" font-size="10">USGBC LEED</text>
</g>
<g id="Titles">
	<circle cx="231.569" cy="204.571" r="15.167"/>
	<text transform="matrix(1 0 0 1 206.6035 233.0107)" fill="#636363" font-family="'AvenirNextCondensed-Regular'" font-size="11">EDUCATION</text>
	<path fill="#FFFFFF" d="M226.36,205.246l-0.566,2.835c0.087,1.613,5.256,2.127,5.256,2.127c5.007,0.421,5.647-1.299,5.647-1.299
		l0.131-0.479l-0.262-1.396h1.003l4.449-4.929l-13.434-1.482l-9.551,2.966l0.217,0.349L226.36,205.246z"/>
	<circle cx="231.569" cy="294.38" r="15.167"/>
	<text transform="matrix(1 0 0 1 207.7529 322.8203)" fill="#636363" font-family="'AvenirNextCondensed-Regular'" font-size="11">EXPERIENCE</text>
	<path fill="#FFFFFF" d="M223.709,298.691c-0.783-1.206-0.699-2.009-0.699-2.009l2.143-1.734c0,0-0.019-0.662,0.083-1.241
		l-2.272-1.835c0.297-1.407,0.926-1.916,0.926-1.916l2.742,0.289c0,0,0.454-0.482,0.936-0.819l-0.31-2.905
		c1.206-0.783,2.009-0.699,2.009-0.699l1.734,2.143c0,0,0.662-0.019,1.241,0.083l1.836-2.272c1.407,0.297,1.915,0.926,1.915,0.926
		l-0.289,2.741c0,0,0.482,0.455,0.82,0.937l2.904-0.31c0.783,1.206,0.699,2.009,0.699,2.009l-2.143,1.734
		c0,0,0.02,0.662-0.082,1.242l2.272,1.835c-0.298,1.406-0.927,1.915-0.927,1.915l-2.741-0.289c0,0-0.454,0.482-0.937,0.819
		l0.31,2.905c-1.206,0.783-2.009,0.699-2.009,0.699l-1.734-2.143c0,0-0.662,0.019-1.241-0.082l-1.835,2.271
		c-1.407-0.297-1.916-0.926-1.916-0.926l0.289-2.741c0,0-0.481-0.455-0.819-0.936L223.709,298.691z M231.57,291.356
		c-1.671,0-3.024,1.354-3.024,3.024c0,1.669,1.354,3.022,3.024,3.022c1.669,0,3.022-1.354,3.022-3.022
		C234.592,292.709,233.239,291.356,231.57,291.356z"/>
	<circle cx="231.57" cy="579.702" r="15.167"/>
	<g>
		<text transform="matrix(1 0 0 1 213.7598 608.1406)" fill="#636363" font-family="'AvenirNextCondensed-Regular'" font-size="11">SKILL SET</text>
	</g>
	<path fill="#FFFFFF" d="M237.467,576.412l1.196-0.057l2.921-2.869c0.271,0,1.405,2.869-0.644,5.26
		c-2.018,2.354-5.305,1.562-5.523,1.508l-8.654,8.684c0,0-1.252,0.975-2.903-0.277l-0.255-0.27
		c-1.253-1.646-0.285-2.898-0.285-2.898l8.684-8.654c-0.059-0.219-0.846-3.506,1.508-5.521c2.392-2.053,5.262-0.912,5.262-0.646
		l-2.87,2.922l-0.057,1.195L237.467,576.412z M225.661,585.443c-0.666,0-1.206,0.541-1.206,1.207s0.54,1.207,1.206,1.207
		c0.667,0,1.208-0.541,1.208-1.207S226.328,585.443,225.661,585.443z"/>
	<circle cx="231.57" cy="668.035" r="15.167"/>
	<g>
		<text transform="matrix(1 0 0 1 204.2021 697.2246)" fill="#636363" font-family="'AvenirNextCondensed-Regular'" font-size="11">RECOGNITION</text>
	</g>
	<path fill="#FFFFFF" d="M227.112,677.361l0.226-0.96l0.452-0.852l1.411-0.622l1.016-0.444l0.057-0.962l-0.226-1.24l-1.242-0.684
		l-1.072-1.405l-0.226-0.853l-0.847-1.066c-3.047-2.991-2.822-5.142-2.822-5.142l0.113-0.678l0.338-0.562l2.992-0.173l0.113-1.016
		h8.351l0.112,1.016l2.992,0.173l0.338,0.562l0.114,0.678c0,0,0.226,2.146-2.822,5.142l-0.847,1.066l-0.226,0.853l-1.072,1.405
		l-1.242,0.684l-0.226,1.24l0.057,0.962l1.016,0.444l1.411,0.622l0.452,0.852l0.226,0.96H227.112z M226.943,662.685l-2.033,0.113
		l-0.226,0.509c0,0,0.452,2.37,2.032,3.499l0.339-0.508L226.943,662.685z M236.083,666.298l0.339,0.508
		c1.58-1.129,2.031-3.499,2.031-3.499l-0.225-0.509l-2.032-0.113L236.083,666.298z"/>
</g>
<path fill="#231F20" d="M129.102,258.507l0.122-0.535l0.17-0.414l0.316-0.462l-0.39-0.146l-0.438-0.243l-0.487-0.876l-0.097-0.292
	l-0.025-0.511l-0.049-0.316l-0.292-1.387l0.024-0.682l-0.121-1.411l-0.098-1.533l0.219-0.924l0.39-0.316l0.705-0.219l0.195-0.146
	c0,0,0.073-0.268,0.097-0.341c0.024-0.073,0.122-0.219,0.122-0.219l0.292-0.073c0,0,0.097-0.073,0.097-0.146
	c0-0.073-0.243-0.365-0.243-0.365l0.073-0.73l-0.024-0.706l0.049-1.022l0.268-0.608l0.389-0.754l0.779-1.021l0.584-0.39l0.486-0.122
	h0.462l0.584,0.122l0.511,0.462l0.487,0.73l0.462,1.411l0.146,2.166l-0.146,0.633l-0.195,1.703l0.243,0.487
	c0,0,0.073,0.414,0.073,0.486c0,0.072-0.292,0.462-0.292,0.462l-0.341,0.511l0.292,0.413l0.316,0.122l0.56,0.486l0.414,0.122
	l0.341,0.365h0.389l0.974-0.632l0.414-0.365l0.292-0.56l0.925-0.949l0.024-0.292l0.195-0.243l0.195-0.17l0.146,0.122l0.073,0.244
	h0.365l0.511-0.195l0.584-0.146l0.194,0.219l-0.024,0.268l-0.024,0.219l-0.487,0.268l-0.414,0.268l-0.657,0.17l-0.17,0.365
	l0.024,0.341l0.365,0.365l-0.219,0.17v0.316l-0.681,0.536l-0.925,0.803l-1.168,0.998l-0.511,0.048h-0.486l-0.511-0.17l-0.73-0.243
	l0.024,1.046l0.243,0.073l0.024,0.365l0.244,0.56l-0.024,0.827l-0.122,1.046l-0.024,0.852h-6.131L129.102,258.507z"/>
<path fill="#AAD5C4" d="M49.123,130.777c0,43.646,42.317,81.649,78.437,81.649c36.117,0,78.437-38.002,78.437-81.649
	c0-43.646-35.118-75.095-78.437-75.095C84.24,55.682,49.123,87.131,49.123,130.777z"/>
<path fill="none" stroke="#636363" stroke-width="0.75" d="M116.612,258.633"/>
<path fill="none" stroke="#636363" stroke-width="0.75" d="M138.508,258.633"/>
<polygon fill="#636363" points="137.013,278.697 118.108,278.697 116.249,258.746 138.873,258.746 "/>
<polygon fill="none" stroke="#231F20" stroke-width="0.25" stroke-linecap="round" points="137.013,278.697 118.108,278.697 
	116.249,258.746 138.873,258.746 "/>
<path fill="none" stroke="#231F20" stroke-width="0.25" stroke-linecap="round" d="M123.55,265.9c0,3.09,0.897,4.302,2.006,4.302
	c1.106,0,2.005-1.212,2.005-4.302c0-3.091-0.898-7.154-2.005-7.154C124.448,258.746,123.55,262.809,123.55,265.9z"/>
<path fill="none" stroke="#231F20" stroke-width="0.25" stroke-linecap="round" d="M119.54,265.899c0,3.09,0.897,4.303,2.005,4.303
	c1.107,0,2.005-1.212,2.005-4.303c0-3.091-0.898-7.154-2.005-7.154C120.438,258.746,119.54,262.809,119.54,265.899z"/>
<path fill="none" stroke="#231F20" stroke-width="0.25" stroke-linecap="round" d="M127.561,265.9c0,3.09,0.897,4.302,2.005,4.302
	c1.106,0,2.005-1.212,2.005-4.302c0-3.091-0.898-7.154-2.005-7.154C128.458,258.746,127.561,262.809,127.561,265.9z"/>
<path fill="none" stroke="#231F20" stroke-width="0.25" stroke-linecap="round" d="M131.571,265.9c0,3.09,0.897,4.302,2.006,4.302
	c1.106,0,2.004-1.212,2.004-4.302c0-3.091-0.898-7.154-2.004-7.154C132.469,258.746,131.571,262.809,131.571,265.9z"/>
<path fill="none" stroke="#231F20" stroke-width="0.25" stroke-linecap="round" d="M135.582,265.9c0,3.09,0.897,4.302,2.006,4.302
	c1.106,0,2.005-1.212,2.005-4.302c0-3.091-0.898-7.154-2.005-7.154C136.479,258.746,135.582,262.809,135.582,265.9z"/>
<path fill="none" stroke="#231F20" stroke-width="0.25" stroke-linecap="round" d="M115.529,265.9c0,3.09,0.897,4.302,2.006,4.302
	c1.106,0,2.005-1.212,2.005-4.302c0-3.091-0.898-7.154-2.005-7.154C116.427,258.746,115.529,262.809,115.529,265.9z"/>
<path fill="none" stroke="#231F20" stroke-width="0.5" stroke-linecap="round" d="M57.003,163.874c0,0,0.298,3.879,59.609,94.76"/>
<path fill="none" stroke="#231F20" stroke-width="0.5" stroke-linecap="round" d="M57,163.873
	c-4.959-10.373-7.877-21.632-7.877-33.096c0-43.646,35.117-75.095,78.437-75.095c43.319,0,78.437,31.45,78.437,75.095
	c0,11.463-2.92,22.724-7.879,33.097c0,0-0.298,3.879-59.609,94.76"/>
<polygon opacity="0.6" enable-background="new    " points="240.722,169.153 0,169.153 0,101.32 240.722,101.32 263.316,135.237 "/>
<polygon fill="#CCDD59" points="272.637,135.237 250.043,101.32 612,101.32 612,169.153 250.043,169.153 "/>
<g id="Guidelines">
</g>
<polygon opacity="0.6" enable-background="new    " points="250.292,135.425 240.621,169.529 263.378,135.425 240.621,101.32 "/>
</svg>
