<?xml version="1.0" encoding="utf-8"?>
<!-- Generator: Adobe Illustrator 14.0.0, SVG Export Plug-In . SVG Version: 6.00 Build 43363)  -->
<!DOCTYPE svg PUBLIC "-//W3C//DTD SVG 1.1//EN" "http://www.w3.org/Graphics/SVG/1.1/DTD/svg11.dtd">
<svg version="1.1" id="Layer_1" xmlns="http://www.w3.org/2000/svg" xmlns:xlink="http://www.w3.org/1999/xlink" x="0px" y="0px"
	 width="612px" height="792px" viewBox="0 0 612 792" enable-background="new 0 0 612 792" xml:space="preserve">
<g id="Layer_8">
</g>
<g id="Layer_6">
	<path fill="#CCDD59" d="M576.116,631c0,6.627-5.372,12-12,12H206c-6.627,0-12-5.373-12-12v-63c0-6.627,5.373-12,12-12h358.116
		c6.628,0,12,5.373,12,12V631L576.116,631z"/>
</g>
<g id="Text">
	<text transform="matrix(1 0 0 1 278.8604 200.4268)" font-family="'GillSans'" font-size="11">University of Michigan. Ann Arbor, MI</text>
	<text transform="matrix(1 0 0 1 278.8604 212.4268)" font-family="'GillSans-LightItalic'" font-size="10">Taubman College of Architecture &amp; Urban Planning</text>
	<text transform="matrix(1 0 0 1 278.8604 224.4268)" font-family="'GillSans-Light'" font-size="10">M. Arch &amp; M. Urban Planning | 2009 - 2012</text>
	<text transform="matrix(1 0 0 1 278.8604 246.1973)" font-family="'GillSans'" font-size="11">University of California. Berkeley, CA</text>
	<text transform="matrix(1 0 0 1 278.8604 258.1973)" font-family="'GillSans-LightItalic'" font-size="10">College of Environmental Design</text>
	<text transform="matrix(1 0 0 1 278.8604 270.1973)" font-family="'GillSans-Light'" font-size="10">B.A. Degree &amp; Minor in City Planning | 2002 - 2006</text>
	<text transform="matrix(1 0 0 1 279 292.6611)" font-family="'GillSans'" font-size="11">Feldman Architecture</text>
	<text transform="matrix(1 0 0 1 279 304.6611)" font-family="'GillSans-LightItalic'" font-size="10">Designer/Revit Specialist | </text>
	<text transform="matrix(1 0 0 1 376.6113 304.6611)" font-family="'GillSans-Light'" font-size="10">May 2012 - August 2013</text>
	<text transform="matrix(1 0 0 1 279 316.0615)" font-family="'GillSans-Light'" font-size="9.5" letter-spacing="25"> </text>
	<text transform="matrix(1 0 0 1 315 316.0615)" fill="#636363" font-family="'GillSans-Light'" font-size="9.5">Developed schematic designs, generated flexible component library </text>
	
		<text transform="matrix(1 0 0 1 279 327.4619)" fill="#636363" font-family="'GillSans-Light'" font-size="9.5" letter-spacing="25"> </text>
	<text transform="matrix(1 0 0 1 315 327.4619)" fill="#636363" font-family="'GillSans-Light'" font-size="9.5">for project use, coordinated with consultants, prepared construction </text>
	
		<text transform="matrix(1 0 0 1 279 338.8613)" fill="#636363" font-family="'GillSans-Light'" font-size="9.5" letter-spacing="25"> </text>
	<text transform="matrix(1 0 0 1 315 338.8613)" fill="#636363" font-family="'GillSans-Light'" font-size="9.5">documents, and designed layouts for client presentations</text>
	<text transform="matrix(1 0 0 1 279 360.4023)" font-family="'GillSans'" font-size="11">The Ecology Center</text>
	<text transform="matrix(1 0 0 1 279 372.4023)" font-family="'GillSans-LightItalic'" font-size="10">LEED Consultant | </text>
	<text transform="matrix(1 0 0 1 350.3535 372.4023)" font-family="'GillSans-Light'" font-size="10">January 2011 - September 2011</text>
	<text transform="matrix(1 0 0 1 279 383.8027)" font-family="'GillSans-Light'" font-size="9.5" letter-spacing="25"> </text>
	<text transform="matrix(1 0 0 1 315 383.8027)" fill="#636363" font-family="'GillSans-Light'" font-size="9.5">Coordinated LEED(ID+C) documentation for Gold Certification</text>
	<text transform="matrix(1 0 0 1 279 453.1699)" font-family="'GillSans'" font-size="11">Stoecker &amp; Northway</text>
	<text transform="matrix(1 0 0 1 279 465.1699)" font-family="'GillSans-LightItalic'" font-size="10">Architectural Intern/Designer | </text>
	<text transform="matrix(1 0 0 1 392.0137 465.1699)" font-family="'GillSans-Light'" font-size="10">June 2006 - July 2009</text>
	<text transform="matrix(1 0 0 1 279 476.5703)" font-family="'GillSans-Light'" font-size="9.5" letter-spacing="25"> </text>
	<text transform="matrix(1 0 0 1 315 476.5703)" fill="#636363" font-family="'GillSans-Light'" font-size="9.5">Prepared construction documents for permit submittals, schematic </text>
	
		<text transform="matrix(1 0 0 1 279 487.9707)" fill="#636363" font-family="'GillSans-Light'" font-size="9.5" letter-spacing="25"> </text>
	<text transform="matrix(1 0 0 1 315 487.9707)" fill="#636363" font-family="'GillSans-Light'" font-size="9.5">designs, design development, presentation layouts for preliminary &amp; </text>
	
		<text transform="matrix(1 0 0 1 279 499.3711)" fill="#636363" font-family="'GillSans-Light'" font-size="9.5" letter-spacing="25"> </text>
	<text transform="matrix(1 0 0 1 315 499.3711)" fill="#636363" font-family="'GillSans-Light'" font-size="9.5">final board review, construction administration and project management</text>
	<text transform="matrix(1 0 0 1 583.1699 499.3711)" font-family="'GillSans-Light'" font-size="9.5"> </text>
	<text transform="matrix(1 0 0 1 278.7207 520.5645)" font-family="'GillSans'" font-size="11">MBH Architects</text>
	<text transform="matrix(1 0 0 1 278.7207 532.5645)" font-family="'GillSans-LightItalic'" font-size="10">Librarian | </text>
	<text transform="matrix(1 0 0 1 318.4766 532.5645)" font-family="'GillSans-Light'" font-size="10">June 2003 - December 2003</text>
	<text transform="matrix(1 0 0 1 278.7207 543.9629)" font-family="'GillSans-Light'" font-size="9.5" letter-spacing="25"> </text>
	<text transform="matrix(1 0 0 1 314.7207 543.9629)" fill="#636363" font-family="'GillSans-Light'" font-size="9.5">Organized and maintained material database</text>
	<text transform="matrix(1 0 0 1 278.8604 663.7832)" font-family="'GillSans-LightItalic'" font-size="10">Threshold Studio Honoree Award | Annual Student Show | 2011</text>
	<text transform="matrix(1 0 0 1 278.8604 675.7832)" font-family="'GillSans-LightItalic'" font-size="10">Lorch Scholar | Taubman Scholarship | 2009 - 2012</text>
	<text transform="matrix(1 0 0 1 278.8604 687.7832)" font-family="'GillSans-LightItalic'" font-size="10">Architecture Alumni Scholarship | 2010 - 2011</text>
	<text transform="matrix(1 0 0 1 278.8604 699.7832)" font-family="'GillSans-LightItalic'" font-size="10">Graduate Honoree | Annual Student Show | 2010 | 2011</text>
	<text transform="matrix(1 0 0 1 278.8604 711.7832)" font-family="'GillSans-LightItalic'" font-size="10">Best Project | Raymond Watson Award | 2003</text>
	<text transform="matrix(1 0 0 1 279 407.1699)" font-family="'GillSans'" font-size="11">UM Ross School of Business</text>
	<text transform="matrix(1 0 0 1 405.0762 407.1699)" font-family="'GillSans-Light'" font-size="9.5" letter-spacing="7"> </text>
	<text transform="matrix(1 0 0 1 279 419.1699)" font-family="'GillSans-LightItalic'" font-size="10">Consultant | </text>
	<text transform="matrix(1 0 0 1 326.2305 419.1699)" font-family="'GillSans-Light'" font-size="10">May 2010 - July 2010</text>
	
		<text transform="matrix(1 0 0 1 279 430.5684)" fill="#636363" font-family="'GillSans-Light'" font-size="9.5" letter-spacing="25"> </text>
	<text transform="matrix(1 0 0 1 315 430.5684)" fill="#636363" font-family="'GillSans-Light'" font-size="9.5">Facilitated a Business Improvement District Plan for Dupont Circle</text>
	<text transform="matrix(1 0 0 1 390.9727 572.8223)" font-family="'GillSans-Light'" font-size="10">Rhino</text>
	<text transform="matrix(1 0 0 1 390.9727 584.8223)" font-family="'GillSans-Light'" font-size="10">Revit </text>
	<text transform="matrix(1 0 0 1 390.9727 596.8223)" font-family="'GillSans-Light'" font-size="10">AutoCAD</text>
	<text transform="matrix(1 0 0 1 390.9727 608.8223)" font-family="'GillSans-Light'" font-size="10">Sketchup Pro</text>
	<text transform="matrix(1 0 0 1 390.9727 620.8223)" font-family="'GillSans-Light'" font-size="10">Vray</text>
	<text transform="matrix(1 0 0 1 390.9727 632.8223)" font-family="'GillSans-Light'" font-size="10">GIS</text>
	<text transform="matrix(1 0 0 1 278.8604 572.8223)" font-family="'GillSans-Light'" font-size="10">Adobe Illustrator </text>
	<text transform="matrix(1 0 0 1 278.8604 584.8223)" font-family="'GillSans-Light'" font-size="10">Adobe Photoshop</text>
	<text transform="matrix(1 0 0 1 278.8604 596.8223)" font-family="'GillSans-Light'" font-size="10">Adobe Indesign</text>
	<text transform="matrix(1 0 0 1 278.8604 608.8223)" font-family="'GillSans-Light'" font-size="10">Adobe Premiere Pro</text>
	<text transform="matrix(1 0 0 1 278.8604 620.8223)" font-family="'GillSans-Light'" font-size="10">Adobe Acrobat Pro</text>
	<text transform="matrix(1 0 0 1 278.8604 632.8223)" font-family="'GillSans-Light'" font-size="10">Social Media</text>
	<text transform="matrix(1 0 0 1 477.6992 572.8223)" font-family="'GillSans-Light'" font-size="10">HTML5 </text>
	<text transform="matrix(1 0 0 1 477.6992 584.8223)" font-family="'GillSans-Light'" font-size="10">CSS</text>
	<text transform="matrix(1 0 0 1 477.6992 596.8223)" font-family="'GillSans-Light'" font-size="10">JQuery</text>
	<text transform="matrix(1 0 0 1 477.6992 608.8223)" font-family="'GillSans-Light'" font-size="10">3D Studio Max</text>
	<text transform="matrix(1 0 0 1 477.6992 620.8223)" font-family="'GillSans-Light'" font-size="10">Ecotect</text>
	<text transform="matrix(1 0 0 1 477.6992 632.8223)" font-family="'GillSans-Light'" font-size="10">USGBC LEED</text>
</g>
<g id="Titles">
	<circle cx="231.569" cy="204.571" r="15.167"/>
	<text transform="matrix(1 0 0 1 206.6035 233.0107)" fill="#636363" font-family="'AvenirNextCondensed-Regular'" font-size="11">EDUCATION</text>
	<path fill="#FFFFFF" d="M226.36,205.246l-0.566,2.835c0.087,1.613,5.256,2.127,5.256,2.127c5.007,0.421,5.647-1.299,5.647-1.299
		l0.131-0.479l-0.262-1.396h1.003l4.449-4.929l-13.434-1.482l-9.551,2.966l0.217,0.349L226.36,205.246z"/>
	<circle cx="231.569" cy="294.38" r="15.167"/>
	<text transform="matrix(1 0 0 1 207.7529 322.8203)" fill="#636363" font-family="'AvenirNextCondensed-Regular'" font-size="11">EXPERIENCE</text>
	<path fill="#FFFFFF" d="M223.709,298.691c-0.783-1.206-0.699-2.009-0.699-2.009l2.143-1.734c0,0-0.019-0.662,0.083-1.241
		l-2.272-1.835c0.297-1.407,0.926-1.916,0.926-1.916l2.742,0.289c0,0,0.454-0.482,0.936-0.819l-0.31-2.905
		c1.206-0.783,2.009-0.699,2.009-0.699l1.734,2.143c0,0,0.662-0.019,1.241,0.083l1.836-2.272c1.407,0.297,1.915,0.926,1.915,0.926
		l-0.289,2.741c0,0,0.482,0.455,0.82,0.937l2.904-0.31c0.783,1.206,0.699,2.009,0.699,2.009l-2.143,1.734
		c0,0,0.02,0.662-0.082,1.242l2.272,1.835c-0.298,1.406-0.927,1.915-0.927,1.915l-2.741-0.289c0,0-0.454,0.482-0.937,0.819
		l0.31,2.905c-1.206,0.783-2.009,0.699-2.009,0.699l-1.734-2.143c0,0-0.662,0.019-1.241-0.082l-1.835,2.271
		c-1.407-0.297-1.916-0.926-1.916-0.926l0.289-2.741c0,0-0.481-0.455-0.819-0.936L223.709,298.691z M231.57,291.356
		c-1.671,0-3.024,1.354-3.024,3.024c0,1.669,1.354,3.022,3.024,3.022c1.669,0,3.022-1.354,3.022-3.022
		C234.592,292.709,233.239,291.356,231.57,291.356z"/>
	<circle cx="231.57" cy="579.702" r="15.167"/>
	<g>
		<text transform="matrix(1 0 0 1 213.7598 608.1406)" fill="#636363" font-family="'AvenirNextCondensed-Regular'" font-size="11">SKILL SET</text>
	</g>
	<path fill="#FFFFFF" d="M237.467,576.412l1.196-0.057l2.921-2.869c0.271,0,1.405,2.869-0.644,5.26
		c-2.018,2.354-5.305,1.562-5.523,1.508l-8.654,8.684c0,0-1.252,0.977-2.903-0.275l-0.255-0.271
		c-1.253-1.646-0.285-2.896-0.285-2.896l8.684-8.654c-0.059-0.219-0.846-3.506,1.508-5.521c2.392-2.055,5.262-0.912,5.262-0.646
		l-2.87,2.922l-0.057,1.195L237.467,576.412z M225.661,585.443c-0.666,0-1.206,0.541-1.206,1.207s0.54,1.207,1.206,1.207
		c0.667,0,1.208-0.541,1.208-1.207S226.328,585.443,225.661,585.443z"/>
	<circle cx="231.57" cy="668.035" r="15.167"/>
	<g>
		<text transform="matrix(1 0 0 1 204.2021 697.2246)" fill="#636363" font-family="'AvenirNextCondensed-Regular'" font-size="11">RECOGNITION</text>
	</g>
	<path fill="#FFFFFF" d="M227.112,677.361l0.226-0.96l0.452-0.854l1.411-0.622l1.016-0.442l0.057-0.962l-0.226-1.24l-1.242-0.686
		l-1.072-1.403l-0.226-0.854l-0.847-1.064c-3.047-2.991-2.822-5.144-2.822-5.144l0.113-0.678l0.338-0.562l2.992-0.173l0.113-1.016
		h8.351l0.112,1.016l2.992,0.173l0.338,0.562l0.114,0.678c0,0,0.226,2.146-2.822,5.144l-0.847,1.064l-0.226,0.854l-1.072,1.403
		l-1.242,0.686l-0.226,1.24l0.057,0.962l1.016,0.442l1.411,0.622l0.452,0.854l0.226,0.96H227.112z M226.943,662.685l-2.033,0.113
		l-0.226,0.509c0,0,0.452,2.37,2.032,3.499l0.339-0.508L226.943,662.685z M236.083,666.298l0.339,0.508
		c1.58-1.129,2.031-3.499,2.031-3.499l-0.225-0.509l-2.032-0.113L236.083,666.298z"/>
</g>
<path fill="#231F20" d="M129.102,258.507l0.122-0.535l0.17-0.414l0.316-0.462l-0.39-0.146l-0.438-0.243l-0.487-0.876l-0.097-0.292
	l-0.025-0.511l-0.049-0.316l-0.292-1.387l0.024-0.682l-0.121-1.411l-0.098-1.533l0.219-0.924l0.39-0.316l0.705-0.219l0.195-0.146
	c0,0,0.073-0.268,0.097-0.341c0.024-0.073,0.122-0.219,0.122-0.219l0.292-0.073c0,0,0.097-0.073,0.097-0.146
	c0-0.073-0.243-0.365-0.243-0.365l0.073-0.73l-0.024-0.706l0.049-1.022l0.268-0.608l0.389-0.754l0.779-1.021l0.584-0.39l0.486-0.122
	h0.462l0.584,0.122l0.511,0.462l0.487,0.73l0.462,1.411l0.146,2.166l-0.146,0.633l-0.195,1.703l0.243,0.487
	c0,0,0.073,0.414,0.073,0.486c0,0.072-0.292,0.462-0.292,0.462l-0.341,0.511l0.292,0.413l0.316,0.122l0.56,0.486l0.414,0.122
	l0.341,0.365h0.389l0.974-0.632l0.414-0.365l0.292-0.56l0.925-0.949l0.024-0.292l0.195-0.243l0.195-0.17l0.146,0.122l0.073,0.244
	h0.365l0.511-0.195l0.584-0.146l0.194,0.219l-0.024,0.268l-0.024,0.219l-0.487,0.268l-0.414,0.268l-0.657,0.17l-0.17,0.365
	l0.024,0.341l0.365,0.365l-0.219,0.17v0.316l-0.681,0.536l-0.925,0.803l-1.168,0.998l-0.511,0.048h-0.486l-0.511-0.17l-0.73-0.243
	l0.024,1.046l0.243,0.073l0.024,0.365l0.244,0.56l-0.024,0.827l-0.122,1.046l-0.024,0.852h-6.131L129.102,258.507z"/>
<path fill="#AAD5C4" d="M49.123,130.777c0,43.646,42.317,81.649,78.437,81.649c36.117,0,78.437-38.002,78.437-81.649
	c0-43.646-35.118-75.095-78.437-75.095C84.24,55.682,49.123,87.131,49.123,130.777z"/>
<path fill="none" stroke="#636363" stroke-width="0.75" d="M116.612,258.633"/>
<path fill="none" stroke="#636363" stroke-width="0.75" d="M138.508,258.633"/>
<polygon fill="#636363" points="137.013,278.697 118.108,278.697 116.249,258.746 138.873,258.746 "/>
<polygon fill="none" stroke="#231F20" stroke-width="0.25" stroke-linecap="round" points="137.013,278.697 118.108,278.697 
	116.249,258.746 138.873,258.746 "/>
<path fill="none" stroke="#231F20" stroke-width="0.25" stroke-linecap="round" d="M123.55,265.9c0,3.09,0.897,4.302,2.006,4.302
	c1.106,0,2.005-1.212,2.005-4.302c0-3.091-0.898-7.154-2.005-7.154C124.448,258.746,123.55,262.809,123.55,265.9z"/>
<path fill="none" stroke="#231F20" stroke-width="0.25" stroke-linecap="round" d="M119.54,265.899c0,3.09,0.897,4.303,2.005,4.303
	c1.107,0,2.005-1.212,2.005-4.303c0-3.091-0.898-7.154-2.005-7.154C120.438,258.746,119.54,262.809,119.54,265.899z"/>
<path fill="none" stroke="#231F20" stroke-width="0.25" stroke-linecap="round" d="M127.561,265.9c0,3.09,0.897,4.302,2.005,4.302
	c1.106,0,2.005-1.212,2.005-4.302c0-3.091-0.898-7.154-2.005-7.154C128.458,258.746,127.561,262.809,127.561,265.9z"/>
<path fill="none" stroke="#231F20" stroke-width="0.25" stroke-linecap="round" d="M131.571,265.9c0,3.09,0.897,4.302,2.006,4.302
	c1.106,0,2.004-1.212,2.004-4.302c0-3.091-0.898-7.154-2.004-7.154C132.469,258.746,131.571,262.809,131.571,265.9z"/>
<path fill="none" stroke="#231F20" stroke-width="0.25" stroke-linecap="round" d="M135.582,265.9c0,3.09,0.897,4.302,2.006,4.302
	c1.106,0,2.005-1.212,2.005-4.302c0-3.091-0.898-7.154-2.005-7.154C136.479,258.746,135.582,262.809,135.582,265.9z"/>
<path fill="none" stroke="#231F20" stroke-width="0.25" stroke-linecap="round" d="M115.529,265.9c0,3.09,0.897,4.302,2.006,4.302
	c1.106,0,2.005-1.212,2.005-4.302c0-3.091-0.898-7.154-2.005-7.154C116.427,258.746,115.529,262.809,115.529,265.9z"/>
<path fill="none" stroke="#231F20" stroke-width="0.5" stroke-linecap="round" d="M57.003,163.874c0,0,0.298,3.879,59.609,94.76"/>
<path fill="none" stroke="#231F20" stroke-width="0.5" stroke-linecap="round" d="M57,163.873
	c-4.959-10.373-7.877-21.632-7.877-33.096c0-43.646,35.117-75.095,78.437-75.095c43.319,0,78.437,31.45,78.437,75.095
	c0,11.463-2.92,22.724-7.879,33.097c0,0-0.298,3.879-59.609,94.76"/>
<polygon opacity="0.6" enable-background="new    " points="240.722,169.153 0,169.153 0,101.32 240.722,101.32 263.316,135.237 "/>
<polygon fill="#CCDD59" points="272.637,135.237 250.043,101.32 612,101.32 612,169.153 250.043,169.153 "/>
<g id="Guidelines">
</g>
<polygon opacity="0.6" enable-background="new    " points="250.292,135.425 240.621,169.529 263.378,135.425 240.621,101.32 "/>
<path fill="#FFFFFF" d="M59.353,123.253c0.358-0.067,0.756-0.118,1.193-0.151c0.437-0.033,0.879-0.056,1.327-0.067
	s0.891-0.021,1.327-0.033c0.437-0.011,0.846-0.017,1.227-0.017c1.634,0,3.024,0.28,4.166,0.84c1.143,0.561,2.071,1.361,2.789,2.403
	c0.717,1.042,1.232,2.29,1.546,3.746c0.313,1.457,0.47,3.08,0.47,4.872c0,1.613-0.151,3.159-0.454,4.637
	c-0.302,1.479-0.812,2.778-1.529,3.897c-0.717,1.121-1.663,2.016-2.839,2.688c-1.176,0.672-2.649,1.008-4.418,1.008
	c-0.292,0-0.661-0.006-1.109-0.017c-0.449-0.012-0.913-0.034-1.394-0.067s-0.93-0.062-1.344-0.084
	c-0.414-0.022-0.733-0.056-0.958-0.101V123.253z M64.562,125.304c-0.224,0-0.466,0-0.723,0c-0.257,0-0.51,0.012-0.756,0.034
	c-0.247,0.022-0.476,0.044-0.689,0.067c-0.213,0.022-0.386,0.045-0.521,0.067v19.152c0.089,0.022,0.252,0.039,0.487,0.05
	c0.235,0.012,0.482,0.023,0.739,0.034c0.257,0.012,0.504,0.022,0.739,0.034s0.408,0.017,0.521,0.017
	c1.231,0,2.261-0.269,3.091-0.807c0.829-0.538,1.483-1.26,1.966-2.167c0.481-0.907,0.823-1.96,1.025-3.159
	c0.202-1.198,0.302-2.47,0.302-3.813c0-1.187-0.089-2.352-0.269-3.495c-0.179-1.142-0.498-2.156-0.957-3.041
	c-0.459-0.885-1.087-1.602-1.882-2.15C66.84,125.578,65.815,125.304,64.562,125.304z"/>
<path fill="#FFFFFF" d="M76.288,135.014c0-3.987,0.638-7.011,1.915-9.072c1.277-2.061,3.226-3.091,5.846-3.091
	c1.412,0,2.61,0.285,3.596,0.856c0.985,0.571,1.785,1.384,2.402,2.436c0.615,1.054,1.069,2.33,1.361,3.831
	c0.291,1.5,0.437,3.181,0.437,5.04c0,3.987-0.644,7.011-1.932,9.072c-1.288,2.061-3.242,3.091-5.863,3.091
	c-1.389,0-2.576-0.286-3.562-0.857c-0.986-0.571-1.792-1.383-2.419-2.436c-0.627-1.053-1.081-2.33-1.361-3.831
	C76.428,138.553,76.288,136.873,76.288,135.014z M78.942,135.014c0,1.321,0.095,2.576,0.286,3.763
	c0.19,1.187,0.487,2.229,0.891,3.125c0.403,0.896,0.929,1.613,1.579,2.15c0.649,0.538,1.433,0.807,2.352,0.807
	c1.68,0,2.957-0.807,3.831-2.419s1.311-4.088,1.311-7.425c0-1.298-0.096-2.542-0.286-3.729c-0.19-1.188-0.487-2.234-0.891-3.142
	c-0.403-0.908-0.93-1.63-1.579-2.167c-0.65-0.538-1.445-0.806-2.386-0.806c-1.657,0-2.923,0.806-3.796,2.419
	C79.379,129.201,78.942,131.676,78.942,135.014z"/>
<path fill="#FFFFFF" d="M95.439,123.488c0.739-0.178,1.551-0.307,2.436-0.386c0.885-0.079,1.697-0.118,2.436-0.118
	c0.874,0,1.702,0.106,2.486,0.319c0.784,0.213,1.467,0.571,2.049,1.075c0.583,0.504,1.047,1.166,1.395,1.982
	c0.348,0.817,0.521,1.843,0.521,3.074c0,1.86-0.387,3.349-1.159,4.469c-0.773,1.12-1.798,1.87-3.075,2.251l1.277,1.243l4.637,9.375
	h-2.923l-5.04-10.248l-2.52-0.504v10.752h-2.52V123.488L95.439,123.488z M97.959,134.342h2.016c1.277,0,2.285-0.392,3.024-1.176
	s1.109-1.982,1.109-3.595c0-1.231-0.308-2.251-0.924-3.058c-0.617-0.807-1.528-1.209-2.738-1.209c-0.449,0-0.913,0.017-1.395,0.05
	c-0.481,0.034-0.845,0.084-1.092,0.151V134.342z"/>
<path fill="#FFFFFF" d="M119.805,140.188h-6.632l-1.875,6.586h-2.486l7.089-23.89h1.378l7.089,23.89h-2.654L119.805,140.188z
	 M113.844,138.004h5.359l-2.043-7.303l-0.62-3.55h-0.068l-0.652,3.618L113.844,138.004z"/>
<path fill="#FFFFFF" d="M144.999,145.867c-0.561,0.471-1.266,0.807-2.116,1.008c-0.852,0.202-1.747,0.302-2.688,0.302
	c-1.188,0-2.285-0.224-3.293-0.672c-1.008-0.448-1.876-1.159-2.604-2.134c-0.729-0.974-1.293-2.234-1.697-3.78
	c-0.403-1.546-0.605-3.405-0.605-5.578c0-2.24,0.23-4.133,0.689-5.679c0.459-1.545,1.07-2.8,1.831-3.763
	c0.761-0.962,1.641-1.657,2.638-2.083c0.996-0.425,2.021-0.638,3.075-0.638c1.075,0,1.965,0.078,2.67,0.235
	c0.706,0.157,1.316,0.348,1.831,0.571l-0.604,2.285c-0.448-0.247-0.975-0.437-1.58-0.572c-0.604-0.134-1.299-0.201-2.083-0.201
	c-0.785,0-1.524,0.173-2.218,0.521c-0.695,0.348-1.31,0.907-1.848,1.68c-0.538,0.773-0.963,1.787-1.277,3.041
	c-0.313,1.254-0.47,2.789-0.47,4.604c0,3.271,0.559,5.729,1.68,7.375c1.12,1.646,2.609,2.47,4.469,2.47
	c0.761,0,1.445-0.106,2.049-0.319s1.12-0.465,1.546-0.756L144.999,145.867z"/>
<path fill="#FFFFFF" d="M159.279,135.921h-8.669v10.853h-2.52v-23.52h2.52v10.349h8.669v-10.349h2.521v23.52h-2.521V135.921z"/>
<path fill="#FFFFFF" d="M175.111,140.188h-6.632l-1.875,6.586h-2.486l7.09-23.89h1.377l7.089,23.89h-2.654L175.111,140.188z
	 M169.149,138.004h5.358l-2.042-7.303l-0.62-3.55h-0.069l-0.652,3.618L169.149,138.004z"/>
<path fill="#FFFFFF" d="M185.587,131.855l-1.444-3.696h-0.101l0.37,3.696v14.918h-2.419v-23.89h1.512l8.703,15.254l1.377,3.528
	h0.134l-0.37-3.528v-14.885h2.419v23.889h-1.546L185.587,131.855z"/>
</svg>
