<?xml version="1.0" encoding="utf-8"?>
<!-- Generator: Adobe Illustrator 14.0.0, SVG Export Plug-In . SVG Version: 6.00 Build 43363)  -->
<!DOCTYPE svg PUBLIC "-//W3C//DTD SVG 1.1//EN" "http://www.w3.org/Graphics/SVG/1.1/DTD/svg11.dtd">
<svg version="1.1" xmlns="http://www.w3.org/2000/svg" xmlns:xlink="http://www.w3.org/1999/xlink" x="0px" y="0px" width="612px"
	 height="792px" viewBox="0 0 612 792" enable-background="new 0 0 612 792" xml:space="preserve">
<g id="Layer_8">
</g>
<g id="Layer_6">
	<path fill="#CCDD59" d="M576.116,631c0,6.627-5.372,12-12,12H206c-6.627,0-12-5.373-12-12v-63c0-6.627,5.373-12,12-12h358.116
		c6.628,0,12,5.373,12,12V631z"/>
</g>
<g id="Text">
	<text transform="matrix(1 0 0 1 278.8604 200.4263)"><tspan x="0" y="0" font-family="'GillSans'" font-size="11">University of Michigan. Ann Arbor, MI</tspan><tspan x="0" y="12" font-family="'GillSans-LightItalic'" font-size="10">Taubman College of Architecture &amp; Urban Planning</tspan><tspan x="0" y="24" font-family="'GillSans-Light'" font-size="10">M. Arch &amp; M. Urban Planning | 2009 - 2012</tspan></text>
	<text transform="matrix(1 0 0 1 278.8604 246.1968)"><tspan x="0" y="0" font-family="'GillSans'" font-size="11">University of California. Berkeley, CA</tspan><tspan x="0" y="12" font-family="'GillSans-LightItalic'" font-size="10">College of Environmental Design</tspan><tspan x="0" y="24" font-family="'GillSans-Light'" font-size="10">B.A. Degree &amp; Minor in City Planning | 2002 - 2006</tspan></text>
	<text transform="matrix(1 0 0 1 279 292.6616)"><tspan x="0" y="0" font-family="'GillSans'" font-size="11">Feldman Architecture</tspan><tspan x="0" y="12" font-family="'GillSans-LightItalic'" font-size="10">Designer/Revit Specialist | </tspan><tspan x="97.612" y="12" font-family="'GillSans-Light'" font-size="10">May 2012 - August 2013</tspan><tspan x="0" y="23.4" font-family="'GillSans-Light'" font-size="9.5" letter-spacing="33">	</tspan><tspan x="36" y="23.4" fill="#636363" font-family="'GillSans-Light'" font-size="9.5">Developed schematic designs, generated flexible component library </tspan><tspan x="0" y="34.8" fill="#636363" font-family="'GillSans-Light'" font-size="9.5" letter-spacing="33">	</tspan><tspan x="36" y="34.8" fill="#636363" font-family="'GillSans-Light'" font-size="9.5">for project use, coordinated with consultants, prepared construction </tspan><tspan x="0" y="46.2" fill="#636363" font-family="'GillSans-Light'" font-size="9.5" letter-spacing="33">	</tspan><tspan x="36" y="46.2" fill="#636363" font-family="'GillSans-Light'" font-size="9.5">documents, and designed layouts for client presentations</tspan></text>
	<text transform="matrix(1 0 0 1 279 360.4028)"><tspan x="0" y="0" font-family="'GillSans'" font-size="11">The Ecology Center</tspan><tspan x="0" y="12" font-family="'GillSans-LightItalic'" font-size="10">LEED Consultant | </tspan><tspan x="71.353" y="12" font-family="'GillSans-Light'" font-size="10">January 2011 - September 2011</tspan><tspan x="0" y="23.4" font-family="'GillSans-Light'" font-size="9.5" letter-spacing="33">	</tspan><tspan x="36" y="23.4" fill="#636363" font-family="'GillSans-Light'" font-size="9.5">Coordinated LEED(ID+C) documentation for Gold Certification</tspan></text>
	<text transform="matrix(1 0 0 1 279 453.1699)"><tspan x="0" y="0" font-family="'GillSans'" font-size="11">Stoecker &amp; Northway</tspan><tspan x="0" y="12" font-family="'GillSans-LightItalic'" font-size="10">Architectural Intern/Designer | </tspan><tspan x="113.013" y="12" font-family="'GillSans-Light'" font-size="10">June 2006 - July 2009</tspan><tspan x="0" y="23.4" font-family="'GillSans-Light'" font-size="9.5" letter-spacing="33">	</tspan><tspan x="36" y="23.4" fill="#636363" font-family="'GillSans-Light'" font-size="9.5">Prepared construction documents for permit submittals, schematic </tspan><tspan x="0" y="34.801" fill="#636363" font-family="'GillSans-Light'" font-size="9.5" letter-spacing="33">	</tspan><tspan x="36" y="34.801" fill="#636363" font-family="'GillSans-Light'" font-size="9.5">designs, design development, presentation layouts for preliminary &amp; </tspan><tspan x="0" y="46.201" fill="#636363" font-family="'GillSans-Light'" font-size="9.5" letter-spacing="33">	</tspan><tspan x="36" y="46.201" fill="#636363" font-family="'GillSans-Light'" font-size="9.5">final board review, construction administration and project management</tspan><tspan x="304.17" y="46.201" font-family="'GillSans-Light'" font-size="9.5"> </tspan></text>
	<text transform="matrix(1 0 0 1 278.7207 520.5645)"><tspan x="0" y="0" font-family="'GillSans'" font-size="11">MBH Architects</tspan><tspan x="0" y="12" font-family="'GillSans-LightItalic'" font-size="10">Librarian | </tspan><tspan x="39.756" y="12" font-family="'GillSans-Light'" font-size="10">June 2003 - December 2003</tspan><tspan x="0" y="23.399" font-family="'GillSans-Light'" font-size="9.5" letter-spacing="33">	</tspan><tspan x="36" y="23.399" fill="#636363" font-family="'GillSans-Light'" font-size="9.5">Organized and maintained material database</tspan></text>
	<text transform="matrix(1 0 0 1 278.8604 663.7832)"><tspan x="0" y="0" font-family="'GillSans-LightItalic'" font-size="10">Threshold Studio Honoree Award | Annual Student Show | 2011</tspan><tspan x="0" y="12" font-family="'GillSans-LightItalic'" font-size="10">Lorch Scholar | Taubman Scholarship | 2009 - 2012</tspan><tspan x="0" y="24" font-family="'GillSans-LightItalic'" font-size="10">Architecture Alumni Scholarship | 2010 - 2011</tspan><tspan x="0" y="36" font-family="'GillSans-LightItalic'" font-size="10">Graduate Honoree | Annual Student Show | 2010 | 2011</tspan><tspan x="0" y="48" font-family="'GillSans-LightItalic'" font-size="10">Best Project | Raymond Watson Award | 2003</tspan></text>
	<text transform="matrix(1 0 0 1 279 407.1699)"><tspan x="0" y="0" font-family="'GillSans'" font-size="11">UM Ross School of Business</tspan><tspan x="126.076" y="0" font-family="'GillSans-Light'" font-size="9.5" letter-spacing="15">	</tspan><tspan x="0" y="12" font-family="'GillSans-LightItalic'" font-size="10">Consultant | </tspan><tspan x="47.231" y="12" font-family="'GillSans-Light'" font-size="10">May 2010 - July 2010</tspan><tspan x="0" y="23.399" fill="#636363" font-family="'GillSans-Light'" font-size="9.5" letter-spacing="33">	</tspan><tspan x="36" y="23.399" fill="#636363" font-family="'GillSans-Light'" font-size="9.5">Facilitated a Business Improvement District Plan for Dupont Circle</tspan></text>
	<text transform="matrix(1 0 0 1 390.9727 572.8223)"><tspan x="0" y="0" font-family="'GillSans-Light'" font-size="10">Rhino</tspan><tspan x="0" y="12" font-family="'GillSans-Light'" font-size="10">Revit </tspan><tspan x="0" y="24" font-family="'GillSans-Light'" font-size="10">AutoCAD</tspan><tspan x="0" y="36" font-family="'GillSans-Light'" font-size="10">Sketchup Pro</tspan><tspan x="0" y="48" font-family="'GillSans-Light'" font-size="10">Vray</tspan><tspan x="0" y="60" font-family="'GillSans-Light'" font-size="10">GIS</tspan></text>
	<text transform="matrix(1 0 0 1 278.8604 572.8223)"><tspan x="0" y="0" font-family="'GillSans-Light'" font-size="10">Adobe Illustrator </tspan><tspan x="0" y="12" font-family="'GillSans-Light'" font-size="10">Adobe Photoshop</tspan><tspan x="0" y="24" font-family="'GillSans-Light'" font-size="10">Adobe Indesign</tspan><tspan x="0" y="36" font-family="'GillSans-Light'" font-size="10">Adobe Premiere Pro</tspan><tspan x="0" y="48" font-family="'GillSans-Light'" font-size="10">Adobe Acrobat Pro</tspan><tspan x="0" y="60" font-family="'GillSans-Light'" font-size="10">Social Media</tspan></text>
	<text transform="matrix(1 0 0 1 477.6992 572.8223)"><tspan x="0" y="0" font-family="'GillSans-Light'" font-size="10">HTML5 </tspan><tspan x="0" y="12" font-family="'GillSans-Light'" font-size="10">CSS</tspan><tspan x="0" y="24" font-family="'GillSans-Light'" font-size="10">JQuery</tspan><tspan x="0" y="36" font-family="'GillSans-Light'" font-size="10">3D Studio Max</tspan><tspan x="0" y="48" font-family="'GillSans-Light'" font-size="10">Ecotect</tspan><tspan x="0" y="60" font-family="'GillSans-Light'" font-size="10">USGBC LEED</tspan></text>
</g>
<g id="Titles">
	<circle cx="231.569" cy="204.571" r="15.167"/>
	<text transform="matrix(1 0 0 1 206.604 233.0112)" fill="#636363" font-family="'AvenirNextCondensed-Regular'" font-size="11">EDUCATION</text>
	<path fill="#FFFFFF" d="M226.36,205.246l-0.566,2.835c0.087,1.613,5.256,2.127,5.256,2.127c5.007,0.421,5.647-1.299,5.647-1.299
		l0.131-0.479l-0.262-1.396h1.003l4.449-4.929l-13.434-1.482l-9.551,2.966l0.217,0.349L226.36,205.246z"/>
	<circle cx="231.569" cy="294.38" r="15.167"/>
	<text transform="matrix(1 0 0 1 207.7534 322.8208)" fill="#636363" font-family="'AvenirNextCondensed-Regular'" font-size="11">EXPERIENCE</text>
	<path fill="#FFFFFF" d="M223.709,298.691c-0.783-1.206-0.699-2.009-0.699-2.009l2.143-1.734c0,0-0.019-0.662,0.083-1.241
		l-2.272-1.835c0.297-1.407,0.926-1.916,0.926-1.916l2.742,0.289c0,0,0.454-0.482,0.936-0.819l-0.31-2.905
		c1.206-0.783,2.009-0.699,2.009-0.699l1.734,2.143c0,0,0.662-0.019,1.241,0.083l1.836-2.272c1.407,0.297,1.915,0.926,1.915,0.926
		l-0.289,2.741c0,0,0.482,0.455,0.82,0.937l2.904-0.31c0.783,1.206,0.699,2.009,0.699,2.009l-2.143,1.734
		c0,0,0.02,0.662-0.082,1.242l2.272,1.835c-0.298,1.406-0.927,1.915-0.927,1.915l-2.741-0.289c0,0-0.454,0.482-0.937,0.819
		l0.31,2.905c-1.206,0.783-2.009,0.699-2.009,0.699l-1.734-2.143c0,0-0.662,0.019-1.241-0.082l-1.835,2.271
		c-1.407-0.297-1.916-0.926-1.916-0.926l0.289-2.741c0,0-0.481-0.455-0.819-0.936L223.709,298.691z M231.57,291.356
		c-1.671,0-3.024,1.354-3.024,3.024c0,1.669,1.354,3.022,3.024,3.022c1.669,0,3.022-1.354,3.022-3.022
		C234.592,292.709,233.239,291.356,231.57,291.356z"/>
	<circle cx="231.57" cy="579.702" r="15.167"/>
	<g>
		<text transform="matrix(1 0 0 1 213.7598 608.1406)" fill="#636363" font-family="'AvenirNextCondensed-Regular'" font-size="11">SKILL SET</text>
	</g>
	<path fill="#FFFFFF" d="M237.467,576.412l1.196-0.057l2.921-2.869c0.271,0,1.405,2.869-0.644,5.26
		c-2.018,2.355-5.305,1.566-5.523,1.508l-8.654,8.684c0,0-1.252,0.969-2.903-0.283l-0.255-0.264
		c-1.253-1.652-0.285-2.904-0.285-2.904l8.684-8.654c-0.059-0.219-0.846-3.506,1.508-5.523c2.392-2.049,5.262-0.914,5.262-0.645
		l-2.87,2.922l-0.057,1.195L237.467,576.412z M225.661,585.443c-0.666,0-1.206,0.541-1.206,1.207s0.54,1.207,1.206,1.207
		c0.667,0,1.208-0.541,1.208-1.207S226.328,585.443,225.661,585.443z"/>
	<circle cx="231.57" cy="668.035" r="15.167"/>
	<g>
		<text transform="matrix(1 0 0 1 204.2021 697.2246)" fill="#636363" font-family="'AvenirNextCondensed-Regular'" font-size="11">RECOGNITION</text>
	</g>
	<path fill="#FFFFFF" d="M227.112,677.361l0.226-0.96l0.452-0.846l1.411-0.622l1.016-0.45l0.057-0.961l-0.226-1.241l-1.242-0.678
		l-1.072-1.411l-0.226-0.847l-0.847-1.072c-3.047-2.991-2.822-5.136-2.822-5.136l0.113-0.678l0.338-0.564l2.992-0.17l0.113-1.016
		h8.351l0.112,1.016l2.992,0.17l0.338,0.564l0.114,0.678c0,0,0.226,2.145-2.822,5.136l-0.847,1.072l-0.226,0.847l-1.072,1.411
		l-1.242,0.678l-0.226,1.241l0.057,0.961l1.016,0.45l1.411,0.622l0.452,0.846l0.226,0.96H227.112z M226.943,662.685l-2.033,0.113
		l-0.226,0.509c0,0,0.452,2.37,2.032,3.499l0.339-0.508L226.943,662.685z M236.083,666.298l0.339,0.508
		c1.58-1.129,2.031-3.499,2.031-3.499l-0.225-0.509l-2.032-0.113L236.083,666.298z"/>
</g>
<g id="Underlay">
	<path fill="#231F20" d="M129.102,258.507l0.122-0.535l0.17-0.414l0.316-0.462l-0.39-0.146l-0.438-0.243l-0.487-0.876l-0.097-0.292
		l-0.025-0.511l-0.049-0.316l-0.292-1.387l0.024-0.682l-0.121-1.411l-0.098-1.533l0.219-0.924l0.39-0.316l0.705-0.219l0.195-0.146
		c0,0,0.073-0.268,0.097-0.341c0.024-0.073,0.122-0.219,0.122-0.219l0.292-0.073c0,0,0.097-0.073,0.097-0.146
		c0-0.073-0.243-0.365-0.243-0.365l0.073-0.73l-0.024-0.706l0.049-1.022l0.268-0.608l0.389-0.754l0.779-1.021l0.584-0.39
		l0.486-0.122h0.462l0.584,0.122l0.511,0.462l0.487,0.73l0.462,1.411l0.146,2.166l-0.146,0.633l-0.195,1.703l0.243,0.487
		c0,0,0.073,0.414,0.073,0.486s-0.292,0.462-0.292,0.462l-0.341,0.511l0.292,0.413l0.316,0.122l0.56,0.486l0.414,0.122l0.341,0.365
		h0.389l0.974-0.632l0.414-0.365l0.292-0.56l0.925-0.949l0.024-0.292l0.195-0.243l0.195-0.17l0.146,0.122l0.073,0.244h0.365
		l0.511-0.195l0.584-0.146l0.194,0.219l-0.024,0.268l-0.024,0.219l-0.487,0.268l-0.414,0.268l-0.657,0.17l-0.17,0.365l0.024,0.341
		l0.365,0.365l-0.219,0.17v0.316l-0.681,0.536l-0.925,0.803l-1.168,0.998l-0.511,0.048h-0.486l-0.511-0.17l-0.73-0.243l0.024,1.046
		l0.243,0.073l0.024,0.365l0.244,0.56l-0.024,0.827l-0.122,1.046l-0.024,0.852h-6.131L129.102,258.507z"/>
	<path fill="#AAD5C4" d="M49.123,130.777c0,43.646,42.317,81.649,78.437,81.649c36.117,0,78.437-38.002,78.437-81.649
		c0-43.646-35.118-75.095-78.437-75.095C84.24,55.682,49.123,87.131,49.123,130.777z"/>
	<path fill="none" stroke="#636363" stroke-width="0.75" d="M116.612,258.633"/>
	<path fill="none" stroke="#636363" stroke-width="0.75" d="M138.508,258.633"/>
	<polygon fill="#636363" points="137.013,278.697 118.108,278.697 116.249,258.746 138.873,258.746 	"/>
	<polygon fill="none" stroke="#231F20" stroke-width="0.25" stroke-linecap="round" points="137.013,278.697 118.108,278.697 
		116.249,258.746 138.873,258.746 	"/>
	<path fill="none" stroke="#231F20" stroke-width="0.25" stroke-linecap="round" d="M123.55,265.9c0,3.09,0.897,4.302,2.006,4.302
		c1.106,0,2.005-1.212,2.005-4.302c0-3.091-0.898-7.154-2.005-7.154C124.448,258.746,123.55,262.809,123.55,265.9z"/>
	<path fill="none" stroke="#231F20" stroke-width="0.25" stroke-linecap="round" d="M119.54,265.899c0,3.09,0.897,4.303,2.005,4.303
		c1.107,0,2.005-1.212,2.005-4.303c0-3.091-0.898-7.154-2.005-7.154C120.438,258.746,119.54,262.809,119.54,265.899z"/>
	<path fill="none" stroke="#231F20" stroke-width="0.25" stroke-linecap="round" d="M127.561,265.9c0,3.09,0.897,4.302,2.005,4.302
		c1.106,0,2.005-1.212,2.005-4.302c0-3.091-0.898-7.154-2.005-7.154C128.458,258.746,127.561,262.809,127.561,265.9z"/>
	<path fill="none" stroke="#231F20" stroke-width="0.25" stroke-linecap="round" d="M131.571,265.9c0,3.09,0.897,4.302,2.006,4.302
		c1.106,0,2.004-1.212,2.004-4.302c0-3.091-0.898-7.154-2.004-7.154C132.469,258.746,131.571,262.809,131.571,265.9z"/>
	<path fill="none" stroke="#231F20" stroke-width="0.25" stroke-linecap="round" d="M135.582,265.9c0,3.09,0.897,4.302,2.006,4.302
		c1.106,0,2.005-1.212,2.005-4.302c0-3.091-0.898-7.154-2.005-7.154C136.479,258.746,135.582,262.809,135.582,265.9z"/>
	<path fill="none" stroke="#231F20" stroke-width="0.25" stroke-linecap="round" d="M115.529,265.9c0,3.09,0.897,4.302,2.006,4.302
		c1.106,0,2.005-1.212,2.005-4.302c0-3.091-0.898-7.154-2.005-7.154C116.427,258.746,115.529,262.809,115.529,265.9z"/>
	<path fill="none" stroke="#231F20" stroke-width="0.5" stroke-linecap="round" d="M57.003,163.874c0,0,0.298,3.879,59.609,94.76"/>
	<g>
		<text transform="matrix(1 0 0 1 87.5806 185.144)"><tspan x="0" y="0" fill="#231F20" font-family="'GillSans-Light'" font-size="9">dora.l.chan@gmail.com</tspan><tspan x="15.889" y="10.8" fill="#231F20" font-family="'GillSans-Light'" font-size="9">510.381.8656</tspan></text>
	</g>
	<path fill="none" stroke="#231F20" stroke-width="0.5" stroke-linecap="round" d="M57,163.873
		c-4.959-10.373-7.877-21.632-7.877-33.096c0-43.646,35.117-75.095,78.437-75.095c43.319,0,78.437,31.45,78.437,75.095
		c0,11.463-2.92,22.724-7.879,33.097c0,0-0.298,3.879-59.609,94.76"/>
</g>
<g id="Overlay">
	<polygon opacity="0.25" points="240.722,169.153 0,169.153 0,101.32 240.722,101.32 263.316,135.237 	"/>
	<text transform="matrix(1 0 0 1 84.8926 164.4097)" fill="#FFFFFF" font-family="'AvenirNextCondensed-Bold'" font-size="37.8">CHAN</text>
	<text transform="matrix(1 0 0 1 84.1763 132.1279)" fill="#FFFFFF" font-family="'AvenirNextCondensed-Bold'" font-size="37.8">DORA</text>
</g>
<g id="Layer_9">
	<polygon opacity="0.75" fill="#E3E5E5" points="263.316,135.237 240.722,101.32 612,101.32 612,169.153 240.722,169.153 	"/>
</g>
<g id="Layer_10">
	<g>
		<text transform="matrix(1 0 0 1 277.2583 142.0664)" fill="#CCDD59" font-family="'PTSans-Narrow'" font-size="18">USER EXPERIENCE AND DESIGN</text>
	</g>
</g>
<g id="Guidelines">
</g>
</svg>
