<?xml version="1.0" encoding="utf-8"?>
<!-- Generator: Adobe Illustrator 14.0.0, SVG Export Plug-In . SVG Version: 6.00 Build 43363)  -->
<!DOCTYPE svg PUBLIC "-//W3C//DTD SVG 1.1//EN" "http://www.w3.org/Graphics/SVG/1.1/DTD/svg11.dtd">
<svg version="1.1" id="Layer_2" xmlns="http://www.w3.org/2000/svg" xmlns:xlink="http://www.w3.org/1999/xlink" x="0px" y="0px"
	 width="72px" height="72px" viewBox="0 0 72 72" enable-background="new 0 0 72 72" xml:space="preserve">
<g enable-background="new    ">
	<path d="M14.401,33.579c0.344-0.082,0.721-0.142,1.132-0.179c0.411-0.036,0.789-0.055,1.132-0.055c0.406,0,0.791,0.05,1.155,0.148
		c0.365,0.099,0.682,0.266,0.952,0.5c0.271,0.234,0.487,0.542,0.648,0.921c0.162,0.38,0.242,0.855,0.242,1.428
		c0,0.864-0.179,1.557-0.539,2.079c-0.359,0.518-0.835,0.869-1.428,1.045l0.593,0.578l2.154,4.355h-1.358l-2.341-4.762l-1.171-0.233
		v4.995h-1.171V33.579L14.401,33.579z M15.572,38.621h0.937c0.593,0,1.062-0.182,1.405-0.546c0.343-0.363,0.515-0.921,0.515-1.669
		c0-0.572-0.144-1.048-0.43-1.422c-0.287-0.374-0.71-0.562-1.272-0.562c-0.208,0-0.424,0.007-0.648,0.023
		c-0.224,0.017-0.393,0.039-0.507,0.072V38.621z"/>
	<path d="M21.895,33.469h4.855v1.078h-3.684v3.701h3.388v1.076h-3.388v3.997h3.763v1.077h-4.934V33.469z"/>
	<path d="M34.352,34.547h-2.685v9.852h-1.171v-9.852h-2.685v-1.078h6.541V34.547z"/>
	<path d="M40.582,33.469h1.121v7.322c0,1.324-0.255,2.279-0.771,2.865c-0.516,0.588-1.247,0.883-2.195,0.883
		c-1.102,0-1.908-0.287-2.411-0.858c-0.505-0.572-0.757-1.451-0.757-2.638v-7.572h1.172v6.964c0,0.562,0.035,1.035,0.109,1.421
		c0.072,0.385,0.189,0.697,0.357,0.936c0.166,0.24,0.373,0.412,0.624,0.517c0.25,0.103,0.558,0.156,0.921,0.156
		c0.686,0,1.164-0.242,1.428-0.72c0.268-0.478,0.399-1.25,0.399-2.31v-6.966H40.582z"/>
	<path d="M43.705,33.579c0.342-0.082,0.719-0.142,1.131-0.179c0.411-0.038,0.787-0.055,1.131-0.055c0.406,0,0.792,0.05,1.155,0.148
		c0.364,0.099,0.683,0.266,0.953,0.5c0.269,0.234,0.485,0.542,0.647,0.921c0.16,0.38,0.242,0.855,0.242,1.428
		c0,0.864-0.18,1.557-0.539,2.079c-0.358,0.518-0.834,0.869-1.428,1.045l0.594,0.578l2.152,4.355h-1.356l-2.343-4.762l-1.172-0.233
		v4.995h-1.168V33.579z M44.873,38.621h0.938c0.596,0,1.062-0.182,1.406-0.546c0.342-0.363,0.516-0.921,0.516-1.669
		c0-0.572-0.145-1.048-0.43-1.422c-0.289-0.374-0.711-0.562-1.274-0.562c-0.208,0-0.425,0.007-0.647,0.023
		c-0.225,0.017-0.393,0.039-0.508,0.072V38.621L44.873,38.621z"/>
	<path d="M52.867,37.467l-0.67-1.717H52.15l0.171,1.717v6.932h-1.123V33.298h0.704l4.043,7.088l0.64,1.64h0.062l-0.171-1.64v-6.917
		H57.6v11.1h-0.719L52.867,37.467z"/>
</g>
<g enable-background="new    ">
	<path d="M22.034,50.283h-2.685v9.852h-1.172v-9.852h-2.685v-1.077h6.542V50.283z"/>
	<path d="M22.346,54.669c0-1.853,0.296-3.258,0.89-4.215c0.593-0.956,1.499-1.437,2.716-1.437c0.656,0,1.213,0.134,1.671,0.399
		c0.458,0.264,0.83,0.643,1.116,1.13c0.287,0.491,0.497,1.083,0.632,1.781c0.136,0.696,0.204,1.478,0.204,2.341
		c0,1.854-0.299,3.259-0.898,4.216c-0.598,0.958-1.507,1.437-2.725,1.437c-0.645,0-1.197-0.134-1.655-0.397
		c-0.458-0.267-0.832-0.644-1.124-1.134c-0.292-0.487-0.502-1.081-0.633-1.778C22.412,56.315,22.346,55.533,22.346,54.669z
		 M23.58,54.669c0,0.616,0.044,1.198,0.133,1.749c0.088,0.553,0.226,1.037,0.414,1.452c0.188,0.417,0.432,0.75,0.734,1
		c0.302,0.249,0.666,0.375,1.092,0.375c0.781,0,1.375-0.375,1.78-1.123c0.406-0.75,0.608-1.9,0.608-3.451
		c0-0.604-0.044-1.18-0.132-1.732c-0.089-0.552-0.227-1.039-0.415-1.46c-0.187-0.421-0.432-0.757-0.733-1.006
		c-0.302-0.251-0.671-0.375-1.109-0.375c-0.77,0-1.358,0.375-1.764,1.124C23.782,51.969,23.58,53.12,23.58,54.669z"/>
	<path d="M39.91,50.283h-2.686v9.852h-1.17v-9.852H33.37v-1.077h6.541V50.283z"/>
	<path d="M40.223,54.669c0-1.853,0.298-3.258,0.891-4.215c0.592-0.956,1.498-1.437,2.716-1.437c0.655,0,1.214,0.134,1.669,0.399
		c0.461,0.264,0.832,0.643,1.119,1.13c0.284,0.491,0.495,1.083,0.629,1.781c0.137,0.696,0.203,1.478,0.203,2.341
		c0,1.854-0.299,3.259-0.896,4.216c-0.6,0.958-1.506,1.437-2.724,1.437c-0.646,0-1.196-0.134-1.654-0.397
		c-0.46-0.267-0.833-0.644-1.126-1.134c-0.291-0.487-0.5-1.081-0.63-1.778C40.287,56.315,40.223,55.533,40.223,54.669z
		 M41.455,54.669c0,0.616,0.044,1.198,0.133,1.749c0.089,0.553,0.229,1.037,0.414,1.452c0.188,0.417,0.432,0.75,0.733,1
		c0.302,0.249,0.667,0.375,1.094,0.375c0.78,0,1.374-0.375,1.777-1.123c0.405-0.75,0.611-1.9,0.611-3.451
		c0-0.604-0.046-1.18-0.134-1.732c-0.088-0.552-0.227-1.039-0.412-1.46c-0.189-0.421-0.433-0.757-0.734-1.006
		c-0.303-0.251-0.672-0.375-1.108-0.375c-0.771,0-1.359,0.375-1.764,1.124C41.659,51.969,41.455,53.12,41.455,54.669z"/>
	<path d="M49.122,49.314c0.333-0.093,0.687-0.154,1.06-0.188c0.376-0.032,0.744-0.046,1.11-0.046c0.415,0,0.825,0.046,1.232,0.14
		c0.407,0.093,0.772,0.266,1.101,0.516c0.328,0.249,0.594,0.593,0.797,1.029c0.201,0.438,0.303,0.996,0.303,1.672
		c0,0.656-0.096,1.212-0.288,1.67s-0.448,0.831-0.765,1.115c-0.318,0.287-0.683,0.495-1.094,0.625
		c-0.412,0.129-0.836,0.194-1.273,0.194c-0.041,0-0.109,0-0.203,0c-0.093,0-0.191-0.002-0.297-0.009
		c-0.104-0.005-0.207-0.013-0.303-0.022c-0.1-0.012-0.17-0.021-0.211-0.032v4.153h-1.17L49.122,49.314L49.122,49.314z
		 M51.354,50.158c-0.209,0-0.407,0.008-0.6,0.024c-0.193,0.017-0.348,0.039-0.461,0.071v4.652c0.041,0.021,0.107,0.032,0.193,0.038
		c0.09,0.005,0.181,0.011,0.275,0.017c0.094,0.005,0.185,0.008,0.271,0.008c0.088,0,0.154,0,0.195,0
		c0.293,0,0.572-0.036,0.844-0.109c0.27-0.073,0.51-0.206,0.717-0.399c0.208-0.19,0.379-0.452,0.508-0.779
		c0.133-0.328,0.195-0.742,0.195-1.243c0-0.437-0.061-0.8-0.18-1.093c-0.121-0.291-0.275-0.525-0.468-0.701
		c-0.193-0.178-0.419-0.302-0.679-0.376C51.904,50.195,51.635,50.158,51.354,50.158z"/>
</g>
<polygon points="36.001,20.573 59.56,27.253 36.001,11.532 12.44,27.253 "/>
</svg>
