<?xml version="1.0" encoding="utf-8"?>
<!-- Generator: Adobe Illustrator 14.0.0, SVG Export Plug-In . SVG Version: 6.00 Build 43363)  -->
<!DOCTYPE svg PUBLIC "-//W3C//DTD SVG 1.1//EN" "http://www.w3.org/Graphics/SVG/1.1/DTD/svg11.dtd">
<svg version="1.1" id="Layer_2" xmlns="http://www.w3.org/2000/svg" xmlns:xlink="http://www.w3.org/1999/xlink" x="0px" y="0px"
	 width="72px" height="72px" viewBox="0 0 72 72" enable-background="new 0 0 72 72" xml:space="preserve">
<polygon opacity="0.95" fill-rule="evenodd" clip-rule="evenodd" enable-background="new    " points="58.057,16.881 36,3.367 
	13.944,16.881 13.944,68.633 36,55.117 58.057,68.633 "/>
<g enable-background="new    ">
	<path fill-rule="evenodd" clip-rule="evenodd" fill="#FFFFFF" d="M19.398,25.97c0.264-0.063,0.554-0.109,0.87-0.138
		c0.316-0.028,0.606-0.042,0.87-0.042c0.312,0,0.608,0.038,0.888,0.114c0.28,0.076,0.524,0.204,0.732,0.384s0.374,0.416,0.498,0.708
		s0.186,0.658,0.186,1.098c0,0.664-0.138,1.196-0.414,1.597c-0.276,0.399-0.642,0.668-1.098,0.804l0.456,0.444l1.656,3.348h-1.044
		l-1.8-3.66l-0.9-0.18v3.84h-0.9V25.97z M20.298,29.846h0.72c0.456,0,0.816-0.14,1.08-0.42c0.264-0.279,0.396-0.708,0.396-1.283
		c0-0.44-0.11-0.805-0.33-1.093c-0.22-0.288-0.546-0.432-0.978-0.432c-0.16,0-0.326,0.006-0.498,0.018
		c-0.172,0.013-0.302,0.03-0.39,0.055V29.846z"/>
	<path fill-rule="evenodd" clip-rule="evenodd" fill="#FFFFFF" d="M25.158,25.886h3.732v0.828h-2.832v2.845h2.604v0.827h-2.604
		v3.072h2.892v0.828h-3.792V25.886z"/>
	<path fill-rule="evenodd" clip-rule="evenodd" fill="#FFFFFF" d="M34.733,26.714h-2.064v7.572h-0.9v-7.572h-2.064v-0.828h5.028
		V26.714z"/>
	<path fill-rule="evenodd" clip-rule="evenodd" fill="#FFFFFF" d="M39.521,25.886h0.863v5.628c0,1.017-0.197,1.751-0.594,2.202
		c-0.396,0.452-0.958,0.679-1.686,0.679c-0.848,0-1.467-0.221-1.854-0.66c-0.388-0.44-0.582-1.116-0.582-2.028v-5.82h0.9v5.353
		c0,0.432,0.028,0.796,0.084,1.092s0.147,0.536,0.276,0.72c0.127,0.185,0.287,0.316,0.479,0.396s0.429,0.12,0.708,0.12
		c0.528,0,0.895-0.185,1.098-0.553c0.205-0.367,0.307-0.96,0.307-1.775V25.886z"/>
	<path fill-rule="evenodd" clip-rule="evenodd" fill="#FFFFFF" d="M41.922,25.97c0.264-0.063,0.553-0.109,0.869-0.138
		s0.606-0.042,0.87-0.042c0.312,0,0.608,0.038,0.888,0.114c0.28,0.076,0.524,0.204,0.732,0.384s0.374,0.416,0.498,0.708
		s0.186,0.658,0.186,1.098c0,0.664-0.138,1.196-0.414,1.597c-0.275,0.399-0.642,0.668-1.098,0.804l0.456,0.444l1.656,3.348h-1.044
		l-1.801-3.66l-0.899-0.18v3.84h-0.899V25.97z M42.821,29.846h0.72c0.457,0,0.816-0.14,1.08-0.42
		c0.264-0.279,0.396-0.708,0.396-1.283c0-0.44-0.11-0.805-0.33-1.093c-0.221-0.288-0.547-0.432-0.979-0.432
		c-0.16,0-0.326,0.006-0.498,0.018c-0.172,0.013-0.302,0.03-0.39,0.055V29.846z"/>
	<path fill-rule="evenodd" clip-rule="evenodd" fill="#FFFFFF" d="M48.965,28.958l-0.516-1.32h-0.035l0.131,1.32v5.328h-0.863
		v-8.532h0.54l3.108,5.448l0.492,1.26h0.047l-0.131-1.26v-5.316h0.863v8.532H52.05L48.965,28.958z"/>
</g>
<g enable-background="new    ">
	<path fill-rule="evenodd" clip-rule="evenodd" fill="#FFFFFF" d="M25.265,41.115h-2.064v7.572h-0.9v-7.572h-2.064v-0.828h5.028
		V41.115z"/>
	<path fill-rule="evenodd" clip-rule="evenodd" fill="#FFFFFF" d="M25.505,44.487c0-1.424,0.228-2.504,0.684-3.24
		c0.456-0.735,1.152-1.104,2.088-1.104c0.504,0,0.932,0.102,1.284,0.306s0.638,0.494,0.858,0.87c0.22,0.376,0.382,0.832,0.486,1.368
		s0.156,1.136,0.156,1.8c0,1.424-0.23,2.504-0.69,3.24s-1.158,1.104-2.094,1.104c-0.496,0-0.92-0.102-1.272-0.306
		s-0.64-0.494-0.864-0.87s-0.386-0.832-0.486-1.368C25.555,45.752,25.505,45.151,25.505,44.487z M26.453,44.487
		c0,0.473,0.034,0.92,0.102,1.344c0.068,0.425,0.174,0.797,0.318,1.116c0.144,0.32,0.332,0.576,0.564,0.769
		c0.232,0.191,0.512,0.288,0.84,0.288c0.6,0,1.056-0.288,1.368-0.864c0.312-0.576,0.468-1.46,0.468-2.652
		c0-0.464-0.034-0.907-0.102-1.332c-0.068-0.424-0.174-0.798-0.318-1.122c-0.144-0.323-0.332-0.582-0.564-0.773
		c-0.232-0.192-0.516-0.288-0.852-0.288c-0.592,0-1.044,0.288-1.356,0.864C26.609,42.411,26.453,43.296,26.453,44.487z"/>
	<path fill-rule="evenodd" clip-rule="evenodd" fill="#FFFFFF" d="M39.006,41.115h-2.064v7.572h-0.9v-7.572h-2.064v-0.828h5.028
		V41.115z"/>
	<path fill-rule="evenodd" clip-rule="evenodd" fill="#FFFFFF" d="M39.246,44.487c0-1.424,0.228-2.504,0.684-3.24
		c0.455-0.735,1.152-1.104,2.088-1.104c0.504,0,0.932,0.102,1.283,0.306c0.353,0.204,0.639,0.494,0.859,0.87
		c0.219,0.376,0.381,0.832,0.485,1.368s0.155,1.136,0.155,1.8c0,1.424-0.229,2.504-0.689,3.24s-1.158,1.104-2.094,1.104
		c-0.496,0-0.92-0.102-1.271-0.306c-0.353-0.204-0.641-0.494-0.865-0.87c-0.224-0.376-0.385-0.832-0.485-1.368
		C39.295,45.752,39.246,45.151,39.246,44.487z M40.193,44.487c0,0.473,0.034,0.92,0.102,1.344c0.068,0.425,0.175,0.797,0.318,1.116
		c0.145,0.32,0.332,0.576,0.564,0.769c0.232,0.191,0.512,0.288,0.84,0.288c0.6,0,1.057-0.288,1.367-0.864
		c0.312-0.576,0.469-1.46,0.469-2.652c0-0.464-0.034-0.907-0.102-1.332c-0.068-0.424-0.174-0.798-0.318-1.122
		c-0.145-0.323-0.332-0.582-0.564-0.773c-0.232-0.192-0.516-0.288-0.852-0.288c-0.592,0-1.044,0.288-1.355,0.864
		C40.35,42.411,40.193,43.296,40.193,44.487z"/>
	<path fill-rule="evenodd" clip-rule="evenodd" fill="#FFFFFF" d="M46.086,40.371c0.256-0.071,0.527-0.119,0.815-0.144
		s0.571-0.036,0.853-0.036c0.319,0,0.635,0.036,0.947,0.108c0.312,0.071,0.594,0.204,0.846,0.396
		c0.252,0.192,0.457,0.456,0.612,0.792c0.156,0.336,0.234,0.765,0.234,1.284c0,0.504-0.074,0.932-0.222,1.284
		c-0.148,0.352-0.345,0.638-0.588,0.857c-0.244,0.221-0.525,0.381-0.841,0.48s-0.642,0.15-0.978,0.15c-0.032,0-0.084,0-0.156,0
		s-0.148-0.002-0.229-0.007c-0.08-0.004-0.158-0.01-0.233-0.018c-0.076-0.008-0.13-0.016-0.162-0.024v3.192h-0.899V40.371z
		 M47.801,41.02c-0.16,0-0.313,0.006-0.461,0.018c-0.148,0.013-0.267,0.03-0.354,0.055v3.576c0.032,0.016,0.082,0.025,0.149,0.029
		c0.068,0.004,0.139,0.008,0.211,0.013c0.072,0.004,0.142,0.006,0.209,0.006c0.068,0,0.119,0,0.15,0
		c0.225,0,0.439-0.028,0.648-0.084c0.208-0.057,0.392-0.158,0.552-0.307c0.16-0.147,0.29-0.348,0.39-0.6
		c0.101-0.252,0.15-0.57,0.15-0.954c0-0.336-0.046-0.616-0.138-0.84c-0.093-0.224-0.212-0.404-0.36-0.54s-0.322-0.232-0.521-0.288
		C48.225,41.048,48.018,41.02,47.801,41.02z"/>
</g>
</svg>
