<?xml version="1.0" encoding="utf-8"?>
<!-- Generator: Adobe Illustrator 14.0.0, SVG Export Plug-In . SVG Version: 6.00 Build 43363)  -->
<!DOCTYPE svg PUBLIC "-//W3C//DTD SVG 1.1//EN" "http://www.w3.org/Graphics/SVG/1.1/DTD/svg11.dtd">
<svg version="1.1" id="Layer_3" xmlns="http://www.w3.org/2000/svg" xmlns:xlink="http://www.w3.org/1999/xlink" x="0px" y="0px"
	 width="240px" height="240px" viewBox="-20 -20 240 240" enable-background="new -20 -20 240 240" xml:space="preserve">
<path opacity="0.9" enable-background="new    " d="M30.994,128.941c0.657,0.398,1.533,0.756,2.63,1.068s2.503,0.471,4.213,0.471
	c2.708,0,4.804-0.711,6.288-2.137c1.48-1.426,2.224-3.393,2.224-5.901c0-1.483-0.286-2.767-0.856-3.852
	c-0.57-1.083-1.283-2.05-2.138-2.906c-0.857-0.854-1.775-1.632-2.759-2.331c-0.983-0.698-1.903-1.39-2.758-2.074
	c-0.855-0.684-1.569-1.412-2.138-2.181c-0.571-0.771-0.856-1.653-0.856-2.653c0-1.14,0.372-2.088,1.112-2.844
	c0.742-0.755,1.882-1.134,3.421-1.134c1.254,0,2.359,0.128,3.314,0.385c0.955,0.257,1.689,0.542,2.203,0.854l1.027-2.822
	c-0.684-0.398-1.582-0.728-2.695-0.984c-1.111-0.256-2.381-0.385-3.806-0.385c-2.31,0-4.184,0.579-5.624,1.733
	c-1.44,1.155-2.159,2.931-2.159,5.326c0,1.481,0.283,2.751,0.855,3.807c0.57,1.054,1.283,1.989,2.138,2.802
	c0.856,0.812,1.775,1.554,2.759,2.223c0.983,0.67,1.903,1.355,2.758,2.053c0.856,0.699,1.568,1.463,2.139,2.289
	c0.569,0.824,0.855,1.795,0.855,2.908c0,1.682-0.5,2.915-1.498,3.699c-0.998,0.783-2.295,1.176-3.891,1.176
	c-1.255,0-2.375-0.166-3.358-0.492c-0.984-0.328-1.746-0.677-2.288-1.048L30.994,128.941z M51.265,129.969h3.208v-29.938h-3.208
	V129.969z M79.15,129.969h3.207v-29.938h-2.822l-6.842,14.668l-1.027,3.55h-0.084l-1.068-3.508l-7.229-14.71h-2.694v29.936h3.079
	v-19.673l-0.6-4.533h0.172l1.325,4.234l6.33,13h1.07l6.031-13l1.369-4.234h0.17l-0.385,4.533L79.15,129.969L79.15,129.969z
	 M87.832,129.969h3.208v-11.378c0.113,0.028,0.306,0.056,0.579,0.087c0.269,0.03,0.546,0.049,0.833,0.062
	c0.283,0.016,0.556,0.021,0.812,0.021s0.44,0,0.557,0c1.196,0,2.357-0.181,3.483-0.537c1.125-0.354,2.123-0.925,2.993-1.708
	c0.871-0.786,1.568-1.804,2.096-3.059c0.527-1.253,0.791-2.779,0.791-4.575c0-1.854-0.277-3.379-0.834-4.578
	c-0.555-1.197-1.281-2.137-2.179-2.822c-0.899-0.683-1.903-1.154-3.017-1.41c-1.112-0.258-2.238-0.386-3.377-0.386
	c-1,0-2.01,0.042-3.038,0.128c-1.026,0.086-1.996,0.258-2.908,0.512v29.643H87.832z M96.172,102.938
	c0.712,0.2,1.332,0.541,1.86,1.027c0.527,0.484,0.955,1.126,1.282,1.924c0.328,0.8,0.491,1.798,0.491,2.994
	c0,1.368-0.178,2.503-0.535,3.401c-0.357,0.898-0.818,1.611-1.391,2.139c-0.57,0.527-1.225,0.891-1.966,1.09
	c-0.742,0.199-1.511,0.299-2.311,0.299c-0.113,0-0.293,0-0.534,0c-0.243,0-0.492-0.004-0.75-0.018
	c-0.258-0.017-0.505-0.031-0.749-0.045c-0.243-0.017-0.421-0.05-0.535-0.107v-12.744c0.313-0.086,0.734-0.15,1.262-0.193
	c0.527-0.041,1.077-0.062,1.646-0.062C94.715,102.64,95.458,102.738,96.172,102.938z M121.531,127.016h-11.205v-26.984h-3.207
	v29.938h14.412V127.016L121.531,127.016z M125.51,129.969h3.207v-29.938h-3.207V129.969z M134.832,129.969h3.209v-13.473h9.407
	v-2.951h-9.407V102.98h10.092v-2.949h-13.301V129.969L134.832,129.969z M157.927,129.969h3.208v-11.934l7.869-18.004h-3.463
	l-5.217,12.958l-0.559,2.694h-0.086l-0.557-2.609l-5.387-13.043h-3.68l7.87,18.047V129.969z"/>
<path opacity="0.75" fill-rule="evenodd" clip-rule="evenodd" fill="#AAD5C4" enable-background="new    " d="M192.922,100
	c0,51.321-41.602,92.922-92.922,92.922C48.68,192.922,7.076,151.32,7.076,100C7.076,48.68,48.68,7.076,100,7.076
	C151.32,7.076,192.922,48.68,192.922,100z M30.994,128.941c0.657,0.398,1.533,0.756,2.63,1.068s2.503,0.471,4.213,0.471
	c2.708,0,4.804-0.711,6.288-2.137c1.48-1.426,2.224-3.393,2.224-5.901c0-1.483-0.286-2.767-0.856-3.852
	c-0.57-1.083-1.283-2.052-2.138-2.907c-0.857-0.854-1.775-1.632-2.759-2.33c-0.983-0.699-1.903-1.391-2.758-2.074
	c-0.855-0.684-1.569-1.412-2.138-2.182c-0.571-0.77-0.856-1.652-0.856-2.652c0-1.141,0.372-2.088,1.112-2.845
	c0.742-0.755,1.882-1.134,3.421-1.134c1.254,0,2.359,0.128,3.314,0.385c0.955,0.258,1.689,0.542,2.203,0.855l1.027-2.822
	c-0.684-0.398-1.582-0.729-2.695-0.984c-1.111-0.256-2.381-0.385-3.806-0.385c-2.31,0-4.184,0.578-5.624,1.732
	c-1.44,1.156-2.159,2.932-2.159,5.327c0,1.481,0.283,2.751,0.855,3.806c0.57,1.055,1.283,1.989,2.138,2.802
	c0.856,0.812,1.775,1.554,2.759,2.224c0.983,0.67,1.903,1.355,2.758,2.053c0.856,0.699,1.568,1.463,2.139,2.289
	c0.569,0.824,0.855,1.795,0.855,2.908c0,1.682-0.5,2.913-1.498,3.699c-0.998,0.781-2.295,1.176-3.891,1.176
	c-1.255,0-2.375-0.166-3.358-0.493c-0.984-0.327-1.746-0.676-2.288-1.047L30.994,128.941z M51.265,129.969h3.208V100.03h-3.208
	V129.969z M79.15,129.969h3.207V100.03h-2.822l-6.842,14.669l-1.027,3.55h-0.084l-1.068-3.509l-7.229-14.71h-2.694v29.936h3.079
	v-19.673l-0.6-4.533h0.172l1.325,4.234l6.33,13.001h1.07l6.031-13.001l1.369-4.234h0.17l-0.385,4.533L79.15,129.969L79.15,129.969z
	 M87.832,129.969h3.208v-11.378c0.113,0.028,0.306,0.056,0.579,0.087c0.269,0.029,0.546,0.049,0.833,0.062
	c0.283,0.016,0.556,0.021,0.812,0.021s0.44,0,0.557,0c1.196,0,2.357-0.18,3.483-0.536c1.125-0.354,2.123-0.926,2.993-1.709
	c0.871-0.785,1.568-1.803,2.096-3.059c0.527-1.253,0.791-2.779,0.791-4.575c0-1.854-0.277-3.379-0.834-4.577
	c-0.555-1.197-1.281-2.138-2.179-2.822c-0.899-0.684-1.903-1.154-3.017-1.411c-1.112-0.257-2.238-0.386-3.377-0.386
	c-1,0-2.01,0.043-3.038,0.129c-1.026,0.086-1.996,0.257-2.908,0.512v29.643H87.832z M96.172,102.938
	c0.712,0.2,1.332,0.541,1.86,1.027c0.527,0.484,0.955,1.127,1.282,1.925c0.328,0.8,0.491,1.797,0.491,2.993
	c0,1.369-0.178,2.504-0.535,3.402c-0.357,0.897-0.818,1.611-1.391,2.138c-0.57,0.528-1.225,0.892-1.966,1.091
	c-0.742,0.199-1.511,0.299-2.311,0.299c-0.113,0-0.293,0-0.534,0c-0.243,0-0.492-0.006-0.75-0.02
	c-0.258-0.015-0.505-0.029-0.749-0.043c-0.243-0.017-0.421-0.051-0.535-0.107v-12.745c0.313-0.085,0.734-0.149,1.262-0.192
	c0.527-0.042,1.077-0.063,1.646-0.063C94.715,102.639,95.458,102.738,96.172,102.938z M121.531,127.016h-11.205V100.03h-3.207
	v29.938h14.412V127.016L121.531,127.016z M125.51,129.969h3.207V100.03h-3.207V129.969z M134.832,129.969h3.209v-13.473h9.407
	v-2.951h-9.407V102.98h10.092v-2.95h-13.301V129.969L134.832,129.969z M157.927,129.969h3.208v-11.934l7.869-18.005h-3.463
	l-5.217,12.958l-0.559,2.695h-0.086l-0.557-2.609l-5.387-13.044h-3.68l7.87,18.048V129.969z M91.263,78.737
	c0-0.982,0.147-1.911,0.442-2.783c0.295-0.872,0.682-1.683,1.162-2.433c0.479-0.749,1.026-1.431,1.64-2.046
	c0.614-0.614,1.241-1.167,1.88-1.659c-0.492-0.885-0.922-1.794-1.291-2.728c-0.369-0.934-0.553-1.917-0.553-2.949
	c0-0.59,0.08-1.167,0.239-1.733c0.16-0.565,0.424-1.069,0.793-1.511s0.835-0.798,1.401-1.069c0.565-0.271,1.253-0.406,2.064-0.406
	c0.835,0,1.542,0.124,2.12,0.369c0.577,0.246,1.038,0.566,1.382,0.958c0.344,0.394,0.596,0.842,0.756,1.346
	c0.16,0.504,0.24,1.026,0.24,1.566c0,1.057-0.332,2.138-0.996,3.244c-0.663,1.106-1.671,2.188-3.022,3.244
	c0.319,0.688,0.682,1.407,1.087,2.157c0.406,0.75,0.836,1.499,1.291,2.249c0.454,0.75,0.922,1.487,1.4,2.212
	c0.479,0.725,0.953,1.395,1.42,2.009c0.443-0.614,0.859-1.438,1.254-2.47c0.393-1.032,0.713-2.027,0.959-2.986l2.137,0.848
	c-0.123,0.418-0.295,0.922-0.516,1.512s-0.461,1.186-0.719,1.788c-0.258,0.603-0.529,1.18-0.811,1.732
	c-0.283,0.553-0.547,1.014-0.793,1.382c0.811,0.958,1.492,1.702,2.045,2.23c0.555,0.529,1.113,0.99,1.678,1.382l-1.658,1.917
	c-1.105-0.639-2.311-1.782-3.613-3.428c-0.344,0.442-0.73,0.866-1.161,1.271c-0.431,0.406-0.909,0.769-1.438,1.088
	c-0.528,0.319-1.118,0.578-1.769,0.774c-0.651,0.196-1.358,0.295-2.12,0.295c-0.958,0-1.862-0.154-2.709-0.461
	c-0.848-0.307-1.585-0.768-2.212-1.382c-0.626-0.614-1.119-1.382-1.475-2.304C91.441,81.042,91.263,79.967,91.263,78.737z
	 M103.133,80.875c-0.565-0.712-1.118-1.475-1.658-2.286c-0.541-0.811-1.057-1.622-1.549-2.433s-0.94-1.597-1.345-2.359
	c-0.406-0.761-0.744-1.461-1.014-2.101c-0.516,0.492-0.996,0.983-1.438,1.475c-0.442,0.492-0.83,1.014-1.161,1.567
	c-0.332,0.553-0.59,1.155-0.774,1.806c-0.184,0.651-0.276,1.371-0.276,2.157c0,0.811,0.123,1.53,0.369,2.156
	c0.246,0.627,0.583,1.149,1.014,1.567c0.43,0.418,0.922,0.737,1.475,0.958c0.553,0.221,1.137,0.332,1.751,0.332
	c0.466,0,0.934-0.086,1.4-0.258c0.467-0.171,0.903-0.393,1.309-0.664c0.406-0.27,0.768-0.571,1.088-0.903
	C102.641,81.558,102.912,81.22,103.133,80.875z M97.198,64.116c0,0.742,0.116,1.47,0.35,2.187c0.233,0.716,0.535,1.446,0.903,2.187
	c1.007-0.865,1.701-1.656,2.083-2.372c0.381-0.717,0.571-1.359,0.571-1.927c0-0.692-0.142-1.291-0.424-1.798
	c-0.283-0.506-0.792-0.76-1.53-0.76c-0.688,0-1.186,0.235-1.493,0.705C97.351,62.806,97.198,63.399,97.198,64.116z"/>
<circle fill-rule="evenodd" clip-rule="evenodd" fill="none" stroke="#000000" stroke-width="0.5" cx="99.999" cy="100" r="91.074"/>
<g opacity="0.9">
	<path d="M91.263,78.737c0-0.982,0.147-1.911,0.442-2.783c0.295-0.872,0.682-1.683,1.162-2.433c0.479-0.749,1.026-1.431,1.64-2.046
		c0.614-0.614,1.241-1.167,1.88-1.659c-0.492-0.885-0.922-1.794-1.291-2.728c-0.369-0.934-0.553-1.917-0.553-2.949
		c0-0.59,0.08-1.167,0.239-1.733c0.16-0.565,0.424-1.069,0.793-1.511s0.835-0.798,1.401-1.069c0.565-0.271,1.253-0.406,2.064-0.406
		c0.835,0,1.542,0.124,2.12,0.369c0.577,0.246,1.038,0.566,1.382,0.958c0.344,0.394,0.596,0.842,0.756,1.346
		c0.16,0.504,0.24,1.026,0.24,1.566c0,1.057-0.332,2.138-0.996,3.244c-0.663,1.106-1.671,2.188-3.022,3.244
		c0.319,0.688,0.682,1.407,1.087,2.157c0.406,0.75,0.836,1.499,1.291,2.249c0.454,0.75,0.922,1.487,1.4,2.212
		c0.479,0.725,0.953,1.395,1.42,2.009c0.443-0.614,0.859-1.438,1.254-2.47c0.393-1.032,0.713-2.027,0.959-2.986l2.137,0.848
		c-0.123,0.418-0.295,0.922-0.516,1.512s-0.461,1.186-0.719,1.788c-0.258,0.603-0.529,1.18-0.811,1.732
		c-0.283,0.553-0.547,1.014-0.793,1.382c0.811,0.958,1.492,1.702,2.045,2.23c0.555,0.529,1.113,0.99,1.678,1.382l-1.658,1.917
		c-1.105-0.639-2.311-1.782-3.613-3.428c-0.344,0.442-0.73,0.866-1.161,1.271c-0.431,0.406-0.909,0.769-1.438,1.088
		c-0.528,0.319-1.118,0.578-1.769,0.774c-0.651,0.196-1.358,0.295-2.12,0.295c-0.958,0-1.862-0.154-2.709-0.461
		c-0.848-0.307-1.585-0.768-2.212-1.382c-0.626-0.614-1.119-1.382-1.475-2.304C91.441,81.042,91.263,79.967,91.263,78.737z
		 M103.133,80.875c-0.565-0.712-1.118-1.475-1.658-2.286c-0.541-0.811-1.057-1.622-1.549-2.433s-0.94-1.597-1.345-2.359
		c-0.406-0.761-0.744-1.461-1.014-2.101c-0.516,0.492-0.996,0.983-1.438,1.475c-0.442,0.492-0.83,1.014-1.161,1.567
		c-0.332,0.553-0.59,1.155-0.774,1.806c-0.184,0.651-0.276,1.371-0.276,2.157c0,0.811,0.123,1.53,0.369,2.156
		c0.246,0.627,0.583,1.149,1.014,1.567c0.43,0.418,0.922,0.737,1.475,0.958c0.553,0.221,1.137,0.332,1.751,0.332
		c0.466,0,0.934-0.086,1.4-0.258c0.467-0.171,0.903-0.393,1.309-0.664c0.406-0.27,0.768-0.571,1.088-0.903
		C102.641,81.558,102.912,81.22,103.133,80.875z M97.198,64.116c0,0.742,0.116,1.47,0.35,2.187c0.233,0.716,0.535,1.446,0.903,2.187
		c1.007-0.865,1.701-1.656,2.083-2.372c0.381-0.717,0.571-1.359,0.571-1.927c0-0.692-0.142-1.291-0.424-1.798
		c-0.283-0.506-0.792-0.76-1.53-0.76c-0.688,0-1.186,0.235-1.493,0.705C97.351,62.806,97.198,63.399,97.198,64.116z"/>
</g>
</svg>
