<?xml version="1.0" encoding="utf-8"?>
<!-- Generator: Adobe Illustrator 14.0.0, SVG Export Plug-In . SVG Version: 6.00 Build 43363)  -->
<!DOCTYPE svg PUBLIC "-//W3C//DTD SVG 1.1//EN" "http://www.w3.org/Graphics/SVG/1.1/DTD/svg11.dtd">
<svg version="1.1" id="Layer_2" xmlns="http://www.w3.org/2000/svg" xmlns:xlink="http://www.w3.org/1999/xlink" x="0px" y="0px"
	 width="240px" height="240px" viewBox="0 0 240 240" enable-background="new 0 0 240 240" xml:space="preserve">
<path opacity="0.75" fill-rule="evenodd" clip-rule="evenodd" fill="#AAD5C4" enable-background="new    " d="M212.923,120.001
	c0,51.32-41.602,92.922-92.922,92.922s-92.924-41.602-92.924-92.922c0-51.32,41.604-92.924,92.924-92.924
	S212.923,68.681,212.923,120.001z M50.995,148.942c0.656,0.397,1.533,0.756,2.63,1.067s2.503,0.472,4.213,0.472
	c2.708,0,4.804-0.711,6.288-2.138c1.48-1.426,2.225-3.393,2.225-5.901c0-1.482-0.287-2.767-0.856-3.852
	c-0.57-1.083-1.283-2.052-2.138-2.907c-0.857-0.854-1.775-1.632-2.76-2.33c-0.982-0.699-1.902-1.391-2.758-2.074
	s-1.568-1.411-2.138-2.182c-0.571-0.77-0.856-1.652-0.856-2.652c0-1.141,0.372-2.088,1.112-2.844
	c0.742-0.756,1.882-1.135,3.421-1.135c1.254,0,2.359,0.128,3.314,0.385c0.955,0.258,1.688,0.543,2.203,0.855l1.026-2.822
	c-0.685-0.398-1.582-0.729-2.694-0.984c-1.111-0.256-2.381-0.385-3.807-0.385c-2.311,0-4.184,0.578-5.624,1.732
	c-1.44,1.156-2.159,2.932-2.159,5.327c0,1.481,0.283,2.751,0.855,3.806c0.57,1.055,1.283,1.989,2.138,2.803
	c0.856,0.812,1.774,1.553,2.759,2.224c0.983,0.67,1.903,1.354,2.758,2.053c0.856,0.699,1.568,1.463,2.14,2.289
	c0.569,0.824,0.854,1.795,0.854,2.908c0,1.682-0.5,2.912-1.498,3.699c-0.998,0.78-2.295,1.176-3.891,1.176
	c-1.255,0-2.375-0.166-3.357-0.493c-0.984-0.327-1.746-0.677-2.289-1.047L50.995,148.942z M71.267,149.97h3.207v-29.939h-3.207
	V149.97z M99.151,149.97h3.207v-29.939h-2.822L92.694,134.7l-1.027,3.55h-0.084l-1.068-3.509l-7.229-14.71h-2.694v29.936h3.079
	v-19.673l-0.6-4.533h0.172l1.324,4.234l6.33,13.001h1.07l6.031-13.001l1.369-4.234h0.17l-0.385,4.533L99.151,149.97L99.151,149.97z
	 M107.833,149.97h3.208v-11.378c0.112,0.028,0.306,0.057,0.579,0.087c0.27,0.029,0.546,0.05,0.833,0.062
	c0.282,0.016,0.556,0.021,0.812,0.021s0.44,0,0.557,0c1.197,0,2.357-0.18,3.484-0.535c1.125-0.354,2.122-0.927,2.992-1.709
	c0.871-0.785,1.568-1.804,2.096-3.06c0.527-1.253,0.791-2.779,0.791-4.575c0-1.854-0.276-3.379-0.834-4.576
	c-0.555-1.197-1.281-2.139-2.179-2.822c-0.899-0.685-1.903-1.154-3.017-1.412c-1.112-0.257-2.238-0.386-3.377-0.386
	c-1,0-2.01,0.043-3.039,0.129c-1.025,0.086-1.995,0.257-2.907,0.512L107.833,149.97L107.833,149.97L107.833,149.97z
	 M116.173,122.939c0.712,0.199,1.332,0.541,1.86,1.026c0.526,0.484,0.954,1.127,1.282,1.925c0.328,0.801,0.49,1.797,0.49,2.993
	c0,1.369-0.178,2.505-0.535,3.402c-0.356,0.897-0.817,1.61-1.391,2.138c-0.57,0.528-1.225,0.893-1.966,1.092
	c-0.742,0.198-1.511,0.299-2.312,0.299c-0.113,0-0.293,0-0.533,0c-0.243,0-0.492-0.006-0.75-0.021s-0.506-0.028-0.75-0.043
	c-0.242-0.017-0.42-0.051-0.534-0.106v-12.746c0.313-0.084,0.733-0.148,1.262-0.191c0.526-0.042,1.077-0.062,1.646-0.062
	C114.716,122.641,115.459,122.738,116.173,122.939z M141.532,147.017h-11.205v-26.986h-3.207v29.938h14.412V147.017L141.532,147.017
	z M145.511,149.97h3.207v-29.939h-3.207V149.97z M154.833,149.97h3.209v-13.473h9.407v-2.951h-9.407V122.98h10.092v-2.95h-13.301
	V149.97L154.833,149.97z M177.928,149.97h3.208v-11.934l7.869-18.005h-3.463l-5.217,12.958l-0.559,2.695h-0.086l-0.558-2.608
	l-5.388-13.044h-3.68l7.87,18.048v11.891H177.928z M100.194,98.738c0-0.982,0.146-1.911,0.441-2.783s0.682-1.683,1.162-2.433
	c0.479-0.749,1.025-1.431,1.64-2.046c0.614-0.614,1.241-1.167,1.88-1.659c-0.492-0.885-0.922-1.794-1.291-2.728
	s-0.553-1.917-0.553-2.949c0-0.59,0.08-1.167,0.239-1.733c0.159-0.565,0.424-1.069,0.793-1.511c0.368-0.442,0.835-0.798,1.401-1.069
	c0.564-0.271,1.252-0.406,2.063-0.406c0.835,0,1.542,0.124,2.12,0.369c0.576,0.246,1.038,0.566,1.382,0.958
	c0.345,0.394,0.597,0.842,0.756,1.346c0.16,0.504,0.24,1.026,0.24,1.566c0,1.057-0.332,2.138-0.996,3.244
	c-0.663,1.106-1.671,2.188-3.022,3.244c0.319,0.688,0.683,1.407,1.088,2.157c0.406,0.75,0.836,1.499,1.291,2.249
	c0.453,0.75,0.922,1.487,1.399,2.212c0.479,0.725,0.953,1.395,1.42,2.009c0.443-0.614,0.859-1.438,1.255-2.47
	c0.393-1.032,0.713-2.027,0.959-2.986l2.137,0.848c-0.123,0.418-0.295,0.922-0.517,1.512c-0.221,0.59-0.461,1.186-0.719,1.788
	c-0.258,0.603-0.528,1.18-0.812,1.732c-0.283,0.553-0.547,1.014-0.793,1.382c0.812,0.958,1.492,1.702,2.045,2.23
	c0.556,0.529,1.113,0.99,1.679,1.382l-1.658,1.917c-1.104-0.639-2.312-1.782-3.612-3.428c-0.345,0.442-0.73,0.866-1.162,1.271
	c-0.431,0.406-0.908,0.769-1.438,1.088c-0.527,0.319-1.118,0.578-1.77,0.774c-0.65,0.196-1.357,0.295-2.119,0.295
	c-0.959,0-1.862-0.154-2.709-0.461c-0.848-0.307-1.586-0.768-2.213-1.382c-0.625-0.614-1.119-1.382-1.475-2.304
	C100.372,101.043,100.194,99.968,100.194,98.738z M112.063,100.876c-0.564-0.712-1.117-1.475-1.658-2.286s-1.057-1.622-1.549-2.433
	c-0.492-0.811-0.939-1.597-1.345-2.359c-0.406-0.761-0.744-1.461-1.015-2.101c-0.516,0.492-0.996,0.983-1.438,1.475
	c-0.441,0.492-0.83,1.014-1.161,1.567c-0.331,0.553-0.59,1.155-0.774,1.806c-0.184,0.651-0.275,1.371-0.275,2.157
	c0,0.811,0.123,1.53,0.369,2.156c0.246,0.627,0.583,1.149,1.014,1.567c0.43,0.418,0.922,0.737,1.475,0.958
	c0.554,0.221,1.138,0.332,1.752,0.332c0.466,0,0.934-0.086,1.399-0.258c0.468-0.171,0.903-0.393,1.31-0.664
	c0.406-0.27,0.768-0.571,1.088-0.903C111.571,101.559,111.843,101.221,112.063,100.876z M106.129,84.117
	c0,0.742,0.116,1.47,0.35,2.187c0.233,0.716,0.535,1.446,0.903,2.188c1.007-0.865,1.701-1.656,2.083-2.372
	c0.381-0.717,0.571-1.359,0.571-1.927c0-0.692-0.143-1.291-0.424-1.798c-0.283-0.506-0.793-0.76-1.531-0.76
	c-0.688,0-1.186,0.235-1.492,0.705C106.282,82.807,106.129,83.4,106.129,84.117z M121.117,98.738c0-0.982,0.146-1.911,0.441-2.783
	s0.682-1.683,1.162-2.433c0.479-0.749,1.025-1.431,1.64-2.046c0.614-0.614,1.241-1.167,1.88-1.659
	c-0.492-0.885-0.922-1.794-1.291-2.728s-0.553-1.917-0.553-2.949c0-0.59,0.08-1.167,0.239-1.733
	c0.159-0.565,0.424-1.069,0.793-1.511c0.368-0.442,0.835-0.798,1.401-1.069c0.564-0.271,1.252-0.406,2.063-0.406
	c0.835,0,1.542,0.124,2.12,0.369c0.576,0.246,1.038,0.566,1.382,0.958c0.345,0.394,0.597,0.842,0.756,1.346
	c0.16,0.504,0.24,1.026,0.24,1.566c0,1.057-0.332,2.138-0.996,3.244c-0.663,1.106-1.671,2.188-3.022,3.244
	c0.319,0.688,0.683,1.407,1.088,2.157c0.406,0.75,0.836,1.499,1.291,2.249c0.453,0.75,0.922,1.487,1.399,2.212
	c0.479,0.725,0.953,1.395,1.42,2.009c0.443-0.614,0.859-1.438,1.255-2.47c0.393-1.032,0.713-2.027,0.959-2.986l2.137,0.848
	c-0.123,0.418-0.295,0.922-0.517,1.512c-0.221,0.59-0.461,1.186-0.719,1.788c-0.258,0.603-0.528,1.18-0.812,1.732
	c-0.283,0.553-0.547,1.014-0.793,1.382c0.812,0.958,1.492,1.702,2.045,2.23c0.556,0.529,1.113,0.99,1.679,1.382l-1.658,1.917
	c-1.104-0.639-2.312-1.782-3.612-3.428c-0.345,0.442-0.73,0.866-1.162,1.271c-0.431,0.406-0.908,0.769-1.438,1.088
	c-0.527,0.319-1.118,0.578-1.77,0.774c-0.65,0.196-1.357,0.295-2.119,0.295c-0.959,0-1.862-0.154-2.709-0.461
	c-0.848-0.307-1.586-0.768-2.213-1.382c-0.625-0.614-1.119-1.382-1.475-2.304C121.295,101.043,121.117,99.968,121.117,98.738z
	 M132.986,100.876c-0.564-0.712-1.117-1.475-1.658-2.286s-1.057-1.622-1.549-2.433c-0.492-0.811-0.939-1.597-1.345-2.359
	c-0.406-0.761-0.744-1.461-1.015-2.101c-0.516,0.492-0.996,0.983-1.438,1.475c-0.441,0.492-0.83,1.014-1.161,1.567
	c-0.331,0.553-0.59,1.155-0.774,1.806c-0.184,0.651-0.275,1.371-0.275,2.157c0,0.811,0.123,1.53,0.369,2.156
	c0.246,0.627,0.583,1.149,1.014,1.567c0.43,0.418,0.922,0.737,1.475,0.958c0.554,0.221,1.138,0.332,1.752,0.332
	c0.466,0,0.934-0.086,1.399-0.258c0.468-0.171,0.903-0.393,1.31-0.664c0.406-0.27,0.768-0.571,1.088-0.903
	C132.494,101.559,132.766,101.221,132.986,100.876z M127.052,84.117c0,0.742,0.116,1.47,0.35,2.187
	c0.233,0.716,0.535,1.446,0.903,2.188c1.007-0.865,1.701-1.656,2.083-2.372c0.381-0.717,0.571-1.359,0.571-1.927
	c0-0.692-0.143-1.291-0.424-1.798c-0.283-0.506-0.793-0.76-1.531-0.76c-0.688,0-1.186,0.235-1.492,0.705
	C127.205,82.807,127.052,83.4,127.052,84.117z"/>
<g opacity="0.9">
	<path d="M100.194,98.738c0-0.982,0.146-1.911,0.441-2.783s0.682-1.683,1.162-2.433c0.479-0.749,1.025-1.431,1.64-2.046
		c0.614-0.614,1.241-1.167,1.88-1.659c-0.492-0.885-0.922-1.794-1.291-2.728s-0.553-1.917-0.553-2.949
		c0-0.59,0.08-1.167,0.239-1.733c0.159-0.565,0.424-1.069,0.793-1.511c0.368-0.442,0.835-0.798,1.401-1.069
		c0.564-0.271,1.252-0.406,2.063-0.406c0.835,0,1.542,0.124,2.12,0.369c0.576,0.246,1.038,0.566,1.382,0.958
		c0.345,0.394,0.597,0.842,0.756,1.346c0.16,0.504,0.24,1.026,0.24,1.566c0,1.057-0.332,2.138-0.996,3.244
		c-0.663,1.106-1.671,2.188-3.022,3.244c0.319,0.688,0.683,1.407,1.088,2.157c0.406,0.75,0.836,1.499,1.291,2.249
		c0.453,0.75,0.922,1.487,1.399,2.212c0.479,0.725,0.953,1.395,1.42,2.009c0.443-0.614,0.859-1.438,1.255-2.47
		c0.393-1.032,0.713-2.027,0.959-2.986l2.137,0.848c-0.123,0.418-0.295,0.922-0.517,1.512c-0.221,0.59-0.461,1.186-0.719,1.788
		c-0.258,0.603-0.528,1.18-0.812,1.732c-0.283,0.553-0.547,1.014-0.793,1.382c0.812,0.958,1.492,1.702,2.045,2.23
		c0.556,0.529,1.113,0.99,1.679,1.382l-1.658,1.917c-1.104-0.639-2.312-1.782-3.612-3.428c-0.345,0.442-0.73,0.866-1.162,1.271
		c-0.431,0.406-0.908,0.769-1.438,1.088c-0.527,0.319-1.118,0.578-1.77,0.774c-0.65,0.196-1.357,0.295-2.119,0.295
		c-0.959,0-1.862-0.154-2.709-0.461c-0.848-0.307-1.586-0.768-2.213-1.382c-0.625-0.614-1.119-1.382-1.475-2.304
		C100.372,101.043,100.194,99.968,100.194,98.738z M112.063,100.876c-0.564-0.712-1.117-1.475-1.658-2.286s-1.057-1.622-1.549-2.433
		c-0.492-0.811-0.939-1.597-1.345-2.359c-0.406-0.761-0.744-1.461-1.015-2.101c-0.516,0.492-0.996,0.983-1.438,1.475
		c-0.441,0.492-0.83,1.014-1.161,1.567c-0.331,0.553-0.59,1.155-0.774,1.806c-0.184,0.651-0.275,1.371-0.275,2.157
		c0,0.811,0.123,1.53,0.369,2.156c0.246,0.627,0.583,1.149,1.014,1.567c0.43,0.418,0.922,0.737,1.475,0.958
		c0.554,0.221,1.138,0.332,1.752,0.332c0.466,0,0.934-0.086,1.399-0.258c0.468-0.171,0.903-0.393,1.31-0.664
		c0.406-0.27,0.768-0.571,1.088-0.903C111.571,101.559,111.843,101.221,112.063,100.876z M106.129,84.117
		c0,0.742,0.116,1.47,0.35,2.187c0.233,0.716,0.535,1.446,0.903,2.188c1.007-0.865,1.701-1.656,2.083-2.372
		c0.381-0.717,0.571-1.359,0.571-1.927c0-0.692-0.143-1.291-0.424-1.798c-0.283-0.506-0.793-0.76-1.531-0.76
		c-0.688,0-1.186,0.235-1.492,0.705C106.282,82.807,106.129,83.4,106.129,84.117z"/>
</g>
<g opacity="0.9">
	<path d="M121.117,98.738c0-0.982,0.146-1.911,0.441-2.783s0.682-1.683,1.162-2.433c0.479-0.749,1.025-1.431,1.64-2.046
		c0.614-0.614,1.241-1.167,1.88-1.659c-0.492-0.885-0.922-1.794-1.291-2.728s-0.553-1.917-0.553-2.949
		c0-0.59,0.08-1.167,0.239-1.733c0.159-0.565,0.424-1.069,0.793-1.511c0.368-0.442,0.835-0.798,1.401-1.069
		c0.564-0.271,1.252-0.406,2.063-0.406c0.835,0,1.542,0.124,2.12,0.369c0.576,0.246,1.038,0.566,1.382,0.958
		c0.345,0.394,0.597,0.842,0.756,1.346c0.16,0.504,0.24,1.026,0.24,1.566c0,1.057-0.332,2.138-0.996,3.244
		c-0.663,1.106-1.671,2.188-3.022,3.244c0.319,0.688,0.683,1.407,1.088,2.157c0.406,0.75,0.836,1.499,1.291,2.249
		c0.453,0.75,0.922,1.487,1.399,2.212c0.479,0.725,0.953,1.395,1.42,2.009c0.443-0.614,0.859-1.438,1.255-2.47
		c0.393-1.032,0.713-2.027,0.959-2.986l2.137,0.848c-0.123,0.418-0.295,0.922-0.517,1.512c-0.221,0.59-0.461,1.186-0.719,1.788
		c-0.258,0.603-0.528,1.18-0.812,1.732c-0.283,0.553-0.547,1.014-0.793,1.382c0.812,0.958,1.492,1.702,2.045,2.23
		c0.556,0.529,1.113,0.99,1.679,1.382l-1.658,1.917c-1.104-0.639-2.312-1.782-3.612-3.428c-0.345,0.442-0.73,0.866-1.162,1.271
		c-0.431,0.406-0.908,0.769-1.438,1.088c-0.527,0.319-1.118,0.578-1.77,0.774c-0.65,0.196-1.357,0.295-2.119,0.295
		c-0.959,0-1.862-0.154-2.709-0.461c-0.848-0.307-1.586-0.768-2.213-1.382c-0.625-0.614-1.119-1.382-1.475-2.304
		C121.295,101.043,121.117,99.968,121.117,98.738z M132.986,100.876c-0.564-0.712-1.117-1.475-1.658-2.286s-1.057-1.622-1.549-2.433
		c-0.492-0.811-0.939-1.597-1.345-2.359c-0.406-0.761-0.744-1.461-1.015-2.101c-0.516,0.492-0.996,0.983-1.438,1.475
		c-0.441,0.492-0.83,1.014-1.161,1.567c-0.331,0.553-0.59,1.155-0.774,1.806c-0.184,0.651-0.275,1.371-0.275,2.157
		c0,0.811,0.123,1.53,0.369,2.156c0.246,0.627,0.583,1.149,1.014,1.567c0.43,0.418,0.922,0.737,1.475,0.958
		c0.554,0.221,1.138,0.332,1.752,0.332c0.466,0,0.934-0.086,1.399-0.258c0.468-0.171,0.903-0.393,1.31-0.664
		c0.406-0.27,0.768-0.571,1.088-0.903C132.494,101.559,132.766,101.221,132.986,100.876z M127.052,84.117
		c0,0.742,0.116,1.47,0.35,2.187c0.233,0.716,0.535,1.446,0.903,2.188c1.007-0.865,1.701-1.656,2.083-2.372
		c0.381-0.717,0.571-1.359,0.571-1.927c0-0.692-0.143-1.291-0.424-1.798c-0.283-0.506-0.793-0.76-1.531-0.76
		c-0.688,0-1.186,0.235-1.492,0.705C127.205,82.807,127.052,83.4,127.052,84.117z"/>
</g>
<path opacity="0.9" enable-background="new    " d="M50.995,148.942c0.656,0.397,1.533,0.756,2.63,1.067s2.503,0.472,4.213,0.472
	c2.708,0,4.804-0.711,6.288-2.138c1.48-1.426,2.225-3.393,2.225-5.901c0-1.482-0.287-2.767-0.856-3.852
	c-0.57-1.083-1.283-2.05-2.138-2.905c-0.857-0.854-1.775-1.633-2.76-2.332c-0.982-0.697-1.902-1.39-2.758-2.074
	c-0.855-0.684-1.568-1.411-2.138-2.18c-0.571-0.771-0.856-1.654-0.856-2.654c0-1.139,0.372-2.088,1.112-2.844
	c0.742-0.754,1.882-1.134,3.421-1.134c1.254,0,2.359,0.128,3.314,0.386c0.955,0.256,1.688,0.541,2.203,0.854l1.026-2.822
	c-0.685-0.398-1.582-0.728-2.694-0.984c-1.111-0.256-2.381-0.385-3.807-0.385c-2.311,0-4.184,0.579-5.624,1.733
	c-1.44,1.155-2.159,2.931-2.159,5.326c0,1.481,0.283,2.751,0.855,3.807c0.57,1.054,1.283,1.989,2.138,2.802
	c0.856,0.812,1.774,1.555,2.759,2.224c0.983,0.67,1.903,1.354,2.758,2.053c0.856,0.699,1.568,1.463,2.14,2.289
	c0.569,0.824,0.854,1.795,0.854,2.908c0,1.682-0.5,2.914-1.498,3.699c-0.998,0.783-2.295,1.176-3.891,1.176
	c-1.255,0-2.375-0.166-3.357-0.492c-0.984-0.328-1.746-0.678-2.289-1.048L50.995,148.942z M71.267,149.97h3.207v-29.938h-3.207
	V149.97z M99.151,149.97h3.207v-29.938h-2.822L92.694,134.7l-1.027,3.55h-0.084l-1.068-3.508l-7.229-14.71h-2.694v29.936h3.079
	v-19.673l-0.6-4.533h0.172l1.324,4.234l6.33,13h1.07l6.031-13l1.369-4.234h0.17l-0.385,4.533L99.151,149.97L99.151,149.97z
	 M107.833,149.97h3.208v-11.378c0.112,0.028,0.306,0.057,0.579,0.087c0.27,0.03,0.546,0.05,0.833,0.062
	c0.282,0.016,0.556,0.021,0.812,0.021s0.44,0,0.557,0c1.197,0,2.357-0.181,3.484-0.537c1.125-0.354,2.122-0.925,2.992-1.707
	c0.871-0.787,1.568-1.805,2.096-3.06c0.527-1.253,0.791-2.779,0.791-4.575c0-1.854-0.276-3.379-0.834-4.578
	c-0.555-1.197-1.281-2.137-2.179-2.822c-0.899-0.683-1.903-1.153-3.017-1.41c-1.112-0.258-2.238-0.386-3.377-0.386
	c-1,0-2.01,0.042-3.039,0.128c-1.025,0.086-1.995,0.258-2.907,0.512L107.833,149.97L107.833,149.97z M116.173,122.939
	c0.712,0.199,1.332,0.541,1.86,1.026c0.526,0.484,0.954,1.126,1.282,1.925s0.49,1.797,0.49,2.993c0,1.368-0.178,2.503-0.535,3.401
	c-0.356,0.898-0.817,1.611-1.391,2.139c-0.57,0.527-1.225,0.891-1.966,1.09c-0.742,0.199-1.511,0.299-2.312,0.299
	c-0.113,0-0.293,0-0.533,0c-0.243,0-0.492-0.004-0.75-0.018c-0.258-0.018-0.506-0.031-0.75-0.045
	c-0.242-0.018-0.42-0.05-0.534-0.107v-12.744c0.313-0.086,0.733-0.149,1.262-0.192c0.526-0.041,1.077-0.062,1.646-0.062
	C114.716,122.641,115.459,122.738,116.173,122.939z M141.532,147.017h-11.205v-26.983h-3.207v29.938h14.412V147.017L141.532,147.017
	z M145.511,149.97h3.207v-29.938h-3.207V149.97z M154.833,149.97h3.209v-13.473h9.407v-2.951h-9.407V122.98h10.092v-2.948h-13.301
	V149.97L154.833,149.97z M177.928,149.97h3.208v-11.934l7.869-18.004h-3.463l-5.217,12.958l-0.559,2.693h-0.086l-0.558-2.608
	l-5.388-13.043h-3.68l7.87,18.047v11.891H177.928z"/>
<circle fill="none" stroke="#000000" stroke-width="0.5" cx="120" cy="120.001" r="91.074"/>
</svg>
