<?xml version="1.0" encoding="utf-8"?>
<!-- Generator: Adobe Illustrator 14.0.0, SVG Export Plug-In . SVG Version: 6.00 Build 43363)  -->
<!DOCTYPE svg PUBLIC "-//W3C//DTD SVG 1.1//EN" "http://www.w3.org/Graphics/SVG/1.1/DTD/svg11.dtd">
<svg version="1.1" id="Layer_1" xmlns="http://www.w3.org/2000/svg" xmlns:xlink="http://www.w3.org/1999/xlink" x="0px" y="0px"
	 width="100px" height="70px" viewBox="0 5 100 70" enable-background="new 0 5 100 70" xml:space="preserve">
<g id="Layer_4">
	<path d="M38.454,66.108l-3.742-5.364c-0.977,1.791-2.381,3.328-4.215,4.61c-1.832,1.285-4.168,1.927-7.002,1.927
		c-4.156,0-7.48-1.332-9.975-3.996c-2.492-2.664-3.738-6.441-3.738-11.332c0-3.566,0.844-6.55,2.531-8.947
		c1.688-2.394,3.776-4.326,6.27-5.792c-1.371-1.955-2.371-3.824-3.006-5.611c-0.639-1.783-0.955-3.725-0.955-5.83
		c0-2.004,0.32-3.812,0.953-5.426c0.633-1.615,1.5-2.98,2.596-4.107c1.098-1.123,2.414-1.992,3.947-2.604
		c1.537-0.613,3.18-0.918,4.938-0.918c1.705,0,3.264,0.283,4.678,0.844c1.414,0.562,2.631,1.369,3.654,2.42
		c1.023,1.053,1.828,2.334,2.414,3.85c0.582,1.516,0.877,3.227,0.877,5.133c0,1.664-0.27,3.176-0.807,4.547
		c-0.539,1.371-1.246,2.617-2.125,3.74s-1.906,2.152-3.08,3.08c-1.172,0.927-2.393,1.784-3.666,2.565l5.941,8.582l3.957-9.605h8.652
		l-7.7,15.844l8.729,12.398L38.454,66.108z M22.466,43.008c-1.074,0.684-2.078,1.711-3.004,3.08
		c-0.93,1.369-1.393,3.152-1.393,5.354c0,2.59,0.574,4.631,1.721,6.123c1.148,1.49,2.652,2.236,4.512,2.236
		c1.562,0,2.859-0.549,3.887-1.648c1.023-1.102,1.758-2.285,2.199-3.557L22.466,43.008z M31.044,25.479
		c0-1.758-0.34-3.199-1.016-4.324c-0.678-1.125-1.668-1.688-2.98-1.688c-1.309,0-2.363,0.613-3.164,1.832
		c-0.799,1.223-1.199,2.713-1.199,4.477c0,1.516,0.242,2.908,0.727,4.18c0.484,1.27,1.211,2.59,2.182,3.957
		c1.451-0.979,2.725-2.137,3.814-3.482C30.501,29.087,31.044,27.438,31.044,25.479z"/>
	<path d="M80.106,66.108l-3.742-5.364c-0.98,1.791-2.384,3.328-4.216,4.61c-1.834,1.285-4.17,1.927-7.004,1.927
		c-4.156,0-7.479-1.332-9.971-3.996c-2.494-2.664-3.742-6.441-3.742-11.332c0-3.566,0.846-6.55,2.529-8.947
		c1.689-2.394,3.779-4.326,6.271-5.792c-1.369-1.955-2.373-3.824-3.006-5.611c-0.638-1.783-0.953-3.725-0.953-5.83
		c0-2.004,0.312-3.812,0.949-5.426c0.633-1.615,1.5-2.98,2.594-4.107c1.098-1.123,2.414-1.992,3.949-2.604
		c1.534-0.613,3.184-0.918,4.934-0.918c1.707,0,3.266,0.283,4.676,0.844c1.418,0.562,2.633,1.369,3.655,2.42
		c1.023,1.053,1.828,2.334,2.414,3.85c0.582,1.516,0.877,3.227,0.877,5.133c0,1.664-0.271,3.176-0.809,4.547
		c-0.535,1.371-1.246,2.617-2.127,3.74c-0.877,1.123-1.903,2.152-3.077,3.08c-1.177,0.928-2.396,1.785-3.668,2.566l5.942,8.582
		l3.959-9.605h8.648l-7.699,15.843l8.727,12.398L80.106,66.108z M64.118,43.008c-1.078,0.684-2.078,1.711-3.009,3.08
		c-0.93,1.369-1.391,3.152-1.391,5.354c0,2.59,0.574,4.631,1.723,6.123c1.146,1.49,2.65,2.236,4.509,2.236
		c1.563,0,2.86-0.549,3.887-1.648c1.026-1.102,1.761-2.285,2.199-3.557L64.118,43.008z M72.695,25.479
		c0-1.758-0.336-3.199-1.018-4.324c-0.678-1.125-1.67-1.688-2.979-1.688c-1.307,0-2.363,0.613-3.164,1.832
		c-0.799,1.223-1.199,2.713-1.199,4.477c0,1.516,0.242,2.908,0.727,4.18c0.484,1.27,1.211,2.59,2.181,3.957
		c1.452-0.979,2.727-2.137,3.815-3.482C72.15,29.087,72.695,27.438,72.695,25.479z"/>
</g>
</svg>
