<?xml version="1.0" encoding="utf-8"?>
<!-- Generator: Adobe Illustrator 14.0.0, SVG Export Plug-In . SVG Version: 6.00 Build 43363)  -->
<!DOCTYPE svg PUBLIC "-//W3C//DTD SVG 1.1//EN" "http://www.w3.org/Graphics/SVG/1.1/DTD/svg11.dtd">
<svg version="1.1" id="Layer_1" xmlns="http://www.w3.org/2000/svg" xmlns:xlink="http://www.w3.org/1999/xlink" x="0px" y="0px"
	 width="150px" height="150px" viewBox="-25 -40 150 150" enable-background="new -25 -40 150 150" xml:space="preserve">
<path d="M48.837,74.683l-13.2-18.749l11.648-23.968H34.2L28.21,46.494l-8.982-12.978c1.923-1.183,3.771-2.478,5.545-3.882
	c1.774-1.402,3.327-2.957,4.66-4.657c1.329-1.701,2.401-3.586,3.216-5.658c0.812-2.07,1.218-4.363,1.218-6.878
	c0-2.883-0.442-5.469-1.326-7.764c-0.884-2.291-2.103-4.232-3.647-5.822c-1.548-1.589-3.392-2.81-5.529-3.659
	c-2.138-0.849-4.496-1.275-7.075-1.275c-2.653,0-5.144,0.462-7.466,1.387c-2.319,0.926-4.31,2.236-5.969,3.938
	c-1.66,1.702-2.967,3.77-3.927,6.21c-0.958,2.439-1.438,5.176-1.438,8.208c0,3.181,0.479,6.119,1.442,8.817
	c0.961,2.701,2.476,5.532,4.548,8.485c-3.771,2.219-6.932,5.143-9.483,8.763c-2.551,3.624-3.826,8.136-3.826,13.532
	c0,7.397,1.887,13.107,5.655,17.136c3.773,4.031,8.803,6.044,15.087,6.044c4.287,0,7.818-0.969,10.593-2.91
	c2.772-1.941,4.895-4.263,6.376-6.975l5.658,8.112L48.837,74.683z M21.335,57.255c-0.664,1.925-1.772,3.715-3.326,5.378
	c-1.553,1.664-3.513,2.496-5.878,2.496c-2.812,0-5.084-1.126-6.821-3.383c-1.737-2.254-2.606-5.342-2.606-9.26
	c0-3.327,0.701-6.024,2.107-8.096c1.403-2.067,2.92-3.624,4.549-4.659L21.335,57.255z M19.859,20.71
	c-1.647,2.034-3.572,3.788-5.769,5.269c-1.467-2.07-2.567-4.063-3.3-5.988c-0.732-1.923-1.098-4.029-1.098-6.323
	c0-2.662,0.604-4.917,1.814-6.766c1.208-1.848,2.803-2.772,4.783-2.772s3.482,0.848,4.508,2.549
	c1.024,1.703,1.538,3.882,1.538,6.541C22.336,16.18,21.511,18.675,19.859,20.71z M111.83,74.683L98.631,55.934l11.646-23.968H97.193
	l-5.99,14.528l-8.984-12.978c1.922-1.183,3.77-2.478,5.545-3.882c1.775-1.402,3.328-2.957,4.656-4.657
	c1.336-1.701,2.404-3.586,3.219-5.658c0.811-2.07,1.221-4.363,1.221-6.878c0-2.883-0.445-5.469-1.328-7.764
	c-0.889-2.291-2.104-4.232-3.646-5.822c-1.551-1.589-3.391-2.81-5.529-3.659c-2.135-0.849-4.496-1.275-7.074-1.275
	c-2.65,0-5.139,0.462-7.463,1.387c-2.318,0.926-4.312,2.236-5.971,3.938c-1.658,1.702-2.965,3.77-3.922,6.21
	c-0.963,2.439-1.438,5.176-1.438,8.208c0,3.181,0.477,6.119,1.441,8.817c0.959,2.701,2.479,5.532,4.547,8.485
	c-3.77,2.219-6.932,5.143-9.484,8.763c-2.547,3.624-3.824,8.136-3.824,13.532c0,7.397,1.887,13.107,5.66,17.136
	c3.773,4.031,8.795,6.044,15.082,6.044c4.285,0,7.82-0.969,10.594-2.91s4.895-4.263,6.379-6.975l5.66,8.112L111.83,74.683z
	 M84.332,57.255c-0.664,1.925-1.773,3.715-3.326,5.378c-1.553,1.664-3.51,2.496-5.877,2.496c-2.811,0-5.086-1.126-6.82-3.383
	c-1.738-2.254-2.607-5.342-2.607-9.26c0-3.327,0.705-6.024,2.107-8.096c1.402-2.067,2.92-3.624,4.551-4.659L84.332,57.255z
	 M82.857,20.71c-1.648,2.034-3.574,3.788-5.771,5.269c-1.467-2.07-2.564-4.063-3.299-5.988c-0.734-1.923-1.1-4.029-1.1-6.323
	c0-2.662,0.605-4.917,1.812-6.766c1.215-1.848,2.807-2.772,4.785-2.772c1.98,0,3.482,0.848,4.508,2.549
	c1.029,1.703,1.541,3.882,1.541,6.541C85.334,16.18,84.508,18.675,82.857,20.71z"/>
<rect x="-18.681" y="-33.5" fill="none" stroke="#000000" stroke-width="6" width="137.361" height="137.361"/>
</svg>
