<?xml version="1.0" encoding="utf-8"?>
<!-- Generator: Adobe Illustrator 14.0.0, SVG Export Plug-In . SVG Version: 6.00 Build 43363)  -->
<!DOCTYPE svg PUBLIC "-//W3C//DTD SVG 1.1//EN" "http://www.w3.org/Graphics/SVG/1.1/DTD/svg11.dtd">
<svg version="1.1" id="Icon" xmlns="http://www.w3.org/2000/svg" xmlns:xlink="http://www.w3.org/1999/xlink" x="0px" y="0px"
	 width="72px" height="72px" viewBox="0 0 72 72" enable-background="new 0 0 72 72" xml:space="preserve">
<path d="M72.012,62.941c0,4.955-4.033,8.975-9.004,8.975H8.991c-4.973,0-9.001-4.023-9.001-8.975V9.06
	c0-4.962,4.031-8.982,9.001-8.982h54.017c4.969,0,9.004,4.021,9.004,8.982V62.941z"/>
<path fill="#FFFFFF" d="M59.534,14.117c0,0-5.562,0-9.25,0c-5.492,0-11.599,2.302-11.599,10.252c0.026,2.768,0,5.419,0,8.404h-6.354
	v10.093h6.549v29.055h12.031V42.673h7.939l0.722-9.928h-8.869c0,0,0.021-4.419,0-5.7c0-3.139,3.272-2.961,3.468-2.961
	c1.562,0,4.592,0.005,5.367,0v-9.969h-0.01L59.534,14.117L59.534,14.117z"/>
</svg>
