<?xml version="1.0" encoding="utf-8"?>
<!-- Generator: Adobe Illustrator 14.0.0, SVG Export Plug-In . SVG Version: 6.00 Build 43363)  -->
<!DOCTYPE svg PUBLIC "-//W3C//DTD SVG 1.1//EN" "http://www.w3.org/Graphics/SVG/1.1/DTD/svg11.dtd">
<svg version="1.1" id="Icon" xmlns="http://www.w3.org/2000/svg" xmlns:xlink="http://www.w3.org/1999/xlink" x="0px" y="0px"
	 width="72px" height="72px" viewBox="0 0 72 72" enable-background="new 0 0 72 72" xml:space="preserve">
<path fill="#508F7C" d="M72,63c0,4.971-4.029,9-9,9H9c-4.97,0-9-4.029-9-9V9c0-4.97,4.03-9,9-9h54c4.971,0,9,4.03,9,9V63z"/>
<g>
	<g>
		<path fill="#FFFFFF" d="M23.597,17.45c-2.412,0-3.987,1.625-3.938,3.791c-0.05,2.067,1.527,3.741,3.889,3.741
			c2.461,0,4.037-1.674,4.037-3.741C27.536,19.074,26.008,17.45,23.597,17.45z M19.855,53.336h7.482V27.762h-7.482V53.336z
			 M47.568,28.122c-2.396,0-4.834-0.494-7.438,3.54h-0.146l-0.129-3.898h-6.626c0.098,2.116,0.111,5.277,0.111,8.28v17.293h7.482
			v-14.78c0-0.688,0.098-1.379,0.295-1.873c0.49-1.375,1.723-2.806,3.79-2.806c2.706,0,3.79,2.117,3.79,5.218v14.241h7.482V38.158
			C56.184,31.069,52.488,28.122,47.568,28.122z"/>
	</g>
</g>
</svg>
