<?xml version="1.0" encoding="utf-8"?>
<!-- Generator: Adobe Illustrator 14.0.0, SVG Export Plug-In . SVG Version: 6.00 Build 43363)  -->
<!DOCTYPE svg PUBLIC "-//W3C//DTD SVG 1.1//EN" "http://www.w3.org/Graphics/SVG/1.1/DTD/svg11.dtd">
<svg version="1.1" id="Icon" xmlns="http://www.w3.org/2000/svg" xmlns:xlink="http://www.w3.org/1999/xlink" x="0px" y="0px"
	 width="72px" height="72px" viewBox="0 0 72 72" enable-background="new 0 0 72 72" xml:space="preserve">
<path fill="#508F7C" d="M71.938,62.955c0,4.96-4.023,8.982-8.982,8.982H9.047c-4.962,0-8.984-4.023-8.984-8.982V9.047
	c0-4.96,4.022-8.984,8.984-8.984h53.907c4.96,0,8.983,4.024,8.983,8.984V62.955L71.938,62.955z"/>
<g id="krecRE_2_">
	<g>
		<g>
			<path fill="#FFFFFF" d="M26.859,55.422c-10.945-4.436-16.502-17.898-12.146-29.16C19.258,14.52,32.332,8.539,44.102,12.815
				c11.967,4.349,18.069,17.179,13.944,29.309C54.201,53.436,41.177,60.152,30.23,56.621c1.204-3.648,2.407-7.297,3.592-10.885
				c3.518,3.205,8.183,3.313,12.266,0.186c5.049-3.867,7.291-12.852,4.596-18.63c-2.17-4.651-5.969-7.271-10.951-7.921
				c-6.575-0.859-12.386,0.799-16.46,6.387c-2.933,4.022-3.545,8.482-1.491,13.141c0.653,1.48,1.76,2.584,3.215,3.318
				c0.853,0.432,1.384,0.238,1.687-0.72c0.402-1.288,0.382-2.339-0.447-3.603c-1.724-2.629-1.244-5.511-0.102-8.243
				c2.705-6.461,12.007-8.742,17.212-4.277c1.713,1.469,2.566,3.386,2.713,5.566c0.219,3.303-0.293,6.502-1.886,9.459
				c-0.944,1.754-2.241,3.129-4.262,3.619c-3.071,0.742-5.352-1.48-4.605-4.541c0.501-2.058,1.14-4.08,1.688-6.124
				c0.141-0.525,0.216-1.08,0.238-1.625c0.066-1.57-0.67-2.898-1.845-3.411c-1.267-0.552-2.924-0.19-3.989,0.972
				c-1.943,2.125-2.039,4.625-1.471,7.295c0.188,0.873,0.213,1.854,0.025,2.725c-0.873,4.064-1.891,8.098-2.759,12.164
				C26.922,52.719,26.967,54.031,26.859,55.422z"/>
		</g>
	</g>
</g>
</svg>
