<?xml version="1.0" encoding="utf-8"?>
<!-- Generator: Adobe Illustrator 14.0.0, SVG Export Plug-In . SVG Version: 6.00 Build 43363)  -->
<!DOCTYPE svg PUBLIC "-//W3C//DTD SVG 1.1//EN" "http://www.w3.org/Graphics/SVG/1.1/DTD/svg11.dtd">
<svg version="1.1" id="Icon" xmlns="http://www.w3.org/2000/svg" xmlns:xlink="http://www.w3.org/1999/xlink" x="0px" y="0px"
	 width="72px" height="72px" viewBox="0 0 72 72" enable-background="new 0 0 72 72" xml:space="preserve">
<path d="M72,63c0,4.971-4.029,9-9,9H9c-4.97,0-9-4.029-9-9V9c0-4.97,4.03-9,9-9h54c4.971,0,9,4.03,9,9V63z"/>
<path fill="#FFFFFF" d="M60.348,22.108c-1.682,0.746-3.486,1.25-5.383,1.476c1.936-1.16,3.42-2.997,4.12-5.184
	c-1.81,1.074-3.813,1.854-5.952,2.274c-1.709-1.821-4.145-2.958-6.84-2.958c-5.174,0-9.369,4.194-9.369,9.371
	c0,0.733,0.082,1.449,0.242,2.136c-7.789-0.392-14.693-4.122-19.314-9.791c-0.807,1.384-1.269,2.994-1.269,4.711
	c0,3.25,1.654,6.119,4.168,7.798c-1.536-0.048-2.98-0.469-4.245-1.171c0,0.039,0,0.078,0,0.119c0,4.541,3.229,8.326,7.517,9.188
	c-0.788,0.216-1.614,0.327-2.469,0.327c-0.604,0-1.191-0.057-1.764-0.164c1.192,3.722,4.653,6.431,8.752,6.508
	c-3.207,2.514-7.248,4.012-11.637,4.012c-0.756,0-1.503-0.045-2.236-0.133c4.147,2.659,9.072,4.211,14.364,4.211
	c17.234,0,26.66-14.277,26.66-26.66c0-0.407-0.008-0.81-0.027-1.212C57.501,25.638,59.091,23.988,60.348,22.108z"/>
</svg>
