<?xml version="1.0" encoding="utf-8"?>
<!-- Generator: Adobe Illustrator 14.0.0, SVG Export Plug-In . SVG Version: 6.00 Build 43363)  -->
<!DOCTYPE svg PUBLIC "-//W3C//DTD SVG 1.1//EN" "http://www.w3.org/Graphics/SVG/1.1/DTD/svg11.dtd">
<svg version="1.1" id="Icon" xmlns="http://www.w3.org/2000/svg" xmlns:xlink="http://www.w3.org/1999/xlink" x="0px" y="0px"
	 width="72px" height="72px" viewBox="0 0 72 72" enable-background="new 0 0 72 72" xml:space="preserve">
<path fill="#AAD5C4" d="M71.938,62.955c0,4.96-4.024,8.982-8.983,8.982H9.047c-4.962,0-8.984-4.023-8.984-8.982V9.047
	c0-4.96,4.022-8.984,8.984-8.984h53.907c4.96,0,8.983,4.024,8.983,8.984V62.955z"/>
<g>
	<path fill="#FFFFFF" d="M36.631,19.954c0,2.88-0.029,5.761,0.015,8.644c0.017,1.148-0.265,2.221-1.481,2.248
		c-0.822,0.018-1.943-0.463-2.442-1.1c-2.034-2.597-3.874-5.344-5.793-8.031c-1.298-1.819-2.575-3.655-3.913-5.445
		c-1.784-2.387-1.344-3.891,1.547-4.758c2.742-0.823,5.504-1.58,8.277-2.295c2.311-0.594,3.689,0.492,3.707,2.84
		c0.018,2.633,0.002,5.265,0.002,7.897C36.576,19.954,36.604,19.954,36.631,19.954z"/>
	<path fill="#FFFFFF" d="M16.121,37.623c0.273-1.978,0.42-3.602,0.74-5.193c0.33-1.637,1.893-2.305,3.434-1.673
		c3.359,1.376,6.775,2.622,10.085,4.105c0.806,0.362,1.545,1.346,1.855,2.206c0.394,1.092-0.462,1.807-1.493,2.154
		c-2.117,0.71-4.235,1.407-6.355,2.099c-1.611,0.526-3.239,1.001-4.842,1.559c-1.086,0.381-2.464-0.134-2.722-1.241
		C16.486,40.21,16.311,38.74,16.121,37.623z"/>
	<path fill="#FFFFFF" d="M56.915,46.592c-0.316,0.626-0.712,1.881-1.483,2.824c-1.322,1.613-2.823,3.096-4.354,4.52
		c-1.04,0.967-2.343,0.812-3.093-0.359c-2.148-3.358-4.176-6.797-6.321-10.158c-0.626-0.973-0.325-1.851,0.303-2.391
		c0.587-0.501,1.676-0.945,2.339-0.74c3.862,1.186,7.672,2.551,11.48,3.905C56.974,44.612,56.982,44.735,56.915,46.592z"/>
	<path fill="#FFFFFF" d="M42.685,35.478c-0.442-0.353-1.419-0.786-1.766-1.519c-0.259-0.543,0.108-1.607,0.529-2.207
		c1.96-2.811,3.976-5.584,6.087-8.281c1.998-2.559,2.752-2.618,4.857-0.285c1.695,1.875,2.905,4.213,4.179,6.43
		c0.808,1.402,0.202,2.365-1.401,2.807c-2.592,0.711-5.156,1.517-7.756,2.188C46.04,34.967,44.618,35.133,42.685,35.478z"/>
	<path fill="#FFFFFF" d="M36.568,50.635c0,1.938,0.016,3.878-0.004,5.816c-0.016,1.398-0.953,2.318-2.331,2.076
		c-2.812-0.494-5.586-1.106-8.042-2.727c-1.881-1.24-2.189-2.531-0.758-4.168c2.302-2.635,4.611-5.262,6.963-7.855
		c0.816-0.904,1.707-1.541,3.104-0.818c0.816,0.424,1.082,0.902,1.078,1.717c-0.011,1.987-0.003,3.973-0.003,5.963
		C36.573,50.635,36.57,50.635,36.568,50.635z"/>
</g>
</svg>
